<?xml version="1.0" encoding="utf-8" standalone="no"?>
<!DOCTYPE svg PUBLIC "-//W3C//DTD SVG 1.1//EN"
  "http://www.w3.org/Graphics/SVG/1.1/DTD/svg11.dtd">
<svg height="208.52pt" version="1.1" viewBox="0 0 141.017695 208.52" width="141.017695pt" xmlns="http://www.w3.org/2000/svg" xmlns:xlink="http://www.w3.org/1999/xlink">
 <metadata>
  <rdf:RDF xmlns:cc="http://creativecommons.org/ns#" xmlns:dc="http://purl.org/dc/elements/1.1/" xmlns:rdf="http://www.w3.org/1999/02/22-rdf-syntax-ns#">
   <cc:Work>
    <dc:type rdf:resource="http://purl.org/dc/dcmitype/StillImage"/>
    <dc:date>2023-04-27T13:10:49.375000</dc:date>
    <dc:format>image/svg+xml</dc:format>
    <dc:creator>
     <cc:Agent>
      <dc:title>Matplotlib v3.4.3, https://matplotlib.org/</dc:title>
     </cc:Agent>
    </dc:creator>
   </cc:Work>
  </rdf:RDF>
 </metadata>
 <defs>
  <style type="text/css">*{stroke-linecap:butt;stroke-linejoin:round;}</style>
 </defs>
 <g id="figure_1">
  <g id="patch_1">
   <path d="M 0 208.52 
L 141.017695 208.52 
L 141.017695 -0 
L 0 -0 
z
" style="fill:#ffffff;"/>
  </g>
  <g id="axes_1">
   <g id="legend_1">
    <g id="line2d_1">
     <path d="M 4.783848 22.552344 
L 26.783848 22.552344 
" style="fill:none;stroke:#ffffff;stroke-linecap:round;stroke-width:1.5;"/>
    </g>
    <g id="line2d_2">
     <defs>
      <path d="M -5 5 
L 5 5 
L 5 -5 
L -5 -5 
z
" id="m7ab495a34c" style="stroke:#ffffff;stroke-linejoin:miter;"/>
     </defs>
     <g>
      <use style="fill:#0000ff;stroke:#ffffff;stroke-linejoin:miter;" x="15.783848" xlink:href="#m7ab495a34c" y="22.552344"/>
     </g>
    </g>
    <g id="text_1">
     <text style="fill:#262626;font-family:DejaVu Sans;font-size:11px;font-stretch:normal;font-style:normal;font-weight:normal;text-anchor:start;" transform="rotate(-0, 35.583848, 26.402344)" x="35.583848" y="26.402344">JAMIE</text>
    </g>
    <g id="line2d_3">
     <path d="M 4.783848 38.698281 
L 26.783848 38.698281 
" style="fill:none;stroke:#ffffff;stroke-linecap:round;stroke-width:1.5;"/>
    </g>
    <g id="line2d_4">
     <defs>
      <path d="M -5 5 
L 5 5 
L 5 -5 
L -5 -5 
z
" id="mbdfd9f49eb" style="stroke:#ffffff;stroke-linejoin:miter;"/>
     </defs>
     <g>
      <use style="fill:#00ffff;stroke:#ffffff;stroke-linejoin:miter;" x="15.783848" xlink:href="#mbdfd9f49eb" y="38.698281"/>
     </g>
    </g>
    <g id="text_2">
     <text style="fill:#262626;font-family:DejaVu Sans;font-size:11px;font-stretch:normal;font-style:normal;font-weight:normal;text-anchor:start;" transform="rotate(-0, 35.583848, 42.548281)" x="35.583848" y="42.548281">JAMIE (.5)</text>
    </g>
    <g id="line2d_5">
     <path d="M 4.783848 54.845937 
L 26.783848 54.845937 
" style="fill:none;stroke:#ffffff;stroke-linecap:round;stroke-width:1.5;"/>
    </g>
    <g id="line2d_6">
     <defs>
      <path d="M -5 5 
L 5 5 
L 5 -5 
L -5 -5 
z
" id="m3fa6b0c579" style="stroke:#ffffff;stroke-linejoin:miter;"/>
     </defs>
     <g>
      <use style="fill:#808080;stroke:#ffffff;stroke-linejoin:miter;" x="15.783848" xlink:href="#m3fa6b0c579" y="54.845937"/>
     </g>
    </g>
    <g id="text_3">
     <!-- JAMIE (.5, $\gamma=0$) -->
     <g style="fill:#262626;" transform="translate(35.583848 58.695937)">
      <text>
       <tspan style="font-family:DejaVu Sans;font-size:11px;font-style:book;font-weight:book;" x="0 3.244141 10.769043 20.259766 23.503906 30.454102 33.950684 38.242188 41.73877 48.737305 52.233887 64.383301 75.743164 82.741699" y="-0.65625">JAMIE (.5, =0)</tspan>
       <tspan style="font-family:DejaVu Sans;font-size:11px;font-style:oblique;font-weight:oblique;" x="55.730469" y="-0.65625">γ</tspan>
      </text>
     </g>
    </g>
    <g id="line2d_7">
     <path d="M 4.783848 71.015937 
L 26.783848 71.015937 
" style="fill:none;stroke:#ffffff;stroke-linecap:round;stroke-width:1.5;"/>
    </g>
    <g id="line2d_8">
     <defs>
      <path d="M -5 5 
L 5 5 
L 5 -5 
L -5 -5 
z
" id="mc290f167cc" style="stroke:#ffffff;stroke-linejoin:miter;"/>
     </defs>
     <g>
      <use style="fill:#ffc0cb;stroke:#ffffff;stroke-linejoin:miter;" x="15.783848" xlink:href="#mc290f167cc" y="71.015937"/>
     </g>
    </g>
    <g id="text_4">
     <!-- JAMIE ($\gamma=0$) -->
     <g style="fill:#262626;" transform="translate(35.583848 74.865937)">
      <text>
       <tspan style="font-family:DejaVu Sans;font-size:11px;font-style:book;font-weight:book;" x="0 3.244141 10.769043 20.259766 23.503906 30.454102 33.950684 46.89502 58.254883 65.253418" y="-0.65625">JAMIE (=0)</tspan>
       <tspan style="font-family:DejaVu Sans;font-size:11px;font-style:oblique;font-weight:oblique;" x="38.242188" y="-0.65625">γ</tspan>
      </text>
     </g>
    </g>
    <g id="line2d_9">
     <path d="M 4.783848 87.295937 
L 26.783848 87.295937 
" style="fill:none;stroke:#ffffff;stroke-linecap:round;stroke-width:1.5;"/>
    </g>
    <g id="line2d_10">
     <defs>
      <path d="M -5 5 
L 5 5 
L 5 -5 
L -5 -5 
z
" id="m1e5e460baf" style="stroke:#ffffff;stroke-linejoin:miter;"/>
     </defs>
     <g>
      <use style="fill:#ffa500;stroke:#ffffff;stroke-linejoin:miter;" x="15.783848" xlink:href="#m1e5e460baf" y="87.295937"/>
     </g>
    </g>
    <g id="text_5">
     <!-- JAMIE ($\beta=0$) -->
     <g style="fill:#262626;" transform="translate(35.583848 91.145937)">
      <text>
       <tspan style="font-family:DejaVu Sans;font-size:11px;font-style:book;font-weight:book;" x="0 3.244141 10.769043 20.259766 23.503906 30.454102 33.950684 47.405273 58.765137 65.763672" y="-0.578125">JAMIE (=0)</tspan>
       <tspan style="font-family:DejaVu Sans;font-size:11px;font-style:oblique;font-weight:oblique;" x="38.242188" y="-0.578125">β</tspan>
      </text>
     </g>
    </g>
    <g id="line2d_11">
     <path d="M 4.783848 103.465937 
L 26.783848 103.465937 
" style="fill:none;stroke:#ffffff;stroke-linecap:round;stroke-width:1.5;"/>
    </g>
    <g id="line2d_12">
     <defs>
      <path d="M -5 5 
L 5 5 
L 5 -5 
L -5 -5 
z
" id="m2d980ff59b" style="stroke:#ffffff;stroke-linejoin:miter;"/>
     </defs>
     <g>
      <use style="fill:#008000;stroke:#ffffff;stroke-linejoin:miter;" x="15.783848" xlink:href="#m2d980ff59b" y="103.465937"/>
     </g>
    </g>
    <g id="text_6">
     <!-- JAMIE ($\alpha=0$) -->
     <g style="fill:#262626;" transform="translate(35.583848 107.315937)">
      <text>
       <tspan style="font-family:DejaVu Sans;font-size:11px;font-style:book;font-weight:book;" x="0 3.244141 10.769043 20.259766 23.503906 30.454102 33.950684 47.63623 58.996094 65.994629" y="-0.65625">JAMIE (=0)</tspan>
       <tspan style="font-family:DejaVu Sans;font-size:11px;font-style:oblique;font-weight:oblique;" x="38.242188" y="-0.65625">α</tspan>
      </text>
     </g>
    </g>
    <g id="line2d_13">
     <path d="M 4.783848 119.635937 
L 26.783848 119.635937 
" style="fill:none;stroke:#ffffff;stroke-linecap:round;stroke-width:1.5;"/>
    </g>
    <g id="line2d_14">
     <defs>
      <path d="M -5 5 
L 5 5 
L 5 -5 
L -5 -5 
z
" id="m5c5330a43d" style="stroke:#ffffff;stroke-linejoin:miter;"/>
     </defs>
     <g>
      <use style="fill:#ff0000;stroke:#ffffff;stroke-linejoin:miter;" x="15.783848" xlink:href="#m5c5330a43d" y="119.635937"/>
     </g>
    </g>
    <g id="text_7">
     <!-- JAMIE ($\kappa=0$) -->
     <g style="fill:#262626;" transform="translate(35.583848 123.485937)">
      <text>
       <tspan style="font-family:DejaVu Sans;font-size:11px;font-style:book;font-weight:book;" x="0 3.244141 10.769043 20.259766 23.503906 30.454102 33.950684 46.868164 58.228027 65.226562" y="-0.65625">JAMIE (=0)</tspan>
       <tspan style="font-family:DejaVu Sans;font-size:11px;font-style:oblique;font-weight:oblique;" x="38.242188" y="-0.65625">κ</tspan>
      </text>
     </g>
    </g>
    <g id="line2d_15">
     <path d="M 4.783848 135.805937 
L 26.783848 135.805937 
" style="fill:none;stroke:#ffffff;stroke-linecap:round;stroke-width:1.5;"/>
    </g>
    <g id="line2d_16">
     <defs>
      <path d="M -5 5 
L 5 5 
L 5 -5 
L -5 -5 
z
" id="md0180b48f1" style="stroke:#ffffff;stroke-linejoin:miter;"/>
     </defs>
     <g>
      <use style="fill:#ffff00;stroke:#ffffff;stroke-linejoin:miter;" x="15.783848" xlink:href="#md0180b48f1" y="135.805937"/>
     </g>
    </g>
    <g id="text_8">
     <!-- JAMIE ($\# PC=128$) -->
     <g style="fill:#262626;" transform="translate(35.583848 139.655937)">
      <text>
       <tspan style="font-family:DejaVu Sans;font-size:11px;font-style:book;font-weight:book;" x="0 3.244141 10.769043 20.259766 23.503906 30.454102 33.950684 38.242188 63.916016 75.275879 82.274414 89.272949 96.271484" y="-0.65625">JAMIE (#=128)</tspan>
       <tspan style="font-family:DejaVu Sans;font-size:11px;font-style:oblique;font-weight:oblique;" x="47.458984 54.092285" y="-0.65625">PC</tspan>
      </text>
     </g>
    </g>
    <g id="line2d_17">
     <path d="M 4.783848 151.975937 
L 26.783848 151.975937 
" style="fill:none;stroke:#ffffff;stroke-linecap:round;stroke-width:1.5;"/>
    </g>
    <g id="line2d_18">
     <defs>
      <path d="M -5 5 
L 5 5 
L 5 -5 
L -5 -5 
z
" id="m75288a3589" style="stroke:#ffffff;stroke-linejoin:miter;"/>
     </defs>
     <g>
      <use style="fill:#800080;stroke:#ffffff;stroke-linejoin:miter;" x="15.783848" xlink:href="#m75288a3589" y="151.975937"/>
     </g>
    </g>
    <g id="text_9">
     <!-- JAMIE ($\# PC=32$) -->
     <g style="fill:#262626;" transform="translate(35.583848 155.825937)">
      <text>
       <tspan style="font-family:DejaVu Sans;font-size:11px;font-style:book;font-weight:book;" x="0 3.244141 10.769043 20.259766 23.503906 30.454102 33.950684 38.242188 63.916016 75.275879 82.274414 89.272949" y="-0.65625">JAMIE (#=32)</tspan>
       <tspan style="font-family:DejaVu Sans;font-size:11px;font-style:oblique;font-weight:oblique;" x="47.458984 54.092285" y="-0.65625">PC</tspan>
      </text>
     </g>
    </g>
    <g id="line2d_19">
     <path d="M 4.783848 168.145938 
L 26.783848 168.145938 
" style="fill:none;stroke:#ffffff;stroke-linecap:round;stroke-width:1.5;"/>
    </g>
    <g id="line2d_20">
     <defs>
      <path d="M -5 5 
L 5 5 
L 5 -5 
L -5 -5 
z
" id="mb48e882000" style="stroke:#ffffff;stroke-linejoin:miter;"/>
     </defs>
     <g>
      <use style="fill:#9acd32;stroke:#ffffff;stroke-linejoin:miter;" x="15.783848" xlink:href="#mb48e882000" y="168.145938"/>
     </g>
    </g>
    <g id="text_10">
     <!-- JAMIE ($g=16$) -->
     <g style="fill:#262626;" transform="translate(35.583848 171.995937)">
      <text>
       <tspan style="font-family:DejaVu Sans;font-size:11px;font-style:book;font-weight:book;" x="0 3.244141 10.769043 20.259766 23.503906 30.454102 33.950684 47.367676 58.727539 65.726074 72.724609" y="-0.65625">JAMIE (=16)</tspan>
       <tspan style="font-family:DejaVu Sans;font-size:11px;font-style:oblique;font-weight:oblique;" x="38.242188" y="-0.65625">g</tspan>
      </text>
     </g>
    </g>
    <g id="line2d_21">
     <path d="M 4.783848 184.315938 
L 26.783848 184.315938 
" style="fill:none;stroke:#ffffff;stroke-linecap:round;stroke-width:1.5;"/>
    </g>
    <g id="line2d_22">
     <defs>
      <path d="M -5 5 
L 5 5 
L 5 -5 
L -5 -5 
z
" id="me1c79a1500" style="stroke:#ffffff;stroke-linejoin:miter;"/>
     </defs>
     <g>
      <use style="fill:#00ff00;stroke:#ffffff;stroke-linejoin:miter;" x="15.783848" xlink:href="#me1c79a1500" y="184.315938"/>
     </g>
    </g>
    <g id="text_11">
     <!-- JAMIE ($g=8$) -->
     <g style="fill:#262626;" transform="translate(35.583848 188.165938)">
      <text>
       <tspan style="font-family:DejaVu Sans;font-size:11px;font-style:book;font-weight:book;" x="0 3.244141 10.769043 20.259766 23.503906 30.454102 33.950684 47.367676 58.727539 65.726074" y="-0.65625">JAMIE (=8)</tspan>
       <tspan style="font-family:DejaVu Sans;font-size:11px;font-style:oblique;font-weight:oblique;" x="38.242188" y="-0.65625">g</tspan>
      </text>
     </g>
    </g>
   </g>
  </g>
 </g>
</svg>
