<?xml version="1.0" encoding="utf-8" standalone="no"?>
<!DOCTYPE svg PUBLIC "-//W3C//DTD SVG 1.1//EN"
  "http://www.w3.org/Graphics/SVG/1.1/DTD/svg11.dtd">
<svg height="342.50475pt" version="1.1" viewBox="0 0 359.30475 342.50475" width="359.30475pt" xmlns="http://www.w3.org/2000/svg" xmlns:xlink="http://www.w3.org/1999/xlink">
 <metadata>
  <rdf:RDF xmlns:cc="http://creativecommons.org/ns#" xmlns:dc="http://purl.org/dc/elements/1.1/" xmlns:rdf="http://www.w3.org/1999/02/22-rdf-syntax-ns#">
   <cc:Work>
    <dc:type rdf:resource="http://purl.org/dc/dcmitype/StillImage"/>
    <dc:date>2023-04-27T13:10:53.358086</dc:date>
    <dc:format>image/svg+xml</dc:format>
    <dc:creator>
     <cc:Agent>
      <dc:title>Matplotlib v3.4.3, https://matplotlib.org/</dc:title>
     </cc:Agent>
    </dc:creator>
   </cc:Work>
  </rdf:RDF>
 </metadata>
 <defs>
  <style type="text/css">*{stroke-linecap:butt;stroke-linejoin:round;}</style>
 </defs>
 <g id="figure_1">
  <g id="patch_1">
   <path d="M 0 342.50475 
L 359.30475 342.50475 
L 359.30475 0 
L 0 0 
z
" style="fill:#ffffff;"/>
  </g>
  <g id="axes_1">
   <g id="patch_2">
    <path d="M 73.10475 119.138738 
L 207.45075 119.138738 
L 207.45075 7.2 
L 73.10475 7.2 
z
" style="fill:#ffffff;"/>
   </g>
   <g id="matplotlib.axis_1">
    <g id="xtick_1"/>
    <g id="xtick_2"/>
   </g>
   <g id="matplotlib.axis_2">
    <g id="ytick_1">
     <g id="line2d_1">
      <defs>
       <path d="M 0 0 
L -6 0 
" id="m2a2a3d8272" style="stroke:#262626;stroke-width:1.25;"/>
      </defs>
      <g>
       <use style="fill:#262626;stroke:#262626;stroke-width:1.25;" x="73.10475" xlink:href="#m2a2a3d8272" y="88.105535"/>
      </g>
     </g>
     <g id="text_1">
      <text style="fill:#262626;font-family:DejaVu Sans;font-size:14.994px;font-stretch:normal;font-style:normal;font-weight:normal;text-anchor:end;" transform="rotate(-0, 63.60475, 93.802083)" x="63.60475" y="93.802083">0.9</text>
     </g>
    </g>
    <g id="ytick_2">
     <g id="line2d_2">
      <g>
       <use style="fill:#262626;stroke:#262626;stroke-width:1.25;" x="73.10475" xlink:href="#m2a2a3d8272" y="32.171373"/>
      </g>
     </g>
     <g id="text_2">
      <text style="fill:#262626;font-family:DejaVu Sans;font-size:14.994px;font-stretch:normal;font-style:normal;font-weight:normal;text-anchor:end;" transform="rotate(-0, 63.60475, 37.867922)" x="63.60475" y="37.867922">1.0</text>
     </g>
    </g>
   </g>
   <g id="PathCollection_1">
    <defs>
     <path d="M -2.705981 -6.532815 
L -6.532815 -2.705981 
L -6.532815 2.705981 
L -2.705981 6.532815 
L 2.705981 6.532815 
L 6.532815 2.705981 
L 6.532815 -2.705981 
L 2.705981 -6.532815 
z
" id="m070e1b1469" style="stroke:#0000ff;"/>
    </defs>
    <g clip-path="url(#pb409238ce1)">
     <use style="fill:#0000ff;stroke:#0000ff;" x="451.202101" xlink:href="#m070e1b1469" y="62.174372"/>
    </g>
   </g>
   <g id="PathCollection_2">
    <defs>
     <path d="M 0 7.071068 
C 1.875269 7.071068 3.673985 6.326016 5 5 
C 6.326016 3.673985 7.071068 1.875269 7.071068 0 
C 7.071068 -1.875269 6.326016 -3.673985 5 -5 
C 3.673985 -6.326016 1.875269 -7.071068 0 -7.071068 
C -1.875269 -7.071068 -3.673985 -6.326016 -5 -5 
C -6.326016 -3.673985 -7.071068 -1.875269 -7.071068 0 
C -7.071068 1.875269 -6.326016 3.673985 -5 5 
C -3.673985 6.326016 -1.875269 7.071068 0 7.071068 
z
" id="m746871d2a7" style="stroke:#ffc0cb;"/>
    </defs>
    <g clip-path="url(#pb409238ce1)">
     <use style="fill:#ffc0cb;stroke:#ffc0cb;" x="451.613624" xlink:href="#m746871d2a7" y="66.001285"/>
    </g>
   </g>
   <g id="PathCollection_3">
    <defs>
     <path d="M 0 7.071068 
C 1.875269 7.071068 3.673985 6.326016 5 5 
C 6.326016 3.673985 7.071068 1.875269 7.071068 0 
C 7.071068 -1.875269 6.326016 -3.673985 5 -5 
C 3.673985 -6.326016 1.875269 -7.071068 0 -7.071068 
C -1.875269 -7.071068 -3.673985 -6.326016 -5 -5 
C -6.326016 -3.673985 -7.071068 -1.875269 -7.071068 0 
C -7.071068 1.875269 -6.326016 3.673985 -5 5 
C -3.673985 6.326016 -1.875269 7.071068 0 7.071068 
z
" id="m279c00ebeb" style="stroke:#ffa500;"/>
    </defs>
    <g clip-path="url(#pb409238ce1)">
     <use style="fill:#ffa500;stroke:#ffa500;" x="146.514293" xlink:href="#m279c00ebeb" y="394.350428"/>
    </g>
   </g>
   <g id="PathCollection_4">
    <defs>
     <path d="M 0 7.071068 
C 1.875269 7.071068 3.673985 6.326016 5 5 
C 6.326016 3.673985 7.071068 1.875269 7.071068 0 
C 7.071068 -1.875269 6.326016 -3.673985 5 -5 
C 3.673985 -6.326016 1.875269 -7.071068 0 -7.071068 
C -1.875269 -7.071068 -3.673985 -6.326016 -5 -5 
C -6.326016 -3.673985 -7.071068 -1.875269 -7.071068 0 
C -7.071068 1.875269 -6.326016 3.673985 -5 5 
C -3.673985 6.326016 -1.875269 7.071068 0 7.071068 
z
" id="m74a9eecd20" style="stroke:#008000;"/>
    </defs>
    <g clip-path="url(#pb409238ce1)">
     <use style="fill:#008000;stroke:#008000;" x="134.041208" xlink:href="#m74a9eecd20" y="354.703608"/>
    </g>
   </g>
   <g id="PathCollection_5">
    <defs>
     <path d="M 0 7.071068 
C 1.875269 7.071068 3.673985 6.326016 5 5 
C 6.326016 3.673985 7.071068 1.875269 7.071068 0 
C 7.071068 -1.875269 6.326016 -3.673985 5 -5 
C 3.673985 -6.326016 1.875269 -7.071068 0 -7.071068 
C -1.875269 -7.071068 -3.673985 -6.326016 -5 -5 
C -6.326016 -3.673985 -7.071068 -1.875269 -7.071068 0 
C -7.071068 1.875269 -6.326016 3.673985 -5 5 
C -3.673985 6.326016 -1.875269 7.071068 0 7.071068 
z
" id="m1a5b931245" style="stroke:#ff0000;"/>
    </defs>
    <g clip-path="url(#pb409238ce1)">
     <use style="fill:#ff0000;stroke:#ff0000;" x="448.297656" xlink:href="#m1a5b931245" y="60.337454"/>
    </g>
   </g>
   <g id="line2d_3">
    <path d="M 69.286373 122.957115 
L 76.923127 115.320362 
" style="fill:none;stroke:#1a1a1a;stroke-linecap:round;stroke-width:1.25;"/>
   </g>
   <g id="patch_3">
    <path d="M 73.10475 119.138738 
L 73.10475 7.2 
" style="fill:none;stroke:#262626;stroke-linecap:square;stroke-linejoin:miter;stroke-width:1.25;"/>
   </g>
  </g>
  <g id="axes_2">
   <g id="patch_4">
    <path d="M 226.915867 119.138738 
L 352.10475 119.138738 
L 352.10475 7.2 
L 226.915867 7.2 
z
" style="fill:#ffffff;"/>
   </g>
   <g id="matplotlib.axis_3">
    <g id="xtick_3"/>
    <g id="xtick_4"/>
   </g>
   <g id="matplotlib.axis_4">
    <g id="ytick_3"/>
    <g id="ytick_4"/>
   </g>
   <g id="PathCollection_6">
    <g clip-path="url(#pb75d2d5616)">
     <use style="fill:#0000ff;stroke:#0000ff;" x="290.756769" xlink:href="#m070e1b1469" y="62.174372"/>
    </g>
   </g>
   <g id="PathCollection_7">
    <g clip-path="url(#pb75d2d5616)">
     <use style="fill:#ffc0cb;stroke:#ffc0cb;" x="291.168292" xlink:href="#m746871d2a7" y="66.001285"/>
    </g>
   </g>
   <g id="PathCollection_8">
    <g clip-path="url(#pb75d2d5616)"/>
   </g>
   <g id="PathCollection_9">
    <g clip-path="url(#pb75d2d5616)"/>
   </g>
   <g id="PathCollection_10">
    <g clip-path="url(#pb75d2d5616)">
     <use style="fill:#ff0000;stroke:#ff0000;" x="287.852324" xlink:href="#m1a5b931245" y="60.337454"/>
    </g>
   </g>
  </g>
  <g id="axes_3">
   <g id="patch_5">
    <path d="M 73.10475 284.4 
L 207.45075 284.4 
L 207.45075 138.478273 
L 73.10475 138.478273 
z
" style="fill:#ffffff;"/>
   </g>
   <g id="matplotlib.axis_5">
    <g id="xtick_5">
     <g id="line2d_4">
      <defs>
       <path d="M 0 0 
L 0 6 
" id="meec61bb499" style="stroke:#262626;stroke-width:1.25;"/>
      </defs>
      <g>
       <use style="fill:#262626;stroke:#262626;stroke-width:1.25;" x="196.006261" xlink:href="#meec61bb499" y="284.4"/>
      </g>
     </g>
     <g id="text_3">
      <text style="fill:#262626;font-family:DejaVu Sans;font-size:14.994px;font-stretch:normal;font-style:normal;font-weight:normal;text-anchor:middle;" transform="rotate(-0, 196.006261, 305.293097)" x="196.006261" y="305.293097">0.4</text>
     </g>
    </g>
    <g id="xtick_6">
     <g id="line2d_5">
      <g>
       <use style="fill:#262626;stroke:#262626;stroke-width:1.25;" x="131.862622" xlink:href="#meec61bb499" y="284.4"/>
      </g>
     </g>
     <g id="text_4">
      <text style="fill:#262626;font-family:DejaVu Sans;font-size:14.994px;font-stretch:normal;font-style:normal;font-weight:normal;text-anchor:middle;" transform="rotate(-0, 131.862622, 305.293097)" x="131.862622" y="305.293097">0.5</text>
     </g>
    </g>
   </g>
   <g id="matplotlib.axis_6">
    <g id="ytick_5">
     <g id="line2d_6">
      <g>
       <use style="fill:#262626;stroke:#262626;stroke-width:1.25;" x="73.10475" xlink:href="#m2a2a3d8272" y="260.622624"/>
      </g>
     </g>
     <g id="text_5">
      <text style="fill:#262626;font-family:DejaVu Sans;font-size:14.994px;font-stretch:normal;font-style:normal;font-weight:normal;text-anchor:end;" transform="rotate(-0, 63.60475, 266.319172)" x="63.60475" y="266.319172">0.3</text>
     </g>
    </g>
    <g id="ytick_6">
     <g id="line2d_7">
      <g>
       <use style="fill:#262626;stroke:#262626;stroke-width:1.25;" x="73.10475" xlink:href="#m2a2a3d8272" y="204.688462"/>
      </g>
     </g>
     <g id="text_6">
      <text style="fill:#262626;font-family:DejaVu Sans;font-size:14.994px;font-stretch:normal;font-style:normal;font-weight:normal;text-anchor:end;" transform="rotate(-0, 63.60475, 210.385011)" x="63.60475" y="210.385011">0.4</text>
     </g>
    </g>
    <g id="ytick_7">
     <g id="line2d_8">
      <g>
       <use style="fill:#262626;stroke:#262626;stroke-width:1.25;" x="73.10475" xlink:href="#m2a2a3d8272" y="148.7543"/>
      </g>
     </g>
     <g id="text_7">
      <text style="fill:#262626;font-family:DejaVu Sans;font-size:14.994px;font-stretch:normal;font-style:normal;font-weight:normal;text-anchor:end;" transform="rotate(-0, 63.60475, 154.450849)" x="63.60475" y="154.450849">0.5</text>
     </g>
    </g>
   </g>
   <g id="PathCollection_11">
    <g clip-path="url(#pe882105e7d)"/>
   </g>
   <g id="PathCollection_12">
    <g clip-path="url(#pe882105e7d)"/>
   </g>
   <g id="PathCollection_13">
    <g clip-path="url(#pe882105e7d)">
     <use style="fill:#ffa500;stroke:#ffa500;" x="146.514293" xlink:href="#m279c00ebeb" y="231.262546"/>
    </g>
   </g>
   <g id="PathCollection_14">
    <g clip-path="url(#pe882105e7d)">
     <use style="fill:#008000;stroke:#008000;" x="134.041208" xlink:href="#m74a9eecd20" y="191.615727"/>
    </g>
   </g>
   <g id="PathCollection_15">
    <g clip-path="url(#pe882105e7d)"/>
   </g>
   <g id="line2d_9">
    <path d="M 203.632374 288.218377 
L 211.269127 280.581623 
" style="fill:none;stroke:#1a1a1a;stroke-linecap:round;stroke-width:1.25;"/>
   </g>
   <g id="line2d_10">
    <path d="M 69.286373 142.29665 
L 76.923127 134.659897 
" style="fill:none;stroke:#1a1a1a;stroke-linecap:round;stroke-width:1.25;"/>
   </g>
   <g id="patch_6">
    <path d="M 73.10475 284.4 
L 73.10475 138.478273 
" style="fill:none;stroke:#262626;stroke-linecap:square;stroke-linejoin:miter;stroke-width:1.25;"/>
   </g>
   <g id="patch_7">
    <path d="M 73.10475 284.4 
L 207.45075 284.4 
" style="fill:none;stroke:#262626;stroke-linecap:square;stroke-linejoin:miter;stroke-width:1.25;"/>
   </g>
  </g>
  <g id="axes_4">
   <g id="patch_8">
    <path d="M 226.915867 284.4 
L 352.10475 284.4 
L 352.10475 138.478273 
L 226.915867 138.478273 
z
" style="fill:#ffffff;"/>
   </g>
   <g id="matplotlib.axis_7">
    <g id="xtick_7">
     <g id="line2d_11">
      <g>
       <use style="fill:#262626;stroke:#262626;stroke-width:1.25;" x="292.135488" xlink:href="#meec61bb499" y="284.4"/>
      </g>
     </g>
     <g id="text_8">
      <text style="fill:#262626;font-family:DejaVu Sans;font-size:14.994px;font-stretch:normal;font-style:normal;font-weight:normal;text-anchor:middle;" transform="rotate(-0, 292.135488, 305.293097)" x="292.135488" y="305.293097">0.0</text>
     </g>
    </g>
    <g id="xtick_8">
     <g id="line2d_12">
      <g>
       <use style="fill:#262626;stroke:#262626;stroke-width:1.25;" x="227.991848" xlink:href="#meec61bb499" y="284.4"/>
      </g>
     </g>
     <g id="text_9">
      <text style="fill:#262626;font-family:DejaVu Sans;font-size:14.994px;font-stretch:normal;font-style:normal;font-weight:normal;text-anchor:middle;" transform="rotate(-0, 227.991848, 305.293097)" x="227.991848" y="305.293097">0.1</text>
     </g>
    </g>
   </g>
   <g id="matplotlib.axis_8">
    <g id="ytick_8"/>
    <g id="ytick_9"/>
    <g id="ytick_10"/>
   </g>
   <g id="PathCollection_16">
    <g clip-path="url(#pa31bec43ce)"/>
   </g>
   <g id="PathCollection_17">
    <g clip-path="url(#pa31bec43ce)"/>
   </g>
   <g id="PathCollection_18">
    <g clip-path="url(#pa31bec43ce)"/>
   </g>
   <g id="PathCollection_19">
    <g clip-path="url(#pa31bec43ce)"/>
   </g>
   <g id="PathCollection_20">
    <g clip-path="url(#pa31bec43ce)"/>
   </g>
   <g id="line2d_13">
    <path d="M 223.09749 288.218377 
L 230.734243 280.581623 
" style="fill:none;stroke:#1a1a1a;stroke-linecap:round;stroke-width:1.25;"/>
   </g>
   <g id="patch_9">
    <path d="M 226.915867 284.4 
L 352.10475 284.4 
" style="fill:none;stroke:#262626;stroke-linecap:square;stroke-linejoin:miter;stroke-width:1.25;"/>
   </g>
  </g>
  <g id="axes_5">
   <g id="patch_10">
    <path d="M 73.10475 284.4 
L 352.10475 284.4 
L 352.10475 7.2 
L 73.10475 7.2 
z
" style="fill:none;"/>
   </g>
   <g id="matplotlib.axis_9">
    <g id="text_10">
     <text style="fill:#262626;font-family:DejaVu Sans;font-size:21.6px;font-stretch:normal;font-style:normal;font-weight:normal;text-anchor:middle;" transform="rotate(-0, 212.60475, 330.812625)" x="212.60475" y="330.812625">FOSCTTM</text>
    </g>
   </g>
   <g id="matplotlib.axis_10">
    <g id="text_11">
     <text style="fill:#262626;font-family:DejaVu Sans;font-size:21.6px;font-stretch:normal;font-style:normal;font-weight:normal;text-anchor:middle;" transform="rotate(-90, 23.612625, 145.8)" x="23.612625" y="145.8">LTA (k=5)</text>
    </g>
   </g>
   <g id="text_12">
    <text style="fill:#262626;font-family:DejaVu Sans;font-size:18px;font-stretch:normal;font-style:normal;font-weight:normal;text-anchor:start;" transform="rotate(-0, 293.36566, 59.771705)" x="293.36566" y="59.771705">JAMIE</text>
   </g>
   <g id="text_13">
    <!-- JAMIE ($\gamma=0$) -->
    <g style="fill:#262626;" transform="translate(171.497876 83.713285)">
     <text>
      <tspan style="font-family:DejaVu Sans;font-size:18px;font-style:book;font-weight:book;" x="0 5.308594 17.62207 33.152344 38.460938 49.833984 55.555664 76.737305 95.326172 106.77832" y="-0.34375">JAMIE (=0)</tspan>
      <tspan style="font-family:DejaVu Sans;font-size:18px;font-style:oblique;font-weight:oblique;" x="62.578125" y="-0.34375">γ</tspan>
     </text>
    </g>
   </g>
   <g id="text_14">
    <!-- JAMIE ($\beta=0$) -->
    <g style="fill:#262626;" transform="translate(152.286457 223.450546)">
     <text>
      <tspan style="font-family:DejaVu Sans;font-size:18px;font-style:book;font-weight:book;" x="0 5.308594 17.62207 33.152344 38.460938 49.833984 55.555664 77.572266 96.161133 107.613281" y="-0.203125">JAMIE (=0)</tspan>
      <tspan style="font-family:DejaVu Sans;font-size:18px;font-style:oblique;font-weight:oblique;" x="62.578125" y="-0.203125">β</tspan>
     </text>
    </g>
   </g>
   <g id="text_15">
    <!-- JAMIE ($\alpha=0$) -->
    <g style="fill:#262626;" transform="translate(139.832268 183.803727)">
     <text>
      <tspan style="font-family:DejaVu Sans;font-size:18px;font-style:book;font-weight:book;" x="0 5.308594 17.62207 33.152344 38.460938 49.833984 55.555664 77.950195 96.539062 107.991211" y="-0.34375">JAMIE (=0)</tspan>
      <tspan style="font-family:DejaVu Sans;font-size:18px;font-style:oblique;font-weight:oblique;" x="62.578125" y="-0.34375">α</tspan>
     </text>
    </g>
   </g>
   <g id="text_16">
    <!-- JAMIE ($\kappa=0$) -->
    <g style="fill:#262626;" transform="translate(168.243714 47.728683)">
     <text>
      <tspan style="font-family:DejaVu Sans;font-size:18px;font-style:book;font-weight:book;" x="0 5.308594 17.62207 33.152344 38.460938 49.833984 55.555664 76.693359 95.282227 106.734375" y="-0.34375">JAMIE (=0)</tspan>
      <tspan style="font-family:DejaVu Sans;font-size:18px;font-style:oblique;font-weight:oblique;" x="62.578125" y="-0.34375">κ</tspan>
     </text>
    </g>
   </g>
   <g id="patch_11">
    <path d="M 293.364527 61.48205 
Q 292.060648 61.828211 290.756769 62.174372 
" style="fill:none;stroke:#000000;stroke-linecap:round;"/>
   </g>
   <g id="patch_12">
    <path d="M 273.158963 70.033162 
Q 277.285368 69.109354 281.411773 68.185546 
" style="fill:none;stroke:#000000;stroke-linecap:round;"/>
   </g>
   <g id="patch_13">
    <path d="M 164.654826 227.230669 
Q 160.467357 228.161368 156.279888 229.092066 
" style="fill:none;stroke:#000000;stroke-linecap:round;"/>
   </g>
   <g id="patch_14">
    <path d="M 152.241128 187.58385 
Q 148.022177 188.518485 143.803226 189.453121 
" style="fill:none;stroke:#000000;stroke-linecap:round;"/>
   </g>
   <g id="patch_15">
    <path d="M 258.379212 51.509745 
Q 268.325308 54.488773 278.271404 57.467802 
" style="fill:none;stroke:#000000;stroke-linecap:round;"/>
   </g>
  </g>
 </g>
 <defs>
  <clipPath id="pb409238ce1">
   <rect height="111.938738" width="134.346" x="73.10475" y="7.2"/>
  </clipPath>
  <clipPath id="pb75d2d5616">
   <rect height="111.938738" width="125.188883" x="226.915867" y="7.2"/>
  </clipPath>
  <clipPath id="pe882105e7d">
   <rect height="145.921727" width="134.346" x="73.10475" y="138.478273"/>
  </clipPath>
  <clipPath id="pa31bec43ce">
   <rect height="145.921727" width="125.188883" x="226.915867" y="138.478273"/>
  </clipPath>
 </defs>
</svg>
