<?xml version="1.0" encoding="utf-8" standalone="no"?>
<!DOCTYPE svg PUBLIC "-//W3C//DTD SVG 1.1//EN"
  "http://www.w3.org/Graphics/SVG/1.1/DTD/svg11.dtd">
<svg xmlns:xlink="http://www.w3.org/1999/xlink" width="358.67025pt" height="341.353875pt" viewBox="0 0 358.67025 341.353875" xmlns="http://www.w3.org/2000/svg" version="1.1">
 <metadata>
  <rdf:RDF xmlns:dc="http://purl.org/dc/elements/1.1/" xmlns:cc="http://creativecommons.org/ns#" xmlns:rdf="http://www.w3.org/1999/02/22-rdf-syntax-ns#">
   <cc:Work>
    <dc:type rdf:resource="http://purl.org/dc/dcmitype/StillImage"/>
    <dc:date>2023-09-15T17:44:38.659499</dc:date>
    <dc:format>image/svg+xml</dc:format>
    <dc:creator>
     <cc:Agent>
      <dc:title>Matplotlib v3.7.2, https://matplotlib.org/</dc:title>
     </cc:Agent>
    </dc:creator>
   </cc:Work>
  </rdf:RDF>
 </metadata>
 <defs>
  <style type="text/css">*{stroke-linejoin: round; stroke-linecap: butt}</style>
 </defs>
 <g id="figure_1">
  <g id="patch_1">
   <path d="M -0 341.353875 
L 358.67025 341.353875 
L 358.67025 0 
L -0 0 
z
" style="fill: #ffffff"/>
  </g>
  <g id="axes_1">
   <g id="patch_2">
    <path d="M 72.47025 101.851651 
L 215.481153 101.851651 
L 215.481153 7.2 
L 72.47025 7.2 
z
" style="fill: #ffffff"/>
   </g>
   <g id="matplotlib.axis_1">
    <g id="xtick_1"/>
    <g id="xtick_2"/>
    <g id="xtick_3"/>
   </g>
   <g id="matplotlib.axis_2">
    <g id="ytick_1">
     <g id="line2d_1">
      <defs>
       <path id="m05574e3f3b" d="M 0 0 
L -6 0 
" style="stroke: #262626; stroke-width: 1.25"/>
      </defs>
      <g>
       <use xlink:href="#m05574e3f3b" x="72.47025" y="78.099868" style="fill: #262626; stroke: #262626; stroke-width: 1.25"/>
      </g>
     </g>
     <g id="text_1">
      <text style="fill: #262626; font: 14.994px 'Arial', 'DejaVu Sans', 'Liberation Sans', 'Bitstream Vera Sans', sans-serif; text-anchor: end" x="62.97025" y="83.46608" transform="rotate(-0 62.97025 83.46608)">0.9</text>
     </g>
    </g>
    <g id="ytick_2">
     <g id="line2d_2">
      <g>
       <use xlink:href="#m05574e3f3b" x="72.47025" y="29.267923" style="fill: #262626; stroke: #262626; stroke-width: 1.25"/>
      </g>
     </g>
     <g id="text_2">
      <text style="fill: #262626; font: 14.994px 'Arial', 'DejaVu Sans', 'Liberation Sans', 'Bitstream Vera Sans', sans-serif; text-anchor: end" x="62.97025" y="34.634135" transform="rotate(-0 62.97025 34.634135)">1.0</text>
     </g>
    </g>
   </g>
   <g id="PathCollection_1">
    <defs>
     <path id="mf62a050f0c" d="M -2.705981 -6.532815 
L -6.532815 -2.705981 
L -6.532815 2.705981 
L -2.705981 6.532815 
L 2.705981 6.532815 
L 6.532815 2.705981 
L 6.532815 -2.705981 
L 2.705981 -6.532815 
z
" style="stroke: #0000ff"/>
    </defs>
    <g clip-path="url(#p604d9a6874)">
     <use xlink:href="#mf62a050f0c" x="440.978257" y="53.590347" style="fill: #0000ff; stroke: #0000ff"/>
    </g>
   </g>
   <g id="PathCollection_2">
    <defs>
     <path id="me31be3160f" d="M 0 7.071068 
C 1.875269 7.071068 3.673985 6.326016 5 5 
C 6.326016 3.673985 7.071068 1.875269 7.071068 0 
C 7.071068 -1.875269 6.326016 -3.673985 5 -5 
C 3.673985 -6.326016 1.875269 -7.071068 0 -7.071068 
C -1.875269 -7.071068 -3.673985 -6.326016 -5 -5 
C -6.326016 -3.673985 -7.071068 -1.875269 -7.071068 0 
C -7.071068 1.875269 -6.326016 3.673985 -5 5 
C -3.673985 6.326016 -1.875269 7.071068 0 7.071068 
z
" style="stroke: #ffc0cb"/>
    </defs>
    <g clip-path="url(#p604d9a6874)">
     <use xlink:href="#me31be3160f" x="441.652486" y="55.461303" style="fill: #ffc0cb; stroke: #ffc0cb"/>
    </g>
   </g>
   <g id="PathCollection_3">
    <defs>
     <path id="m69daf213c0" d="M 0 7.071068 
C 1.875269 7.071068 3.673985 6.326016 5 5 
C 6.326016 3.673985 7.071068 1.875269 7.071068 0 
C 7.071068 -1.875269 6.326016 -3.673985 5 -5 
C 3.673985 -6.326016 1.875269 -7.071068 0 -7.071068 
C -1.875269 -7.071068 -3.673985 -6.326016 -5 -5 
C -6.326016 -3.673985 -7.071068 -1.875269 -7.071068 0 
C -7.071068 1.875269 -6.326016 3.673985 -5 5 
C -3.673985 6.326016 -1.875269 7.071068 0 7.071068 
z
" style="stroke: #ffa500"/>
    </defs>
    <g clip-path="url(#p604d9a6874)">
     <use xlink:href="#m69daf213c0" x="158.19851" y="384.749513" style="fill: #ffa500; stroke: #ffa500"/>
    </g>
   </g>
   <g id="PathCollection_4">
    <defs>
     <path id="mca983933d6" d="M 0 7.071068 
C 1.875269 7.071068 3.673985 6.326016 5 5 
C 6.326016 3.673985 7.071068 1.875269 7.071068 0 
C 7.071068 -1.875269 6.326016 -3.673985 5 -5 
C 3.673985 -6.326016 1.875269 -7.071068 0 -7.071068 
C -1.875269 -7.071068 -3.673985 -6.326016 -5 -5 
C -6.326016 -3.673985 -7.071068 -1.875269 -7.071068 0 
C -7.071068 1.875269 -6.326016 3.673985 -5 5 
C -3.673985 6.326016 -1.875269 7.071068 0 7.071068 
z
" style="stroke: #008000"/>
    </defs>
    <g clip-path="url(#p604d9a6874)">
     <use xlink:href="#mca983933d6" x="129.752893" y="455.177632" style="fill: #008000; stroke: #008000"/>
    </g>
   </g>
   <g id="PathCollection_5">
    <defs>
     <path id="m624c90df2a" d="M 0 7.071068 
C 1.875269 7.071068 3.673985 6.326016 5 5 
C 6.326016 3.673985 7.071068 1.875269 7.071068 0 
C 7.071068 -1.875269 6.326016 -3.673985 5 -5 
C 3.673985 -6.326016 1.875269 -7.071068 0 -7.071068 
C -1.875269 -7.071068 -3.673985 -6.326016 -5 -5 
C -6.326016 -3.673985 -7.071068 -1.875269 -7.071068 0 
C -7.071068 1.875269 -6.326016 3.673985 -5 5 
C -3.673985 6.326016 -1.875269 7.071068 0 7.071068 
z
" style="stroke: #ff0000"/>
    </defs>
    <g clip-path="url(#p604d9a6874)">
     <use xlink:href="#m624c90df2a" x="439.693791" y="54.793105" style="fill: #ff0000; stroke: #ff0000"/>
    </g>
   </g>
   <g id="line2d_3">
    <path d="M 68.651873 105.670027 
L 76.288627 98.033274 
" style="fill: none; stroke: #1a1a1a; stroke-width: 1.25; stroke-linecap: round"/>
   </g>
   <g id="patch_3">
    <path d="M 72.47025 101.851651 
L 72.47025 7.2 
" style="fill: none; stroke: #262626; stroke-width: 1.25; stroke-linejoin: miter; stroke-linecap: square"/>
   </g>
  </g>
  <g id="axes_2">
   <g id="patch_4">
    <path d="M 234.946269 101.851651 
L 351.47025 101.851651 
L 351.47025 7.2 
L 234.946269 7.2 
z
" style="fill: #ffffff"/>
   </g>
   <g id="matplotlib.axis_3">
    <g id="xtick_4"/>
    <g id="xtick_5"/>
    <g id="xtick_6"/>
   </g>
   <g id="matplotlib.axis_4">
    <g id="ytick_3"/>
    <g id="ytick_4"/>
   </g>
   <g id="PathCollection_6">
    <g clip-path="url(#p74325445e2)">
     <use xlink:href="#mf62a050f0c" x="293.513378" y="53.590347" style="fill: #0000ff; stroke: #0000ff"/>
    </g>
   </g>
   <g id="PathCollection_7">
    <g clip-path="url(#p74325445e2)">
     <use xlink:href="#me31be3160f" x="294.187607" y="55.461303" style="fill: #ffc0cb; stroke: #ffc0cb"/>
    </g>
   </g>
   <g id="PathCollection_8">
    <g clip-path="url(#p74325445e2)">
     <use xlink:href="#m69daf213c0" x="10.73363" y="384.749513" style="fill: #ffa500; stroke: #ffa500"/>
    </g>
   </g>
   <g id="PathCollection_9">
    <g clip-path="url(#p74325445e2)"/>
   </g>
   <g id="PathCollection_10">
    <g clip-path="url(#p74325445e2)">
     <use xlink:href="#m624c90df2a" x="292.228912" y="54.793105" style="fill: #ff0000; stroke: #ff0000"/>
    </g>
   </g>
  </g>
  <g id="axes_3">
   <g id="patch_5">
    <path d="M 72.47025 284.4 
L 215.481153 284.4 
L 215.481153 121.191186 
L 72.47025 121.191186 
z
" style="fill: #ffffff"/>
   </g>
   <g id="matplotlib.axis_5">
    <g id="xtick_7">
     <g id="line2d_4">
      <defs>
       <path id="m43d5d5ec0c" d="M 0 0 
L 0 6 
" style="stroke: #262626; stroke-width: 1.25"/>
      </defs>
      <g>
       <use xlink:href="#m43d5d5ec0c" x="201.381908" y="284.4" style="fill: #262626; stroke: #262626; stroke-width: 1.25"/>
      </g>
     </g>
     <g id="text_3">
      <text style="fill: #262626; font: 14.994px 'Arial', 'DejaVu Sans', 'Liberation Sans', 'Bitstream Vera Sans', sans-serif; text-anchor: middle" x="201.381908" y="304.632424" transform="rotate(-0 201.381908 304.632424)">0.4</text>
     </g>
    </g>
    <g id="xtick_8">
     <g id="line2d_5">
      <g>
       <use xlink:href="#m43d5d5ec0c" x="141.084389" y="284.4" style="fill: #262626; stroke: #262626; stroke-width: 1.25"/>
      </g>
     </g>
     <g id="text_4">
      <text style="fill: #262626; font: 14.994px 'Arial', 'DejaVu Sans', 'Liberation Sans', 'Bitstream Vera Sans', sans-serif; text-anchor: middle" x="141.084389" y="304.632424" transform="rotate(-0 141.084389 304.632424)">0.5</text>
     </g>
    </g>
    <g id="xtick_9">
     <g id="line2d_6">
      <g>
       <use xlink:href="#m43d5d5ec0c" x="80.78687" y="284.4" style="fill: #262626; stroke: #262626; stroke-width: 1.25"/>
      </g>
     </g>
     <g id="text_5">
      <text style="fill: #262626; font: 14.994px 'Arial', 'DejaVu Sans', 'Liberation Sans', 'Bitstream Vera Sans', sans-serif; text-anchor: middle" x="80.78687" y="304.632424" transform="rotate(-0 80.78687 304.632424)">0.6</text>
     </g>
    </g>
   </g>
   <g id="matplotlib.axis_6">
    <g id="ytick_5">
     <g id="line2d_7">
      <g>
       <use xlink:href="#m05574e3f3b" x="72.47025" y="251.587446" style="fill: #262626; stroke: #262626; stroke-width: 1.25"/>
      </g>
     </g>
     <g id="text_6">
      <text style="fill: #262626; font: 14.994px 'Arial', 'DejaVu Sans', 'Liberation Sans', 'Bitstream Vera Sans', sans-serif; text-anchor: end" x="62.97025" y="256.953658" transform="rotate(-0 62.97025 256.953658)">0.1</text>
     </g>
    </g>
    <g id="ytick_6">
     <g id="line2d_8">
      <g>
       <use xlink:href="#m05574e3f3b" x="72.47025" y="202.755501" style="fill: #262626; stroke: #262626; stroke-width: 1.25"/>
      </g>
     </g>
     <g id="text_7">
      <text style="fill: #262626; font: 14.994px 'Arial', 'DejaVu Sans', 'Liberation Sans', 'Bitstream Vera Sans', sans-serif; text-anchor: end" x="62.97025" y="208.121713" transform="rotate(-0 62.97025 208.121713)">0.2</text>
     </g>
    </g>
    <g id="ytick_7">
     <g id="line2d_9">
      <g>
       <use xlink:href="#m05574e3f3b" x="72.47025" y="153.923556" style="fill: #262626; stroke: #262626; stroke-width: 1.25"/>
      </g>
     </g>
     <g id="text_8">
      <text style="fill: #262626; font: 14.994px 'Arial', 'DejaVu Sans', 'Liberation Sans', 'Bitstream Vera Sans', sans-serif; text-anchor: end" x="62.97025" y="159.289768" transform="rotate(-0 62.97025 159.289768)">0.3</text>
     </g>
    </g>
   </g>
   <g id="PathCollection_11">
    <g clip-path="url(#p2a77449fe6)"/>
   </g>
   <g id="PathCollection_12">
    <g clip-path="url(#p2a77449fe6)"/>
   </g>
   <g id="PathCollection_13">
    <g clip-path="url(#p2a77449fe6)">
     <use xlink:href="#m69daf213c0" x="158.19851" y="167.581533" style="fill: #ffa500; stroke: #ffa500"/>
    </g>
   </g>
   <g id="PathCollection_14">
    <g clip-path="url(#p2a77449fe6)">
     <use xlink:href="#mca983933d6" x="129.752893" y="238.009653" style="fill: #008000; stroke: #008000"/>
    </g>
   </g>
   <g id="PathCollection_15">
    <g clip-path="url(#p2a77449fe6)"/>
   </g>
   <g id="line2d_10">
    <path d="M 211.662776 288.218377 
L 219.299529 280.581623 
" style="fill: none; stroke: #1a1a1a; stroke-width: 1.25; stroke-linecap: round"/>
   </g>
   <g id="line2d_11">
    <path d="M 68.651873 125.009562 
L 76.288627 117.372809 
" style="fill: none; stroke: #1a1a1a; stroke-width: 1.25; stroke-linecap: round"/>
   </g>
   <g id="patch_6">
    <path d="M 72.47025 284.4 
L 72.47025 121.191186 
" style="fill: none; stroke: #262626; stroke-width: 1.25; stroke-linejoin: miter; stroke-linecap: square"/>
   </g>
   <g id="patch_7">
    <path d="M 72.47025 284.4 
L 215.481153 284.4 
" style="fill: none; stroke: #262626; stroke-width: 1.25; stroke-linejoin: miter; stroke-linecap: square"/>
   </g>
  </g>
  <g id="axes_4">
   <g id="patch_8">
    <path d="M 234.946269 284.4 
L 351.47025 284.4 
L 351.47025 121.191186 
L 234.946269 121.191186 
z
" style="fill: #ffffff"/>
   </g>
   <g id="matplotlib.axis_7">
    <g id="xtick_10">
     <g id="line2d_12">
      <g>
       <use xlink:href="#m43d5d5ec0c" x="295.107105" y="284.4" style="fill: #262626; stroke: #262626; stroke-width: 1.25"/>
      </g>
     </g>
     <g id="text_9">
      <text style="fill: #262626; font: 14.994px 'Arial', 'DejaVu Sans', 'Liberation Sans', 'Bitstream Vera Sans', sans-serif; text-anchor: middle" x="295.107105" y="304.632424" transform="rotate(-0 295.107105 304.632424)">0.0</text>
     </g>
    </g>
   </g>
   <g id="matplotlib.axis_8">
    <g id="ytick_8"/>
    <g id="ytick_9"/>
    <g id="ytick_10"/>
   </g>
   <g id="PathCollection_16">
    <g clip-path="url(#p81dba260c5)"/>
   </g>
   <g id="PathCollection_17">
    <g clip-path="url(#p81dba260c5)"/>
   </g>
   <g id="PathCollection_18">
    <g clip-path="url(#p81dba260c5)">
     <use xlink:href="#m69daf213c0" x="10.73363" y="167.581533" style="fill: #ffa500; stroke: #ffa500"/>
    </g>
   </g>
   <g id="PathCollection_19">
    <g clip-path="url(#p81dba260c5)"/>
   </g>
   <g id="PathCollection_20">
    <g clip-path="url(#p81dba260c5)"/>
   </g>
   <g id="line2d_13">
    <path d="M 231.127892 288.218377 
L 238.764646 280.581623 
" style="fill: none; stroke: #1a1a1a; stroke-width: 1.25; stroke-linecap: round"/>
   </g>
   <g id="patch_9">
    <path d="M 234.946269 284.4 
L 351.47025 284.4 
" style="fill: none; stroke: #262626; stroke-width: 1.25; stroke-linejoin: miter; stroke-linecap: square"/>
   </g>
  </g>
  <g id="axes_5">
   <g id="patch_10">
    <path d="M 72.47025 284.4 
L 351.47025 284.4 
L 351.47025 7.2 
L 72.47025 7.2 
L 72.47025 284.4 
z
" style="fill: none"/>
   </g>
   <g id="matplotlib.axis_9">
    <g id="text_10">
     <text style="fill: #262626; font: 21.6px 'Arial', 'DejaVu Sans', 'Liberation Sans', 'Bitstream Vera Sans', sans-serif; text-anchor: middle" x="211.97025" y="329.860875" transform="rotate(-0 211.97025 329.860875)">FOSCTTM</text>
    </g>
   </g>
   <g id="matplotlib.axis_10">
    <g id="text_11">
     <text style="fill: #262626; font: 21.6px 'Arial', 'DejaVu Sans', 'Liberation Sans', 'Bitstream Vera Sans', sans-serif; text-anchor: middle" x="22.924125" y="145.8" transform="rotate(-90 22.924125 145.8)">LTA (k=5)</text>
    </g>
   </g>
   <g id="text_12">
    <text style="fill: #262626; font: 18px 'Arial', 'DejaVu Sans', 'Liberation Sans', 'Bitstream Vera Sans', sans-serif; text-anchor: start" x="296.742028" y="45.362101" transform="rotate(-0 296.742028 45.362101)">JAMIE</text>
   </g>
   <g id="text_13">
    <!-- JAMIE ($\gamma=0$) -->
    <g style="fill: #262626" transform="translate(168.764845 76.784206)">
     <text>
      <tspan style="font: 18px 'Arial'" x="0 9 21.005859 36 41.000977 53.006836 58.007812 108.202148" y="-0.640625">JAMIE ()</tspan>
      <tspan style="font: oblique 18px 'DejaVu Sans'" x="64.001953" y="-0.640625">γ</tspan>
      <tspan style="font: 18px 'DejaVu Sans'" x="78.161133 96.75" y="-0.640625">=0</tspan>
     </text>
    </g>
   </g>
   <g id="text_14">
    <!-- JAMIE ($\beta=0$) -->
    <g style="fill: #262626" transform="translate(163.988427 159.589533)">
     <text>
      <tspan style="font: 18px 'Arial'" x="0 9 21.005859 36 41.000977 53.006836 58.007812 109.037109" y="-0.203125">JAMIE ()</tspan>
      <tspan style="font: oblique 18px 'DejaVu Sans'" x="64.001953" y="-0.203125">β</tspan>
      <tspan style="font: 18px 'DejaVu Sans'" x="78.996094 97.584961" y="-0.203125">=0</tspan>
     </text>
    </g>
   </g>
   <g id="text_15">
    <!-- JAMIE ($\alpha=0$) -->
    <g style="fill: #262626" transform="translate(135.561708 230.161653)">
     <text>
      <tspan style="font: 18px 'Arial'" x="0 9 21.005859 36 41.000977 53.006836 58.007812 109.415039" y="-0.640625">JAMIE ()</tspan>
      <tspan style="font: oblique 18px 'DejaVu Sans'" x="64.001953" y="-0.640625">α</tspan>
      <tspan style="font: 18px 'DejaVu Sans'" x="79.374023 97.962891" y="-0.640625">=0</tspan>
     </text>
    </g>
   </g>
   <g id="text_16">
    <!-- JAMIE ($\kappa=0$) -->
    <g style="fill: #262626" transform="translate(155.010536 42.263037)">
     <text>
      <tspan style="font: 18px 'Arial'" x="0 9 21.005859 36 41.000977 53.006836 58.007812 108.158203" y="-0.640625">JAMIE ()</tspan>
      <tspan style="font: oblique 18px 'DejaVu Sans'" x="64.001953" y="-0.640625">κ</tspan>
      <tspan style="font: 18px 'DejaVu Sans'" x="78.117188 96.706055" y="-0.640625">=0</tspan>
     </text>
    </g>
   </g>
   <g id="patch_11">
    <path d="M 304.225985 48.938625 
Q 303.455755 49.273081 302.685525 49.607537 
" style="fill: none; stroke: #000000; stroke-linecap: round"/>
   </g>
   <g id="patch_12">
    <path d="M 263.591123 63.285155 
Q 274.047038 60.611465 284.502953 57.937774 
" style="fill: none; stroke: #000000; stroke-linecap: round"/>
   </g>
   <g id="patch_13">
    <path d="M 176.394839 163.549656 
Q 172.17672 164.484292 167.958601 165.418927 
" style="fill: none; stroke: #000000; stroke-linecap: round"/>
   </g>
   <g id="patch_14">
    <path d="M 148.00861 234.121771 
Q 143.772267 235.023976 139.535925 235.926181 
" style="fill: none; stroke: #000000; stroke-linecap: round"/>
   </g>
   <g id="patch_15">
    <path d="M 254.568847 46.223543 
Q 268.523574 49.398946 282.478302 52.57435 
" style="fill: none; stroke: #000000; stroke-linecap: round"/>
   </g>
  </g>
 </g>
 <defs>
  <clipPath id="p604d9a6874">
   <rect x="72.47025" y="7.2" width="143.010903" height="94.651651"/>
  </clipPath>
  <clipPath id="p74325445e2">
   <rect x="234.946269" y="7.2" width="116.523981" height="94.651651"/>
  </clipPath>
  <clipPath id="p2a77449fe6">
   <rect x="72.47025" y="121.191186" width="143.010903" height="163.208814"/>
  </clipPath>
  <clipPath id="p81dba260c5">
   <rect x="234.946269" y="121.191186" width="116.523981" height="163.208814"/>
  </clipPath>
 </defs>
</svg>
