<?xml version="1.0" encoding="utf-8" standalone="no"?>
<!DOCTYPE svg PUBLIC "-//W3C//DTD SVG 1.1//EN"
  "http://www.w3.org/Graphics/SVG/1.1/DTD/svg11.dtd">
<svg xmlns:xlink="http://www.w3.org/1999/xlink" width="141.24498pt" height="207.08pt" viewBox="0 0 141.24498 207.08" xmlns="http://www.w3.org/2000/svg" version="1.1">
 <metadata>
  <rdf:RDF xmlns:dc="http://purl.org/dc/elements/1.1/" xmlns:cc="http://creativecommons.org/ns#" xmlns:rdf="http://www.w3.org/1999/02/22-rdf-syntax-ns#">
   <cc:Work>
    <dc:type rdf:resource="http://purl.org/dc/dcmitype/StillImage"/>
    <dc:date>2023-09-15T17:44:33.320056</dc:date>
    <dc:format>image/svg+xml</dc:format>
    <dc:creator>
     <cc:Agent>
      <dc:title>Matplotlib v3.7.2, https://matplotlib.org/</dc:title>
     </cc:Agent>
    </dc:creator>
   </cc:Work>
  </rdf:RDF>
 </metadata>
 <defs>
  <style type="text/css">*{stroke-linejoin: round; stroke-linecap: butt}</style>
 </defs>
 <g id="figure_1">
  <g id="patch_1">
   <path d="M 0 207.08 
L 141.24498 207.08 
L 141.24498 0 
L 0 0 
z
" style="fill: #ffffff"/>
  </g>
  <g id="axes_1">
   <g id="legend_1">
    <g id="line2d_1">
     <path d="M 4.78749 21.747266 
L 15.78749 21.747266 
L 26.78749 21.747266 
" style="fill: none; stroke: #ffffff; stroke-width: 1.5; stroke-linecap: round"/>
     <defs>
      <path id="m9ea6745a33" d="M -5 5 
L 5 5 
L 5 -5 
L -5 -5 
z
" style="stroke: #ffffff; stroke-linejoin: miter"/>
     </defs>
     <g>
      <use xlink:href="#m9ea6745a33" x="15.78749" y="21.747266" style="fill: #0000ff; stroke: #ffffff; stroke-linejoin: miter"/>
     </g>
    </g>
    <g id="text_1">
     <text style="fill: #262626; font: 11px 'Arial', 'DejaVu Sans', 'Liberation Sans', 'Bitstream Vera Sans', sans-serif; text-anchor: start" x="35.58749" y="25.597266" transform="rotate(-0 35.58749 25.597266)">JAMIE</text>
    </g>
    <g id="line2d_2">
     <path d="M 4.78749 37.441172 
L 15.78749 37.441172 
L 26.78749 37.441172 
" style="fill: none; stroke: #ffffff; stroke-width: 1.5; stroke-linecap: round"/>
     <defs>
      <path id="m980a501ebc" d="M -5 5 
L 5 5 
L 5 -5 
L -5 -5 
z
" style="stroke: #ffffff; stroke-linejoin: miter"/>
     </defs>
     <g>
      <use xlink:href="#m980a501ebc" x="15.78749" y="37.441172" style="fill: #00ffff; stroke: #ffffff; stroke-linejoin: miter"/>
     </g>
    </g>
    <g id="text_2">
     <text style="fill: #262626; font: 11px 'Arial', 'DejaVu Sans', 'Liberation Sans', 'Bitstream Vera Sans', sans-serif; text-anchor: start" x="35.58749" y="41.291172" transform="rotate(-0 35.58749 41.291172)">JAMIE (.5)</text>
    </g>
    <g id="line2d_3">
     <path d="M 4.78749 53.506328 
L 15.78749 53.506328 
L 26.78749 53.506328 
" style="fill: none; stroke: #ffffff; stroke-width: 1.5; stroke-linecap: round"/>
     <defs>
      <path id="m692c2e1e58" d="M -5 5 
L 5 5 
L 5 -5 
L -5 -5 
z
" style="stroke: #ffffff; stroke-linejoin: miter"/>
     </defs>
     <g>
      <use xlink:href="#m692c2e1e58" x="15.78749" y="53.506328" style="fill: #808080; stroke: #ffffff; stroke-linejoin: miter"/>
     </g>
    </g>
    <g id="text_3">
     <!-- JAMIE (.5, $\gamma=0$) -->
     <g style="fill: #262626" transform="translate(35.58749 57.356328)">
      <text>
       <tspan style="font: 11px 'Arial'" x="0 5.5 12.836914 22 25.056152 32.393066 35.449219 39.112305 42.168457 48.286133 51.342285 81.409668" y="-0.828125">JAMIE (.5, )</tspan>
       <tspan style="font: oblique 11px 'DejaVu Sans'" x="54.398438" y="-0.828125">γ</tspan>
       <tspan style="font: 11px 'DejaVu Sans'" x="63.05127 74.411133" y="-0.828125">=0</tspan>
      </text>
     </g>
    </g>
    <g id="line2d_4">
     <path d="M 4.78749 69.676328 
L 15.78749 69.676328 
L 26.78749 69.676328 
" style="fill: none; stroke: #ffffff; stroke-width: 1.5; stroke-linecap: round"/>
     <defs>
      <path id="md4cf5ed26e" d="M -5 5 
L 5 5 
L 5 -5 
L -5 -5 
z
" style="stroke: #ffffff; stroke-linejoin: miter"/>
     </defs>
     <g>
      <use xlink:href="#md4cf5ed26e" x="15.78749" y="69.676328" style="fill: #ffc0cb; stroke: #ffffff; stroke-linejoin: miter"/>
     </g>
    </g>
    <g id="text_4">
     <!-- JAMIE ($\gamma=0$) -->
     <g style="fill: #262626" transform="translate(35.58749 73.526328)">
      <text>
       <tspan style="font: 11px 'Arial'" x="0 5.5 12.836914 22 25.056152 32.393066 35.449219 66.123535" y="-0.828125">JAMIE ()</tspan>
       <tspan style="font: oblique 11px 'DejaVu Sans'" x="39.112305" y="-0.828125">γ</tspan>
       <tspan style="font: 11px 'DejaVu Sans'" x="47.765137 59.125" y="-0.828125">=0</tspan>
      </text>
     </g>
    </g>
    <g id="line2d_5">
     <path d="M 4.78749 86.066328 
L 15.78749 86.066328 
L 26.78749 86.066328 
" style="fill: none; stroke: #ffffff; stroke-width: 1.5; stroke-linecap: round"/>
     <defs>
      <path id="m33d5416eea" d="M -5 5 
L 5 5 
L 5 -5 
L -5 -5 
z
" style="stroke: #ffffff; stroke-linejoin: miter"/>
     </defs>
     <g>
      <use xlink:href="#m33d5416eea" x="15.78749" y="86.066328" style="fill: #ffa500; stroke: #ffffff; stroke-linejoin: miter"/>
     </g>
    </g>
    <g id="text_5">
     <!-- JAMIE ($\beta=0$) -->
     <g style="fill: #262626" transform="translate(35.58749 89.916328)">
      <text>
       <tspan style="font: 11px 'Arial'" x="0 5.5 12.836914 22 25.056152 32.393066 35.449219 66.633789" y="-0.578125">JAMIE ()</tspan>
       <tspan style="font: oblique 11px 'DejaVu Sans'" x="39.112305" y="-0.578125">β</tspan>
       <tspan style="font: 11px 'DejaVu Sans'" x="48.275391 59.635254" y="-0.578125">=0</tspan>
      </text>
     </g>
    </g>
    <g id="line2d_6">
     <path d="M 4.78749 102.236328 
L 15.78749 102.236328 
L 26.78749 102.236328 
" style="fill: none; stroke: #ffffff; stroke-width: 1.5; stroke-linecap: round"/>
     <defs>
      <path id="me514b58160" d="M -5 5 
L 5 5 
L 5 -5 
L -5 -5 
z
" style="stroke: #ffffff; stroke-linejoin: miter"/>
     </defs>
     <g>
      <use xlink:href="#me514b58160" x="15.78749" y="102.236328" style="fill: #008000; stroke: #ffffff; stroke-linejoin: miter"/>
     </g>
    </g>
    <g id="text_6">
     <!-- JAMIE ($\alpha=0$) -->
     <g style="fill: #262626" transform="translate(35.58749 106.086328)">
      <text>
       <tspan style="font: 11px 'Arial'" x="0 5.5 12.836914 22 25.056152 32.393066 35.449219 66.864746" y="-0.828125">JAMIE ()</tspan>
       <tspan style="font: oblique 11px 'DejaVu Sans'" x="39.112305" y="-0.828125">α</tspan>
       <tspan style="font: 11px 'DejaVu Sans'" x="48.506348 59.866211" y="-0.828125">=0</tspan>
      </text>
     </g>
    </g>
    <g id="line2d_7">
     <path d="M 4.78749 118.406328 
L 15.78749 118.406328 
L 26.78749 118.406328 
" style="fill: none; stroke: #ffffff; stroke-width: 1.5; stroke-linecap: round"/>
     <defs>
      <path id="m99c5f244d8" d="M -5 5 
L 5 5 
L 5 -5 
L -5 -5 
z
" style="stroke: #ffffff; stroke-linejoin: miter"/>
     </defs>
     <g>
      <use xlink:href="#m99c5f244d8" x="15.78749" y="118.406328" style="fill: #ff0000; stroke: #ffffff; stroke-linejoin: miter"/>
     </g>
    </g>
    <g id="text_7">
     <!-- JAMIE ($\kappa=0$) -->
     <g style="fill: #262626" transform="translate(35.58749 122.256328)">
      <text>
       <tspan style="font: 11px 'Arial'" x="0 5.5 12.836914 22 25.056152 32.393066 35.449219 66.09668" y="-0.828125">JAMIE ()</tspan>
       <tspan style="font: oblique 11px 'DejaVu Sans'" x="39.112305" y="-0.828125">κ</tspan>
       <tspan style="font: 11px 'DejaVu Sans'" x="47.738281 59.098145" y="-0.828125">=0</tspan>
      </text>
     </g>
    </g>
    <g id="line2d_8">
     <path d="M 4.78749 134.576328 
L 15.78749 134.576328 
L 26.78749 134.576328 
" style="fill: none; stroke: #ffffff; stroke-width: 1.5; stroke-linecap: round"/>
     <defs>
      <path id="m3ab000c861" d="M -5 5 
L 5 5 
L 5 -5 
L -5 -5 
z
" style="stroke: #ffffff; stroke-linejoin: miter"/>
     </defs>
     <g>
      <use xlink:href="#m3ab000c861" x="15.78749" y="134.576328" style="fill: #ffff00; stroke: #ffffff; stroke-linejoin: miter"/>
     </g>
    </g>
    <g id="text_8">
     <!-- JAMIE ($\# PC=128$) -->
     <g style="fill: #262626" transform="translate(35.58749 138.426328)">
      <text>
       <tspan style="font: 11px 'Arial'" x="0 5.5 12.836914 22 25.056152 32.393066 35.449219 97.141602" y="-0.828125">JAMIE ()</tspan>
       <tspan style="font: 11px 'DejaVu Sans'" x="39.112305 64.786133 76.145996 83.144531 90.143066" y="-0.828125">#=128</tspan>
       <tspan style="font: oblique 11px 'DejaVu Sans'" x="48.329102 54.962402" y="-0.828125">PC</tspan>
      </text>
     </g>
    </g>
    <g id="line2d_9">
     <path d="M 4.78749 150.746328 
L 15.78749 150.746328 
L 26.78749 150.746328 
" style="fill: none; stroke: #ffffff; stroke-width: 1.5; stroke-linecap: round"/>
     <defs>
      <path id="m998348afa7" d="M -5 5 
L 5 5 
L 5 -5 
L -5 -5 
z
" style="stroke: #ffffff; stroke-linejoin: miter"/>
     </defs>
     <g>
      <use xlink:href="#m998348afa7" x="15.78749" y="150.746328" style="fill: #800080; stroke: #ffffff; stroke-linejoin: miter"/>
     </g>
    </g>
    <g id="text_9">
     <!-- JAMIE ($\# PC=32$) -->
     <g style="fill: #262626" transform="translate(35.58749 154.596328)">
      <text>
       <tspan style="font: 11px 'Arial'" x="0 5.5 12.836914 22 25.056152 32.393066 35.449219 90.143066" y="-0.828125">JAMIE ()</tspan>
       <tspan style="font: 11px 'DejaVu Sans'" x="39.112305 64.786133 76.145996 83.144531" y="-0.828125">#=32</tspan>
       <tspan style="font: oblique 11px 'DejaVu Sans'" x="48.329102 54.962402" y="-0.828125">PC</tspan>
      </text>
     </g>
    </g>
    <g id="line2d_10">
     <path d="M 4.78749 166.916328 
L 15.78749 166.916328 
L 26.78749 166.916328 
" style="fill: none; stroke: #ffffff; stroke-width: 1.5; stroke-linecap: round"/>
     <defs>
      <path id="me0b7aae1b1" d="M -5 5 
L 5 5 
L 5 -5 
L -5 -5 
z
" style="stroke: #ffffff; stroke-linejoin: miter"/>
     </defs>
     <g>
      <use xlink:href="#me0b7aae1b1" x="15.78749" y="166.916328" style="fill: #9acd32; stroke: #ffffff; stroke-linejoin: miter"/>
     </g>
    </g>
    <g id="text_10">
     <!-- JAMIE ($g=16$) -->
     <g style="fill: #262626" transform="translate(35.58749 170.766328)">
      <text>
       <tspan style="font: 11px 'Arial'" x="0 5.5 12.836914 22 25.056152 32.393066 35.449219 73.594727" y="-0.828125">JAMIE ()</tspan>
       <tspan style="font: oblique 11px 'DejaVu Sans'" x="39.112305" y="-0.828125">g</tspan>
       <tspan style="font: 11px 'DejaVu Sans'" x="48.237793 59.597656 66.596191" y="-0.828125">=16</tspan>
      </text>
     </g>
    </g>
    <g id="line2d_11">
     <path d="M 4.78749 183.086328 
L 15.78749 183.086328 
L 26.78749 183.086328 
" style="fill: none; stroke: #ffffff; stroke-width: 1.5; stroke-linecap: round"/>
     <defs>
      <path id="m795c3f3fc6" d="M -5 5 
L 5 5 
L 5 -5 
L -5 -5 
z
" style="stroke: #ffffff; stroke-linejoin: miter"/>
     </defs>
     <g>
      <use xlink:href="#m795c3f3fc6" x="15.78749" y="183.086328" style="fill: #00ff00; stroke: #ffffff; stroke-linejoin: miter"/>
     </g>
    </g>
    <g id="text_11">
     <!-- JAMIE ($g=8$) -->
     <g style="fill: #262626" transform="translate(35.58749 186.936328)">
      <text>
       <tspan style="font: 11px 'Arial'" x="0 5.5 12.836914 22 25.056152 32.393066 35.449219 66.596191" y="-0.828125">JAMIE ()</tspan>
       <tspan style="font: oblique 11px 'DejaVu Sans'" x="39.112305" y="-0.828125">g</tspan>
       <tspan style="font: 11px 'DejaVu Sans'" x="48.237793 59.597656" y="-0.828125">=8</tspan>
      </text>
     </g>
    </g>
   </g>
  </g>
 </g>
</svg>
