<?xml version="1.0" encoding="utf-8" standalone="no"?>
<!DOCTYPE svg PUBLIC "-//W3C//DTD SVG 1.1//EN"
  "http://www.w3.org/Graphics/SVG/1.1/DTD/svg11.dtd">
<svg xmlns:xlink="http://www.w3.org/1999/xlink" width="337.10274pt" height="324.402569pt" viewBox="0 0 337.10274 324.402569" xmlns="http://www.w3.org/2000/svg" version="1.1">
 <metadata>
  <rdf:RDF xmlns:dc="http://purl.org/dc/elements/1.1/" xmlns:cc="http://creativecommons.org/ns#" xmlns:rdf="http://www.w3.org/1999/02/22-rdf-syntax-ns#">
   <cc:Work>
    <dc:type rdf:resource="http://purl.org/dc/dcmitype/StillImage"/>
    <dc:date>2023-09-04T14:00:00.279342</dc:date>
    <dc:format>image/svg+xml</dc:format>
    <dc:creator>
     <cc:Agent>
      <dc:title>Matplotlib v3.7.2, https://matplotlib.org/</dc:title>
     </cc:Agent>
    </dc:creator>
   </cc:Work>
  </rdf:RDF>
 </metadata>
 <defs>
  <style type="text/css">*{stroke-linejoin: round; stroke-linecap: butt}</style>
 </defs>
 <g id="figure_1">
  <g id="patch_1">
   <path d="M 0 324.402569 
L 337.10274 324.402569 
L 337.10274 0 
L 0 0 
z
" style="fill: #ffffff"/>
  </g>
  <g id="axes_1">
   <g id="patch_2">
    <path d="M 61.81191 270.236212 
L 319.48191 270.236212 
L 319.48191 12.566212 
L 61.81191 12.566212 
z
" style="fill: #ffffff"/>
   </g>
   <g id="matplotlib.axis_1">
    <g id="xtick_1">
     <g id="text_1">
      <text style="fill: #262626; font: 14.994px 'Arial', 'DejaVu Sans', 'Liberation Sans', 'Bitstream Vera Sans', sans-serif; text-anchor: middle" x="61.81191" y="290.468636" transform="rotate(-0 61.81191 290.468636)">0.0</text>
     </g>
    </g>
    <g id="xtick_2">
     <g id="text_2">
      <text style="fill: #262626; font: 14.994px 'Arial', 'DejaVu Sans', 'Liberation Sans', 'Bitstream Vera Sans', sans-serif; text-anchor: middle" x="113.34591" y="290.468636" transform="rotate(-0 113.34591 290.468636)">0.2</text>
     </g>
    </g>
    <g id="xtick_3">
     <g id="text_3">
      <text style="fill: #262626; font: 14.994px 'Arial', 'DejaVu Sans', 'Liberation Sans', 'Bitstream Vera Sans', sans-serif; text-anchor: middle" x="164.87991" y="290.468636" transform="rotate(-0 164.87991 290.468636)">0.4</text>
     </g>
    </g>
    <g id="xtick_4">
     <g id="text_4">
      <text style="fill: #262626; font: 14.994px 'Arial', 'DejaVu Sans', 'Liberation Sans', 'Bitstream Vera Sans', sans-serif; text-anchor: middle" x="216.41391" y="290.468636" transform="rotate(-0 216.41391 290.468636)">0.6</text>
     </g>
    </g>
    <g id="xtick_5">
     <g id="text_5">
      <text style="fill: #262626; font: 14.994px 'Arial', 'DejaVu Sans', 'Liberation Sans', 'Bitstream Vera Sans', sans-serif; text-anchor: middle" x="267.94791" y="290.468636" transform="rotate(-0 267.94791 290.468636)">0.8</text>
     </g>
    </g>
    <g id="xtick_6">
     <g id="text_6">
      <text style="fill: #262626; font: 14.994px 'Arial', 'DejaVu Sans', 'Liberation Sans', 'Bitstream Vera Sans', sans-serif; text-anchor: middle" x="319.48191" y="290.468636" transform="rotate(-0 319.48191 290.468636)">1.0</text>
     </g>
    </g>
    <g id="text_7">
     <text style="fill: #262626; font: 21.6px 'Arial', 'DejaVu Sans', 'Liberation Sans', 'Bitstream Vera Sans', sans-serif; text-anchor: middle" x="190.64691" y="312.909569" transform="rotate(-0 190.64691 312.909569)">Percentile</text>
    </g>
   </g>
   <g id="matplotlib.axis_2">
    <g id="ytick_1">
     <g id="text_8">
      <text style="fill: #262626; font: 14.994px 'Arial', 'DejaVu Sans', 'Liberation Sans', 'Bitstream Vera Sans', sans-serif; text-anchor: end" x="52.31191" y="275.602424" transform="rotate(-0 52.31191 275.602424)">0.0</text>
     </g>
    </g>
    <g id="ytick_2">
     <g id="text_9">
      <text style="fill: #262626; font: 14.994px 'Arial', 'DejaVu Sans', 'Liberation Sans', 'Bitstream Vera Sans', sans-serif; text-anchor: end" x="52.31191" y="224.068424" transform="rotate(-0 52.31191 224.068424)">0.2</text>
     </g>
    </g>
    <g id="ytick_3">
     <g id="text_10">
      <text style="fill: #262626; font: 14.994px 'Arial', 'DejaVu Sans', 'Liberation Sans', 'Bitstream Vera Sans', sans-serif; text-anchor: end" x="52.31191" y="172.534424" transform="rotate(-0 52.31191 172.534424)">0.4</text>
     </g>
    </g>
    <g id="ytick_4">
     <g id="text_11">
      <text style="fill: #262626; font: 14.994px 'Arial', 'DejaVu Sans', 'Liberation Sans', 'Bitstream Vera Sans', sans-serif; text-anchor: end" x="52.31191" y="121.000424" transform="rotate(-0 52.31191 121.000424)">0.6</text>
     </g>
    </g>
    <g id="ytick_5">
     <g id="text_12">
      <text style="fill: #262626; font: 14.994px 'Arial', 'DejaVu Sans', 'Liberation Sans', 'Bitstream Vera Sans', sans-serif; text-anchor: end" x="52.31191" y="69.466424" transform="rotate(-0 52.31191 69.466424)">0.8</text>
     </g>
    </g>
    <g id="ytick_6">
     <g id="text_13">
      <text style="fill: #262626; font: 14.994px 'Arial', 'DejaVu Sans', 'Liberation Sans', 'Bitstream Vera Sans', sans-serif; text-anchor: end" x="52.31191" y="17.932424" transform="rotate(-0 52.31191 17.932424)">1.0</text>
     </g>
    </g>
    <g id="text_14">
     <text style="fill: #262626; font: 21.6px 'Arial', 'DejaVu Sans', 'Liberation Sans', 'Bitstream Vera Sans', sans-serif; text-anchor: middle" x="22.924125" y="141.401212" transform="rotate(-90 22.924125 141.401212)">RNA Similarity</text>
    </g>
   </g>
   <g id="line2d_1">
    <path d="M 61.81191 227.090559 
L 64.414637 227.090559 
L 67.017365 221.991824 
L 69.620092 220.949195 
L 72.222819 220.788254 
L 74.825546 220.049206 
L 77.428274 219.372305 
L 80.031001 216.106435 
L 82.633728 215.768259 
L 85.236455 215.127344 
L 87.839183 212.877075 
L 90.44191 212.38798 
L 93.044637 212.236327 
L 95.647365 212.094225 
L 98.250092 210.680854 
L 100.852819 210.322124 
L 103.455546 209.725224 
L 106.058274 209.235656 
L 108.661001 207.724522 
L 111.263728 206.327717 
L 113.866455 205.368926 
L 116.469183 205.32832 
L 119.07191 203.614023 
L 121.674637 203.468078 
L 124.277365 203.192919 
L 126.880092 202.120643 
L 129.482819 201.906025 
L 132.085546 200.215613 
L 134.688274 198.540668 
L 137.291001 198.295844 
L 139.893728 197.264343 
L 142.496455 196.947326 
L 145.099183 196.11313 
L 147.70191 196.067044 
L 150.304637 196.064151 
L 152.907365 194.021101 
L 155.510092 194.012322 
L 158.112819 191.633976 
L 160.715546 191.031256 
L 163.318274 188.830358 
L 165.921001 184.605165 
L 168.523728 183.108843 
L 171.126455 182.261463 
L 173.729183 181.971284 
L 176.33191 179.743674 
L 178.934637 179.732668 
L 181.537365 178.502457 
L 184.140092 177.172938 
L 186.742819 176.356035 
L 189.345546 173.961926 
L 191.948274 172.548216 
L 194.551001 167.922975 
L 197.153728 164.204513 
L 199.756455 163.103073 
L 202.359183 160.924751 
L 204.96191 158.942949 
L 207.564637 156.806056 
L 210.167365 155.791617 
L 212.770092 152.867541 
L 215.372819 152.83096 
L 217.975546 150.5908 
L 220.578274 149.816242 
L 223.181001 148.876132 
L 225.783728 148.324276 
L 228.386455 148.221446 
L 230.989183 148.041244 
L 233.59191 146.460844 
L 236.194637 143.594506 
L 238.797365 142.865965 
L 241.400092 142.210063 
L 244.002819 141.047423 
L 246.605546 140.469687 
L 249.208274 138.773802 
L 251.811001 138.586629 
L 254.413728 138.566602 
L 257.016455 137.857872 
L 259.619183 136.426594 
L 262.22191 135.288836 
L 264.824637 133.634009 
L 267.427365 132.685306 
L 270.030092 125.787379 
L 272.632819 125.495589 
L 275.235546 122.370971 
L 277.838274 121.07256 
L 280.441001 120.691047 
L 283.043728 117.074025 
L 285.646455 12.566212 
L 288.249183 12.566212 
L 290.85191 12.566212 
L 293.454637 12.566212 
L 296.057365 12.566212 
L 298.660092 12.566212 
L 301.262819 12.566212 
L 303.865546 12.566212 
L 306.468274 12.566212 
L 309.071001 12.566212 
L 311.673728 12.566212 
L 314.276455 12.566212 
L 316.879183 12.566212 
L 319.48191 12.566212 
" clip-path="url(#p2d9484da18)" style="fill: none; stroke: #f77189; stroke-width: 1.5; stroke-linecap: round"/>
   </g>
   <g id="line2d_2">
    <path d="M 61.81191 227.090559 
L 64.414637 223.791229 
L 67.017365 223.25474 
L 69.620092 222.976511 
L 72.222819 222.713063 
L 74.825546 220.285898 
L 77.428274 217.637344 
L 80.031001 217.571225 
L 82.633728 217.429243 
L 85.236455 217.177733 
L 87.839183 217.126398 
L 90.44191 217.036084 
L 93.044637 216.901709 
L 95.647365 213.290972 
L 98.250092 211.822114 
L 100.852819 211.555708 
L 103.455546 211.246545 
L 106.058274 211.02843 
L 108.661001 210.162922 
L 111.263728 209.538724 
L 113.866455 209.245203 
L 116.469183 209.172198 
L 119.07191 208.912423 
L 121.674637 208.812709 
L 124.277365 208.197969 
L 126.880092 207.736541 
L 129.482819 204.676657 
L 132.085546 204.566902 
L 134.688274 201.187011 
L 137.291001 199.965713 
L 139.893728 199.89768 
L 142.496455 198.850777 
L 145.099183 198.627018 
L 147.70191 198.291149 
L 150.304637 197.704538 
L 152.907365 197.632658 
L 155.510092 196.796992 
L 158.112819 194.588528 
L 160.715546 194.060596 
L 163.318274 193.356065 
L 165.921001 191.105907 
L 168.523728 187.626336 
L 171.126455 187.495922 
L 173.729183 187.127268 
L 176.33191 186.719664 
L 178.934637 185.351213 
L 181.537365 184.964522 
L 184.140092 181.665651 
L 186.742819 180.495491 
L 189.345546 179.086007 
L 191.948274 178.428269 
L 194.551001 178.220905 
L 197.153728 177.509919 
L 199.756455 175.628391 
L 202.359183 175.376079 
L 204.96191 173.241304 
L 207.564637 172.951576 
L 210.167365 172.8348 
L 212.770092 172.027053 
L 215.372819 171.94157 
L 217.975546 171.232605 
L 220.578274 170.137578 
L 223.181001 169.862934 
L 225.783728 168.9644 
L 228.386455 167.425418 
L 230.989183 165.570699 
L 233.59191 165.167315 
L 236.194637 165.155342 
L 238.797365 164.847126 
L 241.400092 164.846781 
L 244.002819 164.727356 
L 246.605546 164.313197 
L 249.208274 164.171815 
L 251.811001 162.632529 
L 254.413728 162.426935 
L 257.016455 160.664872 
L 259.619183 160.405801 
L 262.22191 160.244795 
L 264.824637 155.462657 
L 267.427365 151.836813 
L 270.030092 151.79069 
L 272.632819 149.069295 
L 275.235546 148.960315 
L 277.838274 148.953457 
L 280.441001 144.216684 
L 283.043728 136.464193 
L 285.646455 12.566212 
L 288.249183 12.566212 
L 290.85191 12.566212 
L 293.454637 12.566212 
L 296.057365 12.566212 
L 298.660092 12.566212 
L 301.262819 12.566212 
L 303.865546 12.566212 
L 306.468274 12.566212 
L 309.071001 12.566212 
L 311.673728 12.566212 
L 314.276455 12.566212 
L 316.879183 12.566212 
L 319.48191 12.566212 
" clip-path="url(#p2d9484da18)" style="fill: none; stroke: #c69432; stroke-width: 1.5; stroke-linecap: round"/>
   </g>
   <g id="line2d_3">
    <path d="M 61.81191 225.603886 
L 64.414637 214.137468 
L 67.017365 209.314331 
L 69.620092 208.968474 
L 72.222819 207.98854 
L 74.825546 204.365752 
L 77.428274 200.659565 
L 80.031001 200.409017 
L 82.633728 196.026293 
L 85.236455 193.959052 
L 87.839183 186.922918 
L 90.44191 185.244564 
L 93.044637 184.271213 
L 95.647365 183.31532 
L 98.250092 178.745163 
L 100.852819 178.438471 
L 103.455546 178.017519 
L 106.058274 177.567365 
L 108.661001 176.419406 
L 111.263728 176.16959 
L 113.866455 175.459484 
L 116.469183 173.761358 
L 119.07191 173.488701 
L 121.674637 173.320347 
L 124.277365 172.77791 
L 126.880092 172.773358 
L 129.482819 171.819974 
L 132.085546 171.101103 
L 134.688274 170.626584 
L 137.291001 169.329934 
L 139.893728 167.067215 
L 142.496455 166.141393 
L 145.099183 164.662205 
L 147.70191 161.755619 
L 150.304637 160.09919 
L 152.907365 159.249421 
L 155.510092 158.586963 
L 158.112819 156.317882 
L 160.715546 154.681677 
L 163.318274 152.465111 
L 165.921001 152.184509 
L 168.523728 151.852745 
L 171.126455 151.479544 
L 173.729183 148.902618 
L 176.33191 145.426397 
L 178.934637 145.084614 
L 181.537365 141.704787 
L 184.140092 141.640872 
L 186.742819 141.446908 
L 189.345546 141.127389 
L 191.948274 140.474267 
L 194.551001 139.322809 
L 197.153728 139.155085 
L 199.756455 137.138765 
L 202.359183 136.863222 
L 204.96191 135.60227 
L 207.564637 127.9044 
L 210.167365 124.678362 
L 212.770092 121.860383 
L 215.372819 116.558688 
L 217.975546 115.666386 
L 220.578274 113.832686 
L 223.181001 104.515057 
L 225.783728 104.515057 
L 228.386455 104.515057 
L 230.989183 103.574202 
L 233.59191 103.093663 
L 236.194637 102.973418 
L 238.797365 102.223009 
L 241.400092 101.145686 
L 244.002819 94.10769 
L 246.605546 93.878231 
L 249.208274 91.451276 
L 251.811001 89.648383 
L 254.413728 79.294507 
L 257.016455 72.900534 
L 259.619183 72.870221 
L 262.22191 72.870221 
L 264.824637 70.527092 
L 267.427365 58.062772 
L 270.030092 55.404964 
L 272.632819 55.377736 
L 275.235546 55.377736 
L 277.838274 55.377736 
L 280.441001 55.375991 
L 283.043728 55.375991 
L 285.646455 12.566212 
L 288.249183 12.566212 
L 290.85191 12.566212 
L 293.454637 12.566212 
L 296.057365 12.566212 
L 298.660092 12.566212 
L 301.262819 12.566212 
L 303.865546 12.566212 
L 306.468274 12.566212 
L 309.071001 12.566212 
L 311.673728 12.566212 
L 314.276455 12.566212 
L 316.879183 12.566212 
L 319.48191 12.566212 
" clip-path="url(#p2d9484da18)" style="fill: none; stroke: #82a931; stroke-width: 1.5; stroke-linecap: round"/>
   </g>
   <g id="line2d_4">
    <path d="M 61.81191 227.090559 
L 64.414637 222.580274 
L 67.017365 211.361361 
L 69.620092 210.843188 
L 72.222819 210.446028 
L 74.825546 204.397684 
L 77.428274 202.559675 
L 80.031001 197.77465 
L 82.633728 191.358317 
L 85.236455 188.717953 
L 87.839183 188.291808 
L 90.44191 185.433131 
L 93.044637 184.424388 
L 95.647365 183.631413 
L 98.250092 182.640912 
L 100.852819 182.05811 
L 103.455546 181.1867 
L 106.058274 179.408921 
L 108.661001 179.254445 
L 111.263728 178.951452 
L 113.866455 178.639892 
L 116.469183 177.830332 
L 119.07191 176.53131 
L 121.674637 174.184642 
L 124.277365 172.260286 
L 126.880092 171.49514 
L 129.482819 170.273451 
L 132.085546 168.242278 
L 134.688274 168.150949 
L 137.291001 168.078937 
L 139.893728 167.774799 
L 142.496455 166.476091 
L 145.099183 166.359524 
L 147.70191 165.917224 
L 150.304637 165.234178 
L 152.907365 164.787646 
L 155.510092 163.958617 
L 158.112819 162.189528 
L 160.715546 161.447794 
L 163.318274 161.40304 
L 165.921001 159.780205 
L 168.523728 159.5311 
L 171.126455 158.480475 
L 173.729183 156.260821 
L 176.33191 155.838316 
L 178.934637 154.603905 
L 181.537365 154.083513 
L 184.140092 152.450031 
L 186.742819 151.361198 
L 189.345546 151.268281 
L 191.948274 150.702178 
L 194.551001 150.500574 
L 197.153728 150.091816 
L 199.756455 147.291959 
L 202.359183 145.609658 
L 204.96191 143.783274 
L 207.564637 143.605513 
L 210.167365 139.284065 
L 212.770092 138.46024 
L 215.372819 137.49614 
L 217.975546 131.613048 
L 220.578274 130.9711 
L 223.181001 128.854042 
L 225.783728 128.464089 
L 228.386455 125.66049 
L 230.989183 122.964602 
L 233.59191 121.329258 
L 236.194637 116.99981 
L 238.797365 115.192563 
L 241.400092 112.458408 
L 244.002819 107.14537 
L 246.605546 106.283539 
L 249.208274 105.783869 
L 251.811001 104.600146 
L 254.413728 103.208093 
L 257.016455 101.540355 
L 259.619183 101.24834 
L 262.22191 95.045048 
L 264.824637 92.913391 
L 267.427365 91.73781 
L 270.030092 90.502193 
L 272.632819 89.10767 
L 275.235546 87.786574 
L 277.838274 84.811996 
L 280.441001 84.347883 
L 283.043728 80.377197 
L 285.646455 12.566212 
L 288.249183 12.566212 
L 290.85191 12.566212 
L 293.454637 12.566212 
L 296.057365 12.566212 
L 298.660092 12.566212 
L 301.262819 12.566212 
L 303.865546 12.566212 
L 306.468274 12.566212 
L 309.071001 12.566212 
L 311.673728 12.566212 
L 314.276455 12.566212 
L 316.879183 12.566212 
L 319.48191 12.566212 
" clip-path="url(#p2d9484da18)" style="fill: none; stroke: #34af8a; stroke-width: 1.5; stroke-linecap: round"/>
   </g>
   <g id="line2d_5">
    <path d="M 61.81191 213.761692 
L 64.414637 212.887701 
L 67.017365 207.288492 
L 69.620092 207.083847 
L 72.222819 200.118018 
L 74.825546 199.594202 
L 77.428274 198.893131 
L 80.031001 195.762351 
L 82.633728 193.550337 
L 85.236455 190.721124 
L 87.839183 190.467661 
L 90.44191 187.069523 
L 93.044637 182.607454 
L 95.647365 179.968334 
L 98.250092 179.924863 
L 100.852819 177.673934 
L 103.455546 174.842931 
L 106.058274 173.839171 
L 108.661001 171.385565 
L 111.263728 170.337342 
L 113.866455 169.138349 
L 116.469183 167.719433 
L 119.07191 167.242554 
L 121.674637 166.840936 
L 124.277365 164.634874 
L 126.880092 164.121131 
L 129.482819 162.528027 
L 132.085546 160.436476 
L 134.688274 158.787759 
L 137.291001 156.485479 
L 139.893728 156.387643 
L 142.496455 153.001777 
L 145.099183 152.994597 
L 147.70191 152.157848 
L 150.304637 150.812618 
L 152.907365 150.470407 
L 155.510092 149.862456 
L 158.112819 148.745635 
L 160.715546 148.06643 
L 163.318274 147.706768 
L 165.921001 147.463062 
L 168.523728 147.326876 
L 171.126455 145.984206 
L 173.729183 143.532279 
L 176.33191 141.941565 
L 178.934637 140.258769 
L 181.537365 138.501115 
L 184.140092 137.620011 
L 186.742819 137.509109 
L 189.345546 137.230006 
L 191.948274 137.007438 
L 194.551001 136.157717 
L 197.153728 135.064382 
L 199.756455 133.507148 
L 202.359183 133.189015 
L 204.96191 131.198804 
L 207.564637 130.938978 
L 210.167365 129.706589 
L 212.770092 129.63851 
L 215.372819 127.783814 
L 217.975546 127.434137 
L 220.578274 124.395239 
L 223.181001 121.75944 
L 225.783728 118.619516 
L 228.386455 116.72245 
L 230.989183 115.957586 
L 233.59191 109.012375 
L 236.194637 108.614087 
L 238.797365 108.402152 
L 241.400092 100.379395 
L 244.002819 99.898661 
L 246.605546 97.609234 
L 249.208274 95.598501 
L 251.811001 94.810916 
L 254.413728 94.259936 
L 257.016455 92.81486 
L 259.619183 90.740275 
L 262.22191 90.512571 
L 264.824637 85.192283 
L 267.427365 82.416896 
L 270.030092 81.54074 
L 272.632819 77.224727 
L 275.235546 74.839379 
L 277.838274 68.01965 
L 280.441001 59.556919 
L 283.043728 58.363843 
L 285.646455 12.566212 
L 288.249183 12.566212 
L 290.85191 12.566212 
L 293.454637 12.566212 
L 296.057365 12.566212 
L 298.660092 12.566212 
L 301.262819 12.566212 
L 303.865546 12.566212 
L 306.468274 12.566212 
L 309.071001 12.566212 
L 311.673728 12.566212 
L 314.276455 12.566212 
L 316.879183 12.566212 
L 319.48191 12.566212 
" clip-path="url(#p2d9484da18)" style="fill: none; stroke: #37aabb; stroke-width: 1.5; stroke-linecap: round"/>
   </g>
   <g id="line2d_6">
    <path d="M 61.81191 223.990979 
L 64.414637 212.49592 
L 67.017365 211.683392 
L 69.620092 210.367032 
L 72.222819 207.702973 
L 74.825546 206.35701 
L 77.428274 205.897145 
L 80.031001 204.297855 
L 82.633728 196.133558 
L 85.236455 192.222914 
L 87.839183 190.645477 
L 90.44191 185.770665 
L 93.044637 184.675246 
L 95.647365 181.87776 
L 98.250092 178.509429 
L 100.852819 174.093973 
L 103.455546 172.836543 
L 106.058274 171.779317 
L 108.661001 170.655166 
L 111.263728 169.795673 
L 113.866455 169.747162 
L 116.469183 169.482036 
L 119.07191 166.639813 
L 121.674637 166.2113 
L 124.277365 166.200189 
L 126.880092 165.429638 
L 129.482819 164.376486 
L 132.085546 164.16869 
L 134.688274 162.585294 
L 137.291001 161.620455 
L 139.893728 157.465393 
L 142.496455 157.038156 
L 145.099183 156.110281 
L 147.70191 154.673331 
L 150.304637 152.090042 
L 152.907365 151.958355 
L 155.510092 151.94706 
L 158.112819 150.877239 
L 160.715546 149.901038 
L 163.318274 148.97277 
L 165.921001 144.787894 
L 168.523728 142.888751 
L 171.126455 142.1544 
L 173.729183 139.970393 
L 176.33191 137.485828 
L 178.934637 135.716951 
L 181.537365 134.247394 
L 184.140092 132.814754 
L 186.742819 131.80018 
L 189.345546 131.657734 
L 191.948274 131.578794 
L 194.551001 130.29653 
L 197.153728 128.677176 
L 199.756455 127.082596 
L 202.359183 124.915113 
L 204.96191 123.013685 
L 207.564637 120.85533 
L 210.167365 118.727316 
L 212.770092 116.000153 
L 215.372819 115.767311 
L 217.975546 114.156261 
L 220.578274 112.467329 
L 223.181001 111.402424 
L 225.783728 111.243837 
L 228.386455 109.822564 
L 230.989183 109.158472 
L 233.59191 108.464434 
L 236.194637 99.889908 
L 238.797365 98.852448 
L 241.400092 97.751186 
L 244.002819 96.662438 
L 246.605546 95.969714 
L 249.208274 95.4688 
L 251.811001 94.050698 
L 254.413728 90.128201 
L 257.016455 85.073687 
L 259.619183 83.98146 
L 262.22191 83.677049 
L 264.824637 80.590101 
L 267.427365 75.940264 
L 270.030092 74.618785 
L 272.632819 71.460453 
L 275.235546 70.954402 
L 277.838274 70.275854 
L 280.441001 66.680705 
L 283.043728 65.246941 
L 285.646455 12.566212 
L 288.249183 12.566212 
L 290.85191 12.566212 
L 293.454637 12.566212 
L 296.057365 12.566212 
L 298.660092 12.566212 
L 301.262819 12.566212 
L 303.865546 12.566212 
L 306.468274 12.566212 
L 309.071001 12.566212 
L 311.673728 12.566212 
L 314.276455 12.566212 
L 316.879183 12.566212 
L 319.48191 12.566212 
" clip-path="url(#p2d9484da18)" style="fill: none; stroke: #8197f4; stroke-width: 1.5; stroke-linecap: round"/>
   </g>
   <g id="line2d_7">
    <path d="M 61.81191 227.090559 
L 64.414637 220.912381 
L 67.017365 219.130407 
L 69.620092 216.831263 
L 72.222819 211.947909 
L 74.825546 211.045575 
L 77.428274 209.146238 
L 80.031001 206.534948 
L 82.633728 204.639521 
L 85.236455 201.188509 
L 87.839183 198.375484 
L 90.44191 193.607882 
L 93.044637 192.132739 
L 95.647365 191.406009 
L 98.250092 191.391197 
L 100.852819 191.251679 
L 103.455546 189.94284 
L 106.058274 189.824299 
L 108.661001 189.665916 
L 111.263728 188.442855 
L 113.866455 186.718229 
L 116.469183 186.41495 
L 119.07191 185.464144 
L 121.674637 183.584863 
L 124.277365 183.563997 
L 126.880092 183.084365 
L 129.482819 181.60481 
L 132.085546 180.819865 
L 134.688274 179.663772 
L 137.291001 179.579202 
L 139.893728 177.30894 
L 142.496455 175.518176 
L 145.099183 175.033064 
L 147.70191 174.187534 
L 150.304637 170.340124 
L 152.907365 168.172511 
L 155.510092 167.104837 
L 158.112819 166.280156 
L 160.715546 165.090064 
L 163.318274 161.635099 
L 165.921001 161.175617 
L 168.523728 159.994941 
L 171.126455 159.14052 
L 173.729183 158.339287 
L 176.33191 157.078938 
L 178.934637 156.567002 
L 181.537365 152.013347 
L 184.140092 147.362464 
L 186.742819 146.127328 
L 189.345546 144.733159 
L 191.948274 142.42569 
L 194.551001 142.141986 
L 197.153728 134.880294 
L 199.756455 132.999196 
L 202.359183 132.170852 
L 204.96191 129.815358 
L 207.564637 128.175713 
L 210.167365 128.105469 
L 212.770092 128.026475 
L 215.372819 127.329326 
L 217.975546 126.358581 
L 220.578274 126.23849 
L 223.181001 124.198012 
L 225.783728 123.388271 
L 228.386455 122.479755 
L 230.989183 122.144097 
L 233.59191 122.021531 
L 236.194637 121.516966 
L 238.797365 120.606825 
L 241.400092 119.430785 
L 244.002819 119.276527 
L 246.605546 113.414859 
L 249.208274 113.151349 
L 251.811001 112.577453 
L 254.413728 110.04291 
L 257.016455 109.722458 
L 259.619183 108.155851 
L 262.22191 102.691798 
L 264.824637 101.003005 
L 267.427365 100.275391 
L 270.030092 99.890178 
L 272.632819 93.887137 
L 275.235546 91.182345 
L 277.838274 84.782243 
L 280.441001 76.479023 
L 283.043728 73.973954 
L 285.646455 12.566212 
L 288.249183 12.566212 
L 290.85191 12.566212 
L 293.454637 12.566212 
L 296.057365 12.566212 
L 298.660092 12.566212 
L 301.262819 12.566212 
L 303.865546 12.566212 
L 306.468274 12.566212 
L 309.071001 12.566212 
L 311.673728 12.566212 
L 314.276455 12.566212 
L 316.879183 12.566212 
L 319.48191 12.566212 
" clip-path="url(#p2d9484da18)" style="fill: none; stroke: #f45deb; stroke-width: 1.5; stroke-linecap: round"/>
   </g>
   <g id="line2d_8">
    <path d="M 61.81191 199.196493 
L 64.414637 191.726846 
L 67.017365 186.596771 
L 69.620092 182.626626 
L 72.222819 181.456169 
L 74.825546 179.251242 
L 77.428274 178.686868 
L 80.031001 176.649238 
L 82.633728 175.535385 
L 85.236455 174.664262 
L 87.839183 174.655552 
L 90.44191 174.157702 
L 93.044637 173.995093 
L 95.647365 173.711983 
L 98.250092 173.151388 
L 100.852819 172.540823 
L 103.455546 170.677123 
L 106.058274 170.128482 
L 108.661001 170.057448 
L 111.263728 169.570216 
L 113.866455 169.550849 
L 116.469183 168.975635 
L 119.07191 168.92492 
L 121.674637 168.702348 
L 124.277365 168.23259 
L 126.880092 167.394294 
L 129.482819 166.167681 
L 132.085546 165.717211 
L 134.688274 165.485562 
L 137.291001 164.932947 
L 139.893728 164.181238 
L 142.496455 163.848015 
L 145.099183 163.726385 
L 147.70191 163.099938 
L 150.304637 162.896575 
L 152.907365 162.670646 
L 155.510092 161.556915 
L 158.112819 161.38337 
L 160.715546 161.206634 
L 163.318274 160.247366 
L 165.921001 159.945124 
L 168.523728 159.705928 
L 171.126455 159.277495 
L 173.729183 158.93315 
L 176.33191 158.771362 
L 178.934637 157.16346 
L 181.537365 156.981774 
L 184.140092 156.608955 
L 186.742819 155.745144 
L 189.345546 155.601961 
L 191.948274 154.95602 
L 194.551001 154.809307 
L 197.153728 154.781922 
L 199.756455 154.647533 
L 202.359183 154.581886 
L 204.96191 154.505066 
L 207.564637 154.18427 
L 210.167365 150.681726 
L 212.770092 149.643542 
L 215.372819 148.546282 
L 217.975546 145.91044 
L 220.578274 145.350998 
L 223.181001 144.636473 
L 225.783728 143.631539 
L 228.386455 143.261198 
L 230.989183 142.451491 
L 233.59191 142.209921 
L 236.194637 141.853847 
L 238.797365 141.64226 
L 241.400092 141.558821 
L 244.002819 139.379584 
L 246.605546 139.061401 
L 249.208274 138.180324 
L 251.811001 137.641273 
L 254.413728 137.377202 
L 257.016455 134.949602 
L 259.619183 130.228921 
L 262.22191 129.80016 
L 264.824637 128.846844 
L 267.427365 128.194119 
L 270.030092 125.03048 
L 272.632819 124.278376 
L 275.235546 124.129764 
L 277.838274 118.648476 
L 280.441001 110.453144 
L 283.043728 100.707433 
L 285.646455 12.566212 
L 288.249183 12.566212 
L 290.85191 12.566212 
L 293.454637 12.566212 
L 296.057365 12.566212 
L 298.660092 12.566212 
L 301.262819 12.566212 
L 303.865546 12.566212 
L 306.468274 12.566212 
L 309.071001 12.566212 
L 311.673728 12.566212 
L 314.276455 12.566212 
L 316.879183 12.566212 
L 319.48191 12.566212 
" clip-path="url(#p2d9484da18)" style="fill: none; stroke: #000000; stroke-width: 6; stroke-linecap: round"/>
   </g>
   <g id="patch_3">
    <path d="M 61.81191 270.236212 
L 61.81191 12.566212 
" style="fill: none; stroke: #262626; stroke-width: 1.25; stroke-linejoin: miter; stroke-linecap: square"/>
   </g>
   <g id="patch_4">
    <path d="M 61.81191 270.236212 
L 319.48191 270.236212 
" style="fill: none; stroke: #262626; stroke-width: 1.25; stroke-linejoin: miter; stroke-linecap: square"/>
   </g>
   <g id="legend_1">
    <g id="patch_5">
     <path d="M 69.51191 145.844962 
L 171.940816 145.844962 
Q 174.140816 145.844962 174.140816 143.644962 
L 174.140816 20.266212 
Q 174.140816 18.066212 171.940816 18.066212 
L 69.51191 18.066212 
Q 67.31191 18.066212 67.31191 20.266212 
L 67.31191 143.644962 
Q 67.31191 145.844962 69.51191 145.844962 
z
" style="fill: #ffffff; opacity: 0.8; stroke: #cccccc; stroke-linejoin: miter"/>
    </g>
    <g id="line2d_9">
     <path d="M 71.71191 26.489806 
L 82.71191 26.489806 
L 93.71191 26.489806 
" style="fill: none; stroke: #f77189; stroke-width: 1.5; stroke-linecap: round"/>
    </g>
    <g id="text_15">
     <text style="fill: #262626; font: 11px 'Arial', 'DejaVu Sans', 'Liberation Sans', 'Bitstream Vera Sans', sans-serif; text-anchor: start" x="102.51191" y="30.339806" transform="rotate(-0 102.51191 30.339806)">GluN</text>
    </g>
    <g id="line2d_10">
     <path d="M 71.71191 42.04965 
L 82.71191 42.04965 
L 93.71191 42.04965 
" style="fill: none; stroke: #c69432; stroke-width: 1.5; stroke-linecap: round"/>
    </g>
    <g id="text_16">
     <text style="fill: #262626; font: 11px 'Arial', 'DejaVu Sans', 'Liberation Sans', 'Bitstream Vera Sans', sans-serif; text-anchor: start" x="102.51191" y="45.89965" transform="rotate(-0 102.51191 45.89965)">IN</text>
    </g>
    <g id="line2d_11">
     <path d="M 71.71191 57.609493 
L 82.71191 57.609493 
L 93.71191 57.609493 
" style="fill: none; stroke: #82a931; stroke-width: 1.5; stroke-linecap: round"/>
    </g>
    <g id="text_17">
     <text style="fill: #262626; font: 11px 'Arial', 'DejaVu Sans', 'Liberation Sans', 'Bitstream Vera Sans', sans-serif; text-anchor: start" x="102.51191" y="61.459493" transform="rotate(-0 102.51191 61.459493)">MG/EC/Peric.</text>
    </g>
    <g id="line2d_12">
     <path d="M 71.71191 73.169337 
L 82.71191 73.169337 
L 93.71191 73.169337 
" style="fill: none; stroke: #34af8a; stroke-width: 1.5; stroke-linecap: round"/>
    </g>
    <g id="text_18">
     <text style="fill: #262626; font: 11px 'Arial', 'DejaVu Sans', 'Liberation Sans', 'Bitstream Vera Sans', sans-serif; text-anchor: start" x="102.51191" y="77.019337" transform="rotate(-0 102.51191 77.019337)">RG</text>
    </g>
    <g id="line2d_13">
     <path d="M 71.71191 88.729181 
L 82.71191 88.729181 
L 93.71191 88.729181 
" style="fill: none; stroke: #37aabb; stroke-width: 1.5; stroke-linecap: round"/>
    </g>
    <g id="text_19">
     <text style="fill: #262626; font: 11px 'Arial', 'DejaVu Sans', 'Liberation Sans', 'Bitstream Vera Sans', sans-serif; text-anchor: start" x="102.51191" y="92.579181" transform="rotate(-0 102.51191 92.579181)">SP</text>
    </g>
    <g id="line2d_14">
     <path d="M 71.71191 104.289025 
L 82.71191 104.289025 
L 93.71191 104.289025 
" style="fill: none; stroke: #8197f4; stroke-width: 1.5; stroke-linecap: round"/>
    </g>
    <g id="text_20">
     <text style="fill: #262626; font: 11px 'Arial', 'DejaVu Sans', 'Liberation Sans', 'Bitstream Vera Sans', sans-serif; text-anchor: start" x="102.51191" y="108.139025" transform="rotate(-0 102.51191 108.139025)">mGPC/OPC</text>
    </g>
    <g id="line2d_15">
     <path d="M 71.71191 119.848868 
L 82.71191 119.848868 
L 93.71191 119.848868 
" style="fill: none; stroke: #f45deb; stroke-width: 1.5; stroke-linecap: round"/>
    </g>
    <g id="text_21">
     <text style="fill: #262626; font: 11px 'Arial', 'DejaVu Sans', 'Liberation Sans', 'Bitstream Vera Sans', sans-serif; text-anchor: start" x="102.51191" y="123.698868" transform="rotate(-0 102.51191 123.698868)">nIPC</text>
    </g>
    <g id="line2d_16">
     <path d="M 71.71191 135.408712 
L 82.71191 135.408712 
L 93.71191 135.408712 
" style="fill: none; stroke: #000000; stroke-width: 6; stroke-linecap: round"/>
    </g>
    <g id="text_22">
     <text style="fill: #262626; font: 11px 'Arial', 'DejaVu Sans', 'Liberation Sans', 'Bitstream Vera Sans', sans-serif; text-anchor: start" x="102.51191" y="139.258712" transform="rotate(-0 102.51191 139.258712)">Cumulative</text>
    </g>
   </g>
  </g>
 </g>
 <defs>
  <clipPath id="p2d9484da18">
   <rect x="61.81191" y="12.566212" width="257.67" height="257.67"/>
  </clipPath>
 </defs>
</svg>
