<?xml version="1.0" encoding="utf-8" standalone="no"?>
<!DOCTYPE svg PUBLIC "-//W3C//DTD SVG 1.1//EN"
  "http://www.w3.org/Graphics/SVG/1.1/DTD/svg11.dtd">
<svg xmlns:xlink="http://www.w3.org/1999/xlink" width="337.10274pt" height="324.402569pt" viewBox="0 0 337.10274 324.402569" xmlns="http://www.w3.org/2000/svg" version="1.1">
 <metadata>
  <rdf:RDF xmlns:dc="http://purl.org/dc/elements/1.1/" xmlns:cc="http://creativecommons.org/ns#" xmlns:rdf="http://www.w3.org/1999/02/22-rdf-syntax-ns#">
   <cc:Work>
    <dc:type rdf:resource="http://purl.org/dc/dcmitype/StillImage"/>
    <dc:date>2023-09-04T14:00:50.672065</dc:date>
    <dc:format>image/svg+xml</dc:format>
    <dc:creator>
     <cc:Agent>
      <dc:title>Matplotlib v3.7.2, https://matplotlib.org/</dc:title>
     </cc:Agent>
    </dc:creator>
   </cc:Work>
  </rdf:RDF>
 </metadata>
 <defs>
  <style type="text/css">*{stroke-linejoin: round; stroke-linecap: butt}</style>
 </defs>
 <g id="figure_1">
  <g id="patch_1">
   <path d="M 0 324.402569 
L 337.10274 324.402569 
L 337.10274 0 
L 0 0 
z
" style="fill: #ffffff"/>
  </g>
  <g id="axes_1">
   <g id="patch_2">
    <path d="M 61.81191 270.236212 
L 319.48191 270.236212 
L 319.48191 12.566212 
L 61.81191 12.566212 
z
" style="fill: #ffffff"/>
   </g>
   <g id="matplotlib.axis_1">
    <g id="xtick_1">
     <g id="text_1">
      <text style="fill: #262626; font: 14.994px 'Arial', 'DejaVu Sans', 'Liberation Sans', 'Bitstream Vera Sans', sans-serif; text-anchor: middle" x="61.81191" y="290.468636" transform="rotate(-0 61.81191 290.468636)">0.0</text>
     </g>
    </g>
    <g id="xtick_2">
     <g id="text_2">
      <text style="fill: #262626; font: 14.994px 'Arial', 'DejaVu Sans', 'Liberation Sans', 'Bitstream Vera Sans', sans-serif; text-anchor: middle" x="113.34591" y="290.468636" transform="rotate(-0 113.34591 290.468636)">0.2</text>
     </g>
    </g>
    <g id="xtick_3">
     <g id="text_3">
      <text style="fill: #262626; font: 14.994px 'Arial', 'DejaVu Sans', 'Liberation Sans', 'Bitstream Vera Sans', sans-serif; text-anchor: middle" x="164.87991" y="290.468636" transform="rotate(-0 164.87991 290.468636)">0.4</text>
     </g>
    </g>
    <g id="xtick_4">
     <g id="text_4">
      <text style="fill: #262626; font: 14.994px 'Arial', 'DejaVu Sans', 'Liberation Sans', 'Bitstream Vera Sans', sans-serif; text-anchor: middle" x="216.41391" y="290.468636" transform="rotate(-0 216.41391 290.468636)">0.6</text>
     </g>
    </g>
    <g id="xtick_5">
     <g id="text_5">
      <text style="fill: #262626; font: 14.994px 'Arial', 'DejaVu Sans', 'Liberation Sans', 'Bitstream Vera Sans', sans-serif; text-anchor: middle" x="267.94791" y="290.468636" transform="rotate(-0 267.94791 290.468636)">0.8</text>
     </g>
    </g>
    <g id="xtick_6">
     <g id="text_6">
      <text style="fill: #262626; font: 14.994px 'Arial', 'DejaVu Sans', 'Liberation Sans', 'Bitstream Vera Sans', sans-serif; text-anchor: middle" x="319.48191" y="290.468636" transform="rotate(-0 319.48191 290.468636)">1.0</text>
     </g>
    </g>
    <g id="text_7">
     <text style="fill: #262626; font: 21.6px 'Arial', 'DejaVu Sans', 'Liberation Sans', 'Bitstream Vera Sans', sans-serif; text-anchor: middle" x="190.64691" y="312.909569" transform="rotate(-0 190.64691 312.909569)">Percentile</text>
    </g>
   </g>
   <g id="matplotlib.axis_2">
    <g id="ytick_1">
     <g id="text_8">
      <text style="fill: #262626; font: 14.994px 'Arial', 'DejaVu Sans', 'Liberation Sans', 'Bitstream Vera Sans', sans-serif; text-anchor: end" x="52.31191" y="275.602424" transform="rotate(-0 52.31191 275.602424)">0.0</text>
     </g>
    </g>
    <g id="ytick_2">
     <g id="text_9">
      <text style="fill: #262626; font: 14.994px 'Arial', 'DejaVu Sans', 'Liberation Sans', 'Bitstream Vera Sans', sans-serif; text-anchor: end" x="52.31191" y="224.068424" transform="rotate(-0 52.31191 224.068424)">0.2</text>
     </g>
    </g>
    <g id="ytick_3">
     <g id="text_10">
      <text style="fill: #262626; font: 14.994px 'Arial', 'DejaVu Sans', 'Liberation Sans', 'Bitstream Vera Sans', sans-serif; text-anchor: end" x="52.31191" y="172.534424" transform="rotate(-0 52.31191 172.534424)">0.4</text>
     </g>
    </g>
    <g id="ytick_4">
     <g id="text_11">
      <text style="fill: #262626; font: 14.994px 'Arial', 'DejaVu Sans', 'Liberation Sans', 'Bitstream Vera Sans', sans-serif; text-anchor: end" x="52.31191" y="121.000424" transform="rotate(-0 52.31191 121.000424)">0.6</text>
     </g>
    </g>
    <g id="ytick_5">
     <g id="text_12">
      <text style="fill: #262626; font: 14.994px 'Arial', 'DejaVu Sans', 'Liberation Sans', 'Bitstream Vera Sans', sans-serif; text-anchor: end" x="52.31191" y="69.466424" transform="rotate(-0 52.31191 69.466424)">0.8</text>
     </g>
    </g>
    <g id="ytick_6">
     <g id="text_13">
      <text style="fill: #262626; font: 14.994px 'Arial', 'DejaVu Sans', 'Liberation Sans', 'Bitstream Vera Sans', sans-serif; text-anchor: end" x="52.31191" y="17.932424" transform="rotate(-0 52.31191 17.932424)">1.0</text>
     </g>
    </g>
    <g id="text_14">
     <text style="fill: #262626; font: 21.6px 'Arial', 'DejaVu Sans', 'Liberation Sans', 'Bitstream Vera Sans', sans-serif; text-anchor: middle" x="22.924125" y="141.401212" transform="rotate(-90 22.924125 141.401212)">ATAC Similarity</text>
    </g>
   </g>
   <g id="line2d_1">
    <path d="M 61.81191 220.21077 
L 64.414637 218.491419 
L 67.017365 217.080329 
L 69.620092 216.654569 
L 72.222819 216.173174 
L 74.825546 216.155855 
L 77.428274 215.779808 
L 80.031001 215.756521 
L 82.633728 215.063716 
L 85.236455 214.054512 
L 87.839183 212.947421 
L 90.44191 211.799118 
L 93.044637 211.781189 
L 95.647365 211.654136 
L 98.250092 211.635413 
L 100.852819 211.532243 
L 103.455546 211.405322 
L 106.058274 211.339174 
L 108.661001 211.114094 
L 111.263728 210.405728 
L 113.866455 210.17488 
L 116.469183 209.936553 
L 119.07191 209.747689 
L 121.674637 209.628233 
L 124.277365 209.05129 
L 126.880092 209.031601 
L 129.482819 208.948946 
L 132.085546 208.769752 
L 134.688274 208.680501 
L 137.291001 207.989443 
L 139.893728 207.763901 
L 142.496455 207.582125 
L 145.099183 206.477498 
L 147.70191 206.410118 
L 150.304637 206.19138 
L 152.907365 206.144222 
L 155.510092 206.131781 
L 158.112819 206.052966 
L 160.715546 205.508098 
L 163.318274 205.494075 
L 165.921001 205.043554 
L 168.523728 204.424258 
L 171.126455 204.339669 
L 173.729183 204.015843 
L 176.33191 203.981369 
L 178.934637 203.786405 
L 181.537365 203.406801 
L 184.140092 202.649237 
L 186.742819 202.390403 
L 189.345546 202.119111 
L 191.948274 201.653823 
L 194.551001 201.284647 
L 197.153728 201.114396 
L 199.756455 200.471453 
L 202.359183 200.003494 
L 204.96191 198.774977 
L 207.564637 198.312941 
L 210.167365 198.080998 
L 212.770092 197.302038 
L 215.372819 197.28444 
L 217.975546 197.250131 
L 220.578274 196.918831 
L 223.181001 196.537397 
L 225.783728 194.528318 
L 228.386455 193.364424 
L 230.989183 193.125871 
L 233.59191 192.518724 
L 236.194637 192.442506 
L 238.797365 191.54034 
L 241.400092 191.360659 
L 244.002819 190.380451 
L 246.605546 189.936205 
L 249.208274 189.80001 
L 251.811001 188.678619 
L 254.413728 187.42524 
L 257.016455 186.527951 
L 259.619183 185.108553 
L 262.22191 185.071822 
L 264.824637 184.441454 
L 267.427365 183.174718 
L 270.030092 183.108369 
L 272.632819 183.059978 
L 275.235546 182.240809 
L 277.838274 181.742359 
L 280.441001 180.83799 
L 283.043728 180.523567 
L 285.646455 178.964242 
L 288.249183 178.956456 
L 290.85191 177.040266 
L 293.454637 175.574686 
L 296.057365 174.50277 
L 298.660092 170.336742 
L 301.262819 153.40554 
L 303.865546 153.205811 
L 306.468274 153.176605 
L 309.071001 136.195894 
L 311.673728 12.566212 
L 314.276455 12.566212 
L 316.879183 12.566212 
L 319.48191 12.566212 
" clip-path="url(#pd83a79026d)" style="fill: none; stroke: #f77189; stroke-width: 1.5; stroke-linecap: round"/>
   </g>
   <g id="line2d_2">
    <path d="M 61.81191 222.313328 
L 64.414637 221.96414 
L 67.017365 219.88716 
L 69.620092 218.312624 
L 72.222819 217.25619 
L 74.825546 217.064381 
L 77.428274 216.78012 
L 80.031001 216.121653 
L 82.633728 215.717345 
L 85.236455 214.984868 
L 87.839183 214.935232 
L 90.44191 214.66028 
L 93.044637 214.655363 
L 95.647365 214.65415 
L 98.250092 214.477358 
L 100.852819 214.215428 
L 103.455546 212.835069 
L 106.058274 212.591101 
L 108.661001 212.547246 
L 111.263728 212.436337 
L 113.866455 212.263718 
L 116.469183 211.350902 
L 119.07191 211.277448 
L 121.674637 210.736509 
L 124.277365 210.678779 
L 126.880092 210.421079 
L 129.482819 210.406361 
L 132.085546 210.26511 
L 134.688274 210.193497 
L 137.291001 210.134127 
L 139.893728 209.545085 
L 142.496455 209.470793 
L 145.099183 209.39481 
L 147.70191 209.368207 
L 150.304637 208.724112 
L 152.907365 208.624685 
L 155.510092 208.409418 
L 158.112819 208.394781 
L 160.715546 208.374521 
L 163.318274 208.288201 
L 165.921001 208.183799 
L 168.523728 208.010338 
L 171.126455 206.932775 
L 173.729183 206.534724 
L 176.33191 206.405065 
L 178.934637 206.110866 
L 181.537365 205.887462 
L 184.140092 205.79018 
L 186.742819 205.697848 
L 189.345546 205.569565 
L 191.948274 204.877321 
L 194.551001 204.817481 
L 197.153728 204.705193 
L 199.756455 204.464554 
L 202.359183 204.440651 
L 204.96191 203.981606 
L 207.564637 203.800527 
L 210.167365 203.690069 
L 212.770092 203.659957 
L 215.372819 203.500248 
L 217.975546 202.327769 
L 220.578274 201.856806 
L 223.181001 201.233307 
L 225.783728 200.641251 
L 228.386455 199.937406 
L 230.989183 199.662228 
L 233.59191 199.55059 
L 236.194637 199.452934 
L 238.797365 199.059522 
L 241.400092 197.297596 
L 244.002819 196.956014 
L 246.605546 196.431219 
L 249.208274 195.610908 
L 251.811001 195.564186 
L 254.413728 195.394763 
L 257.016455 195.225162 
L 259.619183 195.137602 
L 262.22191 195.002021 
L 264.824637 193.824002 
L 267.427365 192.929103 
L 270.030092 192.417645 
L 272.632819 191.630761 
L 275.235546 190.804203 
L 277.838274 190.78673 
L 280.441001 189.446192 
L 283.043728 188.99529 
L 285.646455 188.399411 
L 288.249183 185.375082 
L 290.85191 184.559872 
L 293.454637 182.28866 
L 296.057365 181.266063 
L 298.660092 173.855188 
L 301.262819 167.754449 
L 303.865546 159.027758 
L 306.468274 157.443574 
L 309.071001 153.020801 
L 311.673728 12.566212 
L 314.276455 12.566212 
L 316.879183 12.566212 
L 319.48191 12.566212 
" clip-path="url(#pd83a79026d)" style="fill: none; stroke: #c69432; stroke-width: 1.5; stroke-linecap: round"/>
   </g>
   <g id="line2d_3">
    <path d="M 61.81191 227.090559 
L 64.414637 227.090559 
L 67.017365 227.090559 
L 69.620092 227.090559 
L 72.222819 227.090559 
L 74.825546 227.090559 
L 77.428274 227.090559 
L 80.031001 227.090559 
L 82.633728 227.090559 
L 85.236455 227.090559 
L 87.839183 227.090559 
L 90.44191 226.316672 
L 93.044637 224.867364 
L 95.647365 224.389942 
L 98.250092 224.01285 
L 100.852819 223.801819 
L 103.455546 223.129784 
L 106.058274 222.72282 
L 108.661001 222.62651 
L 111.263728 222.590728 
L 113.866455 222.313739 
L 116.469183 221.799297 
L 119.07191 221.72345 
L 121.674637 221.325151 
L 124.277365 221.322106 
L 126.880092 221.125486 
L 129.482819 220.763259 
L 132.085546 220.26896 
L 134.688274 220.094045 
L 137.291001 219.249534 
L 139.893728 218.139511 
L 142.496455 217.960075 
L 145.099183 217.864232 
L 147.70191 217.804485 
L 150.304637 217.801681 
L 152.907365 217.306107 
L 155.510092 216.660792 
L 158.112819 215.972923 
L 160.715546 215.212237 
L 163.318274 215.066058 
L 165.921001 214.797226 
L 168.523728 214.565655 
L 171.126455 214.436379 
L 173.729183 213.720126 
L 176.33191 213.595802 
L 178.934637 213.469177 
L 181.537365 212.911714 
L 184.140092 212.722923 
L 186.742819 212.571386 
L 189.345546 212.545817 
L 191.948274 212.290982 
L 194.551001 212.253115 
L 197.153728 211.184724 
L 199.756455 210.879519 
L 202.359183 210.183476 
L 204.96191 210.084039 
L 207.564637 209.640422 
L 210.167365 209.202395 
L 212.770092 209.161187 
L 215.372819 209.157929 
L 217.975546 208.556052 
L 220.578274 208.069705 
L 223.181001 205.797611 
L 225.783728 204.065841 
L 228.386455 203.612155 
L 230.989183 203.584489 
L 233.59191 202.775096 
L 236.194637 202.527285 
L 238.797365 199.696026 
L 241.400092 198.435541 
L 244.002819 198.041604 
L 246.605546 196.021547 
L 249.208274 195.374867 
L 251.811001 192.940356 
L 254.413728 190.671628 
L 257.016455 190.655825 
L 259.619183 188.994468 
L 262.22191 188.827663 
L 264.824637 187.707542 
L 267.427365 187.372601 
L 270.030092 183.962686 
L 272.632819 183.129359 
L 275.235546 183.11296 
L 277.838274 182.907726 
L 280.441001 175.415972 
L 283.043728 173.735583 
L 285.646455 173.660526 
L 288.249183 171.29778 
L 290.85191 162.45573 
L 293.454637 156.974102 
L 296.057365 150.788477 
L 298.660092 148.382465 
L 301.262819 147.65747 
L 303.865546 94.10769 
L 306.468274 94.10769 
L 309.071001 94.10769 
L 311.673728 12.566212 
L 314.276455 12.566212 
L 316.879183 12.566212 
L 319.48191 12.566212 
" clip-path="url(#pd83a79026d)" style="fill: none; stroke: #82a931; stroke-width: 1.5; stroke-linecap: round"/>
   </g>
   <g id="line2d_4">
    <path d="M 61.81191 227.090559 
L 64.414637 225.138239 
L 67.017365 223.768724 
L 69.620092 223.105383 
L 72.222819 223.101606 
L 74.825546 222.371464 
L 77.428274 221.302554 
L 80.031001 221.235264 
L 82.633728 220.05568 
L 85.236455 219.655115 
L 87.839183 219.363882 
L 90.44191 218.626251 
L 93.044637 218.459503 
L 95.647365 217.244308 
L 98.250092 216.773719 
L 100.852819 216.719086 
L 103.455546 215.730301 
L 106.058274 214.999917 
L 108.661001 214.96555 
L 111.263728 214.681207 
L 113.866455 213.989814 
L 116.469183 213.889593 
L 119.07191 213.887613 
L 121.674637 213.835275 
L 124.277365 213.688702 
L 126.880092 213.585277 
L 129.482819 213.516482 
L 132.085546 213.469484 
L 134.688274 213.131411 
L 137.291001 213.042777 
L 139.893728 212.949806 
L 142.496455 212.704252 
L 145.099183 212.326271 
L 147.70191 211.767761 
L 150.304637 211.656387 
L 152.907365 211.442782 
L 155.510092 211.436673 
L 158.112819 210.926384 
L 160.715546 210.610685 
L 163.318274 209.444143 
L 165.921001 209.173688 
L 168.523728 209.022033 
L 171.126455 209.016713 
L 173.729183 208.967812 
L 176.33191 208.853929 
L 178.934637 208.760047 
L 181.537365 208.676203 
L 184.140092 208.612186 
L 186.742819 208.569007 
L 189.345546 208.553335 
L 191.948274 208.459514 
L 194.551001 208.2113 
L 197.153728 207.850111 
L 199.756455 207.309613 
L 202.359183 206.829419 
L 204.96191 206.560276 
L 207.564637 205.731748 
L 210.167365 205.69255 
L 212.770092 205.190891 
L 215.372819 204.309539 
L 217.975546 204.292135 
L 220.578274 203.687208 
L 223.181001 203.407774 
L 225.783728 203.239939 
L 228.386455 203.11032 
L 230.989183 202.597349 
L 233.59191 202.491601 
L 236.194637 202.083326 
L 238.797365 202.03801 
L 241.400092 201.849641 
L 244.002819 201.757634 
L 246.605546 201.614097 
L 249.208274 198.166252 
L 251.811001 196.756827 
L 254.413728 196.69694 
L 257.016455 194.55125 
L 259.619183 193.106163 
L 262.22191 191.457453 
L 264.824637 191.187737 
L 267.427365 190.642777 
L 270.030092 190.366848 
L 272.632819 189.686833 
L 275.235546 189.438535 
L 277.838274 187.102017 
L 280.441001 186.425333 
L 283.043728 184.952949 
L 285.646455 183.415606 
L 288.249183 182.689396 
L 290.85191 181.67355 
L 293.454637 173.78213 
L 296.057365 162.955983 
L 298.660092 158.748755 
L 301.262819 154.645824 
L 303.865546 138.707903 
L 306.468274 122.403618 
L 309.071001 98.851208 
L 311.673728 12.566212 
L 314.276455 12.566212 
L 316.879183 12.566212 
L 319.48191 12.566212 
" clip-path="url(#pd83a79026d)" style="fill: none; stroke: #34af8a; stroke-width: 1.5; stroke-linecap: round"/>
   </g>
   <g id="line2d_5">
    <path d="M 61.81191 224.086801 
L 64.414637 222.95786 
L 67.017365 220.609746 
L 69.620092 220.166745 
L 72.222819 219.495992 
L 74.825546 218.917969 
L 77.428274 218.820612 
L 80.031001 218.502082 
L 82.633728 218.366248 
L 85.236455 217.901085 
L 87.839183 217.871463 
L 90.44191 217.684944 
L 93.044637 217.618068 
L 95.647365 217.481376 
L 98.250092 217.390995 
L 100.852819 217.379163 
L 103.455546 217.241806 
L 106.058274 217.214742 
L 108.661001 217.139159 
L 111.263728 217.118866 
L 113.866455 216.90691 
L 116.469183 216.241939 
L 119.07191 215.838401 
L 121.674637 215.628075 
L 124.277365 214.77252 
L 126.880092 214.513063 
L 129.482819 214.430707 
L 132.085546 214.404474 
L 134.688274 213.66852 
L 137.291001 213.289048 
L 139.893728 212.820222 
L 142.496455 212.801133 
L 145.099183 212.616744 
L 147.70191 212.324126 
L 150.304637 211.985796 
L 152.907365 211.643859 
L 155.510092 211.557645 
L 158.112819 211.479896 
L 160.715546 211.421844 
L 163.318274 211.047906 
L 165.921001 210.841636 
L 168.523728 210.404292 
L 171.126455 209.51233 
L 173.729183 209.491478 
L 176.33191 209.490675 
L 178.934637 209.298038 
L 181.537365 209.124714 
L 184.140092 208.529724 
L 186.742819 208.094734 
L 189.345546 207.948981 
L 191.948274 207.587392 
L 194.551001 206.676506 
L 197.153728 206.546909 
L 199.756455 206.369531 
L 202.359183 206.3096 
L 204.96191 205.832687 
L 207.564637 204.649818 
L 210.167365 204.314571 
L 212.770092 203.365852 
L 215.372819 203.360272 
L 217.975546 202.699595 
L 220.578274 202.440747 
L 223.181001 202.306813 
L 225.783728 201.854539 
L 228.386455 201.533911 
L 230.989183 201.432184 
L 233.59191 198.853109 
L 236.194637 198.672185 
L 238.797365 198.004711 
L 241.400092 196.672116 
L 244.002819 196.472917 
L 246.605546 193.783623 
L 249.208274 192.434121 
L 251.811001 191.572838 
L 254.413728 191.511599 
L 257.016455 191.437151 
L 259.619183 191.062665 
L 262.22191 190.730502 
L 264.824637 190.718634 
L 267.427365 188.248919 
L 270.030092 187.672072 
L 272.632819 186.701948 
L 275.235546 185.899655 
L 277.838274 185.73652 
L 280.441001 184.579427 
L 283.043728 180.709493 
L 285.646455 177.763866 
L 288.249183 176.796667 
L 290.85191 163.638004 
L 293.454637 163.258065 
L 296.057365 160.262209 
L 298.660092 144.680642 
L 301.262819 123.40593 
L 303.865546 103.235365 
L 306.468274 80.464353 
L 309.071001 72.971899 
L 311.673728 12.566212 
L 314.276455 12.566212 
L 316.879183 12.566212 
L 319.48191 12.566212 
" clip-path="url(#pd83a79026d)" style="fill: none; stroke: #37aabb; stroke-width: 1.5; stroke-linecap: round"/>
   </g>
   <g id="line2d_6">
    <path d="M 61.81191 223.392661 
L 64.414637 221.56705 
L 67.017365 218.932975 
L 69.620092 218.887315 
L 72.222819 218.256046 
L 74.825546 217.078092 
L 77.428274 217.021543 
L 80.031001 216.457741 
L 82.633728 216.36457 
L 85.236455 215.686871 
L 87.839183 215.631533 
L 90.44191 215.592832 
L 93.044637 215.499459 
L 95.647365 215.290235 
L 98.250092 215.155239 
L 100.852819 214.233064 
L 103.455546 214.225712 
L 106.058274 214.184835 
L 108.661001 214.137224 
L 111.263728 213.735755 
L 113.866455 212.828985 
L 116.469183 212.510246 
L 119.07191 212.167362 
L 121.674637 212.10132 
L 124.277365 212.081278 
L 126.880092 211.012774 
L 129.482819 210.975636 
L 132.085546 210.651574 
L 134.688274 210.590526 
L 137.291001 210.278484 
L 139.893728 210.237212 
L 142.496455 209.379285 
L 145.099183 209.187587 
L 147.70191 209.132829 
L 150.304637 209.014448 
L 152.907365 208.614382 
L 155.510092 208.414383 
L 158.112819 207.443318 
L 160.715546 207.296284 
L 163.318274 206.725658 
L 165.921001 206.666393 
L 168.523728 206.158413 
L 171.126455 206.128321 
L 173.729183 205.632667 
L 176.33191 204.970507 
L 178.934637 204.832369 
L 181.537365 204.258095 
L 184.140092 204.015346 
L 186.742819 203.961481 
L 189.345546 203.557181 
L 191.948274 203.385811 
L 194.551001 202.914242 
L 197.153728 202.818506 
L 199.756455 202.638273 
L 202.359183 202.579716 
L 204.96191 202.575168 
L 207.564637 202.509591 
L 210.167365 202.107603 
L 212.770092 201.167274 
L 215.372819 200.733877 
L 217.975546 200.59258 
L 220.578274 200.362048 
L 223.181001 199.868151 
L 225.783728 199.368253 
L 228.386455 198.34045 
L 230.989183 198.317762 
L 233.59191 198.079072 
L 236.194637 197.815575 
L 238.797365 197.528386 
L 241.400092 197.249647 
L 244.002819 192.684392 
L 246.605546 192.580103 
L 249.208274 191.687091 
L 251.811001 189.734681 
L 254.413728 187.255617 
L 257.016455 186.554733 
L 259.619183 186.497129 
L 262.22191 185.514971 
L 264.824637 181.577276 
L 267.427365 180.989781 
L 270.030092 177.879702 
L 272.632819 175.044192 
L 275.235546 174.707815 
L 277.838274 174.471564 
L 280.441001 171.926513 
L 283.043728 161.569211 
L 285.646455 159.764179 
L 288.249183 157.634471 
L 290.85191 157.060626 
L 293.454637 153.881578 
L 296.057365 145.364066 
L 298.660092 132.893547 
L 301.262819 127.268982 
L 303.865546 117.244291 
L 306.468274 92.968 
L 309.071001 92.342028 
L 311.673728 12.566212 
L 314.276455 12.566212 
L 316.879183 12.566212 
L 319.48191 12.566212 
" clip-path="url(#pd83a79026d)" style="fill: none; stroke: #8197f4; stroke-width: 1.5; stroke-linecap: round"/>
   </g>
   <g id="line2d_7">
    <path d="M 61.81191 224.314882 
L 64.414637 222.763241 
L 67.017365 222.608253 
L 69.620092 222.288403 
L 72.222819 222.15975 
L 74.825546 220.365809 
L 77.428274 220.176928 
L 80.031001 219.385265 
L 82.633728 219.03056 
L 85.236455 218.885999 
L 87.839183 218.456342 
L 90.44191 218.437275 
L 93.044637 218.340453 
L 95.647365 217.945417 
L 98.250092 217.874418 
L 100.852819 217.872786 
L 103.455546 217.418217 
L 106.058274 217.398632 
L 108.661001 216.605451 
L 111.263728 216.15758 
L 113.866455 215.92283 
L 116.469183 215.878435 
L 119.07191 215.004034 
L 121.674637 214.928217 
L 124.277365 214.859363 
L 126.880092 214.738771 
L 129.482819 214.65979 
L 132.085546 214.317323 
L 134.688274 213.765619 
L 137.291001 213.744256 
L 139.893728 213.541946 
L 142.496455 213.52542 
L 145.099183 213.265506 
L 147.70191 213.139508 
L 150.304637 213.122794 
L 152.907365 212.637513 
L 155.510092 212.462155 
L 158.112819 212.405213 
L 160.715546 211.501243 
L 163.318274 211.138866 
L 165.921001 211.104735 
L 168.523728 210.599074 
L 171.126455 210.459653 
L 173.729183 210.103961 
L 176.33191 209.937342 
L 178.934637 209.530391 
L 181.537365 209.520325 
L 184.140092 209.296677 
L 186.742819 209.192593 
L 189.345546 209.158679 
L 191.948274 209.038043 
L 194.551001 208.367987 
L 197.153728 208.176541 
L 199.756455 207.533558 
L 202.359183 207.47243 
L 204.96191 207.433391 
L 207.564637 207.012131 
L 210.167365 206.409099 
L 212.770092 206.324263 
L 215.372819 206.098786 
L 217.975546 206.009135 
L 220.578274 205.140734 
L 223.181001 204.608624 
L 225.783728 204.476323 
L 228.386455 203.64937 
L 230.989183 202.240747 
L 233.59191 201.965988 
L 236.194637 201.899272 
L 238.797365 200.692698 
L 241.400092 200.674726 
L 244.002819 199.246485 
L 246.605546 199.080151 
L 249.208274 198.261187 
L 251.811001 196.547065 
L 254.413728 196.350199 
L 257.016455 194.808532 
L 259.619183 194.781576 
L 262.22191 194.469146 
L 264.824637 194.193003 
L 267.427365 192.069446 
L 270.030092 190.842028 
L 272.632819 190.788452 
L 275.235546 190.125988 
L 277.838274 189.574871 
L 280.441001 189.003689 
L 283.043728 185.135592 
L 285.646455 182.235424 
L 288.249183 174.875711 
L 290.85191 162.868276 
L 293.454637 159.806772 
L 296.057365 159.516558 
L 298.660092 157.392908 
L 301.262819 157.248409 
L 303.865546 143.027051 
L 306.468274 96.137122 
L 309.071001 92.547548 
L 311.673728 12.566212 
L 314.276455 12.566212 
L 316.879183 12.566212 
L 319.48191 12.566212 
" clip-path="url(#pd83a79026d)" style="fill: none; stroke: #f45deb; stroke-width: 1.5; stroke-linecap: round"/>
   </g>
   <g id="line2d_8">
    <path d="M 61.81191 218.215558 
L 64.414637 216.373116 
L 67.017365 216.175841 
L 69.620092 216.037949 
L 72.222819 215.785631 
L 74.825546 215.779667 
L 77.428274 215.629307 
L 80.031001 215.372903 
L 82.633728 213.927711 
L 85.236455 213.698695 
L 87.839183 213.46935 
L 90.44191 213.373585 
L 93.044637 213.011713 
L 95.647365 212.699384 
L 98.250092 212.494462 
L 100.852819 211.952082 
L 103.455546 211.893755 
L 106.058274 211.631597 
L 108.661001 211.505196 
L 111.263728 211.183471 
L 113.866455 211.129828 
L 116.469183 211.053504 
L 119.07191 211.053027 
L 121.674637 210.995957 
L 124.277365 210.943799 
L 126.880092 210.903974 
L 129.482819 210.759985 
L 132.085546 210.493428 
L 134.688274 210.226048 
L 137.291001 209.8654 
L 139.893728 209.786037 
L 142.496455 209.7742 
L 145.099183 209.296177 
L 147.70191 209.10709 
L 150.304637 209.048704 
L 152.907365 208.944753 
L 155.510092 208.926012 
L 158.112819 208.653287 
L 160.715546 208.640918 
L 163.318274 208.212822 
L 165.921001 207.849963 
L 168.523728 207.69332 
L 171.126455 207.505226 
L 173.729183 207.44784 
L 176.33191 207.436996 
L 178.934637 207.18075 
L 181.537365 207.036145 
L 184.140092 206.858832 
L 186.742819 206.571302 
L 189.345546 206.527996 
L 191.948274 206.425965 
L 194.551001 206.233164 
L 197.153728 205.584005 
L 199.756455 205.503323 
L 202.359183 205.302935 
L 204.96191 204.821762 
L 207.564637 204.538552 
L 210.167365 204.199637 
L 212.770092 203.825978 
L 215.372819 203.255563 
L 217.975546 203.152791 
L 220.578274 202.187087 
L 223.181001 202.016888 
L 225.783728 201.033773 
L 228.386455 199.707521 
L 230.989183 199.692171 
L 233.59191 199.121695 
L 236.194637 198.92556 
L 238.797365 197.977588 
L 241.400092 197.621691 
L 244.002819 197.134727 
L 246.605546 196.948674 
L 249.208274 196.225384 
L 251.811001 196.192509 
L 254.413728 195.797918 
L 257.016455 195.524314 
L 259.619183 194.404925 
L 262.22191 193.721377 
L 264.824637 193.514587 
L 267.427365 190.855947 
L 270.030092 188.998818 
L 272.632819 188.854731 
L 275.235546 182.614394 
L 277.838274 179.428044 
L 280.441001 178.826029 
L 283.043728 177.590951 
L 285.646455 175.16875 
L 288.249183 174.967455 
L 290.85191 173.128645 
L 293.454637 171.439463 
L 296.057365 170.42202 
L 298.660092 167.895533 
L 301.262819 166.338899 
L 303.865546 162.101393 
L 306.468274 137.162447 
L 309.071001 136.843216 
L 311.673728 12.566212 
L 314.276455 12.566212 
L 316.879183 12.566212 
L 319.48191 12.566212 
" clip-path="url(#pd83a79026d)" style="fill: none; stroke: #000000; stroke-width: 6; stroke-linecap: round"/>
   </g>
   <g id="patch_3">
    <path d="M 61.81191 270.236212 
L 61.81191 12.566212 
" style="fill: none; stroke: #262626; stroke-width: 1.25; stroke-linejoin: miter; stroke-linecap: square"/>
   </g>
   <g id="patch_4">
    <path d="M 61.81191 270.236212 
L 319.48191 270.236212 
" style="fill: none; stroke: #262626; stroke-width: 1.25; stroke-linejoin: miter; stroke-linecap: square"/>
   </g>
   <g id="legend_1">
    <g id="patch_5">
     <path d="M 69.51191 145.844962 
L 171.940816 145.844962 
Q 174.140816 145.844962 174.140816 143.644962 
L 174.140816 20.266212 
Q 174.140816 18.066212 171.940816 18.066212 
L 69.51191 18.066212 
Q 67.31191 18.066212 67.31191 20.266212 
L 67.31191 143.644962 
Q 67.31191 145.844962 69.51191 145.844962 
z
" style="fill: #ffffff; opacity: 0.8; stroke: #cccccc; stroke-linejoin: miter"/>
    </g>
    <g id="line2d_9">
     <path d="M 71.71191 26.489806 
L 82.71191 26.489806 
L 93.71191 26.489806 
" style="fill: none; stroke: #f77189; stroke-width: 1.5; stroke-linecap: round"/>
    </g>
    <g id="text_15">
     <text style="fill: #262626; font: 11px 'Arial', 'DejaVu Sans', 'Liberation Sans', 'Bitstream Vera Sans', sans-serif; text-anchor: start" x="102.51191" y="30.339806" transform="rotate(-0 102.51191 30.339806)">GluN</text>
    </g>
    <g id="line2d_10">
     <path d="M 71.71191 42.04965 
L 82.71191 42.04965 
L 93.71191 42.04965 
" style="fill: none; stroke: #c69432; stroke-width: 1.5; stroke-linecap: round"/>
    </g>
    <g id="text_16">
     <text style="fill: #262626; font: 11px 'Arial', 'DejaVu Sans', 'Liberation Sans', 'Bitstream Vera Sans', sans-serif; text-anchor: start" x="102.51191" y="45.89965" transform="rotate(-0 102.51191 45.89965)">IN</text>
    </g>
    <g id="line2d_11">
     <path d="M 71.71191 57.609493 
L 82.71191 57.609493 
L 93.71191 57.609493 
" style="fill: none; stroke: #82a931; stroke-width: 1.5; stroke-linecap: round"/>
    </g>
    <g id="text_17">
     <text style="fill: #262626; font: 11px 'Arial', 'DejaVu Sans', 'Liberation Sans', 'Bitstream Vera Sans', sans-serif; text-anchor: start" x="102.51191" y="61.459493" transform="rotate(-0 102.51191 61.459493)">MG/EC/Peric.</text>
    </g>
    <g id="line2d_12">
     <path d="M 71.71191 73.169337 
L 82.71191 73.169337 
L 93.71191 73.169337 
" style="fill: none; stroke: #34af8a; stroke-width: 1.5; stroke-linecap: round"/>
    </g>
    <g id="text_18">
     <text style="fill: #262626; font: 11px 'Arial', 'DejaVu Sans', 'Liberation Sans', 'Bitstream Vera Sans', sans-serif; text-anchor: start" x="102.51191" y="77.019337" transform="rotate(-0 102.51191 77.019337)">RG</text>
    </g>
    <g id="line2d_13">
     <path d="M 71.71191 88.729181 
L 82.71191 88.729181 
L 93.71191 88.729181 
" style="fill: none; stroke: #37aabb; stroke-width: 1.5; stroke-linecap: round"/>
    </g>
    <g id="text_19">
     <text style="fill: #262626; font: 11px 'Arial', 'DejaVu Sans', 'Liberation Sans', 'Bitstream Vera Sans', sans-serif; text-anchor: start" x="102.51191" y="92.579181" transform="rotate(-0 102.51191 92.579181)">SP</text>
    </g>
    <g id="line2d_14">
     <path d="M 71.71191 104.289025 
L 82.71191 104.289025 
L 93.71191 104.289025 
" style="fill: none; stroke: #8197f4; stroke-width: 1.5; stroke-linecap: round"/>
    </g>
    <g id="text_20">
     <text style="fill: #262626; font: 11px 'Arial', 'DejaVu Sans', 'Liberation Sans', 'Bitstream Vera Sans', sans-serif; text-anchor: start" x="102.51191" y="108.139025" transform="rotate(-0 102.51191 108.139025)">mGPC/OPC</text>
    </g>
    <g id="line2d_15">
     <path d="M 71.71191 119.848868 
L 82.71191 119.848868 
L 93.71191 119.848868 
" style="fill: none; stroke: #f45deb; stroke-width: 1.5; stroke-linecap: round"/>
    </g>
    <g id="text_21">
     <text style="fill: #262626; font: 11px 'Arial', 'DejaVu Sans', 'Liberation Sans', 'Bitstream Vera Sans', sans-serif; text-anchor: start" x="102.51191" y="123.698868" transform="rotate(-0 102.51191 123.698868)">nIPC</text>
    </g>
    <g id="line2d_16">
     <path d="M 71.71191 135.408712 
L 82.71191 135.408712 
L 93.71191 135.408712 
" style="fill: none; stroke: #000000; stroke-width: 6; stroke-linecap: round"/>
    </g>
    <g id="text_22">
     <text style="fill: #262626; font: 11px 'Arial', 'DejaVu Sans', 'Liberation Sans', 'Bitstream Vera Sans', sans-serif; text-anchor: start" x="102.51191" y="139.258712" transform="rotate(-0 102.51191 139.258712)">Cumulative</text>
    </g>
   </g>
  </g>
 </g>
 <defs>
  <clipPath id="pd83a79026d">
   <rect x="61.81191" y="12.566212" width="257.67" height="257.67"/>
  </clipPath>
 </defs>
</svg>
