<?xml version="1.0" encoding="utf-8" standalone="no"?>
<!DOCTYPE svg PUBLIC "-//W3C//DTD SVG 1.1//EN"
  "http://www.w3.org/Graphics/SVG/1.1/DTD/svg11.dtd">
<svg xmlns:xlink="http://www.w3.org/1999/xlink" width="374.13pt" height="34.46pt" viewBox="0 0 374.13 34.46" xmlns="http://www.w3.org/2000/svg" version="1.1">
 <metadata>
  <rdf:RDF xmlns:dc="http://purl.org/dc/elements/1.1/" xmlns:cc="http://creativecommons.org/ns#" xmlns:rdf="http://www.w3.org/1999/02/22-rdf-syntax-ns#">
   <cc:Work>
    <dc:type rdf:resource="http://purl.org/dc/dcmitype/StillImage"/>
    <dc:date>2023-09-04T13:34:27.066183</dc:date>
    <dc:format>image/svg+xml</dc:format>
    <dc:creator>
     <cc:Agent>
      <dc:title>Matplotlib v3.7.2, https://matplotlib.org/</dc:title>
     </cc:Agent>
    </dc:creator>
   </cc:Work>
  </rdf:RDF>
 </metadata>
 <defs>
  <style type="text/css">*{stroke-linejoin: round; stroke-linecap: butt}</style>
 </defs>
 <g id="figure_1">
  <g id="patch_1">
   <path d="M 0 34.46 
L 374.13 34.46 
L 374.13 0 
L 0 0 
z
" style="fill: #ffffff"/>
  </g>
  <g id="axes_1">
   <g id="legend_1">
    <g id="line2d_1">
     <path d="M 4.146172 8.44375 
L 15.146172 8.44375 
L 26.146172 8.44375 
" style="fill: none; stroke: #ffffff; stroke-width: 1.5; stroke-linecap: round"/>
     <defs>
      <path id="m92af8a3a90" d="M 0 5 
C 1.326016 5 2.597899 4.473168 3.535534 3.535534 
C 4.473168 2.597899 5 1.326016 5 0 
C 5 -1.326016 4.473168 -2.597899 3.535534 -3.535534 
C 2.597899 -4.473168 1.326016 -5 0 -5 
C -1.326016 -5 -2.597899 -4.473168 -3.535534 -3.535534 
C -4.473168 -2.597899 -5 -1.326016 -5 0 
C -5 1.326016 -4.473168 2.597899 -3.535534 3.535534 
C -2.597899 4.473168 -1.326016 5 0 5 
z
" style="stroke: #ffffff"/>
     </defs>
     <g>
      <use xlink:href="#m92af8a3a90" x="15.146172" y="8.44375" style="fill: #f77189; stroke: #ffffff"/>
     </g>
    </g>
    <g id="text_1">
     <text style="fill: #262626; font: 11px 'Arial', 'DejaVu Sans', 'Liberation Sans', 'Bitstream Vera Sans', sans-serif; text-anchor: start" x="34.946172" y="12.29375" transform="rotate(-0 34.946172 12.29375)">GluN</text>
    </g>
    <g id="line2d_2">
     <path d="M 4.146172 24.003594 
L 15.146172 24.003594 
L 26.146172 24.003594 
" style="fill: none; stroke: #ffffff; stroke-width: 1.5; stroke-linecap: round"/>
     <defs>
      <path id="mc0e0d48577" d="M 0 5 
C 1.326016 5 2.597899 4.473168 3.535534 3.535534 
C 4.473168 2.597899 5 1.326016 5 0 
C 5 -1.326016 4.473168 -2.597899 3.535534 -3.535534 
C 2.597899 -4.473168 1.326016 -5 0 -5 
C -1.326016 -5 -2.597899 -4.473168 -3.535534 -3.535534 
C -4.473168 -2.597899 -5 -1.326016 -5 0 
C -5 1.326016 -4.473168 2.597899 -3.535534 3.535534 
C -2.597899 4.473168 -1.326016 5 0 5 
z
" style="stroke: #ffffff"/>
     </defs>
     <g>
      <use xlink:href="#mc0e0d48577" x="15.146172" y="24.003594" style="fill: #c69432; stroke: #ffffff"/>
     </g>
    </g>
    <g id="text_2">
     <text style="fill: #262626; font: 11px 'Arial', 'DejaVu Sans', 'Liberation Sans', 'Bitstream Vera Sans', sans-serif; text-anchor: start" x="34.946172" y="27.853594" transform="rotate(-0 34.946172 27.853594)">IN</text>
    </g>
    <g id="line2d_3">
     <path d="M 82.007266 8.44375 
L 93.007266 8.44375 
L 104.007266 8.44375 
" style="fill: none; stroke: #ffffff; stroke-width: 1.5; stroke-linecap: round"/>
     <defs>
      <path id="m7811ed90f5" d="M 0 5 
C 1.326016 5 2.597899 4.473168 3.535534 3.535534 
C 4.473168 2.597899 5 1.326016 5 0 
C 5 -1.326016 4.473168 -2.597899 3.535534 -3.535534 
C 2.597899 -4.473168 1.326016 -5 0 -5 
C -1.326016 -5 -2.597899 -4.473168 -3.535534 -3.535534 
C -4.473168 -2.597899 -5 -1.326016 -5 0 
C -5 1.326016 -4.473168 2.597899 -3.535534 3.535534 
C -2.597899 4.473168 -1.326016 5 0 5 
z
" style="stroke: #ffffff"/>
     </defs>
     <g>
      <use xlink:href="#m7811ed90f5" x="93.007266" y="8.44375" style="fill: #82a931; stroke: #ffffff"/>
     </g>
    </g>
    <g id="text_3">
     <text style="fill: #262626; font: 11px 'Arial', 'DejaVu Sans', 'Liberation Sans', 'Bitstream Vera Sans', sans-serif; text-anchor: start" x="112.807266" y="12.29375" transform="rotate(-0 112.807266 12.29375)">MG/EC/Peric.</text>
    </g>
    <g id="line2d_4">
     <path d="M 82.007266 24.003594 
L 93.007266 24.003594 
L 104.007266 24.003594 
" style="fill: none; stroke: #ffffff; stroke-width: 1.5; stroke-linecap: round"/>
     <defs>
      <path id="m4e9f28ed29" d="M 0 5 
C 1.326016 5 2.597899 4.473168 3.535534 3.535534 
C 4.473168 2.597899 5 1.326016 5 0 
C 5 -1.326016 4.473168 -2.597899 3.535534 -3.535534 
C 2.597899 -4.473168 1.326016 -5 0 -5 
C -1.326016 -5 -2.597899 -4.473168 -3.535534 -3.535534 
C -4.473168 -2.597899 -5 -1.326016 -5 0 
C -5 1.326016 -4.473168 2.597899 -3.535534 3.535534 
C -2.597899 4.473168 -1.326016 5 0 5 
z
" style="stroke: #ffffff"/>
     </defs>
     <g>
      <use xlink:href="#m4e9f28ed29" x="93.007266" y="24.003594" style="fill: #34af8a; stroke: #ffffff"/>
     </g>
    </g>
    <g id="text_4">
     <text style="fill: #262626; font: 11px 'Arial', 'DejaVu Sans', 'Liberation Sans', 'Bitstream Vera Sans', sans-serif; text-anchor: start" x="112.807266" y="27.853594" transform="rotate(-0 112.807266 27.853594)">RG</text>
    </g>
    <g id="line2d_5">
     <path d="M 202.036172 8.44375 
L 213.036172 8.44375 
L 224.036172 8.44375 
" style="fill: none; stroke: #ffffff; stroke-width: 1.5; stroke-linecap: round"/>
     <defs>
      <path id="mc3103bc2f3" d="M 0 5 
C 1.326016 5 2.597899 4.473168 3.535534 3.535534 
C 4.473168 2.597899 5 1.326016 5 0 
C 5 -1.326016 4.473168 -2.597899 3.535534 -3.535534 
C 2.597899 -4.473168 1.326016 -5 0 -5 
C -1.326016 -5 -2.597899 -4.473168 -3.535534 -3.535534 
C -4.473168 -2.597899 -5 -1.326016 -5 0 
C -5 1.326016 -4.473168 2.597899 -3.535534 3.535534 
C -2.597899 4.473168 -1.326016 5 0 5 
z
" style="stroke: #ffffff"/>
     </defs>
     <g>
      <use xlink:href="#mc3103bc2f3" x="213.036172" y="8.44375" style="fill: #37aabb; stroke: #ffffff"/>
     </g>
    </g>
    <g id="text_5">
     <text style="fill: #262626; font: 11px 'Arial', 'DejaVu Sans', 'Liberation Sans', 'Bitstream Vera Sans', sans-serif; text-anchor: start" x="232.836172" y="12.29375" transform="rotate(-0 232.836172 12.29375)">SP</text>
    </g>
    <g id="line2d_6">
     <path d="M 202.036172 24.003594 
L 213.036172 24.003594 
L 224.036172 24.003594 
" style="fill: none; stroke: #ffffff; stroke-width: 1.5; stroke-linecap: round"/>
     <defs>
      <path id="mfeee411ffa" d="M 0 5 
C 1.326016 5 2.597899 4.473168 3.535534 3.535534 
C 4.473168 2.597899 5 1.326016 5 0 
C 5 -1.326016 4.473168 -2.597899 3.535534 -3.535534 
C 2.597899 -4.473168 1.326016 -5 0 -5 
C -1.326016 -5 -2.597899 -4.473168 -3.535534 -3.535534 
C -4.473168 -2.597899 -5 -1.326016 -5 0 
C -5 1.326016 -4.473168 2.597899 -3.535534 3.535534 
C -2.597899 4.473168 -1.326016 5 0 5 
z
" style="stroke: #ffffff"/>
     </defs>
     <g>
      <use xlink:href="#mfeee411ffa" x="213.036172" y="24.003594" style="fill: #8197f4; stroke: #ffffff"/>
     </g>
    </g>
    <g id="text_6">
     <text style="fill: #262626; font: 11px 'Arial', 'DejaVu Sans', 'Liberation Sans', 'Bitstream Vera Sans', sans-serif; text-anchor: start" x="232.836172" y="27.853594" transform="rotate(-0 232.836172 27.853594)">mGPC/OPC</text>
    </g>
    <g id="line2d_7">
     <path d="M 314.729453 8.44375 
L 325.729453 8.44375 
L 336.729453 8.44375 
" style="fill: none; stroke: #ffffff; stroke-width: 1.5; stroke-linecap: round"/>
     <defs>
      <path id="m8d240d93c5" d="M 0 5 
C 1.326016 5 2.597899 4.473168 3.535534 3.535534 
C 4.473168 2.597899 5 1.326016 5 0 
C 5 -1.326016 4.473168 -2.597899 3.535534 -3.535534 
C 2.597899 -4.473168 1.326016 -5 0 -5 
C -1.326016 -5 -2.597899 -4.473168 -3.535534 -3.535534 
C -4.473168 -2.597899 -5 -1.326016 -5 0 
C -5 1.326016 -4.473168 2.597899 -3.535534 3.535534 
C -2.597899 4.473168 -1.326016 5 0 5 
z
" style="stroke: #ffffff"/>
     </defs>
     <g>
      <use xlink:href="#m8d240d93c5" x="325.729453" y="8.44375" style="fill: #f45deb; stroke: #ffffff"/>
     </g>
    </g>
    <g id="text_7">
     <text style="fill: #262626; font: 11px 'Arial', 'DejaVu Sans', 'Liberation Sans', 'Bitstream Vera Sans', sans-serif; text-anchor: start" x="345.529453" y="12.29375" transform="rotate(-0 345.529453 12.29375)">nIPC</text>
    </g>
   </g>
  </g>
 </g>
</svg>
