<?xml version="1.0" encoding="utf-8" standalone="no"?>
<!DOCTYPE svg PUBLIC "-//W3C//DTD SVG 1.1//EN"
  "http://www.w3.org/Graphics/SVG/1.1/DTD/svg11.dtd">
<svg height="321.687679pt" version="1.1" viewBox="0 0 337.247468 321.687679" width="337.247468pt" xmlns="http://www.w3.org/2000/svg" xmlns:xlink="http://www.w3.org/1999/xlink">
 <metadata>
  <rdf:RDF xmlns:cc="http://creativecommons.org/ns#" xmlns:dc="http://purl.org/dc/elements/1.1/" xmlns:rdf="http://www.w3.org/1999/02/22-rdf-syntax-ns#">
   <cc:Work>
    <dc:type rdf:resource="http://purl.org/dc/dcmitype/StillImage"/>
    <dc:date>2023-04-27T18:01:59.602691</dc:date>
    <dc:format>image/svg+xml</dc:format>
    <dc:creator>
     <cc:Agent>
      <dc:title>Matplotlib v3.4.3, https://matplotlib.org/</dc:title>
     </cc:Agent>
    </dc:creator>
   </cc:Work>
  </rdf:RDF>
 </metadata>
 <defs>
  <style type="text/css">*{stroke-linecap:butt;stroke-linejoin:round;}</style>
 </defs>
 <g id="figure_1">
  <g id="patch_1">
   <path d="M 0 321.687679 
L 337.247468 321.687679 
L 337.247468 0 
L 0 0 
z
" style="fill:#ffffff;"/>
  </g>
  <g id="axes_1">
   <g id="patch_2">
    <path d="M 65.449896 265.571549 
L 318.124896 265.571549 
L 318.124896 12.896549 
L 65.449896 12.896549 
z
" style="fill:#ffffff;"/>
   </g>
   <g id="matplotlib.axis_1">
    <g id="xtick_1">
     <g id="text_1">
      <text style="fill:#262626;font-family:DejaVu Sans;font-size:14.994px;font-stretch:normal;font-style:normal;font-weight:normal;text-anchor:middle;" transform="rotate(-0, 65.449896, 286.464646)" x="65.449896" y="286.464646">0.0</text>
     </g>
    </g>
    <g id="xtick_2">
     <g id="text_2">
      <text style="fill:#262626;font-family:DejaVu Sans;font-size:14.994px;font-stretch:normal;font-style:normal;font-weight:normal;text-anchor:middle;" transform="rotate(-0, 115.984896, 286.464646)" x="115.984896" y="286.464646">0.2</text>
     </g>
    </g>
    <g id="xtick_3">
     <g id="text_3">
      <text style="fill:#262626;font-family:DejaVu Sans;font-size:14.994px;font-stretch:normal;font-style:normal;font-weight:normal;text-anchor:middle;" transform="rotate(-0, 166.519896, 286.464646)" x="166.519896" y="286.464646">0.4</text>
     </g>
    </g>
    <g id="xtick_4">
     <g id="text_4">
      <text style="fill:#262626;font-family:DejaVu Sans;font-size:14.994px;font-stretch:normal;font-style:normal;font-weight:normal;text-anchor:middle;" transform="rotate(-0, 217.054896, 286.464646)" x="217.054896" y="286.464646">0.6</text>
     </g>
    </g>
    <g id="xtick_5">
     <g id="text_5">
      <text style="fill:#262626;font-family:DejaVu Sans;font-size:14.994px;font-stretch:normal;font-style:normal;font-weight:normal;text-anchor:middle;" transform="rotate(-0, 267.589896, 286.464646)" x="267.589896" y="286.464646">0.8</text>
     </g>
    </g>
    <g id="xtick_6">
     <g id="text_6">
      <text style="fill:#262626;font-family:DejaVu Sans;font-size:14.994px;font-stretch:normal;font-style:normal;font-weight:normal;text-anchor:middle;" transform="rotate(-0, 318.124896, 286.464646)" x="318.124896" y="286.464646">1.0</text>
     </g>
    </g>
    <g id="text_7">
     <text style="fill:#262626;font-family:DejaVu Sans;font-size:21.6px;font-stretch:normal;font-style:normal;font-weight:normal;text-anchor:middle;" transform="rotate(-0, 191.787396, 309.995554)" x="191.787396" y="309.995554">Percentile</text>
    </g>
   </g>
   <g id="matplotlib.axis_2">
    <g id="ytick_1">
     <g id="text_8">
      <text style="fill:#262626;font-family:DejaVu Sans;font-size:14.994px;font-stretch:normal;font-style:normal;font-weight:normal;text-anchor:end;" transform="rotate(-0, 55.949896, 271.268097)" x="55.949896" y="271.268097">0.0</text>
     </g>
    </g>
    <g id="ytick_2">
     <g id="text_9">
      <text style="fill:#262626;font-family:DejaVu Sans;font-size:14.994px;font-stretch:normal;font-style:normal;font-weight:normal;text-anchor:end;" transform="rotate(-0, 55.949896, 220.733097)" x="55.949896" y="220.733097">0.2</text>
     </g>
    </g>
    <g id="ytick_3">
     <g id="text_10">
      <text style="fill:#262626;font-family:DejaVu Sans;font-size:14.994px;font-stretch:normal;font-style:normal;font-weight:normal;text-anchor:end;" transform="rotate(-0, 55.949896, 170.198097)" x="55.949896" y="170.198097">0.4</text>
     </g>
    </g>
    <g id="ytick_4">
     <g id="text_11">
      <text style="fill:#262626;font-family:DejaVu Sans;font-size:14.994px;font-stretch:normal;font-style:normal;font-weight:normal;text-anchor:end;" transform="rotate(-0, 55.949896, 119.663097)" x="55.949896" y="119.663097">0.6</text>
     </g>
    </g>
    <g id="ytick_5">
     <g id="text_12">
      <text style="fill:#262626;font-family:DejaVu Sans;font-size:14.994px;font-stretch:normal;font-style:normal;font-weight:normal;text-anchor:end;" transform="rotate(-0, 55.949896, 69.128097)" x="55.949896" y="69.128097">0.8</text>
     </g>
    </g>
    <g id="ytick_6">
     <g id="text_13">
      <text style="fill:#262626;font-family:DejaVu Sans;font-size:14.994px;font-stretch:normal;font-style:normal;font-weight:normal;text-anchor:end;" transform="rotate(-0, 55.949896, 18.593097)" x="55.949896" y="18.593097">1.0</text>
     </g>
    </g>
    <g id="text_14">
     <text style="fill:#262626;font-family:DejaVu Sans;font-size:21.6px;font-stretch:normal;font-style:normal;font-weight:normal;text-anchor:middle;" transform="rotate(-90, 23.612625, 139.234049)" x="23.612625" y="139.234049">RNA Similarity</text>
    </g>
   </g>
   <g id="line2d_1">
    <path clip-path="url(#pfef6cc85cc)" d="M 65.449896 223.167462 
L 68.002168 219.70749 
L 70.554441 219.261543 
L 73.106714 218.132443 
L 75.658987 216.90432 
L 78.211259 215.764925 
L 80.763532 213.161526 
L 83.315805 212.318127 
L 85.868077 211.781757 
L 88.42035 210.43269 
L 90.972623 210.097734 
L 93.524896 209.05383 
L 96.077168 208.485013 
L 98.629441 206.946198 
L 101.181714 206.386651 
L 103.733987 206.089666 
L 106.286259 205.998966 
L 108.838532 205.607757 
L 111.390805 204.36222 
L 113.943077 204.116678 
L 116.49535 204.065484 
L 119.047623 203.793031 
L 121.599896 202.51764 
L 124.152168 201.872519 
L 126.704441 196.715388 
L 129.256714 195.072546 
L 131.808987 194.938727 
L 134.361259 194.664628 
L 136.913532 194.113793 
L 139.465805 193.952028 
L 142.018077 193.483174 
L 144.57035 189.988894 
L 147.122623 189.97194 
L 149.674896 189.706304 
L 152.227168 189.688138 
L 154.779441 189.363372 
L 157.331714 186.730367 
L 159.883987 185.599071 
L 162.436259 184.628629 
L 164.988532 183.722141 
L 167.540805 183.258604 
L 170.093077 181.360271 
L 172.64535 180.496018 
L 175.197623 178.259246 
L 177.749896 178.15567 
L 180.302168 176.978511 
L 182.854441 174.820413 
L 185.406714 169.630481 
L 187.958987 166.002196 
L 190.511259 165.013629 
L 193.063532 164.042598 
L 195.615805 161.494908 
L 198.168077 161.400045 
L 200.72035 158.782017 
L 203.272623 158.705137 
L 205.824896 157.058155 
L 208.377168 156.847502 
L 210.929441 156.285338 
L 213.481714 156.265204 
L 216.033987 148.502746 
L 218.586259 148.207835 
L 221.138532 147.740623 
L 223.690805 146.703273 
L 226.243077 145.822135 
L 228.79535 143.536585 
L 231.347623 143.523205 
L 233.899896 141.838705 
L 236.452168 140.304666 
L 239.004441 139.35779 
L 241.556714 138.942332 
L 244.108987 138.441651 
L 246.661259 136.424167 
L 249.213532 136.060287 
L 251.765805 135.865808 
L 254.318077 135.293077 
L 256.87035 132.283994 
L 259.422623 132.019288 
L 261.974896 131.375062 
L 264.527168 125.856603 
L 267.079441 122.991593 
L 269.631714 120.273203 
L 272.183987 117.688765 
L 274.736259 117.638176 
L 277.288532 116.665111 
L 279.840805 112.571735 
L 282.393077 107.219792 
L 284.94535 12.896549 
L 287.497623 12.896549 
L 290.049896 12.896549 
L 292.602168 12.896549 
L 295.154441 12.896549 
L 297.706714 12.896549 
L 300.258987 12.896549 
L 302.811259 12.896549 
L 305.363532 12.896549 
L 307.915805 12.896549 
L 310.468077 12.896549 
L 313.02035 12.896549 
L 315.572623 12.896549 
L 318.124896 12.896549 
" style="fill:none;stroke:#f77189;stroke-linecap:round;stroke-width:1.5;"/>
   </g>
   <g id="line2d_2">
    <path clip-path="url(#pfef6cc85cc)" d="M 65.449896 223.262285 
L 68.002168 217.835513 
L 70.554441 217.535031 
L 73.106714 217.341378 
L 75.658987 216.535411 
L 78.211259 213.824941 
L 80.763532 213.135974 
L 83.315805 212.96787 
L 85.868077 212.909764 
L 88.42035 212.724586 
L 90.972623 212.635006 
L 93.524896 212.616757 
L 96.077168 212.467688 
L 98.629441 210.986115 
L 101.181714 208.949918 
L 103.733987 208.94314 
L 106.286259 207.085762 
L 108.838532 206.997135 
L 111.390805 206.418629 
L 113.943077 205.189221 
L 116.49535 204.736734 
L 119.047623 203.690494 
L 121.599896 203.374993 
L 124.152168 201.536582 
L 126.704441 201.094845 
L 129.256714 200.701447 
L 131.808987 199.662569 
L 134.361259 198.771919 
L 136.913532 197.075411 
L 139.465805 196.741257 
L 142.018077 196.4064 
L 144.57035 194.999357 
L 147.122623 193.612561 
L 149.674896 193.425238 
L 152.227168 192.666336 
L 154.779441 191.131744 
L 157.331714 188.354136 
L 159.883987 187.818749 
L 162.436259 187.133974 
L 164.988532 186.525261 
L 167.540805 185.85843 
L 170.093077 181.331822 
L 172.64535 180.995428 
L 175.197623 180.473995 
L 177.749896 179.301348 
L 180.302168 179.283055 
L 182.854441 178.789314 
L 185.406714 176.470008 
L 187.958987 176.459337 
L 190.511259 174.645113 
L 193.063532 172.637285 
L 195.615805 171.448192 
L 198.168077 170.536976 
L 200.72035 169.979608 
L 203.272623 169.156381 
L 205.824896 168.723594 
L 208.377168 168.622854 
L 210.929441 168.345465 
L 213.481714 167.003789 
L 216.033987 166.303313 
L 218.586259 166.245177 
L 221.138532 164.28683 
L 223.690805 161.863871 
L 226.243077 160.505927 
L 228.79535 159.171222 
L 231.347623 158.904939 
L 233.899896 158.835479 
L 236.452168 157.731357 
L 239.004441 157.266434 
L 241.556714 156.935552 
L 244.108987 156.233081 
L 246.661259 155.86205 
L 249.213532 155.810902 
L 251.765805 155.438994 
L 254.318077 154.049169 
L 256.87035 153.004827 
L 259.422623 150.996912 
L 261.974896 150.273492 
L 264.527168 147.706973 
L 267.079441 145.760641 
L 269.631714 145.477535 
L 272.183987 134.73346 
L 274.736259 134.51835 
L 277.288532 121.41961 
L 279.840805 120.672654 
L 282.393077 109.15377 
L 284.94535 12.896549 
L 287.497623 12.896549 
L 290.049896 12.896549 
L 292.602168 12.896549 
L 295.154441 12.896549 
L 297.706714 12.896549 
L 300.258987 12.896549 
L 302.811259 12.896549 
L 305.363532 12.896549 
L 307.915805 12.896549 
L 310.468077 12.896549 
L 313.02035 12.896549 
L 315.572623 12.896549 
L 318.124896 12.896549 
" style="fill:none;stroke:#c69432;stroke-linecap:round;stroke-width:1.5;"/>
   </g>
   <g id="line2d_3">
    <path clip-path="url(#pfef6cc85cc)" d="M 65.449896 223.262285 
L 68.002168 221.659049 
L 70.554441 214.095443 
L 73.106714 211.850898 
L 75.658987 211.200737 
L 78.211259 207.526217 
L 80.763532 204.304948 
L 83.315805 202.86649 
L 85.868077 200.378427 
L 88.42035 198.130963 
L 90.972623 198.00249 
L 93.524896 197.412518 
L 96.077168 194.838078 
L 98.629441 193.482316 
L 101.181714 193.461809 
L 103.733987 190.874948 
L 106.286259 190.093261 
L 108.838532 189.26635 
L 111.390805 186.953289 
L 113.943077 185.891691 
L 116.49535 183.767774 
L 119.047623 182.147294 
L 121.599896 182.017967 
L 124.152168 180.86977 
L 126.704441 179.741501 
L 129.256714 179.414027 
L 131.808987 178.923886 
L 134.361259 173.816954 
L 136.913532 173.368819 
L 139.465805 173.093683 
L 142.018077 171.52374 
L 144.57035 171.493646 
L 147.122623 170.947173 
L 149.674896 170.107849 
L 152.227168 168.928569 
L 154.779441 168.608214 
L 157.331714 161.257074 
L 159.883987 157.930634 
L 162.436259 157.745254 
L 164.988532 157.722162 
L 167.540805 152.51811 
L 170.093077 151.162989 
L 172.64535 148.693413 
L 175.197623 147.510578 
L 177.749896 146.096046 
L 180.302168 145.621857 
L 182.854441 144.464136 
L 185.406714 144.14106 
L 187.958987 143.601492 
L 190.511259 143.299255 
L 193.063532 138.748439 
L 195.615805 138.36829 
L 198.168077 137.148335 
L 200.72035 131.565896 
L 203.272623 129.58107 
L 205.824896 129.322724 
L 208.377168 128.902418 
L 210.929441 127.717676 
L 213.481714 125.503922 
L 216.033987 121.272759 
L 218.586259 113.993942 
L 221.138532 113.993942 
L 223.690805 109.086647 
L 226.243077 107.465029 
L 228.79535 106.408839 
L 231.347623 106.378785 
L 233.899896 103.062941 
L 236.452168 103.049159 
L 239.004441 101.69231 
L 241.556714 99.784808 
L 244.108987 99.758886 
L 246.661259 92.616917 
L 249.213532 88.683925 
L 251.765805 84.517478 
L 254.318077 81.729592 
L 256.87035 72.448945 
L 259.422623 72.031548 
L 261.974896 65.217581 
L 264.527168 61.266866 
L 267.079441 54.87816 
L 269.631714 54.87816 
L 272.183987 54.87816 
L 274.736259 54.876449 
L 277.288532 54.876449 
L 279.840805 37.570274 
L 282.393077 37.570274 
L 284.94535 12.896549 
L 287.497623 12.896549 
L 290.049896 12.896549 
L 292.602168 12.896549 
L 295.154441 12.896549 
L 297.706714 12.896549 
L 300.258987 12.896549 
L 302.811259 12.896549 
L 305.363532 12.896549 
L 307.915805 12.896549 
L 310.468077 12.896549 
L 313.02035 12.896549 
L 315.572623 12.896549 
L 318.124896 12.896549 
" style="fill:none;stroke:#82a931;stroke-linecap:round;stroke-width:1.5;"/>
   </g>
   <g id="line2d_4">
    <path clip-path="url(#pfef6cc85cc)" d="M 65.449896 223.262285 
L 68.002168 216.666533 
L 70.554441 211.522282 
L 73.106714 208.239031 
L 75.658987 207.042921 
L 78.211259 206.055179 
L 80.763532 205.081498 
L 83.315805 197.357818 
L 85.868077 194.628887 
L 88.42035 190.583207 
L 90.972623 188.351659 
L 93.524896 188.318661 
L 96.077168 187.724542 
L 98.629441 183.451624 
L 101.181714 183.312719 
L 103.733987 183.170581 
L 106.286259 180.839636 
L 108.838532 180.333764 
L 111.390805 180.010979 
L 113.943077 178.823166 
L 116.49535 178.504275 
L 119.047623 177.422583 
L 121.599896 177.076033 
L 124.152168 176.839488 
L 126.704441 176.733305 
L 129.256714 175.47306 
L 131.808987 175.341759 
L 134.361259 175.183375 
L 136.913532 174.303454 
L 139.465805 172.46065 
L 142.018077 171.504542 
L 144.57035 171.300667 
L 147.122623 170.670544 
L 149.674896 170.579059 
L 152.227168 170.303387 
L 154.779441 170.256998 
L 157.331714 170.118456 
L 159.883987 169.952326 
L 162.436259 168.431933 
L 164.988532 167.928013 
L 167.540805 167.40404 
L 170.093077 165.502211 
L 172.64535 165.393212 
L 175.197623 164.568442 
L 177.749896 163.76993 
L 180.302168 163.612685 
L 182.854441 162.097127 
L 185.406714 161.885222 
L 187.958987 158.591977 
L 190.511259 158.42619 
L 193.063532 156.586101 
L 195.615805 155.86514 
L 198.168077 155.614276 
L 200.72035 153.379402 
L 203.272623 149.959498 
L 205.824896 149.787716 
L 208.377168 149.532487 
L 210.929441 145.828069 
L 213.481714 144.327798 
L 216.033987 142.407772 
L 218.586259 136.538133 
L 221.138532 134.687848 
L 223.690805 133.962921 
L 226.243077 132.214192 
L 228.79535 130.456617 
L 231.347623 127.85294 
L 233.899896 127.182886 
L 236.452168 127.126396 
L 239.004441 126.784114 
L 241.556714 126.63039 
L 244.108987 124.45215 
L 246.661259 122.834594 
L 249.213532 122.476788 
L 251.765805 117.685506 
L 254.318077 108.753773 
L 256.87035 108.425628 
L 259.422623 107.912863 
L 261.974896 107.69556 
L 264.527168 104.949653 
L 267.079441 104.008903 
L 269.631714 102.859414 
L 272.183987 97.405097 
L 274.736259 90.454954 
L 277.288532 88.915513 
L 279.840805 82.795676 
L 282.393077 82.55889 
L 284.94535 12.896549 
L 287.497623 12.896549 
L 290.049896 12.896549 
L 292.602168 12.896549 
L 295.154441 12.896549 
L 297.706714 12.896549 
L 300.258987 12.896549 
L 302.811259 12.896549 
L 305.363532 12.896549 
L 307.915805 12.896549 
L 310.468077 12.896549 
L 313.02035 12.896549 
L 315.572623 12.896549 
L 318.124896 12.896549 
" style="fill:none;stroke:#34af8a;stroke-linecap:round;stroke-width:1.5;"/>
   </g>
   <g id="line2d_5">
    <path clip-path="url(#pfef6cc85cc)" d="M 65.449896 210.360718 
L 68.002168 210.204049 
L 70.554441 206.855248 
L 73.106714 206.148232 
L 75.658987 200.928801 
L 78.211259 196.78327 
L 80.763532 196.770998 
L 83.315805 195.518599 
L 85.868077 194.548638 
L 88.42035 191.957944 
L 90.972623 189.448444 
L 93.524896 188.243838 
L 96.077168 186.08852 
L 98.629441 184.2319 
L 101.181714 181.99113 
L 103.733987 180.205371 
L 106.286259 174.685654 
L 108.838532 174.325716 
L 111.390805 173.468159 
L 113.943077 172.869583 
L 116.49535 168.680605 
L 119.047623 167.616277 
L 121.599896 166.247663 
L 124.152168 165.680322 
L 126.704441 165.597745 
L 129.256714 163.998209 
L 131.808987 161.955329 
L 134.361259 159.315404 
L 136.913532 159.06991 
L 139.465805 157.750114 
L 142.018077 157.33396 
L 144.57035 156.621067 
L 147.122623 155.584324 
L 149.674896 154.361873 
L 152.227168 154.104584 
L 154.779441 153.906221 
L 157.331714 153.364272 
L 159.883987 152.947627 
L 162.436259 152.274948 
L 164.988532 151.059968 
L 167.540805 148.569984 
L 170.093077 147.752648 
L 172.64535 147.246073 
L 175.197623 146.141778 
L 177.749896 142.677567 
L 180.302168 141.814791 
L 182.854441 139.635625 
L 185.406714 136.742038 
L 187.958987 135.949108 
L 190.511259 134.719243 
L 193.063532 134.247344 
L 195.615805 133.989864 
L 198.168077 133.802164 
L 200.72035 133.330759 
L 203.272623 131.796653 
L 205.824896 131.687797 
L 208.377168 131.369728 
L 210.929441 127.834064 
L 213.481714 127.296681 
L 216.033987 124.113314 
L 218.586259 123.071095 
L 221.138532 122.352009 
L 223.690805 121.76114 
L 226.243077 120.656009 
L 228.79535 120.519558 
L 231.347623 120.498405 
L 233.899896 118.361119 
L 236.452168 116.04473 
L 239.004441 109.545653 
L 241.556714 109.392027 
L 244.108987 108.793559 
L 246.661259 105.043209 
L 249.213532 104.495169 
L 251.765805 104.450567 
L 254.318077 104.009958 
L 256.87035 103.350044 
L 259.422623 97.977231 
L 261.974896 96.961305 
L 264.527168 93.564084 
L 267.079441 91.223295 
L 269.631714 88.728461 
L 272.183987 87.019318 
L 274.736259 86.488588 
L 277.288532 79.233791 
L 279.840805 74.627263 
L 282.393077 53.597796 
L 284.94535 12.896549 
L 287.497623 12.896549 
L 290.049896 12.896549 
L 292.602168 12.896549 
L 295.154441 12.896549 
L 297.706714 12.896549 
L 300.258987 12.896549 
L 302.811259 12.896549 
L 305.363532 12.896549 
L 307.915805 12.896549 
L 310.468077 12.896549 
L 313.02035 12.896549 
L 315.572623 12.896549 
L 318.124896 12.896549 
" style="fill:none;stroke:#37aabb;stroke-linecap:round;stroke-width:1.5;"/>
   </g>
   <g id="line2d_6">
    <path clip-path="url(#pfef6cc85cc)" d="M 65.449896 220.76567 
L 68.002168 214.552097 
L 70.554441 208.02137 
L 73.106714 207.753314 
L 75.658987 205.821611 
L 78.211259 205.225017 
L 80.763532 203.537896 
L 83.315805 198.808869 
L 85.868077 197.731054 
L 88.42035 192.275225 
L 90.972623 190.085004 
L 93.524896 189.830259 
L 96.077168 183.344309 
L 98.629441 179.692296 
L 101.181714 178.556131 
L 103.733987 178.387999 
L 106.286259 177.137549 
L 108.838532 175.761805 
L 111.390805 175.036955 
L 113.943077 169.531599 
L 116.49535 169.197376 
L 119.047623 167.625804 
L 121.599896 164.370356 
L 124.152168 164.213705 
L 126.704441 164.114117 
L 129.256714 160.708017 
L 131.808987 158.587663 
L 134.361259 157.389698 
L 136.913532 155.023042 
L 139.465805 154.598822 
L 142.018077 154.522389 
L 144.57035 152.001462 
L 147.122623 149.684075 
L 149.674896 149.054348 
L 152.227168 147.658869 
L 154.779441 147.44732 
L 157.331714 144.483504 
L 159.883987 139.64606 
L 162.436259 139.294573 
L 164.988532 138.838006 
L 167.540805 137.757118 
L 170.093077 136.214453 
L 172.64535 135.804599 
L 175.197623 134.136182 
L 177.749896 132.850512 
L 180.302168 130.960556 
L 182.854441 130.54209 
L 185.406714 128.736707 
L 187.958987 128.622307 
L 190.511259 123.698502 
L 193.063532 123.545227 
L 195.615805 120.514205 
L 198.168077 120.308518 
L 200.72035 119.703736 
L 203.272623 119.43553 
L 205.824896 119.292184 
L 208.377168 116.821861 
L 210.929441 113.727236 
L 213.481714 108.742909 
L 216.033987 106.830632 
L 218.586259 105.688391 
L 221.138532 104.049746 
L 223.690805 103.22898 
L 226.243077 102.715713 
L 228.79535 102.451283 
L 231.347623 95.716472 
L 233.899896 95.489448 
L 236.452168 94.426785 
L 239.004441 92.323947 
L 241.556714 89.425646 
L 244.108987 88.375063 
L 246.661259 86.537225 
L 249.213532 86.219081 
L 251.765805 84.705747 
L 254.318077 81.71618 
L 256.87035 81.278104 
L 259.422623 80.662538 
L 261.974896 77.891382 
L 264.527168 77.808442 
L 267.079441 70.92967 
L 269.631714 67.259947 
L 272.183987 64.454386 
L 274.736259 62.162645 
L 277.288532 50.147814 
L 279.840805 47.506977 
L 282.393077 39.834673 
L 284.94535 12.896549 
L 287.497623 12.896549 
L 290.049896 12.896549 
L 292.602168 12.896549 
L 295.154441 12.896549 
L 297.706714 12.896549 
L 300.258987 12.896549 
L 302.811259 12.896549 
L 305.363532 12.896549 
L 307.915805 12.896549 
L 310.468077 12.896549 
L 313.02035 12.896549 
L 315.572623 12.896549 
L 318.124896 12.896549 
" style="fill:none;stroke:#8197f4;stroke-linecap:round;stroke-width:1.5;"/>
   </g>
   <g id="line2d_7">
    <path clip-path="url(#pfef6cc85cc)" d="M 65.449896 223.262285 
L 68.002168 217.015397 
L 70.554441 215.013984 
L 73.106714 214.176831 
L 75.658987 213.550725 
L 78.211259 210.950782 
L 80.763532 208.467303 
L 83.315805 205.263812 
L 85.868077 202.956216 
L 88.42035 201.804528 
L 90.972623 196.378956 
L 93.524896 191.545174 
L 96.077168 191.450463 
L 98.629441 190.019699 
L 101.181714 187.93454 
L 103.733987 186.464698 
L 106.286259 186.285851 
L 108.838532 185.866349 
L 111.390805 185.357427 
L 113.943077 185.332024 
L 116.49535 185.077189 
L 119.047623 184.464969 
L 121.599896 183.610199 
L 124.152168 183.553734 
L 126.704441 183.544075 
L 129.256714 183.220684 
L 131.808987 182.160339 
L 134.361259 181.958724 
L 136.913532 179.72 
L 139.465805 177.826043 
L 142.018077 177.033716 
L 144.57035 176.746 
L 147.122623 175.920658 
L 149.674896 173.521457 
L 152.227168 172.012024 
L 154.779441 170.016062 
L 157.331714 163.435811 
L 159.883987 163.17566 
L 162.436259 161.565516 
L 164.988532 159.134626 
L 167.540805 158.932183 
L 170.093077 158.721202 
L 172.64535 158.334198 
L 175.197623 157.250664 
L 177.749896 143.353203 
L 180.302168 140.128853 
L 182.854441 139.925657 
L 185.406714 137.51938 
L 187.958987 136.6848 
L 190.511259 136.290008 
L 193.063532 135.611099 
L 195.615805 134.619064 
L 198.168077 134.293545 
L 200.72035 133.886724 
L 203.272623 133.83338 
L 205.824896 132.575361 
L 208.377168 132.433045 
L 210.929441 132.316817 
L 213.481714 130.896591 
L 216.033987 129.686321 
L 218.586259 128.655997 
L 221.138532 126.359498 
L 223.690805 126.232999 
L 226.243077 125.973184 
L 228.79535 125.097299 
L 231.347623 125.038044 
L 233.899896 124.834475 
L 236.452168 122.683096 
L 239.004441 120.580826 
L 241.556714 119.47638 
L 244.108987 119.253864 
L 246.661259 112.138995 
L 249.213532 111.096289 
L 251.765805 110.88697 
L 254.318077 110.377759 
L 256.87035 109.016824 
L 259.422623 106.317339 
L 261.974896 99.858238 
L 264.527168 97.863157 
L 267.079441 94.29012 
L 269.631714 94.187154 
L 272.183987 90.034664 
L 274.736259 85.028488 
L 277.288532 82.082582 
L 279.840805 79.399024 
L 282.393077 70.44035 
L 284.94535 12.896549 
L 287.497623 12.896549 
L 290.049896 12.896549 
L 292.602168 12.896549 
L 295.154441 12.896549 
L 297.706714 12.896549 
L 300.258987 12.896549 
L 302.811259 12.896549 
L 305.363532 12.896549 
L 307.915805 12.896549 
L 310.468077 12.896549 
L 313.02035 12.896549 
L 315.572623 12.896549 
L 318.124896 12.896549 
" style="fill:none;stroke:#f45deb;stroke-linecap:round;stroke-width:1.5;"/>
   </g>
   <g id="line2d_8">
    <path clip-path="url(#pfef6cc85cc)" d="M 65.449896 199.925049 
L 68.002168 188.701167 
L 70.554441 184.194063 
L 73.106714 182.160044 
L 75.658987 180.940624 
L 78.211259 180.378529 
L 80.763532 179.633276 
L 83.315805 178.807383 
L 85.868077 178.217804 
L 88.42035 177.625917 
L 90.972623 177.611862 
L 93.524896 176.935898 
L 96.077168 175.588579 
L 98.629441 174.841478 
L 101.181714 172.947781 
L 103.733987 172.306344 
L 106.286259 172.040788 
L 108.838532 171.607146 
L 111.390805 171.278747 
L 113.943077 171.078618 
L 116.49535 170.988196 
L 119.047623 169.607128 
L 121.599896 169.180287 
L 124.152168 168.487063 
L 126.704441 167.525387 
L 129.256714 167.096888 
L 131.808987 166.720327 
L 134.361259 166.648057 
L 136.913532 165.169166 
L 139.465805 164.705182 
L 142.018077 163.445941 
L 144.57035 163.352948 
L 147.122623 162.144102 
L 149.674896 161.720017 
L 152.227168 161.671665 
L 154.779441 160.302304 
L 157.331714 160.200692 
L 159.883987 160.050454 
L 162.436259 159.986324 
L 164.988532 159.876375 
L 167.540805 159.136365 
L 170.093077 158.970434 
L 172.64535 158.82075 
L 175.197623 158.577605 
L 177.749896 158.55735 
L 180.302168 158.491201 
L 182.854441 158.416146 
L 185.406714 158.339161 
L 187.958987 156.930525 
L 190.511259 156.722905 
L 193.063532 156.060494 
L 195.615805 155.575323 
L 198.168077 155.51505 
L 200.72035 154.916011 
L 203.272623 154.324129 
L 205.824896 153.593298 
L 208.377168 151.849703 
L 210.929441 151.362999 
L 213.481714 149.177433 
L 216.033987 148.915514 
L 218.586259 146.091737 
L 221.138532 145.299067 
L 223.690805 145.292022 
L 226.243077 144.826876 
L 228.79535 143.907518 
L 231.347623 141.099362 
L 233.899896 140.761476 
L 236.452168 139.504157 
L 239.004441 138.717911 
L 241.556714 137.023747 
L 244.108987 134.206493 
L 246.661259 133.273181 
L 249.213532 132.418679 
L 251.765805 127.052006 
L 254.318077 126.534629 
L 256.87035 125.939866 
L 259.422623 125.47502 
L 261.974896 124.758273 
L 264.527168 123.739023 
L 267.079441 118.043919 
L 269.631714 116.416097 
L 272.183987 116.064806 
L 274.736259 115.975624 
L 277.288532 111.643537 
L 279.840805 104.971388 
L 282.393077 104.1711 
L 284.94535 12.896549 
L 287.497623 12.896549 
L 290.049896 12.896549 
L 292.602168 12.896549 
L 295.154441 12.896549 
L 297.706714 12.896549 
L 300.258987 12.896549 
L 302.811259 12.896549 
L 305.363532 12.896549 
L 307.915805 12.896549 
L 310.468077 12.896549 
L 313.02035 12.896549 
L 315.572623 12.896549 
L 318.124896 12.896549 
" style="fill:none;stroke:#000000;stroke-linecap:round;stroke-width:6;"/>
   </g>
   <g id="patch_3">
    <path d="M 65.449896 265.571549 
L 65.449896 12.896549 
" style="fill:none;stroke:#262626;stroke-linecap:square;stroke-linejoin:miter;stroke-width:1.25;"/>
   </g>
   <g id="patch_4">
    <path d="M 65.449896 265.571549 
L 318.124896 265.571549 
" style="fill:none;stroke:#262626;stroke-linecap:square;stroke-linejoin:miter;stroke-width:1.25;"/>
   </g>
   <g id="legend_1">
    <g id="patch_5">
     <path d="M 73.149896 150.864049 
L 178.531614 150.864049 
Q 180.731614 150.864049 180.731614 148.664049 
L 180.731614 20.596549 
Q 180.731614 18.396549 178.531614 18.396549 
L 73.149896 18.396549 
Q 70.949896 18.396549 70.949896 20.596549 
L 70.949896 148.664049 
Q 70.949896 150.864049 73.149896 150.864049 
z
" style="fill:#ffffff;opacity:0.8;stroke:#cccccc;stroke-linejoin:miter;"/>
    </g>
    <g id="line2d_9">
     <path d="M 75.349896 27.30483 
L 97.349896 27.30483 
" style="fill:none;stroke:#f77189;stroke-linecap:round;stroke-width:1.5;"/>
    </g>
    <g id="line2d_10"/>
    <g id="text_15">
     <text style="fill:#262626;font-family:DejaVu Sans;font-size:11px;font-stretch:normal;font-style:normal;font-weight:normal;text-anchor:start;" transform="rotate(-0, 106.149896, 31.15483)" x="106.149896" y="31.15483">GluN</text>
    </g>
    <g id="line2d_11">
     <path d="M 75.349896 43.450767 
L 97.349896 43.450767 
" style="fill:none;stroke:#c69432;stroke-linecap:round;stroke-width:1.5;"/>
    </g>
    <g id="line2d_12"/>
    <g id="text_16">
     <text style="fill:#262626;font-family:DejaVu Sans;font-size:11px;font-stretch:normal;font-style:normal;font-weight:normal;text-anchor:start;" transform="rotate(-0, 106.149896, 47.300767)" x="106.149896" y="47.300767">IN</text>
    </g>
    <g id="line2d_13">
     <path d="M 75.349896 59.596705 
L 97.349896 59.596705 
" style="fill:none;stroke:#82a931;stroke-linecap:round;stroke-width:1.5;"/>
    </g>
    <g id="line2d_14"/>
    <g id="text_17">
     <text style="fill:#262626;font-family:DejaVu Sans;font-size:11px;font-stretch:normal;font-style:normal;font-weight:normal;text-anchor:start;" transform="rotate(-0, 106.149896, 63.446705)" x="106.149896" y="63.446705">MG/EC/Peric.</text>
    </g>
    <g id="line2d_15">
     <path d="M 75.349896 75.742642 
L 97.349896 75.742642 
" style="fill:none;stroke:#34af8a;stroke-linecap:round;stroke-width:1.5;"/>
    </g>
    <g id="line2d_16"/>
    <g id="text_18">
     <text style="fill:#262626;font-family:DejaVu Sans;font-size:11px;font-stretch:normal;font-style:normal;font-weight:normal;text-anchor:start;" transform="rotate(-0, 106.149896, 79.592642)" x="106.149896" y="79.592642">RG</text>
    </g>
    <g id="line2d_17">
     <path d="M 75.349896 91.88858 
L 97.349896 91.88858 
" style="fill:none;stroke:#37aabb;stroke-linecap:round;stroke-width:1.5;"/>
    </g>
    <g id="line2d_18"/>
    <g id="text_19">
     <text style="fill:#262626;font-family:DejaVu Sans;font-size:11px;font-stretch:normal;font-style:normal;font-weight:normal;text-anchor:start;" transform="rotate(-0, 106.149896, 95.73858)" x="106.149896" y="95.73858">SP</text>
    </g>
    <g id="line2d_19">
     <path d="M 75.349896 108.034517 
L 97.349896 108.034517 
" style="fill:none;stroke:#8197f4;stroke-linecap:round;stroke-width:1.5;"/>
    </g>
    <g id="line2d_20"/>
    <g id="text_20">
     <text style="fill:#262626;font-family:DejaVu Sans;font-size:11px;font-stretch:normal;font-style:normal;font-weight:normal;text-anchor:start;" transform="rotate(-0, 106.149896, 111.884517)" x="106.149896" y="111.884517">mGPC/OPC</text>
    </g>
    <g id="line2d_21">
     <path d="M 75.349896 124.180455 
L 97.349896 124.180455 
" style="fill:none;stroke:#f45deb;stroke-linecap:round;stroke-width:1.5;"/>
    </g>
    <g id="line2d_22"/>
    <g id="text_21">
     <text style="fill:#262626;font-family:DejaVu Sans;font-size:11px;font-stretch:normal;font-style:normal;font-weight:normal;text-anchor:start;" transform="rotate(-0, 106.149896, 128.030455)" x="106.149896" y="128.030455">nIPC</text>
    </g>
    <g id="line2d_23">
     <path d="M 75.349896 140.326392 
L 97.349896 140.326392 
" style="fill:none;stroke:#000000;stroke-linecap:round;stroke-width:6;"/>
    </g>
    <g id="line2d_24"/>
    <g id="text_22">
     <text style="fill:#262626;font-family:DejaVu Sans;font-size:11px;font-stretch:normal;font-style:normal;font-weight:normal;text-anchor:start;" transform="rotate(-0, 106.149896, 144.176392)" x="106.149896" y="144.176392">Cumulative</text>
    </g>
   </g>
  </g>
 </g>
 <defs>
  <clipPath id="pfef6cc85cc">
   <rect height="252.675" width="252.675" x="65.449896" y="12.896549"/>
  </clipPath>
 </defs>
</svg>
