<?xml version="1.0" encoding="utf-8" standalone="no"?>
<!DOCTYPE svg PUBLIC "-//W3C//DTD SVG 1.1//EN"
  "http://www.w3.org/Graphics/SVG/1.1/DTD/svg11.dtd">
<svg height="321.687679pt" version="1.1" viewBox="0 0 337.247468 321.687679" width="337.247468pt" xmlns="http://www.w3.org/2000/svg" xmlns:xlink="http://www.w3.org/1999/xlink">
 <metadata>
  <rdf:RDF xmlns:cc="http://creativecommons.org/ns#" xmlns:dc="http://purl.org/dc/elements/1.1/" xmlns:rdf="http://www.w3.org/1999/02/22-rdf-syntax-ns#">
   <cc:Work>
    <dc:type rdf:resource="http://purl.org/dc/dcmitype/StillImage"/>
    <dc:date>2023-04-27T18:02:51.874902</dc:date>
    <dc:format>image/svg+xml</dc:format>
    <dc:creator>
     <cc:Agent>
      <dc:title>Matplotlib v3.4.3, https://matplotlib.org/</dc:title>
     </cc:Agent>
    </dc:creator>
   </cc:Work>
  </rdf:RDF>
 </metadata>
 <defs>
  <style type="text/css">*{stroke-linecap:butt;stroke-linejoin:round;}</style>
 </defs>
 <g id="figure_1">
  <g id="patch_1">
   <path d="M 0 321.687679 
L 337.247468 321.687679 
L 337.247468 0 
L 0 0 
z
" style="fill:#ffffff;"/>
  </g>
  <g id="axes_1">
   <g id="patch_2">
    <path d="M 65.449896 265.571549 
L 318.124896 265.571549 
L 318.124896 12.896549 
L 65.449896 12.896549 
z
" style="fill:#ffffff;"/>
   </g>
   <g id="matplotlib.axis_1">
    <g id="xtick_1">
     <g id="text_1">
      <text style="fill:#262626;font-family:DejaVu Sans;font-size:14.994px;font-stretch:normal;font-style:normal;font-weight:normal;text-anchor:middle;" transform="rotate(-0, 65.449896, 286.464646)" x="65.449896" y="286.464646">0.0</text>
     </g>
    </g>
    <g id="xtick_2">
     <g id="text_2">
      <text style="fill:#262626;font-family:DejaVu Sans;font-size:14.994px;font-stretch:normal;font-style:normal;font-weight:normal;text-anchor:middle;" transform="rotate(-0, 115.984896, 286.464646)" x="115.984896" y="286.464646">0.2</text>
     </g>
    </g>
    <g id="xtick_3">
     <g id="text_3">
      <text style="fill:#262626;font-family:DejaVu Sans;font-size:14.994px;font-stretch:normal;font-style:normal;font-weight:normal;text-anchor:middle;" transform="rotate(-0, 166.519896, 286.464646)" x="166.519896" y="286.464646">0.4</text>
     </g>
    </g>
    <g id="xtick_4">
     <g id="text_4">
      <text style="fill:#262626;font-family:DejaVu Sans;font-size:14.994px;font-stretch:normal;font-style:normal;font-weight:normal;text-anchor:middle;" transform="rotate(-0, 217.054896, 286.464646)" x="217.054896" y="286.464646">0.6</text>
     </g>
    </g>
    <g id="xtick_5">
     <g id="text_5">
      <text style="fill:#262626;font-family:DejaVu Sans;font-size:14.994px;font-stretch:normal;font-style:normal;font-weight:normal;text-anchor:middle;" transform="rotate(-0, 267.589896, 286.464646)" x="267.589896" y="286.464646">0.8</text>
     </g>
    </g>
    <g id="xtick_6">
     <g id="text_6">
      <text style="fill:#262626;font-family:DejaVu Sans;font-size:14.994px;font-stretch:normal;font-style:normal;font-weight:normal;text-anchor:middle;" transform="rotate(-0, 318.124896, 286.464646)" x="318.124896" y="286.464646">1.0</text>
     </g>
    </g>
    <g id="text_7">
     <text style="fill:#262626;font-family:DejaVu Sans;font-size:21.6px;font-stretch:normal;font-style:normal;font-weight:normal;text-anchor:middle;" transform="rotate(-0, 191.787396, 309.995554)" x="191.787396" y="309.995554">Percentile</text>
    </g>
   </g>
   <g id="matplotlib.axis_2">
    <g id="ytick_1">
     <g id="text_8">
      <text style="fill:#262626;font-family:DejaVu Sans;font-size:14.994px;font-stretch:normal;font-style:normal;font-weight:normal;text-anchor:end;" transform="rotate(-0, 55.949896, 271.268097)" x="55.949896" y="271.268097">0.0</text>
     </g>
    </g>
    <g id="ytick_2">
     <g id="text_9">
      <text style="fill:#262626;font-family:DejaVu Sans;font-size:14.994px;font-stretch:normal;font-style:normal;font-weight:normal;text-anchor:end;" transform="rotate(-0, 55.949896, 220.733097)" x="55.949896" y="220.733097">0.2</text>
     </g>
    </g>
    <g id="ytick_3">
     <g id="text_10">
      <text style="fill:#262626;font-family:DejaVu Sans;font-size:14.994px;font-stretch:normal;font-style:normal;font-weight:normal;text-anchor:end;" transform="rotate(-0, 55.949896, 170.198097)" x="55.949896" y="170.198097">0.4</text>
     </g>
    </g>
    <g id="ytick_4">
     <g id="text_11">
      <text style="fill:#262626;font-family:DejaVu Sans;font-size:14.994px;font-stretch:normal;font-style:normal;font-weight:normal;text-anchor:end;" transform="rotate(-0, 55.949896, 119.663097)" x="55.949896" y="119.663097">0.6</text>
     </g>
    </g>
    <g id="ytick_5">
     <g id="text_12">
      <text style="fill:#262626;font-family:DejaVu Sans;font-size:14.994px;font-stretch:normal;font-style:normal;font-weight:normal;text-anchor:end;" transform="rotate(-0, 55.949896, 69.128097)" x="55.949896" y="69.128097">0.8</text>
     </g>
    </g>
    <g id="ytick_6">
     <g id="text_13">
      <text style="fill:#262626;font-family:DejaVu Sans;font-size:14.994px;font-stretch:normal;font-style:normal;font-weight:normal;text-anchor:end;" transform="rotate(-0, 55.949896, 18.593097)" x="55.949896" y="18.593097">1.0</text>
     </g>
    </g>
    <g id="text_14">
     <text style="fill:#262626;font-family:DejaVu Sans;font-size:21.6px;font-stretch:normal;font-style:normal;font-weight:normal;text-anchor:middle;" transform="rotate(-90, 23.612625, 139.234049)" x="23.612625" y="139.234049">ATAC Similarity</text>
    </g>
   </g>
   <g id="line2d_1">
    <path clip-path="url(#p4e4e77ca85)" d="M 65.449896 216.586267 
L 68.002168 216.042473 
L 70.554441 213.350976 
L 73.106714 212.130399 
L 75.658987 211.754815 
L 78.211259 211.562327 
L 80.763532 211.45028 
L 83.315805 211.258175 
L 85.868077 211.232827 
L 88.42035 211.145029 
L 90.972623 210.629242 
L 93.524896 209.208186 
L 96.077168 209.152184 
L 98.629441 207.722574 
L 101.181714 207.525868 
L 103.733987 207.352617 
L 106.286259 207.141096 
L 108.838532 206.979813 
L 111.390805 206.510678 
L 113.943077 206.481002 
L 116.49535 206.427092 
L 119.047623 206.356645 
L 121.599896 205.932714 
L 124.152168 205.72286 
L 126.704441 205.599448 
L 129.256714 205.460069 
L 131.808987 205.347766 
L 134.361259 204.666809 
L 136.913532 204.434876 
L 139.465805 204.36408 
L 142.018077 204.144618 
L 144.57035 203.343035 
L 147.122623 203.341619 
L 149.674896 202.992325 
L 152.227168 202.71558 
L 154.779441 202.560886 
L 157.331714 202.276362 
L 159.883987 202.121566 
L 162.436259 201.768405 
L 164.988532 201.759689 
L 167.540805 201.752798 
L 170.093077 201.144854 
L 172.64535 200.994313 
L 175.197623 200.787538 
L 177.749896 200.56144 
L 180.302168 200.542177 
L 182.854441 199.68891 
L 185.406714 199.394965 
L 187.958987 199.037158 
L 190.511259 198.987786 
L 193.063532 198.560171 
L 195.615805 197.96093 
L 198.168077 197.590064 
L 200.72035 197.197278 
L 203.272623 196.453953 
L 205.824896 195.064295 
L 208.377168 194.356149 
L 210.929441 194.108146 
L 213.481714 194.054762 
L 216.033987 193.954861 
L 218.586259 191.120479 
L 221.138532 190.692099 
L 223.690805 190.099152 
L 226.243077 189.74745 
L 228.79535 189.743429 
L 231.347623 189.527009 
L 233.899896 188.899775 
L 236.452168 188.749109 
L 239.004441 188.423748 
L 241.556714 188.289821 
L 244.108987 187.713796 
L 246.661259 186.594562 
L 249.213532 186.345867 
L 251.765805 185.590977 
L 254.318077 183.570866 
L 256.87035 183.439543 
L 259.422623 180.826985 
L 261.974896 180.061126 
L 264.527168 179.957809 
L 267.079441 179.173067 
L 269.631714 178.026287 
L 272.183987 177.915034 
L 274.736259 177.838363 
L 277.288532 177.315492 
L 279.840805 177.215438 
L 282.393077 176.991901 
L 284.94535 176.477169 
L 287.497623 176.183122 
L 290.049896 176.121863 
L 292.602168 175.38202 
L 295.154441 173.167312 
L 297.706714 169.838237 
L 300.258987 162.30594 
L 302.811259 152.261247 
L 305.363532 147.527244 
L 307.915805 134.260024 
L 310.468077 12.896549 
L 313.02035 12.896549 
L 315.572623 12.896549 
L 318.124896 12.896549 
" style="fill:none;stroke:#f77189;stroke-linecap:round;stroke-width:1.5;"/>
   </g>
   <g id="line2d_2">
    <path clip-path="url(#p4e4e77ca85)" d="M 65.449896 218.628445 
L 68.002168 217.340141 
L 70.554441 215.740164 
L 73.106714 214.854244 
L 75.658987 214.239962 
L 78.211259 212.829073 
L 80.763532 212.804485 
L 83.315805 212.574441 
L 85.868077 212.495117 
L 88.42035 211.933044 
L 90.972623 211.772177 
L 93.524896 210.979302 
L 96.077168 209.87266 
L 98.629441 209.604409 
L 101.181714 209.593048 
L 103.733987 209.037436 
L 106.286259 208.855074 
L 108.838532 208.699207 
L 111.390805 207.476071 
L 113.943077 207.247773 
L 116.49535 206.496832 
L 119.047623 206.464718 
L 121.599896 205.935415 
L 124.152168 205.808468 
L 126.704441 205.54988 
L 129.256714 205.539936 
L 131.808987 205.303748 
L 134.361259 205.243974 
L 136.913532 205.11797 
L 139.465805 204.838858 
L 142.018077 204.826948 
L 144.57035 204.677001 
L 147.122623 204.622738 
L 149.674896 204.590058 
L 152.227168 204.334735 
L 154.779441 204.11906 
L 157.331714 203.993437 
L 159.883987 203.220622 
L 162.436259 203.12443 
L 164.988532 202.955713 
L 167.540805 202.59993 
L 170.093077 202.394992 
L 172.64535 201.967927 
L 175.197623 201.958416 
L 177.749896 201.734721 
L 180.302168 201.097393 
L 182.854441 201.00676 
L 185.406714 200.804109 
L 187.958987 200.742899 
L 190.511259 200.441095 
L 193.063532 200.312894 
L 195.615805 200.251919 
L 198.168077 199.377737 
L 200.72035 199.333261 
L 203.272623 199.132336 
L 205.824896 199.045799 
L 208.377168 198.947674 
L 210.929441 198.925942 
L 213.481714 198.45569 
L 216.033987 198.005159 
L 218.586259 197.485583 
L 221.138532 195.749867 
L 223.690805 195.619602 
L 226.243077 195.286058 
L 228.79535 195.179779 
L 231.347623 194.771494 
L 233.899896 194.597719 
L 236.452168 193.924069 
L 239.004441 193.841759 
L 241.556714 193.094223 
L 244.108987 191.935652 
L 246.661259 191.932212 
L 249.213532 190.58628 
L 251.765805 190.194352 
L 254.318077 189.950222 
L 256.87035 189.606407 
L 259.422623 189.186087 
L 261.974896 187.970576 
L 264.527168 186.997512 
L 267.079441 186.940101 
L 269.631714 186.066549 
L 272.183987 186.045797 
L 274.736259 184.661055 
L 277.288532 184.376325 
L 279.840805 183.95815 
L 282.393077 181.731133 
L 284.94535 180.349298 
L 287.497623 179.569153 
L 290.049896 179.243061 
L 292.602168 177.937714 
L 295.154441 173.970685 
L 297.706714 168.522913 
L 300.258987 164.628583 
L 302.811259 156.894139 
L 305.363532 156.760526 
L 307.915805 147.765937 
L 310.468077 12.896549 
L 313.02035 12.896549 
L 315.572623 12.896549 
L 318.124896 12.896549 
" style="fill:none;stroke:#c69432;stroke-linecap:round;stroke-width:1.5;"/>
   </g>
   <g id="line2d_3">
    <path clip-path="url(#p4e4e77ca85)" d="M 65.449896 223.262285 
L 68.002168 223.262285 
L 70.554441 223.262285 
L 73.106714 223.262285 
L 75.658987 223.262285 
L 78.211259 223.262285 
L 80.763532 223.262285 
L 83.315805 223.262285 
L 85.868077 223.262285 
L 88.42035 223.262285 
L 90.972623 223.262285 
L 93.524896 223.262285 
L 96.077168 222.760632 
L 98.629441 220.806502 
L 101.181714 220.618168 
L 103.733987 219.970461 
L 106.286259 218.869643 
L 108.838532 218.166846 
L 111.390805 218.042079 
L 113.943077 217.741338 
L 116.49535 217.537417 
L 119.047623 217.035007 
L 121.599896 216.523011 
L 124.152168 215.642164 
L 126.704441 215.506119 
L 129.256714 215.506119 
L 131.808987 215.506119 
L 134.361259 215.330473 
L 136.913532 214.162524 
L 139.465805 214.156272 
L 142.018077 213.839883 
L 144.57035 213.486466 
L 147.122623 213.29049 
L 149.674896 213.135758 
L 152.227168 212.983368 
L 154.779441 212.826569 
L 157.331714 212.188939 
L 159.883987 212.029363 
L 162.436259 211.608886 
L 164.988532 211.199378 
L 167.540805 211.193534 
L 170.093077 211.066035 
L 172.64535 211.038491 
L 175.197623 210.882991 
L 177.749896 210.032704 
L 180.302168 209.882808 
L 182.854441 209.443442 
L 185.406714 209.075902 
L 187.958987 209.020088 
L 190.511259 208.846068 
L 193.063532 208.078649 
L 195.615805 207.125243 
L 198.168077 206.835535 
L 200.72035 206.70595 
L 203.272623 206.423217 
L 205.824896 205.86606 
L 208.377168 205.095766 
L 210.929441 204.48593 
L 213.481714 203.552483 
L 216.033987 203.166095 
L 218.586259 202.533446 
L 221.138532 202.458247 
L 223.690805 202.193399 
L 226.243077 201.896576 
L 228.79535 201.664858 
L 231.347623 200.972538 
L 233.899896 200.876619 
L 236.452168 199.615615 
L 239.004441 198.162165 
L 241.556714 197.435082 
L 244.108987 197.253271 
L 246.661259 196.706092 
L 249.213532 196.110228 
L 251.765805 194.935791 
L 254.318077 191.484615 
L 256.87035 188.157186 
L 259.422623 187.772088 
L 261.974896 187.567324 
L 264.527168 186.880447 
L 267.079441 185.567311 
L 269.631714 185.53609 
L 272.183987 180.839617 
L 274.736259 178.391663 
L 277.288532 173.357284 
L 279.840805 168.1268 
L 282.393077 166.96084 
L 284.94535 158.988906 
L 287.497623 145.605553 
L 290.049896 145.212241 
L 292.602168 144.168394 
L 295.154441 141.650529 
L 297.706714 116.473943 
L 300.258987 103.062941 
L 302.811259 92.857323 
L 305.363532 37.570274 
L 307.915805 37.570274 
L 310.468077 12.896549 
L 313.02035 12.896549 
L 315.572623 12.896549 
L 318.124896 12.896549 
" style="fill:none;stroke:#82a931;stroke-linecap:round;stroke-width:1.5;"/>
   </g>
   <g id="line2d_4">
    <path clip-path="url(#p4e4e77ca85)" d="M 65.449896 223.262285 
L 68.002168 220.99461 
L 70.554441 219.101129 
L 73.106714 218.407467 
L 75.658987 218.157826 
L 78.211259 217.796095 
L 80.763532 217.516701 
L 83.315805 217.037802 
L 85.868077 216.108559 
L 88.42035 216.079115 
L 90.972623 215.942649 
L 93.524896 215.92954 
L 96.077168 214.238987 
L 98.629441 213.535989 
L 101.181714 213.432029 
L 103.733987 213.079672 
L 106.286259 212.781279 
L 108.838532 212.071194 
L 111.390805 211.819295 
L 113.943077 210.686447 
L 116.49535 210.422118 
L 119.047623 210.348593 
L 121.599896 210.297294 
L 124.152168 209.770893 
L 126.704441 209.495453 
L 129.256714 209.352624 
L 131.808987 209.345919 
L 134.361259 209.10749 
L 136.913532 209.006981 
L 139.465805 208.961036 
L 142.018077 208.520795 
L 144.57035 208.371505 
L 147.122623 208.099224 
L 149.674896 207.92492 
L 152.227168 207.898077 
L 154.779441 207.805315 
L 157.331714 207.017654 
L 159.883987 206.772307 
L 162.436259 206.499199 
L 164.988532 206.421408 
L 167.540805 205.391422 
L 170.093077 205.348008 
L 172.64535 205.283006 
L 175.197623 205.257343 
L 177.749896 204.889657 
L 180.302168 204.875629 
L 182.854441 204.874223 
L 185.406714 204.867283 
L 187.958987 204.388004 
L 190.511259 204.357791 
L 193.063532 204.201571 
L 195.615805 204.058357 
L 198.168077 203.975721 
L 200.72035 203.936889 
L 203.272623 202.272519 
L 205.824896 201.758861 
L 208.377168 201.682432 
L 210.929441 201.428677 
L 213.481714 201.30355 
L 216.033987 201.239517 
L 218.586259 201.087615 
L 221.138532 200.423579 
L 223.690805 200.212046 
L 226.243077 199.679739 
L 228.79535 199.283348 
L 231.347623 199.212124 
L 233.899896 199.021016 
L 236.452168 198.550582 
L 239.004441 198.423861 
L 241.556714 196.91287 
L 244.108987 196.623456 
L 246.661259 195.30229 
L 249.213532 194.669176 
L 251.765805 193.782816 
L 254.318077 192.552128 
L 256.87035 192.520202 
L 259.422623 189.330726 
L 261.974896 189.180712 
L 264.527168 187.935145 
L 267.079441 187.556436 
L 269.631714 187.224411 
L 272.183987 185.047417 
L 274.736259 183.992022 
L 277.288532 183.592213 
L 279.840805 183.193172 
L 282.393077 182.108753 
L 284.94535 181.747235 
L 287.497623 180.385222 
L 290.049896 180.194808 
L 292.602168 174.281183 
L 295.154441 164.203319 
L 297.706714 152.502789 
L 300.258987 149.028295 
L 302.811259 141.59542 
L 305.363532 128.929119 
L 307.915805 104.619855 
L 310.468077 12.896549 
L 313.02035 12.896549 
L 315.572623 12.896549 
L 318.124896 12.896549 
" style="fill:none;stroke:#34af8a;stroke-linecap:round;stroke-width:1.5;"/>
   </g>
   <g id="line2d_5">
    <path clip-path="url(#p4e4e77ca85)" d="M 65.449896 221.052361 
L 68.002168 218.517821 
L 70.554441 218.414855 
L 73.106714 218.042995 
L 75.658987 216.69055 
L 78.211259 216.631595 
L 80.763532 216.471952 
L 83.315805 216.42306 
L 85.868077 215.81556 
L 88.42035 215.474648 
L 90.972623 214.71914 
L 93.524896 214.680103 
L 96.077168 214.557096 
L 98.629441 214.193673 
L 101.181714 213.748539 
L 103.733987 213.546145 
L 106.286259 213.4258 
L 108.838532 213.386958 
L 111.390805 213.383899 
L 113.943077 213.218314 
L 116.49535 212.252888 
L 119.047623 212.134559 
L 121.599896 211.623236 
L 124.152168 211.08875 
L 126.704441 210.856361 
L 129.256714 210.086149 
L 131.808987 209.419648 
L 134.361259 209.363977 
L 136.913532 208.912343 
L 139.465805 208.866393 
L 142.018077 208.748867 
L 144.57035 208.498515 
L 147.122623 208.458222 
L 149.674896 208.064591 
L 152.227168 208.021138 
L 154.779441 207.811298 
L 157.331714 207.559571 
L 159.883987 207.52186 
L 162.436259 206.467233 
L 164.988532 206.07788 
L 167.540805 206.04728 
L 170.093077 205.424263 
L 172.64535 205.410675 
L 175.197623 205.308662 
L 177.749896 205.245789 
L 180.302168 204.795495 
L 182.854441 203.943376 
L 185.406714 203.845401 
L 187.958987 203.643405 
L 190.511259 203.422786 
L 193.063532 203.303964 
L 195.615805 203.232879 
L 198.168077 203.035146 
L 200.72035 202.869492 
L 203.272623 202.015093 
L 205.824896 200.610681 
L 208.377168 199.574756 
L 210.929441 199.402921 
L 213.481714 199.047567 
L 216.033987 198.917736 
L 218.586259 198.875861 
L 221.138532 198.410479 
L 223.690805 197.552933 
L 226.243077 197.40438 
L 228.79535 195.79553 
L 231.347623 195.790041 
L 233.899896 195.480476 
L 236.452168 195.162768 
L 239.004441 193.383454 
L 241.556714 193.292021 
L 244.108987 193.110622 
L 246.661259 192.927821 
L 249.213532 189.805752 
L 251.765805 189.747198 
L 254.318077 189.28938 
L 256.87035 189.178416 
L 259.422623 186.845808 
L 261.974896 184.201898 
L 264.527168 183.522912 
L 267.079441 181.900931 
L 269.631714 181.061691 
L 272.183987 178.317561 
L 274.736259 176.756192 
L 277.288532 176.61434 
L 279.840805 176.591596 
L 282.393077 175.624386 
L 284.94535 168.613784 
L 287.497623 157.747681 
L 290.049896 155.051985 
L 292.602168 152.032349 
L 295.154441 149.093718 
L 297.706714 142.470624 
L 300.258987 124.049521 
L 302.811259 97.250748 
L 305.363532 96.571411 
L 307.915805 91.931651 
L 310.468077 12.896549 
L 313.02035 12.896549 
L 315.572623 12.896549 
L 318.124896 12.896549 
" style="fill:none;stroke:#37aabb;stroke-linecap:round;stroke-width:1.5;"/>
   </g>
   <g id="line2d_6">
    <path clip-path="url(#p4e4e77ca85)" d="M 65.449896 220.079728 
L 68.002168 217.119209 
L 70.554441 215.288865 
L 73.106714 215.185677 
L 75.658987 213.781996 
L 78.211259 213.266104 
L 80.763532 212.930362 
L 83.315805 212.580909 
L 85.868077 212.505206 
L 88.42035 212.104708 
L 90.972623 211.883594 
L 93.524896 211.855395 
L 96.077168 211.602387 
L 98.629441 211.473522 
L 101.181714 211.463091 
L 103.733987 211.118921 
L 106.286259 210.437466 
L 108.838532 210.081988 
L 111.390805 209.576826 
L 113.943077 209.332733 
L 116.49535 209.321624 
L 119.047623 209.311457 
L 121.599896 208.865697 
L 124.152168 208.341689 
L 126.704441 208.016087 
L 129.256714 207.614607 
L 131.808987 207.603082 
L 134.361259 207.273239 
L 136.913532 207.25415 
L 139.465805 206.851406 
L 142.018077 205.488444 
L 144.57035 205.438889 
L 147.122623 205.037312 
L 149.674896 205.036221 
L 152.227168 205.016253 
L 154.779441 204.500416 
L 157.331714 204.46953 
L 159.883987 204.212347 
L 162.436259 204.115753 
L 164.988532 203.926424 
L 167.540805 203.905179 
L 170.093077 203.874992 
L 172.64535 203.119882 
L 175.197623 202.811694 
L 177.749896 202.769968 
L 180.302168 202.687498 
L 182.854441 202.343361 
L 185.406714 201.81025 
L 187.958987 201.557771 
L 190.511259 200.965519 
L 193.063532 200.778416 
L 195.615805 200.563697 
L 198.168077 200.218815 
L 200.72035 199.856024 
L 203.272623 199.474368 
L 205.824896 199.317576 
L 208.377168 199.175929 
L 210.929441 198.800344 
L 213.481714 198.126951 
L 216.033987 197.736413 
L 218.586259 197.23934 
L 221.138532 197.01552 
L 223.690805 196.937954 
L 226.243077 196.42893 
L 228.79535 196.424252 
L 231.347623 196.073667 
L 233.899896 196.015713 
L 236.452168 193.873585 
L 239.004441 193.31742 
L 241.556714 192.704292 
L 244.108987 189.765447 
L 246.661259 188.12525 
L 249.213532 186.692613 
L 251.765805 186.482735 
L 254.318077 185.815401 
L 256.87035 184.980098 
L 259.422623 184.635553 
L 261.974896 184.505963 
L 264.527168 181.524138 
L 267.079441 178.627284 
L 269.631714 175.490598 
L 272.183987 174.506252 
L 274.736259 172.154631 
L 277.288532 168.531667 
L 279.840805 165.21311 
L 282.393077 163.122233 
L 284.94535 161.91613 
L 287.497623 157.419976 
L 290.049896 155.039176 
L 292.602168 149.14163 
L 295.154441 148.334502 
L 297.706714 138.199067 
L 300.258987 136.71906 
L 302.811259 105.576773 
L 305.363532 80.558297 
L 307.915805 77.946751 
L 310.468077 12.896549 
L 313.02035 12.896549 
L 315.572623 12.896549 
L 318.124896 12.896549 
" style="fill:none;stroke:#8197f4;stroke-linecap:round;stroke-width:1.5;"/>
   </g>
   <g id="line2d_7">
    <path clip-path="url(#p4e4e77ca85)" d="M 65.449896 220.69081 
L 68.002168 218.778693 
L 70.554441 217.857454 
L 73.106714 217.849664 
L 75.658987 217.268193 
L 78.211259 216.261636 
L 80.763532 216.230025 
L 83.315805 215.757043 
L 85.868077 215.544246 
L 88.42035 215.35674 
L 90.972623 214.952583 
L 93.524896 214.850158 
L 96.077168 214.537913 
L 98.629441 214.403502 
L 101.181714 214.390347 
L 103.733987 213.552343 
L 106.286259 213.485748 
L 108.838532 213.485446 
L 111.390805 213.390398 
L 113.943077 212.897341 
L 116.49535 212.672519 
L 119.047623 212.581832 
L 121.599896 212.564184 
L 124.152168 212.278675 
L 126.704441 212.005383 
L 129.256714 211.803313 
L 131.808987 211.669745 
L 134.361259 210.985396 
L 136.913532 210.845042 
L 139.465805 210.305346 
L 142.018077 209.800248 
L 144.57035 209.476915 
L 147.122623 209.283855 
L 149.674896 209.094702 
L 152.227168 208.734779 
L 154.779441 208.569078 
L 157.331714 208.228213 
L 159.883987 208.093119 
L 162.436259 208.075691 
L 164.988532 208.034454 
L 167.540805 208.033749 
L 170.093077 208.020786 
L 172.64535 207.656492 
L 175.197623 207.392502 
L 177.749896 207.178007 
L 180.302168 206.965327 
L 182.854441 206.765302 
L 185.406714 206.708659 
L 187.958987 206.703935 
L 190.511259 205.971506 
L 193.063532 205.801698 
L 195.615805 205.780329 
L 198.168077 205.7264 
L 200.72035 205.290589 
L 203.272623 204.96106 
L 205.824896 204.602742 
L 208.377168 204.56542 
L 210.929441 204.283946 
L 213.481714 203.956301 
L 216.033987 201.619943 
L 218.586259 201.19643 
L 221.138532 201.181033 
L 223.690805 201.075488 
L 226.243077 200.931616 
L 228.79535 200.919524 
L 231.347623 200.367211 
L 233.899896 200.01911 
L 236.452168 199.921899 
L 239.004441 198.297853 
L 241.556714 197.284401 
L 244.108987 197.058066 
L 246.661259 197.042063 
L 249.213532 196.884509 
L 251.765805 196.174895 
L 254.318077 195.936367 
L 256.87035 193.907681 
L 259.422623 191.072249 
L 261.974896 191.07115 
L 264.527168 190.288191 
L 267.079441 190.062164 
L 269.631714 190.014576 
L 272.183987 189.474823 
L 274.736259 185.483706 
L 277.288532 184.431858 
L 279.840805 182.888242 
L 282.393077 175.311289 
L 284.94535 170.63763 
L 287.497623 167.352159 
L 290.049896 164.397444 
L 292.602168 162.946169 
L 295.154441 162.614546 
L 297.706714 158.690292 
L 300.258987 150.67882 
L 302.811259 145.548087 
L 305.363532 109.510275 
L 307.915805 108.096117 
L 310.468077 12.896549 
L 313.02035 12.896549 
L 315.572623 12.896549 
L 318.124896 12.896549 
" style="fill:none;stroke:#f45deb;stroke-linecap:round;stroke-width:1.5;"/>
   </g>
   <g id="line2d_8">
    <path clip-path="url(#p4e4e77ca85)" d="M 65.449896 214.681061 
L 68.002168 214.431821 
L 70.554441 212.442588 
L 73.106714 212.09354 
L 75.658987 211.275544 
L 78.211259 211.03547 
L 80.763532 210.764929 
L 83.315805 210.152918 
L 85.868077 209.138819 
L 88.42035 208.8482 
L 90.972623 208.722419 
L 93.524896 208.624866 
L 96.077168 208.436888 
L 98.629441 208.401116 
L 101.181714 208.204339 
L 103.733987 207.972411 
L 106.286259 207.944008 
L 108.838532 207.801322 
L 111.390805 207.698737 
L 113.943077 207.66953 
L 116.49535 207.603509 
L 119.047623 207.400802 
L 121.599896 207.245394 
L 124.152168 206.885826 
L 126.704441 206.538031 
L 129.256714 206.192992 
L 131.808987 206.189623 
L 134.361259 205.997726 
L 136.913532 205.94053 
L 139.465805 205.901342 
L 142.018077 205.840453 
L 144.57035 205.723522 
L 147.122623 205.664731 
L 149.674896 205.660661 
L 152.227168 205.334218 
L 154.779441 205.134389 
L 157.331714 205.039716 
L 159.883987 204.739922 
L 162.436259 204.701055 
L 164.988532 204.665019 
L 167.540805 204.631998 
L 170.093077 204.600061 
L 172.64535 204.123658 
L 175.197623 203.762558 
L 177.749896 203.63578 
L 180.302168 203.46898 
L 182.854441 203.432071 
L 185.406714 203.153435 
L 187.958987 203.06401 
L 190.511259 202.970844 
L 193.063532 202.953024 
L 195.615805 202.430668 
L 198.168077 202.357116 
L 200.72035 202.347317 
L 203.272623 201.936456 
L 205.824896 201.880109 
L 208.377168 201.393943 
L 210.929441 201.172263 
L 213.481714 201.040511 
L 216.033987 200.966228 
L 218.586259 199.724805 
L 221.138532 198.679637 
L 223.690805 198.229162 
L 226.243077 197.241745 
L 228.79535 196.887143 
L 231.347623 195.737505 
L 233.899896 195.038119 
L 236.452168 194.911567 
L 239.004441 194.281824 
L 241.556714 193.887877 
L 244.108987 193.779582 
L 246.661259 193.320461 
L 249.213532 192.920236 
L 251.765805 192.821457 
L 254.318077 192.564358 
L 256.87035 192.105594 
L 259.422623 190.438925 
L 261.974896 190.085817 
L 264.527168 187.791796 
L 267.079441 186.493217 
L 269.631714 185.000118 
L 272.183987 183.757478 
L 274.736259 175.709736 
L 277.288532 175.308242 
L 279.840805 173.230903 
L 282.393077 173.017535 
L 284.94535 171.553571 
L 287.497623 171.530717 
L 290.049896 167.557761 
L 292.602168 166.896925 
L 295.154441 166.232253 
L 297.706714 165.219124 
L 300.258987 162.278367 
L 302.811259 151.42907 
L 305.363532 132.464851 
L 307.915805 130.897568 
L 310.468077 12.896549 
L 313.02035 12.896549 
L 315.572623 12.896549 
L 318.124896 12.896549 
" style="fill:none;stroke:#000000;stroke-linecap:round;stroke-width:6;"/>
   </g>
   <g id="patch_3">
    <path d="M 65.449896 265.571549 
L 65.449896 12.896549 
" style="fill:none;stroke:#262626;stroke-linecap:square;stroke-linejoin:miter;stroke-width:1.25;"/>
   </g>
   <g id="patch_4">
    <path d="M 65.449896 265.571549 
L 318.124896 265.571549 
" style="fill:none;stroke:#262626;stroke-linecap:square;stroke-linejoin:miter;stroke-width:1.25;"/>
   </g>
   <g id="legend_1">
    <g id="patch_5">
     <path d="M 73.149896 150.864049 
L 178.531614 150.864049 
Q 180.731614 150.864049 180.731614 148.664049 
L 180.731614 20.596549 
Q 180.731614 18.396549 178.531614 18.396549 
L 73.149896 18.396549 
Q 70.949896 18.396549 70.949896 20.596549 
L 70.949896 148.664049 
Q 70.949896 150.864049 73.149896 150.864049 
z
" style="fill:#ffffff;opacity:0.8;stroke:#cccccc;stroke-linejoin:miter;"/>
    </g>
    <g id="line2d_9">
     <path d="M 75.349896 27.30483 
L 97.349896 27.30483 
" style="fill:none;stroke:#f77189;stroke-linecap:round;stroke-width:1.5;"/>
    </g>
    <g id="line2d_10"/>
    <g id="text_15">
     <text style="fill:#262626;font-family:DejaVu Sans;font-size:11px;font-stretch:normal;font-style:normal;font-weight:normal;text-anchor:start;" transform="rotate(-0, 106.149896, 31.15483)" x="106.149896" y="31.15483">GluN</text>
    </g>
    <g id="line2d_11">
     <path d="M 75.349896 43.450767 
L 97.349896 43.450767 
" style="fill:none;stroke:#c69432;stroke-linecap:round;stroke-width:1.5;"/>
    </g>
    <g id="line2d_12"/>
    <g id="text_16">
     <text style="fill:#262626;font-family:DejaVu Sans;font-size:11px;font-stretch:normal;font-style:normal;font-weight:normal;text-anchor:start;" transform="rotate(-0, 106.149896, 47.300767)" x="106.149896" y="47.300767">IN</text>
    </g>
    <g id="line2d_13">
     <path d="M 75.349896 59.596705 
L 97.349896 59.596705 
" style="fill:none;stroke:#82a931;stroke-linecap:round;stroke-width:1.5;"/>
    </g>
    <g id="line2d_14"/>
    <g id="text_17">
     <text style="fill:#262626;font-family:DejaVu Sans;font-size:11px;font-stretch:normal;font-style:normal;font-weight:normal;text-anchor:start;" transform="rotate(-0, 106.149896, 63.446705)" x="106.149896" y="63.446705">MG/EC/Peric.</text>
    </g>
    <g id="line2d_15">
     <path d="M 75.349896 75.742642 
L 97.349896 75.742642 
" style="fill:none;stroke:#34af8a;stroke-linecap:round;stroke-width:1.5;"/>
    </g>
    <g id="line2d_16"/>
    <g id="text_18">
     <text style="fill:#262626;font-family:DejaVu Sans;font-size:11px;font-stretch:normal;font-style:normal;font-weight:normal;text-anchor:start;" transform="rotate(-0, 106.149896, 79.592642)" x="106.149896" y="79.592642">RG</text>
    </g>
    <g id="line2d_17">
     <path d="M 75.349896 91.88858 
L 97.349896 91.88858 
" style="fill:none;stroke:#37aabb;stroke-linecap:round;stroke-width:1.5;"/>
    </g>
    <g id="line2d_18"/>
    <g id="text_19">
     <text style="fill:#262626;font-family:DejaVu Sans;font-size:11px;font-stretch:normal;font-style:normal;font-weight:normal;text-anchor:start;" transform="rotate(-0, 106.149896, 95.73858)" x="106.149896" y="95.73858">SP</text>
    </g>
    <g id="line2d_19">
     <path d="M 75.349896 108.034517 
L 97.349896 108.034517 
" style="fill:none;stroke:#8197f4;stroke-linecap:round;stroke-width:1.5;"/>
    </g>
    <g id="line2d_20"/>
    <g id="text_20">
     <text style="fill:#262626;font-family:DejaVu Sans;font-size:11px;font-stretch:normal;font-style:normal;font-weight:normal;text-anchor:start;" transform="rotate(-0, 106.149896, 111.884517)" x="106.149896" y="111.884517">mGPC/OPC</text>
    </g>
    <g id="line2d_21">
     <path d="M 75.349896 124.180455 
L 97.349896 124.180455 
" style="fill:none;stroke:#f45deb;stroke-linecap:round;stroke-width:1.5;"/>
    </g>
    <g id="line2d_22"/>
    <g id="text_21">
     <text style="fill:#262626;font-family:DejaVu Sans;font-size:11px;font-stretch:normal;font-style:normal;font-weight:normal;text-anchor:start;" transform="rotate(-0, 106.149896, 128.030455)" x="106.149896" y="128.030455">nIPC</text>
    </g>
    <g id="line2d_23">
     <path d="M 75.349896 140.326392 
L 97.349896 140.326392 
" style="fill:none;stroke:#000000;stroke-linecap:round;stroke-width:6;"/>
    </g>
    <g id="line2d_24"/>
    <g id="text_22">
     <text style="fill:#262626;font-family:DejaVu Sans;font-size:11px;font-stretch:normal;font-style:normal;font-weight:normal;text-anchor:start;" transform="rotate(-0, 106.149896, 144.176392)" x="106.149896" y="144.176392">Cumulative</text>
    </g>
   </g>
  </g>
 </g>
 <defs>
  <clipPath id="p4e4e77ca85">
   <rect height="252.675" width="252.675" x="65.449896" y="12.896549"/>
  </clipPath>
 </defs>
</svg>
