<?xml version="1.0" encoding="utf-8" standalone="no"?>
<!DOCTYPE svg PUBLIC "-//W3C//DTD SVG 1.1//EN"
  "http://www.w3.org/Graphics/SVG/1.1/DTD/svg11.dtd">
<svg height="335.586097pt" version="1.1" viewBox="0 0 695.513258 335.586097" width="695.513258pt" xmlns="http://www.w3.org/2000/svg" xmlns:xlink="http://www.w3.org/1999/xlink">
 <metadata>
  <rdf:RDF xmlns:cc="http://creativecommons.org/ns#" xmlns:dc="http://purl.org/dc/elements/1.1/" xmlns:rdf="http://www.w3.org/1999/02/22-rdf-syntax-ns#">
   <cc:Work>
    <dc:type rdf:resource="http://purl.org/dc/dcmitype/StillImage"/>
    <dc:date>2023-04-27T19:13:00.672402</dc:date>
    <dc:format>image/svg+xml</dc:format>
    <dc:creator>
     <cc:Agent>
      <dc:title>Matplotlib v3.4.3, https://matplotlib.org/</dc:title>
     </cc:Agent>
    </dc:creator>
   </cc:Work>
  </rdf:RDF>
 </metadata>
 <defs>
  <style type="text/css">*{stroke-linecap:butt;stroke-linejoin:round;}</style>
 </defs>
 <g id="figure_1">
  <g id="patch_1">
   <path d="M -0 335.586097 
L 695.513258 335.586097 
L 695.513258 0 
L -0 0 
z
" style="fill:#ffffff;"/>
  </g>
  <g id="axes_1">
   <g id="patch_2">
    <path d="M 163.573258 243.138194 
L 688.313258 243.138194 
L 688.313258 7.2 
L 163.573258 7.2 
z
" style="fill:#ffffff;"/>
   </g>
   <g id="line2d_1">
    <path clip-path="url(#pc554e77ce6)" d="M 228.853668 243.138194 
L 228.853668 7.2 
" style="fill:none;stroke:#ff0000;stroke-linecap:round;stroke-width:3;"/>
   </g>
   <g id="matplotlib.axis_1">
    <g id="xtick_1">
     <g id="text_1">
      <text style="fill:#262626;font-family:DejaVu Sans;font-size:14.994px;font-stretch:normal;font-style:normal;font-weight:normal;" transform="translate(180.366686 284.551119)rotate(-20)">0.92560</text>
     </g>
    </g>
    <g id="xtick_2">
     <g id="text_2">
      <text style="fill:#262626;font-family:DejaVu Sans;font-size:14.994px;font-stretch:normal;font-style:normal;font-weight:normal;" transform="translate(262.427857 284.551119)rotate(-20)">0.92565</text>
     </g>
    </g>
    <g id="xtick_3">
     <g id="text_3">
      <text style="fill:#262626;font-family:DejaVu Sans;font-size:14.994px;font-stretch:normal;font-style:normal;font-weight:normal;" transform="translate(344.489028 284.551119)rotate(-20)">0.92570</text>
     </g>
    </g>
    <g id="xtick_4">
     <g id="text_4">
      <text style="fill:#262626;font-family:DejaVu Sans;font-size:14.994px;font-stretch:normal;font-style:normal;font-weight:normal;" transform="translate(426.550199 284.551119)rotate(-20)">0.92575</text>
     </g>
    </g>
    <g id="xtick_5">
     <g id="text_5">
      <text style="fill:#262626;font-family:DejaVu Sans;font-size:14.994px;font-stretch:normal;font-style:normal;font-weight:normal;" transform="translate(508.611369 284.551119)rotate(-20)">0.92580</text>
     </g>
    </g>
    <g id="xtick_6">
     <g id="text_6">
      <text style="fill:#262626;font-family:DejaVu Sans;font-size:14.994px;font-stretch:normal;font-style:normal;font-weight:normal;" transform="translate(590.67254 284.551119)rotate(-20)">0.92585</text>
     </g>
    </g>
    <g id="text_7">
     <text style="fill:#262626;font-family:DejaVu Sans;font-size:21.6px;font-stretch:normal;font-style:normal;font-weight:normal;text-anchor:middle;" transform="rotate(-0, 425.943258, 323.893972)" x="425.943258" y="323.893972">Imputed DENND1B Correlation</text>
    </g>
   </g>
   <g id="matplotlib.axis_2">
    <g id="ytick_1">
     <g id="text_8">
      <text style="fill:#262626;font-family:DejaVu Sans;font-size:14.994px;font-stretch:normal;font-style:normal;font-weight:normal;text-anchor:end;" transform="rotate(-0, 154.073258, 42.388823)" x="154.073258" y="42.388823">Within 10kbp</text>
     </g>
    </g>
    <g id="ytick_2">
     <g id="text_9">
      <text style="fill:#262626;font-family:DejaVu Sans;font-size:14.994px;font-stretch:normal;font-style:normal;font-weight:normal;text-anchor:end;" transform="rotate(-0, 154.073258, 101.373371)" x="154.073258" y="101.373371">Within 1Mbp</text>
     </g>
    </g>
    <g id="ytick_3">
     <g id="text_10">
      <text style="fill:#262626;font-family:DejaVu Sans;font-size:14.994px;font-stretch:normal;font-style:normal;font-weight:normal;text-anchor:end;" transform="rotate(-0, 154.073258, 160.35792)" x="154.073258" y="160.35792">Same Chromosome</text>
     </g>
    </g>
    <g id="ytick_4">
     <g id="text_11">
      <text style="fill:#262626;font-family:DejaVu Sans;font-size:14.994px;font-stretch:normal;font-style:normal;font-weight:normal;text-anchor:end;" transform="rotate(-0, 154.073258, 219.342468)" x="154.073258" y="219.342468">Genome-Wide</text>
     </g>
    </g>
   </g>
   <g id="PolyCollection_1">
    <defs>
     <path d="M 187.425077 -297.54921 
L 187.425077 -300.238436 
L 189.267988 -300.518853 
L 191.1109 -300.844066 
L 192.953812 -301.218183 
L 194.796723 -301.645075 
L 196.639635 -302.128235 
L 198.482547 -302.670624 
L 200.325459 -303.274515 
L 202.16837 -303.941333 
L 204.011282 -304.671505 
L 205.854194 -305.464314 
L 207.697105 -306.317772 
L 209.540017 -307.22852 
L 211.382929 -308.191749 
L 213.22584 -309.201164 
L 215.068752 -310.248981 
L 216.911664 -311.325973 
L 218.754575 -312.421553 
L 220.597487 -313.523915 
L 222.440399 -314.620216 
L 224.283311 -315.696807 
L 226.126222 -316.739506 
L 227.969134 -317.733912 
L 229.812046 -318.665748 
L 231.654957 -319.521226 
L 233.497869 -320.287431 
L 235.340781 -320.952698 
L 237.183692 -321.506979 
L 239.026604 -321.942184 
L 240.869516 -322.252478 
L 242.712428 -322.434522 
L 244.555339 -322.487642 
L 246.398251 -322.413919 
L 248.241163 -322.218183 
L 250.084074 -321.907918 
L 251.926986 -321.493065 
L 253.769898 -320.985731 
L 255.612809 -320.399817 
L 257.455721 -319.750574 
L 259.298633 -319.054097 
L 261.141545 -318.326798 
L 262.984456 -317.584864 
L 264.827368 -316.843725 
L 266.67028 -316.117572 
L 268.513191 -315.418932 
L 270.356103 -314.758326 
L 272.199015 -314.144021 
L 274.041926 -313.581896 
L 275.884838 -313.075415 
L 277.72775 -312.625702 
L 279.570662 -312.231728 
L 281.413573 -311.890567 
L 283.256485 -311.597732 
L 285.099397 -311.347547 
L 286.942308 -311.133544 
L 288.78522 -310.94885 
L 290.628132 -310.786557 
L 292.471043 -310.640044 
L 294.313955 -310.503239 
L 296.156867 -310.370811 
L 297.999779 -310.238287 
L 299.84269 -310.102099 
L 301.685602 -309.959563 
L 303.528514 -309.80879 
L 305.371425 -309.648573 
L 307.214337 -309.478224 
L 309.057249 -309.297417 
L 310.90016 -309.106026 
L 312.743072 -308.903983 
L 314.585984 -308.691167 
L 316.428896 -308.46733 
L 318.271807 -308.232063 
L 320.114719 -307.984806 
L 321.957631 -307.724892 
L 323.800542 -307.451621 
L 325.643454 -307.164359 
L 327.486366 -306.862643 
L 329.329277 -306.546284 
L 331.172189 -306.215466 
L 333.015101 -305.870814 
L 334.858012 -305.513446 
L 336.700924 -305.144988 
L 338.543836 -304.767552 
L 340.386748 -304.383695 
L 342.229659 -303.996337 
L 344.072571 -303.608665 
L 345.915483 -303.22402 
L 347.758394 -302.845774 
L 349.601306 -302.47721 
L 351.444218 -302.121407 
L 353.287129 -301.781141 
L 355.130041 -301.458804 
L 356.972953 -301.156342 
L 358.815865 -300.875218 
L 360.658776 -300.616402 
L 362.501688 -300.380372 
L 364.3446 -300.167148 
L 366.187511 -299.976331 
L 368.030423 -299.807158 
L 369.873335 -299.658565 
L 369.873335 -298.129082 
L 369.873335 -298.129082 
L 368.030423 -297.980488 
L 366.187511 -297.811315 
L 364.3446 -297.620498 
L 362.501688 -297.407274 
L 360.658776 -297.171244 
L 358.815865 -296.912428 
L 356.972953 -296.631304 
L 355.130041 -296.328842 
L 353.287129 -296.006505 
L 351.444218 -295.66624 
L 349.601306 -295.310436 
L 347.758394 -294.941872 
L 345.915483 -294.563626 
L 344.072571 -294.178981 
L 342.229659 -293.79131 
L 340.386748 -293.403952 
L 338.543836 -293.020094 
L 336.700924 -292.642659 
L 334.858012 -292.2742 
L 333.015101 -291.916833 
L 331.172189 -291.572181 
L 329.329277 -291.241362 
L 327.486366 -290.925003 
L 325.643454 -290.623287 
L 323.800542 -290.336025 
L 321.957631 -290.062754 
L 320.114719 -289.80284 
L 318.271807 -289.555583 
L 316.428896 -289.320316 
L 314.585984 -289.096479 
L 312.743072 -288.883663 
L 310.90016 -288.68162 
L 309.057249 -288.490229 
L 307.214337 -288.309422 
L 305.371425 -288.139074 
L 303.528514 -287.978856 
L 301.685602 -287.828084 
L 299.84269 -287.685547 
L 297.999779 -287.54936 
L 296.156867 -287.416835 
L 294.313955 -287.284407 
L 292.471043 -287.147602 
L 290.628132 -287.001089 
L 288.78522 -286.838797 
L 286.942308 -286.654102 
L 285.099397 -286.440099 
L 283.256485 -286.189915 
L 281.413573 -285.89708 
L 279.570662 -285.555918 
L 277.72775 -285.161944 
L 275.884838 -284.712231 
L 274.041926 -284.20575 
L 272.199015 -283.643625 
L 270.356103 -283.02932 
L 268.513191 -282.368714 
L 266.67028 -281.670074 
L 264.827368 -280.943921 
L 262.984456 -280.202782 
L 261.141545 -279.460848 
L 259.298633 -278.733549 
L 257.455721 -278.037072 
L 255.612809 -277.387829 
L 253.769898 -276.801915 
L 251.926986 -276.294581 
L 250.084074 -275.879728 
L 248.241163 -275.569463 
L 246.398251 -275.373727 
L 244.555339 -275.300004 
L 242.712428 -275.353124 
L 240.869516 -275.535168 
L 239.026604 -275.845463 
L 237.183692 -276.280668 
L 235.340781 -276.834948 
L 233.497869 -277.500215 
L 231.654957 -278.26642 
L 229.812046 -279.121898 
L 227.969134 -280.053734 
L 226.126222 -281.04814 
L 224.283311 -282.090839 
L 222.440399 -283.16743 
L 220.597487 -284.263731 
L 218.754575 -285.366093 
L 216.911664 -286.461673 
L 215.068752 -287.538665 
L 213.22584 -288.586483 
L 211.382929 -289.595898 
L 209.540017 -290.559126 
L 207.697105 -291.469874 
L 205.854194 -292.323332 
L 204.011282 -293.116141 
L 202.16837 -293.846313 
L 200.325459 -294.513132 
L 198.482547 -295.117022 
L 196.639635 -295.659411 
L 194.796723 -296.142571 
L 192.953812 -296.569464 
L 191.1109 -296.943581 
L 189.267988 -297.268793 
L 187.425077 -297.54921 
z
" id="m60691a2815" style="stroke:#737373;stroke-width:1.5;"/>
    </defs>
    <g clip-path="url(#pc554e77ce6)">
     <use style="fill:#bfbfbf;stroke:#737373;stroke-width:1.5;" x="0" xlink:href="#m60691a2815" y="335.586097"/>
    </g>
   </g>
   <g id="PolyCollection_2">
    <defs>
     <path d="M 251.434174 -238.389445 
L 251.434174 -241.429105 
L 255.606167 -241.829254 
L 259.77816 -242.307825 
L 263.950152 -242.872499 
L 268.122145 -243.52968 
L 272.294137 -244.283905 
L 276.46613 -245.137249 
L 280.638123 -246.088746 
L 284.810115 -247.133903 
L 288.982108 -248.264339 
L 293.1541 -249.467605 
L 297.326093 -250.727236 
L 301.498085 -252.02306 
L 305.670078 -253.33179 
L 309.842071 -254.627884 
L 314.014063 -255.884653 
L 318.186056 -257.075563 
L 322.358048 -258.175649 
L 326.530041 -259.162954 
L 330.702034 -260.019884 
L 334.874026 -260.734366 
L 339.046019 -261.300711 
L 343.218011 -261.720084 
L 347.390004 -262.000542 
L 351.561996 -262.156581 
L 355.733989 -262.208231 
L 359.905982 -262.179736 
L 364.077974 -262.097904 
L 368.249967 -261.990257 
L 372.421959 -261.883109 
L 376.593952 -261.799739 
L 380.765945 -261.758784 
L 384.937937 -261.773006 
L 389.10993 -261.848513 
L 393.281922 -261.984508 
L 397.453915 -262.173581 
L 401.625907 -262.402509 
L 405.7979 -262.653489 
L 409.969893 -262.905706 
L 414.141885 -263.137077 
L 418.313878 -263.326052 
L 422.48587 -263.453287 
L 426.657863 -263.503094 
L 430.829856 -263.464538 
L 435.001848 -263.33212 
L 439.173841 -263.106019 
L 443.345833 -262.791903 
L 447.517826 -262.400358 
L 451.689818 -261.946007 
L 455.861811 -261.446414 
L 460.033804 -260.920886 
L 464.205796 -260.389245 
L 468.377789 -259.870689 
L 472.549781 -259.382772 
L 476.721774 -258.940579 
L 480.893767 -258.556096 
L 485.065759 -258.237785 
L 489.237752 -257.990354 
L 493.409744 -257.814702 
L 497.581737 -257.708009 
L 501.753729 -257.663952 
L 505.925722 -257.673034 
L 510.097715 -257.723002 
L 514.269707 -257.799352 
L 518.4417 -257.885911 
L 522.613692 -257.965489 
L 526.785685 -258.020581 
L 530.957678 -258.034102 
L 535.12967 -257.990131 
L 539.301663 -257.874622 
L 543.473655 -257.676047 
L 547.645648 -257.385926 
L 551.81764 -256.999221 
L 555.989633 -256.514547 
L 560.161626 -255.934201 
L 564.333618 -255.263995 
L 568.505611 -254.512913 
L 572.677603 -253.692606 
L 576.849596 -252.816785 
L 581.021589 -251.900527 
L 585.193581 -250.959566 
L 589.365574 -250.009601 
L 593.537566 -249.065671 
L 597.709559 -248.141614 
L 601.881551 -247.249653 
L 606.053544 -246.400101 
L 610.225537 -245.601194 
L 614.397529 -244.859042 
L 618.569522 -244.177686 
L 622.741514 -243.559234 
L 626.913507 -243.004058 
L 631.0855 -242.511045 
L 635.257492 -242.077849 
L 639.429485 -241.701165 
L 643.601477 -241.376982 
L 647.77347 -241.100827 
L 651.945463 -240.867974 
L 656.117455 -240.673626 
L 660.289448 -240.513068 
L 664.46144 -240.38178 
L 664.46144 -239.436769 
L 664.46144 -239.436769 
L 660.289448 -239.305482 
L 656.117455 -239.144923 
L 651.945463 -238.950575 
L 647.77347 -238.717722 
L 643.601477 -238.441568 
L 639.429485 -238.117385 
L 635.257492 -237.7407 
L 631.0855 -237.307504 
L 626.913507 -236.814491 
L 622.741514 -236.259316 
L 618.569522 -235.640863 
L 614.397529 -234.959507 
L 610.225537 -234.217355 
L 606.053544 -233.418448 
L 601.881551 -232.568896 
L 597.709559 -231.676936 
L 593.537566 -230.752879 
L 589.365574 -229.808948 
L 585.193581 -228.858984 
L 581.021589 -227.918023 
L 576.849596 -227.001764 
L 572.677603 -226.125943 
L 568.505611 -225.305637 
L 564.333618 -224.554554 
L 560.161626 -223.884348 
L 555.989633 -223.304003 
L 551.81764 -222.819329 
L 547.645648 -222.432623 
L 543.473655 -222.142502 
L 539.301663 -221.943927 
L 535.12967 -221.828419 
L 530.957678 -221.784448 
L 526.785685 -221.797969 
L 522.613692 -221.85306 
L 518.4417 -221.932638 
L 514.269707 -222.019197 
L 510.097715 -222.095547 
L 505.925722 -222.145515 
L 501.753729 -222.154597 
L 497.581737 -222.110541 
L 493.409744 -222.003848 
L 489.237752 -221.828196 
L 485.065759 -221.580765 
L 480.893767 -221.262453 
L 476.721774 -220.87797 
L 472.549781 -220.435778 
L 468.377789 -219.947861 
L 464.205796 -219.429304 
L 460.033804 -218.897664 
L 455.861811 -218.372135 
L 451.689818 -217.872543 
L 447.517826 -217.418191 
L 443.345833 -217.026646 
L 439.173841 -216.712531 
L 435.001848 -216.486429 
L 430.829856 -216.354011 
L 426.657863 -216.315455 
L 422.48587 -216.365263 
L 418.313878 -216.492498 
L 414.141885 -216.681472 
L 409.969893 -216.912844 
L 405.7979 -217.16506 
L 401.625907 -217.41604 
L 397.453915 -217.644968 
L 393.281922 -217.834042 
L 389.10993 -217.970037 
L 384.937937 -218.045543 
L 380.765945 -218.059765 
L 376.593952 -218.01881 
L 372.421959 -217.93544 
L 368.249967 -217.828293 
L 364.077974 -217.720645 
L 359.905982 -217.638813 
L 355.733989 -217.610318 
L 351.561996 -217.661969 
L 347.390004 -217.818007 
L 343.218011 -218.098465 
L 339.046019 -218.517839 
L 334.874026 -219.084183 
L 330.702034 -219.798666 
L 326.530041 -220.655596 
L 322.358048 -221.642901 
L 318.186056 -222.742986 
L 314.014063 -223.933896 
L 309.842071 -225.190665 
L 305.670078 -226.486759 
L 301.498085 -227.79549 
L 297.326093 -229.091314 
L 293.1541 -230.350945 
L 288.982108 -231.55421 
L 284.810115 -232.684646 
L 280.638123 -233.729803 
L 276.46613 -234.6813 
L 272.294137 -235.534644 
L 268.122145 -236.28887 
L 263.950152 -236.94605 
L 259.77816 -237.510724 
L 255.606167 -237.989295 
L 251.434174 -238.389445 
z
" id="mf0f6370353" style="stroke:#737373;stroke-width:1.5;"/>
    </defs>
    <g clip-path="url(#pc554e77ce6)">
     <use style="fill:#bfbfbf;stroke:#737373;stroke-width:1.5;" x="0" xlink:href="#mf0f6370353" y="335.586097"/>
    </g>
   </g>
   <g id="PolyCollection_3">
    <defs>
     <path d="M 587.464217 -180.768763 
L 587.464217 -181.080689 
L 587.543333 -181.147644 
L 587.622448 -181.235739 
L 587.701564 -181.348655 
L 587.780679 -181.489811 
L 587.859795 -181.662181 
L 587.93891 -181.868164 
L 588.018025 -182.109584 
L 588.097141 -182.387783 
L 588.176256 -182.703821 
L 588.255372 -183.058693 
L 588.334487 -183.453514 
L 588.413603 -183.889576 
L 588.492718 -184.368236 
L 588.571833 -184.890637 
L 588.650949 -185.457294 
L 588.730064 -186.067658 
L 588.80918 -186.719755 
L 588.888295 -187.410009 
L 588.967411 -188.133307 
L 589.046526 -188.88329 
L 589.125642 -189.652811 
L 589.204757 -190.434429 
L 589.283872 -191.220838 
L 589.362988 -192.005115 
L 589.442103 -192.78078 
L 589.521219 -193.541693 
L 589.600334 -194.281901 
L 589.67945 -194.995541 
L 589.758565 -195.676916 
L 589.83768 -196.320778 
L 589.916796 -196.922799 
L 589.995911 -197.480139 
L 590.075027 -197.991992 
L 590.154142 -198.460009 
L 590.233258 -198.888518 
L 590.312373 -199.28451 
L 590.391488 -199.657402 
L 590.470604 -200.018561 
L 590.549719 -200.380547 
L 590.628835 -200.756009 
L 590.70795 -201.156147 
L 590.787066 -201.588722 
L 590.866181 -202.05573 
L 590.945297 -202.551015 
L 591.024412 -203.058315 
L 591.103527 -203.550279 
L 591.182643 -203.989005 
L 591.261758 -204.328429 
L 591.340874 -204.518546 
L 591.419989 -204.511033 
L 591.499105 -204.26548 
L 591.57822 -203.755173 
L 591.657335 -202.971397 
L 591.736451 -201.925452 
L 591.815566 -200.648016 
L 591.894682 -199.185998 
L 591.973797 -197.597505 
L 592.052913 -195.94586 
L 592.132028 -194.293651 
L 592.211143 -192.697691 
L 592.290259 -191.205408 
L 592.369374 -189.852837 
L 592.44849 -188.66405 
L 592.527605 -187.651659 
L 592.606721 -186.817956 
L 592.685836 -186.156341 
L 592.764952 -185.652824 
L 592.844067 -185.287526 
L 592.923182 -185.036228 
L 593.002298 -184.872032 
L 593.081413 -184.767153 
L 593.160529 -184.694803 
L 593.239644 -184.631021 
L 593.31876 -184.556261 
L 593.397875 -184.456524 
L 593.47699 -184.323898 
L 593.556106 -184.156415 
L 593.635221 -183.957266 
L 593.714337 -183.733515 
L 593.793452 -183.494517 
L 593.872568 -183.250279 
L 593.951683 -183.010021 
L 594.030798 -182.781102 
L 594.109914 -182.568436 
L 594.189029 -182.3744 
L 594.268145 -182.199175 
L 594.34726 -182.041363 
L 594.426376 -181.898736 
L 594.505491 -181.768929 
L 594.584607 -181.649974 
L 594.663722 -181.540589 
L 594.742837 -181.440235 
L 594.821953 -181.348971 
L 594.901068 -181.267202 
L 594.980184 -181.19539 
L 595.059299 -181.133808 
L 595.138415 -181.082388 
L 595.21753 -181.040662 
L 595.296645 -181.007794 
L 595.296645 -180.841658 
L 595.296645 -180.841658 
L 595.21753 -180.808791 
L 595.138415 -180.767064 
L 595.059299 -180.715645 
L 594.980184 -180.654063 
L 594.901068 -180.58225 
L 594.821953 -180.500481 
L 594.742837 -180.409217 
L 594.663722 -180.308863 
L 594.584607 -180.199478 
L 594.505491 -180.080523 
L 594.426376 -179.950717 
L 594.34726 -179.80809 
L 594.268145 -179.650278 
L 594.189029 -179.475052 
L 594.109914 -179.281017 
L 594.030798 -179.06835 
L 593.951683 -178.839432 
L 593.872568 -178.599174 
L 593.793452 -178.354936 
L 593.714337 -178.115938 
L 593.635221 -177.892187 
L 593.556106 -177.693038 
L 593.47699 -177.525554 
L 593.397875 -177.392929 
L 593.31876 -177.293192 
L 593.239644 -177.218431 
L 593.160529 -177.15465 
L 593.081413 -177.0823 
L 593.002298 -176.977421 
L 592.923182 -176.813225 
L 592.844067 -176.561927 
L 592.764952 -176.196629 
L 592.685836 -175.693111 
L 592.606721 -175.031497 
L 592.527605 -174.197794 
L 592.44849 -173.185403 
L 592.369374 -171.996616 
L 592.290259 -170.644044 
L 592.211143 -169.151762 
L 592.132028 -167.555802 
L 592.052913 -165.903593 
L 591.973797 -164.251948 
L 591.894682 -162.663455 
L 591.815566 -161.201436 
L 591.736451 -159.924001 
L 591.657335 -158.878056 
L 591.57822 -158.09428 
L 591.499105 -157.583973 
L 591.419989 -157.33842 
L 591.340874 -157.330907 
L 591.261758 -157.521023 
L 591.182643 -157.860448 
L 591.103527 -158.299174 
L 591.024412 -158.791137 
L 590.945297 -159.298438 
L 590.866181 -159.793723 
L 590.787066 -160.26073 
L 590.70795 -160.693306 
L 590.628835 -161.093444 
L 590.549719 -161.468906 
L 590.470604 -161.830891 
L 590.391488 -162.19205 
L 590.312373 -162.564943 
L 590.233258 -162.960935 
L 590.154142 -163.389443 
L 590.075027 -163.857461 
L 589.995911 -164.369314 
L 589.916796 -164.926653 
L 589.83768 -165.528675 
L 589.758565 -166.172537 
L 589.67945 -166.853912 
L 589.600334 -167.567552 
L 589.521219 -168.307759 
L 589.442103 -169.068673 
L 589.362988 -169.844337 
L 589.283872 -170.628614 
L 589.204757 -171.415023 
L 589.125642 -172.196642 
L 589.046526 -172.966162 
L 588.967411 -173.716146 
L 588.888295 -174.439444 
L 588.80918 -175.129698 
L 588.730064 -175.781795 
L 588.650949 -176.392159 
L 588.571833 -176.958816 
L 588.492718 -177.481216 
L 588.413603 -177.959877 
L 588.334487 -178.395938 
L 588.255372 -178.79076 
L 588.176256 -179.145632 
L 588.097141 -179.461669 
L 588.018025 -179.739869 
L 587.93891 -179.981288 
L 587.859795 -180.187272 
L 587.780679 -180.359641 
L 587.701564 -180.500798 
L 587.622448 -180.613713 
L 587.543333 -180.701809 
L 587.464217 -180.768763 
z
" id="ma246c4d2ef" style="stroke:#737373;stroke-width:1.5;"/>
    </defs>
    <g clip-path="url(#pc554e77ce6)">
     <use style="fill:#bfbfbf;stroke:#737373;stroke-width:1.5;" x="0" xlink:href="#ma246c4d2ef" y="335.586097"/>
    </g>
   </g>
   <g id="PolyCollection_4">
    <defs>
     <path d="M 578.544349 -121.814134 
L 578.544349 -122.066222 
L 578.774649 -122.129088 
L 579.004949 -122.216695 
L 579.235249 -122.33557 
L 579.465549 -122.49261 
L 579.695849 -122.694531 
L 579.926149 -122.94714 
L 580.156449 -123.25448 
L 580.386749 -123.617928 
L 580.61705 -124.035392 
L 580.84735 -124.500768 
L 581.07765 -125.003818 
L 581.30795 -125.530605 
L 581.53825 -126.064551 
L 581.76855 -126.588074 
L 581.99885 -127.08464 
L 582.22915 -127.540959 
L 582.45945 -127.948945 
L 582.68975 -128.307079 
L 582.92005 -128.620845 
L 583.15035 -128.902058 
L 583.38065 -129.167088 
L 583.610951 -129.434214 
L 583.841251 -129.720517 
L 584.071551 -130.03883 
L 584.301851 -130.395281 
L 584.532151 -130.787886 
L 584.762451 -131.206431 
L 584.992751 -131.633679 
L 585.223051 -132.047688 
L 585.453351 -132.424837 
L 585.683651 -132.743078 
L 585.913951 -132.984876 
L 586.144251 -133.139442 
L 586.374551 -133.203958 
L 586.604851 -133.183711 
L 586.835152 -133.091219 
L 587.065452 -132.944581 
L 587.295752 -132.765387 
L 587.526052 -132.576551 
L 587.756352 -132.400407 
L 587.986652 -132.257316 
L 588.216952 -132.164908 
L 588.447252 -132.137963 
L 588.677552 -132.188784 
L 588.907852 -132.327835 
L 589.138152 -132.564376 
L 589.368452 -132.906829 
L 589.598752 -133.362692 
L 589.829053 -133.937901 
L 590.059353 -134.635685 
L 590.289653 -135.455068 
L 590.519953 -136.389257 
L 590.750253 -137.424226 
L 590.980553 -138.537773 
L 591.210853 -139.699307 
L 591.441153 -140.870503 
L 591.671453 -142.006879 
L 591.901753 -143.060202 
L 592.132053 -143.981541 
L 592.362353 -144.724687 
L 592.592653 -145.249616 
L 592.822953 -145.525649 
L 593.053254 -145.533997 
L 593.283554 -145.269419 
L 593.513854 -144.74081 
L 593.744154 -143.970629 
L 593.974454 -142.993187 
L 594.204754 -141.851933 
L 594.435054 -140.595964 
L 594.665354 -139.276117 
L 594.895654 -137.941016 
L 595.125954 -136.63351 
L 595.356254 -135.387871 
L 595.586554 -134.228053 
L 595.816854 -133.167154 
L 596.047155 -132.208059 
L 596.277455 -131.345091 
L 596.507755 -130.566349 
L 596.738055 -129.856367 
L 596.968355 -129.198715 
L 597.198655 -128.578229 
L 597.428955 -127.982668 
L 597.659255 -127.403685 
L 597.889555 -126.83715 
L 598.119855 -126.282888 
L 598.350155 -125.743995 
L 598.580455 -125.225873 
L 598.810755 -124.735153 
L 599.041055 -124.278632 
L 599.271356 -123.862348 
L 599.501656 -123.490872 
L 599.731956 -123.16686 
L 599.962256 -122.890882 
L 600.192556 -122.661507 
L 600.422856 -122.475596 
L 600.653156 -122.328729 
L 600.883456 -122.215692 
L 601.113756 -122.130966 
L 601.344056 -122.069139 
L 601.344056 -121.811217 
L 601.344056 -121.811217 
L 601.113756 -121.74939 
L 600.883456 -121.664664 
L 600.653156 -121.551627 
L 600.422856 -121.40476 
L 600.192556 -121.218849 
L 599.962256 -120.989474 
L 599.731956 -120.713496 
L 599.501656 -120.389484 
L 599.271356 -120.018008 
L 599.041055 -119.601724 
L 598.810755 -119.145203 
L 598.580455 -118.654482 
L 598.350155 -118.136361 
L 598.119855 -117.597468 
L 597.889555 -117.043206 
L 597.659255 -116.476671 
L 597.428955 -115.897688 
L 597.198655 -115.302127 
L 596.968355 -114.681641 
L 596.738055 -114.023989 
L 596.507755 -113.314007 
L 596.277455 -112.535265 
L 596.047155 -111.672297 
L 595.816854 -110.713202 
L 595.586554 -109.652303 
L 595.356254 -108.492485 
L 595.125954 -107.246846 
L 594.895654 -105.93934 
L 594.665354 -104.604239 
L 594.435054 -103.284392 
L 594.204754 -102.028423 
L 593.974454 -100.887169 
L 593.744154 -99.909727 
L 593.513854 -99.139546 
L 593.283554 -98.610937 
L 593.053254 -98.346359 
L 592.822953 -98.354706 
L 592.592653 -98.630739 
L 592.362353 -99.155668 
L 592.132053 -99.898815 
L 591.901753 -100.820154 
L 591.671453 -101.873477 
L 591.441153 -103.009853 
L 591.210853 -104.181049 
L 590.980553 -105.342583 
L 590.750253 -106.45613 
L 590.519953 -107.491099 
L 590.289653 -108.425288 
L 590.059353 -109.244671 
L 589.829053 -109.942455 
L 589.598752 -110.517664 
L 589.368452 -110.973527 
L 589.138152 -111.31598 
L 588.907852 -111.55252 
L 588.677552 -111.691572 
L 588.447252 -111.742393 
L 588.216952 -111.715448 
L 587.986652 -111.62304 
L 587.756352 -111.479948 
L 587.526052 -111.303805 
L 587.295752 -111.114969 
L 587.065452 -110.935775 
L 586.835152 -110.789137 
L 586.604851 -110.696645 
L 586.374551 -110.676398 
L 586.144251 -110.740914 
L 585.913951 -110.89548 
L 585.683651 -111.137278 
L 585.453351 -111.455519 
L 585.223051 -111.832668 
L 584.992751 -112.246677 
L 584.762451 -112.673925 
L 584.532151 -113.09247 
L 584.301851 -113.485075 
L 584.071551 -113.841526 
L 583.841251 -114.159838 
L 583.610951 -114.446142 
L 583.38065 -114.713268 
L 583.15035 -114.978297 
L 582.92005 -115.25951 
L 582.68975 -115.573277 
L 582.45945 -115.931411 
L 582.22915 -116.339397 
L 581.99885 -116.795716 
L 581.76855 -117.292282 
L 581.53825 -117.815805 
L 581.30795 -118.349751 
L 581.07765 -118.876538 
L 580.84735 -119.379588 
L 580.61705 -119.844964 
L 580.386749 -120.262428 
L 580.156449 -120.625876 
L 579.926149 -120.933216 
L 579.695849 -121.185825 
L 579.465549 -121.387746 
L 579.235249 -121.544786 
L 579.004949 -121.663661 
L 578.774649 -121.751268 
L 578.544349 -121.814134 
z
" id="m0b63b9bf6f" style="stroke:#737373;stroke-width:1.5;"/>
    </defs>
    <g clip-path="url(#pc554e77ce6)">
     <use style="fill:#bfbfbf;stroke:#737373;stroke-width:1.5;" x="0" xlink:href="#m0b63b9bf6f" y="335.586097"/>
    </g>
   </g>
   <g id="line2d_2">
    <path clip-path="url(#pc554e77ce6)" d="M 228.746477 36.692274 
L 328.551935 36.692274 
" style="fill:none;stroke:#737373;stroke-linecap:round;stroke-width:1.5;"/>
   </g>
   <g id="line2d_3">
    <path clip-path="url(#pc554e77ce6)" d="M 244.34023 36.692274 
L 291.804585 36.692274 
" style="fill:none;stroke:#737373;stroke-linecap:round;stroke-width:4.5;"/>
   </g>
   <g id="line2d_4">
    <path clip-path="url(#pc554e77ce6)" d="M 327.532421 95.676823 
L 588.363194 95.676823 
" style="fill:none;stroke:#737373;stroke-linecap:round;stroke-width:1.5;"/>
   </g>
   <g id="line2d_5">
    <path clip-path="url(#pc554e77ce6)" d="M 348.522537 95.676823 
L 515.363836 95.676823 
" style="fill:none;stroke:#737373;stroke-linecap:round;stroke-width:4.5;"/>
   </g>
   <g id="line2d_6">
    <path clip-path="url(#pc554e77ce6)" d="M 588.398706 154.661371 
L 593.702946 154.661371 
" style="fill:none;stroke:#737373;stroke-linecap:round;stroke-width:1.5;"/>
   </g>
   <g id="line2d_7">
    <path clip-path="url(#pc554e77ce6)" d="M 590.072953 154.661371 
L 591.625008 154.661371 
" style="fill:none;stroke:#737373;stroke-linecap:round;stroke-width:4.5;"/>
   </g>
   <g id="line2d_8">
    <path clip-path="url(#pc554e77ce6)" d="M 581.246916 213.645919 
L 598.641489 213.645919 
" style="fill:none;stroke:#737373;stroke-linecap:round;stroke-width:1.5;"/>
   </g>
   <g id="line2d_9">
    <path clip-path="url(#pc554e77ce6)" d="M 586.970256 213.645919 
L 593.605318 213.645919 
" style="fill:none;stroke:#737373;stroke-linecap:round;stroke-width:4.5;"/>
   </g>
   <g id="patch_3">
    <path d="M 163.573258 243.138194 
L 163.573258 7.2 
" style="fill:none;stroke:#262626;stroke-linecap:square;stroke-linejoin:miter;stroke-width:1.25;"/>
   </g>
   <g id="patch_4">
    <path d="M 163.573258 243.138194 
L 688.313258 243.138194 
" style="fill:none;stroke:#262626;stroke-linecap:square;stroke-linejoin:miter;stroke-width:1.25;"/>
   </g>
   <g id="PathCollection_1">
    <defs>
     <path d="M 0 1.5 
C 0.397805 1.5 0.77937 1.341951 1.06066 1.06066 
C 1.341951 0.77937 1.5 0.397805 1.5 0 
C 1.5 -0.397805 1.341951 -0.77937 1.06066 -1.06066 
C 0.77937 -1.341951 0.397805 -1.5 0 -1.5 
C -0.397805 -1.5 -0.77937 -1.341951 -1.06066 -1.06066 
C -1.341951 -0.77937 -1.5 -0.397805 -1.5 0 
C -1.5 0.397805 -1.341951 0.77937 -1.06066 1.06066 
C -0.77937 1.341951 -0.397805 1.5 0 1.5 
z
" id="mb93b8a09fd" style="stroke:#737373;"/>
    </defs>
    <g clip-path="url(#pc554e77ce6)">
     <use style="fill:#ffffff;stroke:#737373;" x="250.252081" xlink:href="#mb93b8a09fd" y="36.692274"/>
    </g>
   </g>
   <g id="PathCollection_2">
    <g clip-path="url(#pc554e77ce6)">
     <use style="fill:#ffffff;stroke:#737373;" x="431.776188" xlink:href="#mb93b8a09fd" y="95.676823"/>
    </g>
   </g>
   <g id="PathCollection_3">
    <g clip-path="url(#pc554e77ce6)">
     <use style="fill:#ffffff;stroke:#737373;" x="590.998649" xlink:href="#mb93b8a09fd" y="154.661371"/>
    </g>
   </g>
   <g id="PathCollection_4">
    <g clip-path="url(#pc554e77ce6)">
     <use style="fill:#ffffff;stroke:#737373;" x="591.834861" xlink:href="#mb93b8a09fd" y="213.645919"/>
    </g>
   </g>
  </g>
 </g>
 <defs>
  <clipPath id="pc554e77ce6">
   <rect height="235.938194" width="524.74" x="163.573258" y="7.2"/>
  </clipPath>
 </defs>
</svg>
