<?xml version="1.0" encoding="utf-8" standalone="no"?>
<!DOCTYPE svg PUBLIC "-//W3C//DTD SVG 1.1//EN"
  "http://www.w3.org/Graphics/SVG/1.1/DTD/svg11.dtd">
<svg xmlns:xlink="http://www.w3.org/1999/xlink" width="695.513258pt" height="335.555315pt" viewBox="0 0 695.513258 335.555315" xmlns="http://www.w3.org/2000/svg" version="1.1">
 <metadata>
  <rdf:RDF xmlns:dc="http://purl.org/dc/elements/1.1/" xmlns:cc="http://creativecommons.org/ns#" xmlns:rdf="http://www.w3.org/1999/02/22-rdf-syntax-ns#">
   <cc:Work>
    <dc:type rdf:resource="http://purl.org/dc/dcmitype/StillImage"/>
    <dc:date>2023-09-02T13:05:08.051263</dc:date>
    <dc:format>image/svg+xml</dc:format>
    <dc:creator>
     <cc:Agent>
      <dc:title>Matplotlib v3.7.2, https://matplotlib.org/</dc:title>
     </cc:Agent>
    </dc:creator>
   </cc:Work>
  </rdf:RDF>
 </metadata>
 <defs>
  <style type="text/css">*{stroke-linejoin: round; stroke-linecap: butt}</style>
 </defs>
 <g id="figure_1">
  <g id="patch_1">
   <path d="M -0 335.555315 
L 695.513258 335.555315 
L 695.513258 0 
L -0 0 
z
" style="fill: #ffffff"/>
  </g>
  <g id="axes_1">
   <g id="patch_2">
    <path d="M 163.573258 243.107412 
L 688.313258 243.107412 
L 688.313258 7.2 
L 163.573258 7.2 
z
" style="fill: #ffffff"/>
   </g>
   <g id="line2d_1">
    <path d="M 353.063006 243.107412 
L 353.063006 7.2 
" clip-path="url(#pb951d6cc3d)" style="fill: none; stroke: #ff0000; stroke-width: 3; stroke-linecap: round"/>
   </g>
   <g id="matplotlib.axis_1">
    <g id="xtick_1">
     <g id="text_1">
      <text style="fill: #262626; font: 14.994px 'Arial', 'DejaVu Sans', 'Liberation Sans', 'Bitstream Vera Sans', sans-serif" transform="translate(166.621328 284.520338) rotate(-20)">0.92607</text>
     </g>
    </g>
    <g id="xtick_2">
     <g id="text_2">
      <text style="fill: #262626; font: 14.994px 'Arial', 'DejaVu Sans', 'Liberation Sans', 'Bitstream Vera Sans', sans-serif" transform="translate(251.930733 284.520338) rotate(-20)">0.92608</text>
     </g>
    </g>
    <g id="xtick_3">
     <g id="text_3">
      <text style="fill: #262626; font: 14.994px 'Arial', 'DejaVu Sans', 'Liberation Sans', 'Bitstream Vera Sans', sans-serif" transform="translate(337.240138 284.520338) rotate(-20)">0.92609</text>
     </g>
    </g>
    <g id="xtick_4">
     <g id="text_4">
      <text style="fill: #262626; font: 14.994px 'Arial', 'DejaVu Sans', 'Liberation Sans', 'Bitstream Vera Sans', sans-serif" transform="translate(422.549543 284.520338) rotate(-20)">0.92610</text>
     </g>
    </g>
    <g id="xtick_5">
     <g id="text_5">
      <text style="fill: #262626; font: 14.994px 'Arial', 'DejaVu Sans', 'Liberation Sans', 'Bitstream Vera Sans', sans-serif" transform="translate(507.858948 284.520338) rotate(-20)">0.92611</text>
     </g>
    </g>
    <g id="xtick_6">
     <g id="text_6">
      <text style="fill: #262626; font: 14.994px 'Arial', 'DejaVu Sans', 'Liberation Sans', 'Bitstream Vera Sans', sans-serif" transform="translate(593.168353 284.520338) rotate(-20)">0.92612</text>
     </g>
    </g>
    <g id="text_7">
     <text style="fill: #262626; font: 21.6px 'Arial', 'DejaVu Sans', 'Liberation Sans', 'Bitstream Vera Sans', sans-serif; text-anchor: middle" x="425.943258" y="323.86319" transform="rotate(-0 425.943258 323.86319)">Imputed DENND1B Correlation</text>
    </g>
   </g>
   <g id="matplotlib.axis_2">
    <g id="ytick_1">
     <g id="text_8">
      <text style="fill: #262626; font: 14.994px 'Arial', 'DejaVu Sans', 'Liberation Sans', 'Bitstream Vera Sans', sans-serif; text-anchor: end" x="154.073258" y="42.384975" transform="rotate(-0 154.073258 42.384975)">Within 10kbp</text>
     </g>
    </g>
    <g id="ytick_2">
     <g id="text_9">
      <text style="fill: #262626; font: 14.994px 'Arial', 'DejaVu Sans', 'Liberation Sans', 'Bitstream Vera Sans', sans-serif; text-anchor: end" x="154.073258" y="101.361828" transform="rotate(-0 154.073258 101.361828)">Within 1Mbp</text>
     </g>
    </g>
    <g id="ytick_3">
     <g id="text_10">
      <text style="fill: #262626; font: 14.994px 'Arial', 'DejaVu Sans', 'Liberation Sans', 'Bitstream Vera Sans', sans-serif; text-anchor: end" x="154.073258" y="160.338681" transform="rotate(-0 154.073258 160.338681)">Same Chromosome</text>
     </g>
    </g>
    <g id="ytick_4">
     <g id="text_11">
      <text style="fill: #262626; font: 14.994px 'Arial', 'DejaVu Sans', 'Liberation Sans', 'Bitstream Vera Sans', sans-serif; text-anchor: end" x="154.073258" y="219.315534" transform="rotate(-0 154.073258 219.315534)">Genome-Wide</text>
     </g>
    </g>
   </g>
   <g id="PolyCollection_1">
    <defs>
     <path id="m8f8e4c5082" d="M 187.425077 -298.476681 
L 187.425077 -299.257097 
L 192.243626 -299.353259 
L 197.062175 -299.468502 
L 201.880724 -299.605617 
L 206.699273 -299.767654 
L 211.517822 -299.957937 
L 216.336371 -300.18008 
L 221.154921 -300.438001 
L 225.97347 -300.735928 
L 230.792019 -301.078389 
L 235.610568 -301.47018 
L 240.429117 -301.916301 
L 245.247666 -302.421843 
L 250.066215 -302.991829 
L 254.884764 -303.630983 
L 259.703314 -304.343446 
L 264.521863 -305.13242 
L 269.340412 -305.999758 
L 274.158961 -306.945527 
L 278.97751 -307.967546 
L 283.796059 -309.06096 
L 288.614608 -310.217868 
L 293.433157 -311.427054 
L 298.251707 -312.673868 
L 303.070256 -313.940288 
L 307.888805 -315.205193 
L 312.707354 -316.444852 
L 317.525903 -317.633648 
L 322.344452 -318.744986 
L 327.163001 -319.752374 
L 331.98155 -320.630596 
L 336.8001 -321.356917 
L 341.618649 -321.91224 
L 346.437198 -322.28213 
L 351.255747 -322.45763 
L 356.074296 -322.43581 
L 360.892845 -322.219991 
L 365.711394 -321.819638 
L 370.529943 -321.249912 
L 375.348493 -320.530917 
L 380.167042 -319.686686 
L 384.985591 -318.743987 
L 389.80414 -317.731015 
L 394.622689 -316.676078 
L 399.441238 -315.606349 
L 404.259787 -314.546757 
L 409.078336 -313.519095 
L 413.896886 -312.541377 
L 418.715435 -311.627458 
L 423.533984 -310.786934 
L 428.352533 -310.025288 
L 433.171082 -309.344249 
L 437.989631 -308.742315 
L 442.80818 -308.215391 
L 447.62673 -307.757466 
L 452.445279 -307.361294 
L 457.263828 -307.019029 
L 462.082377 -306.72276 
L 466.900926 -306.464947 
L 471.719475 -306.238727 
L 476.538024 -306.038097 
L 481.356573 -305.857981 
L 486.175123 -305.694207 
L 490.993672 -305.5434 
L 495.812221 -305.402836 
L 500.63077 -305.27027 
L 505.449319 -305.143756 
L 510.267868 -305.021502 
L 515.086417 -304.901738 
L 519.904966 -304.782643 
L 524.723516 -304.662299 
L 529.542065 -304.538707 
L 534.360614 -304.409822 
L 539.179163 -304.273635 
L 543.997712 -304.12826 
L 548.816261 -303.972041 
L 553.63481 -303.803654 
L 558.453359 -303.622198 
L 563.271909 -303.427268 
L 568.090458 -303.219002 
L 572.909007 -302.998102 
L 577.727556 -302.765822 
L 582.546105 -302.523927 
L 587.364654 -302.274625 
L 592.183203 -302.020474 
L 597.001752 -301.76428 
L 601.820302 -301.508972 
L 606.638851 -301.257486 
L 611.4574 -301.012646 
L 616.275949 -300.777058 
L 621.094498 -300.55302 
L 625.913047 -300.342455 
L 630.731596 -300.14686 
L 635.550145 -299.967283 
L 640.368695 -299.804326 
L 645.187244 -299.658161 
L 650.005793 -299.528569 
L 654.824342 -299.414994 
L 659.642891 -299.316596 
L 664.46144 -299.232322 
L 664.46144 -298.501456 
L 664.46144 -298.501456 
L 659.642891 -298.417182 
L 654.824342 -298.318784 
L 650.005793 -298.205209 
L 645.187244 -298.075618 
L 640.368695 -297.929452 
L 635.550145 -297.766495 
L 630.731596 -297.586918 
L 625.913047 -297.391323 
L 621.094498 -297.180758 
L 616.275949 -296.95672 
L 611.4574 -296.721132 
L 606.638851 -296.476292 
L 601.820302 -296.224806 
L 597.001752 -295.969498 
L 592.183203 -295.713304 
L 587.364654 -295.459153 
L 582.546105 -295.209851 
L 577.727556 -294.967956 
L 572.909007 -294.735676 
L 568.090458 -294.514776 
L 563.271909 -294.30651 
L 558.453359 -294.11158 
L 553.63481 -293.930124 
L 548.816261 -293.761737 
L 543.997712 -293.605518 
L 539.179163 -293.460143 
L 534.360614 -293.323956 
L 529.542065 -293.195071 
L 524.723516 -293.071479 
L 519.904966 -292.951135 
L 515.086417 -292.83204 
L 510.267868 -292.712276 
L 505.449319 -292.590022 
L 500.63077 -292.463508 
L 495.812221 -292.330942 
L 490.993672 -292.190378 
L 486.175123 -292.039571 
L 481.356573 -291.875797 
L 476.538024 -291.695681 
L 471.719475 -291.495051 
L 466.900926 -291.268831 
L 462.082377 -291.011018 
L 457.263828 -290.714749 
L 452.445279 -290.372484 
L 447.62673 -289.976312 
L 442.80818 -289.518387 
L 437.989631 -288.991463 
L 433.171082 -288.389529 
L 428.352533 -287.70849 
L 423.533984 -286.946844 
L 418.715435 -286.10632 
L 413.896886 -285.192401 
L 409.078336 -284.214683 
L 404.259787 -283.187021 
L 399.441238 -282.127429 
L 394.622689 -281.0577 
L 389.80414 -280.002763 
L 384.985591 -278.989791 
L 380.167042 -278.047092 
L 375.348493 -277.202861 
L 370.529943 -276.483866 
L 365.711394 -275.914141 
L 360.892845 -275.513787 
L 356.074296 -275.297968 
L 351.255747 -275.276148 
L 346.437198 -275.451648 
L 341.618649 -275.821538 
L 336.8001 -276.376861 
L 331.98155 -277.103182 
L 327.163001 -277.981404 
L 322.344452 -278.988792 
L 317.525903 -280.10013 
L 312.707354 -281.288926 
L 307.888805 -282.528585 
L 303.070256 -283.79349 
L 298.251707 -285.05991 
L 293.433157 -286.306724 
L 288.614608 -287.51591 
L 283.796059 -288.672818 
L 278.97751 -289.766232 
L 274.158961 -290.788251 
L 269.340412 -291.73402 
L 264.521863 -292.601358 
L 259.703314 -293.390332 
L 254.884764 -294.102795 
L 250.066215 -294.741949 
L 245.247666 -295.311935 
L 240.429117 -295.817477 
L 235.610568 -296.263598 
L 230.792019 -296.655389 
L 225.97347 -296.99785 
L 221.154921 -297.295777 
L 216.336371 -297.553698 
L 211.517822 -297.775841 
L 206.699273 -297.966124 
L 201.880724 -298.128161 
L 197.062175 -298.265276 
L 192.243626 -298.380519 
L 187.425077 -298.476681 
z
" style="stroke: #737373; stroke-width: 1.5"/>
    </defs>
    <g clip-path="url(#pb951d6cc3d)">
     <use xlink:href="#m8f8e4c5082" x="0" y="335.555315" style="fill: #bfbfbf; stroke: #737373; stroke-width: 1.5"/>
    </g>
   </g>
   <g id="PolyCollection_2">
    <defs>
     <path id="ma6bbd60332" d="M 282.87839 -238.996455 
L 282.87839 -240.783617 
L 286.488907 -241.138177 
L 290.099423 -241.602449 
L 293.709939 -242.197632 
L 297.320455 -242.944325 
L 300.930971 -243.860598 
L 304.541487 -244.959699 
L 308.152004 -246.247526 
L 311.76252 -247.72013 
L 315.373036 -249.361545 
L 318.983552 -251.142297 
L 322.594068 -253.018913 
L 326.204584 -254.934717 
L 329.815101 -256.822044 
L 333.425617 -258.60585 
L 337.036133 -260.208525 
L 340.646649 -261.555484 
L 344.257165 -262.581003 
L 347.867681 -263.233665 
L 351.478197 -263.480777 
L 355.088714 -263.311237 
L 358.69923 -262.736487 
L 362.309746 -261.789436 
L 365.920262 -260.521494 
L 369.530778 -258.998073 
L 373.141294 -257.293117 
L 376.751811 -255.483279 
L 380.362327 -253.642395 
L 383.972843 -251.836781 
L 387.583359 -250.121759 
L 391.193875 -248.539599 
L 394.804391 -247.118876 
L 398.414908 -245.87509 
L 402.025424 -244.812248 
L 405.63594 -243.925072 
L 409.246456 -243.201475 
L 412.856972 -242.624996 
L 416.467488 -242.176957 
L 420.078005 -241.838195 
L 423.688521 -241.590307 
L 427.299037 -241.416431 
L 430.909553 -241.301621 
L 434.520069 -241.23292 
L 438.130585 -241.199242 
L 441.741102 -241.191157 
L 445.351618 -241.200662 
L 448.962134 -241.220975 
L 452.57265 -241.246396 
L 456.183166 -241.272221 
L 459.793682 -241.294703 
L 463.404198 -241.311032 
L 467.014715 -241.31932 
L 470.625231 -241.318564 
L 474.235747 -241.308583 
L 477.846263 -241.289925 
L 481.456779 -241.263746 
L 485.067295 -241.231674 
L 488.677812 -241.19567 
L 492.288328 -241.157888 
L 495.898844 -241.120541 
L 499.50936 -241.085782 
L 503.119876 -241.055591 
L 506.730392 -241.031674 
L 510.340909 -241.015368 
L 513.951425 -241.00756 
L 517.561941 -241.008625 
L 521.172457 -241.018389 
L 524.782973 -241.036122 
L 528.393489 -241.060571 
L 532.004006 -241.090033 
L 535.614522 -241.122456 
L 539.225038 -241.155578 
L 542.835554 -241.18707 
L 546.44607 -241.21468 
L 550.056586 -241.236364 
L 553.667102 -241.250385 
L 557.277619 -241.255382 
L 560.888135 -241.2504 
L 564.498651 -241.234893 
L 568.109167 -241.208701 
L 571.719683 -241.172012 
L 575.330199 -241.125323 
L 578.940716 -241.069399 
L 582.551232 -241.005236 
L 586.161748 -240.934036 
L 589.772264 -240.857172 
L 593.38278 -240.776161 
L 596.993296 -240.692618 
L 600.603813 -240.608213 
L 604.214329 -240.524604 
L 607.824845 -240.443372 
L 611.435361 -240.365953 
L 615.045877 -240.293573 
L 618.656393 -240.227196 
L 622.26691 -240.167493 
L 625.877426 -240.114831 
L 629.487942 -240.06928 
L 633.098458 -240.03065 
L 636.708974 -239.99853 
L 640.31949 -239.972348 
L 640.31949 -239.807724 
L 640.31949 -239.807724 
L 636.708974 -239.781542 
L 633.098458 -239.749422 
L 629.487942 -239.710792 
L 625.877426 -239.665241 
L 622.26691 -239.612579 
L 618.656393 -239.552876 
L 615.045877 -239.486499 
L 611.435361 -239.414119 
L 607.824845 -239.3367 
L 604.214329 -239.255468 
L 600.603813 -239.171859 
L 596.993296 -239.087454 
L 593.38278 -239.003911 
L 589.772264 -238.9229 
L 586.161748 -238.846036 
L 582.551232 -238.774836 
L 578.940716 -238.710673 
L 575.330199 -238.654749 
L 571.719683 -238.60806 
L 568.109167 -238.571371 
L 564.498651 -238.545179 
L 560.888135 -238.529672 
L 557.277619 -238.52469 
L 553.667102 -238.529687 
L 550.056586 -238.543708 
L 546.44607 -238.565392 
L 542.835554 -238.593003 
L 539.225038 -238.624494 
L 535.614522 -238.657617 
L 532.004006 -238.69004 
L 528.393489 -238.719501 
L 524.782973 -238.74395 
L 521.172457 -238.761684 
L 517.561941 -238.771447 
L 513.951425 -238.772512 
L 510.340909 -238.764704 
L 506.730392 -238.748398 
L 503.119876 -238.724481 
L 499.50936 -238.694291 
L 495.898844 -238.659532 
L 492.288328 -238.622184 
L 488.677812 -238.584402 
L 485.067295 -238.548398 
L 481.456779 -238.516326 
L 477.846263 -238.490147 
L 474.235747 -238.471489 
L 470.625231 -238.461508 
L 467.014715 -238.460752 
L 463.404198 -238.46904 
L 459.793682 -238.485369 
L 456.183166 -238.507851 
L 452.57265 -238.533676 
L 448.962134 -238.559097 
L 445.351618 -238.57941 
L 441.741102 -238.588915 
L 438.130585 -238.580831 
L 434.520069 -238.547152 
L 430.909553 -238.478451 
L 427.299037 -238.363641 
L 423.688521 -238.189765 
L 420.078005 -237.941878 
L 416.467488 -237.603115 
L 412.856972 -237.155076 
L 409.246456 -236.578597 
L 405.63594 -235.855 
L 402.025424 -234.967824 
L 398.414908 -233.904982 
L 394.804391 -232.661196 
L 391.193875 -231.240473 
L 387.583359 -229.658313 
L 383.972843 -227.943291 
L 380.362327 -226.137677 
L 376.751811 -224.296793 
L 373.141294 -222.486956 
L 369.530778 -220.781999 
L 365.920262 -219.258578 
L 362.309746 -217.990636 
L 358.69923 -217.043585 
L 355.088714 -216.468835 
L 351.478197 -216.299295 
L 347.867681 -216.546407 
L 344.257165 -217.199069 
L 340.646649 -218.224588 
L 337.036133 -219.571547 
L 333.425617 -221.174222 
L 329.815101 -222.958029 
L 326.204584 -224.845355 
L 322.594068 -226.761159 
L 318.983552 -228.637775 
L 315.373036 -230.418527 
L 311.76252 -232.059942 
L 308.152004 -233.532546 
L 304.541487 -234.820373 
L 300.930971 -235.919474 
L 297.320455 -236.835747 
L 293.709939 -237.58244 
L 290.099423 -238.177623 
L 286.488907 -238.641895 
L 282.87839 -238.996455 
z
" style="stroke: #737373; stroke-width: 1.5"/>
    </defs>
    <g clip-path="url(#pb951d6cc3d)">
     <use xlink:href="#ma6bbd60332" x="0" y="335.555315" style="fill: #bfbfbf; stroke: #737373; stroke-width: 1.5"/>
    </g>
   </g>
   <g id="PolyCollection_3">
    <defs>
     <path id="mc8557e8ac2" d="M 202.851195 -180.874675 
L 202.851195 -180.951691 
L 206.135568 -180.989248 
L 209.419941 -181.043661 
L 212.704314 -181.107544 
L 215.988687 -181.164605 
L 219.273059 -181.195617 
L 222.557432 -181.188702 
L 225.841805 -181.146586 
L 229.126178 -181.084888 
L 232.410551 -181.022876 
L 235.694923 -180.974038 
L 238.979296 -180.942501 
L 242.263669 -180.925449 
L 245.548042 -180.917639 
L 248.832415 -180.914589 
L 252.116787 -180.913568 
L 255.40116 -180.913275 
L 258.685533 -180.913202 
L 261.969906 -180.913187 
L 265.254279 -180.913184 
L 268.538652 -180.913185 
L 271.823024 -180.913193 
L 275.107397 -180.913235 
L 278.39177 -180.913413 
L 281.676143 -180.914067 
L 284.960516 -180.916136 
L 288.244888 -180.921751 
L 291.529261 -180.934784 
L 294.813634 -180.960521 
L 298.098007 -181.003455 
L 301.38238 -181.063322 
L 304.666752 -181.132018 
L 307.951125 -181.195579 
L 311.235498 -181.242822 
L 314.519871 -181.276665 
L 317.804244 -181.322082 
L 321.088616 -181.431249 
L 324.372989 -181.695304 
L 327.657362 -182.269208 
L 330.941735 -183.394174 
L 334.226108 -185.373584 
L 337.510481 -188.45328 
L 340.794853 -192.606843 
L 344.079226 -197.32863 
L 347.363599 -201.619108 
L 350.647972 -204.291355 
L 353.932345 -204.503924 
L 357.216717 -202.197997 
L 360.50109 -198.127861 
L 363.785463 -193.461437 
L 367.069836 -189.237739 
L 370.354209 -186.021134 
L 373.638581 -183.882547 
L 376.922954 -182.597002 
L 380.207327 -181.866996 
L 383.4917 -181.455042 
L 386.776073 -181.215944 
L 390.060446 -181.074421 
L 393.344818 -180.992637 
L 396.629191 -180.948623 
L 399.913564 -180.927284 
L 403.197937 -180.918142 
L 406.48231 -180.914715 
L 409.766682 -180.913597 
L 413.051055 -180.913281 
L 416.335428 -180.913203 
L 419.619801 -180.913187 
L 422.904174 -180.913184 
L 426.188546 -180.913183 
L 429.472919 -180.913183 
L 432.757292 -180.913183 
L 436.041665 -180.913183 
L 439.326038 -180.913183 
L 442.61041 -180.913183 
L 445.894783 -180.913183 
L 449.179156 -180.913183 
L 452.463529 -180.913183 
L 455.747902 -180.913183 
L 459.032275 -180.913183 
L 462.316647 -180.913183 
L 465.60102 -180.913184 
L 468.885393 -180.913187 
L 472.169766 -180.913202 
L 475.454139 -180.913275 
L 478.738511 -180.913568 
L 482.022884 -180.914589 
L 485.307257 -180.917639 
L 488.59163 -180.925449 
L 491.876003 -180.942501 
L 495.160375 -180.974038 
L 498.444748 -181.022876 
L 501.729121 -181.084888 
L 505.013494 -181.146586 
L 508.297867 -181.188702 
L 511.58224 -181.195617 
L 514.866612 -181.164605 
L 518.150985 -181.107544 
L 521.435358 -181.043661 
L 524.719731 -180.989248 
L 528.004104 -180.951691 
L 528.004104 -180.874675 
L 528.004104 -180.874675 
L 524.719731 -180.837118 
L 521.435358 -180.782706 
L 518.150985 -180.718822 
L 514.866612 -180.661761 
L 511.58224 -180.630749 
L 508.297867 -180.637664 
L 505.013494 -180.67978 
L 501.729121 -180.741478 
L 498.444748 -180.80349 
L 495.160375 -180.852328 
L 491.876003 -180.883865 
L 488.59163 -180.900917 
L 485.307257 -180.908727 
L 482.022884 -180.911777 
L 478.738511 -180.912798 
L 475.454139 -180.913091 
L 472.169766 -180.913164 
L 468.885393 -180.91318 
L 465.60102 -180.913183 
L 462.316647 -180.913183 
L 459.032275 -180.913183 
L 455.747902 -180.913183 
L 452.463529 -180.913183 
L 449.179156 -180.913183 
L 445.894783 -180.913183 
L 442.61041 -180.913183 
L 439.326038 -180.913183 
L 436.041665 -180.913183 
L 432.757292 -180.913183 
L 429.472919 -180.913183 
L 426.188546 -180.913183 
L 422.904174 -180.913183 
L 419.619801 -180.91318 
L 416.335428 -180.913163 
L 413.051055 -180.913085 
L 409.766682 -180.912769 
L 406.48231 -180.911651 
L 403.197937 -180.908225 
L 399.913564 -180.899082 
L 396.629191 -180.877744 
L 393.344818 -180.833729 
L 390.060446 -180.751945 
L 386.776073 -180.610422 
L 383.4917 -180.371324 
L 380.207327 -179.959371 
L 376.922954 -179.229364 
L 373.638581 -177.94382 
L 370.354209 -175.805232 
L 367.069836 -172.588627 
L 363.785463 -168.364929 
L 360.50109 -163.698506 
L 357.216717 -159.628369 
L 353.932345 -157.322442 
L 350.647972 -157.535011 
L 347.363599 -160.207258 
L 344.079226 -164.497736 
L 340.794853 -169.219523 
L 337.510481 -173.373086 
L 334.226108 -176.452782 
L 330.941735 -178.432192 
L 327.657362 -179.557159 
L 324.372989 -180.131063 
L 321.088616 -180.395118 
L 317.804244 -180.504284 
L 314.519871 -180.549702 
L 311.235498 -180.583544 
L 307.951125 -180.630788 
L 304.666752 -180.694348 
L 301.38238 -180.763045 
L 298.098007 -180.822912 
L 294.813634 -180.865845 
L 291.529261 -180.891582 
L 288.244888 -180.904615 
L 284.960516 -180.91023 
L 281.676143 -180.912299 
L 278.39177 -180.912953 
L 275.107397 -180.913131 
L 271.823024 -180.913173 
L 268.538652 -180.913181 
L 265.254279 -180.913182 
L 261.969906 -180.91318 
L 258.685533 -180.913164 
L 255.40116 -180.913091 
L 252.116787 -180.912798 
L 248.832415 -180.911777 
L 245.548042 -180.908727 
L 242.263669 -180.900917 
L 238.979296 -180.883865 
L 235.694923 -180.852328 
L 232.410551 -180.80349 
L 229.126178 -180.741478 
L 225.841805 -180.67978 
L 222.557432 -180.637664 
L 219.273059 -180.630749 
L 215.988687 -180.661761 
L 212.704314 -180.718822 
L 209.419941 -180.782706 
L 206.135568 -180.837118 
L 202.851195 -180.874675 
z
" style="stroke: #737373; stroke-width: 1.5"/>
    </defs>
    <g clip-path="url(#pb951d6cc3d)">
     <use xlink:href="#mc8557e8ac2" x="0" y="335.555315" style="fill: #bfbfbf; stroke: #737373; stroke-width: 1.5"/>
    </g>
   </g>
   <g id="PolyCollection_4">
    <defs>
     <path id="m51bb8c6a29" d="M 277.896878 -121.916935 
L 277.896878 -121.955725 
L 279.726035 -121.997042 
L 281.555191 -122.05449 
L 283.384348 -122.079309 
L 285.213505 -122.043898 
L 287.042661 -121.986645 
L 288.871818 -121.950963 
L 290.700974 -121.938976 
L 292.530131 -121.936628 
L 294.359287 -121.936351 
L 296.188444 -121.936331 
L 298.017601 -121.93633 
L 299.846757 -121.93633 
L 301.675914 -121.93633 
L 303.50507 -121.93633 
L 305.334227 -121.93633 
L 307.163383 -121.93633 
L 308.99254 -121.93633 
L 310.821697 -121.93633 
L 312.650853 -121.93633 
L 314.48001 -121.93633 
L 316.309166 -121.93633 
L 318.138323 -121.93633 
L 319.967479 -121.93633 
L 321.796636 -121.93633 
L 323.625793 -121.93633 
L 325.454949 -121.93633 
L 327.284106 -121.936334 
L 329.113262 -121.936401 
L 330.942419 -121.93729 
L 332.771575 -121.944635 
L 334.600732 -121.983064 
L 336.429889 -122.112791 
L 338.259045 -122.412364 
L 340.088202 -122.961768 
L 341.917358 -123.954953 
L 343.746515 -125.819893 
L 345.575671 -129.048996 
L 347.404828 -133.753405 
L 349.233985 -139.163974 
L 351.063141 -143.649349 
L 352.892298 -145.527071 
L 354.721454 -143.896587 
L 356.550611 -139.221537 
L 358.379767 -133.480146 
L 360.208924 -128.868719 
L 362.038081 -126.019554 
L 363.867237 -124.257275 
L 365.696394 -123.084927 
L 367.52555 -122.438379 
L 369.354707 -122.170613 
L 371.183863 -122.052482 
L 373.01302 -121.982584 
L 374.842177 -121.948701 
L 376.671333 -121.938429 
L 378.50049 -121.936553 
L 380.329646 -121.936345 
L 382.158803 -121.936331 
L 383.987959 -121.93633 
L 385.817116 -121.93633 
L 387.646273 -121.93633 
L 389.475429 -121.93633 
L 391.304586 -121.93633 
L 393.133742 -121.93633 
L 394.962899 -121.93633 
L 396.792055 -121.93633 
L 398.621212 -121.93633 
L 400.450369 -121.93633 
L 402.279525 -121.93633 
L 404.108682 -121.93633 
L 405.937838 -121.93633 
L 407.766995 -121.93633 
L 409.596151 -121.93633 
L 411.425308 -121.93633 
L 413.254465 -121.93633 
L 415.083621 -121.93633 
L 416.912778 -121.93633 
L 418.741934 -121.93633 
L 420.571091 -121.93633 
L 422.400247 -121.93633 
L 424.229404 -121.93633 
L 426.058561 -121.93633 
L 427.887717 -121.93633 
L 429.716874 -121.93633 
L 431.54603 -121.93633 
L 433.375187 -121.93633 
L 435.204343 -121.93633 
L 437.0335 -121.93633 
L 438.862657 -121.93633 
L 440.691813 -121.936331 
L 442.52097 -121.936351 
L 444.350126 -121.936628 
L 446.179283 -121.938976 
L 448.008439 -121.950963 
L 449.837596 -121.986645 
L 451.666753 -122.043898 
L 453.495909 -122.079309 
L 455.325066 -122.05449 
L 457.154222 -121.997042 
L 458.983379 -121.955725 
L 458.983379 -121.916935 
L 458.983379 -121.916935 
L 457.154222 -121.875618 
L 455.325066 -121.818171 
L 453.495909 -121.793352 
L 451.666753 -121.828763 
L 449.837596 -121.886015 
L 448.008439 -121.921697 
L 446.179283 -121.933684 
L 444.350126 -121.936033 
L 442.52097 -121.936309 
L 440.691813 -121.936329 
L 438.862657 -121.93633 
L 437.0335 -121.93633 
L 435.204343 -121.93633 
L 433.375187 -121.93633 
L 431.54603 -121.93633 
L 429.716874 -121.93633 
L 427.887717 -121.93633 
L 426.058561 -121.93633 
L 424.229404 -121.93633 
L 422.400247 -121.93633 
L 420.571091 -121.93633 
L 418.741934 -121.93633 
L 416.912778 -121.93633 
L 415.083621 -121.93633 
L 413.254465 -121.93633 
L 411.425308 -121.93633 
L 409.596151 -121.93633 
L 407.766995 -121.93633 
L 405.937838 -121.93633 
L 404.108682 -121.93633 
L 402.279525 -121.93633 
L 400.450369 -121.93633 
L 398.621212 -121.93633 
L 396.792055 -121.93633 
L 394.962899 -121.93633 
L 393.133742 -121.93633 
L 391.304586 -121.93633 
L 389.475429 -121.93633 
L 387.646273 -121.93633 
L 385.817116 -121.93633 
L 383.987959 -121.93633 
L 382.158803 -121.93633 
L 380.329646 -121.936316 
L 378.50049 -121.936108 
L 376.671333 -121.934231 
L 374.842177 -121.923959 
L 373.01302 -121.890076 
L 371.183863 -121.820178 
L 369.354707 -121.702048 
L 367.52555 -121.434282 
L 365.696394 -120.787734 
L 363.867237 -119.615385 
L 362.038081 -117.853106 
L 360.208924 -115.003942 
L 358.379767 -110.392514 
L 356.550611 -104.651123 
L 354.721454 -99.976074 
L 352.892298 -98.345589 
L 351.063141 -100.223311 
L 349.233985 -104.708686 
L 347.404828 -110.119255 
L 345.575671 -114.823665 
L 343.746515 -118.052768 
L 341.917358 -119.917708 
L 340.088202 -120.910892 
L 338.259045 -121.460297 
L 336.429889 -121.75987 
L 334.600732 -121.889596 
L 332.771575 -121.928025 
L 330.942419 -121.935371 
L 329.113262 -121.936259 
L 327.284106 -121.936327 
L 325.454949 -121.93633 
L 323.625793 -121.93633 
L 321.796636 -121.93633 
L 319.967479 -121.93633 
L 318.138323 -121.93633 
L 316.309166 -121.93633 
L 314.48001 -121.93633 
L 312.650853 -121.93633 
L 310.821697 -121.93633 
L 308.99254 -121.93633 
L 307.163383 -121.93633 
L 305.334227 -121.93633 
L 303.50507 -121.93633 
L 301.675914 -121.93633 
L 299.846757 -121.93633 
L 298.017601 -121.93633 
L 296.188444 -121.936329 
L 294.359287 -121.936309 
L 292.530131 -121.936033 
L 290.700974 -121.933684 
L 288.871818 -121.921697 
L 287.042661 -121.886015 
L 285.213505 -121.828763 
L 283.384348 -121.793352 
L 281.555191 -121.818171 
L 279.726035 -121.875618 
L 277.896878 -121.916935 
z
" style="stroke: #737373; stroke-width: 1.5"/>
    </defs>
    <g clip-path="url(#pb951d6cc3d)">
     <use xlink:href="#m51bb8c6a29" x="0" y="335.555315" style="fill: #bfbfbf; stroke: #737373; stroke-width: 1.5"/>
    </g>
   </g>
   <g id="line2d_2">
    <path d="M 281.515536 36.688426 
L 521.732135 36.688426 
" clip-path="url(#pb951d6cc3d)" style="fill: none; stroke: #737373; stroke-width: 1.5; stroke-linecap: round"/>
   </g>
   <g id="line2d_3">
    <path d="M 350.185634 36.688426 
L 427.424314 36.688426 
" clip-path="url(#pb951d6cc3d)" style="fill: none; stroke: #737373; stroke-width: 4.5; stroke-linecap: round"/>
   </g>
   <g id="line2d_4">
    <path d="M 342.454938 95.665279 
L 359.443866 95.665279 
" clip-path="url(#pb951d6cc3d)" style="fill: none; stroke: #737373; stroke-width: 1.5; stroke-linecap: round"/>
   </g>
   <g id="line2d_5">
    <path d="M 349.721829 95.665279 
L 356.158097 95.665279 
" clip-path="url(#pb951d6cc3d)" style="fill: none; stroke: #737373; stroke-width: 4.5; stroke-linecap: round"/>
   </g>
   <g id="line2d_6">
    <path d="M 341.847553 154.642132 
L 361.022419 154.642132 
" clip-path="url(#pb951d6cc3d)" style="fill: none; stroke: #737373; stroke-width: 1.5; stroke-linecap: round"/>
   </g>
   <g id="line2d_7">
    <path d="M 349.510561 154.642132 
L 355.065017 154.642132 
" clip-path="url(#pb951d6cc3d)" style="fill: none; stroke: #737373; stroke-width: 4.5; stroke-linecap: round"/>
   </g>
   <g id="line2d_8">
    <path d="M 343.231742 213.618985 
L 363.41161 213.618985 
" clip-path="url(#pb951d6cc3d)" style="fill: none; stroke: #737373; stroke-width: 1.5; stroke-linecap: round"/>
   </g>
   <g id="line2d_9">
    <path d="M 350.09165 213.618985 
L 355.516026 213.618985 
" clip-path="url(#pb951d6cc3d)" style="fill: none; stroke: #737373; stroke-width: 4.5; stroke-linecap: round"/>
   </g>
   <g id="patch_3">
    <path d="M 163.573258 243.107412 
L 163.573258 7.2 
" style="fill: none; stroke: #262626; stroke-width: 1.25; stroke-linejoin: miter; stroke-linecap: square"/>
   </g>
   <g id="patch_4">
    <path d="M 163.573258 243.107412 
L 688.313258 243.107412 
" style="fill: none; stroke: #262626; stroke-width: 1.25; stroke-linejoin: miter; stroke-linecap: square"/>
   </g>
   <g id="PathCollection_1">
    <defs>
     <path id="m3f566908ea" d="M 0 1.5 
C 0.397805 1.5 0.77937 1.341951 1.06066 1.06066 
C 1.341951 0.77937 1.5 0.397805 1.5 0 
C 1.5 -0.397805 1.341951 -0.77937 1.06066 -1.06066 
C 0.77937 -1.341951 0.397805 -1.5 0 -1.5 
C -0.397805 -1.5 -0.77937 -1.341951 -1.06066 -1.06066 
C -1.341951 -0.77937 -1.5 -0.397805 -1.5 0 
C -1.5 0.397805 -1.341951 0.77937 -1.06066 1.06066 
C -0.77937 1.341951 -0.397805 1.5 0 1.5 
z
" style="stroke: #737373"/>
    </defs>
    <g clip-path="url(#pb951d6cc3d)">
     <use xlink:href="#m3f566908ea" x="353.286941" y="36.688426" style="fill: #ffffff; stroke: #737373"/>
    </g>
   </g>
   <g id="PathCollection_2">
    <g clip-path="url(#pb951d6cc3d)">
     <use xlink:href="#m3f566908ea" x="352.747605" y="95.665279" style="fill: #ffffff; stroke: #737373"/>
    </g>
   </g>
   <g id="PathCollection_3">
    <g clip-path="url(#pb951d6cc3d)">
     <use xlink:href="#m3f566908ea" x="352.57917" y="154.642132" style="fill: #ffffff; stroke: #737373"/>
    </g>
   </g>
   <g id="PathCollection_4">
    <g clip-path="url(#pb951d6cc3d)">
     <use xlink:href="#m3f566908ea" x="352.951949" y="213.618985" style="fill: #ffffff; stroke: #737373"/>
    </g>
   </g>
  </g>
 </g>
 <defs>
  <clipPath id="pb951d6cc3d">
   <rect x="163.573258" y="7.2" width="524.74" height="235.907412"/>
  </clipPath>
 </defs>
</svg>
