<?xml version="1.0" encoding="utf-8" standalone="no"?>
<!DOCTYPE svg PUBLIC "-//W3C//DTD SVG 1.1//EN"
  "http://www.w3.org/Graphics/SVG/1.1/DTD/svg11.dtd">
<svg height="321.687679pt" version="1.1" viewBox="0 0 337.247468 321.687679" width="337.247468pt" xmlns="http://www.w3.org/2000/svg" xmlns:xlink="http://www.w3.org/1999/xlink">
 <metadata>
  <rdf:RDF xmlns:cc="http://creativecommons.org/ns#" xmlns:dc="http://purl.org/dc/elements/1.1/" xmlns:rdf="http://www.w3.org/1999/02/22-rdf-syntax-ns#">
   <cc:Work>
    <dc:type rdf:resource="http://purl.org/dc/dcmitype/StillImage"/>
    <dc:date>2023-04-27T14:38:07.901856</dc:date>
    <dc:format>image/svg+xml</dc:format>
    <dc:creator>
     <cc:Agent>
      <dc:title>Matplotlib v3.4.3, https://matplotlib.org/</dc:title>
     </cc:Agent>
    </dc:creator>
   </cc:Work>
  </rdf:RDF>
 </metadata>
 <defs>
  <style type="text/css">*{stroke-linecap:butt;stroke-linejoin:round;}</style>
 </defs>
 <g id="figure_1">
  <g id="patch_1">
   <path d="M 0 321.687679 
L 337.247468 321.687679 
L 337.247468 0 
L 0 0 
z
" style="fill:#ffffff;"/>
  </g>
  <g id="axes_1">
   <g id="patch_2">
    <path d="M 65.449896 265.571549 
L 318.124896 265.571549 
L 318.124896 12.896549 
L 65.449896 12.896549 
z
" style="fill:#ffffff;"/>
   </g>
   <g id="matplotlib.axis_1">
    <g id="xtick_1">
     <g id="text_1">
      <text style="fill:#262626;font-family:DejaVu Sans;font-size:14.994px;font-stretch:normal;font-style:normal;font-weight:normal;text-anchor:middle;" transform="rotate(-0, 65.449896, 286.464646)" x="65.449896" y="286.464646">0.0</text>
     </g>
    </g>
    <g id="xtick_2">
     <g id="text_2">
      <text style="fill:#262626;font-family:DejaVu Sans;font-size:14.994px;font-stretch:normal;font-style:normal;font-weight:normal;text-anchor:middle;" transform="rotate(-0, 115.984896, 286.464646)" x="115.984896" y="286.464646">0.2</text>
     </g>
    </g>
    <g id="xtick_3">
     <g id="text_3">
      <text style="fill:#262626;font-family:DejaVu Sans;font-size:14.994px;font-stretch:normal;font-style:normal;font-weight:normal;text-anchor:middle;" transform="rotate(-0, 166.519896, 286.464646)" x="166.519896" y="286.464646">0.4</text>
     </g>
    </g>
    <g id="xtick_4">
     <g id="text_4">
      <text style="fill:#262626;font-family:DejaVu Sans;font-size:14.994px;font-stretch:normal;font-style:normal;font-weight:normal;text-anchor:middle;" transform="rotate(-0, 217.054896, 286.464646)" x="217.054896" y="286.464646">0.6</text>
     </g>
    </g>
    <g id="xtick_5">
     <g id="text_5">
      <text style="fill:#262626;font-family:DejaVu Sans;font-size:14.994px;font-stretch:normal;font-style:normal;font-weight:normal;text-anchor:middle;" transform="rotate(-0, 267.589896, 286.464646)" x="267.589896" y="286.464646">0.8</text>
     </g>
    </g>
    <g id="xtick_6">
     <g id="text_6">
      <text style="fill:#262626;font-family:DejaVu Sans;font-size:14.994px;font-stretch:normal;font-style:normal;font-weight:normal;text-anchor:middle;" transform="rotate(-0, 318.124896, 286.464646)" x="318.124896" y="286.464646">1.0</text>
     </g>
    </g>
    <g id="text_7">
     <text style="fill:#262626;font-family:DejaVu Sans;font-size:21.6px;font-stretch:normal;font-style:normal;font-weight:normal;text-anchor:middle;" transform="rotate(-0, 191.787396, 309.995554)" x="191.787396" y="309.995554">Percentile</text>
    </g>
   </g>
   <g id="matplotlib.axis_2">
    <g id="ytick_1">
     <g id="text_8">
      <text style="fill:#262626;font-family:DejaVu Sans;font-size:14.994px;font-stretch:normal;font-style:normal;font-weight:normal;text-anchor:end;" transform="rotate(-0, 55.949896, 271.268097)" x="55.949896" y="271.268097">0.0</text>
     </g>
    </g>
    <g id="ytick_2">
     <g id="text_9">
      <text style="fill:#262626;font-family:DejaVu Sans;font-size:14.994px;font-stretch:normal;font-style:normal;font-weight:normal;text-anchor:end;" transform="rotate(-0, 55.949896, 220.733097)" x="55.949896" y="220.733097">0.2</text>
     </g>
    </g>
    <g id="ytick_3">
     <g id="text_10">
      <text style="fill:#262626;font-family:DejaVu Sans;font-size:14.994px;font-stretch:normal;font-style:normal;font-weight:normal;text-anchor:end;" transform="rotate(-0, 55.949896, 170.198097)" x="55.949896" y="170.198097">0.4</text>
     </g>
    </g>
    <g id="ytick_4">
     <g id="text_11">
      <text style="fill:#262626;font-family:DejaVu Sans;font-size:14.994px;font-stretch:normal;font-style:normal;font-weight:normal;text-anchor:end;" transform="rotate(-0, 55.949896, 119.663097)" x="55.949896" y="119.663097">0.6</text>
     </g>
    </g>
    <g id="ytick_5">
     <g id="text_12">
      <text style="fill:#262626;font-family:DejaVu Sans;font-size:14.994px;font-stretch:normal;font-style:normal;font-weight:normal;text-anchor:end;" transform="rotate(-0, 55.949896, 69.128097)" x="55.949896" y="69.128097">0.8</text>
     </g>
    </g>
    <g id="ytick_6">
     <g id="text_13">
      <text style="fill:#262626;font-family:DejaVu Sans;font-size:14.994px;font-stretch:normal;font-style:normal;font-weight:normal;text-anchor:end;" transform="rotate(-0, 55.949896, 18.593097)" x="55.949896" y="18.593097">1.0</text>
     </g>
    </g>
    <g id="text_14">
     <text style="fill:#262626;font-family:DejaVu Sans;font-size:21.6px;font-stretch:normal;font-style:normal;font-weight:normal;text-anchor:middle;" transform="rotate(-90, 23.612625, 139.234049)" x="23.612625" y="139.234049">Modality 1 Similarity</text>
    </g>
   </g>
   <g id="line2d_1">
    <path clip-path="url(#p64deefcbef)" d="M 65.449896 185.686638 
L 68.002168 181.742033 
L 70.554441 158.643735 
L 73.106714 158.093539 
L 75.658987 155.333967 
L 78.211259 152.835709 
L 80.763532 152.791174 
L 83.315805 150.89089 
L 85.868077 148.779717 
L 88.42035 147.432804 
L 90.972623 145.768829 
L 93.524896 144.877055 
L 96.077168 143.163168 
L 98.629441 142.330866 
L 101.181714 140.768771 
L 103.733987 140.129095 
L 106.286259 139.736771 
L 108.838532 137.963666 
L 111.390805 137.894185 
L 113.943077 136.925518 
L 116.49535 136.281857 
L 119.047623 136.041648 
L 121.599896 135.197464 
L 124.152168 135.133792 
L 126.704441 135.048011 
L 129.256714 134.85684 
L 131.808987 133.234476 
L 134.361259 132.126161 
L 136.913532 131.831936 
L 139.465805 130.885673 
L 142.018077 130.256183 
L 144.57035 130.250263 
L 147.122623 130.22772 
L 149.674896 129.563462 
L 152.227168 128.854354 
L 154.779441 128.736355 
L 157.331714 128.205142 
L 159.883987 127.419661 
L 162.436259 126.805107 
L 164.988532 126.325535 
L 167.540805 125.841255 
L 170.093077 125.403133 
L 172.64535 125.191904 
L 175.197623 124.005997 
L 177.749896 123.045924 
L 180.302168 121.900475 
L 182.854441 121.80015 
L 185.406714 121.603763 
L 187.958987 121.304273 
L 190.511259 121.246248 
L 193.063532 120.276326 
L 195.615805 120.146775 
L 198.168077 119.429838 
L 200.72035 118.399526 
L 203.272623 117.636946 
L 205.824896 117.064118 
L 208.377168 116.830567 
L 210.929441 116.548624 
L 213.481714 116.311847 
L 216.033987 115.950357 
L 218.586259 115.781428 
L 221.138532 115.088797 
L 223.690805 115.0285 
L 226.243077 114.749843 
L 228.79535 114.297747 
L 231.347623 114.118986 
L 233.899896 113.203827 
L 236.452168 113.04364 
L 239.004441 113.030094 
L 241.556714 112.666804 
L 244.108987 112.533258 
L 246.661259 111.62495 
L 249.213532 111.380299 
L 251.765805 110.258081 
L 254.318077 109.830279 
L 256.87035 109.797067 
L 259.422623 109.539001 
L 261.974896 109.146389 
L 264.527168 107.397408 
L 267.079441 107.250945 
L 269.631714 106.956836 
L 272.183987 106.566432 
L 274.736259 106.312778 
L 277.288532 105.909562 
L 279.840805 104.603778 
L 282.393077 104.399875 
L 284.94535 104.204834 
L 287.497623 103.964382 
L 290.049896 102.84074 
L 292.602168 102.768443 
L 295.154441 99.714052 
L 297.706714 99.250806 
L 300.258987 98.517476 
L 302.811259 96.543636 
L 305.363532 95.781419 
L 307.915805 94.782293 
L 310.468077 91.102541 
L 313.02035 90.796323 
L 315.572623 90.397123 
L 318.124896 88.783585 
" style="fill:none;stroke:#f77189;stroke-linecap:round;stroke-width:1.5;"/>
   </g>
   <g id="line2d_2">
    <path clip-path="url(#p64deefcbef)" d="M 65.449896 211.875742 
L 68.002168 198.59986 
L 70.554441 183.625692 
L 73.106714 181.943784 
L 75.658987 180.876013 
L 78.211259 180.416775 
L 80.763532 180.222174 
L 83.315805 179.297706 
L 85.868077 178.469115 
L 88.42035 176.045861 
L 90.972623 172.443174 
L 93.524896 171.816985 
L 96.077168 170.585711 
L 98.629441 169.074805 
L 101.181714 166.619553 
L 103.733987 166.188225 
L 106.286259 166.13575 
L 108.838532 165.286684 
L 111.390805 162.484742 
L 113.943077 162.096426 
L 116.49535 160.748946 
L 119.047623 160.265326 
L 121.599896 157.664433 
L 124.152168 157.262386 
L 126.704441 154.706808 
L 129.256714 153.211415 
L 131.808987 151.652183 
L 134.361259 150.468122 
L 136.913532 149.996568 
L 139.465805 149.043892 
L 142.018077 148.337482 
L 144.57035 147.305659 
L 147.122623 147.201778 
L 149.674896 146.596881 
L 152.227168 145.992806 
L 154.779441 145.67038 
L 157.331714 143.156196 
L 159.883987 141.886496 
L 162.436259 139.03011 
L 164.988532 138.942381 
L 167.540805 137.490386 
L 170.093077 137.300946 
L 172.64535 137.290831 
L 175.197623 136.890451 
L 177.749896 136.598991 
L 180.302168 135.565752 
L 182.854441 134.194102 
L 185.406714 133.146152 
L 187.958987 131.91223 
L 190.511259 130.107216 
L 193.063532 129.36677 
L 195.615805 127.803237 
L 198.168077 127.424946 
L 200.72035 127.241472 
L 203.272623 127.095235 
L 205.824896 126.845041 
L 208.377168 126.775077 
L 210.929441 126.57488 
L 213.481714 125.226794 
L 216.033987 125.101597 
L 218.586259 123.525591 
L 221.138532 122.665201 
L 223.690805 122.199005 
L 226.243077 121.841094 
L 228.79535 121.726693 
L 231.347623 121.660387 
L 233.899896 120.745763 
L 236.452168 120.565717 
L 239.004441 120.348442 
L 241.556714 120.289895 
L 244.108987 120.116139 
L 246.661259 119.939434 
L 249.213532 119.644317 
L 251.765805 119.414657 
L 254.318077 118.069267 
L 256.87035 117.409939 
L 259.422623 116.920895 
L 261.974896 115.660379 
L 264.527168 114.467536 
L 267.079441 112.203352 
L 269.631714 112.08659 
L 272.183987 111.796527 
L 274.736259 111.504176 
L 277.288532 109.881475 
L 279.840805 109.720333 
L 282.393077 109.072408 
L 284.94535 106.591624 
L 287.497623 106.130751 
L 290.049896 103.00505 
L 292.602168 99.701357 
L 295.154441 95.391515 
L 297.706714 93.769235 
L 300.258987 92.065348 
L 302.811259 89.818753 
L 305.363532 89.678244 
L 307.915805 86.477597 
L 310.468077 83.90631 
L 313.02035 82.044487 
L 315.572623 80.357255 
L 318.124896 73.224305 
" style="fill:none;stroke:#50b131;stroke-linecap:round;stroke-width:1.5;"/>
   </g>
   <g id="line2d_3">
    <path clip-path="url(#p64deefcbef)" d="M 65.449896 144.518099 
L 68.002168 144.411621 
L 70.554441 141.424949 
L 73.106714 140.516566 
L 75.658987 130.117145 
L 78.211259 129.14295 
L 80.763532 128.739351 
L 83.315805 128.545159 
L 85.868077 128.226375 
L 88.42035 127.842904 
L 90.972623 126.371313 
L 93.524896 125.165086 
L 96.077168 124.549905 
L 98.629441 123.84143 
L 101.181714 122.247618 
L 103.733987 121.648956 
L 106.286259 120.717806 
L 108.838532 120.241686 
L 111.390805 120.223154 
L 113.943077 120.202301 
L 116.49535 118.686163 
L 119.047623 118.497684 
L 121.599896 117.962053 
L 124.152168 117.196462 
L 126.704441 116.592924 
L 129.256714 116.159599 
L 131.808987 115.957583 
L 134.361259 115.502246 
L 136.913532 115.25027 
L 139.465805 115.057339 
L 142.018077 114.76354 
L 144.57035 114.075943 
L 147.122623 113.662622 
L 149.674896 113.098691 
L 152.227168 112.949034 
L 154.779441 111.966661 
L 157.331714 111.584007 
L 159.883987 111.495689 
L 162.436259 111.357333 
L 164.988532 111.181877 
L 167.540805 109.101029 
L 170.093077 108.889128 
L 172.64535 108.695421 
L 175.197623 108.194477 
L 177.749896 107.905065 
L 180.302168 107.462154 
L 182.854441 107.038482 
L 185.406714 106.608124 
L 187.958987 106.443901 
L 190.511259 106.394098 
L 193.063532 105.805163 
L 195.615805 105.493127 
L 198.168077 105.061101 
L 200.72035 104.564362 
L 203.272623 103.361639 
L 205.824896 103.11559 
L 208.377168 102.900414 
L 210.929441 102.69684 
L 213.481714 102.286114 
L 216.033987 101.82648 
L 218.586259 101.424268 
L 221.138532 101.159048 
L 223.690805 100.695691 
L 226.243077 100.386112 
L 228.79535 100.166047 
L 231.347623 100.00808 
L 233.899896 99.445228 
L 236.452168 99.403656 
L 239.004441 98.574244 
L 241.556714 98.491118 
L 244.108987 98.155613 
L 246.661259 98.05176 
L 249.213532 97.080262 
L 251.765805 95.885126 
L 254.318077 95.445962 
L 256.87035 94.940629 
L 259.422623 94.361276 
L 261.974896 94.089223 
L 264.527168 93.103079 
L 267.079441 91.828735 
L 269.631714 90.004192 
L 272.183987 88.483883 
L 274.736259 88.074569 
L 277.288532 87.489442 
L 279.840805 87.279938 
L 282.393077 86.451408 
L 284.94535 85.52874 
L 287.497623 84.007397 
L 290.049896 83.767264 
L 292.602168 83.657789 
L 295.154441 83.496748 
L 297.706714 82.93509 
L 300.258987 82.882276 
L 302.811259 81.992849 
L 305.363532 81.539718 
L 307.915805 81.244432 
L 310.468077 77.561779 
L 313.02035 73.858137 
L 315.572623 71.379922 
L 318.124896 68.592801 
" style="fill:none;stroke:#3ba3ec;stroke-linecap:round;stroke-width:1.5;"/>
   </g>
   <g id="line2d_4">
    <path clip-path="url(#p64deefcbef)" d="M 65.449896 168.714707 
L 68.002168 158.807647 
L 70.554441 155.034509 
L 73.106714 151.688927 
L 75.658987 151.348921 
L 78.211259 150.583389 
L 80.763532 147.334032 
L 83.315805 144.917011 
L 85.868077 143.055836 
L 88.42035 142.628546 
L 90.972623 139.532281 
L 93.524896 137.915278 
L 96.077168 137.395408 
L 98.629441 137.271506 
L 101.181714 136.862918 
L 103.733987 136.078792 
L 106.286259 134.931884 
L 108.838532 134.556366 
L 111.390805 134.452435 
L 113.943077 133.953545 
L 116.49535 133.190794 
L 119.047623 132.939214 
L 121.599896 132.628845 
L 124.152168 131.344117 
L 126.704441 130.938299 
L 129.256714 130.912681 
L 131.808987 130.335448 
L 134.361259 130.079158 
L 136.913532 129.79838 
L 139.465805 129.764051 
L 142.018077 129.023538 
L 144.57035 129.010245 
L 147.122623 128.295832 
L 149.674896 127.799551 
L 152.227168 127.072966 
L 154.779441 126.929811 
L 157.331714 126.313604 
L 159.883987 126.172218 
L 162.436259 126.108161 
L 164.988532 125.785961 
L 167.540805 125.566243 
L 170.093077 125.029729 
L 172.64535 124.361439 
L 175.197623 124.037728 
L 177.749896 122.601018 
L 180.302168 122.243009 
L 182.854441 120.899421 
L 185.406714 120.867238 
L 187.958987 120.367814 
L 190.511259 120.264955 
L 193.063532 120.137753 
L 195.615805 119.730369 
L 198.168077 119.49339 
L 200.72035 119.049178 
L 203.272623 118.462615 
L 205.824896 117.986857 
L 208.377168 117.951823 
L 210.929441 117.589777 
L 213.481714 117.577221 
L 216.033987 117.084961 
L 218.586259 116.917505 
L 221.138532 116.685957 
L 223.690805 116.547557 
L 226.243077 116.485439 
L 228.79535 116.062675 
L 231.347623 114.671272 
L 233.899896 114.270789 
L 236.452168 113.503312 
L 239.004441 113.428544 
L 241.556714 112.840887 
L 244.108987 112.837393 
L 246.661259 112.538175 
L 249.213532 112.066063 
L 251.765805 110.829982 
L 254.318077 110.765135 
L 256.87035 110.536733 
L 259.422623 109.666243 
L 261.974896 109.610932 
L 264.527168 108.603994 
L 267.079441 108.192726 
L 269.631714 108.140571 
L 272.183987 107.723784 
L 274.736259 105.06973 
L 277.288532 104.80909 
L 279.840805 104.772339 
L 282.393077 103.301365 
L 284.94535 101.225798 
L 287.497623 100.670105 
L 290.049896 100.5058 
L 292.602168 99.915184 
L 295.154441 99.050085 
L 297.706714 98.857645 
L 300.258987 98.163714 
L 302.811259 98.157424 
L 305.363532 97.58178 
L 307.915805 93.520485 
L 310.468077 92.861219 
L 313.02035 90.460748 
L 315.572623 88.13466 
L 318.124896 83.962667 
" style="fill:none;stroke:#000000;stroke-linecap:round;stroke-width:6;"/>
   </g>
   <g id="patch_3">
    <path d="M 65.449896 265.571549 
L 65.449896 12.896549 
" style="fill:none;stroke:#262626;stroke-linecap:square;stroke-linejoin:miter;stroke-width:1.25;"/>
   </g>
   <g id="patch_4">
    <path d="M 65.449896 265.571549 
L 318.124896 265.571549 
" style="fill:none;stroke:#262626;stroke-linecap:square;stroke-linejoin:miter;stroke-width:1.25;"/>
   </g>
   <g id="legend_1">
    <g id="patch_5">
     <path d="M 73.149896 86.280299 
L 171.132396 86.280299 
Q 173.332396 86.280299 173.332396 84.080299 
L 173.332396 20.596549 
Q 173.332396 18.396549 171.132396 18.396549 
L 73.149896 18.396549 
Q 70.949896 18.396549 70.949896 20.596549 
L 70.949896 84.080299 
Q 70.949896 86.280299 73.149896 86.280299 
z
" style="fill:#ffffff;opacity:0.8;stroke:#cccccc;stroke-linejoin:miter;"/>
    </g>
    <g id="line2d_5">
     <path d="M 75.349896 27.30483 
L 97.349896 27.30483 
" style="fill:none;stroke:#f77189;stroke-linecap:round;stroke-width:1.5;"/>
    </g>
    <g id="line2d_6"/>
    <g id="text_15">
     <text style="fill:#262626;font-family:DejaVu Sans;font-size:11px;font-stretch:normal;font-style:normal;font-weight:normal;text-anchor:start;" transform="rotate(-0, 106.149896, 31.15483)" x="106.149896" y="31.15483">Cell Type 0</text>
    </g>
    <g id="line2d_7">
     <path d="M 75.349896 43.450767 
L 97.349896 43.450767 
" style="fill:none;stroke:#50b131;stroke-linecap:round;stroke-width:1.5;"/>
    </g>
    <g id="line2d_8"/>
    <g id="text_16">
     <text style="fill:#262626;font-family:DejaVu Sans;font-size:11px;font-stretch:normal;font-style:normal;font-weight:normal;text-anchor:start;" transform="rotate(-0, 106.149896, 47.300767)" x="106.149896" y="47.300767">Cell Type 1</text>
    </g>
    <g id="line2d_9">
     <path d="M 75.349896 59.596705 
L 97.349896 59.596705 
" style="fill:none;stroke:#3ba3ec;stroke-linecap:round;stroke-width:1.5;"/>
    </g>
    <g id="line2d_10"/>
    <g id="text_17">
     <text style="fill:#262626;font-family:DejaVu Sans;font-size:11px;font-stretch:normal;font-style:normal;font-weight:normal;text-anchor:start;" transform="rotate(-0, 106.149896, 63.446705)" x="106.149896" y="63.446705">Cell Type 2</text>
    </g>
    <g id="line2d_11">
     <path d="M 75.349896 75.742642 
L 97.349896 75.742642 
" style="fill:none;stroke:#000000;stroke-linecap:round;stroke-width:6;"/>
    </g>
    <g id="line2d_12"/>
    <g id="text_18">
     <text style="fill:#262626;font-family:DejaVu Sans;font-size:11px;font-stretch:normal;font-style:normal;font-weight:normal;text-anchor:start;" transform="rotate(-0, 106.149896, 79.592642)" x="106.149896" y="79.592642">Cumulative</text>
    </g>
   </g>
  </g>
 </g>
 <defs>
  <clipPath id="p64deefcbef">
   <rect height="252.675" width="252.675" x="65.449896" y="12.896549"/>
  </clipPath>
 </defs>
</svg>
