<?xml version="1.0" encoding="utf-8" standalone="no"?>
<!DOCTYPE svg PUBLIC "-//W3C//DTD SVG 1.1//EN"
  "http://www.w3.org/Graphics/SVG/1.1/DTD/svg11.dtd">
<svg xmlns:xlink="http://www.w3.org/1999/xlink" width="337.247468pt" height="321.687679pt" viewBox="0 0 337.247468 321.687679" xmlns="http://www.w3.org/2000/svg" version="1.1">
 <metadata>
  <rdf:RDF xmlns:dc="http://purl.org/dc/elements/1.1/" xmlns:cc="http://creativecommons.org/ns#" xmlns:rdf="http://www.w3.org/1999/02/22-rdf-syntax-ns#">
   <cc:Work>
    <dc:type rdf:resource="http://purl.org/dc/dcmitype/StillImage"/>
    <dc:date>2023-08-18T18:26:45.688901</dc:date>
    <dc:format>image/svg+xml</dc:format>
    <dc:creator>
     <cc:Agent>
      <dc:title>Matplotlib v3.7.2, https://matplotlib.org/</dc:title>
     </cc:Agent>
    </dc:creator>
   </cc:Work>
  </rdf:RDF>
 </metadata>
 <defs>
  <style type="text/css">*{stroke-linejoin: round; stroke-linecap: butt}</style>
 </defs>
 <g id="figure_1">
  <g id="patch_1">
   <path d="M 0 321.687679 
L 337.247468 321.687679 
L 337.247468 0 
L 0 0 
z
" style="fill: #ffffff"/>
  </g>
  <g id="axes_1">
   <g id="patch_2">
    <path d="M 65.449896 265.571549 
L 318.124896 265.571549 
L 318.124896 12.896549 
L 65.449896 12.896549 
z
" style="fill: #ffffff"/>
   </g>
   <g id="matplotlib.axis_1">
    <g id="xtick_1">
     <g id="text_1">
      <text style="fill: #262626; font: 14.994px 'Arial', 'DejaVu Sans', 'Liberation Sans', 'Bitstream Vera Sans', sans-serif; text-anchor: middle" x="65.449896" y="286.464646" transform="rotate(-0 65.449896 286.464646)">0.0</text>
     </g>
    </g>
    <g id="xtick_2">
     <g id="text_2">
      <text style="fill: #262626; font: 14.994px 'Arial', 'DejaVu Sans', 'Liberation Sans', 'Bitstream Vera Sans', sans-serif; text-anchor: middle" x="115.984896" y="286.464646" transform="rotate(-0 115.984896 286.464646)">0.2</text>
     </g>
    </g>
    <g id="xtick_3">
     <g id="text_3">
      <text style="fill: #262626; font: 14.994px 'Arial', 'DejaVu Sans', 'Liberation Sans', 'Bitstream Vera Sans', sans-serif; text-anchor: middle" x="166.519896" y="286.464646" transform="rotate(-0 166.519896 286.464646)">0.4</text>
     </g>
    </g>
    <g id="xtick_4">
     <g id="text_4">
      <text style="fill: #262626; font: 14.994px 'Arial', 'DejaVu Sans', 'Liberation Sans', 'Bitstream Vera Sans', sans-serif; text-anchor: middle" x="217.054896" y="286.464646" transform="rotate(-0 217.054896 286.464646)">0.6</text>
     </g>
    </g>
    <g id="xtick_5">
     <g id="text_5">
      <text style="fill: #262626; font: 14.994px 'Arial', 'DejaVu Sans', 'Liberation Sans', 'Bitstream Vera Sans', sans-serif; text-anchor: middle" x="267.589896" y="286.464646" transform="rotate(-0 267.589896 286.464646)">0.8</text>
     </g>
    </g>
    <g id="xtick_6">
     <g id="text_6">
      <text style="fill: #262626; font: 14.994px 'Arial', 'DejaVu Sans', 'Liberation Sans', 'Bitstream Vera Sans', sans-serif; text-anchor: middle" x="318.124896" y="286.464646" transform="rotate(-0 318.124896 286.464646)">1.0</text>
     </g>
    </g>
    <g id="text_7">
     <text style="fill: #262626; font: 21.6px 'Arial', 'DejaVu Sans', 'Liberation Sans', 'Bitstream Vera Sans', sans-serif; text-anchor: middle" x="191.787396" y="309.995554" transform="rotate(-0 191.787396 309.995554)">Percentile</text>
    </g>
   </g>
   <g id="matplotlib.axis_2">
    <g id="ytick_1">
     <g id="text_8">
      <text style="fill: #262626; font: 14.994px 'Arial', 'DejaVu Sans', 'Liberation Sans', 'Bitstream Vera Sans', sans-serif; text-anchor: end" x="55.949896" y="271.268097" transform="rotate(-0 55.949896 271.268097)">0.0</text>
     </g>
    </g>
    <g id="ytick_2">
     <g id="text_9">
      <text style="fill: #262626; font: 14.994px 'Arial', 'DejaVu Sans', 'Liberation Sans', 'Bitstream Vera Sans', sans-serif; text-anchor: end" x="55.949896" y="220.733097" transform="rotate(-0 55.949896 220.733097)">0.2</text>
     </g>
    </g>
    <g id="ytick_3">
     <g id="text_10">
      <text style="fill: #262626; font: 14.994px 'Arial', 'DejaVu Sans', 'Liberation Sans', 'Bitstream Vera Sans', sans-serif; text-anchor: end" x="55.949896" y="170.198097" transform="rotate(-0 55.949896 170.198097)">0.4</text>
     </g>
    </g>
    <g id="ytick_4">
     <g id="text_11">
      <text style="fill: #262626; font: 14.994px 'Arial', 'DejaVu Sans', 'Liberation Sans', 'Bitstream Vera Sans', sans-serif; text-anchor: end" x="55.949896" y="119.663097" transform="rotate(-0 55.949896 119.663097)">0.6</text>
     </g>
    </g>
    <g id="ytick_5">
     <g id="text_12">
      <text style="fill: #262626; font: 14.994px 'Arial', 'DejaVu Sans', 'Liberation Sans', 'Bitstream Vera Sans', sans-serif; text-anchor: end" x="55.949896" y="69.128097" transform="rotate(-0 55.949896 69.128097)">0.8</text>
     </g>
    </g>
    <g id="ytick_6">
     <g id="text_13">
      <text style="fill: #262626; font: 14.994px 'Arial', 'DejaVu Sans', 'Liberation Sans', 'Bitstream Vera Sans', sans-serif; text-anchor: end" x="55.949896" y="18.593097" transform="rotate(-0 55.949896 18.593097)">1.0</text>
     </g>
    </g>
    <g id="text_14">
     <text style="fill: #262626; font: 21.6px 'Arial', 'DejaVu Sans', 'Liberation Sans', 'Bitstream Vera Sans', sans-serif; text-anchor: middle" x="23.612625" y="139.234049" transform="rotate(-90 23.612625 139.234049)">Modality 2 Similarity</text>
    </g>
   </g>
   <g id="line2d_1">
    <path d="M 65.449896 173.245297 
L 68.002168 168.832856 
L 70.554441 167.929283 
L 73.106714 167.608391 
L 75.658987 167.284083 
L 78.211259 165.384595 
L 80.763532 164.457229 
L 83.315805 163.063411 
L 85.868077 161.895745 
L 88.42035 160.098715 
L 90.972623 159.764606 
L 93.524896 159.526196 
L 96.077168 156.481837 
L 98.629441 155.633121 
L 101.181714 155.227702 
L 103.733987 154.318511 
L 106.286259 154.251848 
L 108.838532 151.962401 
L 111.390805 151.273581 
L 113.943077 150.977372 
L 116.49535 150.559669 
L 119.047623 150.559611 
L 121.599896 150.42949 
L 124.152168 149.965855 
L 126.704441 149.883022 
L 129.256714 149.823539 
L 131.808987 149.566759 
L 134.361259 148.06372 
L 136.913532 147.97426 
L 139.465805 147.747238 
L 142.018077 147.651985 
L 144.57035 146.798171 
L 147.122623 145.839531 
L 149.674896 145.662378 
L 152.227168 145.588078 
L 154.779441 145.260278 
L 157.331714 145.049882 
L 159.883987 144.183197 
L 162.436259 143.544986 
L 164.988532 143.079135 
L 167.540805 143.017122 
L 170.093077 141.956567 
L 172.64535 141.424074 
L 175.197623 141.056244 
L 177.749896 140.577038 
L 180.302168 139.789534 
L 182.854441 139.75582 
L 185.406714 139.423589 
L 187.958987 138.898974 
L 190.511259 138.408526 
L 193.063532 137.714185 
L 195.615805 137.660318 
L 198.168077 137.625604 
L 200.72035 136.979335 
L 203.272623 136.080781 
L 205.824896 135.887523 
L 208.377168 135.868657 
L 210.929441 135.756402 
L 213.481714 135.675515 
L 216.033987 135.237714 
L 218.586259 134.575735 
L 221.138532 134.104388 
L 223.690805 133.59238 
L 226.243077 132.895294 
L 228.79535 132.269176 
L 231.347623 131.791566 
L 233.899896 131.642886 
L 236.452168 131.38831 
L 239.004441 131.288339 
L 241.556714 131.124975 
L 244.108987 130.943102 
L 246.661259 130.587954 
L 249.213532 130.410701 
L 251.765805 130.125904 
L 254.318077 127.932386 
L 256.87035 127.867109 
L 259.422623 126.930366 
L 261.974896 125.574394 
L 264.527168 125.499786 
L 267.079441 124.382507 
L 269.631714 123.926321 
L 272.183987 123.324455 
L 274.736259 121.005314 
L 277.288532 120.783344 
L 279.840805 120.426884 
L 282.393077 119.790037 
L 284.94535 119.701512 
L 287.497623 118.356576 
L 290.049896 117.434531 
L 292.602168 115.290315 
L 295.154441 111.247792 
L 297.706714 109.992152 
L 300.258987 109.62517 
L 302.811259 108.776515 
L 305.363532 107.147198 
L 307.915805 104.694046 
L 310.468077 102.985111 
L 313.02035 99.520834 
L 315.572623 97.693737 
L 318.124896 96.440047 
" clip-path="url(#pf111066f1d)" style="fill: none; stroke: #f77189; stroke-width: 1.5; stroke-linecap: round"/>
   </g>
   <g id="line2d_2">
    <path d="M 65.449896 203.630958 
L 68.002168 200.098164 
L 70.554441 199.635124 
L 73.106714 194.35993 
L 75.658987 192.467302 
L 78.211259 191.640398 
L 80.763532 187.093141 
L 83.315805 185.733331 
L 85.868077 183.825291 
L 88.42035 183.627065 
L 90.972623 181.632011 
L 93.524896 181.155256 
L 96.077168 178.332223 
L 98.629441 178.189489 
L 101.181714 177.93307 
L 103.733987 174.982972 
L 106.286259 174.809133 
L 108.838532 174.436612 
L 111.390805 171.810418 
L 113.943077 170.306795 
L 116.49535 169.490892 
L 119.047623 168.658082 
L 121.599896 167.895305 
L 124.152168 167.067335 
L 126.704441 167.022948 
L 129.256714 166.694028 
L 131.808987 166.52892 
L 134.361259 165.007787 
L 136.913532 164.000938 
L 139.465805 163.44963 
L 142.018077 163.391466 
L 144.57035 162.430767 
L 147.122623 162.372838 
L 149.674896 161.304633 
L 152.227168 160.897147 
L 154.779441 159.934197 
L 157.331714 156.350124 
L 159.883987 155.859459 
L 162.436259 154.378653 
L 164.988532 154.342328 
L 167.540805 154.309977 
L 170.093077 153.150436 
L 172.64535 153.109505 
L 175.197623 150.925391 
L 177.749896 150.609139 
L 180.302168 150.035562 
L 182.854441 149.330838 
L 185.406714 149.233751 
L 187.958987 148.971587 
L 190.511259 148.609632 
L 193.063532 147.179381 
L 195.615805 146.358629 
L 198.168077 145.769809 
L 200.72035 145.600996 
L 203.272623 145.37529 
L 205.824896 143.783174 
L 208.377168 143.780374 
L 210.929441 142.729861 
L 213.481714 141.9306 
L 216.033987 141.341267 
L 218.586259 141.325998 
L 221.138532 140.448355 
L 223.690805 139.211265 
L 226.243077 138.493043 
L 228.79535 138.238499 
L 231.347623 137.823646 
L 233.899896 137.49326 
L 236.452168 137.336999 
L 239.004441 137.092518 
L 241.556714 137.015032 
L 244.108987 136.864762 
L 246.661259 134.764625 
L 249.213532 134.22627 
L 251.765805 133.826121 
L 254.318077 133.524513 
L 256.87035 133.025779 
L 259.422623 132.938661 
L 261.974896 132.048875 
L 264.527168 131.73795 
L 267.079441 130.81668 
L 269.631714 129.476756 
L 272.183987 129.389629 
L 274.736259 129.28544 
L 277.288532 127.989893 
L 279.840805 125.035416 
L 282.393077 124.708412 
L 284.94535 123.645109 
L 287.497623 121.638803 
L 290.049896 121.231058 
L 292.602168 120.447421 
L 295.154441 119.974984 
L 297.706714 119.84926 
L 300.258987 117.279585 
L 302.811259 115.145566 
L 305.363532 111.350511 
L 307.915805 111.227931 
L 310.468077 109.358474 
L 313.02035 104.091579 
L 315.572623 83.224997 
L 318.124896 74.826192 
" clip-path="url(#pf111066f1d)" style="fill: none; stroke: #50b131; stroke-width: 1.5; stroke-linecap: round"/>
   </g>
   <g id="line2d_3">
    <path d="M 65.449896 165.977144 
L 68.002168 154.782781 
L 70.554441 145.975602 
L 73.106714 144.303356 
L 75.658987 141.802759 
L 78.211259 141.122863 
L 80.763532 138.7142 
L 83.315805 136.810074 
L 85.868077 136.477944 
L 88.42035 130.445884 
L 90.972623 129.042397 
L 93.524896 127.91774 
L 96.077168 124.187594 
L 98.629441 123.392609 
L 101.181714 123.196731 
L 103.733987 122.540953 
L 106.286259 122.283977 
L 108.838532 121.359259 
L 111.390805 120.772343 
L 113.943077 119.775937 
L 116.49535 119.638319 
L 119.047623 118.389768 
L 121.599896 118.049229 
L 124.152168 115.876644 
L 126.704441 114.640479 
L 129.256714 114.39637 
L 131.808987 114.343477 
L 134.361259 113.85783 
L 136.913532 113.458989 
L 139.465805 113.342254 
L 142.018077 113.236075 
L 144.57035 112.461398 
L 147.122623 112.24238 
L 149.674896 111.392606 
L 152.227168 111.086879 
L 154.779441 110.529251 
L 157.331714 110.122136 
L 159.883987 109.602858 
L 162.436259 109.325515 
L 164.988532 109.051602 
L 167.540805 108.885848 
L 170.093077 107.939524 
L 172.64535 107.263489 
L 175.197623 106.769638 
L 177.749896 106.708065 
L 180.302168 106.670465 
L 182.854441 106.633179 
L 185.406714 106.604614 
L 187.958987 105.887967 
L 190.511259 105.694411 
L 193.063532 105.531359 
L 195.615805 105.237025 
L 198.168077 104.936786 
L 200.72035 104.770615 
L 203.272623 104.712597 
L 205.824896 104.380368 
L 208.377168 104.308446 
L 210.929441 104.108828 
L 213.481714 103.960807 
L 216.033987 103.751062 
L 218.586259 103.679828 
L 221.138532 102.633289 
L 223.690805 102.56407 
L 226.243077 102.32359 
L 228.79535 102.10254 
L 231.347623 100.783323 
L 233.899896 100.715791 
L 236.452168 100.39122 
L 239.004441 100.297898 
L 241.556714 98.993985 
L 244.108987 98.171921 
L 246.661259 98.160152 
L 249.213532 96.905017 
L 251.765805 95.580711 
L 254.318077 95.019621 
L 256.87035 94.726896 
L 259.422623 93.454175 
L 261.974896 93.038001 
L 264.527168 92.643477 
L 267.079441 91.046814 
L 269.631714 90.762454 
L 272.183987 90.715253 
L 274.736259 90.693747 
L 277.288532 89.485067 
L 279.840805 89.305563 
L 282.393077 88.282874 
L 284.94535 88.27851 
L 287.497623 87.967367 
L 290.049896 87.95182 
L 292.602168 86.236447 
L 295.154441 85.458445 
L 297.706714 85.308024 
L 300.258987 85.215001 
L 302.811259 83.287329 
L 305.363532 83.257945 
L 307.915805 82.762116 
L 310.468077 80.656353 
L 313.02035 78.711932 
L 315.572623 78.460444 
L 318.124896 75.047711 
" clip-path="url(#pf111066f1d)" style="fill: none; stroke: #3ba3ec; stroke-width: 1.5; stroke-linecap: round"/>
   </g>
   <g id="line2d_4">
    <path d="M 65.449896 155.82305 
L 68.002168 155.037584 
L 70.554441 153.57923 
L 73.106714 153.134639 
L 75.658987 151.539527 
L 78.211259 150.194442 
L 80.763532 150.028861 
L 83.315805 148.432525 
L 85.868077 147.779487 
L 88.42035 146.623067 
L 90.972623 146.389079 
L 93.524896 145.603368 
L 96.077168 145.369414 
L 98.629441 145.29431 
L 101.181714 143.789334 
L 103.733987 143.015658 
L 106.286259 142.875626 
L 108.838532 142.511684 
L 111.390805 142.296822 
L 113.943077 140.279609 
L 116.49535 139.920657 
L 119.047623 139.722446 
L 121.599896 139.690877 
L 124.152168 139.482188 
L 126.704441 139.336553 
L 129.256714 139.043008 
L 131.808987 138.857649 
L 134.361259 138.356233 
L 136.913532 137.441097 
L 139.465805 137.392024 
L 142.018077 137.133402 
L 144.57035 136.576607 
L 147.122623 136.311351 
L 149.674896 135.890749 
L 152.227168 135.786153 
L 154.779441 135.244863 
L 157.331714 134.958842 
L 159.883987 134.737071 
L 162.436259 134.54859 
L 164.988532 134.396755 
L 167.540805 134.202614 
L 170.093077 134.084472 
L 172.64535 133.296432 
L 175.197623 133.094353 
L 177.749896 133.018908 
L 180.302168 132.884629 
L 182.854441 132.420776 
L 185.406714 132.319499 
L 187.958987 132.204727 
L 190.511259 132.173765 
L 193.063532 131.298068 
L 195.615805 131.187549 
L 198.168077 130.832788 
L 200.72035 129.653587 
L 203.272623 129.568149 
L 205.824896 129.535103 
L 208.377168 128.915128 
L 210.929441 128.460328 
L 213.481714 128.435686 
L 216.033987 128.069421 
L 218.586259 127.898726 
L 221.138532 127.709742 
L 223.690805 127.564339 
L 226.243077 126.649903 
L 228.79535 126.621032 
L 231.347623 126.35877 
L 233.899896 126.000893 
L 236.452168 125.891926 
L 239.004441 125.241872 
L 241.556714 124.796179 
L 244.108987 124.778524 
L 246.661259 124.228991 
L 249.213532 123.429737 
L 251.765805 123.275885 
L 254.318077 122.98605 
L 256.87035 122.688138 
L 259.422623 122.213549 
L 261.974896 122.123967 
L 264.527168 121.490964 
L 267.079441 121.375952 
L 269.631714 121.359404 
L 272.183987 120.842008 
L 274.736259 120.758512 
L 277.288532 120.733728 
L 279.840805 120.277127 
L 282.393077 119.901084 
L 284.94535 119.808185 
L 287.497623 119.456542 
L 290.049896 118.616094 
L 292.602168 118.44151 
L 295.154441 117.962102 
L 297.706714 117.439036 
L 300.258987 116.176584 
L 302.811259 115.242436 
L 305.363532 114.625402 
L 307.915805 112.533247 
L 310.468077 111.232588 
L 313.02035 109.657454 
L 315.572623 108.779338 
L 318.124896 106.895233 
" clip-path="url(#pf111066f1d)" style="fill: none; stroke: #000000; stroke-width: 6; stroke-linecap: round"/>
   </g>
   <g id="patch_3">
    <path d="M 65.449896 265.571549 
L 65.449896 12.896549 
" style="fill: none; stroke: #262626; stroke-width: 1.25; stroke-linejoin: miter; stroke-linecap: square"/>
   </g>
   <g id="patch_4">
    <path d="M 65.449896 265.571549 
L 318.124896 265.571549 
" style="fill: none; stroke: #262626; stroke-width: 1.25; stroke-linejoin: miter; stroke-linecap: square"/>
   </g>
   <g id="legend_1">
    <g id="patch_5">
     <path d="M 73.149896 86.280299 
L 171.132396 86.280299 
Q 173.332396 86.280299 173.332396 84.080299 
L 173.332396 20.596549 
Q 173.332396 18.396549 171.132396 18.396549 
L 73.149896 18.396549 
Q 70.949896 18.396549 70.949896 20.596549 
L 70.949896 84.080299 
Q 70.949896 86.280299 73.149896 86.280299 
z
" style="fill: #ffffff; opacity: 0.8; stroke: #cccccc; stroke-linejoin: miter"/>
    </g>
    <g id="line2d_5">
     <path d="M 75.349896 27.30483 
L 86.349896 27.30483 
L 97.349896 27.30483 
" style="fill: none; stroke: #f77189; stroke-width: 1.5; stroke-linecap: round"/>
    </g>
    <g id="text_15">
     <text style="fill: #262626; font: 11px 'Arial', 'DejaVu Sans', 'Liberation Sans', 'Bitstream Vera Sans', sans-serif; text-anchor: start" x="106.149896" y="31.15483" transform="rotate(-0 106.149896 31.15483)">Cell Type 0</text>
    </g>
    <g id="line2d_6">
     <path d="M 75.349896 43.450767 
L 86.349896 43.450767 
L 97.349896 43.450767 
" style="fill: none; stroke: #50b131; stroke-width: 1.5; stroke-linecap: round"/>
    </g>
    <g id="text_16">
     <text style="fill: #262626; font: 11px 'Arial', 'DejaVu Sans', 'Liberation Sans', 'Bitstream Vera Sans', sans-serif; text-anchor: start" x="106.149896" y="47.300767" transform="rotate(-0 106.149896 47.300767)">Cell Type 1</text>
    </g>
    <g id="line2d_7">
     <path d="M 75.349896 59.596705 
L 86.349896 59.596705 
L 97.349896 59.596705 
" style="fill: none; stroke: #3ba3ec; stroke-width: 1.5; stroke-linecap: round"/>
    </g>
    <g id="text_17">
     <text style="fill: #262626; font: 11px 'Arial', 'DejaVu Sans', 'Liberation Sans', 'Bitstream Vera Sans', sans-serif; text-anchor: start" x="106.149896" y="63.446705" transform="rotate(-0 106.149896 63.446705)">Cell Type 2</text>
    </g>
    <g id="line2d_8">
     <path d="M 75.349896 75.742642 
L 86.349896 75.742642 
L 97.349896 75.742642 
" style="fill: none; stroke: #000000; stroke-width: 6; stroke-linecap: round"/>
    </g>
    <g id="text_18">
     <text style="fill: #262626; font: 11px 'Arial', 'DejaVu Sans', 'Liberation Sans', 'Bitstream Vera Sans', sans-serif; text-anchor: start" x="106.149896" y="79.592642" transform="rotate(-0 106.149896 79.592642)">Cumulative</text>
    </g>
   </g>
  </g>
 </g>
 <defs>
  <clipPath id="pf111066f1d">
   <rect x="65.449896" y="12.896549" width="252.675" height="252.675"/>
  </clipPath>
 </defs>
</svg>
