<?xml version="1.0" encoding="utf-8" standalone="no"?>
<!DOCTYPE svg PUBLIC "-//W3C//DTD SVG 1.1//EN"
  "http://www.w3.org/Graphics/SVG/1.1/DTD/svg11.dtd">
<svg xmlns:xlink="http://www.w3.org/1999/xlink" width="337.247468pt" height="321.687679pt" viewBox="0 0 337.247468 321.687679" xmlns="http://www.w3.org/2000/svg" version="1.1">
 <metadata>
  <rdf:RDF xmlns:dc="http://purl.org/dc/elements/1.1/" xmlns:cc="http://creativecommons.org/ns#" xmlns:rdf="http://www.w3.org/1999/02/22-rdf-syntax-ns#">
   <cc:Work>
    <dc:type rdf:resource="http://purl.org/dc/dcmitype/StillImage"/>
    <dc:date>2023-08-18T18:26:20.026617</dc:date>
    <dc:format>image/svg+xml</dc:format>
    <dc:creator>
     <cc:Agent>
      <dc:title>Matplotlib v3.7.2, https://matplotlib.org/</dc:title>
     </cc:Agent>
    </dc:creator>
   </cc:Work>
  </rdf:RDF>
 </metadata>
 <defs>
  <style type="text/css">*{stroke-linejoin: round; stroke-linecap: butt}</style>
 </defs>
 <g id="figure_1">
  <g id="patch_1">
   <path d="M 0 321.687679 
L 337.247468 321.687679 
L 337.247468 0 
L 0 0 
z
" style="fill: #ffffff"/>
  </g>
  <g id="axes_1">
   <g id="patch_2">
    <path d="M 65.449896 265.571549 
L 318.124896 265.571549 
L 318.124896 12.896549 
L 65.449896 12.896549 
z
" style="fill: #ffffff"/>
   </g>
   <g id="matplotlib.axis_1">
    <g id="xtick_1">
     <g id="text_1">
      <text style="fill: #262626; font: 14.994px 'Arial', 'DejaVu Sans', 'Liberation Sans', 'Bitstream Vera Sans', sans-serif; text-anchor: middle" x="65.449896" y="286.464646" transform="rotate(-0 65.449896 286.464646)">0.0</text>
     </g>
    </g>
    <g id="xtick_2">
     <g id="text_2">
      <text style="fill: #262626; font: 14.994px 'Arial', 'DejaVu Sans', 'Liberation Sans', 'Bitstream Vera Sans', sans-serif; text-anchor: middle" x="115.984896" y="286.464646" transform="rotate(-0 115.984896 286.464646)">0.2</text>
     </g>
    </g>
    <g id="xtick_3">
     <g id="text_3">
      <text style="fill: #262626; font: 14.994px 'Arial', 'DejaVu Sans', 'Liberation Sans', 'Bitstream Vera Sans', sans-serif; text-anchor: middle" x="166.519896" y="286.464646" transform="rotate(-0 166.519896 286.464646)">0.4</text>
     </g>
    </g>
    <g id="xtick_4">
     <g id="text_4">
      <text style="fill: #262626; font: 14.994px 'Arial', 'DejaVu Sans', 'Liberation Sans', 'Bitstream Vera Sans', sans-serif; text-anchor: middle" x="217.054896" y="286.464646" transform="rotate(-0 217.054896 286.464646)">0.6</text>
     </g>
    </g>
    <g id="xtick_5">
     <g id="text_5">
      <text style="fill: #262626; font: 14.994px 'Arial', 'DejaVu Sans', 'Liberation Sans', 'Bitstream Vera Sans', sans-serif; text-anchor: middle" x="267.589896" y="286.464646" transform="rotate(-0 267.589896 286.464646)">0.8</text>
     </g>
    </g>
    <g id="xtick_6">
     <g id="text_6">
      <text style="fill: #262626; font: 14.994px 'Arial', 'DejaVu Sans', 'Liberation Sans', 'Bitstream Vera Sans', sans-serif; text-anchor: middle" x="318.124896" y="286.464646" transform="rotate(-0 318.124896 286.464646)">1.0</text>
     </g>
    </g>
    <g id="text_7">
     <text style="fill: #262626; font: 21.6px 'Arial', 'DejaVu Sans', 'Liberation Sans', 'Bitstream Vera Sans', sans-serif; text-anchor: middle" x="191.787396" y="309.995554" transform="rotate(-0 191.787396 309.995554)">Percentile</text>
    </g>
   </g>
   <g id="matplotlib.axis_2">
    <g id="ytick_1">
     <g id="text_8">
      <text style="fill: #262626; font: 14.994px 'Arial', 'DejaVu Sans', 'Liberation Sans', 'Bitstream Vera Sans', sans-serif; text-anchor: end" x="55.949896" y="271.268097" transform="rotate(-0 55.949896 271.268097)">0.0</text>
     </g>
    </g>
    <g id="ytick_2">
     <g id="text_9">
      <text style="fill: #262626; font: 14.994px 'Arial', 'DejaVu Sans', 'Liberation Sans', 'Bitstream Vera Sans', sans-serif; text-anchor: end" x="55.949896" y="220.733097" transform="rotate(-0 55.949896 220.733097)">0.2</text>
     </g>
    </g>
    <g id="ytick_3">
     <g id="text_10">
      <text style="fill: #262626; font: 14.994px 'Arial', 'DejaVu Sans', 'Liberation Sans', 'Bitstream Vera Sans', sans-serif; text-anchor: end" x="55.949896" y="170.198097" transform="rotate(-0 55.949896 170.198097)">0.4</text>
     </g>
    </g>
    <g id="ytick_4">
     <g id="text_11">
      <text style="fill: #262626; font: 14.994px 'Arial', 'DejaVu Sans', 'Liberation Sans', 'Bitstream Vera Sans', sans-serif; text-anchor: end" x="55.949896" y="119.663097" transform="rotate(-0 55.949896 119.663097)">0.6</text>
     </g>
    </g>
    <g id="ytick_5">
     <g id="text_12">
      <text style="fill: #262626; font: 14.994px 'Arial', 'DejaVu Sans', 'Liberation Sans', 'Bitstream Vera Sans', sans-serif; text-anchor: end" x="55.949896" y="69.128097" transform="rotate(-0 55.949896 69.128097)">0.8</text>
     </g>
    </g>
    <g id="ytick_6">
     <g id="text_13">
      <text style="fill: #262626; font: 14.994px 'Arial', 'DejaVu Sans', 'Liberation Sans', 'Bitstream Vera Sans', sans-serif; text-anchor: end" x="55.949896" y="18.593097" transform="rotate(-0 55.949896 18.593097)">1.0</text>
     </g>
    </g>
    <g id="text_14">
     <text style="fill: #262626; font: 21.6px 'Arial', 'DejaVu Sans', 'Liberation Sans', 'Bitstream Vera Sans', sans-serif; text-anchor: middle" x="23.612625" y="139.234049" transform="rotate(-90 23.612625 139.234049)">Modality 1 Similarity</text>
    </g>
   </g>
   <g id="line2d_1">
    <path d="M 65.449896 199.261034 
L 68.002168 187.574354 
L 70.554441 182.377129 
L 73.106714 180.306273 
L 75.658987 163.793784 
L 78.211259 160.983947 
L 80.763532 157.456497 
L 83.315805 151.87921 
L 85.868077 149.949726 
L 88.42035 147.970798 
L 90.972623 147.379616 
L 93.524896 146.550625 
L 96.077168 146.260644 
L 98.629441 144.889492 
L 101.181714 143.85217 
L 103.733987 143.063058 
L 106.286259 142.570854 
L 108.838532 140.582422 
L 111.390805 139.958595 
L 113.943077 139.740572 
L 116.49535 137.068949 
L 119.047623 136.728464 
L 121.599896 136.403957 
L 124.152168 136.241647 
L 126.704441 134.980432 
L 129.256714 134.277229 
L 131.808987 133.551678 
L 134.361259 133.24746 
L 136.913532 132.865716 
L 139.465805 132.325049 
L 142.018077 131.975839 
L 144.57035 131.181932 
L 147.122623 130.96591 
L 149.674896 130.787039 
L 152.227168 129.827376 
L 154.779441 129.569992 
L 157.331714 129.532872 
L 159.883987 129.286934 
L 162.436259 128.736972 
L 164.988532 128.540422 
L 167.540805 128.501114 
L 170.093077 128.360618 
L 172.64535 128.063024 
L 175.197623 126.689466 
L 177.749896 126.573851 
L 180.302168 126.448344 
L 182.854441 125.929281 
L 185.406714 125.6447 
L 187.958987 125.23966 
L 190.511259 124.888575 
L 193.063532 124.524466 
L 195.615805 124.266146 
L 198.168077 124.031823 
L 200.72035 122.767652 
L 203.272623 121.168933 
L 205.824896 120.975466 
L 208.377168 119.95511 
L 210.929441 119.580969 
L 213.481714 118.901979 
L 216.033987 118.443177 
L 218.586259 117.763035 
L 221.138532 117.61903 
L 223.690805 117.193392 
L 226.243077 116.912 
L 228.79535 116.766071 
L 231.347623 116.043783 
L 233.899896 115.665978 
L 236.452168 115.560079 
L 239.004441 115.050097 
L 241.556714 115.048552 
L 244.108987 114.890968 
L 246.661259 114.498071 
L 249.213532 114.267373 
L 251.765805 114.230862 
L 254.318077 114.166666 
L 256.87035 114.106945 
L 259.422623 113.949529 
L 261.974896 113.790742 
L 264.527168 113.583599 
L 267.079441 112.642818 
L 269.631714 111.875772 
L 272.183987 109.655368 
L 274.736259 109.10184 
L 277.288532 108.142544 
L 279.840805 106.893638 
L 282.393077 105.094345 
L 284.94535 104.948774 
L 287.497623 104.846937 
L 290.049896 104.768597 
L 292.602168 104.450412 
L 295.154441 103.625806 
L 297.706714 102.071167 
L 300.258987 101.946461 
L 302.811259 101.604821 
L 305.363532 99.760443 
L 307.915805 98.237786 
L 310.468077 92.980218 
L 313.02035 92.445857 
L 315.572623 84.085948 
L 318.124896 80.141336 
" clip-path="url(#p285659127d)" style="fill: none; stroke: #f77189; stroke-width: 1.5; stroke-linecap: round"/>
   </g>
   <g id="line2d_2">
    <path d="M 65.449896 217.996909 
L 68.002168 201.163289 
L 70.554441 194.758345 
L 73.106714 190.844524 
L 75.658987 189.727788 
L 78.211259 187.988034 
L 80.763532 187.448945 
L 83.315805 185.147356 
L 85.868077 180.909303 
L 88.42035 177.699902 
L 90.972623 175.607076 
L 93.524896 174.838482 
L 96.077168 174.689655 
L 98.629441 174.221183 
L 101.181714 173.609504 
L 103.733987 173.422664 
L 106.286259 171.587598 
L 108.838532 170.246822 
L 111.390805 169.43074 
L 113.943077 169.305141 
L 116.49535 168.42904 
L 119.047623 167.963033 
L 121.599896 166.875616 
L 124.152168 166.508678 
L 126.704441 165.148184 
L 129.256714 164.294517 
L 131.808987 164.175344 
L 134.361259 164.095157 
L 136.913532 163.39739 
L 139.465805 162.242349 
L 142.018077 161.632102 
L 144.57035 160.410094 
L 147.122623 159.659789 
L 149.674896 157.907731 
L 152.227168 155.431917 
L 154.779441 154.565514 
L 157.331714 154.015934 
L 159.883987 153.285203 
L 162.436259 153.248075 
L 164.988532 152.683935 
L 167.540805 151.993066 
L 170.093077 150.621166 
L 172.64535 148.944814 
L 175.197623 148.68978 
L 177.749896 146.57703 
L 180.302168 142.794228 
L 182.854441 141.648999 
L 185.406714 141.39339 
L 187.958987 141.29053 
L 190.511259 139.847089 
L 193.063532 138.971683 
L 195.615805 138.405629 
L 198.168077 138.39503 
L 200.72035 137.224087 
L 203.272623 136.973395 
L 205.824896 136.713489 
L 208.377168 136.675823 
L 210.929441 135.94726 
L 213.481714 135.894502 
L 216.033987 135.403788 
L 218.586259 133.419736 
L 221.138532 132.800153 
L 223.690805 130.336333 
L 226.243077 129.043109 
L 228.79535 128.600727 
L 231.347623 127.692367 
L 233.899896 126.759183 
L 236.452168 125.035607 
L 239.004441 124.362463 
L 241.556714 123.92429 
L 244.108987 122.164131 
L 246.661259 121.602579 
L 249.213532 120.415145 
L 251.765805 120.328874 
L 254.318077 114.939118 
L 256.87035 113.704582 
L 259.422623 112.800974 
L 261.974896 112.206858 
L 264.527168 110.782682 
L 267.079441 110.380153 
L 269.631714 109.854305 
L 272.183987 104.70744 
L 274.736259 103.030973 
L 277.288532 102.09479 
L 279.840805 98.503559 
L 282.393077 97.698642 
L 284.94535 97.161999 
L 287.497623 97.071525 
L 290.049896 96.515392 
L 292.602168 96.059924 
L 295.154441 93.020089 
L 297.706714 92.34315 
L 300.258987 89.455877 
L 302.811259 86.370538 
L 305.363532 84.251289 
L 307.915805 81.598911 
L 310.468077 79.86042 
L 313.02035 78.706412 
L 315.572623 76.245658 
L 318.124896 70.173057 
" clip-path="url(#p285659127d)" style="fill: none; stroke: #50b131; stroke-width: 1.5; stroke-linecap: round"/>
   </g>
   <g id="line2d_3">
    <path d="M 65.449896 190.730918 
L 68.002168 162.092054 
L 70.554441 160.449978 
L 73.106714 147.698128 
L 75.658987 145.216741 
L 78.211259 144.791058 
L 80.763532 144.765993 
L 83.315805 140.057132 
L 85.868077 138.155352 
L 88.42035 137.614201 
L 90.972623 135.706875 
L 93.524896 134.719408 
L 96.077168 133.508665 
L 98.629441 130.697527 
L 101.181714 129.347272 
L 103.733987 128.106787 
L 106.286259 128.090017 
L 108.838532 128.06056 
L 111.390805 126.616486 
L 113.943077 126.329118 
L 116.49535 126.200791 
L 119.047623 125.838208 
L 121.599896 125.766344 
L 124.152168 125.408542 
L 126.704441 125.18021 
L 129.256714 125.056062 
L 131.808987 125.051863 
L 134.361259 124.457188 
L 136.913532 124.290001 
L 139.465805 124.00741 
L 142.018077 123.823167 
L 144.57035 122.411793 
L 147.122623 121.867803 
L 149.674896 121.266554 
L 152.227168 120.68526 
L 154.779441 120.484777 
L 157.331714 120.175592 
L 159.883987 120.102172 
L 162.436259 119.063506 
L 164.988532 118.647934 
L 167.540805 118.24509 
L 170.093077 118.023061 
L 172.64535 116.293382 
L 175.197623 115.981549 
L 177.749896 115.915472 
L 180.302168 114.444906 
L 182.854441 113.655307 
L 185.406714 113.418975 
L 187.958987 112.875766 
L 190.511259 112.736939 
L 193.063532 112.38865 
L 195.615805 111.562003 
L 198.168077 111.538093 
L 200.72035 111.373664 
L 203.272623 111.370885 
L 205.824896 111.207768 
L 208.377168 110.880611 
L 210.929441 110.163246 
L 213.481714 109.72414 
L 216.033987 109.415269 
L 218.586259 109.117357 
L 221.138532 108.997242 
L 223.690805 108.215099 
L 226.243077 107.164118 
L 228.79535 107.080658 
L 231.347623 106.179507 
L 233.899896 105.551428 
L 236.452168 105.179667 
L 239.004441 104.953503 
L 241.556714 104.588274 
L 244.108987 104.508134 
L 246.661259 104.437008 
L 249.213532 104.374797 
L 251.765805 102.772918 
L 254.318077 102.739625 
L 256.87035 102.665409 
L 259.422623 102.392973 
L 261.974896 100.962395 
L 264.527168 100.943912 
L 267.079441 100.603199 
L 269.631714 100.373225 
L 272.183987 97.668793 
L 274.736259 96.824498 
L 277.288532 95.843001 
L 279.840805 94.369722 
L 282.393077 94.23304 
L 284.94535 94.086531 
L 287.497623 94.022067 
L 290.049896 91.974989 
L 292.602168 91.160196 
L 295.154441 90.84724 
L 297.706714 90.176108 
L 300.258987 89.942657 
L 302.811259 87.446837 
L 305.363532 85.649611 
L 307.915805 84.843128 
L 310.468077 84.554957 
L 313.02035 81.791851 
L 315.572623 79.104759 
L 318.124896 66.327878 
" clip-path="url(#p285659127d)" style="fill: none; stroke: #3ba3ec; stroke-width: 1.5; stroke-linecap: round"/>
   </g>
   <g id="line2d_4">
    <path d="M 65.449896 181.807956 
L 68.002168 174.199071 
L 70.554441 157.121929 
L 73.106714 154.781658 
L 75.658987 153.220649 
L 78.211259 151.950062 
L 80.763532 151.637554 
L 83.315805 149.673874 
L 85.868077 149.034913 
L 88.42035 148.724693 
L 90.972623 147.772369 
L 93.524896 147.618415 
L 96.077168 146.991372 
L 98.629441 146.814677 
L 101.181714 143.191757 
L 103.733987 142.549646 
L 106.286259 142.169632 
L 108.838532 141.649175 
L 111.390805 140.327964 
L 113.943077 139.031514 
L 116.49535 138.891995 
L 119.047623 138.828154 
L 121.599896 138.401347 
L 124.152168 138.229047 
L 126.704441 138.021191 
L 129.256714 137.532357 
L 131.808987 137.311232 
L 134.361259 137.164069 
L 136.913532 136.743554 
L 139.465805 136.711747 
L 142.018077 135.533722 
L 144.57035 133.763371 
L 147.122623 132.705317 
L 149.674896 132.704574 
L 152.227168 131.591204 
L 154.779441 131.557141 
L 157.331714 131.026108 
L 159.883987 130.928042 
L 162.436259 130.901657 
L 164.988532 130.716784 
L 167.540805 130.165097 
L 170.093077 128.850488 
L 172.64535 128.495993 
L 175.197623 127.882017 
L 177.749896 127.82661 
L 180.302168 127.717231 
L 182.854441 126.946396 
L 185.406714 126.928767 
L 187.958987 126.765302 
L 190.511259 126.312801 
L 193.063532 126.012254 
L 195.615805 125.535531 
L 198.168077 123.599639 
L 200.72035 123.15165 
L 203.272623 123.103193 
L 205.824896 122.995624 
L 208.377168 122.908431 
L 210.929441 122.390346 
L 213.481714 121.95566 
L 216.033987 121.713571 
L 218.586259 121.280363 
L 221.138532 120.347524 
L 223.690805 119.458002 
L 226.243077 119.216287 
L 228.79535 119.008903 
L 231.347623 118.606299 
L 233.899896 118.535274 
L 236.452168 118.099105 
L 239.004441 118.064961 
L 241.556714 117.799073 
L 244.108987 117.759597 
L 246.661259 117.320569 
L 249.213532 116.937667 
L 251.765805 116.577006 
L 254.318077 115.578431 
L 256.87035 115.438445 
L 259.422623 115.436604 
L 261.974896 113.547548 
L 264.527168 112.818052 
L 267.079441 111.700069 
L 269.631714 111.616205 
L 272.183987 111.579972 
L 274.736259 110.736335 
L 277.288532 110.058989 
L 279.840805 109.941518 
L 282.393077 109.525481 
L 284.94535 108.99792 
L 287.497623 108.701659 
L 290.049896 107.30383 
L 292.602168 106.583717 
L 295.154441 102.205363 
L 297.706714 101.671935 
L 300.258987 100.997431 
L 302.811259 100.057658 
L 305.363532 99.592536 
L 307.915805 99.007218 
L 310.468077 98.566146 
L 313.02035 97.894961 
L 315.572623 97.099215 
L 318.124896 93.991327 
" clip-path="url(#p285659127d)" style="fill: none; stroke: #000000; stroke-width: 6; stroke-linecap: round"/>
   </g>
   <g id="patch_3">
    <path d="M 65.449896 265.571549 
L 65.449896 12.896549 
" style="fill: none; stroke: #262626; stroke-width: 1.25; stroke-linejoin: miter; stroke-linecap: square"/>
   </g>
   <g id="patch_4">
    <path d="M 65.449896 265.571549 
L 318.124896 265.571549 
" style="fill: none; stroke: #262626; stroke-width: 1.25; stroke-linejoin: miter; stroke-linecap: square"/>
   </g>
   <g id="legend_1">
    <g id="patch_5">
     <path d="M 73.149896 86.280299 
L 171.132396 86.280299 
Q 173.332396 86.280299 173.332396 84.080299 
L 173.332396 20.596549 
Q 173.332396 18.396549 171.132396 18.396549 
L 73.149896 18.396549 
Q 70.949896 18.396549 70.949896 20.596549 
L 70.949896 84.080299 
Q 70.949896 86.280299 73.149896 86.280299 
z
" style="fill: #ffffff; opacity: 0.8; stroke: #cccccc; stroke-linejoin: miter"/>
    </g>
    <g id="line2d_5">
     <path d="M 75.349896 27.30483 
L 86.349896 27.30483 
L 97.349896 27.30483 
" style="fill: none; stroke: #f77189; stroke-width: 1.5; stroke-linecap: round"/>
    </g>
    <g id="text_15">
     <text style="fill: #262626; font: 11px 'Arial', 'DejaVu Sans', 'Liberation Sans', 'Bitstream Vera Sans', sans-serif; text-anchor: start" x="106.149896" y="31.15483" transform="rotate(-0 106.149896 31.15483)">Cell Type 0</text>
    </g>
    <g id="line2d_6">
     <path d="M 75.349896 43.450767 
L 86.349896 43.450767 
L 97.349896 43.450767 
" style="fill: none; stroke: #50b131; stroke-width: 1.5; stroke-linecap: round"/>
    </g>
    <g id="text_16">
     <text style="fill: #262626; font: 11px 'Arial', 'DejaVu Sans', 'Liberation Sans', 'Bitstream Vera Sans', sans-serif; text-anchor: start" x="106.149896" y="47.300767" transform="rotate(-0 106.149896 47.300767)">Cell Type 1</text>
    </g>
    <g id="line2d_7">
     <path d="M 75.349896 59.596705 
L 86.349896 59.596705 
L 97.349896 59.596705 
" style="fill: none; stroke: #3ba3ec; stroke-width: 1.5; stroke-linecap: round"/>
    </g>
    <g id="text_17">
     <text style="fill: #262626; font: 11px 'Arial', 'DejaVu Sans', 'Liberation Sans', 'Bitstream Vera Sans', sans-serif; text-anchor: start" x="106.149896" y="63.446705" transform="rotate(-0 106.149896 63.446705)">Cell Type 2</text>
    </g>
    <g id="line2d_8">
     <path d="M 75.349896 75.742642 
L 86.349896 75.742642 
L 97.349896 75.742642 
" style="fill: none; stroke: #000000; stroke-width: 6; stroke-linecap: round"/>
    </g>
    <g id="text_18">
     <text style="fill: #262626; font: 11px 'Arial', 'DejaVu Sans', 'Liberation Sans', 'Bitstream Vera Sans', sans-serif; text-anchor: start" x="106.149896" y="79.592642" transform="rotate(-0 106.149896 79.592642)">Cumulative</text>
    </g>
   </g>
  </g>
 </g>
 <defs>
  <clipPath id="p285659127d">
   <rect x="65.449896" y="12.896549" width="252.675" height="252.675"/>
  </clipPath>
 </defs>
</svg>
