<?xml version="1.0" encoding="utf-8" standalone="no"?>
<!DOCTYPE svg PUBLIC "-//W3C//DTD SVG 1.1//EN"
  "http://www.w3.org/Graphics/SVG/1.1/DTD/svg11.dtd">
<svg height="321.687679pt" version="1.1" viewBox="0 0 337.247468 321.687679" width="337.247468pt" xmlns="http://www.w3.org/2000/svg" xmlns:xlink="http://www.w3.org/1999/xlink">
 <metadata>
  <rdf:RDF xmlns:cc="http://creativecommons.org/ns#" xmlns:dc="http://purl.org/dc/elements/1.1/" xmlns:rdf="http://www.w3.org/1999/02/22-rdf-syntax-ns#">
   <cc:Work>
    <dc:type rdf:resource="http://purl.org/dc/dcmitype/StillImage"/>
    <dc:date>2023-04-27T14:38:31.974328</dc:date>
    <dc:format>image/svg+xml</dc:format>
    <dc:creator>
     <cc:Agent>
      <dc:title>Matplotlib v3.4.3, https://matplotlib.org/</dc:title>
     </cc:Agent>
    </dc:creator>
   </cc:Work>
  </rdf:RDF>
 </metadata>
 <defs>
  <style type="text/css">*{stroke-linecap:butt;stroke-linejoin:round;}</style>
 </defs>
 <g id="figure_1">
  <g id="patch_1">
   <path d="M 0 321.687679 
L 337.247468 321.687679 
L 337.247468 0 
L 0 0 
z
" style="fill:#ffffff;"/>
  </g>
  <g id="axes_1">
   <g id="patch_2">
    <path d="M 65.449896 265.571549 
L 318.124896 265.571549 
L 318.124896 12.896549 
L 65.449896 12.896549 
z
" style="fill:#ffffff;"/>
   </g>
   <g id="matplotlib.axis_1">
    <g id="xtick_1">
     <g id="text_1">
      <text style="fill:#262626;font-family:DejaVu Sans;font-size:14.994px;font-stretch:normal;font-style:normal;font-weight:normal;text-anchor:middle;" transform="rotate(-0, 65.449896, 286.464646)" x="65.449896" y="286.464646">0.0</text>
     </g>
    </g>
    <g id="xtick_2">
     <g id="text_2">
      <text style="fill:#262626;font-family:DejaVu Sans;font-size:14.994px;font-stretch:normal;font-style:normal;font-weight:normal;text-anchor:middle;" transform="rotate(-0, 115.984896, 286.464646)" x="115.984896" y="286.464646">0.2</text>
     </g>
    </g>
    <g id="xtick_3">
     <g id="text_3">
      <text style="fill:#262626;font-family:DejaVu Sans;font-size:14.994px;font-stretch:normal;font-style:normal;font-weight:normal;text-anchor:middle;" transform="rotate(-0, 166.519896, 286.464646)" x="166.519896" y="286.464646">0.4</text>
     </g>
    </g>
    <g id="xtick_4">
     <g id="text_4">
      <text style="fill:#262626;font-family:DejaVu Sans;font-size:14.994px;font-stretch:normal;font-style:normal;font-weight:normal;text-anchor:middle;" transform="rotate(-0, 217.054896, 286.464646)" x="217.054896" y="286.464646">0.6</text>
     </g>
    </g>
    <g id="xtick_5">
     <g id="text_5">
      <text style="fill:#262626;font-family:DejaVu Sans;font-size:14.994px;font-stretch:normal;font-style:normal;font-weight:normal;text-anchor:middle;" transform="rotate(-0, 267.589896, 286.464646)" x="267.589896" y="286.464646">0.8</text>
     </g>
    </g>
    <g id="xtick_6">
     <g id="text_6">
      <text style="fill:#262626;font-family:DejaVu Sans;font-size:14.994px;font-stretch:normal;font-style:normal;font-weight:normal;text-anchor:middle;" transform="rotate(-0, 318.124896, 286.464646)" x="318.124896" y="286.464646">1.0</text>
     </g>
    </g>
    <g id="text_7">
     <text style="fill:#262626;font-family:DejaVu Sans;font-size:21.6px;font-stretch:normal;font-style:normal;font-weight:normal;text-anchor:middle;" transform="rotate(-0, 191.787396, 309.995554)" x="191.787396" y="309.995554">Percentile</text>
    </g>
   </g>
   <g id="matplotlib.axis_2">
    <g id="ytick_1">
     <g id="text_8">
      <text style="fill:#262626;font-family:DejaVu Sans;font-size:14.994px;font-stretch:normal;font-style:normal;font-weight:normal;text-anchor:end;" transform="rotate(-0, 55.949896, 271.268097)" x="55.949896" y="271.268097">0.0</text>
     </g>
    </g>
    <g id="ytick_2">
     <g id="text_9">
      <text style="fill:#262626;font-family:DejaVu Sans;font-size:14.994px;font-stretch:normal;font-style:normal;font-weight:normal;text-anchor:end;" transform="rotate(-0, 55.949896, 220.733097)" x="55.949896" y="220.733097">0.2</text>
     </g>
    </g>
    <g id="ytick_3">
     <g id="text_10">
      <text style="fill:#262626;font-family:DejaVu Sans;font-size:14.994px;font-stretch:normal;font-style:normal;font-weight:normal;text-anchor:end;" transform="rotate(-0, 55.949896, 170.198097)" x="55.949896" y="170.198097">0.4</text>
     </g>
    </g>
    <g id="ytick_4">
     <g id="text_11">
      <text style="fill:#262626;font-family:DejaVu Sans;font-size:14.994px;font-stretch:normal;font-style:normal;font-weight:normal;text-anchor:end;" transform="rotate(-0, 55.949896, 119.663097)" x="55.949896" y="119.663097">0.6</text>
     </g>
    </g>
    <g id="ytick_5">
     <g id="text_12">
      <text style="fill:#262626;font-family:DejaVu Sans;font-size:14.994px;font-stretch:normal;font-style:normal;font-weight:normal;text-anchor:end;" transform="rotate(-0, 55.949896, 69.128097)" x="55.949896" y="69.128097">0.8</text>
     </g>
    </g>
    <g id="ytick_6">
     <g id="text_13">
      <text style="fill:#262626;font-family:DejaVu Sans;font-size:14.994px;font-stretch:normal;font-style:normal;font-weight:normal;text-anchor:end;" transform="rotate(-0, 55.949896, 18.593097)" x="55.949896" y="18.593097">1.0</text>
     </g>
    </g>
    <g id="text_14">
     <text style="fill:#262626;font-family:DejaVu Sans;font-size:21.6px;font-stretch:normal;font-style:normal;font-weight:normal;text-anchor:middle;" transform="rotate(-90, 23.612625, 139.234049)" x="23.612625" y="139.234049">Modality 2 Similarity</text>
    </g>
   </g>
   <g id="line2d_1">
    <path clip-path="url(#pfcc8b3fe3f)" d="M 65.449896 184.783187 
L 68.002168 180.071695 
L 70.554441 176.588693 
L 73.106714 170.932378 
L 75.658987 169.854515 
L 78.211259 167.204898 
L 80.763532 166.185448 
L 83.315805 165.017798 
L 85.868077 163.168265 
L 88.42035 162.970889 
L 90.972623 161.743146 
L 93.524896 161.688633 
L 96.077168 160.012454 
L 98.629441 159.613997 
L 101.181714 158.936064 
L 103.733987 158.166498 
L 106.286259 156.346639 
L 108.838532 155.732386 
L 111.390805 155.513668 
L 113.943077 153.500207 
L 116.49535 153.380201 
L 119.047623 152.507698 
L 121.599896 152.129483 
L 124.152168 152.074471 
L 126.704441 152.037579 
L 129.256714 151.905334 
L 131.808987 151.635735 
L 134.361259 150.568434 
L 136.913532 150.21245 
L 139.465805 150.06698 
L 142.018077 149.702192 
L 144.57035 149.661037 
L 147.122623 148.414021 
L 149.674896 147.802301 
L 152.227168 147.037564 
L 154.779441 146.764521 
L 157.331714 146.682627 
L 159.883987 146.403038 
L 162.436259 146.363349 
L 164.988532 145.282442 
L 167.540805 144.301823 
L 170.093077 144.276572 
L 172.64535 143.088576 
L 175.197623 141.926049 
L 177.749896 141.508247 
L 180.302168 141.357384 
L 182.854441 140.250745 
L 185.406714 139.477717 
L 187.958987 137.831905 
L 190.511259 137.706131 
L 193.063532 137.121778 
L 195.615805 137.076092 
L 198.168077 136.795112 
L 200.72035 134.855102 
L 203.272623 134.707113 
L 205.824896 134.309603 
L 208.377168 134.211901 
L 210.929441 133.651587 
L 213.481714 133.109334 
L 216.033987 133.087271 
L 218.586259 133.0114 
L 221.138532 131.76353 
L 223.690805 129.927744 
L 226.243077 129.802875 
L 228.79535 128.588631 
L 231.347623 128.012968 
L 233.899896 127.731157 
L 236.452168 127.682153 
L 239.004441 127.530491 
L 241.556714 126.951157 
L 244.108987 126.889967 
L 246.661259 126.548066 
L 249.213532 125.647823 
L 251.765805 125.552541 
L 254.318077 125.330227 
L 256.87035 125.227879 
L 259.422623 124.377145 
L 261.974896 122.034313 
L 264.527168 119.757501 
L 267.079441 118.278798 
L 269.631714 117.499245 
L 272.183987 116.456852 
L 274.736259 116.224118 
L 277.288532 115.100396 
L 279.840805 114.781838 
L 282.393077 113.661114 
L 284.94535 107.625037 
L 287.497623 106.885226 
L 290.049896 105.450725 
L 292.602168 104.675321 
L 295.154441 104.231422 
L 297.706714 102.435129 
L 300.258987 99.747165 
L 302.811259 92.733272 
L 305.363532 92.581385 
L 307.915805 92.551031 
L 310.468077 92.055341 
L 313.02035 89.98603 
L 315.572623 82.302406 
L 318.124896 64.979839 
" style="fill:none;stroke:#f77189;stroke-linecap:round;stroke-width:1.5;"/>
   </g>
   <g id="line2d_2">
    <path clip-path="url(#pfcc8b3fe3f)" d="M 65.449896 213.723079 
L 68.002168 203.12645 
L 70.554441 201.830809 
L 73.106714 201.065259 
L 75.658987 195.587208 
L 78.211259 195.562552 
L 80.763532 194.394379 
L 83.315805 190.698091 
L 85.868077 189.586862 
L 88.42035 185.54863 
L 90.972623 180.925898 
L 93.524896 180.277389 
L 96.077168 180.247274 
L 98.629441 179.568012 
L 101.181714 178.93379 
L 103.733987 178.145236 
L 106.286259 174.347526 
L 108.838532 174.198845 
L 111.390805 174.013678 
L 113.943077 172.907369 
L 116.49535 172.610234 
L 119.047623 172.434817 
L 121.599896 171.48004 
L 124.152168 168.442463 
L 126.704441 168.388052 
L 129.256714 167.625364 
L 131.808987 167.566281 
L 134.361259 165.839639 
L 136.913532 164.156694 
L 139.465805 164.047224 
L 142.018077 163.687849 
L 144.57035 162.674659 
L 147.122623 161.903181 
L 149.674896 161.180979 
L 152.227168 160.916632 
L 154.779441 160.66197 
L 157.331714 158.919844 
L 159.883987 158.669723 
L 162.436259 158.609022 
L 164.988532 158.061755 
L 167.540805 156.365287 
L 170.093077 156.049068 
L 172.64535 155.102571 
L 175.197623 154.41047 
L 177.749896 154.253868 
L 180.302168 153.929492 
L 182.854441 153.781552 
L 185.406714 153.080674 
L 187.958987 152.731367 
L 190.511259 151.81648 
L 193.063532 151.47679 
L 195.615805 150.335003 
L 198.168077 149.700352 
L 200.72035 149.169785 
L 203.272623 149.070853 
L 205.824896 148.055427 
L 208.377168 147.746533 
L 210.929441 146.248675 
L 213.481714 145.636449 
L 216.033987 144.387526 
L 218.586259 144.177536 
L 221.138532 144.116615 
L 223.690805 144.044871 
L 226.243077 143.875533 
L 228.79535 143.838392 
L 231.347623 143.356901 
L 233.899896 142.954617 
L 236.452168 142.098203 
L 239.004441 140.43838 
L 241.556714 140.087439 
L 244.108987 139.612828 
L 246.661259 138.642567 
L 249.213532 136.591025 
L 251.765805 135.466962 
L 254.318077 133.751128 
L 256.87035 132.065662 
L 259.422623 130.365528 
L 261.974896 129.038225 
L 264.527168 126.521768 
L 267.079441 126.301487 
L 269.631714 126.09293 
L 272.183987 126.063258 
L 274.736259 124.855344 
L 277.288532 124.03416 
L 279.840805 123.973084 
L 282.393077 123.882007 
L 284.94535 123.51606 
L 287.497623 123.508565 
L 290.049896 122.820069 
L 292.602168 122.528537 
L 295.154441 121.337083 
L 297.706714 120.533134 
L 300.258987 117.501781 
L 302.811259 115.415643 
L 305.363532 112.815929 
L 307.915805 112.097358 
L 310.468077 108.801056 
L 313.02035 108.469788 
L 315.572623 108.134694 
L 318.124896 98.709077 
" style="fill:none;stroke:#50b131;stroke-linecap:round;stroke-width:1.5;"/>
   </g>
   <g id="line2d_3">
    <path clip-path="url(#pfcc8b3fe3f)" d="M 65.449896 165.284251 
L 68.002168 163.256179 
L 70.554441 159.446697 
L 73.106714 143.944044 
L 75.658987 137.225516 
L 78.211259 135.553012 
L 80.763532 133.837191 
L 83.315805 133.090538 
L 85.868077 133.011353 
L 88.42035 132.245482 
L 90.972623 131.733352 
L 93.524896 130.745826 
L 96.077168 128.894635 
L 98.629441 128.712744 
L 101.181714 125.543048 
L 103.733987 125.319544 
L 106.286259 124.772049 
L 108.838532 124.462708 
L 111.390805 124.158499 
L 113.943077 124.140304 
L 116.49535 121.095099 
L 119.047623 119.778273 
L 121.599896 117.878175 
L 124.152168 116.626581 
L 126.704441 116.625605 
L 129.256714 116.200875 
L 131.808987 115.672638 
L 134.361259 115.596204 
L 136.913532 115.222595 
L 139.465805 114.745614 
L 142.018077 114.602005 
L 144.57035 114.135726 
L 147.122623 113.599328 
L 149.674896 113.026008 
L 152.227168 112.913673 
L 154.779441 112.473235 
L 157.331714 112.41765 
L 159.883987 112.226635 
L 162.436259 112.126524 
L 164.988532 111.978341 
L 167.540805 111.378918 
L 170.093077 109.856924 
L 172.64535 108.869375 
L 175.197623 108.066914 
L 177.749896 107.526976 
L 180.302168 107.386938 
L 182.854441 106.76133 
L 185.406714 106.319704 
L 187.958987 106.189208 
L 190.511259 106.122719 
L 193.063532 105.916045 
L 195.615805 105.799805 
L 198.168077 105.447285 
L 200.72035 104.969203 
L 203.272623 104.368223 
L 205.824896 104.299071 
L 208.377168 103.632158 
L 210.929441 103.345364 
L 213.481714 103.205203 
L 216.033987 102.881384 
L 218.586259 102.817428 
L 221.138532 102.503491 
L 223.690805 102.032828 
L 226.243077 101.87037 
L 228.79535 101.820578 
L 231.347623 101.565176 
L 233.899896 101.186423 
L 236.452168 100.563673 
L 239.004441 100.398439 
L 241.556714 100.089656 
L 244.108987 99.920857 
L 246.661259 99.682459 
L 249.213532 99.561206 
L 251.765805 99.132031 
L 254.318077 98.109739 
L 256.87035 97.465444 
L 259.422623 97.305392 
L 261.974896 97.139368 
L 264.527168 96.393615 
L 267.079441 95.909094 
L 269.631714 95.77196 
L 272.183987 95.764454 
L 274.736259 95.406096 
L 277.288532 94.533845 
L 279.840805 93.640362 
L 282.393077 93.48579 
L 284.94535 92.811026 
L 287.497623 91.888771 
L 290.049896 91.716057 
L 292.602168 91.471892 
L 295.154441 90.999953 
L 297.706714 89.466308 
L 300.258987 88.579929 
L 302.811259 88.495401 
L 305.363532 87.148007 
L 307.915805 86.780035 
L 310.468077 83.853389 
L 313.02035 81.275011 
L 315.572623 81.053642 
L 318.124896 77.788235 
" style="fill:none;stroke:#3ba3ec;stroke-linecap:round;stroke-width:1.5;"/>
   </g>
   <g id="line2d_4">
    <path clip-path="url(#pfcc8b3fe3f)" d="M 65.449896 183.710899 
L 68.002168 172.485172 
L 70.554441 168.890573 
L 73.106714 154.710345 
L 75.658987 153.082592 
L 78.211259 153.061949 
L 80.763532 151.766937 
L 83.315805 151.750817 
L 85.868077 150.618235 
L 88.42035 150.614168 
L 90.972623 149.693253 
L 93.524896 147.843081 
L 96.077168 147.216194 
L 98.629441 147.004871 
L 101.181714 146.320909 
L 103.733987 145.421784 
L 106.286259 145.150883 
L 108.838532 144.045112 
L 111.390805 142.954447 
L 113.943077 142.855036 
L 116.49535 141.48779 
L 119.047623 141.465117 
L 121.599896 139.202035 
L 124.152168 138.695071 
L 126.704441 138.57477 
L 129.256714 137.735628 
L 131.808987 137.671003 
L 134.361259 137.493796 
L 136.913532 137.225217 
L 139.465805 136.959265 
L 142.018077 135.773398 
L 144.57035 135.556724 
L 147.122623 135.337975 
L 149.674896 135.218146 
L 152.227168 135.096098 
L 154.779441 134.963947 
L 157.331714 134.879024 
L 159.883987 134.821827 
L 162.436259 134.675502 
L 164.988532 134.014613 
L 167.540805 133.520228 
L 170.093077 132.3632 
L 172.64535 132.318409 
L 175.197623 131.971232 
L 177.749896 131.808353 
L 180.302168 131.338806 
L 182.854441 131.225151 
L 185.406714 131.173504 
L 187.958987 130.814121 
L 190.511259 130.803375 
L 193.063532 130.04378 
L 195.615805 129.523266 
L 198.168077 129.241189 
L 200.72035 129.196938 
L 203.272623 128.865563 
L 205.824896 128.744243 
L 208.377168 128.704346 
L 210.929441 128.636123 
L 213.481714 128.607089 
L 216.033987 128.186418 
L 218.586259 128.185192 
L 221.138532 127.620521 
L 223.690805 127.438756 
L 226.243077 127.406599 
L 228.79535 127.367122 
L 231.347623 127.177461 
L 233.899896 126.98444 
L 236.452168 126.702149 
L 239.004441 126.637901 
L 241.556714 126.593345 
L 244.108987 126.552543 
L 246.661259 125.388694 
L 249.213532 124.403446 
L 251.765805 124.39512 
L 254.318077 123.966066 
L 256.87035 123.957344 
L 259.422623 123.748927 
L 261.974896 123.609842 
L 264.527168 123.307463 
L 267.079441 122.272432 
L 269.631714 121.847396 
L 272.183987 121.588584 
L 274.736259 121.48411 
L 277.288532 121.065324 
L 279.840805 120.899713 
L 282.393077 120.799884 
L 284.94535 119.620557 
L 287.497623 119.040205 
L 290.049896 118.209505 
L 292.602168 118.103282 
L 295.154441 117.701357 
L 297.706714 116.515853 
L 300.258987 113.799926 
L 302.811259 113.591163 
L 305.363532 113.154762 
L 307.915805 111.593108 
L 310.468077 110.629617 
L 313.02035 110.153037 
L 315.572623 109.615671 
L 318.124896 105.184831 
" style="fill:none;stroke:#000000;stroke-linecap:round;stroke-width:6;"/>
   </g>
   <g id="patch_3">
    <path d="M 65.449896 265.571549 
L 65.449896 12.896549 
" style="fill:none;stroke:#262626;stroke-linecap:square;stroke-linejoin:miter;stroke-width:1.25;"/>
   </g>
   <g id="patch_4">
    <path d="M 65.449896 265.571549 
L 318.124896 265.571549 
" style="fill:none;stroke:#262626;stroke-linecap:square;stroke-linejoin:miter;stroke-width:1.25;"/>
   </g>
   <g id="legend_1">
    <g id="patch_5">
     <path d="M 73.149896 86.280299 
L 171.132396 86.280299 
Q 173.332396 86.280299 173.332396 84.080299 
L 173.332396 20.596549 
Q 173.332396 18.396549 171.132396 18.396549 
L 73.149896 18.396549 
Q 70.949896 18.396549 70.949896 20.596549 
L 70.949896 84.080299 
Q 70.949896 86.280299 73.149896 86.280299 
z
" style="fill:#ffffff;opacity:0.8;stroke:#cccccc;stroke-linejoin:miter;"/>
    </g>
    <g id="line2d_5">
     <path d="M 75.349896 27.30483 
L 97.349896 27.30483 
" style="fill:none;stroke:#f77189;stroke-linecap:round;stroke-width:1.5;"/>
    </g>
    <g id="line2d_6"/>
    <g id="text_15">
     <text style="fill:#262626;font-family:DejaVu Sans;font-size:11px;font-stretch:normal;font-style:normal;font-weight:normal;text-anchor:start;" transform="rotate(-0, 106.149896, 31.15483)" x="106.149896" y="31.15483">Cell Type 0</text>
    </g>
    <g id="line2d_7">
     <path d="M 75.349896 43.450767 
L 97.349896 43.450767 
" style="fill:none;stroke:#50b131;stroke-linecap:round;stroke-width:1.5;"/>
    </g>
    <g id="line2d_8"/>
    <g id="text_16">
     <text style="fill:#262626;font-family:DejaVu Sans;font-size:11px;font-stretch:normal;font-style:normal;font-weight:normal;text-anchor:start;" transform="rotate(-0, 106.149896, 47.300767)" x="106.149896" y="47.300767">Cell Type 1</text>
    </g>
    <g id="line2d_9">
     <path d="M 75.349896 59.596705 
L 97.349896 59.596705 
" style="fill:none;stroke:#3ba3ec;stroke-linecap:round;stroke-width:1.5;"/>
    </g>
    <g id="line2d_10"/>
    <g id="text_17">
     <text style="fill:#262626;font-family:DejaVu Sans;font-size:11px;font-stretch:normal;font-style:normal;font-weight:normal;text-anchor:start;" transform="rotate(-0, 106.149896, 63.446705)" x="106.149896" y="63.446705">Cell Type 2</text>
    </g>
    <g id="line2d_11">
     <path d="M 75.349896 75.742642 
L 97.349896 75.742642 
" style="fill:none;stroke:#000000;stroke-linecap:round;stroke-width:6;"/>
    </g>
    <g id="line2d_12"/>
    <g id="text_18">
     <text style="fill:#262626;font-family:DejaVu Sans;font-size:11px;font-stretch:normal;font-style:normal;font-weight:normal;text-anchor:start;" transform="rotate(-0, 106.149896, 79.592642)" x="106.149896" y="79.592642">Cumulative</text>
    </g>
   </g>
  </g>
 </g>
 <defs>
  <clipPath id="pfcc8b3fe3f">
   <rect height="252.675" width="252.675" x="65.449896" y="12.896549"/>
  </clipPath>
 </defs>
</svg>
