<?xml version="1.0" encoding="utf-8" standalone="no"?>
<!DOCTYPE svg PUBLIC "-//W3C//DTD SVG 1.1//EN"
  "http://www.w3.org/Graphics/SVG/1.1/DTD/svg11.dtd">
<svg height="335.104318pt" version="1.1" viewBox="0 0 337.247468 335.104318" width="337.247468pt" xmlns="http://www.w3.org/2000/svg" xmlns:xlink="http://www.w3.org/1999/xlink">
 <metadata>
  <rdf:RDF xmlns:cc="http://creativecommons.org/ns#" xmlns:dc="http://purl.org/dc/elements/1.1/" xmlns:rdf="http://www.w3.org/1999/02/22-rdf-syntax-ns#">
   <cc:Work>
    <dc:type rdf:resource="http://purl.org/dc/dcmitype/StillImage"/>
    <dc:date>2023-04-27T13:05:40.916783</dc:date>
    <dc:format>image/svg+xml</dc:format>
    <dc:creator>
     <cc:Agent>
      <dc:title>Matplotlib v3.4.3, https://matplotlib.org/</dc:title>
     </cc:Agent>
    </dc:creator>
   </cc:Work>
  </rdf:RDF>
 </metadata>
 <defs>
  <style type="text/css">*{stroke-linecap:butt;stroke-linejoin:round;}</style>
 </defs>
 <g id="figure_1">
  <g id="patch_1">
   <path d="M 0 335.104318 
L 337.247468 335.104318 
L 337.247468 0 
L 0 0 
z
" style="fill:#ffffff;"/>
  </g>
  <g id="axes_1">
   <g id="patch_2">
    <path d="M 65.449896 278.988187 
L 318.124896 278.988187 
L 318.124896 26.313187 
L 65.449896 26.313187 
z
" style="fill:#ffffff;"/>
   </g>
   <g id="matplotlib.axis_1">
    <g id="xtick_1">
     <g id="text_1">
      <text style="fill:#262626;font-family:DejaVu Sans;font-size:14.994px;font-stretch:normal;font-style:normal;font-weight:normal;text-anchor:middle;" transform="rotate(-0, 65.449896, 299.881285)" x="65.449896" y="299.881285">0.0</text>
     </g>
    </g>
    <g id="xtick_2">
     <g id="text_2">
      <text style="fill:#262626;font-family:DejaVu Sans;font-size:14.994px;font-stretch:normal;font-style:normal;font-weight:normal;text-anchor:middle;" transform="rotate(-0, 115.984896, 299.881285)" x="115.984896" y="299.881285">0.2</text>
     </g>
    </g>
    <g id="xtick_3">
     <g id="text_3">
      <text style="fill:#262626;font-family:DejaVu Sans;font-size:14.994px;font-stretch:normal;font-style:normal;font-weight:normal;text-anchor:middle;" transform="rotate(-0, 166.519896, 299.881285)" x="166.519896" y="299.881285">0.4</text>
     </g>
    </g>
    <g id="xtick_4">
     <g id="text_4">
      <text style="fill:#262626;font-family:DejaVu Sans;font-size:14.994px;font-stretch:normal;font-style:normal;font-weight:normal;text-anchor:middle;" transform="rotate(-0, 217.054896, 299.881285)" x="217.054896" y="299.881285">0.6</text>
     </g>
    </g>
    <g id="xtick_5">
     <g id="text_5">
      <text style="fill:#262626;font-family:DejaVu Sans;font-size:14.994px;font-stretch:normal;font-style:normal;font-weight:normal;text-anchor:middle;" transform="rotate(-0, 267.589896, 299.881285)" x="267.589896" y="299.881285">0.8</text>
     </g>
    </g>
    <g id="xtick_6">
     <g id="text_6">
      <text style="fill:#262626;font-family:DejaVu Sans;font-size:14.994px;font-stretch:normal;font-style:normal;font-weight:normal;text-anchor:middle;" transform="rotate(-0, 318.124896, 299.881285)" x="318.124896" y="299.881285">1.0</text>
     </g>
    </g>
    <g id="text_7">
     <text style="fill:#262626;font-family:DejaVu Sans;font-size:21.6px;font-stretch:normal;font-style:normal;font-weight:normal;text-anchor:middle;" transform="rotate(-0, 191.787396, 323.412193)" x="191.787396" y="323.412193">Percentile</text>
    </g>
   </g>
   <g id="matplotlib.axis_2">
    <g id="ytick_1">
     <g id="text_8">
      <text style="fill:#262626;font-family:DejaVu Sans;font-size:14.994px;font-stretch:normal;font-style:normal;font-weight:normal;text-anchor:end;" transform="rotate(-0, 55.949896, 284.684736)" x="55.949896" y="284.684736">0.0</text>
     </g>
    </g>
    <g id="ytick_2">
     <g id="text_9">
      <text style="fill:#262626;font-family:DejaVu Sans;font-size:14.994px;font-stretch:normal;font-style:normal;font-weight:normal;text-anchor:end;" transform="rotate(-0, 55.949896, 234.149736)" x="55.949896" y="234.149736">0.2</text>
     </g>
    </g>
    <g id="ytick_3">
     <g id="text_10">
      <text style="fill:#262626;font-family:DejaVu Sans;font-size:14.994px;font-stretch:normal;font-style:normal;font-weight:normal;text-anchor:end;" transform="rotate(-0, 55.949896, 183.614736)" x="55.949896" y="183.614736">0.4</text>
     </g>
    </g>
    <g id="ytick_4">
     <g id="text_11">
      <text style="fill:#262626;font-family:DejaVu Sans;font-size:14.994px;font-stretch:normal;font-style:normal;font-weight:normal;text-anchor:end;" transform="rotate(-0, 55.949896, 133.079736)" x="55.949896" y="133.079736">0.6</text>
     </g>
    </g>
    <g id="ytick_5">
     <g id="text_12">
      <text style="fill:#262626;font-family:DejaVu Sans;font-size:14.994px;font-stretch:normal;font-style:normal;font-weight:normal;text-anchor:end;" transform="rotate(-0, 55.949896, 82.544736)" x="55.949896" y="82.544736">0.8</text>
     </g>
    </g>
    <g id="ytick_6">
     <g id="text_13">
      <text style="fill:#262626;font-family:DejaVu Sans;font-size:14.994px;font-stretch:normal;font-style:normal;font-weight:normal;text-anchor:end;" transform="rotate(-0, 55.949896, 32.009736)" x="55.949896" y="32.009736">1.0</text>
     </g>
    </g>
    <g id="text_14">
     <text style="fill:#262626;font-family:DejaVu Sans;font-size:21.6px;font-stretch:normal;font-style:normal;font-weight:normal;text-anchor:middle;" transform="rotate(-90, 23.612625, 152.650687)" x="23.612625" y="152.650687">DNA Methylation Similarity</text>
    </g>
   </g>
   <g id="line2d_1">
    <path clip-path="url(#pa5f6fc629c)" d="M 65.449896 236.678924 
L 75.168165 233.787303 
L 84.886434 212.387977 
L 94.604703 201.341168 
L 104.322973 195.308608 
L 114.041242 188.030463 
L 123.759511 180.816726 
L 133.47778 175.753455 
L 143.196049 173.335073 
L 152.914319 172.968383 
L 162.632588 172.256144 
L 172.350857 171.187312 
L 182.069126 163.925959 
L 191.787396 155.589145 
L 201.505665 152.314539 
L 211.223934 148.371587 
L 220.942203 146.304676 
L 230.660473 131.724299 
L 240.378742 127.356705 
L 250.097011 118.326327 
L 259.81528 100.65755 
L 269.533549 78.50585 
L 279.251819 74.960217 
L 288.970088 70.018866 
L 298.688357 56.950452 
L 308.406626 56.950452 
L 318.124896 56.950452 
" style="fill:none;stroke:#f77189;stroke-linecap:round;stroke-width:1.5;"/>
   </g>
   <g id="line2d_2">
    <path clip-path="url(#pa5f6fc629c)" d="M 65.449896 216.956698 
L 75.168165 212.549717 
L 84.886434 209.775864 
L 94.604703 199.851748 
L 104.322973 199.337589 
L 114.041242 198.486814 
L 123.759511 196.312957 
L 133.47778 195.028583 
L 143.196049 190.443317 
L 152.914319 188.467275 
L 162.632588 187.549841 
L 172.350857 184.792303 
L 182.069126 167.590402 
L 191.787396 159.306209 
L 201.505665 155.263095 
L 211.223934 150.421814 
L 220.942203 143.487573 
L 230.660473 142.036679 
L 240.378742 140.117594 
L 250.097011 137.918013 
L 259.81528 134.444077 
L 269.533549 130.988802 
L 279.251819 127.266882 
L 288.970088 120.379435 
L 298.688357 114.611092 
L 308.406626 114.024787 
L 318.124896 99.113383 
" style="fill:none;stroke:#ae9d31;stroke-linecap:round;stroke-width:1.5;"/>
   </g>
   <g id="line2d_3">
    <path clip-path="url(#pa5f6fc629c)" d="M 65.449896 234.344613 
L 75.168165 212.259132 
L 84.886434 211.138504 
L 94.604703 209.563709 
L 104.322973 202.044247 
L 114.041242 197.67311 
L 123.759511 195.636447 
L 133.47778 195.241649 
L 143.196049 194.387265 
L 152.914319 187.721092 
L 162.632588 180.011457 
L 172.350857 178.998147 
L 182.069126 178.739902 
L 191.787396 177.757984 
L 201.505665 174.031967 
L 211.223934 173.89565 
L 220.942203 173.867463 
L 230.660473 167.890852 
L 240.378742 166.786048 
L 250.097011 165.971651 
L 259.81528 163.973571 
L 269.533549 162.410747 
L 279.251819 160.093849 
L 288.970088 151.381599 
L 298.688357 150.074965 
L 308.406626 145.380129 
L 318.124896 133.038213 
" style="fill:none;stroke:#33b07a;stroke-linecap:round;stroke-width:1.5;"/>
   </g>
   <g id="line2d_4">
    <path clip-path="url(#pa5f6fc629c)" d="M 65.449896 235.377286 
L 75.168165 216.723812 
L 84.886434 205.012982 
L 94.604703 197.216461 
L 104.322973 195.857062 
L 114.041242 193.134661 
L 123.759511 190.508585 
L 133.47778 189.342607 
L 143.196049 181.905512 
L 152.914319 181.721196 
L 162.632588 180.43649 
L 172.350857 180.384924 
L 182.069126 179.076369 
L 191.787396 173.161512 
L 201.505665 171.788792 
L 211.223934 169.211885 
L 220.942203 168.269956 
L 230.660473 165.238493 
L 240.378742 163.517405 
L 250.097011 161.961124 
L 259.81528 159.01431 
L 269.533549 158.439411 
L 279.251819 155.466622 
L 288.970088 152.310439 
L 298.688357 148.139849 
L 308.406626 136.333882 
L 318.124896 135.565467 
" style="fill:none;stroke:#38a9c5;stroke-linecap:round;stroke-width:1.5;"/>
   </g>
   <g id="line2d_5">
    <path clip-path="url(#pa5f6fc629c)" d="M 65.449896 229.563833 
L 75.168165 213.705822 
L 84.886434 202.290915 
L 94.604703 200.771621 
L 104.322973 199.471918 
L 114.041242 196.90304 
L 123.759511 191.372885 
L 133.47778 189.452437 
L 143.196049 189.341141 
L 152.914319 188.345733 
L 162.632588 185.976235 
L 172.350857 182.953568 
L 182.069126 182.193951 
L 191.787396 181.637523 
L 201.505665 178.049457 
L 211.223934 174.750181 
L 220.942203 164.382443 
L 230.660473 149.872639 
L 240.378742 139.457016 
L 250.097011 128.481559 
L 259.81528 117.705164 
L 269.533549 109.048501 
L 279.251819 94.237124 
L 288.970088 93.611483 
L 298.688357 92.990996 
L 308.406626 79.286869 
L 318.124896 73.104126 
" style="fill:none;stroke:#cc7af4;stroke-linecap:round;stroke-width:1.5;"/>
   </g>
   <g id="line2d_6">
    <path clip-path="url(#pa5f6fc629c)" d="M 65.449896 199.044251 
L 75.168165 190.340336 
L 84.886434 189.101158 
L 94.604703 187.732741 
L 104.322973 185.093487 
L 114.041242 181.590379 
L 123.759511 181.388057 
L 133.47778 179.109821 
L 143.196049 174.899584 
L 152.914319 173.226182 
L 162.632588 170.529407 
L 172.350857 169.709242 
L 182.069126 167.544944 
L 191.787396 167.271957 
L 201.505665 166.398703 
L 211.223934 163.179473 
L 220.942203 161.019572 
L 230.660473 160.568392 
L 240.378742 158.745806 
L 250.097011 154.369433 
L 259.81528 149.163425 
L 269.533549 147.698574 
L 279.251819 145.693641 
L 288.970088 143.515596 
L 298.688357 136.229666 
L 308.406626 133.72544 
L 318.124896 120.644811 
" style="fill:none;stroke:#000000;stroke-linecap:round;stroke-width:6;"/>
   </g>
   <g id="patch_3">
    <path d="M 65.449896 278.988187 
L 65.449896 26.313187 
" style="fill:none;stroke:#262626;stroke-linecap:square;stroke-linejoin:miter;stroke-width:1.25;"/>
   </g>
   <g id="patch_4">
    <path d="M 65.449896 278.988187 
L 318.124896 278.988187 
" style="fill:none;stroke:#262626;stroke-linecap:square;stroke-linejoin:miter;stroke-width:1.25;"/>
   </g>
   <g id="legend_1">
    <g id="patch_5">
     <path d="M 73.149896 131.988812 
L 171.132396 131.988812 
Q 173.332396 131.988812 173.332396 129.788812 
L 173.332396 34.013187 
Q 173.332396 31.813187 171.132396 31.813187 
L 73.149896 31.813187 
Q 70.949896 31.813187 70.949896 34.013187 
L 70.949896 129.788812 
Q 70.949896 131.988812 73.149896 131.988812 
z
" style="fill:#ffffff;opacity:0.8;stroke:#cccccc;stroke-linejoin:miter;"/>
    </g>
    <g id="line2d_7">
     <path d="M 75.349896 40.721469 
L 97.349896 40.721469 
" style="fill:none;stroke:#f77189;stroke-linecap:round;stroke-width:1.5;"/>
    </g>
    <g id="line2d_8"/>
    <g id="text_15">
     <text style="fill:#262626;font-family:DejaVu Sans;font-size:11px;font-stretch:normal;font-style:normal;font-weight:normal;text-anchor:start;" transform="rotate(-0, 106.149896, 44.571469)" x="106.149896" y="44.571469">BJ</text>
    </g>
    <g id="line2d_9">
     <path d="M 75.349896 56.867406 
L 97.349896 56.867406 
" style="fill:none;stroke:#ae9d31;stroke-linecap:round;stroke-width:1.5;"/>
    </g>
    <g id="line2d_10"/>
    <g id="text_16">
     <text style="fill:#262626;font-family:DejaVu Sans;font-size:11px;font-stretch:normal;font-style:normal;font-weight:normal;text-anchor:start;" transform="rotate(-0, 106.149896, 60.717406)" x="106.149896" y="60.717406">IPS</text>
    </g>
    <g id="line2d_11">
     <path d="M 75.349896 73.013344 
L 97.349896 73.013344 
" style="fill:none;stroke:#33b07a;stroke-linecap:round;stroke-width:1.5;"/>
    </g>
    <g id="line2d_12"/>
    <g id="text_17">
     <text style="fill:#262626;font-family:DejaVu Sans;font-size:11px;font-stretch:normal;font-style:normal;font-weight:normal;text-anchor:start;" transform="rotate(-0, 106.149896, 76.863344)" x="106.149896" y="76.863344">d16T+</text>
    </g>
    <g id="line2d_13">
     <path d="M 75.349896 89.159281 
L 97.349896 89.159281 
" style="fill:none;stroke:#38a9c5;stroke-linecap:round;stroke-width:1.5;"/>
    </g>
    <g id="line2d_14"/>
    <g id="text_18">
     <text style="fill:#262626;font-family:DejaVu Sans;font-size:11px;font-stretch:normal;font-style:normal;font-weight:normal;text-anchor:start;" transform="rotate(-0, 106.149896, 93.009281)" x="106.149896" y="93.009281">d24T+</text>
    </g>
    <g id="line2d_15">
     <path d="M 75.349896 105.305219 
L 97.349896 105.305219 
" style="fill:none;stroke:#cc7af4;stroke-linecap:round;stroke-width:1.5;"/>
    </g>
    <g id="line2d_16"/>
    <g id="text_19">
     <text style="fill:#262626;font-family:DejaVu Sans;font-size:11px;font-stretch:normal;font-style:normal;font-weight:normal;text-anchor:start;" transform="rotate(-0, 106.149896, 109.155219)" x="106.149896" y="109.155219">d8</text>
    </g>
    <g id="line2d_17">
     <path d="M 75.349896 121.451156 
L 97.349896 121.451156 
" style="fill:none;stroke:#000000;stroke-linecap:round;stroke-width:6;"/>
    </g>
    <g id="line2d_18"/>
    <g id="text_20">
     <text style="fill:#262626;font-family:DejaVu Sans;font-size:11px;font-stretch:normal;font-style:normal;font-weight:normal;text-anchor:start;" transform="rotate(-0, 106.149896, 125.301156)" x="106.149896" y="125.301156">Cumulative</text>
    </g>
   </g>
  </g>
 </g>
 <defs>
  <clipPath id="pa5f6fc629c">
   <rect height="252.675" width="252.675" x="65.449896" y="26.313187"/>
  </clipPath>
 </defs>
</svg>
