<?xml version="1.0" encoding="utf-8" standalone="no"?>
<!DOCTYPE svg PUBLIC "-//W3C//DTD SVG 1.1//EN"
  "http://www.w3.org/Graphics/SVG/1.1/DTD/svg11.dtd">
<svg height="35.9pt" version="1.1" viewBox="0 0 302.58 35.9" width="302.58pt" xmlns="http://www.w3.org/2000/svg" xmlns:xlink="http://www.w3.org/1999/xlink">
 <metadata>
  <rdf:RDF xmlns:cc="http://creativecommons.org/ns#" xmlns:dc="http://purl.org/dc/elements/1.1/" xmlns:rdf="http://www.w3.org/1999/02/22-rdf-syntax-ns#">
   <cc:Work>
    <dc:type rdf:resource="http://purl.org/dc/dcmitype/StillImage"/>
    <dc:date>2023-04-27T13:04:28.557181</dc:date>
    <dc:format>image/svg+xml</dc:format>
    <dc:creator>
     <cc:Agent>
      <dc:title>Matplotlib v3.4.3, https://matplotlib.org/</dc:title>
     </cc:Agent>
    </dc:creator>
   </cc:Work>
  </rdf:RDF>
 </metadata>
 <defs>
  <style type="text/css">*{stroke-linecap:butt;stroke-linejoin:round;}</style>
 </defs>
 <g id="figure_1">
  <g id="patch_1">
   <path d="M 0 35.9 
L 302.58 35.9 
L 302.58 0 
L 0 0 
z
" style="fill:#ffffff;"/>
  </g>
  <g id="axes_1">
   <g id="legend_1">
    <g id="line2d_1">
     <path d="M 4.351484 9.062344 
L 26.351484 9.062344 
" style="fill:none;stroke:#ffffff;stroke-linecap:round;stroke-width:1.5;"/>
    </g>
    <g id="line2d_2">
     <defs>
      <path d="M 0 5 
C 1.326016 5 2.597899 4.473168 3.535534 3.535534 
C 4.473168 2.597899 5 1.326016 5 0 
C 5 -1.326016 4.473168 -2.597899 3.535534 -3.535534 
C 2.597899 -4.473168 1.326016 -5 0 -5 
C -1.326016 -5 -2.597899 -4.473168 -3.535534 -3.535534 
C -4.473168 -2.597899 -5 -1.326016 -5 0 
C -5 1.326016 -4.473168 2.597899 -3.535534 3.535534 
C -2.597899 4.473168 -1.326016 5 0 5 
z
" id="ma8a978f6be" style="stroke:#ffffff;"/>
     </defs>
     <g>
      <use style="fill:#f77189;stroke:#ffffff;" x="15.351484" xlink:href="#ma8a978f6be" y="9.062344"/>
     </g>
    </g>
    <g id="text_1">
     <text style="fill:#262626;font-family:DejaVu Sans;font-size:11px;font-stretch:normal;font-style:normal;font-weight:normal;text-anchor:start;" transform="rotate(-0, 35.151484, 12.912344)" x="35.151484" y="12.912344">BJ</text>
    </g>
    <g id="line2d_3">
     <path d="M 4.351484 25.208281 
L 26.351484 25.208281 
" style="fill:none;stroke:#ffffff;stroke-linecap:round;stroke-width:1.5;"/>
    </g>
    <g id="line2d_4">
     <defs>
      <path d="M 0 5 
C 1.326016 5 2.597899 4.473168 3.535534 3.535534 
C 4.473168 2.597899 5 1.326016 5 0 
C 5 -1.326016 4.473168 -2.597899 3.535534 -3.535534 
C 2.597899 -4.473168 1.326016 -5 0 -5 
C -1.326016 -5 -2.597899 -4.473168 -3.535534 -3.535534 
C -4.473168 -2.597899 -5 -1.326016 -5 0 
C -5 1.326016 -4.473168 2.597899 -3.535534 3.535534 
C -2.597899 4.473168 -1.326016 5 0 5 
z
" id="md0551e2eb6" style="stroke:#ffffff;"/>
     </defs>
     <g>
      <use style="fill:#ae9d31;stroke:#ffffff;" x="15.351484" xlink:href="#md0551e2eb6" y="25.208281"/>
     </g>
    </g>
    <g id="text_2">
     <text style="fill:#262626;font-family:DejaVu Sans;font-size:11px;font-stretch:normal;font-style:normal;font-weight:normal;text-anchor:start;" transform="rotate(-0, 35.151484, 29.058281)" x="35.151484" y="29.058281">IPS</text>
    </g>
    <g id="line2d_5">
     <path d="M 74.012422 9.062344 
L 96.012422 9.062344 
" style="fill:none;stroke:#ffffff;stroke-linecap:round;stroke-width:1.5;"/>
    </g>
    <g id="line2d_6">
     <defs>
      <path d="M 0 5 
C 1.326016 5 2.597899 4.473168 3.535534 3.535534 
C 4.473168 2.597899 5 1.326016 5 0 
C 5 -1.326016 4.473168 -2.597899 3.535534 -3.535534 
C 2.597899 -4.473168 1.326016 -5 0 -5 
C -1.326016 -5 -2.597899 -4.473168 -3.535534 -3.535534 
C -4.473168 -2.597899 -5 -1.326016 -5 0 
C -5 1.326016 -4.473168 2.597899 -3.535534 3.535534 
C -2.597899 4.473168 -1.326016 5 0 5 
z
" id="m4f0310c8e0" style="stroke:#ffffff;"/>
     </defs>
     <g>
      <use style="fill:#33b07a;stroke:#ffffff;" x="85.012422" xlink:href="#m4f0310c8e0" y="9.062344"/>
     </g>
    </g>
    <g id="text_3">
     <text style="fill:#262626;font-family:DejaVu Sans;font-size:11px;font-stretch:normal;font-style:normal;font-weight:normal;text-anchor:start;" transform="rotate(-0, 104.812422, 12.912344)" x="104.812422" y="12.912344">d16T+</text>
    </g>
    <g id="line2d_7">
     <path d="M 163.729453 9.062344 
L 185.729453 9.062344 
" style="fill:none;stroke:#ffffff;stroke-linecap:round;stroke-width:1.5;"/>
    </g>
    <g id="line2d_8">
     <defs>
      <path d="M 0 5 
C 1.326016 5 2.597899 4.473168 3.535534 3.535534 
C 4.473168 2.597899 5 1.326016 5 0 
C 5 -1.326016 4.473168 -2.597899 3.535534 -3.535534 
C 2.597899 -4.473168 1.326016 -5 0 -5 
C -1.326016 -5 -2.597899 -4.473168 -3.535534 -3.535534 
C -4.473168 -2.597899 -5 -1.326016 -5 0 
C -5 1.326016 -4.473168 2.597899 -3.535534 3.535534 
C -2.597899 4.473168 -1.326016 5 0 5 
z
" id="m4c738155ff" style="stroke:#ffffff;"/>
     </defs>
     <g>
      <use style="fill:#38a9c5;stroke:#ffffff;" x="174.729453" xlink:href="#m4c738155ff" y="9.062344"/>
     </g>
    </g>
    <g id="text_4">
     <text style="fill:#262626;font-family:DejaVu Sans;font-size:11px;font-stretch:normal;font-style:normal;font-weight:normal;text-anchor:start;" transform="rotate(-0, 194.529453, 12.912344)" x="194.529453" y="12.912344">d24T+</text>
    </g>
    <g id="line2d_9">
     <path d="M 253.446484 9.062344 
L 275.446484 9.062344 
" style="fill:none;stroke:#ffffff;stroke-linecap:round;stroke-width:1.5;"/>
    </g>
    <g id="line2d_10">
     <defs>
      <path d="M 0 5 
C 1.326016 5 2.597899 4.473168 3.535534 3.535534 
C 4.473168 2.597899 5 1.326016 5 0 
C 5 -1.326016 4.473168 -2.597899 3.535534 -3.535534 
C 2.597899 -4.473168 1.326016 -5 0 -5 
C -1.326016 -5 -2.597899 -4.473168 -3.535534 -3.535534 
C -4.473168 -2.597899 -5 -1.326016 -5 0 
C -5 1.326016 -4.473168 2.597899 -3.535534 3.535534 
C -2.597899 4.473168 -1.326016 5 0 5 
z
" id="mdff8ca2f27" style="stroke:#ffffff;"/>
     </defs>
     <g>
      <use style="fill:#cc7af4;stroke:#ffffff;" x="264.446484" xlink:href="#mdff8ca2f27" y="9.062344"/>
     </g>
    </g>
    <g id="text_5">
     <text style="fill:#262626;font-family:DejaVu Sans;font-size:11px;font-stretch:normal;font-style:normal;font-weight:normal;text-anchor:start;" transform="rotate(-0, 284.246484, 12.912344)" x="284.246484" y="12.912344">d8</text>
    </g>
   </g>
  </g>
 </g>
</svg>
