<?xml version="1.0" encoding="utf-8" standalone="no"?>
<!DOCTYPE svg PUBLIC "-//W3C//DTD SVG 1.1//EN"
  "http://www.w3.org/Graphics/SVG/1.1/DTD/svg11.dtd">
<svg xmlns:xlink="http://www.w3.org/1999/xlink" width="337.247468pt" height="321.687679pt" viewBox="0 0 337.247468 321.687679" xmlns="http://www.w3.org/2000/svg" version="1.1">
 <metadata>
  <rdf:RDF xmlns:dc="http://purl.org/dc/elements/1.1/" xmlns:cc="http://creativecommons.org/ns#" xmlns:rdf="http://www.w3.org/1999/02/22-rdf-syntax-ns#">
   <cc:Work>
    <dc:type rdf:resource="http://purl.org/dc/dcmitype/StillImage"/>
    <dc:date>2023-08-18T18:13:16.088841</dc:date>
    <dc:format>image/svg+xml</dc:format>
    <dc:creator>
     <cc:Agent>
      <dc:title>Matplotlib v3.7.2, https://matplotlib.org/</dc:title>
     </cc:Agent>
    </dc:creator>
   </cc:Work>
  </rdf:RDF>
 </metadata>
 <defs>
  <style type="text/css">*{stroke-linejoin: round; stroke-linecap: butt}</style>
 </defs>
 <g id="figure_1">
  <g id="patch_1">
   <path d="M 0 321.687679 
L 337.247468 321.687679 
L 337.247468 0 
L 0 0 
z
" style="fill: #ffffff"/>
  </g>
  <g id="axes_1">
   <g id="patch_2">
    <path d="M 65.449896 265.571549 
L 318.124896 265.571549 
L 318.124896 12.896549 
L 65.449896 12.896549 
z
" style="fill: #ffffff"/>
   </g>
   <g id="matplotlib.axis_1">
    <g id="xtick_1">
     <g id="text_1">
      <text style="fill: #262626; font: 14.994px 'Arial', 'DejaVu Sans', 'Liberation Sans', 'Bitstream Vera Sans', sans-serif; text-anchor: middle" x="65.449896" y="286.464646" transform="rotate(-0 65.449896 286.464646)">0.0</text>
     </g>
    </g>
    <g id="xtick_2">
     <g id="text_2">
      <text style="fill: #262626; font: 14.994px 'Arial', 'DejaVu Sans', 'Liberation Sans', 'Bitstream Vera Sans', sans-serif; text-anchor: middle" x="115.984896" y="286.464646" transform="rotate(-0 115.984896 286.464646)">0.2</text>
     </g>
    </g>
    <g id="xtick_3">
     <g id="text_3">
      <text style="fill: #262626; font: 14.994px 'Arial', 'DejaVu Sans', 'Liberation Sans', 'Bitstream Vera Sans', sans-serif; text-anchor: middle" x="166.519896" y="286.464646" transform="rotate(-0 166.519896 286.464646)">0.4</text>
     </g>
    </g>
    <g id="xtick_4">
     <g id="text_4">
      <text style="fill: #262626; font: 14.994px 'Arial', 'DejaVu Sans', 'Liberation Sans', 'Bitstream Vera Sans', sans-serif; text-anchor: middle" x="217.054896" y="286.464646" transform="rotate(-0 217.054896 286.464646)">0.6</text>
     </g>
    </g>
    <g id="xtick_5">
     <g id="text_5">
      <text style="fill: #262626; font: 14.994px 'Arial', 'DejaVu Sans', 'Liberation Sans', 'Bitstream Vera Sans', sans-serif; text-anchor: middle" x="267.589896" y="286.464646" transform="rotate(-0 267.589896 286.464646)">0.8</text>
     </g>
    </g>
    <g id="xtick_6">
     <g id="text_6">
      <text style="fill: #262626; font: 14.994px 'Arial', 'DejaVu Sans', 'Liberation Sans', 'Bitstream Vera Sans', sans-serif; text-anchor: middle" x="318.124896" y="286.464646" transform="rotate(-0 318.124896 286.464646)">1.0</text>
     </g>
    </g>
    <g id="text_7">
     <text style="fill: #262626; font: 21.6px 'Arial', 'DejaVu Sans', 'Liberation Sans', 'Bitstream Vera Sans', sans-serif; text-anchor: middle" x="191.787396" y="309.995554" transform="rotate(-0 191.787396 309.995554)">Percentile</text>
    </g>
   </g>
   <g id="matplotlib.axis_2">
    <g id="ytick_1">
     <g id="text_8">
      <text style="fill: #262626; font: 14.994px 'Arial', 'DejaVu Sans', 'Liberation Sans', 'Bitstream Vera Sans', sans-serif; text-anchor: end" x="55.949896" y="271.268097" transform="rotate(-0 55.949896 271.268097)">0.0</text>
     </g>
    </g>
    <g id="ytick_2">
     <g id="text_9">
      <text style="fill: #262626; font: 14.994px 'Arial', 'DejaVu Sans', 'Liberation Sans', 'Bitstream Vera Sans', sans-serif; text-anchor: end" x="55.949896" y="220.733097" transform="rotate(-0 55.949896 220.733097)">0.2</text>
     </g>
    </g>
    <g id="ytick_3">
     <g id="text_10">
      <text style="fill: #262626; font: 14.994px 'Arial', 'DejaVu Sans', 'Liberation Sans', 'Bitstream Vera Sans', sans-serif; text-anchor: end" x="55.949896" y="170.198097" transform="rotate(-0 55.949896 170.198097)">0.4</text>
     </g>
    </g>
    <g id="ytick_4">
     <g id="text_11">
      <text style="fill: #262626; font: 14.994px 'Arial', 'DejaVu Sans', 'Liberation Sans', 'Bitstream Vera Sans', sans-serif; text-anchor: end" x="55.949896" y="119.663097" transform="rotate(-0 55.949896 119.663097)">0.6</text>
     </g>
    </g>
    <g id="ytick_5">
     <g id="text_12">
      <text style="fill: #262626; font: 14.994px 'Arial', 'DejaVu Sans', 'Liberation Sans', 'Bitstream Vera Sans', sans-serif; text-anchor: end" x="55.949896" y="69.128097" transform="rotate(-0 55.949896 69.128097)">0.8</text>
     </g>
    </g>
    <g id="ytick_6">
     <g id="text_13">
      <text style="fill: #262626; font: 14.994px 'Arial', 'DejaVu Sans', 'Liberation Sans', 'Bitstream Vera Sans', sans-serif; text-anchor: end" x="55.949896" y="18.593097" transform="rotate(-0 55.949896 18.593097)">1.0</text>
     </g>
    </g>
    <g id="text_14">
     <text style="fill: #262626; font: 21.6px 'Arial', 'DejaVu Sans', 'Liberation Sans', 'Bitstream Vera Sans', sans-serif; text-anchor: middle" x="23.612625" y="139.234049" transform="rotate(-90 23.612625 139.234049)">Gene Expression Similarity</text>
    </g>
   </g>
   <g id="line2d_1">
    <path d="M 65.449896 212.012884 
L 73.106714 198.58339 
L 80.763532 196.913134 
L 88.42035 195.192619 
L 96.077168 191.218366 
L 103.733987 189.986879 
L 111.390805 188.989283 
L 119.047623 176.465756 
L 126.704441 175.374138 
L 134.361259 173.342425 
L 142.018077 171.032817 
L 149.674896 166.071876 
L 157.331714 163.824144 
L 164.988532 134.950853 
L 172.64535 132.852761 
L 180.302168 131.500078 
L 187.958987 115.299527 
L 195.615805 113.940066 
L 203.272623 113.940066 
L 210.929441 113.940066 
L 218.586259 104.909688 
L 226.243077 104.909688 
L 233.899896 101.390115 
L 241.556714 60.774622 
L 249.213532 52.902743 
L 256.87035 45.591696 
L 264.527168 43.533814 
L 272.183987 43.533814 
L 279.840805 43.533814 
L 287.497623 43.533814 
L 295.154441 43.533814 
L 302.811259 43.533814 
L 310.468077 12.896549 
L 318.124896 12.896549 
" clip-path="url(#p7c6dc1abdd)" style="fill: none; stroke: #f77189; stroke-width: 1.5; stroke-linecap: round"/>
   </g>
   <g id="line2d_2">
    <path d="M 65.449896 210.557109 
L 73.106714 197.104692 
L 80.763532 195.461145 
L 88.42035 195.006824 
L 96.077168 193.021874 
L 103.733987 190.161383 
L 111.390805 189.101838 
L 119.047623 188.642144 
L 126.704441 183.102556 
L 134.361259 179.689169 
L 142.018077 175.359433 
L 149.674896 169.979392 
L 157.331714 169.896258 
L 164.988532 168.109864 
L 172.64535 165.946967 
L 180.302168 162.918151 
L 187.958987 161.672868 
L 195.615805 158.647054 
L 203.272623 157.067326 
L 210.929441 156.589322 
L 218.586259 151.207496 
L 226.243077 146.573505 
L 233.899896 144.609874 
L 241.556714 144.429678 
L 249.213532 143.525056 
L 256.87035 142.710721 
L 264.527168 142.515064 
L 272.183987 130.167731 
L 279.840805 107.3831 
L 287.497623 90.077928 
L 295.154441 61.525157 
L 302.811259 42.639214 
L 310.468077 12.896549 
L 318.124896 12.896549 
" clip-path="url(#p7c6dc1abdd)" style="fill: none; stroke: #ae9d31; stroke-width: 1.5; stroke-linecap: round"/>
   </g>
   <g id="line2d_3">
    <path d="M 65.449896 184.152552 
L 73.106714 183.791392 
L 80.763532 178.162875 
L 88.42035 176.461207 
L 96.077168 175.77441 
L 103.733987 171.590806 
L 111.390805 168.594394 
L 119.047623 167.535432 
L 126.704441 161.612999 
L 134.361259 158.653674 
L 142.018077 155.915945 
L 149.674896 154.590843 
L 157.331714 152.699267 
L 164.988532 148.398662 
L 172.64535 147.541471 
L 180.302168 146.352429 
L 187.958987 141.753162 
L 195.615805 141.208072 
L 203.272623 139.377805 
L 210.929441 136.783947 
L 218.586259 132.612671 
L 226.243077 131.138175 
L 233.899896 129.324853 
L 241.556714 127.603652 
L 249.213532 125.114944 
L 256.87035 124.668299 
L 264.527168 118.356517 
L 272.183987 112.548195 
L 279.840805 112.024005 
L 287.497623 97.079249 
L 295.154441 91.244026 
L 302.811259 57.129607 
L 310.468077 12.896549 
L 318.124896 12.896549 
" clip-path="url(#p7c6dc1abdd)" style="fill: none; stroke: #33b07a; stroke-width: 1.5; stroke-linecap: round"/>
   </g>
   <g id="line2d_4">
    <path d="M 65.449896 194.991465 
L 73.106714 189.453421 
L 80.763532 181.322451 
L 88.42035 180.420022 
L 96.077168 172.560398 
L 103.733987 170.200368 
L 111.390805 169.597764 
L 119.047623 169.192292 
L 126.704441 168.607734 
L 134.361259 163.439536 
L 142.018077 159.581292 
L 149.674896 152.405376 
L 157.331714 152.371869 
L 164.988532 147.254727 
L 172.64535 145.399964 
L 180.302168 145.227716 
L 187.958987 143.180462 
L 195.615805 137.911314 
L 203.272623 135.092402 
L 210.929441 132.200293 
L 218.586259 129.090354 
L 226.243077 128.590432 
L 233.899896 128.387414 
L 241.556714 124.742197 
L 249.213532 114.633656 
L 256.87035 113.688544 
L 264.527168 112.039064 
L 272.183987 96.710122 
L 279.840805 86.171838 
L 287.497623 78.426385 
L 295.154441 59.598883 
L 302.811259 43.539151 
L 310.468077 12.896549 
L 318.124896 12.896549 
" clip-path="url(#p7c6dc1abdd)" style="fill: none; stroke: #38a9c5; stroke-width: 1.5; stroke-linecap: round"/>
   </g>
   <g id="line2d_5">
    <path d="M 65.449896 209.645221 
L 73.106714 194.650656 
L 80.763532 194.608802 
L 88.42035 178.080033 
L 96.077168 174.549188 
L 103.733987 173.903754 
L 111.390805 172.706106 
L 119.047623 170.018782 
L 126.704441 168.049158 
L 134.361259 164.55035 
L 142.018077 164.032698 
L 149.674896 155.966607 
L 157.331714 152.668974 
L 164.988532 143.467447 
L 172.64535 141.31345 
L 180.302168 138.79813 
L 187.958987 137.959224 
L 195.615805 131.196835 
L 203.272623 123.062867 
L 210.929441 120.398542 
L 218.586259 120.095351 
L 226.243077 116.158389 
L 233.899896 113.72579 
L 241.556714 111.256205 
L 249.213532 107.230664 
L 256.87035 92.889001 
L 264.527168 92.580616 
L 272.183987 90.863539 
L 279.840805 89.923506 
L 287.497623 85.637314 
L 295.154441 80.658869 
L 302.811259 74.13436 
L 310.468077 12.896549 
L 318.124896 12.896549 
" clip-path="url(#p7c6dc1abdd)" style="fill: none; stroke: #cc7af4; stroke-width: 1.5; stroke-linecap: round"/>
   </g>
   <g id="line2d_6">
    <path d="M 65.449896 178.28284 
L 73.106714 176.809626 
L 80.763532 171.941175 
L 88.42035 171.000697 
L 96.077168 164.776831 
L 103.733987 161.943959 
L 111.390805 153.838831 
L 119.047623 152.607287 
L 126.704441 150.870142 
L 134.361259 150.084196 
L 142.018077 147.487865 
L 149.674896 145.73768 
L 157.331714 144.670095 
L 164.988532 143.462741 
L 172.64535 142.331628 
L 180.302168 140.147536 
L 187.958987 139.776109 
L 195.615805 137.808868 
L 203.272623 137.1245 
L 210.929441 136.841829 
L 218.586259 134.516983 
L 226.243077 130.317465 
L 233.899896 130.082245 
L 241.556714 130.067269 
L 249.213532 129.44317 
L 256.87035 125.470376 
L 264.527168 123.141746 
L 272.183987 119.126983 
L 279.840805 117.76138 
L 287.497623 110.924717 
L 295.154441 94.406274 
L 302.811259 79.820422 
L 310.468077 12.896549 
L 318.124896 12.896549 
" clip-path="url(#p7c6dc1abdd)" style="fill: none; stroke: #000000; stroke-width: 6; stroke-linecap: round"/>
   </g>
   <g id="patch_3">
    <path d="M 65.449896 265.571549 
L 65.449896 12.896549 
" style="fill: none; stroke: #262626; stroke-width: 1.25; stroke-linejoin: miter; stroke-linecap: square"/>
   </g>
   <g id="patch_4">
    <path d="M 65.449896 265.571549 
L 318.124896 265.571549 
" style="fill: none; stroke: #262626; stroke-width: 1.25; stroke-linejoin: miter; stroke-linecap: square"/>
   </g>
   <g id="legend_1">
    <g id="patch_5">
     <path d="M 73.149896 118.572174 
L 171.132396 118.572174 
Q 173.332396 118.572174 173.332396 116.372174 
L 173.332396 20.596549 
Q 173.332396 18.396549 171.132396 18.396549 
L 73.149896 18.396549 
Q 70.949896 18.396549 70.949896 20.596549 
L 70.949896 116.372174 
Q 70.949896 118.572174 73.149896 118.572174 
z
" style="fill: #ffffff; opacity: 0.8; stroke: #cccccc; stroke-linejoin: miter"/>
    </g>
    <g id="line2d_7">
     <path d="M 75.349896 27.30483 
L 86.349896 27.30483 
L 97.349896 27.30483 
" style="fill: none; stroke: #f77189; stroke-width: 1.5; stroke-linecap: round"/>
    </g>
    <g id="text_15">
     <text style="fill: #262626; font: 11px 'Arial', 'DejaVu Sans', 'Liberation Sans', 'Bitstream Vera Sans', sans-serif; text-anchor: start" x="106.149896" y="31.15483" transform="rotate(-0 106.149896 31.15483)">BJ</text>
    </g>
    <g id="line2d_8">
     <path d="M 75.349896 43.450767 
L 86.349896 43.450767 
L 97.349896 43.450767 
" style="fill: none; stroke: #ae9d31; stroke-width: 1.5; stroke-linecap: round"/>
    </g>
    <g id="text_16">
     <text style="fill: #262626; font: 11px 'Arial', 'DejaVu Sans', 'Liberation Sans', 'Bitstream Vera Sans', sans-serif; text-anchor: start" x="106.149896" y="47.300767" transform="rotate(-0 106.149896 47.300767)">IPS</text>
    </g>
    <g id="line2d_9">
     <path d="M 75.349896 59.596705 
L 86.349896 59.596705 
L 97.349896 59.596705 
" style="fill: none; stroke: #33b07a; stroke-width: 1.5; stroke-linecap: round"/>
    </g>
    <g id="text_17">
     <text style="fill: #262626; font: 11px 'Arial', 'DejaVu Sans', 'Liberation Sans', 'Bitstream Vera Sans', sans-serif; text-anchor: start" x="106.149896" y="63.446705" transform="rotate(-0 106.149896 63.446705)">d16T+</text>
    </g>
    <g id="line2d_10">
     <path d="M 75.349896 75.742642 
L 86.349896 75.742642 
L 97.349896 75.742642 
" style="fill: none; stroke: #38a9c5; stroke-width: 1.5; stroke-linecap: round"/>
    </g>
    <g id="text_18">
     <text style="fill: #262626; font: 11px 'Arial', 'DejaVu Sans', 'Liberation Sans', 'Bitstream Vera Sans', sans-serif; text-anchor: start" x="106.149896" y="79.592642" transform="rotate(-0 106.149896 79.592642)">d24T+</text>
    </g>
    <g id="line2d_11">
     <path d="M 75.349896 91.88858 
L 86.349896 91.88858 
L 97.349896 91.88858 
" style="fill: none; stroke: #cc7af4; stroke-width: 1.5; stroke-linecap: round"/>
    </g>
    <g id="text_19">
     <text style="fill: #262626; font: 11px 'Arial', 'DejaVu Sans', 'Liberation Sans', 'Bitstream Vera Sans', sans-serif; text-anchor: start" x="106.149896" y="95.73858" transform="rotate(-0 106.149896 95.73858)">d8</text>
    </g>
    <g id="line2d_12">
     <path d="M 75.349896 108.034517 
L 86.349896 108.034517 
L 97.349896 108.034517 
" style="fill: none; stroke: #000000; stroke-width: 6; stroke-linecap: round"/>
    </g>
    <g id="text_20">
     <text style="fill: #262626; font: 11px 'Arial', 'DejaVu Sans', 'Liberation Sans', 'Bitstream Vera Sans', sans-serif; text-anchor: start" x="106.149896" y="111.884517" transform="rotate(-0 106.149896 111.884517)">Cumulative</text>
    </g>
   </g>
  </g>
 </g>
 <defs>
  <clipPath id="p7c6dc1abdd">
   <rect x="65.449896" y="12.896549" width="252.675" height="252.675"/>
  </clipPath>
 </defs>
</svg>
