<?xml version="1.0" encoding="utf-8" standalone="no"?>
<!DOCTYPE svg PUBLIC "-//W3C//DTD SVG 1.1//EN"
  "http://www.w3.org/Graphics/SVG/1.1/DTD/svg11.dtd">
<svg xmlns:xlink="http://www.w3.org/1999/xlink" width="337.247468pt" height="321.687679pt" viewBox="0 0 337.247468 321.687679" xmlns="http://www.w3.org/2000/svg" version="1.1">
 <metadata>
  <rdf:RDF xmlns:dc="http://purl.org/dc/elements/1.1/" xmlns:cc="http://creativecommons.org/ns#" xmlns:rdf="http://www.w3.org/1999/02/22-rdf-syntax-ns#">
   <cc:Work>
    <dc:type rdf:resource="http://purl.org/dc/dcmitype/StillImage"/>
    <dc:date>2023-08-18T18:13:28.063432</dc:date>
    <dc:format>image/svg+xml</dc:format>
    <dc:creator>
     <cc:Agent>
      <dc:title>Matplotlib v3.7.2, https://matplotlib.org/</dc:title>
     </cc:Agent>
    </dc:creator>
   </cc:Work>
  </rdf:RDF>
 </metadata>
 <defs>
  <style type="text/css">*{stroke-linejoin: round; stroke-linecap: butt}</style>
 </defs>
 <g id="figure_1">
  <g id="patch_1">
   <path d="M 0 321.687679 
L 337.247468 321.687679 
L 337.247468 0 
L 0 0 
z
" style="fill: #ffffff"/>
  </g>
  <g id="axes_1">
   <g id="patch_2">
    <path d="M 65.449896 265.571549 
L 318.124896 265.571549 
L 318.124896 12.896549 
L 65.449896 12.896549 
z
" style="fill: #ffffff"/>
   </g>
   <g id="matplotlib.axis_1">
    <g id="xtick_1">
     <g id="text_1">
      <text style="fill: #262626; font: 14.994px 'Arial', 'DejaVu Sans', 'Liberation Sans', 'Bitstream Vera Sans', sans-serif; text-anchor: middle" x="65.449896" y="286.464646" transform="rotate(-0 65.449896 286.464646)">0.0</text>
     </g>
    </g>
    <g id="xtick_2">
     <g id="text_2">
      <text style="fill: #262626; font: 14.994px 'Arial', 'DejaVu Sans', 'Liberation Sans', 'Bitstream Vera Sans', sans-serif; text-anchor: middle" x="115.984896" y="286.464646" transform="rotate(-0 115.984896 286.464646)">0.2</text>
     </g>
    </g>
    <g id="xtick_3">
     <g id="text_3">
      <text style="fill: #262626; font: 14.994px 'Arial', 'DejaVu Sans', 'Liberation Sans', 'Bitstream Vera Sans', sans-serif; text-anchor: middle" x="166.519896" y="286.464646" transform="rotate(-0 166.519896 286.464646)">0.4</text>
     </g>
    </g>
    <g id="xtick_4">
     <g id="text_4">
      <text style="fill: #262626; font: 14.994px 'Arial', 'DejaVu Sans', 'Liberation Sans', 'Bitstream Vera Sans', sans-serif; text-anchor: middle" x="217.054896" y="286.464646" transform="rotate(-0 217.054896 286.464646)">0.6</text>
     </g>
    </g>
    <g id="xtick_5">
     <g id="text_5">
      <text style="fill: #262626; font: 14.994px 'Arial', 'DejaVu Sans', 'Liberation Sans', 'Bitstream Vera Sans', sans-serif; text-anchor: middle" x="267.589896" y="286.464646" transform="rotate(-0 267.589896 286.464646)">0.8</text>
     </g>
    </g>
    <g id="xtick_6">
     <g id="text_6">
      <text style="fill: #262626; font: 14.994px 'Arial', 'DejaVu Sans', 'Liberation Sans', 'Bitstream Vera Sans', sans-serif; text-anchor: middle" x="318.124896" y="286.464646" transform="rotate(-0 318.124896 286.464646)">1.0</text>
     </g>
    </g>
    <g id="text_7">
     <text style="fill: #262626; font: 21.6px 'Arial', 'DejaVu Sans', 'Liberation Sans', 'Bitstream Vera Sans', sans-serif; text-anchor: middle" x="191.787396" y="309.995554" transform="rotate(-0 191.787396 309.995554)">Percentile</text>
    </g>
   </g>
   <g id="matplotlib.axis_2">
    <g id="ytick_1">
     <g id="text_8">
      <text style="fill: #262626; font: 14.994px 'Arial', 'DejaVu Sans', 'Liberation Sans', 'Bitstream Vera Sans', sans-serif; text-anchor: end" x="55.949896" y="271.268097" transform="rotate(-0 55.949896 271.268097)">0.0</text>
     </g>
    </g>
    <g id="ytick_2">
     <g id="text_9">
      <text style="fill: #262626; font: 14.994px 'Arial', 'DejaVu Sans', 'Liberation Sans', 'Bitstream Vera Sans', sans-serif; text-anchor: end" x="55.949896" y="220.733097" transform="rotate(-0 55.949896 220.733097)">0.2</text>
     </g>
    </g>
    <g id="ytick_3">
     <g id="text_10">
      <text style="fill: #262626; font: 14.994px 'Arial', 'DejaVu Sans', 'Liberation Sans', 'Bitstream Vera Sans', sans-serif; text-anchor: end" x="55.949896" y="170.198097" transform="rotate(-0 55.949896 170.198097)">0.4</text>
     </g>
    </g>
    <g id="ytick_4">
     <g id="text_11">
      <text style="fill: #262626; font: 14.994px 'Arial', 'DejaVu Sans', 'Liberation Sans', 'Bitstream Vera Sans', sans-serif; text-anchor: end" x="55.949896" y="119.663097" transform="rotate(-0 55.949896 119.663097)">0.6</text>
     </g>
    </g>
    <g id="ytick_5">
     <g id="text_12">
      <text style="fill: #262626; font: 14.994px 'Arial', 'DejaVu Sans', 'Liberation Sans', 'Bitstream Vera Sans', sans-serif; text-anchor: end" x="55.949896" y="69.128097" transform="rotate(-0 55.949896 69.128097)">0.8</text>
     </g>
    </g>
    <g id="ytick_6">
     <g id="text_13">
      <text style="fill: #262626; font: 14.994px 'Arial', 'DejaVu Sans', 'Liberation Sans', 'Bitstream Vera Sans', sans-serif; text-anchor: end" x="55.949896" y="18.593097" transform="rotate(-0 55.949896 18.593097)">1.0</text>
     </g>
    </g>
    <g id="text_14">
     <text style="fill: #262626; font: 21.6px 'Arial', 'DejaVu Sans', 'Liberation Sans', 'Bitstream Vera Sans', sans-serif; text-anchor: middle" x="23.612625" y="139.234049" transform="rotate(-90 23.612625 139.234049)">DNA Methylation Similarity</text>
    </g>
   </g>
   <g id="line2d_1">
    <path d="M 65.449896 206.945172 
L 75.168165 187.740087 
L 84.886434 183.731459 
L 94.604703 183.138744 
L 104.322973 178.232742 
L 114.041242 177.092747 
L 123.759511 174.073841 
L 133.47778 171.208245 
L 143.196049 169.294144 
L 152.914319 168.991919 
L 162.632588 158.422018 
L 172.350857 150.847317 
L 182.069126 146.434976 
L 191.787396 142.060493 
L 201.505665 133.75074 
L 211.223934 113.940066 
L 220.942203 104.909688 
L 230.660473 104.909688 
L 240.378742 104.909688 
L 250.097011 96.049065 
L 259.81528 94.604057 
L 269.533549 91.683934 
L 279.251819 80.424747 
L 288.970088 55.421927 
L 298.688357 43.533814 
L 308.406626 43.533814 
L 318.124896 43.533814 
" clip-path="url(#p1a9d0ca807)" style="fill: none; stroke: #f77189; stroke-width: 1.5; stroke-linecap: round"/>
   </g>
   <g id="line2d_2">
    <path d="M 65.449896 210.491107 
L 75.168165 199.485668 
L 84.886434 199.453689 
L 94.604703 193.93879 
L 104.322973 193.349763 
L 114.041242 190.394469 
L 123.759511 189.1118 
L 133.47778 182.001015 
L 143.196049 181.898362 
L 152.914319 181.496351 
L 162.632588 180.867888 
L 172.350857 178.438391 
L 182.069126 169.317244 
L 191.787396 165.844789 
L 201.505665 164.040768 
L 211.223934 161.1871 
L 220.942203 148.552152 
L 230.660473 141.848961 
L 240.378742 140.382933 
L 250.097011 123.149821 
L 259.81528 117.543015 
L 269.533549 115.232253 
L 279.251819 100.91161 
L 288.970088 99.567432 
L 298.688357 95.005363 
L 308.406626 92.982598 
L 318.124896 70.013678 
" clip-path="url(#p1a9d0ca807)" style="fill: none; stroke: #ae9d31; stroke-width: 1.5; stroke-linecap: round"/>
   </g>
   <g id="line2d_3">
    <path d="M 65.449896 189.050884 
L 75.168165 175.410847 
L 84.886434 173.720927 
L 94.604703 172.032288 
L 104.322973 164.363001 
L 114.041242 159.217824 
L 123.759511 158.890033 
L 133.47778 152.658014 
L 143.196049 150.691037 
L 152.914319 148.605439 
L 162.632588 148.550557 
L 172.350857 146.563177 
L 182.069126 141.414079 
L 191.787396 140.484744 
L 201.505665 138.7635 
L 211.223934 138.69977 
L 220.942203 135.654723 
L 230.660473 135.262136 
L 240.378742 134.123578 
L 250.097011 133.803154 
L 259.81528 132.872096 
L 269.533549 129.514737 
L 279.251819 125.686563 
L 288.970088 119.438638 
L 298.688357 106.456404 
L 308.406626 92.857323 
L 318.124896 90.80441 
" clip-path="url(#p1a9d0ca807)" style="fill: none; stroke: #33b07a; stroke-width: 1.5; stroke-linecap: round"/>
   </g>
   <g id="line2d_4">
    <path d="M 65.449896 214.839606 
L 75.168165 212.931185 
L 84.886434 207.025425 
L 94.604703 199.589161 
L 104.322973 189.217202 
L 114.041242 178.142513 
L 123.759511 174.730629 
L 133.47778 168.069914 
L 143.196049 165.183223 
L 152.914319 164.885237 
L 162.632588 161.868735 
L 172.350857 158.82592 
L 182.069126 152.991975 
L 191.787396 152.242999 
L 201.505665 152.064916 
L 211.223934 149.80133 
L 220.942203 148.985983 
L 230.660473 147.743401 
L 240.378742 144.555063 
L 250.097011 143.687196 
L 259.81528 140.02057 
L 269.533549 139.036289 
L 279.251819 138.474517 
L 288.970088 138.113042 
L 298.688357 127.231342 
L 308.406626 117.874117 
L 318.124896 105.985582 
" clip-path="url(#p1a9d0ca807)" style="fill: none; stroke: #38a9c5; stroke-width: 1.5; stroke-linecap: round"/>
   </g>
   <g id="line2d_5">
    <path d="M 65.449896 203.033586 
L 75.168165 192.55087 
L 84.886434 192.384144 
L 94.604703 186.717419 
L 104.322973 178.372854 
L 114.041242 177.101328 
L 123.759511 175.939728 
L 133.47778 174.917655 
L 143.196049 172.527065 
L 152.914319 169.814249 
L 162.632588 167.707758 
L 172.350857 166.961325 
L 182.069126 164.520734 
L 191.787396 160.349988 
L 201.505665 154.02903 
L 211.223934 148.696722 
L 220.942203 144.037538 
L 230.660473 143.028159 
L 240.378742 138.783442 
L 250.097011 123.046675 
L 259.81528 115.355656 
L 269.533549 115.091817 
L 279.251819 113.959912 
L 288.970088 108.400868 
L 298.688357 106.550112 
L 308.406626 92.867268 
L 318.124896 64.120637 
" clip-path="url(#p1a9d0ca807)" style="fill: none; stroke: #cc7af4; stroke-width: 1.5; stroke-linecap: round"/>
   </g>
   <g id="line2d_6">
    <path d="M 65.449896 183.191024 
L 75.168165 177.390265 
L 84.886434 172.228259 
L 94.604703 170.775777 
L 104.322973 169.735065 
L 114.041242 169.402665 
L 123.759511 156.867501 
L 133.47778 154.606708 
L 143.196049 154.13778 
L 152.914319 152.91722 
L 162.632588 150.818341 
L 172.350857 149.483583 
L 182.069126 148.685489 
L 191.787396 148.564529 
L 201.505665 148.364774 
L 211.223934 144.624932 
L 220.942203 142.142694 
L 230.660473 139.975598 
L 240.378742 137.08947 
L 250.097011 134.332328 
L 259.81528 133.093005 
L 269.533549 130.132494 
L 279.251819 129.918035 
L 288.970088 122.719065 
L 298.688357 120.517903 
L 308.406626 117.606281 
L 318.124896 115.979104 
" clip-path="url(#p1a9d0ca807)" style="fill: none; stroke: #000000; stroke-width: 6; stroke-linecap: round"/>
   </g>
   <g id="patch_3">
    <path d="M 65.449896 265.571549 
L 65.449896 12.896549 
" style="fill: none; stroke: #262626; stroke-width: 1.25; stroke-linejoin: miter; stroke-linecap: square"/>
   </g>
   <g id="patch_4">
    <path d="M 65.449896 265.571549 
L 318.124896 265.571549 
" style="fill: none; stroke: #262626; stroke-width: 1.25; stroke-linejoin: miter; stroke-linecap: square"/>
   </g>
   <g id="legend_1">
    <g id="patch_5">
     <path d="M 73.149896 118.572174 
L 171.132396 118.572174 
Q 173.332396 118.572174 173.332396 116.372174 
L 173.332396 20.596549 
Q 173.332396 18.396549 171.132396 18.396549 
L 73.149896 18.396549 
Q 70.949896 18.396549 70.949896 20.596549 
L 70.949896 116.372174 
Q 70.949896 118.572174 73.149896 118.572174 
z
" style="fill: #ffffff; opacity: 0.8; stroke: #cccccc; stroke-linejoin: miter"/>
    </g>
    <g id="line2d_7">
     <path d="M 75.349896 27.30483 
L 86.349896 27.30483 
L 97.349896 27.30483 
" style="fill: none; stroke: #f77189; stroke-width: 1.5; stroke-linecap: round"/>
    </g>
    <g id="text_15">
     <text style="fill: #262626; font: 11px 'Arial', 'DejaVu Sans', 'Liberation Sans', 'Bitstream Vera Sans', sans-serif; text-anchor: start" x="106.149896" y="31.15483" transform="rotate(-0 106.149896 31.15483)">BJ</text>
    </g>
    <g id="line2d_8">
     <path d="M 75.349896 43.450767 
L 86.349896 43.450767 
L 97.349896 43.450767 
" style="fill: none; stroke: #ae9d31; stroke-width: 1.5; stroke-linecap: round"/>
    </g>
    <g id="text_16">
     <text style="fill: #262626; font: 11px 'Arial', 'DejaVu Sans', 'Liberation Sans', 'Bitstream Vera Sans', sans-serif; text-anchor: start" x="106.149896" y="47.300767" transform="rotate(-0 106.149896 47.300767)">IPS</text>
    </g>
    <g id="line2d_9">
     <path d="M 75.349896 59.596705 
L 86.349896 59.596705 
L 97.349896 59.596705 
" style="fill: none; stroke: #33b07a; stroke-width: 1.5; stroke-linecap: round"/>
    </g>
    <g id="text_17">
     <text style="fill: #262626; font: 11px 'Arial', 'DejaVu Sans', 'Liberation Sans', 'Bitstream Vera Sans', sans-serif; text-anchor: start" x="106.149896" y="63.446705" transform="rotate(-0 106.149896 63.446705)">d16T+</text>
    </g>
    <g id="line2d_10">
     <path d="M 75.349896 75.742642 
L 86.349896 75.742642 
L 97.349896 75.742642 
" style="fill: none; stroke: #38a9c5; stroke-width: 1.5; stroke-linecap: round"/>
    </g>
    <g id="text_18">
     <text style="fill: #262626; font: 11px 'Arial', 'DejaVu Sans', 'Liberation Sans', 'Bitstream Vera Sans', sans-serif; text-anchor: start" x="106.149896" y="79.592642" transform="rotate(-0 106.149896 79.592642)">d24T+</text>
    </g>
    <g id="line2d_11">
     <path d="M 75.349896 91.88858 
L 86.349896 91.88858 
L 97.349896 91.88858 
" style="fill: none; stroke: #cc7af4; stroke-width: 1.5; stroke-linecap: round"/>
    </g>
    <g id="text_19">
     <text style="fill: #262626; font: 11px 'Arial', 'DejaVu Sans', 'Liberation Sans', 'Bitstream Vera Sans', sans-serif; text-anchor: start" x="106.149896" y="95.73858" transform="rotate(-0 106.149896 95.73858)">d8</text>
    </g>
    <g id="line2d_12">
     <path d="M 75.349896 108.034517 
L 86.349896 108.034517 
L 97.349896 108.034517 
" style="fill: none; stroke: #000000; stroke-width: 6; stroke-linecap: round"/>
    </g>
    <g id="text_20">
     <text style="fill: #262626; font: 11px 'Arial', 'DejaVu Sans', 'Liberation Sans', 'Bitstream Vera Sans', sans-serif; text-anchor: start" x="106.149896" y="111.884517" transform="rotate(-0 106.149896 111.884517)">Cumulative</text>
    </g>
   </g>
  </g>
 </g>
 <defs>
  <clipPath id="p1a9d0ca807">
   <rect x="65.449896" y="12.896549" width="252.675" height="252.675"/>
  </clipPath>
 </defs>
</svg>
