<?xml version="1.0" encoding="utf-8" standalone="no"?>
<!DOCTYPE svg PUBLIC "-//W3C//DTD SVG 1.1//EN"
  "http://www.w3.org/Graphics/SVG/1.1/DTD/svg11.dtd">
<svg height="334.704381pt" version="1.1" viewBox="0 0 337.247468 334.704381" width="337.247468pt" xmlns="http://www.w3.org/2000/svg" xmlns:xlink="http://www.w3.org/1999/xlink">
 <metadata>
  <rdf:RDF xmlns:cc="http://creativecommons.org/ns#" xmlns:dc="http://purl.org/dc/elements/1.1/" xmlns:rdf="http://www.w3.org/1999/02/22-rdf-syntax-ns#">
   <cc:Work>
    <dc:type rdf:resource="http://purl.org/dc/dcmitype/StillImage"/>
    <dc:date>2023-04-27T13:05:29.886744</dc:date>
    <dc:format>image/svg+xml</dc:format>
    <dc:creator>
     <cc:Agent>
      <dc:title>Matplotlib v3.4.3, https://matplotlib.org/</dc:title>
     </cc:Agent>
    </dc:creator>
   </cc:Work>
  </rdf:RDF>
 </metadata>
 <defs>
  <style type="text/css">*{stroke-linecap:butt;stroke-linejoin:round;}</style>
 </defs>
 <g id="figure_1">
  <g id="patch_1">
   <path d="M 0 334.704381 
L 337.247468 334.704381 
L 337.247468 0 
L 0 0 
z
" style="fill:#ffffff;"/>
  </g>
  <g id="axes_1">
   <g id="patch_2">
    <path d="M 65.449896 278.58825 
L 318.124896 278.58825 
L 318.124896 25.91325 
L 65.449896 25.91325 
z
" style="fill:#ffffff;"/>
   </g>
   <g id="matplotlib.axis_1">
    <g id="xtick_1">
     <g id="text_1">
      <text style="fill:#262626;font-family:DejaVu Sans;font-size:14.994px;font-stretch:normal;font-style:normal;font-weight:normal;text-anchor:middle;" transform="rotate(-0, 65.449896, 299.481347)" x="65.449896" y="299.481347">0.0</text>
     </g>
    </g>
    <g id="xtick_2">
     <g id="text_2">
      <text style="fill:#262626;font-family:DejaVu Sans;font-size:14.994px;font-stretch:normal;font-style:normal;font-weight:normal;text-anchor:middle;" transform="rotate(-0, 115.984896, 299.481347)" x="115.984896" y="299.481347">0.2</text>
     </g>
    </g>
    <g id="xtick_3">
     <g id="text_3">
      <text style="fill:#262626;font-family:DejaVu Sans;font-size:14.994px;font-stretch:normal;font-style:normal;font-weight:normal;text-anchor:middle;" transform="rotate(-0, 166.519896, 299.481347)" x="166.519896" y="299.481347">0.4</text>
     </g>
    </g>
    <g id="xtick_4">
     <g id="text_4">
      <text style="fill:#262626;font-family:DejaVu Sans;font-size:14.994px;font-stretch:normal;font-style:normal;font-weight:normal;text-anchor:middle;" transform="rotate(-0, 217.054896, 299.481347)" x="217.054896" y="299.481347">0.6</text>
     </g>
    </g>
    <g id="xtick_5">
     <g id="text_5">
      <text style="fill:#262626;font-family:DejaVu Sans;font-size:14.994px;font-stretch:normal;font-style:normal;font-weight:normal;text-anchor:middle;" transform="rotate(-0, 267.589896, 299.481347)" x="267.589896" y="299.481347">0.8</text>
     </g>
    </g>
    <g id="xtick_6">
     <g id="text_6">
      <text style="fill:#262626;font-family:DejaVu Sans;font-size:14.994px;font-stretch:normal;font-style:normal;font-weight:normal;text-anchor:middle;" transform="rotate(-0, 318.124896, 299.481347)" x="318.124896" y="299.481347">1.0</text>
     </g>
    </g>
    <g id="text_7">
     <text style="fill:#262626;font-family:DejaVu Sans;font-size:21.6px;font-stretch:normal;font-style:normal;font-weight:normal;text-anchor:middle;" transform="rotate(-0, 191.787396, 323.012256)" x="191.787396" y="323.012256">Percentile</text>
    </g>
   </g>
   <g id="matplotlib.axis_2">
    <g id="ytick_1">
     <g id="text_8">
      <text style="fill:#262626;font-family:DejaVu Sans;font-size:14.994px;font-stretch:normal;font-style:normal;font-weight:normal;text-anchor:end;" transform="rotate(-0, 55.949896, 284.284799)" x="55.949896" y="284.284799">0.0</text>
     </g>
    </g>
    <g id="ytick_2">
     <g id="text_9">
      <text style="fill:#262626;font-family:DejaVu Sans;font-size:14.994px;font-stretch:normal;font-style:normal;font-weight:normal;text-anchor:end;" transform="rotate(-0, 55.949896, 233.749799)" x="55.949896" y="233.749799">0.2</text>
     </g>
    </g>
    <g id="ytick_3">
     <g id="text_10">
      <text style="fill:#262626;font-family:DejaVu Sans;font-size:14.994px;font-stretch:normal;font-style:normal;font-weight:normal;text-anchor:end;" transform="rotate(-0, 55.949896, 183.214799)" x="55.949896" y="183.214799">0.4</text>
     </g>
    </g>
    <g id="ytick_4">
     <g id="text_11">
      <text style="fill:#262626;font-family:DejaVu Sans;font-size:14.994px;font-stretch:normal;font-style:normal;font-weight:normal;text-anchor:end;" transform="rotate(-0, 55.949896, 132.679799)" x="55.949896" y="132.679799">0.6</text>
     </g>
    </g>
    <g id="ytick_5">
     <g id="text_12">
      <text style="fill:#262626;font-family:DejaVu Sans;font-size:14.994px;font-stretch:normal;font-style:normal;font-weight:normal;text-anchor:end;" transform="rotate(-0, 55.949896, 82.144799)" x="55.949896" y="82.144799">0.8</text>
     </g>
    </g>
    <g id="ytick_6">
     <g id="text_13">
      <text style="fill:#262626;font-family:DejaVu Sans;font-size:14.994px;font-stretch:normal;font-style:normal;font-weight:normal;text-anchor:end;" transform="rotate(-0, 55.949896, 31.609799)" x="55.949896" y="31.609799">1.0</text>
     </g>
    </g>
    <g id="text_14">
     <text style="fill:#262626;font-family:DejaVu Sans;font-size:21.6px;font-stretch:normal;font-style:normal;font-weight:normal;text-anchor:middle;" transform="rotate(-90, 23.612625, 152.25075)" x="23.612625" y="152.25075">Gene Expression Similarity</text>
    </g>
   </g>
   <g id="line2d_1">
    <path clip-path="url(#p7a71ae57a3)" d="M 65.449896 236.278986 
L 73.106714 217.890896 
L 80.763532 208.118311 
L 88.42035 202.390629 
L 96.077168 194.347013 
L 103.733987 185.305825 
L 111.390805 180.910504 
L 119.047623 175.419664 
L 126.704441 174.648528 
L 134.361259 157.817076 
L 142.018077 155.426556 
L 149.674896 152.044969 
L 157.331714 149.500557 
L 164.988532 147.909249 
L 172.64535 145.918365 
L 180.302168 143.062474 
L 187.958987 138.65786 
L 195.615805 126.956767 
L 203.272623 126.956767 
L 210.929441 123.802715 
L 218.586259 121.034997 
L 226.243077 117.926389 
L 233.899896 117.926389 
L 241.556714 113.915419 
L 249.213532 99.944038 
L 256.87035 95.335488 
L 264.527168 89.050986 
L 272.183987 85.401805 
L 279.840805 56.550515 
L 287.497623 56.550515 
L 295.154441 56.550515 
L 302.811259 56.550515 
L 310.468077 25.91325 
L 318.124896 25.91325 
" style="fill:none;stroke:#f77189;stroke-linecap:round;stroke-width:1.5;"/>
   </g>
   <g id="line2d_2">
    <path clip-path="url(#p7a71ae57a3)" d="M 65.449896 214.282292 
L 73.106714 212.694535 
L 80.763532 209.480639 
L 88.42035 203.332735 
L 96.077168 200.206602 
L 103.733987 199.346782 
L 111.390805 197.400816 
L 119.047623 194.931804 
L 126.704441 194.905206 
L 134.361259 192.604953 
L 142.018077 189.67588 
L 149.674896 189.01704 
L 157.331714 183.748884 
L 164.988532 182.708365 
L 172.64535 181.8373 
L 180.302168 180.255415 
L 187.958987 180.176062 
L 195.615805 179.421537 
L 203.272623 176.858615 
L 210.929441 169.975112 
L 218.586259 169.373661 
L 226.243077 168.615028 
L 233.899896 164.957146 
L 241.556714 160.117187 
L 249.213532 153.739717 
L 256.87035 153.048451 
L 264.527168 144.295979 
L 272.183987 142.357616 
L 279.840805 129.632844 
L 287.497623 127.398565 
L 295.154441 109.33633 
L 302.811259 91.750735 
L 310.468077 25.91325 
L 318.124896 25.91325 
" style="fill:none;stroke:#ae9d31;stroke-linecap:round;stroke-width:1.5;"/>
   </g>
   <g id="line2d_3">
    <path clip-path="url(#p7a71ae57a3)" d="M 65.449896 236.278986 
L 73.106714 236.278986 
L 80.763532 194.686778 
L 88.42035 194.496384 
L 96.077168 193.595708 
L 103.733987 191.972871 
L 111.390805 188.387671 
L 119.047623 184.525923 
L 126.704441 182.646029 
L 134.361259 182.578328 
L 142.018077 181.039935 
L 149.674896 175.546228 
L 157.331714 174.001876 
L 164.988532 171.288465 
L 172.64535 169.080248 
L 180.302168 166.485542 
L 187.958987 164.656393 
L 195.615805 163.40376 
L 203.272623 160.148608 
L 210.929441 159.643188 
L 218.586259 158.083636 
L 226.243077 154.679537 
L 233.899896 152.851283 
L 241.556714 151.849944 
L 249.213532 148.38852 
L 256.87035 142.644876 
L 264.527168 140.663017 
L 272.183987 132.472075 
L 279.840805 130.542287 
L 287.497623 129.030669 
L 295.154441 127.315082 
L 302.811259 100.824155 
L 310.468077 25.91325 
L 318.124896 25.91325 
" style="fill:none;stroke:#33b07a;stroke-linecap:round;stroke-width:1.5;"/>
   </g>
   <g id="line2d_4">
    <path clip-path="url(#p7a71ae57a3)" d="M 65.449896 230.766073 
L 73.106714 207.166306 
L 80.763532 206.210316 
L 88.42035 198.378853 
L 96.077168 196.528478 
L 103.733987 191.893036 
L 111.390805 188.179713 
L 119.047623 184.874957 
L 126.704441 179.575663 
L 134.361259 179.302272 
L 142.018077 176.08294 
L 149.674896 173.261946 
L 157.331714 173.156103 
L 164.988532 171.885329 
L 172.64535 170.463571 
L 180.302168 169.062701 
L 187.958987 167.36986 
L 195.615805 165.757885 
L 203.272623 162.67358 
L 210.929441 157.082817 
L 218.586259 156.107421 
L 226.243077 153.352181 
L 233.899896 151.40476 
L 241.556714 150.034498 
L 249.213532 146.54615 
L 256.87035 142.312995 
L 264.527168 137.636855 
L 272.183987 137.337887 
L 279.840805 136.735545 
L 287.497623 127.313838 
L 295.154441 111.776288 
L 302.811259 94.87895 
L 310.468077 25.91325 
L 318.124896 25.91325 
" style="fill:none;stroke:#38a9c5;stroke-linecap:round;stroke-width:1.5;"/>
   </g>
   <g id="line2d_5">
    <path clip-path="url(#p7a71ae57a3)" d="M 65.449896 218.062742 
L 73.106714 205.731629 
L 80.763532 200.854909 
L 88.42035 198.149108 
L 96.077168 194.976252 
L 103.733987 187.865767 
L 111.390805 185.759102 
L 119.047623 176.389295 
L 126.704441 175.730615 
L 134.361259 175.154361 
L 142.018077 167.858704 
L 149.674896 162.771588 
L 157.331714 162.593141 
L 164.988532 162.568161 
L 172.64535 160.583634 
L 180.302168 159.660317 
L 187.958987 155.944833 
L 195.615805 152.066535 
L 203.272623 150.373726 
L 210.929441 145.12457 
L 218.586259 141.835243 
L 226.243077 132.702863 
L 233.899896 126.86094 
L 241.556714 126.745233 
L 249.213532 120.157891 
L 256.87035 117.873392 
L 264.527168 109.163552 
L 272.183987 97.284921 
L 279.840805 95.827464 
L 287.497623 91.821559 
L 295.154441 81.737577 
L 302.811259 75.437184 
L 310.468077 25.91325 
L 318.124896 25.91325 
" style="fill:none;stroke:#cc7af4;stroke-linecap:round;stroke-width:1.5;"/>
   </g>
   <g id="line2d_6">
    <path clip-path="url(#p7a71ae57a3)" d="M 65.449896 195.91024 
L 73.106714 180.413112 
L 80.763532 179.768183 
L 88.42035 178.688604 
L 96.077168 176.102476 
L 103.733987 175.87732 
L 111.390805 175.344316 
L 119.047623 175.21411 
L 126.704441 172.166528 
L 134.361259 170.211152 
L 142.018077 165.120268 
L 149.674896 164.751334 
L 157.331714 163.600831 
L 164.988532 162.393358 
L 172.64535 161.925399 
L 180.302168 159.17178 
L 187.958987 158.626291 
L 195.615805 155.892846 
L 203.272623 152.800141 
L 210.929441 152.795835 
L 218.586259 152.561809 
L 226.243077 152.470356 
L 233.899896 150.981978 
L 241.556714 145.826222 
L 249.213532 143.923012 
L 256.87035 143.558224 
L 264.527168 142.835115 
L 272.183987 140.060143 
L 279.840805 138.874818 
L 287.497623 138.21556 
L 295.154441 136.385809 
L 302.811259 119.222566 
L 310.468077 25.91325 
L 318.124896 25.91325 
" style="fill:none;stroke:#000000;stroke-linecap:round;stroke-width:6;"/>
   </g>
   <g id="patch_3">
    <path d="M 65.449896 278.58825 
L 65.449896 25.91325 
" style="fill:none;stroke:#262626;stroke-linecap:square;stroke-linejoin:miter;stroke-width:1.25;"/>
   </g>
   <g id="patch_4">
    <path d="M 65.449896 278.58825 
L 318.124896 278.58825 
" style="fill:none;stroke:#262626;stroke-linecap:square;stroke-linejoin:miter;stroke-width:1.25;"/>
   </g>
   <g id="legend_1">
    <g id="patch_5">
     <path d="M 73.149896 131.588875 
L 171.132396 131.588875 
Q 173.332396 131.588875 173.332396 129.388875 
L 173.332396 33.61325 
Q 173.332396 31.41325 171.132396 31.41325 
L 73.149896 31.41325 
Q 70.949896 31.41325 70.949896 33.61325 
L 70.949896 129.388875 
Q 70.949896 131.588875 73.149896 131.588875 
z
" style="fill:#ffffff;opacity:0.8;stroke:#cccccc;stroke-linejoin:miter;"/>
    </g>
    <g id="line2d_7">
     <path d="M 75.349896 40.321531 
L 97.349896 40.321531 
" style="fill:none;stroke:#f77189;stroke-linecap:round;stroke-width:1.5;"/>
    </g>
    <g id="line2d_8"/>
    <g id="text_15">
     <text style="fill:#262626;font-family:DejaVu Sans;font-size:11px;font-stretch:normal;font-style:normal;font-weight:normal;text-anchor:start;" transform="rotate(-0, 106.149896, 44.171531)" x="106.149896" y="44.171531">BJ</text>
    </g>
    <g id="line2d_9">
     <path d="M 75.349896 56.467469 
L 97.349896 56.467469 
" style="fill:none;stroke:#ae9d31;stroke-linecap:round;stroke-width:1.5;"/>
    </g>
    <g id="line2d_10"/>
    <g id="text_16">
     <text style="fill:#262626;font-family:DejaVu Sans;font-size:11px;font-stretch:normal;font-style:normal;font-weight:normal;text-anchor:start;" transform="rotate(-0, 106.149896, 60.317469)" x="106.149896" y="60.317469">IPS</text>
    </g>
    <g id="line2d_11">
     <path d="M 75.349896 72.613406 
L 97.349896 72.613406 
" style="fill:none;stroke:#33b07a;stroke-linecap:round;stroke-width:1.5;"/>
    </g>
    <g id="line2d_12"/>
    <g id="text_17">
     <text style="fill:#262626;font-family:DejaVu Sans;font-size:11px;font-stretch:normal;font-style:normal;font-weight:normal;text-anchor:start;" transform="rotate(-0, 106.149896, 76.463406)" x="106.149896" y="76.463406">d16T+</text>
    </g>
    <g id="line2d_13">
     <path d="M 75.349896 88.759344 
L 97.349896 88.759344 
" style="fill:none;stroke:#38a9c5;stroke-linecap:round;stroke-width:1.5;"/>
    </g>
    <g id="line2d_14"/>
    <g id="text_18">
     <text style="fill:#262626;font-family:DejaVu Sans;font-size:11px;font-stretch:normal;font-style:normal;font-weight:normal;text-anchor:start;" transform="rotate(-0, 106.149896, 92.609344)" x="106.149896" y="92.609344">d24T+</text>
    </g>
    <g id="line2d_15">
     <path d="M 75.349896 104.905281 
L 97.349896 104.905281 
" style="fill:none;stroke:#cc7af4;stroke-linecap:round;stroke-width:1.5;"/>
    </g>
    <g id="line2d_16"/>
    <g id="text_19">
     <text style="fill:#262626;font-family:DejaVu Sans;font-size:11px;font-stretch:normal;font-style:normal;font-weight:normal;text-anchor:start;" transform="rotate(-0, 106.149896, 108.755281)" x="106.149896" y="108.755281">d8</text>
    </g>
    <g id="line2d_17">
     <path d="M 75.349896 121.051219 
L 97.349896 121.051219 
" style="fill:none;stroke:#000000;stroke-linecap:round;stroke-width:6;"/>
    </g>
    <g id="line2d_18"/>
    <g id="text_20">
     <text style="fill:#262626;font-family:DejaVu Sans;font-size:11px;font-stretch:normal;font-style:normal;font-weight:normal;text-anchor:start;" transform="rotate(-0, 106.149896, 124.901219)" x="106.149896" y="124.901219">Cumulative</text>
    </g>
   </g>
  </g>
 </g>
 <defs>
  <clipPath id="p7a71ae57a3">
   <rect height="252.675" width="252.675" x="65.449896" y="25.91325"/>
  </clipPath>
 </defs>
</svg>
