<?xml version="1.0" encoding="utf-8" standalone="no"?>
<!DOCTYPE svg PUBLIC "-//W3C//DTD SVG 1.1//EN"
  "http://www.w3.org/Graphics/SVG/1.1/DTD/svg11.dtd">
<svg height="334.704381pt" version="1.1" viewBox="0 0 337.247468 334.704381" width="337.247468pt" xmlns="http://www.w3.org/2000/svg" xmlns:xlink="http://www.w3.org/1999/xlink">
 <metadata>
  <rdf:RDF xmlns:cc="http://creativecommons.org/ns#" xmlns:dc="http://purl.org/dc/elements/1.1/" xmlns:rdf="http://www.w3.org/1999/02/22-rdf-syntax-ns#">
   <cc:Work>
    <dc:type rdf:resource="http://purl.org/dc/dcmitype/StillImage"/>
    <dc:date>2023-04-27T17:31:48.975979</dc:date>
    <dc:format>image/svg+xml</dc:format>
    <dc:creator>
     <cc:Agent>
      <dc:title>Matplotlib v3.4.3, https://matplotlib.org/</dc:title>
     </cc:Agent>
    </dc:creator>
   </cc:Work>
  </rdf:RDF>
 </metadata>
 <defs>
  <style type="text/css">*{stroke-linecap:butt;stroke-linejoin:round;}</style>
 </defs>
 <g id="figure_1">
  <g id="patch_1">
   <path d="M 0 334.704381 
L 337.247468 334.704381 
L 337.247468 0 
L 0 0 
z
" style="fill:#ffffff;"/>
  </g>
  <g id="axes_1">
   <g id="patch_2">
    <path d="M 65.449896 278.58825 
L 318.124896 278.58825 
L 318.124896 25.91325 
L 65.449896 25.91325 
z
" style="fill:#ffffff;"/>
   </g>
   <g id="matplotlib.axis_1">
    <g id="xtick_1">
     <g id="text_1">
      <text style="fill:#262626;font-family:DejaVu Sans;font-size:14.994px;font-stretch:normal;font-style:normal;font-weight:normal;text-anchor:middle;" transform="rotate(-0, 65.449896, 299.481347)" x="65.449896" y="299.481347">0.0</text>
     </g>
    </g>
    <g id="xtick_2">
     <g id="text_2">
      <text style="fill:#262626;font-family:DejaVu Sans;font-size:14.994px;font-stretch:normal;font-style:normal;font-weight:normal;text-anchor:middle;" transform="rotate(-0, 115.984896, 299.481347)" x="115.984896" y="299.481347">0.2</text>
     </g>
    </g>
    <g id="xtick_3">
     <g id="text_3">
      <text style="fill:#262626;font-family:DejaVu Sans;font-size:14.994px;font-stretch:normal;font-style:normal;font-weight:normal;text-anchor:middle;" transform="rotate(-0, 166.519896, 299.481347)" x="166.519896" y="299.481347">0.4</text>
     </g>
    </g>
    <g id="xtick_4">
     <g id="text_4">
      <text style="fill:#262626;font-family:DejaVu Sans;font-size:14.994px;font-stretch:normal;font-style:normal;font-weight:normal;text-anchor:middle;" transform="rotate(-0, 217.054896, 299.481347)" x="217.054896" y="299.481347">0.6</text>
     </g>
    </g>
    <g id="xtick_5">
     <g id="text_5">
      <text style="fill:#262626;font-family:DejaVu Sans;font-size:14.994px;font-stretch:normal;font-style:normal;font-weight:normal;text-anchor:middle;" transform="rotate(-0, 267.589896, 299.481347)" x="267.589896" y="299.481347">0.8</text>
     </g>
    </g>
    <g id="xtick_6">
     <g id="text_6">
      <text style="fill:#262626;font-family:DejaVu Sans;font-size:14.994px;font-stretch:normal;font-style:normal;font-weight:normal;text-anchor:middle;" transform="rotate(-0, 318.124896, 299.481347)" x="318.124896" y="299.481347">1.0</text>
     </g>
    </g>
    <g id="text_7">
     <text style="fill:#262626;font-family:DejaVu Sans;font-size:21.6px;font-stretch:normal;font-style:normal;font-weight:normal;text-anchor:middle;" transform="rotate(-0, 191.787396, 323.012256)" x="191.787396" y="323.012256">Percentile</text>
    </g>
   </g>
   <g id="matplotlib.axis_2">
    <g id="ytick_1">
     <g id="text_8">
      <text style="fill:#262626;font-family:DejaVu Sans;font-size:14.994px;font-stretch:normal;font-style:normal;font-weight:normal;text-anchor:end;" transform="rotate(-0, 55.949896, 284.284799)" x="55.949896" y="284.284799">0.0</text>
     </g>
    </g>
    <g id="ytick_2">
     <g id="text_9">
      <text style="fill:#262626;font-family:DejaVu Sans;font-size:14.994px;font-stretch:normal;font-style:normal;font-weight:normal;text-anchor:end;" transform="rotate(-0, 55.949896, 233.749799)" x="55.949896" y="233.749799">0.2</text>
     </g>
    </g>
    <g id="ytick_3">
     <g id="text_10">
      <text style="fill:#262626;font-family:DejaVu Sans;font-size:14.994px;font-stretch:normal;font-style:normal;font-weight:normal;text-anchor:end;" transform="rotate(-0, 55.949896, 183.214799)" x="55.949896" y="183.214799">0.4</text>
     </g>
    </g>
    <g id="ytick_4">
     <g id="text_11">
      <text style="fill:#262626;font-family:DejaVu Sans;font-size:14.994px;font-stretch:normal;font-style:normal;font-weight:normal;text-anchor:end;" transform="rotate(-0, 55.949896, 132.679799)" x="55.949896" y="132.679799">0.6</text>
     </g>
    </g>
    <g id="ytick_5">
     <g id="text_12">
      <text style="fill:#262626;font-family:DejaVu Sans;font-size:14.994px;font-stretch:normal;font-style:normal;font-weight:normal;text-anchor:end;" transform="rotate(-0, 55.949896, 82.144799)" x="55.949896" y="82.144799">0.8</text>
     </g>
    </g>
    <g id="ytick_6">
     <g id="text_13">
      <text style="fill:#262626;font-family:DejaVu Sans;font-size:14.994px;font-stretch:normal;font-style:normal;font-weight:normal;text-anchor:end;" transform="rotate(-0, 55.949896, 31.609799)" x="55.949896" y="31.609799">1.0</text>
     </g>
    </g>
    <g id="text_14">
     <text style="fill:#262626;font-family:DejaVu Sans;font-size:21.6px;font-stretch:normal;font-style:normal;font-weight:normal;text-anchor:middle;" transform="rotate(-90, 23.612625, 152.25075)" x="23.612625" y="152.25075">Gene Expression Similarity</text>
    </g>
   </g>
   <g id="line2d_1">
    <path clip-path="url(#p1102f66c93)" d="M 65.449896 228.799511 
L 68.002168 218.175417 
L 70.554441 212.02763 
L 73.106714 210.359082 
L 75.658987 208.111148 
L 78.211259 207.483621 
L 80.763532 205.716643 
L 83.315805 204.454773 
L 85.868077 204.146853 
L 88.42035 199.733027 
L 90.972623 198.337524 
L 93.524896 197.920396 
L 96.077168 197.853562 
L 98.629441 197.090959 
L 101.181714 194.985771 
L 103.733987 194.285732 
L 106.286259 194.016583 
L 108.838532 192.659137 
L 111.390805 190.652059 
L 113.943077 188.656921 
L 116.49535 188.175601 
L 119.047623 187.107188 
L 121.599896 186.693423 
L 124.152168 185.070729 
L 126.704441 184.949036 
L 129.256714 184.191878 
L 131.808987 183.616955 
L 134.361259 181.735493 
L 136.913532 181.703675 
L 139.465805 181.585771 
L 142.018077 181.580509 
L 144.57035 180.717894 
L 147.122623 180.31646 
L 149.674896 179.528961 
L 152.227168 179.334164 
L 154.779441 179.085321 
L 157.331714 177.959311 
L 159.883987 177.532524 
L 162.436259 176.649218 
L 164.988532 175.917007 
L 167.540805 175.885041 
L 170.093077 174.59937 
L 172.64535 174.582937 
L 175.197623 174.474334 
L 177.749896 174.088994 
L 180.302168 173.695496 
L 182.854441 173.044904 
L 185.406714 172.681523 
L 187.958987 172.544615 
L 190.511259 171.978091 
L 193.063532 171.701963 
L 195.615805 169.992031 
L 198.168077 169.785722 
L 200.72035 169.64161 
L 203.272623 169.588437 
L 205.824896 169.076865 
L 208.377168 168.693494 
L 210.929441 166.299336 
L 213.481714 165.257506 
L 216.033987 165.038464 
L 218.586259 164.329105 
L 221.138532 162.985123 
L 223.690805 160.240539 
L 226.243077 159.540218 
L 228.79535 158.569665 
L 231.347623 158.42807 
L 233.899896 157.188713 
L 236.452168 156.925549 
L 239.004441 156.655342 
L 241.556714 155.807143 
L 244.108987 155.494477 
L 246.661259 155.24495 
L 249.213532 155.081328 
L 251.765805 153.578816 
L 254.318077 153.20068 
L 256.87035 153.054265 
L 259.422623 152.89916 
L 261.974896 152.809253 
L 264.527168 148.150044 
L 267.079441 148.032882 
L 269.631714 147.953172 
L 272.183987 147.751502 
L 274.736259 147.10321 
L 277.288532 146.287103 
L 279.840805 145.799918 
L 282.393077 143.033944 
L 284.94535 140.935453 
L 287.497623 136.715716 
L 290.049896 133.067328 
L 292.602168 129.344096 
L 295.154441 128.620707 
L 297.706714 124.268968 
L 300.258987 123.868938 
L 302.811259 119.907834 
L 305.363532 116.844771 
L 307.915805 112.842673 
L 310.468077 106.839589 
L 313.02035 102.259123 
L 315.572623 100.522055 
L 318.124896 97.81751 
" style="fill:none;stroke:#f77189;stroke-linecap:round;stroke-width:1.5;"/>
   </g>
   <g id="line2d_2">
    <path clip-path="url(#p1102f66c93)" d="M 65.449896 228.46624 
L 68.002168 223.823635 
L 70.554441 223.243272 
L 73.106714 217.895005 
L 75.658987 214.624747 
L 78.211259 211.638865 
L 80.763532 211.442954 
L 83.315805 209.404036 
L 85.868077 207.051363 
L 88.42035 205.002348 
L 90.972623 202.087959 
L 93.524896 200.294845 
L 96.077168 199.649433 
L 98.629441 199.452414 
L 101.181714 198.347076 
L 103.733987 198.33419 
L 106.286259 196.399489 
L 108.838532 195.813941 
L 111.390805 195.528499 
L 113.943077 194.643693 
L 116.49535 193.559765 
L 119.047623 192.784783 
L 121.599896 192.267778 
L 124.152168 190.902572 
L 126.704441 190.626356 
L 129.256714 189.561876 
L 131.808987 189.505131 
L 134.361259 188.852388 
L 136.913532 188.611437 
L 139.465805 188.475461 
L 142.018077 188.430743 
L 144.57035 187.966885 
L 147.122623 187.890608 
L 149.674896 187.680042 
L 152.227168 187.630077 
L 154.779441 187.53029 
L 157.331714 186.214962 
L 159.883987 185.97754 
L 162.436259 185.659487 
L 164.988532 184.520268 
L 167.540805 183.544834 
L 170.093077 182.865757 
L 172.64535 181.272027 
L 175.197623 180.628744 
L 177.749896 179.981179 
L 180.302168 179.910013 
L 182.854441 179.718292 
L 185.406714 179.106769 
L 187.958987 178.516287 
L 190.511259 177.429335 
L 193.063532 177.205313 
L 195.615805 176.170434 
L 198.168077 176.060738 
L 200.72035 175.355731 
L 203.272623 174.935711 
L 205.824896 173.941985 
L 208.377168 173.479267 
L 210.929441 172.911642 
L 213.481714 172.454983 
L 216.033987 172.446045 
L 218.586259 172.061145 
L 221.138532 171.723717 
L 223.690805 171.029953 
L 226.243077 170.546087 
L 228.79535 170.517084 
L 231.347623 170.192985 
L 233.899896 168.54687 
L 236.452168 166.832797 
L 239.004441 165.348735 
L 241.556714 164.815094 
L 244.108987 163.945441 
L 246.661259 163.2645 
L 249.213532 162.750228 
L 251.765805 162.483826 
L 254.318077 161.452783 
L 256.87035 159.518319 
L 259.422623 158.295623 
L 261.974896 158.097102 
L 264.527168 157.278011 
L 267.079441 155.413997 
L 269.631714 153.557652 
L 272.183987 152.822814 
L 274.736259 152.109791 
L 277.288532 151.061663 
L 279.840805 150.417557 
L 282.393077 149.456993 
L 284.94535 149.18126 
L 287.497623 149.074516 
L 290.049896 147.051816 
L 292.602168 145.287784 
L 295.154441 142.396392 
L 297.706714 141.4204 
L 300.258987 141.257252 
L 302.811259 135.353729 
L 305.363532 134.794409 
L 307.915805 134.724591 
L 310.468077 130.284894 
L 313.02035 125.238453 
L 315.572623 116.086527 
L 318.124896 95.440397 
" style="fill:none;stroke:#bb9832;stroke-linecap:round;stroke-width:1.5;"/>
   </g>
   <g id="line2d_3">
    <path clip-path="url(#p1102f66c93)" d="M 65.449896 236.278986 
L 68.002168 236.278986 
L 70.554441 236.278986 
L 73.106714 236.278986 
L 75.658987 236.278986 
L 78.211259 236.278986 
L 80.763532 236.278986 
L 83.315805 236.278986 
L 85.868077 236.278986 
L 88.42035 236.278986 
L 90.972623 236.278986 
L 93.524896 236.278986 
L 96.077168 235.8578 
L 98.629441 235.227875 
L 101.181714 233.435781 
L 103.733987 232.36574 
L 106.286259 231.978762 
L 108.838532 230.113208 
L 111.390805 230.05428 
L 113.943077 230.011932 
L 116.49535 228.481587 
L 119.047623 227.842783 
L 121.599896 226.281169 
L 124.152168 226.004933 
L 126.704441 224.696153 
L 129.256714 224.589305 
L 131.808987 222.967767 
L 134.361259 222.918668 
L 136.913532 222.175183 
L 139.465805 221.140157 
L 142.018077 221.049827 
L 144.57035 220.070737 
L 147.122623 219.360474 
L 149.674896 218.802881 
L 152.227168 218.493468 
L 154.779441 218.478617 
L 157.331714 218.256361 
L 159.883987 216.907007 
L 162.436259 216.902281 
L 164.988532 216.73926 
L 167.540805 215.630221 
L 170.093077 213.178969 
L 172.64535 213.164382 
L 175.197623 211.61727 
L 177.749896 211.509642 
L 180.302168 210.949852 
L 182.854441 209.69839 
L 185.406714 209.189573 
L 187.958987 207.452358 
L 190.511259 207.436557 
L 193.063532 207.373034 
L 195.615805 207.207113 
L 198.168077 206.622051 
L 200.72035 206.375983 
L 203.272623 206.354916 
L 205.824896 205.867046 
L 208.377168 205.779583 
L 210.929441 202.814028 
L 213.481714 202.647583 
L 216.033987 202.147654 
L 218.586259 201.392413 
L 221.138532 200.896521 
L 223.690805 199.122004 
L 226.243077 196.86324 
L 228.79535 194.512463 
L 231.347623 193.208775 
L 233.899896 193.178044 
L 236.452168 192.990867 
L 239.004441 192.746054 
L 241.556714 190.821797 
L 244.108987 190.702046 
L 246.661259 188.41304 
L 249.213532 186.86754 
L 251.765805 184.78374 
L 254.318077 183.085691 
L 256.87035 181.71857 
L 259.422623 178.675641 
L 261.974896 177.741405 
L 264.527168 177.687154 
L 267.079441 175.608912 
L 269.631714 174.442919 
L 272.183987 171.684913 
L 274.736259 169.084029 
L 277.288532 167.82426 
L 279.840805 166.89891 
L 282.393077 165.683047 
L 284.94535 160.440287 
L 287.497623 158.701717 
L 290.049896 155.242267 
L 292.602168 155.137461 
L 295.154441 154.596507 
L 297.706714 150.673412 
L 300.258987 143.630552 
L 302.811259 138.812944 
L 305.363532 138.100286 
L 307.915805 131.500104 
L 310.468077 127.170442 
L 313.02035 120.56049 
L 315.572623 116.261043 
L 318.124896 72.583577 
" style="fill:none;stroke:#50b131;stroke-linecap:round;stroke-width:1.5;"/>
   </g>
   <g id="line2d_4">
    <path clip-path="url(#p1102f66c93)" d="M 65.449896 235.63161 
L 68.002168 233.656912 
L 70.554441 227.513703 
L 73.106714 227.253251 
L 75.658987 224.794902 
L 78.211259 221.515558 
L 80.763532 219.787963 
L 83.315805 217.276045 
L 85.868077 212.038541 
L 88.42035 211.962401 
L 90.972623 211.274072 
L 93.524896 209.654597 
L 96.077168 205.89564 
L 98.629441 201.326689 
L 101.181714 198.01495 
L 103.733987 196.033775 
L 106.286259 195.538832 
L 108.838532 195.48825 
L 111.390805 194.709917 
L 113.943077 194.254559 
L 116.49535 191.899101 
L 119.047623 191.573766 
L 121.599896 191.045285 
L 124.152168 190.174328 
L 126.704441 190.138176 
L 129.256714 189.790758 
L 131.808987 189.006565 
L 134.361259 188.703922 
L 136.913532 187.987198 
L 139.465805 185.933358 
L 142.018077 184.577686 
L 144.57035 183.65676 
L 147.122623 183.525841 
L 149.674896 183.506855 
L 152.227168 180.273816 
L 154.779441 179.32395 
L 157.331714 179.228122 
L 159.883987 178.598122 
L 162.436259 176.967479 
L 164.988532 176.645579 
L 167.540805 176.3129 
L 170.093077 175.38747 
L 172.64535 175.314133 
L 175.197623 175.165879 
L 177.749896 174.760774 
L 180.302168 174.211439 
L 182.854441 173.542452 
L 185.406714 173.358761 
L 187.958987 171.537453 
L 190.511259 171.374653 
L 193.063532 171.312904 
L 195.615805 170.244349 
L 198.168077 169.903502 
L 200.72035 169.310538 
L 203.272623 169.166951 
L 205.824896 167.063015 
L 208.377168 167.056098 
L 210.929441 166.971246 
L 213.481714 166.063518 
L 216.033987 163.627368 
L 218.586259 163.302294 
L 221.138532 161.751609 
L 223.690805 161.552625 
L 226.243077 160.902687 
L 228.79535 160.545228 
L 231.347623 160.508616 
L 233.899896 157.192487 
L 236.452168 156.874959 
L 239.004441 153.747734 
L 241.556714 153.338288 
L 244.108987 148.750564 
L 246.661259 148.441046 
L 249.213532 146.867777 
L 251.765805 146.80077 
L 254.318077 146.588449 
L 256.87035 146.031492 
L 259.422623 146.011833 
L 261.974896 145.662301 
L 264.527168 145.583698 
L 267.079441 144.411969 
L 269.631714 143.701573 
L 272.183987 142.95151 
L 274.736259 142.869999 
L 277.288532 141.983284 
L 279.840805 141.684244 
L 282.393077 141.21705 
L 284.94535 138.20106 
L 287.497623 136.410179 
L 290.049896 135.123126 
L 292.602168 134.78547 
L 295.154441 131.270979 
L 297.706714 129.355427 
L 300.258987 128.000506 
L 302.811259 120.652249 
L 305.363532 119.097833 
L 307.915805 118.051231 
L 310.468077 116.67934 
L 313.02035 113.446418 
L 315.572623 100.254994 
L 318.124896 99.007702 
" style="fill:none;stroke:#36ada4;stroke-linecap:round;stroke-width:1.5;"/>
   </g>
   <g id="line2d_5">
    <path clip-path="url(#p1102f66c93)" d="M 65.449896 220.794704 
L 68.002168 217.037764 
L 70.554441 210.689434 
L 73.106714 205.954059 
L 75.658987 202.153696 
L 78.211259 201.508936 
L 80.763532 201.234564 
L 83.315805 200.437706 
L 85.868077 199.840164 
L 88.42035 199.708224 
L 90.972623 198.368214 
L 93.524896 198.080142 
L 96.077168 197.576776 
L 98.629441 197.355487 
L 101.181714 195.387484 
L 103.733987 194.986145 
L 106.286259 194.654682 
L 108.838532 194.591973 
L 111.390805 194.363184 
L 113.943077 192.784822 
L 116.49535 192.494791 
L 119.047623 190.856075 
L 121.599896 190.556957 
L 124.152168 190.226946 
L 126.704441 189.12832 
L 129.256714 187.62215 
L 131.808987 187.223426 
L 134.361259 185.85325 
L 136.913532 185.778516 
L 139.465805 184.682501 
L 142.018077 184.593276 
L 144.57035 184.467664 
L 147.122623 183.662006 
L 149.674896 182.81497 
L 152.227168 180.512824 
L 154.779441 178.727473 
L 157.331714 178.376333 
L 159.883987 178.056411 
L 162.436259 176.441955 
L 164.988532 176.279106 
L 167.540805 176.158026 
L 170.093077 176.006548 
L 172.64535 175.586437 
L 175.197623 172.003596 
L 177.749896 170.720941 
L 180.302168 170.296763 
L 182.854441 170.254813 
L 185.406714 170.134468 
L 187.958987 168.950664 
L 190.511259 168.301147 
L 193.063532 167.581348 
L 195.615805 167.576695 
L 198.168077 167.178587 
L 200.72035 166.935413 
L 203.272623 166.764362 
L 205.824896 166.372763 
L 208.377168 166.102592 
L 210.929441 166.081559 
L 213.481714 165.959376 
L 216.033987 165.695806 
L 218.586259 165.492787 
L 221.138532 165.456317 
L 223.690805 165.365846 
L 226.243077 164.637771 
L 228.79535 164.439372 
L 231.347623 163.851001 
L 233.899896 163.176225 
L 236.452168 163.097909 
L 239.004441 162.55244 
L 241.556714 162.481064 
L 244.108987 161.293338 
L 246.661259 161.229512 
L 249.213532 159.918618 
L 251.765805 159.354726 
L 254.318077 159.201176 
L 256.87035 158.705271 
L 259.422623 158.33732 
L 261.974896 158.043921 
L 264.527168 157.694714 
L 267.079441 157.412438 
L 269.631714 157.294328 
L 272.183987 155.948995 
L 274.736259 155.775737 
L 277.288532 155.458187 
L 279.840805 152.979463 
L 282.393077 152.451973 
L 284.94535 152.388949 
L 287.497623 151.437251 
L 290.049896 149.531896 
L 292.602168 149.036652 
L 295.154441 146.97907 
L 297.706714 146.673909 
L 300.258987 140.279681 
L 302.811259 138.985832 
L 305.363532 134.7271 
L 307.915805 133.638225 
L 310.468077 129.496126 
L 313.02035 126.360435 
L 315.572623 121.572307 
L 318.124896 117.374254 
" style="fill:none;stroke:#3ba3ec;stroke-linecap:round;stroke-width:1.5;"/>
   </g>
   <g id="line2d_6">
    <path clip-path="url(#p1102f66c93)" d="M 65.449896 234.789405 
L 68.002168 233.816495 
L 70.554441 221.902421 
L 73.106714 215.237284 
L 75.658987 215.019117 
L 78.211259 212.009293 
L 80.763532 211.721457 
L 83.315805 210.672012 
L 85.868077 210.022228 
L 88.42035 208.080572 
L 90.972623 207.641658 
L 93.524896 202.353755 
L 96.077168 200.480811 
L 98.629441 199.385613 
L 101.181714 197.726223 
L 103.733987 197.000382 
L 106.286259 196.896838 
L 108.838532 195.987446 
L 111.390805 195.033654 
L 113.943077 194.819364 
L 116.49535 192.150508 
L 119.047623 188.926378 
L 121.599896 188.060419 
L 124.152168 187.635448 
L 126.704441 187.087774 
L 129.256714 186.740359 
L 131.808987 185.728915 
L 134.361259 185.125807 
L 136.913532 183.227531 
L 139.465805 182.460183 
L 142.018077 181.867521 
L 144.57035 180.141839 
L 147.122623 179.904027 
L 149.674896 179.902143 
L 152.227168 179.7165 
L 154.779441 179.087086 
L 157.331714 178.619344 
L 159.883987 177.765722 
L 162.436259 177.635873 
L 164.988532 177.248027 
L 167.540805 175.452505 
L 170.093077 175.338444 
L 172.64535 175.210287 
L 175.197623 174.821595 
L 177.749896 174.277739 
L 180.302168 174.082919 
L 182.854441 173.677878 
L 185.406714 172.955564 
L 187.958987 172.709806 
L 190.511259 171.998918 
L 193.063532 171.940385 
L 195.615805 171.17784 
L 198.168077 170.993721 
L 200.72035 170.521689 
L 203.272623 170.022977 
L 205.824896 169.993483 
L 208.377168 169.231374 
L 210.929441 168.376679 
L 213.481714 167.053867 
L 216.033987 165.731769 
L 218.586259 165.471874 
L 221.138532 165.046641 
L 223.690805 164.604053 
L 226.243077 163.97073 
L 228.79535 162.958668 
L 231.347623 161.617505 
L 233.899896 161.082986 
L 236.452168 160.703804 
L 239.004441 159.847545 
L 241.556714 155.937353 
L 244.108987 155.115271 
L 246.661259 154.171124 
L 249.213532 154.09841 
L 251.765805 151.32253 
L 254.318077 151.130049 
L 256.87035 149.829179 
L 259.422623 148.219614 
L 261.974896 144.91517 
L 264.527168 143.201381 
L 267.079441 142.922638 
L 269.631714 141.224536 
L 272.183987 140.079417 
L 274.736259 139.923909 
L 277.288532 138.957154 
L 279.840805 136.540835 
L 282.393077 135.584106 
L 284.94535 134.008192 
L 287.497623 133.800905 
L 290.049896 133.55695 
L 292.602168 133.165221 
L 295.154441 131.821572 
L 297.706714 127.689592 
L 300.258987 126.006603 
L 302.811259 120.421445 
L 305.363532 120.27338 
L 307.915805 118.636188 
L 310.468077 114.833112 
L 313.02035 113.24453 
L 315.572623 103.746326 
L 318.124896 86.823755 
" style="fill:none;stroke:#e866f4;stroke-linecap:round;stroke-width:1.5;"/>
   </g>
   <g id="line2d_7">
    <path clip-path="url(#p1102f66c93)" d="M 65.449896 206.21402 
L 68.002168 205.104769 
L 70.554441 203.668456 
L 73.106714 203.499908 
L 75.658987 203.012468 
L 78.211259 202.459972 
L 80.763532 202.009414 
L 83.315805 200.650782 
L 85.868077 199.526114 
L 88.42035 199.505838 
L 90.972623 199.105848 
L 93.524896 198.484983 
L 96.077168 197.905502 
L 98.629441 197.542979 
L 101.181714 195.415328 
L 103.733987 195.05343 
L 106.286259 194.218615 
L 108.838532 193.898573 
L 111.390805 193.763079 
L 113.943077 193.263455 
L 116.49535 193.160421 
L 119.047623 193.070268 
L 121.599896 192.291504 
L 124.152168 189.673015 
L 126.704441 189.606659 
L 129.256714 188.737278 
L 131.808987 188.591024 
L 134.361259 188.220019 
L 136.913532 187.694907 
L 139.465805 187.595655 
L 142.018077 187.385892 
L 144.57035 186.915629 
L 147.122623 186.578751 
L 149.674896 186.208216 
L 152.227168 186.158786 
L 154.779441 185.802166 
L 157.331714 183.296356 
L 159.883987 183.088406 
L 162.436259 182.774928 
L 164.988532 182.291516 
L 167.540805 181.177855 
L 170.093077 180.776057 
L 172.64535 180.694976 
L 175.197623 179.293114 
L 177.749896 178.948361 
L 180.302168 177.893421 
L 182.854441 176.733908 
L 185.406714 176.196883 
L 187.958987 176.142359 
L 190.511259 175.763569 
L 193.063532 175.552969 
L 195.615805 173.952649 
L 198.168077 173.490091 
L 200.72035 173.472077 
L 203.272623 173.072077 
L 205.824896 172.766389 
L 208.377168 172.591951 
L 210.929441 172.464697 
L 213.481714 172.444168 
L 216.033987 172.392122 
L 218.586259 171.434504 
L 221.138532 171.0207 
L 223.690805 170.98991 
L 226.243077 169.54789 
L 228.79535 169.425286 
L 231.347623 167.353127 
L 233.899896 166.804907 
L 236.452168 166.70274 
L 239.004441 166.086751 
L 241.556714 165.678609 
L 244.108987 164.226153 
L 246.661259 164.168405 
L 249.213532 164.051934 
L 251.765805 164.020751 
L 254.318077 163.855725 
L 256.87035 163.047737 
L 259.422623 162.27382 
L 261.974896 161.810715 
L 264.527168 160.742177 
L 267.079441 160.558663 
L 269.631714 158.369602 
L 272.183987 158.225402 
L 274.736259 157.527708 
L 277.288532 157.442453 
L 279.840805 156.906249 
L 282.393077 156.835002 
L 284.94535 156.29518 
L 287.497623 154.839404 
L 290.049896 154.298801 
L 292.602168 153.109711 
L 295.154441 151.969194 
L 297.706714 151.685129 
L 300.258987 150.722295 
L 302.811259 148.630054 
L 305.363532 146.41992 
L 307.915805 146.137291 
L 310.468077 140.862127 
L 313.02035 140.838462 
L 315.572623 135.685233 
L 318.124896 128.114677 
" style="fill:none;stroke:#000000;stroke-linecap:round;stroke-width:6;"/>
   </g>
   <g id="patch_3">
    <path d="M 65.449896 278.58825 
L 65.449896 25.91325 
" style="fill:none;stroke:#262626;stroke-linecap:square;stroke-linejoin:miter;stroke-width:1.25;"/>
   </g>
   <g id="patch_4">
    <path d="M 65.449896 278.58825 
L 318.124896 278.58825 
" style="fill:none;stroke:#262626;stroke-linecap:square;stroke-linejoin:miter;stroke-width:1.25;"/>
   </g>
   <g id="legend_1">
    <g id="patch_5">
     <path d="M 73.149896 147.734813 
L 171.132396 147.734813 
Q 173.332396 147.734813 173.332396 145.534813 
L 173.332396 33.61325 
Q 173.332396 31.41325 171.132396 31.41325 
L 73.149896 31.41325 
Q 70.949896 31.41325 70.949896 33.61325 
L 70.949896 145.534813 
Q 70.949896 147.734813 73.149896 147.734813 
z
" style="fill:#ffffff;opacity:0.8;stroke:#cccccc;stroke-linejoin:miter;"/>
    </g>
    <g id="line2d_8">
     <path d="M 75.349896 40.321531 
L 97.349896 40.321531 
" style="fill:none;stroke:#f77189;stroke-linecap:round;stroke-width:1.5;"/>
    </g>
    <g id="line2d_9"/>
    <g id="text_15">
     <text style="fill:#262626;font-family:DejaVu Sans;font-size:11px;font-stretch:normal;font-style:normal;font-weight:normal;text-anchor:start;" transform="rotate(-0, 106.149896, 44.171531)" x="106.149896" y="44.171531">Lamp5</text>
    </g>
    <g id="line2d_10">
     <path d="M 75.349896 56.467469 
L 97.349896 56.467469 
" style="fill:none;stroke:#bb9832;stroke-linecap:round;stroke-width:1.5;"/>
    </g>
    <g id="line2d_11"/>
    <g id="text_16">
     <text style="fill:#262626;font-family:DejaVu Sans;font-size:11px;font-stretch:normal;font-style:normal;font-weight:normal;text-anchor:start;" transform="rotate(-0, 106.149896, 60.317469)" x="106.149896" y="60.317469">Pvalb</text>
    </g>
    <g id="line2d_12">
     <path d="M 75.349896 72.613406 
L 97.349896 72.613406 
" style="fill:none;stroke:#50b131;stroke-linecap:round;stroke-width:1.5;"/>
    </g>
    <g id="line2d_13"/>
    <g id="text_17">
     <text style="fill:#262626;font-family:DejaVu Sans;font-size:11px;font-stretch:normal;font-style:normal;font-weight:normal;text-anchor:start;" transform="rotate(-0, 106.149896, 76.463406)" x="106.149896" y="76.463406">Serpinf1</text>
    </g>
    <g id="line2d_14">
     <path d="M 75.349896 88.759344 
L 97.349896 88.759344 
" style="fill:none;stroke:#36ada4;stroke-linecap:round;stroke-width:1.5;"/>
    </g>
    <g id="line2d_15"/>
    <g id="text_18">
     <text style="fill:#262626;font-family:DejaVu Sans;font-size:11px;font-stretch:normal;font-style:normal;font-weight:normal;text-anchor:start;" transform="rotate(-0, 106.149896, 92.609344)" x="106.149896" y="92.609344">Sncg</text>
    </g>
    <g id="line2d_16">
     <path d="M 75.349896 104.905281 
L 97.349896 104.905281 
" style="fill:none;stroke:#3ba3ec;stroke-linecap:round;stroke-width:1.5;"/>
    </g>
    <g id="line2d_17"/>
    <g id="text_19">
     <text style="fill:#262626;font-family:DejaVu Sans;font-size:11px;font-stretch:normal;font-style:normal;font-weight:normal;text-anchor:start;" transform="rotate(-0, 106.149896, 108.755281)" x="106.149896" y="108.755281">Sst</text>
    </g>
    <g id="line2d_18">
     <path d="M 75.349896 121.051219 
L 97.349896 121.051219 
" style="fill:none;stroke:#e866f4;stroke-linecap:round;stroke-width:1.5;"/>
    </g>
    <g id="line2d_19"/>
    <g id="text_20">
     <text style="fill:#262626;font-family:DejaVu Sans;font-size:11px;font-stretch:normal;font-style:normal;font-weight:normal;text-anchor:start;" transform="rotate(-0, 106.149896, 124.901219)" x="106.149896" y="124.901219">Vip</text>
    </g>
    <g id="line2d_20">
     <path d="M 75.349896 137.197156 
L 97.349896 137.197156 
" style="fill:none;stroke:#000000;stroke-linecap:round;stroke-width:6;"/>
    </g>
    <g id="line2d_21"/>
    <g id="text_21">
     <text style="fill:#262626;font-family:DejaVu Sans;font-size:11px;font-stretch:normal;font-style:normal;font-weight:normal;text-anchor:start;" transform="rotate(-0, 106.149896, 141.047156)" x="106.149896" y="141.047156">Cumulative</text>
    </g>
   </g>
  </g>
 </g>
 <defs>
  <clipPath id="p1102f66c93">
   <rect height="252.675" width="252.675" x="65.449896" y="25.91325"/>
  </clipPath>
 </defs>
</svg>
