<?xml version="1.0" encoding="utf-8" standalone="no"?>
<!DOCTYPE svg PUBLIC "-//W3C//DTD SVG 1.1//EN"
  "http://www.w3.org/Graphics/SVG/1.1/DTD/svg11.dtd">
<svg height="339.780381pt" version="1.1" viewBox="0 0 337.247468 339.780381" width="337.247468pt" xmlns="http://www.w3.org/2000/svg" xmlns:xlink="http://www.w3.org/1999/xlink">
 <metadata>
  <rdf:RDF xmlns:cc="http://creativecommons.org/ns#" xmlns:dc="http://purl.org/dc/elements/1.1/" xmlns:rdf="http://www.w3.org/1999/02/22-rdf-syntax-ns#">
   <cc:Work>
    <dc:type rdf:resource="http://purl.org/dc/dcmitype/StillImage"/>
    <dc:date>2023-04-27T13:10:16.987550</dc:date>
    <dc:format>image/svg+xml</dc:format>
    <dc:creator>
     <cc:Agent>
      <dc:title>Matplotlib v3.4.3, https://matplotlib.org/</dc:title>
     </cc:Agent>
    </dc:creator>
   </cc:Work>
  </rdf:RDF>
 </metadata>
 <defs>
  <style type="text/css">*{stroke-linecap:butt;stroke-linejoin:round;}</style>
 </defs>
 <g id="figure_1">
  <g id="patch_1">
   <path d="M 0 339.780381 
L 337.247468 339.780381 
L 337.247468 0 
L 0 0 
z
" style="fill:#ffffff;"/>
  </g>
  <g id="axes_1">
   <g id="patch_2">
    <path d="M 65.449896 283.66425 
L 318.124896 283.66425 
L 318.124896 30.98925 
L 65.449896 30.98925 
z
" style="fill:#ffffff;"/>
   </g>
   <g id="matplotlib.axis_1">
    <g id="xtick_1">
     <g id="text_1">
      <text style="fill:#262626;font-family:DejaVu Sans;font-size:14.994px;font-stretch:normal;font-style:normal;font-weight:normal;text-anchor:middle;" transform="rotate(-0, 65.449896, 304.557347)" x="65.449896" y="304.557347">0.0</text>
     </g>
    </g>
    <g id="xtick_2">
     <g id="text_2">
      <text style="fill:#262626;font-family:DejaVu Sans;font-size:14.994px;font-stretch:normal;font-style:normal;font-weight:normal;text-anchor:middle;" transform="rotate(-0, 115.984896, 304.557347)" x="115.984896" y="304.557347">0.2</text>
     </g>
    </g>
    <g id="xtick_3">
     <g id="text_3">
      <text style="fill:#262626;font-family:DejaVu Sans;font-size:14.994px;font-stretch:normal;font-style:normal;font-weight:normal;text-anchor:middle;" transform="rotate(-0, 166.519896, 304.557347)" x="166.519896" y="304.557347">0.4</text>
     </g>
    </g>
    <g id="xtick_4">
     <g id="text_4">
      <text style="fill:#262626;font-family:DejaVu Sans;font-size:14.994px;font-stretch:normal;font-style:normal;font-weight:normal;text-anchor:middle;" transform="rotate(-0, 217.054896, 304.557347)" x="217.054896" y="304.557347">0.6</text>
     </g>
    </g>
    <g id="xtick_5">
     <g id="text_5">
      <text style="fill:#262626;font-family:DejaVu Sans;font-size:14.994px;font-stretch:normal;font-style:normal;font-weight:normal;text-anchor:middle;" transform="rotate(-0, 267.589896, 304.557347)" x="267.589896" y="304.557347">0.8</text>
     </g>
    </g>
    <g id="xtick_6">
     <g id="text_6">
      <text style="fill:#262626;font-family:DejaVu Sans;font-size:14.994px;font-stretch:normal;font-style:normal;font-weight:normal;text-anchor:middle;" transform="rotate(-0, 318.124896, 304.557347)" x="318.124896" y="304.557347">1.0</text>
     </g>
    </g>
    <g id="text_7">
     <text style="fill:#262626;font-family:DejaVu Sans;font-size:21.6px;font-stretch:normal;font-style:normal;font-weight:normal;text-anchor:middle;" transform="rotate(-0, 191.787396, 328.088256)" x="191.787396" y="328.088256">Percentile</text>
    </g>
   </g>
   <g id="matplotlib.axis_2">
    <g id="ytick_1">
     <g id="text_8">
      <text style="fill:#262626;font-family:DejaVu Sans;font-size:14.994px;font-stretch:normal;font-style:normal;font-weight:normal;text-anchor:end;" transform="rotate(-0, 55.949896, 289.360799)" x="55.949896" y="289.360799">0.0</text>
     </g>
    </g>
    <g id="ytick_2">
     <g id="text_9">
      <text style="fill:#262626;font-family:DejaVu Sans;font-size:14.994px;font-stretch:normal;font-style:normal;font-weight:normal;text-anchor:end;" transform="rotate(-0, 55.949896, 238.825799)" x="55.949896" y="238.825799">0.2</text>
     </g>
    </g>
    <g id="ytick_3">
     <g id="text_10">
      <text style="fill:#262626;font-family:DejaVu Sans;font-size:14.994px;font-stretch:normal;font-style:normal;font-weight:normal;text-anchor:end;" transform="rotate(-0, 55.949896, 188.290799)" x="55.949896" y="188.290799">0.4</text>
     </g>
    </g>
    <g id="ytick_4">
     <g id="text_11">
      <text style="fill:#262626;font-family:DejaVu Sans;font-size:14.994px;font-stretch:normal;font-style:normal;font-weight:normal;text-anchor:end;" transform="rotate(-0, 55.949896, 137.755799)" x="55.949896" y="137.755799">0.6</text>
     </g>
    </g>
    <g id="ytick_5">
     <g id="text_12">
      <text style="fill:#262626;font-family:DejaVu Sans;font-size:14.994px;font-stretch:normal;font-style:normal;font-weight:normal;text-anchor:end;" transform="rotate(-0, 55.949896, 87.220799)" x="55.949896" y="87.220799">0.8</text>
     </g>
    </g>
    <g id="ytick_6">
     <g id="text_13">
      <text style="fill:#262626;font-family:DejaVu Sans;font-size:14.994px;font-stretch:normal;font-style:normal;font-weight:normal;text-anchor:end;" transform="rotate(-0, 55.949896, 36.685799)" x="55.949896" y="36.685799">1.0</text>
     </g>
    </g>
    <g id="text_14">
     <text style="fill:#262626;font-family:DejaVu Sans;font-size:21.6px;font-stretch:normal;font-style:normal;font-weight:normal;text-anchor:middle;" transform="rotate(-90, 23.612625, 157.32675)" x="23.612625" y="157.32675">Electrophysiology Similarity</text>
    </g>
   </g>
   <g id="line2d_1">
    <path clip-path="url(#p44a6285904)" d="M 65.449896 233.45544 
L 74.474003 228.987994 
L 83.49811 219.696331 
L 92.522217 212.373107 
L 101.546324 212.162684 
L 110.570431 205.124697 
L 119.594538 202.244342 
L 128.618646 200.746093 
L 137.642753 198.973553 
L 146.66686 194.634659 
L 155.690967 192.138416 
L 164.715074 191.600024 
L 173.739181 190.10675 
L 182.763288 187.563014 
L 191.787396 186.748526 
L 200.811503 184.518183 
L 209.83561 183.303947 
L 218.859717 182.268441 
L 227.883824 175.827169 
L 236.907931 174.551375 
L 245.932038 173.856464 
L 254.956146 171.663016 
L 263.980253 166.269484 
L 273.00436 164.593394 
L 282.028467 163.015863 
L 291.052574 152.78451 
L 300.076681 149.037329 
L 309.100788 146.577032 
L 318.124896 129.93091 
" style="fill:none;stroke:#f77189;stroke-linecap:round;stroke-width:1.5;"/>
   </g>
   <g id="line2d_2">
    <path clip-path="url(#p44a6285904)" d="M 65.449896 241.354986 
L 74.474003 222.504855 
L 83.49811 220.484991 
L 92.522217 210.815798 
L 101.546324 204.289016 
L 110.570431 203.327868 
L 119.594538 200.207764 
L 128.618646 198.737999 
L 137.642753 195.877337 
L 146.66686 195.354806 
L 155.690967 192.474979 
L 164.715074 186.978737 
L 173.739181 185.76611 
L 182.763288 179.94664 
L 191.787396 179.252562 
L 200.811503 178.201463 
L 209.83561 177.165238 
L 218.859717 172.307011 
L 227.883824 170.860485 
L 236.907931 167.113149 
L 245.932038 158.062011 
L 254.956146 156.21703 
L 263.980253 149.155725 
L 273.00436 147.469872 
L 282.028467 138.972974 
L 291.052574 138.097897 
L 300.076681 128.194765 
L 309.100788 126.540435 
L 318.124896 123.870247 
" style="fill:none;stroke:#d58c32;stroke-linecap:round;stroke-width:1.5;"/>
   </g>
   <g id="line2d_3">
    <path clip-path="url(#p44a6285904)" d="M 65.449896 207.563846 
L 74.474003 202.911577 
L 83.49811 202.872355 
L 92.522217 202.426122 
L 101.546324 201.901497 
L 110.570431 201.296788 
L 119.594538 200.30386 
L 128.618646 197.992848 
L 137.642753 195.960615 
L 146.66686 192.863172 
L 155.690967 191.930749 
L 164.715074 186.70027 
L 173.739181 186.623855 
L 182.763288 185.180682 
L 191.787396 181.766226 
L 200.811503 181.252098 
L 209.83561 180.045879 
L 218.859717 178.993403 
L 227.883824 174.863332 
L 236.907931 171.475163 
L 245.932038 169.877907 
L 254.956146 169.562201 
L 263.980253 163.148904 
L 273.00436 161.980083 
L 282.028467 161.726362 
L 291.052574 149.518799 
L 300.076681 115.320939 
L 309.100788 110.907881 
L 318.124896 102.042474 
" style="fill:none;stroke:#a4a031;stroke-linecap:round;stroke-width:1.5;"/>
   </g>
   <g id="line2d_4">
    <path clip-path="url(#p44a6285904)" d="M 65.449896 238.304114 
L 74.474003 223.93521 
L 83.49811 220.226624 
L 92.522217 220.105022 
L 101.546324 215.498369 
L 110.570431 214.609283 
L 119.594538 211.260169 
L 128.618646 209.020161 
L 137.642753 205.937517 
L 146.66686 199.645849 
L 155.690967 199.27968 
L 164.715074 197.073119 
L 173.739181 193.40189 
L 182.763288 193.284107 
L 191.787396 191.943392 
L 200.811503 189.35673 
L 209.83561 185.925749 
L 218.859717 185.883538 
L 227.883824 183.242854 
L 236.907931 180.347216 
L 245.932038 180.193288 
L 254.956146 175.449079 
L 263.980253 174.168892 
L 273.00436 173.043875 
L 282.028467 169.842446 
L 291.052574 164.83255 
L 300.076681 163.782103 
L 309.100788 163.780168 
L 318.124896 151.831383 
" style="fill:none;stroke:#50b131;stroke-linecap:round;stroke-width:1.5;"/>
   </g>
   <g id="line2d_5">
    <path clip-path="url(#p44a6285904)" d="M 65.449896 30.98925 
L 74.474003 30.98925 
L 83.49811 30.98925 
L 92.522217 30.98925 
L 101.546324 30.98925 
L 110.570431 30.98925 
L 119.594538 30.98925 
L 128.618646 30.98925 
L 137.642753 30.98925 
L 146.66686 30.98925 
L 155.690967 30.98925 
L 164.715074 30.98925 
L 173.739181 30.98925 
L 182.763288 30.98925 
L 191.787396 30.98925 
L 200.811503 30.98925 
L 209.83561 30.98925 
L 218.859717 30.98925 
L 227.883824 30.98925 
L 236.907931 30.98925 
L 245.932038 30.98925 
L 254.956146 30.98925 
L 263.980253 30.98925 
L 273.00436 30.98925 
L 282.028467 30.98925 
L 291.052574 30.98925 
L 300.076681 30.98925 
L 309.100788 30.98925 
L 318.124896 30.98925 
" style="fill:none;stroke:#34ae91;stroke-linecap:round;stroke-width:1.5;"/>
   </g>
   <g id="line2d_6">
    <path clip-path="url(#p44a6285904)" d="M 65.449896 236.319986 
L 74.474003 230.634907 
L 83.49811 229.802406 
L 92.522217 227.627387 
L 101.546324 223.021613 
L 110.570431 221.74023 
L 119.594538 218.140598 
L 128.618646 208.482517 
L 137.642753 199.660088 
L 146.66686 198.589615 
L 155.690967 194.948143 
L 164.715074 181.177048 
L 173.739181 179.939504 
L 182.763288 178.098882 
L 191.787396 176.73547 
L 200.811503 176.254501 
L 209.83561 173.351588 
L 218.859717 170.020368 
L 227.883824 168.425717 
L 236.907931 166.259817 
L 245.932038 165.846428 
L 254.956146 164.260842 
L 263.980253 161.055838 
L 273.00436 158.647559 
L 282.028467 158.472697 
L 291.052574 158.415425 
L 300.076681 151.843362 
L 309.100788 135.940416 
L 318.124896 135.411079 
" style="fill:none;stroke:#37abb5;stroke-linecap:round;stroke-width:1.5;"/>
   </g>
   <g id="line2d_7">
    <path clip-path="url(#p44a6285904)" d="M 65.449896 241.354986 
L 74.474003 241.354986 
L 83.49811 241.354986 
L 92.522217 241.354986 
L 101.546324 241.354986 
L 110.570431 241.354986 
L 119.594538 241.354986 
L 128.618646 241.354986 
L 137.642753 241.354986 
L 146.66686 238.015636 
L 155.690967 224.757544 
L 164.715074 220.888118 
L 173.739181 175.298955 
L 182.763288 167.72295 
L 191.787396 118.318385 
L 200.811503 96.74153 
L 209.83561 74.486082 
L 218.859717 30.98925 
L 227.883824 30.98925 
L 236.907931 30.98925 
L 245.932038 30.98925 
L 254.956146 30.98925 
L 263.980253 30.98925 
L 273.00436 30.98925 
L 282.028467 30.98925 
L 291.052574 30.98925 
L 300.076681 30.98925 
L 309.100788 30.98925 
L 318.124896 30.98925 
" style="fill:none;stroke:#3ba3ec;stroke-linecap:round;stroke-width:1.5;"/>
   </g>
   <g id="line2d_8">
    <path clip-path="url(#p44a6285904)" d="M 65.449896 206.975861 
L 74.474003 197.0098 
L 83.49811 189.744565 
L 92.522217 189.653547 
L 101.546324 184.536537 
L 110.570431 178.507628 
L 119.594538 177.326498 
L 128.618646 175.358136 
L 137.642753 172.804698 
L 146.66686 170.040563 
L 155.690967 168.112651 
L 164.715074 165.779605 
L 173.739181 163.575512 
L 182.763288 161.518599 
L 191.787396 158.004847 
L 200.811503 155.741053 
L 209.83561 155.487058 
L 218.859717 153.442361 
L 227.883824 152.945039 
L 236.907931 147.142445 
L 245.932038 146.541494 
L 254.956146 140.333233 
L 263.980253 136.218095 
L 273.00436 134.945236 
L 282.028467 130.986579 
L 291.052574 129.536214 
L 300.076681 124.870285 
L 309.100788 118.954979 
L 318.124896 107.259538 
" style="fill:none;stroke:#bb83f4;stroke-linecap:round;stroke-width:1.5;"/>
   </g>
   <g id="line2d_9">
    <path clip-path="url(#p44a6285904)" d="M 65.449896 215.011632 
L 74.474003 206.23804 
L 83.49811 198.986523 
L 92.522217 193.917672 
L 101.546324 192.271817 
L 110.570431 191.541373 
L 119.594538 189.068574 
L 128.618646 188.447687 
L 137.642753 186.448116 
L 146.66686 185.955755 
L 155.690967 183.122525 
L 164.715074 181.461176 
L 173.739181 175.921347 
L 182.763288 175.030106 
L 191.787396 173.388466 
L 200.811503 170.673376 
L 209.83561 167.865359 
L 218.859717 165.361282 
L 227.883824 164.686984 
L 236.907931 163.073477 
L 245.932038 159.562691 
L 254.956146 158.568959 
L 263.980253 147.402468 
L 273.00436 144.927652 
L 282.028467 141.608541 
L 291.052574 139.154589 
L 300.076681 131.082906 
L 309.100788 111.549559 
L 318.124896 107.324714 
" style="fill:none;stroke:#f564d4;stroke-linecap:round;stroke-width:1.5;"/>
   </g>
   <g id="line2d_10">
    <path clip-path="url(#p44a6285904)" d="M 65.449896 191.778292 
L 74.474003 184.545784 
L 83.49811 181.039882 
L 92.522217 177.0639 
L 101.546324 174.581054 
L 110.570431 171.574556 
L 119.594538 168.476266 
L 128.618646 167.519708 
L 137.642753 167.368061 
L 146.66686 164.651674 
L 155.690967 163.222019 
L 164.715074 161.756667 
L 173.739181 157.812638 
L 182.763288 157.6289 
L 191.787396 157.605375 
L 200.811503 153.999431 
L 209.83561 153.67719 
L 218.859717 152.829941 
L 227.883824 150.069899 
L 236.907931 149.052679 
L 245.932038 147.045402 
L 254.956146 143.250408 
L 263.980253 140.602105 
L 273.00436 135.81868 
L 282.028467 135.724081 
L 291.052574 134.769538 
L 300.076681 134.149942 
L 309.100788 131.122327 
L 318.124896 129.006173 
" style="fill:none;stroke:#000000;stroke-linecap:round;stroke-width:6;"/>
   </g>
   <g id="patch_3">
    <path d="M 65.449896 283.66425 
L 65.449896 30.98925 
" style="fill:none;stroke:#262626;stroke-linecap:square;stroke-linejoin:miter;stroke-width:1.25;"/>
   </g>
   <g id="patch_4">
    <path d="M 65.449896 283.66425 
L 318.124896 283.66425 
" style="fill:none;stroke:#262626;stroke-linecap:square;stroke-linejoin:miter;stroke-width:1.25;"/>
   </g>
   <g id="legend_1">
    <g id="patch_5">
     <path d="M 73.149896 201.248625 
L 171.132396 201.248625 
Q 173.332396 201.248625 173.332396 199.048625 
L 173.332396 38.68925 
Q 173.332396 36.48925 171.132396 36.48925 
L 73.149896 36.48925 
Q 70.949896 36.48925 70.949896 38.68925 
L 70.949896 199.048625 
Q 70.949896 201.248625 73.149896 201.248625 
z
" style="fill:#ffffff;opacity:0.8;stroke:#cccccc;stroke-linejoin:miter;"/>
    </g>
    <g id="line2d_11">
     <path d="M 75.349896 45.397531 
L 97.349896 45.397531 
" style="fill:none;stroke:#f77189;stroke-linecap:round;stroke-width:1.5;"/>
    </g>
    <g id="line2d_12"/>
    <g id="text_15">
     <text style="fill:#262626;font-family:DejaVu Sans;font-size:11px;font-stretch:normal;font-style:normal;font-weight:normal;text-anchor:start;" transform="rotate(-0, 106.149896, 49.247531)" x="106.149896" y="49.247531">CT</text>
    </g>
    <g id="line2d_13">
     <path d="M 75.349896 61.543469 
L 97.349896 61.543469 
" style="fill:none;stroke:#d58c32;stroke-linecap:round;stroke-width:1.5;"/>
    </g>
    <g id="line2d_14"/>
    <g id="text_16">
     <text style="fill:#262626;font-family:DejaVu Sans;font-size:11px;font-stretch:normal;font-style:normal;font-weight:normal;text-anchor:start;" transform="rotate(-0, 106.149896, 65.393469)" x="106.149896" y="65.393469">ET</text>
    </g>
    <g id="line2d_15">
     <path d="M 75.349896 77.689406 
L 97.349896 77.689406 
" style="fill:none;stroke:#a4a031;stroke-linecap:round;stroke-width:1.5;"/>
    </g>
    <g id="line2d_16"/>
    <g id="text_17">
     <text style="fill:#262626;font-family:DejaVu Sans;font-size:11px;font-stretch:normal;font-style:normal;font-weight:normal;text-anchor:start;" transform="rotate(-0, 106.149896, 81.539406)" x="106.149896" y="81.539406">IT</text>
    </g>
    <g id="line2d_17">
     <path d="M 75.349896 93.835344 
L 97.349896 93.835344 
" style="fill:none;stroke:#50b131;stroke-linecap:round;stroke-width:1.5;"/>
    </g>
    <g id="line2d_18"/>
    <g id="text_18">
     <text style="fill:#262626;font-family:DejaVu Sans;font-size:11px;font-stretch:normal;font-style:normal;font-weight:normal;text-anchor:start;" transform="rotate(-0, 106.149896, 97.685344)" x="106.149896" y="97.685344">Lamp5</text>
    </g>
    <g id="line2d_19">
     <path d="M 75.349896 109.981281 
L 97.349896 109.981281 
" style="fill:none;stroke:#34ae91;stroke-linecap:round;stroke-width:1.5;"/>
    </g>
    <g id="line2d_20"/>
    <g id="text_19">
     <text style="fill:#262626;font-family:DejaVu Sans;font-size:11px;font-stretch:normal;font-style:normal;font-weight:normal;text-anchor:start;" transform="rotate(-0, 106.149896, 113.831281)" x="106.149896" y="113.831281">NP</text>
    </g>
    <g id="line2d_21">
     <path d="M 75.349896 126.127219 
L 97.349896 126.127219 
" style="fill:none;stroke:#37abb5;stroke-linecap:round;stroke-width:1.5;"/>
    </g>
    <g id="line2d_22"/>
    <g id="text_20">
     <text style="fill:#262626;font-family:DejaVu Sans;font-size:11px;font-stretch:normal;font-style:normal;font-weight:normal;text-anchor:start;" transform="rotate(-0, 106.149896, 129.977219)" x="106.149896" y="129.977219">Pvalb</text>
    </g>
    <g id="line2d_23">
     <path d="M 75.349896 142.273156 
L 97.349896 142.273156 
" style="fill:none;stroke:#3ba3ec;stroke-linecap:round;stroke-width:1.5;"/>
    </g>
    <g id="line2d_24"/>
    <g id="text_21">
     <text style="fill:#262626;font-family:DejaVu Sans;font-size:11px;font-stretch:normal;font-style:normal;font-weight:normal;text-anchor:start;" transform="rotate(-0, 106.149896, 146.123156)" x="106.149896" y="146.123156">Sncg</text>
    </g>
    <g id="line2d_25">
     <path d="M 75.349896 158.419094 
L 97.349896 158.419094 
" style="fill:none;stroke:#bb83f4;stroke-linecap:round;stroke-width:1.5;"/>
    </g>
    <g id="line2d_26"/>
    <g id="text_22">
     <text style="fill:#262626;font-family:DejaVu Sans;font-size:11px;font-stretch:normal;font-style:normal;font-weight:normal;text-anchor:start;" transform="rotate(-0, 106.149896, 162.269094)" x="106.149896" y="162.269094">Sst</text>
    </g>
    <g id="line2d_27">
     <path d="M 75.349896 174.565031 
L 97.349896 174.565031 
" style="fill:none;stroke:#f564d4;stroke-linecap:round;stroke-width:1.5;"/>
    </g>
    <g id="line2d_28"/>
    <g id="text_23">
     <text style="fill:#262626;font-family:DejaVu Sans;font-size:11px;font-stretch:normal;font-style:normal;font-weight:normal;text-anchor:start;" transform="rotate(-0, 106.149896, 178.415031)" x="106.149896" y="178.415031">Vip</text>
    </g>
    <g id="line2d_29">
     <path d="M 75.349896 190.710969 
L 97.349896 190.710969 
" style="fill:none;stroke:#000000;stroke-linecap:round;stroke-width:6;"/>
    </g>
    <g id="line2d_30"/>
    <g id="text_24">
     <text style="fill:#262626;font-family:DejaVu Sans;font-size:11px;font-stretch:normal;font-style:normal;font-weight:normal;text-anchor:start;" transform="rotate(-0, 106.149896, 194.560969)" x="106.149896" y="194.560969">Cumulative</text>
    </g>
   </g>
  </g>
 </g>
 <defs>
  <clipPath id="p44a6285904">
   <rect height="252.675" width="252.675" x="65.449896" y="30.98925"/>
  </clipPath>
 </defs>
</svg>
