<?xml version="1.0" encoding="utf-8" standalone="no"?>
<!DOCTYPE svg PUBLIC "-//W3C//DTD SVG 1.1//EN"
  "http://www.w3.org/Graphics/SVG/1.1/DTD/svg11.dtd">
<svg xmlns:xlink="http://www.w3.org/1999/xlink" width="337.247468pt" height="321.687679pt" viewBox="0 0 337.247468 321.687679" xmlns="http://www.w3.org/2000/svg" version="1.1">
 <metadata>
  <rdf:RDF xmlns:dc="http://purl.org/dc/elements/1.1/" xmlns:cc="http://creativecommons.org/ns#" xmlns:rdf="http://www.w3.org/1999/02/22-rdf-syntax-ns#">
   <cc:Work>
    <dc:type rdf:resource="http://purl.org/dc/dcmitype/StillImage"/>
    <dc:date>2023-08-22T00:35:24.507455</dc:date>
    <dc:format>image/svg+xml</dc:format>
    <dc:creator>
     <cc:Agent>
      <dc:title>Matplotlib v3.7.2, https://matplotlib.org/</dc:title>
     </cc:Agent>
    </dc:creator>
   </cc:Work>
  </rdf:RDF>
 </metadata>
 <defs>
  <style type="text/css">*{stroke-linejoin: round; stroke-linecap: butt}</style>
 </defs>
 <g id="figure_1">
  <g id="patch_1">
   <path d="M 0 321.687679 
L 337.247468 321.687679 
L 337.247468 0 
L 0 0 
z
" style="fill: #ffffff"/>
  </g>
  <g id="axes_1">
   <g id="patch_2">
    <path d="M 65.449896 265.571549 
L 318.124896 265.571549 
L 318.124896 12.896549 
L 65.449896 12.896549 
z
" style="fill: #ffffff"/>
   </g>
   <g id="matplotlib.axis_1">
    <g id="xtick_1">
     <g id="text_1">
      <text style="fill: #262626; font: 14.994px 'Arial', 'DejaVu Sans', 'Liberation Sans', 'Bitstream Vera Sans', sans-serif; text-anchor: middle" x="65.449896" y="286.464646" transform="rotate(-0 65.449896 286.464646)">0.0</text>
     </g>
    </g>
    <g id="xtick_2">
     <g id="text_2">
      <text style="fill: #262626; font: 14.994px 'Arial', 'DejaVu Sans', 'Liberation Sans', 'Bitstream Vera Sans', sans-serif; text-anchor: middle" x="115.984896" y="286.464646" transform="rotate(-0 115.984896 286.464646)">0.2</text>
     </g>
    </g>
    <g id="xtick_3">
     <g id="text_3">
      <text style="fill: #262626; font: 14.994px 'Arial', 'DejaVu Sans', 'Liberation Sans', 'Bitstream Vera Sans', sans-serif; text-anchor: middle" x="166.519896" y="286.464646" transform="rotate(-0 166.519896 286.464646)">0.4</text>
     </g>
    </g>
    <g id="xtick_4">
     <g id="text_4">
      <text style="fill: #262626; font: 14.994px 'Arial', 'DejaVu Sans', 'Liberation Sans', 'Bitstream Vera Sans', sans-serif; text-anchor: middle" x="217.054896" y="286.464646" transform="rotate(-0 217.054896 286.464646)">0.6</text>
     </g>
    </g>
    <g id="xtick_5">
     <g id="text_5">
      <text style="fill: #262626; font: 14.994px 'Arial', 'DejaVu Sans', 'Liberation Sans', 'Bitstream Vera Sans', sans-serif; text-anchor: middle" x="267.589896" y="286.464646" transform="rotate(-0 267.589896 286.464646)">0.8</text>
     </g>
    </g>
    <g id="xtick_6">
     <g id="text_6">
      <text style="fill: #262626; font: 14.994px 'Arial', 'DejaVu Sans', 'Liberation Sans', 'Bitstream Vera Sans', sans-serif; text-anchor: middle" x="318.124896" y="286.464646" transform="rotate(-0 318.124896 286.464646)">1.0</text>
     </g>
    </g>
    <g id="text_7">
     <text style="fill: #262626; font: 21.6px 'Arial', 'DejaVu Sans', 'Liberation Sans', 'Bitstream Vera Sans', sans-serif; text-anchor: middle" x="191.787396" y="309.995554" transform="rotate(-0 191.787396 309.995554)">Percentile</text>
    </g>
   </g>
   <g id="matplotlib.axis_2">
    <g id="ytick_1">
     <g id="text_8">
      <text style="fill: #262626; font: 14.994px 'Arial', 'DejaVu Sans', 'Liberation Sans', 'Bitstream Vera Sans', sans-serif; text-anchor: end" x="55.949896" y="271.268097" transform="rotate(-0 55.949896 271.268097)">0.0</text>
     </g>
    </g>
    <g id="ytick_2">
     <g id="text_9">
      <text style="fill: #262626; font: 14.994px 'Arial', 'DejaVu Sans', 'Liberation Sans', 'Bitstream Vera Sans', sans-serif; text-anchor: end" x="55.949896" y="220.733097" transform="rotate(-0 55.949896 220.733097)">0.2</text>
     </g>
    </g>
    <g id="ytick_3">
     <g id="text_10">
      <text style="fill: #262626; font: 14.994px 'Arial', 'DejaVu Sans', 'Liberation Sans', 'Bitstream Vera Sans', sans-serif; text-anchor: end" x="55.949896" y="170.198097" transform="rotate(-0 55.949896 170.198097)">0.4</text>
     </g>
    </g>
    <g id="ytick_4">
     <g id="text_11">
      <text style="fill: #262626; font: 14.994px 'Arial', 'DejaVu Sans', 'Liberation Sans', 'Bitstream Vera Sans', sans-serif; text-anchor: end" x="55.949896" y="119.663097" transform="rotate(-0 55.949896 119.663097)">0.6</text>
     </g>
    </g>
    <g id="ytick_5">
     <g id="text_12">
      <text style="fill: #262626; font: 14.994px 'Arial', 'DejaVu Sans', 'Liberation Sans', 'Bitstream Vera Sans', sans-serif; text-anchor: end" x="55.949896" y="69.128097" transform="rotate(-0 55.949896 69.128097)">0.8</text>
     </g>
    </g>
    <g id="ytick_6">
     <g id="text_13">
      <text style="fill: #262626; font: 14.994px 'Arial', 'DejaVu Sans', 'Liberation Sans', 'Bitstream Vera Sans', sans-serif; text-anchor: end" x="55.949896" y="18.593097" transform="rotate(-0 55.949896 18.593097)">1.0</text>
     </g>
    </g>
    <g id="text_14">
     <text style="fill: #262626; font: 21.6px 'Arial', 'DejaVu Sans', 'Liberation Sans', 'Bitstream Vera Sans', sans-serif; text-anchor: middle" x="23.612625" y="139.234049" transform="rotate(-90 23.612625 139.234049)">Gene Expression Similarity</text>
    </g>
   </g>
   <g id="line2d_1">
    <path d="M 65.449896 214.555355 
L 68.002168 210.457164 
L 70.554441 205.352006 
L 73.106714 201.778488 
L 75.658987 197.185408 
L 78.211259 195.752115 
L 80.763532 194.943202 
L 83.315805 192.543611 
L 85.868077 192.270539 
L 88.42035 191.481761 
L 90.972623 190.550175 
L 93.524896 185.341028 
L 96.077168 183.949674 
L 98.629441 181.968754 
L 101.181714 180.321326 
L 103.733987 179.384692 
L 106.286259 178.035851 
L 108.838532 177.69477 
L 111.390805 176.822643 
L 113.943077 175.94216 
L 116.49535 175.001778 
L 119.047623 174.032378 
L 121.599896 173.777451 
L 124.152168 173.377447 
L 126.704441 172.607268 
L 129.256714 172.520195 
L 131.808987 172.458687 
L 134.361259 170.942386 
L 136.913532 170.337856 
L 139.465805 169.55281 
L 142.018077 169.511532 
L 144.57035 169.037959 
L 147.122623 168.757116 
L 149.674896 168.405889 
L 152.227168 168.336927 
L 154.779441 167.720698 
L 157.331714 167.51166 
L 159.883987 167.269935 
L 162.436259 165.732651 
L 164.988532 164.389139 
L 167.540805 163.160663 
L 170.093077 163.140847 
L 172.64535 162.610102 
L 175.197623 162.586866 
L 177.749896 161.544885 
L 180.302168 160.908256 
L 182.854441 160.512859 
L 185.406714 158.815892 
L 187.958987 158.268368 
L 190.511259 158.184454 
L 193.063532 156.821885 
L 195.615805 155.546398 
L 198.168077 155.047579 
L 200.72035 155.003547 
L 203.272623 151.974994 
L 205.824896 149.701174 
L 208.377168 149.628614 
L 210.929441 148.80888 
L 213.481714 148.621573 
L 216.033987 148.380896 
L 218.586259 148.294913 
L 221.138532 147.133866 
L 223.690805 146.834711 
L 226.243077 146.694116 
L 228.79535 146.132803 
L 231.347623 145.524683 
L 233.899896 144.756532 
L 236.452168 143.609873 
L 239.004441 143.481257 
L 241.556714 141.888843 
L 244.108987 141.458018 
L 246.661259 140.535609 
L 249.213532 140.314063 
L 251.765805 139.928856 
L 254.318077 139.556944 
L 256.87035 138.746687 
L 259.422623 138.697414 
L 261.974896 137.389686 
L 264.527168 136.557967 
L 267.079441 136.467671 
L 269.631714 133.367741 
L 272.183987 132.686424 
L 274.736259 129.930543 
L 277.288532 128.724735 
L 279.840805 126.952514 
L 282.393077 126.720013 
L 284.94535 124.455765 
L 287.497623 124.356832 
L 290.049896 124.323144 
L 292.602168 122.257267 
L 295.154441 117.425049 
L 297.706714 117.000265 
L 300.258987 107.546491 
L 302.811259 101.650101 
L 305.363532 100.127472 
L 307.915805 99.164752 
L 310.468077 97.248695 
L 313.02035 94.097292 
L 315.572623 92.03283 
L 318.124896 82.54898 
" clip-path="url(#pbf109fb03d)" style="fill: none; stroke: #f77189; stroke-width: 1.5; stroke-linecap: round"/>
   </g>
   <g id="line2d_2">
    <path d="M 65.449896 218.309535 
L 68.002168 212.270257 
L 70.554441 208.309814 
L 73.106714 205.553174 
L 75.658987 204.948995 
L 78.211259 203.007044 
L 80.763532 202.212578 
L 83.315805 200.007372 
L 85.868077 196.2862 
L 88.42035 195.692821 
L 90.972623 194.501311 
L 93.524896 194.317208 
L 96.077168 194.216764 
L 98.629441 193.798192 
L 101.181714 189.047089 
L 103.733987 188.882554 
L 106.286259 187.668226 
L 108.838532 187.264835 
L 111.390805 185.529026 
L 113.943077 182.410796 
L 116.49535 182.293729 
L 119.047623 182.179333 
L 121.599896 181.388062 
L 124.152168 180.958993 
L 126.704441 180.930998 
L 129.256714 180.371162 
L 131.808987 179.640005 
L 134.361259 177.413401 
L 136.913532 177.222217 
L 139.465805 176.668229 
L 142.018077 176.452114 
L 144.57035 176.20576 
L 147.122623 176.014693 
L 149.674896 174.900893 
L 152.227168 174.532734 
L 154.779441 174.277279 
L 157.331714 173.524216 
L 159.883987 172.301786 
L 162.436259 171.609746 
L 164.988532 171.347182 
L 167.540805 171.223409 
L 170.093077 171.102678 
L 172.64535 171.058611 
L 175.197623 170.94521 
L 177.749896 170.337276 
L 180.302168 168.434071 
L 182.854441 167.759969 
L 185.406714 167.041095 
L 187.958987 166.926819 
L 190.511259 166.748202 
L 193.063532 166.398658 
L 195.615805 166.328646 
L 198.168077 166.004353 
L 200.72035 165.988265 
L 203.272623 164.948289 
L 205.824896 164.835664 
L 208.377168 164.36458 
L 210.929441 163.544485 
L 213.481714 163.360641 
L 216.033987 162.166506 
L 218.586259 161.641452 
L 221.138532 161.522808 
L 223.690805 160.657666 
L 226.243077 160.290191 
L 228.79535 159.483236 
L 231.347623 159.422133 
L 233.899896 158.934496 
L 236.452168 157.669031 
L 239.004441 156.667741 
L 241.556714 156.512253 
L 244.108987 155.008217 
L 246.661259 152.509442 
L 249.213532 152.098369 
L 251.765805 149.998169 
L 254.318077 149.148099 
L 256.87035 148.280122 
L 259.422623 147.270531 
L 261.974896 146.443691 
L 264.527168 144.849357 
L 267.079441 144.492191 
L 269.631714 144.261122 
L 272.183987 144.098085 
L 274.736259 143.945208 
L 277.288532 143.001548 
L 279.840805 142.976593 
L 282.393077 142.768647 
L 284.94535 142.660552 
L 287.497623 140.899581 
L 290.049896 140.083339 
L 292.602168 139.619817 
L 295.154441 137.77123 
L 297.706714 136.646587 
L 300.258987 136.421182 
L 302.811259 132.567878 
L 305.363532 131.308011 
L 307.915805 127.386332 
L 310.468077 124.71067 
L 313.02035 121.695859 
L 315.572623 110.220704 
L 318.124896 95.487025 
" clip-path="url(#pbf109fb03d)" style="fill: none; stroke: #bb9832; stroke-width: 1.5; stroke-linecap: round"/>
   </g>
   <g id="line2d_3">
    <path d="M 65.449896 223.262285 
L 68.002168 223.262285 
L 70.554441 223.262285 
L 73.106714 223.262285 
L 75.658987 223.262285 
L 78.211259 223.262285 
L 80.763532 223.262285 
L 83.315805 223.262285 
L 85.868077 223.262285 
L 88.42035 223.262285 
L 90.972623 223.262285 
L 93.524896 223.262285 
L 96.077168 223.262285 
L 98.629441 223.262285 
L 101.181714 223.262285 
L 103.733987 221.509981 
L 106.286259 219.729496 
L 108.838532 219.408969 
L 111.390805 219.228618 
L 113.943077 217.693694 
L 116.49535 216.092881 
L 119.047623 215.241771 
L 121.599896 214.414487 
L 124.152168 213.925291 
L 126.704441 212.676049 
L 129.256714 211.237555 
L 131.808987 211.19395 
L 134.361259 210.637066 
L 136.913532 210.232321 
L 139.465805 210.154996 
L 142.018077 210.116258 
L 144.57035 210.098512 
L 147.122623 209.965661 
L 149.674896 209.75895 
L 152.227168 208.884967 
L 154.779441 208.608597 
L 157.331714 208.237358 
L 159.883987 207.907558 
L 162.436259 207.832637 
L 164.988532 206.271561 
L 167.540805 205.641689 
L 170.093077 205.27147 
L 172.64535 203.890306 
L 175.197623 203.738102 
L 177.749896 203.417819 
L 180.302168 202.771548 
L 182.854441 201.973999 
L 185.406714 201.679088 
L 187.958987 200.038455 
L 190.511259 200.019749 
L 193.063532 199.620404 
L 195.615805 198.255026 
L 198.168077 197.90569 
L 200.72035 197.903803 
L 203.272623 197.625815 
L 205.824896 197.491383 
L 208.377168 197.462828 
L 210.929441 197.414882 
L 213.481714 196.815358 
L 216.033987 196.479854 
L 218.586259 196.111624 
L 221.138532 193.818552 
L 223.690805 191.643904 
L 226.243077 191.405976 
L 228.79535 190.615079 
L 231.347623 190.56877 
L 233.899896 188.967233 
L 236.452168 188.617356 
L 239.004441 188.426698 
L 241.556714 188.400313 
L 244.108987 186.961527 
L 246.661259 186.24088 
L 249.213532 186.120657 
L 251.765805 184.183986 
L 254.318077 183.36374 
L 256.87035 182.52528 
L 259.422623 182.126711 
L 261.974896 180.652259 
L 264.527168 179.786654 
L 267.079441 177.46702 
L 269.631714 177.028467 
L 272.183987 174.411374 
L 274.736259 171.505796 
L 277.288532 166.363388 
L 279.840805 165.001737 
L 282.393077 164.041692 
L 284.94535 159.027822 
L 287.497623 158.982655 
L 290.049896 152.000148 
L 292.602168 148.79442 
L 295.154441 145.893557 
L 297.706714 141.423014 
L 300.258987 140.263961 
L 302.811259 134.058599 
L 305.363532 132.739608 
L 307.915805 131.047263 
L 310.468077 129.430864 
L 313.02035 127.055423 
L 315.572623 126.136564 
L 318.124896 110.463948 
" clip-path="url(#pbf109fb03d)" style="fill: none; stroke: #50b131; stroke-width: 1.5; stroke-linecap: round"/>
   </g>
   <g id="line2d_4">
    <path d="M 65.449896 222.505595 
L 68.002168 220.258204 
L 70.554441 216.495876 
L 73.106714 216.164293 
L 75.658987 210.209357 
L 78.211259 208.778064 
L 80.763532 204.826669 
L 83.315805 194.755263 
L 85.868077 191.625834 
L 88.42035 191.474152 
L 90.972623 191.29407 
L 93.524896 189.404971 
L 96.077168 189.026857 
L 98.629441 188.46684 
L 101.181714 188.372944 
L 103.733987 185.945685 
L 106.286259 185.685427 
L 108.838532 185.500672 
L 111.390805 184.5218 
L 113.943077 182.262914 
L 116.49535 182.245197 
L 119.047623 181.479481 
L 121.599896 181.363564 
L 124.152168 180.779224 
L 126.704441 179.79205 
L 129.256714 179.487804 
L 131.808987 177.988326 
L 134.361259 177.767937 
L 136.913532 175.826208 
L 139.465805 175.768364 
L 142.018077 173.118269 
L 144.57035 172.147316 
L 147.122623 171.648168 
L 149.674896 170.78947 
L 152.227168 170.565158 
L 154.779441 169.73755 
L 157.331714 167.869931 
L 159.883987 167.761563 
L 162.436259 167.621119 
L 164.988532 167.527766 
L 167.540805 166.994536 
L 170.093077 166.843431 
L 172.64535 165.551896 
L 175.197623 164.76218 
L 177.749896 164.656212 
L 180.302168 162.762363 
L 182.854441 162.001448 
L 185.406714 160.620917 
L 187.958987 160.499809 
L 190.511259 160.107946 
L 193.063532 159.937617 
L 195.615805 159.845108 
L 198.168077 158.398185 
L 200.72035 158.333484 
L 203.272623 157.646233 
L 205.824896 157.164252 
L 208.377168 156.367924 
L 210.929441 154.367234 
L 213.481714 153.295688 
L 216.033987 152.044747 
L 218.586259 150.570332 
L 221.138532 150.490925 
L 223.690805 150.268565 
L 226.243077 146.730452 
L 228.79535 145.63493 
L 231.347623 144.835739 
L 233.899896 144.283545 
L 236.452168 143.307959 
L 239.004441 142.806522 
L 241.556714 142.18034 
L 244.108987 141.926912 
L 246.661259 140.184472 
L 249.213532 138.88971 
L 251.765805 137.345028 
L 254.318077 136.60621 
L 256.87035 134.998251 
L 259.422623 134.431498 
L 261.974896 133.482684 
L 264.527168 132.314909 
L 267.079441 130.94892 
L 269.631714 130.391326 
L 272.183987 129.211567 
L 274.736259 126.012053 
L 277.288532 123.018235 
L 279.840805 121.718045 
L 282.393077 120.166969 
L 284.94535 119.272881 
L 287.497623 119.083203 
L 290.049896 118.567481 
L 292.602168 117.016084 
L 295.154441 115.475885 
L 297.706714 115.335748 
L 300.258987 115.020963 
L 302.811259 110.385825 
L 305.363532 109.004501 
L 307.915805 108.499347 
L 310.468077 106.802122 
L 313.02035 103.429855 
L 315.572623 79.037067 
L 318.124896 73.232859 
" clip-path="url(#pbf109fb03d)" style="fill: none; stroke: #36ada4; stroke-width: 1.5; stroke-linecap: round"/>
   </g>
   <g id="line2d_5">
    <path d="M 65.449896 209.861027 
L 68.002168 209.785108 
L 70.554441 207.642181 
L 73.106714 203.655364 
L 75.658987 200.500748 
L 78.211259 197.660474 
L 80.763532 197.343033 
L 83.315805 196.600273 
L 85.868077 196.248508 
L 88.42035 192.979159 
L 90.972623 190.882767 
L 93.524896 190.184248 
L 96.077168 189.64486 
L 98.629441 188.436952 
L 101.181714 188.360646 
L 103.733987 188.24779 
L 106.286259 187.957096 
L 108.838532 186.781822 
L 111.390805 186.675801 
L 113.943077 186.47037 
L 116.49535 186.110998 
L 119.047623 186.01287 
L 121.599896 185.30532 
L 124.152168 184.919588 
L 126.704441 184.38912 
L 129.256714 184.210031 
L 131.808987 183.590035 
L 134.361259 181.414722 
L 136.913532 180.788066 
L 139.465805 176.685723 
L 142.018077 175.963505 
L 144.57035 174.384842 
L 147.122623 174.378701 
L 149.674896 174.191168 
L 152.227168 174.152292 
L 154.779441 172.985108 
L 157.331714 172.911583 
L 159.883987 172.328319 
L 162.436259 172.170474 
L 164.988532 171.525661 
L 167.540805 171.402921 
L 170.093077 171.145241 
L 172.64535 171.06661 
L 175.197623 171.033933 
L 177.749896 169.949523 
L 180.302168 169.944529 
L 182.854441 169.789604 
L 185.406714 169.631682 
L 187.958987 169.384493 
L 190.511259 167.490828 
L 193.063532 167.205345 
L 195.615805 166.128133 
L 198.168077 165.715368 
L 200.72035 165.568335 
L 203.272623 164.914449 
L 205.824896 164.184798 
L 208.377168 164.151029 
L 210.929441 163.78142 
L 213.481714 162.666694 
L 216.033987 162.032199 
L 218.586259 162.02067 
L 221.138532 161.969267 
L 223.690805 161.066502 
L 226.243077 160.421772 
L 228.79535 158.887384 
L 231.347623 158.817097 
L 233.899896 158.308748 
L 236.452168 158.303453 
L 239.004441 158.1526 
L 241.556714 157.423705 
L 244.108987 156.753623 
L 246.661259 156.281539 
L 249.213532 155.156199 
L 251.765805 154.773635 
L 254.318077 154.74006 
L 256.87035 154.688115 
L 259.422623 154.078278 
L 261.974896 153.54649 
L 264.527168 152.635632 
L 267.079441 152.277403 
L 269.631714 151.521607 
L 272.183987 150.884808 
L 274.736259 150.796417 
L 277.288532 150.719984 
L 279.840805 149.282164 
L 282.393077 147.648682 
L 284.94535 147.432537 
L 287.497623 147.357279 
L 290.049896 144.357051 
L 292.602168 143.685077 
L 295.154441 143.495512 
L 297.706714 142.897186 
L 300.258987 141.446463 
L 302.811259 140.288482 
L 305.363532 138.323706 
L 307.915805 134.129932 
L 310.468077 132.446529 
L 313.02035 130.110999 
L 315.572623 125.110212 
L 318.124896 118.091812 
" clip-path="url(#pbf109fb03d)" style="fill: none; stroke: #3ba3ec; stroke-width: 1.5; stroke-linecap: round"/>
   </g>
   <g id="line2d_6">
    <path d="M 65.449896 220.110326 
L 68.002168 219.918407 
L 70.554441 207.179146 
L 73.106714 205.007893 
L 75.658987 203.985217 
L 78.211259 201.623015 
L 80.763532 200.700436 
L 83.315805 200.074442 
L 85.868077 199.455987 
L 88.42035 195.206764 
L 90.972623 192.289669 
L 93.524896 190.876404 
L 96.077168 189.562882 
L 98.629441 189.200645 
L 101.181714 188.757924 
L 103.733987 186.937265 
L 106.286259 186.627211 
L 108.838532 185.17788 
L 111.390805 183.859876 
L 113.943077 182.312788 
L 116.49535 182.176171 
L 119.047623 181.366691 
L 121.599896 181.159659 
L 124.152168 181.099892 
L 126.704441 180.971864 
L 129.256714 180.352502 
L 131.808987 180.347926 
L 134.361259 180.136644 
L 136.913532 179.425182 
L 139.465805 179.390486 
L 142.018077 179.199524 
L 144.57035 179.188593 
L 147.122623 178.663002 
L 149.674896 178.010865 
L 152.227168 177.872089 
L 154.779441 175.926247 
L 157.331714 175.634119 
L 159.883987 175.072202 
L 162.436259 174.231229 
L 164.988532 174.094635 
L 167.540805 172.21847 
L 170.093077 171.371354 
L 172.64535 169.803025 
L 175.197623 169.428528 
L 177.749896 169.42634 
L 180.302168 167.88401 
L 182.854441 167.078052 
L 185.406714 165.641202 
L 187.958987 165.176708 
L 190.511259 164.378543 
L 193.063532 164.352293 
L 195.615805 164.313802 
L 198.168077 163.660017 
L 200.72035 162.53374 
L 203.272623 162.126011 
L 205.824896 160.6159 
L 208.377168 160.604377 
L 210.929441 160.044799 
L 213.481714 159.336893 
L 216.033987 158.193931 
L 218.586259 155.999253 
L 221.138532 154.047284 
L 223.690805 153.808144 
L 226.243077 153.022685 
L 228.79535 152.454139 
L 231.347623 151.362065 
L 233.899896 151.097336 
L 236.452168 149.581097 
L 239.004441 149.35543 
L 241.556714 148.260932 
L 244.108987 146.629324 
L 246.661259 146.310308 
L 249.213532 145.966168 
L 251.765805 145.936457 
L 254.318077 145.521193 
L 256.87035 145.193176 
L 259.422623 145.014043 
L 261.974896 142.765399 
L 264.527168 141.556946 
L 267.079441 140.242344 
L 269.631714 140.144462 
L 272.183987 139.397523 
L 274.736259 138.747556 
L 277.288532 134.736175 
L 279.840805 133.305414 
L 282.393077 132.928982 
L 284.94535 132.695653 
L 287.497623 132.25242 
L 290.049896 130.965504 
L 292.602168 130.360632 
L 295.154441 129.986461 
L 297.706714 129.407783 
L 300.258987 128.423633 
L 302.811259 123.809992 
L 305.363532 115.962224 
L 307.915805 113.190898 
L 310.468077 106.161285 
L 313.02035 105.31254 
L 315.572623 93.965204 
L 318.124896 92.839685 
" clip-path="url(#pbf109fb03d)" style="fill: none; stroke: #e866f4; stroke-width: 1.5; stroke-linecap: round"/>
   </g>
   <g id="line2d_7">
    <path d="M 65.449896 197.401758 
L 68.002168 196.33774 
L 70.554441 195.708866 
L 73.106714 195.496394 
L 75.658987 193.152548 
L 78.211259 192.648192 
L 80.763532 189.28222 
L 83.315805 189.184878 
L 85.868077 188.255883 
L 88.42035 188.113795 
L 90.972623 187.154311 
L 93.524896 186.724857 
L 96.077168 186.660417 
L 98.629441 184.611329 
L 101.181714 184.419268 
L 103.733987 184.222365 
L 106.286259 182.985397 
L 108.838532 182.811483 
L 111.390805 182.51997 
L 113.943077 182.415547 
L 116.49535 181.235425 
L 119.047623 180.943156 
L 121.599896 179.903453 
L 124.152168 179.832297 
L 126.704441 179.450715 
L 129.256714 179.40791 
L 131.808987 178.813626 
L 134.361259 178.661761 
L 136.913532 177.927113 
L 139.465805 177.03922 
L 142.018077 175.794436 
L 144.57035 175.666458 
L 147.122623 175.082648 
L 149.674896 174.846046 
L 152.227168 174.552419 
L 154.779441 174.449341 
L 157.331714 174.325552 
L 159.883987 174.24834 
L 162.436259 173.921389 
L 164.988532 173.724249 
L 167.540805 173.591953 
L 170.093077 173.536595 
L 172.64535 173.331723 
L 175.197623 172.207751 
L 177.749896 171.443418 
L 180.302168 171.305842 
L 182.854441 170.993196 
L 185.406714 170.855795 
L 187.958987 170.654394 
L 190.511259 170.543909 
L 193.063532 170.437385 
L 195.615805 168.850717 
L 198.168077 167.925281 
L 200.72035 166.753314 
L 203.272623 165.575211 
L 205.824896 163.926088 
L 208.377168 162.848761 
L 210.929441 162.297063 
L 213.481714 161.48032 
L 216.033987 161.448613 
L 218.586259 161.390465 
L 221.138532 161.08645 
L 223.690805 161.041324 
L 226.243077 161.005957 
L 228.79535 160.606174 
L 231.347623 159.79282 
L 233.899896 159.153925 
L 236.452168 158.732373 
L 239.004441 158.149955 
L 241.556714 157.823803 
L 244.108987 157.564583 
L 246.661259 157.511154 
L 249.213532 157.208658 
L 251.765805 156.733972 
L 254.318077 155.575831 
L 256.87035 155.340524 
L 259.422623 153.869657 
L 261.974896 153.643231 
L 264.527168 153.507819 
L 267.079441 153.190245 
L 269.631714 153.148618 
L 272.183987 151.529549 
L 274.736259 151.365434 
L 277.288532 150.727604 
L 279.840805 150.07988 
L 282.393077 148.451872 
L 284.94535 147.361543 
L 287.497623 146.344369 
L 290.049896 146.316662 
L 292.602168 145.904649 
L 295.154441 144.328994 
L 297.706714 144.230038 
L 300.258987 143.692345 
L 302.811259 141.954863 
L 305.363532 141.048114 
L 307.915805 139.288746 
L 310.468077 137.397114 
L 313.02035 126.641997 
L 315.572623 126.592059 
L 318.124896 124.713765 
" clip-path="url(#pbf109fb03d)" style="fill: none; stroke: #000000; stroke-width: 6; stroke-linecap: round"/>
   </g>
   <g id="patch_3">
    <path d="M 65.449896 265.571549 
L 65.449896 12.896549 
" style="fill: none; stroke: #262626; stroke-width: 1.25; stroke-linejoin: miter; stroke-linecap: square"/>
   </g>
   <g id="patch_4">
    <path d="M 65.449896 265.571549 
L 318.124896 265.571549 
" style="fill: none; stroke: #262626; stroke-width: 1.25; stroke-linejoin: miter; stroke-linecap: square"/>
   </g>
   <g id="legend_1">
    <g id="patch_5">
     <path d="M 73.149896 134.718111 
L 171.132396 134.718111 
Q 173.332396 134.718111 173.332396 132.518111 
L 173.332396 20.596549 
Q 173.332396 18.396549 171.132396 18.396549 
L 73.149896 18.396549 
Q 70.949896 18.396549 70.949896 20.596549 
L 70.949896 132.518111 
Q 70.949896 134.718111 73.149896 134.718111 
z
" style="fill: #ffffff; opacity: 0.8; stroke: #cccccc; stroke-linejoin: miter"/>
    </g>
    <g id="line2d_8">
     <path d="M 75.349896 27.30483 
L 86.349896 27.30483 
L 97.349896 27.30483 
" style="fill: none; stroke: #f77189; stroke-width: 1.5; stroke-linecap: round"/>
    </g>
    <g id="text_15">
     <text style="fill: #262626; font: 11px 'Arial', 'DejaVu Sans', 'Liberation Sans', 'Bitstream Vera Sans', sans-serif; text-anchor: start" x="106.149896" y="31.15483" transform="rotate(-0 106.149896 31.15483)">Lamp5</text>
    </g>
    <g id="line2d_9">
     <path d="M 75.349896 43.450767 
L 86.349896 43.450767 
L 97.349896 43.450767 
" style="fill: none; stroke: #bb9832; stroke-width: 1.5; stroke-linecap: round"/>
    </g>
    <g id="text_16">
     <text style="fill: #262626; font: 11px 'Arial', 'DejaVu Sans', 'Liberation Sans', 'Bitstream Vera Sans', sans-serif; text-anchor: start" x="106.149896" y="47.300767" transform="rotate(-0 106.149896 47.300767)">Pvalb</text>
    </g>
    <g id="line2d_10">
     <path d="M 75.349896 59.596705 
L 86.349896 59.596705 
L 97.349896 59.596705 
" style="fill: none; stroke: #50b131; stroke-width: 1.5; stroke-linecap: round"/>
    </g>
    <g id="text_17">
     <text style="fill: #262626; font: 11px 'Arial', 'DejaVu Sans', 'Liberation Sans', 'Bitstream Vera Sans', sans-serif; text-anchor: start" x="106.149896" y="63.446705" transform="rotate(-0 106.149896 63.446705)">Serpinf1</text>
    </g>
    <g id="line2d_11">
     <path d="M 75.349896 75.742642 
L 86.349896 75.742642 
L 97.349896 75.742642 
" style="fill: none; stroke: #36ada4; stroke-width: 1.5; stroke-linecap: round"/>
    </g>
    <g id="text_18">
     <text style="fill: #262626; font: 11px 'Arial', 'DejaVu Sans', 'Liberation Sans', 'Bitstream Vera Sans', sans-serif; text-anchor: start" x="106.149896" y="79.592642" transform="rotate(-0 106.149896 79.592642)">Sncg</text>
    </g>
    <g id="line2d_12">
     <path d="M 75.349896 91.88858 
L 86.349896 91.88858 
L 97.349896 91.88858 
" style="fill: none; stroke: #3ba3ec; stroke-width: 1.5; stroke-linecap: round"/>
    </g>
    <g id="text_19">
     <text style="fill: #262626; font: 11px 'Arial', 'DejaVu Sans', 'Liberation Sans', 'Bitstream Vera Sans', sans-serif; text-anchor: start" x="106.149896" y="95.73858" transform="rotate(-0 106.149896 95.73858)">Sst</text>
    </g>
    <g id="line2d_13">
     <path d="M 75.349896 108.034517 
L 86.349896 108.034517 
L 97.349896 108.034517 
" style="fill: none; stroke: #e866f4; stroke-width: 1.5; stroke-linecap: round"/>
    </g>
    <g id="text_20">
     <text style="fill: #262626; font: 11px 'Arial', 'DejaVu Sans', 'Liberation Sans', 'Bitstream Vera Sans', sans-serif; text-anchor: start" x="106.149896" y="111.884517" transform="rotate(-0 106.149896 111.884517)">Vip</text>
    </g>
    <g id="line2d_14">
     <path d="M 75.349896 124.180455 
L 86.349896 124.180455 
L 97.349896 124.180455 
" style="fill: none; stroke: #000000; stroke-width: 6; stroke-linecap: round"/>
    </g>
    <g id="text_21">
     <text style="fill: #262626; font: 11px 'Arial', 'DejaVu Sans', 'Liberation Sans', 'Bitstream Vera Sans', sans-serif; text-anchor: start" x="106.149896" y="128.030455" transform="rotate(-0 106.149896 128.030455)">Cumulative</text>
    </g>
   </g>
  </g>
 </g>
 <defs>
  <clipPath id="pbf109fb03d">
   <rect x="65.449896" y="12.896549" width="252.675" height="252.675"/>
  </clipPath>
 </defs>
</svg>
