<?xml version="1.0" encoding="utf-8" standalone="no"?>
<!DOCTYPE svg PUBLIC "-//W3C//DTD SVG 1.1//EN"
  "http://www.w3.org/Graphics/SVG/1.1/DTD/svg11.dtd">
<svg xmlns:xlink="http://www.w3.org/1999/xlink" width="337.247468pt" height="321.687679pt" viewBox="0 0 337.247468 321.687679" xmlns="http://www.w3.org/2000/svg" version="1.1">
 <metadata>
  <rdf:RDF xmlns:dc="http://purl.org/dc/elements/1.1/" xmlns:cc="http://creativecommons.org/ns#" xmlns:rdf="http://www.w3.org/1999/02/22-rdf-syntax-ns#">
   <cc:Work>
    <dc:type rdf:resource="http://purl.org/dc/dcmitype/StillImage"/>
    <dc:date>2023-08-18T20:01:41.836958</dc:date>
    <dc:format>image/svg+xml</dc:format>
    <dc:creator>
     <cc:Agent>
      <dc:title>Matplotlib v3.7.2, https://matplotlib.org/</dc:title>
     </cc:Agent>
    </dc:creator>
   </cc:Work>
  </rdf:RDF>
 </metadata>
 <defs>
  <style type="text/css">*{stroke-linejoin: round; stroke-linecap: butt}</style>
 </defs>
 <g id="figure_1">
  <g id="patch_1">
   <path d="M 0 321.687679 
L 337.247468 321.687679 
L 337.247468 0 
L 0 0 
z
" style="fill: #ffffff"/>
  </g>
  <g id="axes_1">
   <g id="patch_2">
    <path d="M 65.449896 265.571549 
L 318.124896 265.571549 
L 318.124896 12.896549 
L 65.449896 12.896549 
z
" style="fill: #ffffff"/>
   </g>
   <g id="matplotlib.axis_1">
    <g id="xtick_1">
     <g id="text_1">
      <text style="fill: #262626; font: 14.994px 'Arial', 'DejaVu Sans', 'Liberation Sans', 'Bitstream Vera Sans', sans-serif; text-anchor: middle" x="65.449896" y="286.464646" transform="rotate(-0 65.449896 286.464646)">0.0</text>
     </g>
    </g>
    <g id="xtick_2">
     <g id="text_2">
      <text style="fill: #262626; font: 14.994px 'Arial', 'DejaVu Sans', 'Liberation Sans', 'Bitstream Vera Sans', sans-serif; text-anchor: middle" x="115.984896" y="286.464646" transform="rotate(-0 115.984896 286.464646)">0.2</text>
     </g>
    </g>
    <g id="xtick_3">
     <g id="text_3">
      <text style="fill: #262626; font: 14.994px 'Arial', 'DejaVu Sans', 'Liberation Sans', 'Bitstream Vera Sans', sans-serif; text-anchor: middle" x="166.519896" y="286.464646" transform="rotate(-0 166.519896 286.464646)">0.4</text>
     </g>
    </g>
    <g id="xtick_4">
     <g id="text_4">
      <text style="fill: #262626; font: 14.994px 'Arial', 'DejaVu Sans', 'Liberation Sans', 'Bitstream Vera Sans', sans-serif; text-anchor: middle" x="217.054896" y="286.464646" transform="rotate(-0 217.054896 286.464646)">0.6</text>
     </g>
    </g>
    <g id="xtick_5">
     <g id="text_5">
      <text style="fill: #262626; font: 14.994px 'Arial', 'DejaVu Sans', 'Liberation Sans', 'Bitstream Vera Sans', sans-serif; text-anchor: middle" x="267.589896" y="286.464646" transform="rotate(-0 267.589896 286.464646)">0.8</text>
     </g>
    </g>
    <g id="xtick_6">
     <g id="text_6">
      <text style="fill: #262626; font: 14.994px 'Arial', 'DejaVu Sans', 'Liberation Sans', 'Bitstream Vera Sans', sans-serif; text-anchor: middle" x="318.124896" y="286.464646" transform="rotate(-0 318.124896 286.464646)">1.0</text>
     </g>
    </g>
    <g id="text_7">
     <text style="fill: #262626; font: 21.6px 'Arial', 'DejaVu Sans', 'Liberation Sans', 'Bitstream Vera Sans', sans-serif; text-anchor: middle" x="191.787396" y="309.995554" transform="rotate(-0 191.787396 309.995554)">Percentile</text>
    </g>
   </g>
   <g id="matplotlib.axis_2">
    <g id="ytick_1">
     <g id="text_8">
      <text style="fill: #262626; font: 14.994px 'Arial', 'DejaVu Sans', 'Liberation Sans', 'Bitstream Vera Sans', sans-serif; text-anchor: end" x="55.949896" y="271.268097" transform="rotate(-0 55.949896 271.268097)">0.0</text>
     </g>
    </g>
    <g id="ytick_2">
     <g id="text_9">
      <text style="fill: #262626; font: 14.994px 'Arial', 'DejaVu Sans', 'Liberation Sans', 'Bitstream Vera Sans', sans-serif; text-anchor: end" x="55.949896" y="220.733097" transform="rotate(-0 55.949896 220.733097)">0.2</text>
     </g>
    </g>
    <g id="ytick_3">
     <g id="text_10">
      <text style="fill: #262626; font: 14.994px 'Arial', 'DejaVu Sans', 'Liberation Sans', 'Bitstream Vera Sans', sans-serif; text-anchor: end" x="55.949896" y="170.198097" transform="rotate(-0 55.949896 170.198097)">0.4</text>
     </g>
    </g>
    <g id="ytick_4">
     <g id="text_11">
      <text style="fill: #262626; font: 14.994px 'Arial', 'DejaVu Sans', 'Liberation Sans', 'Bitstream Vera Sans', sans-serif; text-anchor: end" x="55.949896" y="119.663097" transform="rotate(-0 55.949896 119.663097)">0.6</text>
     </g>
    </g>
    <g id="ytick_5">
     <g id="text_12">
      <text style="fill: #262626; font: 14.994px 'Arial', 'DejaVu Sans', 'Liberation Sans', 'Bitstream Vera Sans', sans-serif; text-anchor: end" x="55.949896" y="69.128097" transform="rotate(-0 55.949896 69.128097)">0.8</text>
     </g>
    </g>
    <g id="ytick_6">
     <g id="text_13">
      <text style="fill: #262626; font: 14.994px 'Arial', 'DejaVu Sans', 'Liberation Sans', 'Bitstream Vera Sans', sans-serif; text-anchor: end" x="55.949896" y="18.593097" transform="rotate(-0 55.949896 18.593097)">1.0</text>
     </g>
    </g>
    <g id="text_14">
     <text style="fill: #262626; font: 21.6px 'Arial', 'DejaVu Sans', 'Liberation Sans', 'Bitstream Vera Sans', sans-serif; text-anchor: middle" x="23.612625" y="139.234049" transform="rotate(-90 23.612625 139.234049)">Electrophysiology Similarity</text>
    </g>
   </g>
   <g id="line2d_1">
    <path d="M 65.449896 212.316612 
L 74.474003 189.445662 
L 83.49811 188.300457 
L 92.522217 187.191884 
L 101.546324 186.030111 
L 110.570431 182.79654 
L 119.594538 176.457696 
L 128.618646 175.448594 
L 137.642753 173.163182 
L 146.66686 167.943908 
L 155.690967 167.828305 
L 164.715074 166.449409 
L 173.739181 164.684034 
L 182.763288 164.569345 
L 191.787396 162.384371 
L 200.811503 160.721252 
L 209.83561 160.542079 
L 218.859717 160.26578 
L 227.883824 159.657462 
L 236.907931 157.751308 
L 245.932038 156.438639 
L 254.956146 154.642063 
L 263.980253 151.522237 
L 273.00436 150.671735 
L 282.028467 149.196388 
L 291.052574 148.058887 
L 300.076681 144.734962 
L 309.100788 138.844518 
L 318.124896 135.887058 
" clip-path="url(#p47a8837db2)" style="fill: none; stroke: #f77189; stroke-width: 1.5; stroke-linecap: round"/>
   </g>
   <g id="line2d_2">
    <path d="M 65.449896 223.262285 
L 74.474003 215.130274 
L 83.49811 205.352638 
L 92.522217 195.170481 
L 101.546324 187.496408 
L 110.570431 185.326016 
L 119.594538 174.287324 
L 128.618646 174.274642 
L 137.642753 172.695522 
L 146.66686 171.239106 
L 155.690967 170.915565 
L 164.715074 167.216677 
L 173.739181 162.00627 
L 182.763288 161.869913 
L 191.787396 159.949875 
L 200.811503 159.92343 
L 209.83561 157.572807 
L 218.859717 148.293839 
L 227.883824 146.807452 
L 236.907931 140.137396 
L 245.932038 139.211823 
L 254.956146 137.109247 
L 263.980253 135.881589 
L 273.00436 134.759787 
L 282.028467 133.206496 
L 291.052574 132.706564 
L 300.076681 106.979315 
L 309.100788 106.935708 
L 318.124896 93.623098 
" clip-path="url(#p47a8837db2)" style="fill: none; stroke: #d58c32; stroke-width: 1.5; stroke-linecap: round"/>
   </g>
   <g id="line2d_3">
    <path d="M 65.449896 194.296442 
L 74.474003 189.612731 
L 83.49811 188.601546 
L 92.522217 186.380328 
L 101.546324 185.456911 
L 110.570431 185.084814 
L 119.594538 182.7094 
L 128.618646 181.41845 
L 137.642753 179.475798 
L 146.66686 178.147792 
L 155.690967 175.279872 
L 164.715074 174.298878 
L 173.739181 170.94891 
L 182.763288 168.423448 
L 191.787396 167.18965 
L 200.811503 166.888431 
L 209.83561 162.689281 
L 218.859717 159.569355 
L 227.883824 158.883322 
L 236.907931 153.905 
L 245.932038 150.895347 
L 254.956146 144.833192 
L 263.980253 144.067101 
L 273.00436 143.149604 
L 282.028467 138.88503 
L 291.052574 122.803283 
L 300.076681 104.934275 
L 309.100788 93.110398 
L 318.124896 85.923387 
" clip-path="url(#p47a8837db2)" style="fill: none; stroke: #a4a031; stroke-width: 1.5; stroke-linecap: round"/>
   </g>
   <g id="line2d_4">
    <path d="M 65.449896 219.802472 
L 74.474003 206.909666 
L 83.49811 198.199659 
L 92.522217 194.379058 
L 101.546324 193.13687 
L 110.570431 188.549381 
L 119.594538 183.484465 
L 128.618646 183.230997 
L 137.642753 182.564615 
L 146.66686 181.283382 
L 155.690967 176.017974 
L 164.715074 173.783957 
L 173.739181 168.876111 
L 182.763288 168.194867 
L 191.787396 168.042925 
L 200.811503 167.777455 
L 209.83561 163.226101 
L 218.859717 162.515855 
L 227.883824 158.505981 
L 236.907931 155.63142 
L 245.932038 155.046723 
L 254.956146 150.269613 
L 263.980253 150.104449 
L 273.00436 145.681061 
L 282.028467 145.01284 
L 291.052574 142.590126 
L 300.076681 139.02567 
L 309.100788 138.980263 
L 318.124896 135.598031 
" clip-path="url(#p47a8837db2)" style="fill: none; stroke: #50b131; stroke-width: 1.5; stroke-linecap: round"/>
   </g>
   <g id="line2d_5">
    <path d="M 65.449896 12.896549 
L 74.474003 12.896549 
L 83.49811 12.896549 
L 92.522217 12.896549 
L 101.546324 12.896549 
L 110.570431 12.896549 
L 119.594538 12.896549 
L 128.618646 12.896549 
L 137.642753 12.896549 
L 146.66686 12.896549 
L 155.690967 12.896549 
L 164.715074 12.896549 
L 173.739181 12.896549 
L 182.763288 12.896549 
L 191.787396 12.896549 
L 200.811503 12.896549 
L 209.83561 12.896549 
L 218.859717 12.896549 
L 227.883824 12.896549 
L 236.907931 12.896549 
L 245.932038 12.896549 
L 254.956146 12.896549 
L 263.980253 12.896549 
L 273.00436 12.896549 
L 282.028467 12.896549 
L 291.052574 12.896549 
L 300.076681 12.896549 
L 309.100788 12.896549 
L 318.124896 12.896549 
" clip-path="url(#p47a8837db2)" style="fill: none; stroke: #34ae91; stroke-width: 1.5; stroke-linecap: round"/>
   </g>
   <g id="line2d_6">
    <path d="M 65.449896 216.346339 
L 74.474003 212.124252 
L 83.49811 208.830106 
L 92.522217 206.487761 
L 101.546324 205.939719 
L 110.570431 205.322909 
L 119.594538 203.713029 
L 128.618646 198.863373 
L 137.642753 184.876293 
L 146.66686 179.390484 
L 155.690967 167.816864 
L 164.715074 166.642067 
L 173.739181 164.210502 
L 182.763288 161.264168 
L 191.787396 160.704866 
L 200.811503 157.772538 
L 209.83561 153.860328 
L 218.859717 151.447148 
L 227.883824 149.660461 
L 236.907931 149.511286 
L 245.932038 145.680087 
L 254.956146 144.78902 
L 263.980253 144.45746 
L 273.00436 144.386061 
L 282.028467 139.90402 
L 291.052574 139.893244 
L 300.076681 137.157206 
L 309.100788 114.58971 
L 318.124896 105.849401 
" clip-path="url(#p47a8837db2)" style="fill: none; stroke: #37abb5; stroke-width: 1.5; stroke-linecap: round"/>
   </g>
   <g id="line2d_7">
    <path d="M 65.449896 223.262285 
L 74.474003 223.262285 
L 83.49811 223.262285 
L 92.522217 223.262285 
L 101.546324 223.262285 
L 110.570431 223.262285 
L 119.594538 223.262285 
L 128.618646 223.262285 
L 137.642753 223.262285 
L 146.66686 212.193322 
L 155.690967 198.233291 
L 164.715074 180.396682 
L 173.739181 174.803932 
L 182.763288 153.241669 
L 191.787396 149.302881 
L 200.811503 132.407862 
L 209.83561 78.242536 
L 218.859717 12.896549 
L 227.883824 12.896549 
L 236.907931 12.896549 
L 245.932038 12.896549 
L 254.956146 12.896549 
L 263.980253 12.896549 
L 273.00436 12.896549 
L 282.028467 12.896549 
L 291.052574 12.896549 
L 300.076681 12.896549 
L 309.100788 12.896549 
L 318.124896 12.896549 
" clip-path="url(#p47a8837db2)" style="fill: none; stroke: #3ba3ec; stroke-width: 1.5; stroke-linecap: round"/>
   </g>
   <g id="line2d_8">
    <path d="M 65.449896 185.105167 
L 74.474003 183.443034 
L 83.49811 179.751982 
L 92.522217 176.455185 
L 101.546324 170.268187 
L 110.570431 164.209744 
L 119.594538 158.598195 
L 128.618646 151.623504 
L 137.642753 149.656796 
L 146.66686 147.113793 
L 155.690967 141.537758 
L 164.715074 141.17891 
L 173.739181 140.19751 
L 182.763288 133.383895 
L 191.787396 131.626771 
L 200.811503 131.254684 
L 209.83561 129.093539 
L 218.859717 127.453835 
L 227.883824 122.820371 
L 236.907931 121.5801 
L 245.932038 119.44288 
L 254.956146 118.166162 
L 263.980253 113.243256 
L 273.00436 107.469559 
L 282.028467 103.218623 
L 291.052574 99.725063 
L 300.076681 99.7237 
L 309.100788 98.968911 
L 318.124896 83.207023 
" clip-path="url(#p47a8837db2)" style="fill: none; stroke: #bb83f4; stroke-width: 1.5; stroke-linecap: round"/>
   </g>
   <g id="line2d_9">
    <path d="M 65.449896 200.02352 
L 74.474003 195.107446 
L 83.49811 186.929586 
L 92.522217 186.278615 
L 101.546324 186.247405 
L 110.570431 182.251188 
L 119.594538 178.019135 
L 128.618646 172.835168 
L 137.642753 167.817472 
L 146.66686 166.519847 
L 155.690967 166.30477 
L 164.715074 159.260695 
L 173.739181 157.562353 
L 182.763288 155.924555 
L 191.787396 155.9059 
L 200.811503 152.573456 
L 209.83561 150.144293 
L 218.859717 144.696522 
L 227.883824 144.575735 
L 236.907931 140.933609 
L 245.932038 140.082491 
L 254.956146 139.846599 
L 263.980253 139.52874 
L 273.00436 139.392707 
L 282.028467 119.268205 
L 291.052574 116.647436 
L 300.076681 110.647576 
L 309.100788 104.051364 
L 318.124896 99.830441 
" clip-path="url(#p47a8837db2)" style="fill: none; stroke: #f564d4; stroke-width: 1.5; stroke-linecap: round"/>
   </g>
   <g id="line2d_10">
    <path d="M 65.449896 173.067485 
L 74.474003 161.911756 
L 83.49811 161.2196 
L 92.522217 157.188049 
L 101.546324 157.043014 
L 110.570431 154.339105 
L 119.594538 149.216677 
L 128.618646 145.980605 
L 137.642753 144.365244 
L 146.66686 142.249439 
L 155.690967 142.099809 
L 164.715074 140.626453 
L 173.739181 140.419629 
L 182.763288 138.495869 
L 191.787396 137.729756 
L 200.811503 136.925558 
L 209.83561 135.802618 
L 218.859717 135.441842 
L 227.883824 133.506248 
L 236.907931 127.859391 
L 245.932038 126.236994 
L 254.956146 125.616037 
L 263.980253 123.469567 
L 273.00436 120.952816 
L 282.028467 119.910238 
L 291.052574 118.601859 
L 300.076681 116.314107 
L 309.100788 115.437355 
L 318.124896 112.942533 
" clip-path="url(#p47a8837db2)" style="fill: none; stroke: #000000; stroke-width: 6; stroke-linecap: round"/>
   </g>
   <g id="patch_3">
    <path d="M 65.449896 265.571549 
L 65.449896 12.896549 
" style="fill: none; stroke: #262626; stroke-width: 1.25; stroke-linejoin: miter; stroke-linecap: square"/>
   </g>
   <g id="patch_4">
    <path d="M 65.449896 265.571549 
L 318.124896 265.571549 
" style="fill: none; stroke: #262626; stroke-width: 1.25; stroke-linejoin: miter; stroke-linecap: square"/>
   </g>
   <g id="legend_1">
    <g id="patch_5">
     <path d="M 73.149896 183.155924 
L 171.132396 183.155924 
Q 173.332396 183.155924 173.332396 180.955924 
L 173.332396 20.596549 
Q 173.332396 18.396549 171.132396 18.396549 
L 73.149896 18.396549 
Q 70.949896 18.396549 70.949896 20.596549 
L 70.949896 180.955924 
Q 70.949896 183.155924 73.149896 183.155924 
z
" style="fill: #ffffff; opacity: 0.8; stroke: #cccccc; stroke-linejoin: miter"/>
    </g>
    <g id="line2d_11">
     <path d="M 75.349896 27.30483 
L 86.349896 27.30483 
L 97.349896 27.30483 
" style="fill: none; stroke: #f77189; stroke-width: 1.5; stroke-linecap: round"/>
    </g>
    <g id="text_15">
     <text style="fill: #262626; font: 11px 'Arial', 'DejaVu Sans', 'Liberation Sans', 'Bitstream Vera Sans', sans-serif; text-anchor: start" x="106.149896" y="31.15483" transform="rotate(-0 106.149896 31.15483)">CT</text>
    </g>
    <g id="line2d_12">
     <path d="M 75.349896 43.450767 
L 86.349896 43.450767 
L 97.349896 43.450767 
" style="fill: none; stroke: #d58c32; stroke-width: 1.5; stroke-linecap: round"/>
    </g>
    <g id="text_16">
     <text style="fill: #262626; font: 11px 'Arial', 'DejaVu Sans', 'Liberation Sans', 'Bitstream Vera Sans', sans-serif; text-anchor: start" x="106.149896" y="47.300767" transform="rotate(-0 106.149896 47.300767)">ET</text>
    </g>
    <g id="line2d_13">
     <path d="M 75.349896 59.596705 
L 86.349896 59.596705 
L 97.349896 59.596705 
" style="fill: none; stroke: #a4a031; stroke-width: 1.5; stroke-linecap: round"/>
    </g>
    <g id="text_17">
     <text style="fill: #262626; font: 11px 'Arial', 'DejaVu Sans', 'Liberation Sans', 'Bitstream Vera Sans', sans-serif; text-anchor: start" x="106.149896" y="63.446705" transform="rotate(-0 106.149896 63.446705)">IT</text>
    </g>
    <g id="line2d_14">
     <path d="M 75.349896 75.742642 
L 86.349896 75.742642 
L 97.349896 75.742642 
" style="fill: none; stroke: #50b131; stroke-width: 1.5; stroke-linecap: round"/>
    </g>
    <g id="text_18">
     <text style="fill: #262626; font: 11px 'Arial', 'DejaVu Sans', 'Liberation Sans', 'Bitstream Vera Sans', sans-serif; text-anchor: start" x="106.149896" y="79.592642" transform="rotate(-0 106.149896 79.592642)">Lamp5</text>
    </g>
    <g id="line2d_15">
     <path d="M 75.349896 91.88858 
L 86.349896 91.88858 
L 97.349896 91.88858 
" style="fill: none; stroke: #34ae91; stroke-width: 1.5; stroke-linecap: round"/>
    </g>
    <g id="text_19">
     <text style="fill: #262626; font: 11px 'Arial', 'DejaVu Sans', 'Liberation Sans', 'Bitstream Vera Sans', sans-serif; text-anchor: start" x="106.149896" y="95.73858" transform="rotate(-0 106.149896 95.73858)">NP</text>
    </g>
    <g id="line2d_16">
     <path d="M 75.349896 108.034517 
L 86.349896 108.034517 
L 97.349896 108.034517 
" style="fill: none; stroke: #37abb5; stroke-width: 1.5; stroke-linecap: round"/>
    </g>
    <g id="text_20">
     <text style="fill: #262626; font: 11px 'Arial', 'DejaVu Sans', 'Liberation Sans', 'Bitstream Vera Sans', sans-serif; text-anchor: start" x="106.149896" y="111.884517" transform="rotate(-0 106.149896 111.884517)">Pvalb</text>
    </g>
    <g id="line2d_17">
     <path d="M 75.349896 124.180455 
L 86.349896 124.180455 
L 97.349896 124.180455 
" style="fill: none; stroke: #3ba3ec; stroke-width: 1.5; stroke-linecap: round"/>
    </g>
    <g id="text_21">
     <text style="fill: #262626; font: 11px 'Arial', 'DejaVu Sans', 'Liberation Sans', 'Bitstream Vera Sans', sans-serif; text-anchor: start" x="106.149896" y="128.030455" transform="rotate(-0 106.149896 128.030455)">Sncg</text>
    </g>
    <g id="line2d_18">
     <path d="M 75.349896 140.326392 
L 86.349896 140.326392 
L 97.349896 140.326392 
" style="fill: none; stroke: #bb83f4; stroke-width: 1.5; stroke-linecap: round"/>
    </g>
    <g id="text_22">
     <text style="fill: #262626; font: 11px 'Arial', 'DejaVu Sans', 'Liberation Sans', 'Bitstream Vera Sans', sans-serif; text-anchor: start" x="106.149896" y="144.176392" transform="rotate(-0 106.149896 144.176392)">Sst</text>
    </g>
    <g id="line2d_19">
     <path d="M 75.349896 156.47233 
L 86.349896 156.47233 
L 97.349896 156.47233 
" style="fill: none; stroke: #f564d4; stroke-width: 1.5; stroke-linecap: round"/>
    </g>
    <g id="text_23">
     <text style="fill: #262626; font: 11px 'Arial', 'DejaVu Sans', 'Liberation Sans', 'Bitstream Vera Sans', sans-serif; text-anchor: start" x="106.149896" y="160.32233" transform="rotate(-0 106.149896 160.32233)">Vip</text>
    </g>
    <g id="line2d_20">
     <path d="M 75.349896 172.618267 
L 86.349896 172.618267 
L 97.349896 172.618267 
" style="fill: none; stroke: #000000; stroke-width: 6; stroke-linecap: round"/>
    </g>
    <g id="text_24">
     <text style="fill: #262626; font: 11px 'Arial', 'DejaVu Sans', 'Liberation Sans', 'Bitstream Vera Sans', sans-serif; text-anchor: start" x="106.149896" y="176.468267" transform="rotate(-0 106.149896 176.468267)">Cumulative</text>
    </g>
   </g>
  </g>
 </g>
 <defs>
  <clipPath id="p47a8837db2">
   <rect x="65.449896" y="12.896549" width="252.675" height="252.675"/>
  </clipPath>
 </defs>
</svg>
