<?xml version="1.0" encoding="utf-8" standalone="no"?>
<!DOCTYPE svg PUBLIC "-//W3C//DTD SVG 1.1//EN"
  "http://www.w3.org/Graphics/SVG/1.1/DTD/svg11.dtd">
<svg xmlns:xlink="http://www.w3.org/1999/xlink" width="99.09pt" height="133.7pt" viewBox="0 0 99.09 133.7" xmlns="http://www.w3.org/2000/svg" version="1.1">
 <metadata>
  <rdf:RDF xmlns:dc="http://purl.org/dc/elements/1.1/" xmlns:cc="http://creativecommons.org/ns#" xmlns:rdf="http://www.w3.org/1999/02/22-rdf-syntax-ns#">
   <cc:Work>
    <dc:type rdf:resource="http://purl.org/dc/dcmitype/StillImage"/>
    <dc:date>2023-08-18T19:57:21.692571</dc:date>
    <dc:format>image/svg+xml</dc:format>
    <dc:creator>
     <cc:Agent>
      <dc:title>Matplotlib v3.7.2, https://matplotlib.org/</dc:title>
     </cc:Agent>
    </dc:creator>
   </cc:Work>
  </rdf:RDF>
 </metadata>
 <defs>
  <style type="text/css">*{stroke-linejoin: round; stroke-linecap: butt}</style>
 </defs>
 <g id="figure_1">
  <g id="patch_1">
   <path d="M 0 133.7 
L 99.09 133.7 
L 99.09 0 
L 0 0 
z
" style="fill: #ffffff"/>
  </g>
  <g id="axes_1">
   <g id="legend_1">
    <g id="line2d_1">
     <path d="M 4.226719 9.524531 
L 15.226719 9.524531 
L 26.226719 9.524531 
" style="fill: none; stroke: #ffffff; stroke-width: 1.5; stroke-linecap: round"/>
     <defs>
      <path id="m265acbe53a" d="M -5 5 
L 5 5 
L 5 -5 
L -5 -5 
z
" style="stroke: #ffffff; stroke-linejoin: miter"/>
     </defs>
     <g>
      <use xlink:href="#m265acbe53a" x="15.226719" y="9.524531" style="fill: #0000ff; stroke: #ffffff; stroke-linejoin: miter"/>
     </g>
    </g>
    <g id="text_1">
     <text style="fill: #262626; font: 11px 'Arial', 'DejaVu Sans', 'Liberation Sans', 'Bitstream Vera Sans', sans-serif; text-anchor: start" x="35.026719" y="13.374531" transform="rotate(-0 35.026719 13.374531)">JAMIE</text>
    </g>
    <g id="line2d_2">
     <path d="M 4.226719 25.670469 
L 15.226719 25.670469 
L 26.226719 25.670469 
" style="fill: none; stroke: #ffffff; stroke-width: 1.5; stroke-linecap: round"/>
     <defs>
      <path id="md31c750993" d="M -5 5 
L 5 5 
L 5 -5 
L -5 -5 
z
" style="stroke: #ffffff; stroke-linejoin: miter"/>
     </defs>
     <g>
      <use xlink:href="#md31c750993" x="15.226719" y="25.670469" style="fill: #7cfc00; stroke: #ffffff; stroke-linejoin: miter"/>
     </g>
    </g>
    <g id="text_2">
     <text style="fill: #262626; font: 11px 'Arial', 'DejaVu Sans', 'Liberation Sans', 'Bitstream Vera Sans', sans-serif; text-anchor: start" x="35.026719" y="29.520469" transform="rotate(-0 35.026719 29.520469)">JAMIE (.75)</text>
    </g>
    <g id="line2d_3">
     <path d="M 4.226719 41.816406 
L 15.226719 41.816406 
L 26.226719 41.816406 
" style="fill: none; stroke: #ffffff; stroke-width: 1.5; stroke-linecap: round"/>
     <defs>
      <path id="m43a26b7052" d="M -5 5 
L 5 5 
L 5 -5 
L -5 -5 
z
" style="stroke: #ffffff; stroke-linejoin: miter"/>
     </defs>
     <g>
      <use xlink:href="#m43a26b7052" x="15.226719" y="41.816406" style="fill: #191970; stroke: #ffffff; stroke-linejoin: miter"/>
     </g>
    </g>
    <g id="text_3">
     <text style="fill: #262626; font: 11px 'Arial', 'DejaVu Sans', 'Liberation Sans', 'Bitstream Vera Sans', sans-serif; text-anchor: start" x="35.026719" y="45.666406" transform="rotate(-0 35.026719 45.666406)">JAMIE (.5)</text>
    </g>
    <g id="line2d_4">
     <path d="M 4.226719 57.962344 
L 15.226719 57.962344 
L 26.226719 57.962344 
" style="fill: none; stroke: #ffffff; stroke-width: 1.5; stroke-linecap: round"/>
     <defs>
      <path id="m490db490e9" d="M -5 5 
L 5 5 
L 5 -5 
L -5 -5 
z
" style="stroke: #ffffff; stroke-linejoin: miter"/>
     </defs>
     <g>
      <use xlink:href="#m490db490e9" x="15.226719" y="57.962344" style="fill: #ff0000; stroke: #ffffff; stroke-linejoin: miter"/>
     </g>
    </g>
    <g id="text_4">
     <text style="fill: #262626; font: 11px 'Arial', 'DejaVu Sans', 'Liberation Sans', 'Bitstream Vera Sans', sans-serif; text-anchor: start" x="35.026719" y="61.812344" transform="rotate(-0 35.026719 61.812344)">NLMA</text>
    </g>
    <g id="line2d_5">
     <path d="M 4.226719 74.108281 
L 15.226719 74.108281 
L 26.226719 74.108281 
" style="fill: none; stroke: #ffffff; stroke-width: 1.5; stroke-linecap: round"/>
     <defs>
      <path id="m4946ae9b58" d="M -5 5 
L 5 5 
L 5 -5 
L -5 -5 
z
" style="stroke: #ffffff; stroke-linejoin: miter"/>
     </defs>
     <g>
      <use xlink:href="#m4946ae9b58" x="15.226719" y="74.108281" style="fill: #ffa500; stroke: #ffffff; stroke-linejoin: miter"/>
     </g>
    </g>
    <g id="text_5">
     <text style="fill: #262626; font: 11px 'Arial', 'DejaVu Sans', 'Liberation Sans', 'Bitstream Vera Sans', sans-serif; text-anchor: start" x="35.026719" y="77.958281" transform="rotate(-0 35.026719 77.958281)">LMA</text>
    </g>
    <g id="line2d_6">
     <path d="M 4.226719 90.254219 
L 15.226719 90.254219 
L 26.226719 90.254219 
" style="fill: none; stroke: #ffffff; stroke-width: 1.5; stroke-linecap: round"/>
     <defs>
      <path id="mbcd7e64a22" d="M -5 5 
L 5 5 
L 5 -5 
L -5 -5 
z
" style="stroke: #ffffff; stroke-linejoin: miter"/>
     </defs>
     <g>
      <use xlink:href="#mbcd7e64a22" x="15.226719" y="90.254219" style="fill: #8172b3; stroke: #ffffff; stroke-linejoin: miter"/>
     </g>
    </g>
    <g id="text_6">
     <text style="fill: #262626; font: 11px 'Arial', 'DejaVu Sans', 'Liberation Sans', 'Bitstream Vera Sans', sans-serif; text-anchor: start" x="35.026719" y="94.104219" transform="rotate(-0 35.026719 94.104219)">CCA</text>
    </g>
    <g id="line2d_7">
     <path d="M 4.226719 106.400156 
L 15.226719 106.400156 
L 26.226719 106.400156 
" style="fill: none; stroke: #ffffff; stroke-width: 1.5; stroke-linecap: round"/>
     <defs>
      <path id="m2a61d7cba5" d="M -5 5 
L 5 5 
L 5 -5 
L -5 -5 
z
" style="stroke: #ffffff; stroke-linejoin: miter"/>
     </defs>
     <g>
      <use xlink:href="#m2a61d7cba5" x="15.226719" y="106.400156" style="fill: #00ffff; stroke: #ffffff; stroke-linejoin: miter"/>
     </g>
    </g>
    <g id="text_7">
     <text style="fill: #262626; font: 11px 'Arial', 'DejaVu Sans', 'Liberation Sans', 'Bitstream Vera Sans', sans-serif; text-anchor: start" x="35.026719" y="110.250156" transform="rotate(-0 35.026719 110.250156)">MMD-MA</text>
    </g>
    <g id="line2d_8">
     <path d="M 4.226719 122.546094 
L 15.226719 122.546094 
L 26.226719 122.546094 
" style="fill: none; stroke: #ffffff; stroke-width: 1.5; stroke-linecap: round"/>
     <defs>
      <path id="mb1bf14d2b6" d="M -5 5 
L 5 5 
L 5 -5 
L -5 -5 
z
" style="stroke: #ffffff; stroke-linejoin: miter"/>
     </defs>
     <g>
      <use xlink:href="#mb1bf14d2b6" x="15.226719" y="122.546094" style="fill: #008000; stroke: #ffffff; stroke-linejoin: miter"/>
     </g>
    </g>
    <g id="text_8">
     <text style="fill: #262626; font: 11px 'Arial', 'DejaVu Sans', 'Liberation Sans', 'Bitstream Vera Sans', sans-serif; text-anchor: start" x="35.026719" y="126.396094" transform="rotate(-0 35.026719 126.396094)">UnionCom</text>
    </g>
   </g>
  </g>
 </g>
</svg>
