<?xml version="1.0" encoding="utf-8" standalone="no"?>
<!DOCTYPE svg PUBLIC "-//W3C//DTD SVG 1.1//EN"
  "http://www.w3.org/Graphics/SVG/1.1/DTD/svg11.dtd">
<svg xmlns:xlink="http://www.w3.org/1999/xlink" width="337.247468pt" height="321.687679pt" viewBox="0 0 337.247468 321.687679" xmlns="http://www.w3.org/2000/svg" version="1.1">
 <metadata>
  <rdf:RDF xmlns:dc="http://purl.org/dc/elements/1.1/" xmlns:cc="http://creativecommons.org/ns#" xmlns:rdf="http://www.w3.org/1999/02/22-rdf-syntax-ns#">
   <cc:Work>
    <dc:type rdf:resource="http://purl.org/dc/dcmitype/StillImage"/>
    <dc:date>2023-08-22T00:36:10.986887</dc:date>
    <dc:format>image/svg+xml</dc:format>
    <dc:creator>
     <cc:Agent>
      <dc:title>Matplotlib v3.7.2, https://matplotlib.org/</dc:title>
     </cc:Agent>
    </dc:creator>
   </cc:Work>
  </rdf:RDF>
 </metadata>
 <defs>
  <style type="text/css">*{stroke-linejoin: round; stroke-linecap: butt}</style>
 </defs>
 <g id="figure_1">
  <g id="patch_1">
   <path d="M 0 321.687679 
L 337.247468 321.687679 
L 337.247468 0 
L 0 0 
z
" style="fill: #ffffff"/>
  </g>
  <g id="axes_1">
   <g id="patch_2">
    <path d="M 65.449896 265.571549 
L 318.124896 265.571549 
L 318.124896 12.896549 
L 65.449896 12.896549 
z
" style="fill: #ffffff"/>
   </g>
   <g id="matplotlib.axis_1">
    <g id="xtick_1">
     <g id="text_1">
      <text style="fill: #262626; font: 14.994px 'Arial', 'DejaVu Sans', 'Liberation Sans', 'Bitstream Vera Sans', sans-serif; text-anchor: middle" x="65.449896" y="286.464646" transform="rotate(-0 65.449896 286.464646)">0.0</text>
     </g>
    </g>
    <g id="xtick_2">
     <g id="text_2">
      <text style="fill: #262626; font: 14.994px 'Arial', 'DejaVu Sans', 'Liberation Sans', 'Bitstream Vera Sans', sans-serif; text-anchor: middle" x="115.984896" y="286.464646" transform="rotate(-0 115.984896 286.464646)">0.2</text>
     </g>
    </g>
    <g id="xtick_3">
     <g id="text_3">
      <text style="fill: #262626; font: 14.994px 'Arial', 'DejaVu Sans', 'Liberation Sans', 'Bitstream Vera Sans', sans-serif; text-anchor: middle" x="166.519896" y="286.464646" transform="rotate(-0 166.519896 286.464646)">0.4</text>
     </g>
    </g>
    <g id="xtick_4">
     <g id="text_4">
      <text style="fill: #262626; font: 14.994px 'Arial', 'DejaVu Sans', 'Liberation Sans', 'Bitstream Vera Sans', sans-serif; text-anchor: middle" x="217.054896" y="286.464646" transform="rotate(-0 217.054896 286.464646)">0.6</text>
     </g>
    </g>
    <g id="xtick_5">
     <g id="text_5">
      <text style="fill: #262626; font: 14.994px 'Arial', 'DejaVu Sans', 'Liberation Sans', 'Bitstream Vera Sans', sans-serif; text-anchor: middle" x="267.589896" y="286.464646" transform="rotate(-0 267.589896 286.464646)">0.8</text>
     </g>
    </g>
    <g id="xtick_6">
     <g id="text_6">
      <text style="fill: #262626; font: 14.994px 'Arial', 'DejaVu Sans', 'Liberation Sans', 'Bitstream Vera Sans', sans-serif; text-anchor: middle" x="318.124896" y="286.464646" transform="rotate(-0 318.124896 286.464646)">1.0</text>
     </g>
    </g>
    <g id="text_7">
     <text style="fill: #262626; font: 21.6px 'Arial', 'DejaVu Sans', 'Liberation Sans', 'Bitstream Vera Sans', sans-serif; text-anchor: middle" x="191.787396" y="309.995554" transform="rotate(-0 191.787396 309.995554)">Percentile</text>
    </g>
   </g>
   <g id="matplotlib.axis_2">
    <g id="ytick_1">
     <g id="text_8">
      <text style="fill: #262626; font: 14.994px 'Arial', 'DejaVu Sans', 'Liberation Sans', 'Bitstream Vera Sans', sans-serif; text-anchor: end" x="55.949896" y="271.268097" transform="rotate(-0 55.949896 271.268097)">0.0</text>
     </g>
    </g>
    <g id="ytick_2">
     <g id="text_9">
      <text style="fill: #262626; font: 14.994px 'Arial', 'DejaVu Sans', 'Liberation Sans', 'Bitstream Vera Sans', sans-serif; text-anchor: end" x="55.949896" y="220.733097" transform="rotate(-0 55.949896 220.733097)">0.2</text>
     </g>
    </g>
    <g id="ytick_3">
     <g id="text_10">
      <text style="fill: #262626; font: 14.994px 'Arial', 'DejaVu Sans', 'Liberation Sans', 'Bitstream Vera Sans', sans-serif; text-anchor: end" x="55.949896" y="170.198097" transform="rotate(-0 55.949896 170.198097)">0.4</text>
     </g>
    </g>
    <g id="ytick_4">
     <g id="text_11">
      <text style="fill: #262626; font: 14.994px 'Arial', 'DejaVu Sans', 'Liberation Sans', 'Bitstream Vera Sans', sans-serif; text-anchor: end" x="55.949896" y="119.663097" transform="rotate(-0 55.949896 119.663097)">0.6</text>
     </g>
    </g>
    <g id="ytick_5">
     <g id="text_12">
      <text style="fill: #262626; font: 14.994px 'Arial', 'DejaVu Sans', 'Liberation Sans', 'Bitstream Vera Sans', sans-serif; text-anchor: end" x="55.949896" y="69.128097" transform="rotate(-0 55.949896 69.128097)">0.8</text>
     </g>
    </g>
    <g id="ytick_6">
     <g id="text_13">
      <text style="fill: #262626; font: 14.994px 'Arial', 'DejaVu Sans', 'Liberation Sans', 'Bitstream Vera Sans', sans-serif; text-anchor: end" x="55.949896" y="18.593097" transform="rotate(-0 55.949896 18.593097)">1.0</text>
     </g>
    </g>
    <g id="text_14">
     <text style="fill: #262626; font: 21.6px 'Arial', 'DejaVu Sans', 'Liberation Sans', 'Bitstream Vera Sans', sans-serif; text-anchor: middle" x="23.612625" y="139.234049" transform="rotate(-90 23.612625 139.234049)">Electrophysiology Similarity</text>
    </g>
   </g>
   <g id="line2d_1">
    <path d="M 65.449896 209.986135 
L 72.099238 192.509434 
L 78.74858 179.490752 
L 85.397922 175.234733 
L 92.047264 167.478398 
L 98.696606 161.712041 
L 105.345948 160.914981 
L 111.99529 157.850816 
L 118.644632 155.089659 
L 125.293975 153.144403 
L 131.943317 152.728778 
L 138.592659 151.032196 
L 145.242001 148.931473 
L 151.891343 148.583658 
L 158.540685 147.162433 
L 165.190027 147.042768 
L 171.839369 146.861771 
L 178.488711 146.741929 
L 185.138054 146.369977 
L 191.787396 146.085735 
L 198.436738 146.067457 
L 205.08608 144.072303 
L 211.735422 142.906898 
L 218.384764 135.852199 
L 225.034106 135.13641 
L 231.683448 133.765166 
L 238.33279 133.628549 
L 244.982132 133.628549 
L 251.631475 132.731272 
L 258.280817 130.954442 
L 264.930159 130.012509 
L 271.579501 129.907401 
L 278.228843 129.883373 
L 284.878185 129.653371 
L 291.527527 127.090483 
L 298.176869 125.813271 
L 304.826211 125.175993 
L 311.475554 107.628138 
L 318.124896 87.265986 
" clip-path="url(#pcc1fb602ae)" style="fill: none; stroke: #f77189; stroke-width: 1.5; stroke-linecap: round"/>
   </g>
   <g id="line2d_2">
    <path d="M 65.449896 209.055249 
L 72.099238 200.977428 
L 78.74858 188.67121 
L 85.397922 169.559087 
L 92.047264 167.673202 
L 98.696606 164.901026 
L 105.345948 164.747301 
L 111.99529 164.116382 
L 118.644632 164.003337 
L 125.293975 164.003337 
L 131.943317 161.918775 
L 138.592659 160.20493 
L 145.242001 158.653108 
L 151.891343 158.553466 
L 158.540685 155.016559 
L 165.190027 154.241374 
L 171.839369 153.772139 
L 178.488711 153.605156 
L 185.138054 152.322603 
L 191.787396 149.172945 
L 198.436738 145.624921 
L 205.08608 144.060557 
L 211.735422 143.424101 
L 218.384764 141.850134 
L 225.034106 141.843737 
L 231.683448 140.451345 
L 238.33279 137.993162 
L 244.982132 137.637639 
L 251.631475 136.609109 
L 258.280817 136.043342 
L 264.930159 133.973348 
L 271.579501 127.781132 
L 278.228843 120.332008 
L 284.878185 118.889225 
L 291.527527 118.889225 
L 298.176869 118.744785 
L 304.826211 118.409143 
L 311.475554 117.842992 
L 318.124896 111.610262 
" clip-path="url(#pcc1fb602ae)" style="fill: none; stroke: #bb9832; stroke-width: 1.5; stroke-linecap: round"/>
   </g>
   <g id="line2d_3">
    <path d="M 65.449896 223.262285 
L 72.099238 223.262285 
L 78.74858 223.262285 
L 85.397922 223.262285 
L 92.047264 222.209125 
L 98.696606 215.830433 
L 105.345948 211.654836 
L 111.99529 208.927461 
L 118.644632 204.921436 
L 125.293975 199.684018 
L 131.943317 199.592067 
L 138.592659 198.063594 
L 145.242001 194.913546 
L 151.891343 194.770262 
L 158.540685 189.815178 
L 165.190027 186.931053 
L 171.839369 186.268239 
L 178.488711 185.992294 
L 185.138054 185.992294 
L 191.787396 183.82362 
L 198.436738 180.220898 
L 205.08608 175.151531 
L 211.735422 174.267972 
L 218.384764 172.58479 
L 225.034106 166.542664 
L 231.683448 166.242204 
L 238.33279 166.075634 
L 244.982132 165.620675 
L 251.631475 165.544991 
L 258.280817 165.544991 
L 264.930159 163.071793 
L 271.579501 161.922252 
L 278.228843 160.503056 
L 284.878185 154.935451 
L 291.527527 153.66345 
L 298.176869 151.330021 
L 304.826211 123.579608 
L 311.475554 117.699918 
L 318.124896 111.724094 
" clip-path="url(#pcc1fb602ae)" style="fill: none; stroke: #50b131; stroke-width: 1.5; stroke-linecap: round"/>
   </g>
   <g id="line2d_4">
    <path d="M 65.449896 201.425055 
L 72.099238 200.793435 
L 78.74858 199.806891 
L 85.397922 188.160599 
L 92.047264 186.158502 
L 98.696606 181.479296 
L 105.345948 180.990454 
L 111.99529 178.220253 
L 118.644632 176.524973 
L 125.293975 161.363808 
L 131.943317 160.718817 
L 138.592659 160.205776 
L 145.242001 160.097441 
L 151.891343 156.735237 
L 158.540685 151.951145 
L 165.190027 148.460024 
L 171.839369 144.284015 
L 178.488711 142.460242 
L 185.138054 140.867624 
L 191.787396 140.703419 
L 198.436738 139.752315 
L 205.08608 139.241379 
L 211.735422 139.241379 
L 218.384764 139.093453 
L 225.034106 136.805149 
L 231.683448 136.177151 
L 238.33279 135.928807 
L 244.982132 133.964535 
L 251.631475 126.662408 
L 258.280817 126.503976 
L 264.930159 125.825869 
L 271.579501 123.090122 
L 278.228843 123.068112 
L 284.878185 122.958359 
L 291.527527 122.058587 
L 298.176869 121.1884 
L 304.826211 114.556718 
L 311.475554 113.120109 
L 318.124896 100.094169 
" clip-path="url(#pcc1fb602ae)" style="fill: none; stroke: #36ada4; stroke-width: 1.5; stroke-linecap: round"/>
   </g>
   <g id="line2d_5">
    <path d="M 65.449896 195.652891 
L 72.099238 187.882517 
L 78.74858 184.654586 
L 85.397922 165.629547 
L 92.047264 163.937149 
L 98.696606 158.59852 
L 105.345948 156.990153 
L 111.99529 153.023562 
L 118.644632 150.217022 
L 125.293975 146.608064 
L 131.943317 136.513484 
L 138.592659 133.194193 
L 145.242001 130.92515 
L 151.891343 129.303347 
L 158.540685 127.730381 
L 165.190027 127.193142 
L 171.839369 127.193142 
L 178.488711 127.060815 
L 185.138054 120.682022 
L 191.787396 119.197167 
L 198.436738 118.544736 
L 205.08608 118.493735 
L 211.735422 117.748894 
L 218.384764 115.572209 
L 225.034106 115.296198 
L 231.683448 111.968016 
L 238.33279 111.513542 
L 244.982132 111.132705 
L 251.631475 108.431084 
L 258.280817 106.081006 
L 264.930159 104.309574 
L 271.579501 103.465371 
L 278.228843 103.357824 
L 284.878185 103.357824 
L 291.527527 102.482944 
L 298.176869 99.363119 
L 304.826211 95.551368 
L 311.475554 86.446173 
L 318.124896 78.539631 
" clip-path="url(#pcc1fb602ae)" style="fill: none; stroke: #3ba3ec; stroke-width: 1.5; stroke-linecap: round"/>
   </g>
   <g id="line2d_6">
    <path d="M 65.449896 193.229378 
L 72.099238 190.172326 
L 78.74858 189.813854 
L 85.397922 184.103778 
L 92.047264 182.715348 
L 98.696606 170.34415 
L 105.345948 166.588271 
L 111.99529 164.328474 
L 118.644632 159.782656 
L 125.293975 156.719179 
L 131.943317 154.501881 
L 138.592659 154.255172 
L 145.242001 153.602829 
L 151.891343 153.297683 
L 158.540685 150.98414 
L 165.190027 150.349995 
L 171.839369 142.365411 
L 178.488711 140.905951 
L 185.138054 132.326328 
L 191.787396 131.518715 
L 198.436738 128.486513 
L 205.08608 128.103907 
L 211.735422 127.967054 
L 218.384764 127.960789 
L 225.034106 125.783313 
L 231.683448 124.094555 
L 238.33279 121.991147 
L 244.982132 121.533532 
L 251.631475 120.905183 
L 258.280817 120.434686 
L 264.930159 119.966984 
L 271.579501 119.836083 
L 278.228843 119.392887 
L 284.878185 117.396942 
L 291.527527 116.581796 
L 298.176869 116.53662 
L 304.826211 114.405778 
L 311.475554 112.613647 
L 318.124896 103.924172 
" clip-path="url(#pcc1fb602ae)" style="fill: none; stroke: #e866f4; stroke-width: 1.5; stroke-linecap: round"/>
   </g>
   <g id="line2d_7">
    <path d="M 65.449896 202.252688 
L 72.099238 189.713117 
L 78.74858 186.262692 
L 85.397922 177.239937 
L 92.047264 177.022488 
L 98.696606 173.712979 
L 105.345948 170.404217 
L 111.99529 165.195317 
L 118.644632 162.504507 
L 125.293975 160.04994 
L 131.943317 159.943764 
L 138.592659 158.913649 
L 145.242001 156.400526 
L 151.891343 156.239027 
L 158.540685 152.93164 
L 165.190027 152.125962 
L 171.839369 150.520186 
L 178.488711 150.075996 
L 185.138054 146.118185 
L 191.787396 145.180062 
L 198.436738 142.758358 
L 205.08608 138.15601 
L 211.735422 135.604252 
L 218.384764 134.77765 
L 225.034106 134.623703 
L 231.683448 134.157529 
L 238.33279 132.717799 
L 244.982132 131.600336 
L 251.631475 131.465559 
L 258.280817 131.43817 
L 264.930159 131.437126 
L 271.579501 130.271733 
L 278.228843 130.262235 
L 284.878185 129.640912 
L 291.527527 128.895544 
L 298.176869 128.55372 
L 304.826211 127.214339 
L 311.475554 124.704232 
L 318.124896 123.309105 
" clip-path="url(#pcc1fb602ae)" style="fill: none; stroke: #000000; stroke-width: 6; stroke-linecap: round"/>
   </g>
   <g id="patch_3">
    <path d="M 65.449896 265.571549 
L 65.449896 12.896549 
" style="fill: none; stroke: #262626; stroke-width: 1.25; stroke-linejoin: miter; stroke-linecap: square"/>
   </g>
   <g id="patch_4">
    <path d="M 65.449896 265.571549 
L 318.124896 265.571549 
" style="fill: none; stroke: #262626; stroke-width: 1.25; stroke-linejoin: miter; stroke-linecap: square"/>
   </g>
   <g id="legend_1">
    <g id="patch_5">
     <path d="M 73.149896 134.718111 
L 171.132396 134.718111 
Q 173.332396 134.718111 173.332396 132.518111 
L 173.332396 20.596549 
Q 173.332396 18.396549 171.132396 18.396549 
L 73.149896 18.396549 
Q 70.949896 18.396549 70.949896 20.596549 
L 70.949896 132.518111 
Q 70.949896 134.718111 73.149896 134.718111 
z
" style="fill: #ffffff; opacity: 0.8; stroke: #cccccc; stroke-linejoin: miter"/>
    </g>
    <g id="line2d_8">
     <path d="M 75.349896 27.30483 
L 86.349896 27.30483 
L 97.349896 27.30483 
" style="fill: none; stroke: #f77189; stroke-width: 1.5; stroke-linecap: round"/>
    </g>
    <g id="text_15">
     <text style="fill: #262626; font: 11px 'Arial', 'DejaVu Sans', 'Liberation Sans', 'Bitstream Vera Sans', sans-serif; text-anchor: start" x="106.149896" y="31.15483" transform="rotate(-0 106.149896 31.15483)">Lamp5</text>
    </g>
    <g id="line2d_9">
     <path d="M 75.349896 43.450767 
L 86.349896 43.450767 
L 97.349896 43.450767 
" style="fill: none; stroke: #bb9832; stroke-width: 1.5; stroke-linecap: round"/>
    </g>
    <g id="text_16">
     <text style="fill: #262626; font: 11px 'Arial', 'DejaVu Sans', 'Liberation Sans', 'Bitstream Vera Sans', sans-serif; text-anchor: start" x="106.149896" y="47.300767" transform="rotate(-0 106.149896 47.300767)">Pvalb</text>
    </g>
    <g id="line2d_10">
     <path d="M 75.349896 59.596705 
L 86.349896 59.596705 
L 97.349896 59.596705 
" style="fill: none; stroke: #50b131; stroke-width: 1.5; stroke-linecap: round"/>
    </g>
    <g id="text_17">
     <text style="fill: #262626; font: 11px 'Arial', 'DejaVu Sans', 'Liberation Sans', 'Bitstream Vera Sans', sans-serif; text-anchor: start" x="106.149896" y="63.446705" transform="rotate(-0 106.149896 63.446705)">Serpinf1</text>
    </g>
    <g id="line2d_11">
     <path d="M 75.349896 75.742642 
L 86.349896 75.742642 
L 97.349896 75.742642 
" style="fill: none; stroke: #36ada4; stroke-width: 1.5; stroke-linecap: round"/>
    </g>
    <g id="text_18">
     <text style="fill: #262626; font: 11px 'Arial', 'DejaVu Sans', 'Liberation Sans', 'Bitstream Vera Sans', sans-serif; text-anchor: start" x="106.149896" y="79.592642" transform="rotate(-0 106.149896 79.592642)">Sncg</text>
    </g>
    <g id="line2d_12">
     <path d="M 75.349896 91.88858 
L 86.349896 91.88858 
L 97.349896 91.88858 
" style="fill: none; stroke: #3ba3ec; stroke-width: 1.5; stroke-linecap: round"/>
    </g>
    <g id="text_19">
     <text style="fill: #262626; font: 11px 'Arial', 'DejaVu Sans', 'Liberation Sans', 'Bitstream Vera Sans', sans-serif; text-anchor: start" x="106.149896" y="95.73858" transform="rotate(-0 106.149896 95.73858)">Sst</text>
    </g>
    <g id="line2d_13">
     <path d="M 75.349896 108.034517 
L 86.349896 108.034517 
L 97.349896 108.034517 
" style="fill: none; stroke: #e866f4; stroke-width: 1.5; stroke-linecap: round"/>
    </g>
    <g id="text_20">
     <text style="fill: #262626; font: 11px 'Arial', 'DejaVu Sans', 'Liberation Sans', 'Bitstream Vera Sans', sans-serif; text-anchor: start" x="106.149896" y="111.884517" transform="rotate(-0 106.149896 111.884517)">Vip</text>
    </g>
    <g id="line2d_14">
     <path d="M 75.349896 124.180455 
L 86.349896 124.180455 
L 97.349896 124.180455 
" style="fill: none; stroke: #000000; stroke-width: 6; stroke-linecap: round"/>
    </g>
    <g id="text_21">
     <text style="fill: #262626; font: 11px 'Arial', 'DejaVu Sans', 'Liberation Sans', 'Bitstream Vera Sans', sans-serif; text-anchor: start" x="106.149896" y="128.030455" transform="rotate(-0 106.149896 128.030455)">Cumulative</text>
    </g>
   </g>
  </g>
 </g>
 <defs>
  <clipPath id="pcc1fb602ae">
   <rect x="65.449896" y="12.896549" width="252.675" height="252.675"/>
  </clipPath>
 </defs>
</svg>
