<?xml version="1.0" encoding="utf-8" standalone="no"?>
<!DOCTYPE svg PUBLIC "-//W3C//DTD SVG 1.1//EN"
  "http://www.w3.org/Graphics/SVG/1.1/DTD/svg11.dtd">
<svg height="339.780381pt" version="1.1" viewBox="0 0 337.247468 339.780381" width="337.247468pt" xmlns="http://www.w3.org/2000/svg" xmlns:xlink="http://www.w3.org/1999/xlink">
 <metadata>
  <rdf:RDF xmlns:cc="http://creativecommons.org/ns#" xmlns:dc="http://purl.org/dc/elements/1.1/" xmlns:rdf="http://www.w3.org/1999/02/22-rdf-syntax-ns#">
   <cc:Work>
    <dc:type rdf:resource="http://purl.org/dc/dcmitype/StillImage"/>
    <dc:date>2023-04-27T17:32:07.102391</dc:date>
    <dc:format>image/svg+xml</dc:format>
    <dc:creator>
     <cc:Agent>
      <dc:title>Matplotlib v3.4.3, https://matplotlib.org/</dc:title>
     </cc:Agent>
    </dc:creator>
   </cc:Work>
  </rdf:RDF>
 </metadata>
 <defs>
  <style type="text/css">*{stroke-linecap:butt;stroke-linejoin:round;}</style>
 </defs>
 <g id="figure_1">
  <g id="patch_1">
   <path d="M 0 339.780381 
L 337.247468 339.780381 
L 337.247468 0 
L 0 0 
z
" style="fill:#ffffff;"/>
  </g>
  <g id="axes_1">
   <g id="patch_2">
    <path d="M 65.449896 283.66425 
L 318.124896 283.66425 
L 318.124896 30.98925 
L 65.449896 30.98925 
z
" style="fill:#ffffff;"/>
   </g>
   <g id="matplotlib.axis_1">
    <g id="xtick_1">
     <g id="text_1">
      <text style="fill:#262626;font-family:DejaVu Sans;font-size:14.994px;font-stretch:normal;font-style:normal;font-weight:normal;text-anchor:middle;" transform="rotate(-0, 65.449896, 304.557347)" x="65.449896" y="304.557347">0.0</text>
     </g>
    </g>
    <g id="xtick_2">
     <g id="text_2">
      <text style="fill:#262626;font-family:DejaVu Sans;font-size:14.994px;font-stretch:normal;font-style:normal;font-weight:normal;text-anchor:middle;" transform="rotate(-0, 115.984896, 304.557347)" x="115.984896" y="304.557347">0.2</text>
     </g>
    </g>
    <g id="xtick_3">
     <g id="text_3">
      <text style="fill:#262626;font-family:DejaVu Sans;font-size:14.994px;font-stretch:normal;font-style:normal;font-weight:normal;text-anchor:middle;" transform="rotate(-0, 166.519896, 304.557347)" x="166.519896" y="304.557347">0.4</text>
     </g>
    </g>
    <g id="xtick_4">
     <g id="text_4">
      <text style="fill:#262626;font-family:DejaVu Sans;font-size:14.994px;font-stretch:normal;font-style:normal;font-weight:normal;text-anchor:middle;" transform="rotate(-0, 217.054896, 304.557347)" x="217.054896" y="304.557347">0.6</text>
     </g>
    </g>
    <g id="xtick_5">
     <g id="text_5">
      <text style="fill:#262626;font-family:DejaVu Sans;font-size:14.994px;font-stretch:normal;font-style:normal;font-weight:normal;text-anchor:middle;" transform="rotate(-0, 267.589896, 304.557347)" x="267.589896" y="304.557347">0.8</text>
     </g>
    </g>
    <g id="xtick_6">
     <g id="text_6">
      <text style="fill:#262626;font-family:DejaVu Sans;font-size:14.994px;font-stretch:normal;font-style:normal;font-weight:normal;text-anchor:middle;" transform="rotate(-0, 318.124896, 304.557347)" x="318.124896" y="304.557347">1.0</text>
     </g>
    </g>
    <g id="text_7">
     <text style="fill:#262626;font-family:DejaVu Sans;font-size:21.6px;font-stretch:normal;font-style:normal;font-weight:normal;text-anchor:middle;" transform="rotate(-0, 191.787396, 328.088256)" x="191.787396" y="328.088256">Percentile</text>
    </g>
   </g>
   <g id="matplotlib.axis_2">
    <g id="ytick_1">
     <g id="text_8">
      <text style="fill:#262626;font-family:DejaVu Sans;font-size:14.994px;font-stretch:normal;font-style:normal;font-weight:normal;text-anchor:end;" transform="rotate(-0, 55.949896, 289.360799)" x="55.949896" y="289.360799">0.0</text>
     </g>
    </g>
    <g id="ytick_2">
     <g id="text_9">
      <text style="fill:#262626;font-family:DejaVu Sans;font-size:14.994px;font-stretch:normal;font-style:normal;font-weight:normal;text-anchor:end;" transform="rotate(-0, 55.949896, 238.825799)" x="55.949896" y="238.825799">0.2</text>
     </g>
    </g>
    <g id="ytick_3">
     <g id="text_10">
      <text style="fill:#262626;font-family:DejaVu Sans;font-size:14.994px;font-stretch:normal;font-style:normal;font-weight:normal;text-anchor:end;" transform="rotate(-0, 55.949896, 188.290799)" x="55.949896" y="188.290799">0.4</text>
     </g>
    </g>
    <g id="ytick_4">
     <g id="text_11">
      <text style="fill:#262626;font-family:DejaVu Sans;font-size:14.994px;font-stretch:normal;font-style:normal;font-weight:normal;text-anchor:end;" transform="rotate(-0, 55.949896, 137.755799)" x="55.949896" y="137.755799">0.6</text>
     </g>
    </g>
    <g id="ytick_5">
     <g id="text_12">
      <text style="fill:#262626;font-family:DejaVu Sans;font-size:14.994px;font-stretch:normal;font-style:normal;font-weight:normal;text-anchor:end;" transform="rotate(-0, 55.949896, 87.220799)" x="55.949896" y="87.220799">0.8</text>
     </g>
    </g>
    <g id="ytick_6">
     <g id="text_13">
      <text style="fill:#262626;font-family:DejaVu Sans;font-size:14.994px;font-stretch:normal;font-style:normal;font-weight:normal;text-anchor:end;" transform="rotate(-0, 55.949896, 36.685799)" x="55.949896" y="36.685799">1.0</text>
     </g>
    </g>
    <g id="text_14">
     <text style="fill:#262626;font-family:DejaVu Sans;font-size:21.6px;font-stretch:normal;font-style:normal;font-weight:normal;text-anchor:middle;" transform="rotate(-90, 23.612625, 157.32675)" x="23.612625" y="157.32675">Electrophysiology Similarity</text>
    </g>
   </g>
   <g id="line2d_1">
    <path clip-path="url(#p14d823c46f)" d="M 65.449896 216.31638 
L 72.099238 204.204304 
L 78.74858 197.028324 
L 85.397922 192.802975 
L 92.047264 184.11484 
L 98.696606 183.912143 
L 105.345948 178.395226 
L 111.99529 177.74058 
L 118.644632 176.043138 
L 125.293975 175.974237 
L 131.943317 175.298349 
L 138.592659 173.042177 
L 145.242001 169.238655 
L 151.891343 169.233971 
L 158.540685 168.620837 
L 165.190027 166.411916 
L 171.839369 164.846064 
L 178.488711 160.635837 
L 185.138054 159.597232 
L 191.787396 158.765136 
L 198.436738 158.005159 
L 205.08608 157.234853 
L 211.735422 156.344649 
L 218.384764 155.900834 
L 225.034106 150.949012 
L 231.683448 150.08408 
L 238.33279 150.08408 
L 244.982132 149.950058 
L 251.631475 149.10462 
L 258.280817 148.623341 
L 264.930159 147.833182 
L 271.579501 147.585371 
L 278.228843 146.467087 
L 284.878185 145.284819 
L 291.527527 144.796374 
L 298.176869 144.209587 
L 304.826211 143.320361 
L 311.475554 140.235571 
L 318.124896 137.225606 
" style="fill:none;stroke:#f77189;stroke-linecap:round;stroke-width:1.5;"/>
   </g>
   <g id="line2d_2">
    <path clip-path="url(#p14d823c46f)" d="M 65.449896 227.965655 
L 72.099238 210.415194 
L 78.74858 206.015899 
L 85.397922 196.614017 
L 92.047264 192.254242 
L 98.696606 187.058521 
L 105.345948 186.665414 
L 111.99529 185.901885 
L 118.644632 185.531242 
L 125.293975 183.010979 
L 131.943317 179.283395 
L 138.592659 177.293548 
L 145.242001 177.045408 
L 151.891343 176.863263 
L 158.540685 175.95104 
L 165.190027 175.763247 
L 171.839369 172.14135 
L 178.488711 171.476497 
L 185.138054 167.282676 
L 191.787396 163.285409 
L 198.436738 162.887058 
L 205.08608 160.152461 
L 211.735422 157.631869 
L 218.384764 157.179754 
L 225.034106 155.419802 
L 231.683448 154.86987 
L 238.33279 153.732955 
L 244.982132 153.003194 
L 251.631475 152.480021 
L 258.280817 151.410908 
L 264.930159 148.074404 
L 271.579501 146.517382 
L 278.228843 138.585219 
L 284.878185 135.493975 
L 291.527527 135.224186 
L 298.176869 135.192431 
L 304.826211 135.192431 
L 311.475554 134.598633 
L 318.124896 134.288318 
" style="fill:none;stroke:#bb9832;stroke-linecap:round;stroke-width:1.5;"/>
   </g>
   <g id="line2d_3">
    <path clip-path="url(#p14d823c46f)" d="M 65.449896 241.354986 
L 72.099238 241.354986 
L 78.74858 241.354986 
L 85.397922 236.11541 
L 92.047264 233.316723 
L 98.696606 230.238495 
L 105.345948 228.586931 
L 111.99529 225.55248 
L 118.644632 225.252126 
L 125.293975 221.43906 
L 131.943317 221.436561 
L 138.592659 220.847036 
L 145.242001 215.697431 
L 151.891343 215.519001 
L 158.540685 210.841121 
L 165.190027 210.509801 
L 171.839369 210.016164 
L 178.488711 205.055347 
L 185.138054 205.055347 
L 191.787396 202.24784 
L 198.436738 196.725212 
L 205.08608 195.847089 
L 211.735422 195.832249 
L 218.384764 190.082497 
L 225.034106 188.637569 
L 231.683448 187.503068 
L 238.33279 186.186453 
L 244.982132 185.770545 
L 251.631475 179.725042 
L 258.280817 178.692067 
L 264.930159 178.607705 
L 271.579501 178.607705 
L 278.228843 176.18542 
L 284.878185 168.546174 
L 291.527527 166.679372 
L 298.176869 157.065127 
L 304.826211 132.479564 
L 311.475554 131.141709 
L 318.124896 126.408074 
" style="fill:none;stroke:#50b131;stroke-linecap:round;stroke-width:1.5;"/>
   </g>
   <g id="line2d_4">
    <path clip-path="url(#p14d823c46f)" d="M 65.449896 218.170329 
L 72.099238 210.885264 
L 78.74858 210.815057 
L 85.397922 204.55448 
L 92.047264 204.276156 
L 98.696606 198.961147 
L 105.345948 197.623806 
L 111.99529 196.341785 
L 118.644632 195.565607 
L 125.293975 179.552356 
L 131.943317 176.440229 
L 138.592659 175.58305 
L 145.242001 175.58305 
L 151.891343 168.685915 
L 158.540685 167.966333 
L 165.190027 166.836936 
L 171.839369 166.139592 
L 178.488711 166.133232 
L 185.138054 158.505796 
L 191.787396 156.587475 
L 198.436738 156.587475 
L 205.08608 156.412617 
L 211.735422 156.001244 
L 218.384764 154.963385 
L 225.034106 152.588715 
L 231.683448 151.563456 
L 238.33279 150.955091 
L 244.982132 146.926624 
L 251.631475 144.623475 
L 258.280817 143.654062 
L 264.930159 143.601425 
L 271.579501 143.060163 
L 278.228843 143.002624 
L 284.878185 141.635947 
L 291.527527 139.733712 
L 298.176869 134.661076 
L 304.826211 132.882476 
L 311.475554 130.970548 
L 318.124896 120.603087 
" style="fill:none;stroke:#36ada4;stroke-linecap:round;stroke-width:1.5;"/>
   </g>
   <g id="line2d_5">
    <path clip-path="url(#p14d823c46f)" d="M 65.449896 213.862418 
L 72.099238 208.756871 
L 78.74858 190.915316 
L 85.397922 182.852618 
L 92.047264 180.6341 
L 98.696606 174.919454 
L 105.345948 173.817362 
L 111.99529 164.042984 
L 118.644632 162.410679 
L 125.293975 157.891246 
L 131.943317 147.418971 
L 138.592659 146.930775 
L 145.242001 146.873352 
L 151.891343 146.794724 
L 158.540685 141.857803 
L 165.190027 141.674588 
L 171.839369 141.2173 
L 178.488711 141.151651 
L 185.138054 140.594171 
L 191.787396 140.3563 
L 198.436738 139.314458 
L 205.08608 137.409632 
L 211.735422 137.158011 
L 218.384764 136.94446 
L 225.034106 136.842325 
L 231.683448 136.58874 
L 238.33279 136.185093 
L 244.982132 135.045197 
L 251.631475 134.871974 
L 258.280817 130.727177 
L 264.930159 130.290008 
L 271.579501 130.288953 
L 278.228843 130.261822 
L 284.878185 129.207414 
L 291.527527 127.521228 
L 298.176869 127.424241 
L 304.826211 118.866508 
L 311.475554 111.772972 
L 318.124896 96.07214 
" style="fill:none;stroke:#3ba3ec;stroke-linecap:round;stroke-width:1.5;"/>
   </g>
   <g id="line2d_6">
    <path clip-path="url(#p14d823c46f)" d="M 65.449896 214.155132 
L 72.099238 210.215596 
L 78.74858 204.245384 
L 85.397922 200.340356 
L 92.047264 191.992917 
L 98.696606 190.174308 
L 105.345948 187.91411 
L 111.99529 186.849305 
L 118.644632 178.195659 
L 125.293975 176.197941 
L 131.943317 171.47824 
L 138.592659 167.570369 
L 145.242001 167.032757 
L 151.891343 165.701045 
L 158.540685 165.659479 
L 165.190027 161.232575 
L 171.839369 160.500673 
L 178.488711 154.999833 
L 185.138054 152.944572 
L 191.787396 151.824434 
L 198.436738 150.537252 
L 205.08608 150.491764 
L 211.735422 149.141917 
L 218.384764 145.553232 
L 225.034106 144.243003 
L 231.683448 144.243003 
L 238.33279 144.044491 
L 244.982132 143.604835 
L 251.631475 143.420609 
L 258.280817 141.306252 
L 264.930159 141.107695 
L 271.579501 141.096189 
L 278.228843 140.851885 
L 284.878185 139.289712 
L 291.527527 139.031517 
L 298.176869 136.231206 
L 304.826211 130.557 
L 311.475554 124.460982 
L 318.124896 113.180313 
" style="fill:none;stroke:#e866f4;stroke-linecap:round;stroke-width:1.5;"/>
   </g>
   <g id="line2d_7">
    <path clip-path="url(#p14d823c46f)" d="M 65.449896 219.078875 
L 72.099238 206.41607 
L 78.74858 201.25673 
L 85.397922 195.869924 
L 92.047264 195.316621 
L 98.696606 186.292444 
L 105.345948 185.696053 
L 111.99529 184.650645 
L 118.644632 183.599975 
L 125.293975 180.60261 
L 131.943317 174.400348 
L 138.592659 173.611852 
L 145.242001 172.915461 
L 151.891343 171.574932 
L 158.540685 171.565179 
L 165.190027 169.722133 
L 171.839369 166.874684 
L 178.488711 164.611625 
L 185.138054 163.637258 
L 191.787396 160.956738 
L 198.436738 160.164934 
L 205.08608 159.711324 
L 211.735422 155.936347 
L 218.384764 155.757546 
L 225.034106 155.347895 
L 231.683448 154.779527 
L 238.33279 153.50299 
L 244.982132 153.151321 
L 251.631475 153.133826 
L 258.280817 150.781185 
L 264.930159 149.16745 
L 271.579501 149.162752 
L 278.228843 149.028786 
L 284.878185 148.086323 
L 291.527527 147.591797 
L 298.176869 146.018534 
L 304.826211 144.62045 
L 311.475554 142.220366 
L 318.124896 140.977583 
" style="fill:none;stroke:#000000;stroke-linecap:round;stroke-width:6;"/>
   </g>
   <g id="patch_3">
    <path d="M 65.449896 283.66425 
L 65.449896 30.98925 
" style="fill:none;stroke:#262626;stroke-linecap:square;stroke-linejoin:miter;stroke-width:1.25;"/>
   </g>
   <g id="patch_4">
    <path d="M 65.449896 283.66425 
L 318.124896 283.66425 
" style="fill:none;stroke:#262626;stroke-linecap:square;stroke-linejoin:miter;stroke-width:1.25;"/>
   </g>
   <g id="legend_1">
    <g id="patch_5">
     <path d="M 73.149896 152.810812 
L 171.132396 152.810812 
Q 173.332396 152.810812 173.332396 150.610812 
L 173.332396 38.68925 
Q 173.332396 36.48925 171.132396 36.48925 
L 73.149896 36.48925 
Q 70.949896 36.48925 70.949896 38.68925 
L 70.949896 150.610812 
Q 70.949896 152.810812 73.149896 152.810812 
z
" style="fill:#ffffff;opacity:0.8;stroke:#cccccc;stroke-linejoin:miter;"/>
    </g>
    <g id="line2d_8">
     <path d="M 75.349896 45.397531 
L 97.349896 45.397531 
" style="fill:none;stroke:#f77189;stroke-linecap:round;stroke-width:1.5;"/>
    </g>
    <g id="line2d_9"/>
    <g id="text_15">
     <text style="fill:#262626;font-family:DejaVu Sans;font-size:11px;font-stretch:normal;font-style:normal;font-weight:normal;text-anchor:start;" transform="rotate(-0, 106.149896, 49.247531)" x="106.149896" y="49.247531">Lamp5</text>
    </g>
    <g id="line2d_10">
     <path d="M 75.349896 61.543469 
L 97.349896 61.543469 
" style="fill:none;stroke:#bb9832;stroke-linecap:round;stroke-width:1.5;"/>
    </g>
    <g id="line2d_11"/>
    <g id="text_16">
     <text style="fill:#262626;font-family:DejaVu Sans;font-size:11px;font-stretch:normal;font-style:normal;font-weight:normal;text-anchor:start;" transform="rotate(-0, 106.149896, 65.393469)" x="106.149896" y="65.393469">Pvalb</text>
    </g>
    <g id="line2d_12">
     <path d="M 75.349896 77.689406 
L 97.349896 77.689406 
" style="fill:none;stroke:#50b131;stroke-linecap:round;stroke-width:1.5;"/>
    </g>
    <g id="line2d_13"/>
    <g id="text_17">
     <text style="fill:#262626;font-family:DejaVu Sans;font-size:11px;font-stretch:normal;font-style:normal;font-weight:normal;text-anchor:start;" transform="rotate(-0, 106.149896, 81.539406)" x="106.149896" y="81.539406">Serpinf1</text>
    </g>
    <g id="line2d_14">
     <path d="M 75.349896 93.835344 
L 97.349896 93.835344 
" style="fill:none;stroke:#36ada4;stroke-linecap:round;stroke-width:1.5;"/>
    </g>
    <g id="line2d_15"/>
    <g id="text_18">
     <text style="fill:#262626;font-family:DejaVu Sans;font-size:11px;font-stretch:normal;font-style:normal;font-weight:normal;text-anchor:start;" transform="rotate(-0, 106.149896, 97.685344)" x="106.149896" y="97.685344">Sncg</text>
    </g>
    <g id="line2d_16">
     <path d="M 75.349896 109.981281 
L 97.349896 109.981281 
" style="fill:none;stroke:#3ba3ec;stroke-linecap:round;stroke-width:1.5;"/>
    </g>
    <g id="line2d_17"/>
    <g id="text_19">
     <text style="fill:#262626;font-family:DejaVu Sans;font-size:11px;font-stretch:normal;font-style:normal;font-weight:normal;text-anchor:start;" transform="rotate(-0, 106.149896, 113.831281)" x="106.149896" y="113.831281">Sst</text>
    </g>
    <g id="line2d_18">
     <path d="M 75.349896 126.127219 
L 97.349896 126.127219 
" style="fill:none;stroke:#e866f4;stroke-linecap:round;stroke-width:1.5;"/>
    </g>
    <g id="line2d_19"/>
    <g id="text_20">
     <text style="fill:#262626;font-family:DejaVu Sans;font-size:11px;font-stretch:normal;font-style:normal;font-weight:normal;text-anchor:start;" transform="rotate(-0, 106.149896, 129.977219)" x="106.149896" y="129.977219">Vip</text>
    </g>
    <g id="line2d_20">
     <path d="M 75.349896 142.273156 
L 97.349896 142.273156 
" style="fill:none;stroke:#000000;stroke-linecap:round;stroke-width:6;"/>
    </g>
    <g id="line2d_21"/>
    <g id="text_21">
     <text style="fill:#262626;font-family:DejaVu Sans;font-size:11px;font-stretch:normal;font-style:normal;font-weight:normal;text-anchor:start;" transform="rotate(-0, 106.149896, 146.123156)" x="106.149896" y="146.123156">Cumulative</text>
    </g>
   </g>
  </g>
 </g>
 <defs>
  <clipPath id="p14d823c46f">
   <rect height="252.675" width="252.675" x="65.449896" y="30.98925"/>
  </clipPath>
 </defs>
</svg>
