<?xml version="1.0" encoding="utf-8" standalone="no"?>
<!DOCTYPE svg PUBLIC "-//W3C//DTD SVG 1.1//EN"
  "http://www.w3.org/Graphics/SVG/1.1/DTD/svg11.dtd">
<svg xmlns:xlink="http://www.w3.org/1999/xlink" width="337.247468pt" height="321.687679pt" viewBox="0 0 337.247468 321.687679" xmlns="http://www.w3.org/2000/svg" version="1.1">
 <metadata>
  <rdf:RDF xmlns:dc="http://purl.org/dc/elements/1.1/" xmlns:cc="http://creativecommons.org/ns#" xmlns:rdf="http://www.w3.org/1999/02/22-rdf-syntax-ns#">
   <cc:Work>
    <dc:type rdf:resource="http://purl.org/dc/dcmitype/StillImage"/>
    <dc:date>2023-08-18T20:01:24.273396</dc:date>
    <dc:format>image/svg+xml</dc:format>
    <dc:creator>
     <cc:Agent>
      <dc:title>Matplotlib v3.7.2, https://matplotlib.org/</dc:title>
     </cc:Agent>
    </dc:creator>
   </cc:Work>
  </rdf:RDF>
 </metadata>
 <defs>
  <style type="text/css">*{stroke-linejoin: round; stroke-linecap: butt}</style>
 </defs>
 <g id="figure_1">
  <g id="patch_1">
   <path d="M 0 321.687679 
L 337.247468 321.687679 
L 337.247468 0 
L 0 0 
z
" style="fill: #ffffff"/>
  </g>
  <g id="axes_1">
   <g id="patch_2">
    <path d="M 65.449896 265.571549 
L 318.124896 265.571549 
L 318.124896 12.896549 
L 65.449896 12.896549 
z
" style="fill: #ffffff"/>
   </g>
   <g id="matplotlib.axis_1">
    <g id="xtick_1">
     <g id="text_1">
      <text style="fill: #262626; font: 14.994px 'Arial', 'DejaVu Sans', 'Liberation Sans', 'Bitstream Vera Sans', sans-serif; text-anchor: middle" x="65.449896" y="286.464646" transform="rotate(-0 65.449896 286.464646)">0.0</text>
     </g>
    </g>
    <g id="xtick_2">
     <g id="text_2">
      <text style="fill: #262626; font: 14.994px 'Arial', 'DejaVu Sans', 'Liberation Sans', 'Bitstream Vera Sans', sans-serif; text-anchor: middle" x="115.984896" y="286.464646" transform="rotate(-0 115.984896 286.464646)">0.2</text>
     </g>
    </g>
    <g id="xtick_3">
     <g id="text_3">
      <text style="fill: #262626; font: 14.994px 'Arial', 'DejaVu Sans', 'Liberation Sans', 'Bitstream Vera Sans', sans-serif; text-anchor: middle" x="166.519896" y="286.464646" transform="rotate(-0 166.519896 286.464646)">0.4</text>
     </g>
    </g>
    <g id="xtick_4">
     <g id="text_4">
      <text style="fill: #262626; font: 14.994px 'Arial', 'DejaVu Sans', 'Liberation Sans', 'Bitstream Vera Sans', sans-serif; text-anchor: middle" x="217.054896" y="286.464646" transform="rotate(-0 217.054896 286.464646)">0.6</text>
     </g>
    </g>
    <g id="xtick_5">
     <g id="text_5">
      <text style="fill: #262626; font: 14.994px 'Arial', 'DejaVu Sans', 'Liberation Sans', 'Bitstream Vera Sans', sans-serif; text-anchor: middle" x="267.589896" y="286.464646" transform="rotate(-0 267.589896 286.464646)">0.8</text>
     </g>
    </g>
    <g id="xtick_6">
     <g id="text_6">
      <text style="fill: #262626; font: 14.994px 'Arial', 'DejaVu Sans', 'Liberation Sans', 'Bitstream Vera Sans', sans-serif; text-anchor: middle" x="318.124896" y="286.464646" transform="rotate(-0 318.124896 286.464646)">1.0</text>
     </g>
    </g>
    <g id="text_7">
     <text style="fill: #262626; font: 21.6px 'Arial', 'DejaVu Sans', 'Liberation Sans', 'Bitstream Vera Sans', sans-serif; text-anchor: middle" x="191.787396" y="309.995554" transform="rotate(-0 191.787396 309.995554)">Percentile</text>
    </g>
   </g>
   <g id="matplotlib.axis_2">
    <g id="ytick_1">
     <g id="text_8">
      <text style="fill: #262626; font: 14.994px 'Arial', 'DejaVu Sans', 'Liberation Sans', 'Bitstream Vera Sans', sans-serif; text-anchor: end" x="55.949896" y="271.268097" transform="rotate(-0 55.949896 271.268097)">0.0</text>
     </g>
    </g>
    <g id="ytick_2">
     <g id="text_9">
      <text style="fill: #262626; font: 14.994px 'Arial', 'DejaVu Sans', 'Liberation Sans', 'Bitstream Vera Sans', sans-serif; text-anchor: end" x="55.949896" y="220.733097" transform="rotate(-0 55.949896 220.733097)">0.2</text>
     </g>
    </g>
    <g id="ytick_3">
     <g id="text_10">
      <text style="fill: #262626; font: 14.994px 'Arial', 'DejaVu Sans', 'Liberation Sans', 'Bitstream Vera Sans', sans-serif; text-anchor: end" x="55.949896" y="170.198097" transform="rotate(-0 55.949896 170.198097)">0.4</text>
     </g>
    </g>
    <g id="ytick_4">
     <g id="text_11">
      <text style="fill: #262626; font: 14.994px 'Arial', 'DejaVu Sans', 'Liberation Sans', 'Bitstream Vera Sans', sans-serif; text-anchor: end" x="55.949896" y="119.663097" transform="rotate(-0 55.949896 119.663097)">0.6</text>
     </g>
    </g>
    <g id="ytick_5">
     <g id="text_12">
      <text style="fill: #262626; font: 14.994px 'Arial', 'DejaVu Sans', 'Liberation Sans', 'Bitstream Vera Sans', sans-serif; text-anchor: end" x="55.949896" y="69.128097" transform="rotate(-0 55.949896 69.128097)">0.8</text>
     </g>
    </g>
    <g id="ytick_6">
     <g id="text_13">
      <text style="fill: #262626; font: 14.994px 'Arial', 'DejaVu Sans', 'Liberation Sans', 'Bitstream Vera Sans', sans-serif; text-anchor: end" x="55.949896" y="18.593097" transform="rotate(-0 55.949896 18.593097)">1.0</text>
     </g>
    </g>
    <g id="text_14">
     <text style="fill: #262626; font: 21.6px 'Arial', 'DejaVu Sans', 'Liberation Sans', 'Bitstream Vera Sans', sans-serif; text-anchor: middle" x="23.612625" y="139.234049" transform="rotate(-90 23.612625 139.234049)">Gene Expression Similarity</text>
    </g>
   </g>
   <g id="line2d_1">
    <path d="M 65.449896 223.262285 
L 68.002168 223.262285 
L 70.554441 223.262285 
L 73.106714 223.262285 
L 75.658987 223.262285 
L 78.211259 222.867062 
L 80.763532 222.605041 
L 83.315805 218.028982 
L 85.868077 217.960782 
L 88.42035 217.083277 
L 90.972623 216.412642 
L 93.524896 211.362377 
L 96.077168 209.776762 
L 98.629441 209.719342 
L 101.181714 209.57283 
L 103.733987 208.199752 
L 106.286259 207.643791 
L 108.838532 206.755863 
L 111.390805 206.494958 
L 113.943077 206.277639 
L 116.49535 206.189667 
L 119.047623 206.056809 
L 121.599896 205.930546 
L 124.152168 204.561593 
L 126.704441 204.190591 
L 129.256714 202.829502 
L 131.808987 200.265505 
L 134.361259 199.891019 
L 136.913532 199.229463 
L 139.465805 199.15653 
L 142.018077 197.630082 
L 144.57035 196.880128 
L 147.122623 195.940948 
L 149.674896 195.432898 
L 152.227168 195.321375 
L 154.779441 194.783071 
L 157.331714 194.728373 
L 159.883987 193.795497 
L 162.436259 193.530111 
L 164.988532 193.152956 
L 167.540805 193.114428 
L 170.093077 192.532069 
L 172.64535 192.005113 
L 175.197623 191.741316 
L 177.749896 190.985546 
L 180.302168 190.443676 
L 182.854441 190.11554 
L 185.406714 190.0175 
L 187.958987 188.979309 
L 190.511259 188.557543 
L 193.063532 188.037223 
L 195.615805 185.744834 
L 198.168077 184.221065 
L 200.72035 182.652262 
L 203.272623 182.543181 
L 205.824896 182.09456 
L 208.377168 178.935053 
L 210.929441 178.823697 
L 213.481714 178.458649 
L 216.033987 178.402954 
L 218.586259 177.775489 
L 221.138532 177.583081 
L 223.690805 177.242407 
L 226.243077 175.546433 
L 228.79535 174.82327 
L 231.347623 174.629072 
L 233.899896 172.359261 
L 236.452168 172.171362 
L 239.004441 169.636279 
L 241.556714 168.128702 
L 244.108987 168.05555 
L 246.661259 167.648969 
L 249.213532 166.978285 
L 251.765805 163.933767 
L 254.318077 163.664293 
L 256.87035 162.837252 
L 259.422623 160.730538 
L 261.974896 159.786547 
L 264.527168 158.690333 
L 267.079441 151.272186 
L 269.631714 150.877046 
L 272.183987 149.993148 
L 274.736259 148.431402 
L 277.288532 147.800753 
L 279.840805 146.546093 
L 282.393077 145.657661 
L 284.94535 142.631972 
L 287.497623 142.519005 
L 290.049896 142.309866 
L 292.602168 141.283768 
L 295.154441 140.74627 
L 297.706714 136.857657 
L 300.258987 131.929269 
L 302.811259 130.100938 
L 305.363532 128.498199 
L 307.915805 124.603078 
L 310.468077 120.585799 
L 313.02035 110.224931 
L 315.572623 107.555155 
L 318.124896 103.371667 
" clip-path="url(#pcf6168cc89)" style="fill: none; stroke: #f77189; stroke-width: 1.5; stroke-linecap: round"/>
   </g>
   <g id="line2d_2">
    <path d="M 65.449896 223.262285 
L 68.002168 223.262285 
L 70.554441 223.262285 
L 73.106714 223.262285 
L 75.658987 223.262285 
L 78.211259 223.262285 
L 80.763532 222.262979 
L 83.315805 220.580253 
L 85.868077 219.213639 
L 88.42035 218.170752 
L 90.972623 217.617672 
L 93.524896 211.304733 
L 96.077168 209.882514 
L 98.629441 208.188091 
L 101.181714 206.003515 
L 103.733987 202.846695 
L 106.286259 200.363937 
L 108.838532 197.992459 
L 111.390805 196.911623 
L 113.943077 196.234155 
L 116.49535 196.04544 
L 119.047623 194.832581 
L 121.599896 194.733212 
L 124.152168 192.572194 
L 126.704441 191.962472 
L 129.256714 190.881392 
L 131.808987 189.962429 
L 134.361259 187.913576 
L 136.913532 186.178299 
L 139.465805 186.111936 
L 142.018077 185.123502 
L 144.57035 183.140165 
L 147.122623 182.311028 
L 149.674896 181.283434 
L 152.227168 180.863045 
L 154.779441 180.743766 
L 157.331714 180.667296 
L 159.883987 180.214992 
L 162.436259 179.734544 
L 164.988532 178.757916 
L 167.540805 178.113755 
L 170.093077 176.924946 
L 172.64535 175.573396 
L 175.197623 175.372902 
L 177.749896 173.469853 
L 180.302168 173.386194 
L 182.854441 173.170764 
L 185.406714 172.591247 
L 187.958987 171.946231 
L 190.511259 171.1543 
L 193.063532 171.138187 
L 195.615805 171.023179 
L 198.168077 169.948864 
L 200.72035 169.769403 
L 203.272623 169.660563 
L 205.824896 168.808023 
L 208.377168 168.194524 
L 210.929441 167.755833 
L 213.481714 166.851683 
L 216.033987 166.51683 
L 218.586259 165.643922 
L 221.138532 164.267423 
L 223.690805 163.531629 
L 226.243077 163.514683 
L 228.79535 162.008675 
L 231.347623 161.71502 
L 233.899896 161.257174 
L 236.452168 161.081653 
L 239.004441 159.649566 
L 241.556714 158.180011 
L 244.108987 157.930174 
L 246.661259 156.615507 
L 249.213532 155.902041 
L 251.765805 155.676849 
L 254.318077 155.507602 
L 256.87035 155.111724 
L 259.422623 154.715101 
L 261.974896 152.48426 
L 264.527168 151.560549 
L 267.079441 150.946951 
L 269.631714 148.660979 
L 272.183987 148.220045 
L 274.736259 147.791614 
L 277.288532 147.123588 
L 279.840805 146.521977 
L 282.393077 146.378891 
L 284.94535 145.371526 
L 287.497623 143.452521 
L 290.049896 142.734735 
L 292.602168 142.522113 
L 295.154441 141.878843 
L 297.706714 140.742899 
L 300.258987 138.830773 
L 302.811259 138.415854 
L 305.363532 135.21224 
L 307.915805 134.849227 
L 310.468077 132.205801 
L 313.02035 129.396047 
L 315.572623 128.918107 
L 318.124896 122.550343 
" clip-path="url(#pcf6168cc89)" style="fill: none; stroke: #d58c32; stroke-width: 1.5; stroke-linecap: round"/>
   </g>
   <g id="line2d_3">
    <path d="M 65.449896 217.168148 
L 68.002168 215.419789 
L 70.554441 215.073871 
L 73.106714 212.130699 
L 75.658987 210.851566 
L 78.211259 209.360487 
L 80.763532 207.251185 
L 83.315805 205.9515 
L 85.868077 205.103053 
L 88.42035 204.068129 
L 90.972623 199.32702 
L 93.524896 199.298542 
L 96.077168 199.022094 
L 98.629441 198.493769 
L 101.181714 198.47753 
L 103.733987 197.559052 
L 106.286259 194.198643 
L 108.838532 192.796795 
L 111.390805 190.773949 
L 113.943077 190.3566 
L 116.49535 188.889455 
L 119.047623 188.33158 
L 121.599896 187.945047 
L 124.152168 187.562915 
L 126.704441 184.957077 
L 129.256714 184.298573 
L 131.808987 183.718518 
L 134.361259 183.494261 
L 136.913532 182.693915 
L 139.465805 182.073367 
L 142.018077 181.144195 
L 144.57035 180.912959 
L 147.122623 179.896393 
L 149.674896 178.30535 
L 152.227168 177.61825 
L 154.779441 177.617858 
L 157.331714 177.584817 
L 159.883987 175.769721 
L 162.436259 175.404156 
L 164.988532 175.035825 
L 167.540805 173.213789 
L 170.093077 172.771707 
L 172.64535 172.165828 
L 175.197623 172.121776 
L 177.749896 171.826914 
L 180.302168 171.771395 
L 182.854441 169.686512 
L 185.406714 169.363782 
L 187.958987 168.985317 
L 190.511259 168.74137 
L 193.063532 168.546625 
L 195.615805 167.978932 
L 198.168077 165.804211 
L 200.72035 164.978149 
L 203.272623 164.718711 
L 205.824896 164.611847 
L 208.377168 164.426843 
L 210.929441 163.823017 
L 213.481714 163.432895 
L 216.033987 163.162493 
L 218.586259 163.148592 
L 221.138532 163.12973 
L 223.690805 162.413775 
L 226.243077 162.34139 
L 228.79535 162.116005 
L 231.347623 160.862738 
L 233.899896 160.8433 
L 236.452168 159.725221 
L 239.004441 158.846786 
L 241.556714 158.709413 
L 244.108987 158.559454 
L 246.661259 157.983743 
L 249.213532 157.95243 
L 251.765805 157.855611 
L 254.318077 157.174717 
L 256.87035 156.290598 
L 259.422623 156.035135 
L 261.974896 155.804112 
L 264.527168 155.542998 
L 267.079441 155.524883 
L 269.631714 154.040696 
L 272.183987 151.00817 
L 274.736259 150.385613 
L 277.288532 148.23641 
L 279.840805 144.648156 
L 282.393077 143.301805 
L 284.94535 143.103558 
L 287.497623 140.832567 
L 290.049896 139.813431 
L 292.602168 138.364203 
L 295.154441 138.203454 
L 297.706714 132.741262 
L 300.258987 128.198332 
L 302.811259 127.608067 
L 305.363532 123.561846 
L 307.915805 120.322505 
L 310.468077 120.139816 
L 313.02035 109.864823 
L 315.572623 89.993286 
L 318.124896 79.343885 
" clip-path="url(#pcf6168cc89)" style="fill: none; stroke: #a4a031; stroke-width: 1.5; stroke-linecap: round"/>
   </g>
   <g id="line2d_4">
    <path d="M 65.449896 223.262285 
L 68.002168 223.262285 
L 70.554441 223.262285 
L 73.106714 223.262285 
L 75.658987 223.262285 
L 78.211259 223.262285 
L 80.763532 223.262285 
L 83.315805 223.262285 
L 85.868077 223.262285 
L 88.42035 222.270791 
L 90.972623 221.125692 
L 93.524896 220.752503 
L 96.077168 219.415064 
L 98.629441 217.706051 
L 101.181714 217.531218 
L 103.733987 215.512979 
L 106.286259 214.138803 
L 108.838532 214.11024 
L 111.390805 214.00749 
L 113.943077 213.567842 
L 116.49535 212.812723 
L 119.047623 210.82675 
L 121.599896 210.618412 
L 124.152168 209.78829 
L 126.704441 208.1353 
L 129.256714 206.65561 
L 131.808987 205.569282 
L 134.361259 204.380714 
L 136.913532 203.894243 
L 139.465805 201.67684 
L 142.018077 201.246124 
L 144.57035 199.317432 
L 147.122623 198.505757 
L 149.674896 198.279933 
L 152.227168 196.569798 
L 154.779441 193.08079 
L 157.331714 190.756422 
L 159.883987 190.63822 
L 162.436259 189.940489 
L 164.988532 189.071565 
L 167.540805 187.828907 
L 170.093077 187.541101 
L 172.64535 187.147261 
L 175.197623 186.95635 
L 177.749896 186.2469 
L 180.302168 183.84556 
L 182.854441 183.655078 
L 185.406714 182.996261 
L 187.958987 182.489317 
L 190.511259 181.408086 
L 193.063532 181.387979 
L 195.615805 180.460937 
L 198.168077 179.62103 
L 200.72035 179.217507 
L 203.272623 178.680691 
L 205.824896 178.568718 
L 208.377168 178.556748 
L 210.929441 177.220269 
L 213.481714 176.262328 
L 216.033987 175.680944 
L 218.586259 174.99469 
L 221.138532 174.837485 
L 223.690805 174.097661 
L 226.243077 173.233169 
L 228.79535 171.598209 
L 231.347623 171.583179 
L 233.899896 171.399169 
L 236.452168 170.891461 
L 239.004441 169.844615 
L 241.556714 169.135047 
L 244.108987 168.838145 
L 246.661259 168.605236 
L 249.213532 168.035533 
L 251.765805 167.880049 
L 254.318077 165.669373 
L 256.87035 165.496698 
L 259.422623 165.431883 
L 261.974896 163.666818 
L 264.527168 161.390698 
L 267.079441 160.184704 
L 269.631714 160.065779 
L 272.183987 159.715471 
L 274.736259 158.046551 
L 277.288532 156.201532 
L 279.840805 155.686226 
L 282.393077 155.525878 
L 284.94535 154.210226 
L 287.497623 153.725492 
L 290.049896 153.475082 
L 292.602168 150.300636 
L 295.154441 148.945725 
L 297.706714 145.942331 
L 300.258987 140.353107 
L 302.811259 136.861187 
L 305.363532 132.594762 
L 307.915805 132.467567 
L 310.468077 124.365471 
L 313.02035 117.839704 
L 315.572623 87.767068 
L 318.124896 84.94905 
" clip-path="url(#pcf6168cc89)" style="fill: none; stroke: #50b131; stroke-width: 1.5; stroke-linecap: round"/>
   </g>
   <g id="line2d_5">
    <path d="M 65.449896 12.896549 
L 68.002168 12.896549 
L 70.554441 12.896549 
L 73.106714 12.896549 
L 75.658987 12.896549 
L 78.211259 12.896549 
L 80.763532 12.896549 
L 83.315805 12.896549 
L 85.868077 12.896549 
L 88.42035 12.896549 
L 90.972623 12.896549 
L 93.524896 12.896549 
L 96.077168 12.896549 
L 98.629441 12.896549 
L 101.181714 12.896549 
L 103.733987 12.896549 
L 106.286259 12.896549 
L 108.838532 12.896549 
L 111.390805 12.896549 
L 113.943077 12.896549 
L 116.49535 12.896549 
L 119.047623 12.896549 
L 121.599896 12.896549 
L 124.152168 12.896549 
L 126.704441 12.896549 
L 129.256714 12.896549 
L 131.808987 12.896549 
L 134.361259 12.896549 
L 136.913532 12.896549 
L 139.465805 12.896549 
L 142.018077 12.896549 
L 144.57035 12.896549 
L 147.122623 12.896549 
L 149.674896 12.896549 
L 152.227168 12.896549 
L 154.779441 12.896549 
L 157.331714 12.896549 
L 159.883987 12.896549 
L 162.436259 12.896549 
L 164.988532 12.896549 
L 167.540805 12.896549 
L 170.093077 12.896549 
L 172.64535 12.896549 
L 175.197623 12.896549 
L 177.749896 12.896549 
L 180.302168 12.896549 
L 182.854441 12.896549 
L 185.406714 12.896549 
L 187.958987 12.896549 
L 190.511259 12.896549 
L 193.063532 12.896549 
L 195.615805 12.896549 
L 198.168077 12.896549 
L 200.72035 12.896549 
L 203.272623 12.896549 
L 205.824896 12.896549 
L 208.377168 12.896549 
L 210.929441 12.896549 
L 213.481714 12.896549 
L 216.033987 12.896549 
L 218.586259 12.896549 
L 221.138532 12.896549 
L 223.690805 12.896549 
L 226.243077 12.896549 
L 228.79535 12.896549 
L 231.347623 12.896549 
L 233.899896 12.896549 
L 236.452168 12.896549 
L 239.004441 12.896549 
L 241.556714 12.896549 
L 244.108987 12.896549 
L 246.661259 12.896549 
L 249.213532 12.896549 
L 251.765805 12.896549 
L 254.318077 12.896549 
L 256.87035 12.896549 
L 259.422623 12.896549 
L 261.974896 12.896549 
L 264.527168 12.896549 
L 267.079441 12.896549 
L 269.631714 12.896549 
L 272.183987 12.896549 
L 274.736259 12.896549 
L 277.288532 12.896549 
L 279.840805 12.896549 
L 282.393077 12.896549 
L 284.94535 12.896549 
L 287.497623 12.896549 
L 290.049896 12.896549 
L 292.602168 12.896549 
L 295.154441 12.896549 
L 297.706714 12.896549 
L 300.258987 12.896549 
L 302.811259 12.896549 
L 305.363532 12.896549 
L 307.915805 12.896549 
L 310.468077 12.896549 
L 313.02035 12.896549 
L 315.572623 12.896549 
L 318.124896 12.896549 
" clip-path="url(#pcf6168cc89)" style="fill: none; stroke: #34ae91; stroke-width: 1.5; stroke-linecap: round"/>
   </g>
   <g id="line2d_6">
    <path d="M 65.449896 223.262285 
L 68.002168 223.262285 
L 70.554441 223.262285 
L 73.106714 223.262285 
L 75.658987 223.262285 
L 78.211259 223.262285 
L 80.763532 223.262285 
L 83.315805 222.646118 
L 85.868077 222.245823 
L 88.42035 221.991579 
L 90.972623 219.657564 
L 93.524896 219.51397 
L 96.077168 218.862663 
L 98.629441 218.362508 
L 101.181714 216.76796 
L 103.733987 216.753141 
L 106.286259 215.368797 
L 108.838532 213.174004 
L 111.390805 212.103344 
L 113.943077 212.048773 
L 116.49535 212.017741 
L 119.047623 210.751354 
L 121.599896 210.737148 
L 124.152168 209.970181 
L 126.704441 209.902185 
L 129.256714 208.812959 
L 131.808987 208.786778 
L 134.361259 207.723041 
L 136.913532 207.664848 
L 139.465805 206.309982 
L 142.018077 206.013168 
L 144.57035 205.868066 
L 147.122623 203.453245 
L 149.674896 203.433959 
L 152.227168 202.939304 
L 154.779441 201.010833 
L 157.331714 200.980878 
L 159.883987 200.227853 
L 162.436259 199.915647 
L 164.988532 199.749738 
L 167.540805 199.32715 
L 170.093077 199.303369 
L 172.64535 199.054808 
L 175.197623 198.301402 
L 177.749896 197.558185 
L 180.302168 197.359683 
L 182.854441 197.318124 
L 185.406714 196.827559 
L 187.958987 196.530925 
L 190.511259 196.479992 
L 193.063532 196.128622 
L 195.615805 196.023721 
L 198.168077 195.756593 
L 200.72035 195.237776 
L 203.272623 195.080074 
L 205.824896 195.002794 
L 208.377168 192.989268 
L 210.929441 192.539378 
L 213.481714 191.875883 
L 216.033987 191.634785 
L 218.586259 190.495424 
L 221.138532 189.49016 
L 223.690805 189.361813 
L 226.243077 188.920426 
L 228.79535 188.830831 
L 231.347623 187.940598 
L 233.899896 186.231227 
L 236.452168 185.978384 
L 239.004441 185.845473 
L 241.556714 185.552489 
L 244.108987 185.395029 
L 246.661259 185.281694 
L 249.213532 183.377928 
L 251.765805 182.738592 
L 254.318077 182.392265 
L 256.87035 182.130187 
L 259.422623 181.844991 
L 261.974896 181.534754 
L 264.527168 181.208133 
L 267.079441 180.849595 
L 269.631714 180.480127 
L 272.183987 180.055546 
L 274.736259 178.262352 
L 277.288532 178.015324 
L 279.840805 177.278993 
L 282.393077 175.931619 
L 284.94535 175.195961 
L 287.497623 174.944995 
L 290.049896 174.915463 
L 292.602168 173.408854 
L 295.154441 173.169529 
L 297.706714 171.2824 
L 300.258987 165.895695 
L 302.811259 164.195163 
L 305.363532 163.159364 
L 307.915805 162.614153 
L 310.468077 154.615818 
L 313.02035 145.972574 
L 315.572623 128.722096 
L 318.124896 119.623224 
" clip-path="url(#pcf6168cc89)" style="fill: none; stroke: #37abb5; stroke-width: 1.5; stroke-linecap: round"/>
   </g>
   <g id="line2d_7">
    <path d="M 65.449896 223.262285 
L 68.002168 223.262285 
L 70.554441 223.262285 
L 73.106714 223.262285 
L 75.658987 223.262285 
L 78.211259 223.262285 
L 80.763532 223.262285 
L 83.315805 223.262285 
L 85.868077 223.262285 
L 88.42035 223.262285 
L 90.972623 223.262285 
L 93.524896 223.262285 
L 96.077168 202.411934 
L 98.629441 180.749584 
L 101.181714 169.986717 
L 103.733987 163.548279 
L 106.286259 143.432099 
L 108.838532 142.781927 
L 111.390805 138.238794 
L 113.943077 122.989473 
L 116.49535 102.305091 
L 119.047623 90.579245 
L 121.599896 88.72851 
L 124.152168 12.896549 
L 126.704441 12.896549 
L 129.256714 12.896549 
L 131.808987 12.896549 
L 134.361259 12.896549 
L 136.913532 12.896549 
L 139.465805 12.896549 
L 142.018077 12.896549 
L 144.57035 12.896549 
L 147.122623 12.896549 
L 149.674896 12.896549 
L 152.227168 12.896549 
L 154.779441 12.896549 
L 157.331714 12.896549 
L 159.883987 12.896549 
L 162.436259 12.896549 
L 164.988532 12.896549 
L 167.540805 12.896549 
L 170.093077 12.896549 
L 172.64535 12.896549 
L 175.197623 12.896549 
L 177.749896 12.896549 
L 180.302168 12.896549 
L 182.854441 12.896549 
L 185.406714 12.896549 
L 187.958987 12.896549 
L 190.511259 12.896549 
L 193.063532 12.896549 
L 195.615805 12.896549 
L 198.168077 12.896549 
L 200.72035 12.896549 
L 203.272623 12.896549 
L 205.824896 12.896549 
L 208.377168 12.896549 
L 210.929441 12.896549 
L 213.481714 12.896549 
L 216.033987 12.896549 
L 218.586259 12.896549 
L 221.138532 12.896549 
L 223.690805 12.896549 
L 226.243077 12.896549 
L 228.79535 12.896549 
L 231.347623 12.896549 
L 233.899896 12.896549 
L 236.452168 12.896549 
L 239.004441 12.896549 
L 241.556714 12.896549 
L 244.108987 12.896549 
L 246.661259 12.896549 
L 249.213532 12.896549 
L 251.765805 12.896549 
L 254.318077 12.896549 
L 256.87035 12.896549 
L 259.422623 12.896549 
L 261.974896 12.896549 
L 264.527168 12.896549 
L 267.079441 12.896549 
L 269.631714 12.896549 
L 272.183987 12.896549 
L 274.736259 12.896549 
L 277.288532 12.896549 
L 279.840805 12.896549 
L 282.393077 12.896549 
L 284.94535 12.896549 
L 287.497623 12.896549 
L 290.049896 12.896549 
L 292.602168 12.896549 
L 295.154441 12.896549 
L 297.706714 12.896549 
L 300.258987 12.896549 
L 302.811259 12.896549 
L 305.363532 12.896549 
L 307.915805 12.896549 
L 310.468077 12.896549 
L 313.02035 12.896549 
L 315.572623 12.896549 
L 318.124896 12.896549 
" clip-path="url(#pcf6168cc89)" style="fill: none; stroke: #3ba3ec; stroke-width: 1.5; stroke-linecap: round"/>
   </g>
   <g id="line2d_8">
    <path d="M 65.449896 222.815787 
L 68.002168 219.263669 
L 70.554441 217.772582 
L 73.106714 217.469914 
L 75.658987 216.259254 
L 78.211259 215.861417 
L 80.763532 215.383845 
L 83.315805 213.911343 
L 85.868077 213.562718 
L 88.42035 213.06868 
L 90.972623 212.791902 
L 93.524896 212.1567 
L 96.077168 210.272332 
L 98.629441 208.622738 
L 101.181714 207.52693 
L 103.733987 206.032021 
L 106.286259 205.120118 
L 108.838532 204.633438 
L 111.390805 203.538067 
L 113.943077 201.009447 
L 116.49535 199.945022 
L 119.047623 199.380946 
L 121.599896 198.102775 
L 124.152168 195.537625 
L 126.704441 195.341119 
L 129.256714 193.692809 
L 131.808987 193.003272 
L 134.361259 192.028605 
L 136.913532 191.953739 
L 139.465805 190.311124 
L 142.018077 182.840408 
L 144.57035 180.40395 
L 147.122623 179.619795 
L 149.674896 177.979682 
L 152.227168 177.497521 
L 154.779441 177.476839 
L 157.331714 174.382105 
L 159.883987 172.724672 
L 162.436259 172.672724 
L 164.988532 172.148299 
L 167.540805 171.778386 
L 170.093077 170.106011 
L 172.64535 166.117358 
L 175.197623 166.082773 
L 177.749896 165.226474 
L 180.302168 165.219133 
L 182.854441 164.027872 
L 185.406714 163.873155 
L 187.958987 163.363066 
L 190.511259 162.721589 
L 193.063532 162.250392 
L 195.615805 162.242569 
L 198.168077 162.026958 
L 200.72035 161.380885 
L 203.272623 161.134079 
L 205.824896 160.981725 
L 208.377168 160.578776 
L 210.929441 159.929942 
L 213.481714 158.647434 
L 216.033987 158.286383 
L 218.586259 157.014518 
L 221.138532 156.839491 
L 223.690805 156.283602 
L 226.243077 155.687085 
L 228.79535 155.582553 
L 231.347623 154.973475 
L 233.899896 154.755529 
L 236.452168 154.451136 
L 239.004441 154.260467 
L 241.556714 153.842769 
L 244.108987 153.494992 
L 246.661259 152.932697 
L 249.213532 152.922105 
L 251.765805 151.894716 
L 254.318077 151.807129 
L 256.87035 151.466456 
L 259.422623 150.867286 
L 261.974896 150.836235 
L 264.527168 150.441407 
L 267.079441 150.011142 
L 269.631714 149.700473 
L 272.183987 148.950248 
L 274.736259 146.918951 
L 277.288532 146.845858 
L 279.840805 142.43075 
L 282.393077 142.298549 
L 284.94535 139.774102 
L 287.497623 139.341902 
L 290.049896 136.316248 
L 292.602168 134.89226 
L 295.154441 131.240219 
L 297.706714 131.048725 
L 300.258987 129.746647 
L 302.811259 124.019381 
L 305.363532 123.783846 
L 307.915805 118.530913 
L 310.468077 118.129979 
L 313.02035 116.627904 
L 315.572623 109.832378 
L 318.124896 101.001244 
" clip-path="url(#pcf6168cc89)" style="fill: none; stroke: #bb83f4; stroke-width: 1.5; stroke-linecap: round"/>
   </g>
   <g id="line2d_9">
    <path d="M 65.449896 265.571549 
L 68.002168 223.262285 
L 70.554441 223.262285 
L 73.106714 223.262285 
L 75.658987 223.262285 
L 78.211259 221.637762 
L 80.763532 221.496466 
L 83.315805 219.22712 
L 85.868077 216.318348 
L 88.42035 214.043247 
L 90.972623 207.696191 
L 93.524896 203.194208 
L 96.077168 201.146308 
L 98.629441 199.853707 
L 101.181714 199.407139 
L 103.733987 199.165844 
L 106.286259 197.958548 
L 108.838532 197.440701 
L 111.390805 197.35368 
L 113.943077 196.133954 
L 116.49535 193.617631 
L 119.047623 192.482093 
L 121.599896 192.278705 
L 124.152168 189.947491 
L 126.704441 189.139547 
L 129.256714 187.603273 
L 131.808987 187.117225 
L 134.361259 184.459852 
L 136.913532 183.007348 
L 139.465805 180.944814 
L 142.018077 180.848754 
L 144.57035 179.678971 
L 147.122623 179.353368 
L 149.674896 178.446635 
L 152.227168 177.116696 
L 154.779441 176.084004 
L 157.331714 173.360771 
L 159.883987 172.904091 
L 162.436259 169.756219 
L 164.988532 168.531706 
L 167.540805 168.268247 
L 170.093077 167.85561 
L 172.64535 167.463554 
L 175.197623 165.905151 
L 177.749896 165.528661 
L 180.302168 165.307032 
L 182.854441 164.031214 
L 185.406714 163.467227 
L 187.958987 162.418782 
L 190.511259 162.269937 
L 193.063532 161.690769 
L 195.615805 160.89326 
L 198.168077 160.684417 
L 200.72035 160.050151 
L 203.272623 159.936447 
L 205.824896 159.845156 
L 208.377168 159.645965 
L 210.929441 159.050411 
L 213.481714 158.367427 
L 216.033987 158.181915 
L 218.586259 157.647765 
L 221.138532 157.459287 
L 223.690805 155.713172 
L 226.243077 155.691125 
L 228.79535 155.175111 
L 231.347623 155.081968 
L 233.899896 154.953479 
L 236.452168 154.226875 
L 239.004441 154.064502 
L 241.556714 152.610218 
L 244.108987 152.070356 
L 246.661259 151.009703 
L 249.213532 150.965088 
L 251.765805 146.394663 
L 254.318077 146.063143 
L 256.87035 144.756896 
L 259.422623 144.53699 
L 261.974896 143.393463 
L 264.527168 143.306297 
L 267.079441 142.715494 
L 269.631714 142.449392 
L 272.183987 140.429474 
L 274.736259 137.304101 
L 277.288532 135.544076 
L 279.840805 135.141509 
L 282.393077 134.802197 
L 284.94535 133.976262 
L 287.497623 128.244904 
L 290.049896 127.09813 
L 292.602168 124.708005 
L 295.154441 123.735724 
L 297.706714 120.831467 
L 300.258987 119.884908 
L 302.811259 118.621448 
L 305.363532 117.419122 
L 307.915805 116.188893 
L 310.468077 116.093438 
L 313.02035 115.989951 
L 315.572623 112.435357 
L 318.124896 62.802033 
" clip-path="url(#pcf6168cc89)" style="fill: none; stroke: #f564d4; stroke-width: 1.5; stroke-linecap: round"/>
   </g>
   <g id="line2d_10">
    <path d="M 65.449896 182.287858 
L 68.002168 179.225894 
L 70.554441 177.703337 
L 73.106714 176.85372 
L 75.658987 173.536341 
L 78.211259 173.41499 
L 80.763532 171.910572 
L 83.315805 163.70158 
L 85.868077 163.255906 
L 88.42035 161.336714 
L 90.972623 161.109842 
L 93.524896 160.474998 
L 96.077168 160.064249 
L 98.629441 158.104369 
L 101.181714 157.151368 
L 103.733987 155.460191 
L 106.286259 155.196712 
L 108.838532 154.842802 
L 111.390805 154.332654 
L 113.943077 153.60888 
L 116.49535 153.571778 
L 119.047623 153.280888 
L 121.599896 152.769927 
L 124.152168 152.197782 
L 126.704441 151.799325 
L 129.256714 151.584414 
L 131.808987 151.192395 
L 134.361259 150.824324 
L 136.913532 150.491471 
L 139.465805 150.34387 
L 142.018077 149.519014 
L 144.57035 149.339038 
L 147.122623 149.269039 
L 149.674896 149.165888 
L 152.227168 149.141097 
L 154.779441 149.032528 
L 157.331714 148.857271 
L 159.883987 148.716945 
L 162.436259 148.375079 
L 164.988532 147.788012 
L 167.540805 147.060334 
L 170.093077 146.905723 
L 172.64535 146.480107 
L 175.197623 145.886417 
L 177.749896 145.871171 
L 180.302168 145.560002 
L 182.854441 145.182483 
L 185.406714 144.81626 
L 187.958987 144.467688 
L 190.511259 144.354136 
L 193.063532 144.086023 
L 195.615805 143.558811 
L 198.168077 143.498889 
L 200.72035 143.443362 
L 203.272623 143.102614 
L 205.824896 142.438273 
L 208.377168 142.057004 
L 210.929441 141.575731 
L 213.481714 140.979165 
L 216.033987 140.970673 
L 218.586259 140.776485 
L 221.138532 140.211373 
L 223.690805 139.685135 
L 226.243077 139.339777 
L 228.79535 139.281394 
L 231.347623 139.063243 
L 233.899896 138.94943 
L 236.452168 138.725184 
L 239.004441 138.492722 
L 241.556714 138.26118 
L 244.108987 137.384649 
L 246.661259 137.331894 
L 249.213532 136.786699 
L 251.765805 136.298439 
L 254.318077 136.114303 
L 256.87035 135.947313 
L 259.422623 135.805633 
L 261.974896 135.549538 
L 264.527168 135.32985 
L 267.079441 135.137481 
L 269.631714 134.98859 
L 272.183987 133.744586 
L 274.736259 133.018022 
L 277.288532 132.75533 
L 279.840805 132.31128 
L 282.393077 131.765185 
L 284.94535 130.880968 
L 287.497623 130.878809 
L 290.049896 130.335586 
L 292.602168 128.949469 
L 295.154441 128.797793 
L 297.706714 127.511308 
L 300.258987 127.13868 
L 302.811259 122.683036 
L 305.363532 122.369391 
L 307.915805 121.271557 
L 310.468077 120.329206 
L 313.02035 117.768015 
L 315.572623 110.958115 
L 318.124896 96.108306 
" clip-path="url(#pcf6168cc89)" style="fill: none; stroke: #000000; stroke-width: 6; stroke-linecap: round"/>
   </g>
   <g id="patch_3">
    <path d="M 65.449896 265.571549 
L 65.449896 12.896549 
" style="fill: none; stroke: #262626; stroke-width: 1.25; stroke-linejoin: miter; stroke-linecap: square"/>
   </g>
   <g id="patch_4">
    <path d="M 65.449896 265.571549 
L 318.124896 265.571549 
" style="fill: none; stroke: #262626; stroke-width: 1.25; stroke-linejoin: miter; stroke-linecap: square"/>
   </g>
   <g id="legend_1">
    <g id="patch_5">
     <path d="M 73.149896 183.155924 
L 171.132396 183.155924 
Q 173.332396 183.155924 173.332396 180.955924 
L 173.332396 20.596549 
Q 173.332396 18.396549 171.132396 18.396549 
L 73.149896 18.396549 
Q 70.949896 18.396549 70.949896 20.596549 
L 70.949896 180.955924 
Q 70.949896 183.155924 73.149896 183.155924 
z
" style="fill: #ffffff; opacity: 0.8; stroke: #cccccc; stroke-linejoin: miter"/>
    </g>
    <g id="line2d_11">
     <path d="M 75.349896 27.30483 
L 86.349896 27.30483 
L 97.349896 27.30483 
" style="fill: none; stroke: #f77189; stroke-width: 1.5; stroke-linecap: round"/>
    </g>
    <g id="text_15">
     <text style="fill: #262626; font: 11px 'Arial', 'DejaVu Sans', 'Liberation Sans', 'Bitstream Vera Sans', sans-serif; text-anchor: start" x="106.149896" y="31.15483" transform="rotate(-0 106.149896 31.15483)">CT</text>
    </g>
    <g id="line2d_12">
     <path d="M 75.349896 43.450767 
L 86.349896 43.450767 
L 97.349896 43.450767 
" style="fill: none; stroke: #d58c32; stroke-width: 1.5; stroke-linecap: round"/>
    </g>
    <g id="text_16">
     <text style="fill: #262626; font: 11px 'Arial', 'DejaVu Sans', 'Liberation Sans', 'Bitstream Vera Sans', sans-serif; text-anchor: start" x="106.149896" y="47.300767" transform="rotate(-0 106.149896 47.300767)">ET</text>
    </g>
    <g id="line2d_13">
     <path d="M 75.349896 59.596705 
L 86.349896 59.596705 
L 97.349896 59.596705 
" style="fill: none; stroke: #a4a031; stroke-width: 1.5; stroke-linecap: round"/>
    </g>
    <g id="text_17">
     <text style="fill: #262626; font: 11px 'Arial', 'DejaVu Sans', 'Liberation Sans', 'Bitstream Vera Sans', sans-serif; text-anchor: start" x="106.149896" y="63.446705" transform="rotate(-0 106.149896 63.446705)">IT</text>
    </g>
    <g id="line2d_14">
     <path d="M 75.349896 75.742642 
L 86.349896 75.742642 
L 97.349896 75.742642 
" style="fill: none; stroke: #50b131; stroke-width: 1.5; stroke-linecap: round"/>
    </g>
    <g id="text_18">
     <text style="fill: #262626; font: 11px 'Arial', 'DejaVu Sans', 'Liberation Sans', 'Bitstream Vera Sans', sans-serif; text-anchor: start" x="106.149896" y="79.592642" transform="rotate(-0 106.149896 79.592642)">Lamp5</text>
    </g>
    <g id="line2d_15">
     <path d="M 75.349896 91.88858 
L 86.349896 91.88858 
L 97.349896 91.88858 
" style="fill: none; stroke: #34ae91; stroke-width: 1.5; stroke-linecap: round"/>
    </g>
    <g id="text_19">
     <text style="fill: #262626; font: 11px 'Arial', 'DejaVu Sans', 'Liberation Sans', 'Bitstream Vera Sans', sans-serif; text-anchor: start" x="106.149896" y="95.73858" transform="rotate(-0 106.149896 95.73858)">NP</text>
    </g>
    <g id="line2d_16">
     <path d="M 75.349896 108.034517 
L 86.349896 108.034517 
L 97.349896 108.034517 
" style="fill: none; stroke: #37abb5; stroke-width: 1.5; stroke-linecap: round"/>
    </g>
    <g id="text_20">
     <text style="fill: #262626; font: 11px 'Arial', 'DejaVu Sans', 'Liberation Sans', 'Bitstream Vera Sans', sans-serif; text-anchor: start" x="106.149896" y="111.884517" transform="rotate(-0 106.149896 111.884517)">Pvalb</text>
    </g>
    <g id="line2d_17">
     <path d="M 75.349896 124.180455 
L 86.349896 124.180455 
L 97.349896 124.180455 
" style="fill: none; stroke: #3ba3ec; stroke-width: 1.5; stroke-linecap: round"/>
    </g>
    <g id="text_21">
     <text style="fill: #262626; font: 11px 'Arial', 'DejaVu Sans', 'Liberation Sans', 'Bitstream Vera Sans', sans-serif; text-anchor: start" x="106.149896" y="128.030455" transform="rotate(-0 106.149896 128.030455)">Sncg</text>
    </g>
    <g id="line2d_18">
     <path d="M 75.349896 140.326392 
L 86.349896 140.326392 
L 97.349896 140.326392 
" style="fill: none; stroke: #bb83f4; stroke-width: 1.5; stroke-linecap: round"/>
    </g>
    <g id="text_22">
     <text style="fill: #262626; font: 11px 'Arial', 'DejaVu Sans', 'Liberation Sans', 'Bitstream Vera Sans', sans-serif; text-anchor: start" x="106.149896" y="144.176392" transform="rotate(-0 106.149896 144.176392)">Sst</text>
    </g>
    <g id="line2d_19">
     <path d="M 75.349896 156.47233 
L 86.349896 156.47233 
L 97.349896 156.47233 
" style="fill: none; stroke: #f564d4; stroke-width: 1.5; stroke-linecap: round"/>
    </g>
    <g id="text_23">
     <text style="fill: #262626; font: 11px 'Arial', 'DejaVu Sans', 'Liberation Sans', 'Bitstream Vera Sans', sans-serif; text-anchor: start" x="106.149896" y="160.32233" transform="rotate(-0 106.149896 160.32233)">Vip</text>
    </g>
    <g id="line2d_20">
     <path d="M 75.349896 172.618267 
L 86.349896 172.618267 
L 97.349896 172.618267 
" style="fill: none; stroke: #000000; stroke-width: 6; stroke-linecap: round"/>
    </g>
    <g id="text_24">
     <text style="fill: #262626; font: 11px 'Arial', 'DejaVu Sans', 'Liberation Sans', 'Bitstream Vera Sans', sans-serif; text-anchor: start" x="106.149896" y="176.468267" transform="rotate(-0 106.149896 176.468267)">Cumulative</text>
    </g>
   </g>
  </g>
 </g>
 <defs>
  <clipPath id="pcf6168cc89">
   <rect x="65.449896" y="12.896549" width="252.675" height="252.675"/>
  </clipPath>
 </defs>
</svg>
