<?xml version="1.0" encoding="utf-8" standalone="no"?>
<!DOCTYPE svg PUBLIC "-//W3C//DTD SVG 1.1//EN"
  "http://www.w3.org/Graphics/SVG/1.1/DTD/svg11.dtd">
<svg height="334.704381pt" version="1.1" viewBox="0 0 337.247468 334.704381" width="337.247468pt" xmlns="http://www.w3.org/2000/svg" xmlns:xlink="http://www.w3.org/1999/xlink">
 <metadata>
  <rdf:RDF xmlns:cc="http://creativecommons.org/ns#" xmlns:dc="http://purl.org/dc/elements/1.1/" xmlns:rdf="http://www.w3.org/1999/02/22-rdf-syntax-ns#">
   <cc:Work>
    <dc:type rdf:resource="http://purl.org/dc/dcmitype/StillImage"/>
    <dc:date>2023-04-27T13:09:59.030032</dc:date>
    <dc:format>image/svg+xml</dc:format>
    <dc:creator>
     <cc:Agent>
      <dc:title>Matplotlib v3.4.3, https://matplotlib.org/</dc:title>
     </cc:Agent>
    </dc:creator>
   </cc:Work>
  </rdf:RDF>
 </metadata>
 <defs>
  <style type="text/css">*{stroke-linecap:butt;stroke-linejoin:round;}</style>
 </defs>
 <g id="figure_1">
  <g id="patch_1">
   <path d="M 0 334.704381 
L 337.247468 334.704381 
L 337.247468 0 
L 0 0 
z
" style="fill:#ffffff;"/>
  </g>
  <g id="axes_1">
   <g id="patch_2">
    <path d="M 65.449896 278.58825 
L 318.124896 278.58825 
L 318.124896 25.91325 
L 65.449896 25.91325 
z
" style="fill:#ffffff;"/>
   </g>
   <g id="matplotlib.axis_1">
    <g id="xtick_1">
     <g id="text_1">
      <text style="fill:#262626;font-family:DejaVu Sans;font-size:14.994px;font-stretch:normal;font-style:normal;font-weight:normal;text-anchor:middle;" transform="rotate(-0, 65.449896, 299.481347)" x="65.449896" y="299.481347">0.0</text>
     </g>
    </g>
    <g id="xtick_2">
     <g id="text_2">
      <text style="fill:#262626;font-family:DejaVu Sans;font-size:14.994px;font-stretch:normal;font-style:normal;font-weight:normal;text-anchor:middle;" transform="rotate(-0, 115.984896, 299.481347)" x="115.984896" y="299.481347">0.2</text>
     </g>
    </g>
    <g id="xtick_3">
     <g id="text_3">
      <text style="fill:#262626;font-family:DejaVu Sans;font-size:14.994px;font-stretch:normal;font-style:normal;font-weight:normal;text-anchor:middle;" transform="rotate(-0, 166.519896, 299.481347)" x="166.519896" y="299.481347">0.4</text>
     </g>
    </g>
    <g id="xtick_4">
     <g id="text_4">
      <text style="fill:#262626;font-family:DejaVu Sans;font-size:14.994px;font-stretch:normal;font-style:normal;font-weight:normal;text-anchor:middle;" transform="rotate(-0, 217.054896, 299.481347)" x="217.054896" y="299.481347">0.6</text>
     </g>
    </g>
    <g id="xtick_5">
     <g id="text_5">
      <text style="fill:#262626;font-family:DejaVu Sans;font-size:14.994px;font-stretch:normal;font-style:normal;font-weight:normal;text-anchor:middle;" transform="rotate(-0, 267.589896, 299.481347)" x="267.589896" y="299.481347">0.8</text>
     </g>
    </g>
    <g id="xtick_6">
     <g id="text_6">
      <text style="fill:#262626;font-family:DejaVu Sans;font-size:14.994px;font-stretch:normal;font-style:normal;font-weight:normal;text-anchor:middle;" transform="rotate(-0, 318.124896, 299.481347)" x="318.124896" y="299.481347">1.0</text>
     </g>
    </g>
    <g id="text_7">
     <text style="fill:#262626;font-family:DejaVu Sans;font-size:21.6px;font-stretch:normal;font-style:normal;font-weight:normal;text-anchor:middle;" transform="rotate(-0, 191.787396, 323.012256)" x="191.787396" y="323.012256">Percentile</text>
    </g>
   </g>
   <g id="matplotlib.axis_2">
    <g id="ytick_1">
     <g id="text_8">
      <text style="fill:#262626;font-family:DejaVu Sans;font-size:14.994px;font-stretch:normal;font-style:normal;font-weight:normal;text-anchor:end;" transform="rotate(-0, 55.949896, 284.284799)" x="55.949896" y="284.284799">0.0</text>
     </g>
    </g>
    <g id="ytick_2">
     <g id="text_9">
      <text style="fill:#262626;font-family:DejaVu Sans;font-size:14.994px;font-stretch:normal;font-style:normal;font-weight:normal;text-anchor:end;" transform="rotate(-0, 55.949896, 233.749799)" x="55.949896" y="233.749799">0.2</text>
     </g>
    </g>
    <g id="ytick_3">
     <g id="text_10">
      <text style="fill:#262626;font-family:DejaVu Sans;font-size:14.994px;font-stretch:normal;font-style:normal;font-weight:normal;text-anchor:end;" transform="rotate(-0, 55.949896, 183.214799)" x="55.949896" y="183.214799">0.4</text>
     </g>
    </g>
    <g id="ytick_4">
     <g id="text_11">
      <text style="fill:#262626;font-family:DejaVu Sans;font-size:14.994px;font-stretch:normal;font-style:normal;font-weight:normal;text-anchor:end;" transform="rotate(-0, 55.949896, 132.679799)" x="55.949896" y="132.679799">0.6</text>
     </g>
    </g>
    <g id="ytick_5">
     <g id="text_12">
      <text style="fill:#262626;font-family:DejaVu Sans;font-size:14.994px;font-stretch:normal;font-style:normal;font-weight:normal;text-anchor:end;" transform="rotate(-0, 55.949896, 82.144799)" x="55.949896" y="82.144799">0.8</text>
     </g>
    </g>
    <g id="ytick_6">
     <g id="text_13">
      <text style="fill:#262626;font-family:DejaVu Sans;font-size:14.994px;font-stretch:normal;font-style:normal;font-weight:normal;text-anchor:end;" transform="rotate(-0, 55.949896, 31.609799)" x="55.949896" y="31.609799">1.0</text>
     </g>
    </g>
    <g id="text_14">
     <text style="fill:#262626;font-family:DejaVu Sans;font-size:21.6px;font-stretch:normal;font-style:normal;font-weight:normal;text-anchor:middle;" transform="rotate(-90, 23.612625, 152.25075)" x="23.612625" y="152.25075">Gene Expression Similarity</text>
    </g>
   </g>
   <g id="line2d_1">
    <path clip-path="url(#p536c072f3b)" d="M 65.449896 236.278986 
L 68.002168 236.278986 
L 70.554441 236.278986 
L 73.106714 236.278986 
L 75.658987 236.278986 
L 78.211259 236.278986 
L 80.763532 236.278986 
L 83.315805 236.278986 
L 85.868077 235.155483 
L 88.42035 234.723306 
L 90.972623 233.950235 
L 93.524896 233.352197 
L 96.077168 228.461472 
L 98.629441 228.323158 
L 101.181714 225.283442 
L 103.733987 220.25998 
L 106.286259 218.476097 
L 108.838532 216.593663 
L 111.390805 215.583708 
L 113.943077 215.504624 
L 116.49535 215.127325 
L 119.047623 214.681304 
L 121.599896 214.274227 
L 124.152168 212.03495 
L 126.704441 211.15865 
L 129.256714 210.103035 
L 131.808987 209.439865 
L 134.361259 209.006166 
L 136.913532 207.787736 
L 139.465805 207.211418 
L 142.018077 205.952489 
L 144.57035 203.995096 
L 147.122623 203.840479 
L 149.674896 203.591077 
L 152.227168 203.496637 
L 154.779441 202.177768 
L 157.331714 201.785909 
L 159.883987 201.599725 
L 162.436259 201.56267 
L 164.988532 201.059392 
L 167.540805 199.743525 
L 170.093077 199.679015 
L 172.64535 199.571353 
L 175.197623 199.10742 
L 177.749896 198.686105 
L 180.302168 198.637148 
L 182.854441 198.62278 
L 185.406714 198.40536 
L 187.958987 198.307938 
L 190.511259 198.191954 
L 193.063532 197.739322 
L 195.615805 197.639723 
L 198.168077 197.601008 
L 200.72035 196.579304 
L 203.272623 196.412077 
L 205.824896 195.258947 
L 208.377168 195.088843 
L 210.929441 192.76088 
L 213.481714 192.275264 
L 216.033987 191.859987 
L 218.586259 190.93818 
L 221.138532 190.073557 
L 223.690805 189.817882 
L 226.243077 189.799228 
L 228.79535 186.905204 
L 231.347623 184.392153 
L 233.899896 183.865721 
L 236.452168 183.738822 
L 239.004441 182.991721 
L 241.556714 182.800431 
L 244.108987 180.640333 
L 246.661259 180.590652 
L 249.213532 178.18185 
L 251.765805 175.598996 
L 254.318077 174.424869 
L 256.87035 172.948881 
L 259.422623 172.933926 
L 261.974896 172.14893 
L 264.527168 172.138287 
L 267.079441 168.769345 
L 269.631714 168.240116 
L 272.183987 168.233788 
L 274.736259 166.92815 
L 277.288532 165.901291 
L 279.840805 165.836136 
L 282.393077 164.664471 
L 284.94535 164.465308 
L 287.497623 163.74362 
L 290.049896 162.20577 
L 292.602168 158.77361 
L 295.154441 154.421429 
L 297.706714 154.204271 
L 300.258987 152.488291 
L 302.811259 151.858834 
L 305.363532 149.224416 
L 307.915805 146.84034 
L 310.468077 145.253747 
L 313.02035 145.23366 
L 315.572623 140.567215 
L 318.124896 120.247608 
" style="fill:none;stroke:#f77189;stroke-linecap:round;stroke-width:1.5;"/>
   </g>
   <g id="line2d_2">
    <path clip-path="url(#p536c072f3b)" d="M 65.449896 236.278986 
L 68.002168 236.278986 
L 70.554441 236.278986 
L 73.106714 236.278986 
L 75.658987 233.918186 
L 78.211259 226.158413 
L 80.763532 223.491555 
L 83.315805 223.305654 
L 85.868077 221.014378 
L 88.42035 220.240284 
L 90.972623 218.779483 
L 93.524896 216.761159 
L 96.077168 216.386545 
L 98.629441 212.65778 
L 101.181714 209.196477 
L 103.733987 207.517353 
L 106.286259 206.387311 
L 108.838532 205.654439 
L 111.390805 204.067305 
L 113.943077 200.156277 
L 116.49535 199.199352 
L 119.047623 198.842538 
L 121.599896 198.270225 
L 124.152168 196.703869 
L 126.704441 194.366071 
L 129.256714 194.17 
L 131.808987 194.096826 
L 134.361259 192.606659 
L 136.913532 190.605263 
L 139.465805 190.371629 
L 142.018077 189.317858 
L 144.57035 188.047725 
L 147.122623 186.83847 
L 149.674896 186.462678 
L 152.227168 184.456054 
L 154.779441 182.806319 
L 157.331714 182.006797 
L 159.883987 181.151824 
L 162.436259 180.264117 
L 164.988532 178.422245 
L 167.540805 177.098943 
L 170.093077 176.974553 
L 172.64535 173.756411 
L 175.197623 173.411109 
L 177.749896 173.333694 
L 180.302168 172.975489 
L 182.854441 172.066096 
L 185.406714 172.021416 
L 187.958987 171.645529 
L 190.511259 170.290195 
L 193.063532 169.9401 
L 195.615805 169.531362 
L 198.168077 168.218203 
L 200.72035 168.186115 
L 203.272623 167.506501 
L 205.824896 167.209437 
L 208.377168 164.968173 
L 210.929441 163.961736 
L 213.481714 163.870934 
L 216.033987 163.71347 
L 218.586259 163.525717 
L 221.138532 161.517416 
L 223.690805 161.443698 
L 226.243077 161.359553 
L 228.79535 160.528266 
L 231.347623 159.093628 
L 233.899896 158.326137 
L 236.452168 157.589315 
L 239.004441 157.38267 
L 241.556714 156.502398 
L 244.108987 156.296017 
L 246.661259 154.552103 
L 249.213532 154.449665 
L 251.765805 154.184845 
L 254.318077 151.715201 
L 256.87035 151.458302 
L 259.422623 150.130975 
L 261.974896 145.518606 
L 264.527168 144.996664 
L 267.079441 144.802619 
L 269.631714 144.483504 
L 272.183987 143.381526 
L 274.736259 143.079663 
L 277.288532 142.323809 
L 279.840805 142.266086 
L 282.393077 141.332561 
L 284.94535 139.638159 
L 287.497623 138.881917 
L 290.049896 134.782952 
L 292.602168 133.248085 
L 295.154441 132.973163 
L 297.706714 131.806102 
L 300.258987 130.852881 
L 302.811259 126.175319 
L 305.363532 125.370246 
L 307.915805 124.937168 
L 310.468077 122.53923 
L 313.02035 115.182841 
L 315.572623 112.837286 
L 318.124896 93.275311 
" style="fill:none;stroke:#d58c32;stroke-linecap:round;stroke-width:1.5;"/>
   </g>
   <g id="line2d_3">
    <path clip-path="url(#p536c072f3b)" d="M 65.449896 236.278986 
L 68.002168 232.22712 
L 70.554441 230.532769 
L 73.106714 228.362931 
L 75.658987 227.959049 
L 78.211259 226.074698 
L 80.763532 225.341695 
L 83.315805 223.391766 
L 85.868077 222.904861 
L 88.42035 220.809421 
L 90.972623 219.029323 
L 93.524896 217.524948 
L 96.077168 214.979226 
L 98.629441 213.312491 
L 101.181714 212.275289 
L 103.733987 210.769268 
L 106.286259 210.389056 
L 108.838532 206.75488 
L 111.390805 204.635469 
L 113.943077 202.951294 
L 116.49535 200.261496 
L 119.047623 198.817186 
L 121.599896 196.479628 
L 124.152168 195.626057 
L 126.704441 195.101596 
L 129.256714 194.757419 
L 131.808987 193.681552 
L 134.361259 193.673875 
L 136.913532 193.180641 
L 139.465805 191.869791 
L 142.018077 189.878742 
L 144.57035 188.516398 
L 147.122623 185.862162 
L 149.674896 185.439202 
L 152.227168 184.67959 
L 154.779441 184.021558 
L 157.331714 182.452812 
L 159.883987 180.868121 
L 162.436259 180.652087 
L 164.988532 179.24225 
L 167.540805 178.992553 
L 170.093077 178.150748 
L 172.64535 177.683725 
L 175.197623 177.372654 
L 177.749896 176.211233 
L 180.302168 174.723203 
L 182.854441 173.732485 
L 185.406714 172.335068 
L 187.958987 171.941576 
L 190.511259 170.7351 
L 193.063532 170.130438 
L 195.615805 168.220591 
L 198.168077 167.831037 
L 200.72035 167.798773 
L 203.272623 167.456383 
L 205.824896 166.327024 
L 208.377168 165.629544 
L 210.929441 165.578225 
L 213.481714 164.75043 
L 216.033987 164.611903 
L 218.586259 164.545674 
L 221.138532 164.502605 
L 223.690805 162.026449 
L 226.243077 161.649135 
L 228.79535 159.505037 
L 231.347623 158.349794 
L 233.899896 158.333167 
L 236.452168 156.727875 
L 239.004441 156.643176 
L 241.556714 156.407537 
L 244.108987 155.569037 
L 246.661259 155.242224 
L 249.213532 154.388665 
L 251.765805 154.292703 
L 254.318077 152.822619 
L 256.87035 152.817887 
L 259.422623 152.637624 
L 261.974896 151.799616 
L 264.527168 151.544518 
L 267.079441 151.53385 
L 269.631714 151.398269 
L 272.183987 151.125417 
L 274.736259 149.345833 
L 277.288532 148.472955 
L 279.840805 146.141116 
L 282.393077 145.321866 
L 284.94535 143.373285 
L 287.497623 142.860525 
L 290.049896 139.549737 
L 292.602168 139.379034 
L 295.154441 135.687374 
L 297.706714 133.368431 
L 300.258987 128.989851 
L 302.811259 128.893042 
L 305.363532 126.679211 
L 307.915805 124.309742 
L 310.468077 123.660578 
L 313.02035 122.299207 
L 315.572623 120.644143 
L 318.124896 117.329967 
" style="fill:none;stroke:#a4a031;stroke-linecap:round;stroke-width:1.5;"/>
   </g>
   <g id="line2d_4">
    <path clip-path="url(#p536c072f3b)" d="M 65.449896 236.278986 
L 68.002168 236.278986 
L 70.554441 236.278986 
L 73.106714 235.144202 
L 75.658987 234.924187 
L 78.211259 234.254953 
L 80.763532 232.520919 
L 83.315805 232.087673 
L 85.868077 229.517842 
L 88.42035 229.063411 
L 90.972623 228.90928 
L 93.524896 228.833426 
L 96.077168 227.152553 
L 98.629441 226.293811 
L 101.181714 225.644292 
L 103.733987 224.640355 
L 106.286259 224.175123 
L 108.838532 222.46576 
L 111.390805 221.081233 
L 113.943077 219.697904 
L 116.49535 218.033123 
L 119.047623 216.008557 
L 121.599896 213.531528 
L 124.152168 213.039037 
L 126.704441 212.657402 
L 129.256714 210.203277 
L 131.808987 209.940549 
L 134.361259 207.302588 
L 136.913532 206.823762 
L 139.465805 206.239344 
L 142.018077 205.500142 
L 144.57035 204.635606 
L 147.122623 204.052237 
L 149.674896 201.453023 
L 152.227168 201.038709 
L 154.779441 201.026825 
L 157.331714 199.798818 
L 159.883987 198.032427 
L 162.436259 197.287239 
L 164.988532 196.504864 
L 167.540805 195.534018 
L 170.093077 195.079375 
L 172.64535 193.9051 
L 175.197623 193.672254 
L 177.749896 193.203553 
L 180.302168 191.590351 
L 182.854441 190.35051 
L 185.406714 190.267984 
L 187.958987 189.967201 
L 190.511259 189.643457 
L 193.063532 188.635752 
L 195.615805 187.563546 
L 198.168077 187.416611 
L 200.72035 187.242888 
L 203.272623 187.196943 
L 205.824896 186.922177 
L 208.377168 185.335079 
L 210.929441 185.090549 
L 213.481714 185.061723 
L 216.033987 184.898679 
L 218.586259 181.851303 
L 221.138532 179.965719 
L 223.690805 179.865423 
L 226.243077 177.788498 
L 228.79535 177.255894 
L 231.347623 175.878187 
L 233.899896 175.654731 
L 236.452168 172.94685 
L 239.004441 171.999803 
L 241.556714 171.707217 
L 244.108987 171.572194 
L 246.661259 171.223861 
L 249.213532 169.430472 
L 251.765805 168.443098 
L 254.318077 168.36733 
L 256.87035 166.957005 
L 259.422623 166.690002 
L 261.974896 165.742935 
L 264.527168 163.363236 
L 267.079441 163.02575 
L 269.631714 162.311917 
L 272.183987 161.103075 
L 274.736259 156.564701 
L 277.288532 154.648027 
L 279.840805 154.626696 
L 282.393077 152.522538 
L 284.94535 152.50246 
L 287.497623 151.882535 
L 290.049896 149.432078 
L 292.602168 148.889848 
L 295.154441 148.848299 
L 297.706714 147.921279 
L 300.258987 144.984413 
L 302.811259 141.771915 
L 305.363532 140.036795 
L 307.915805 124.129801 
L 310.468077 114.997158 
L 313.02035 110.68647 
L 315.572623 89.366118 
L 318.124896 69.987832 
" style="fill:none;stroke:#50b131;stroke-linecap:round;stroke-width:1.5;"/>
   </g>
   <g id="line2d_5">
    <path clip-path="url(#p536c072f3b)" d="M 65.449896 25.91325 
L 68.002168 25.91325 
L 70.554441 25.91325 
L 73.106714 25.91325 
L 75.658987 25.91325 
L 78.211259 25.91325 
L 80.763532 25.91325 
L 83.315805 25.91325 
L 85.868077 25.91325 
L 88.42035 25.91325 
L 90.972623 25.91325 
L 93.524896 25.91325 
L 96.077168 25.91325 
L 98.629441 25.91325 
L 101.181714 25.91325 
L 103.733987 25.91325 
L 106.286259 25.91325 
L 108.838532 25.91325 
L 111.390805 25.91325 
L 113.943077 25.91325 
L 116.49535 25.91325 
L 119.047623 25.91325 
L 121.599896 25.91325 
L 124.152168 25.91325 
L 126.704441 25.91325 
L 129.256714 25.91325 
L 131.808987 25.91325 
L 134.361259 25.91325 
L 136.913532 25.91325 
L 139.465805 25.91325 
L 142.018077 25.91325 
L 144.57035 25.91325 
L 147.122623 25.91325 
L 149.674896 25.91325 
L 152.227168 25.91325 
L 154.779441 25.91325 
L 157.331714 25.91325 
L 159.883987 25.91325 
L 162.436259 25.91325 
L 164.988532 25.91325 
L 167.540805 25.91325 
L 170.093077 25.91325 
L 172.64535 25.91325 
L 175.197623 25.91325 
L 177.749896 25.91325 
L 180.302168 25.91325 
L 182.854441 25.91325 
L 185.406714 25.91325 
L 187.958987 25.91325 
L 190.511259 25.91325 
L 193.063532 25.91325 
L 195.615805 25.91325 
L 198.168077 25.91325 
L 200.72035 25.91325 
L 203.272623 25.91325 
L 205.824896 25.91325 
L 208.377168 25.91325 
L 210.929441 25.91325 
L 213.481714 25.91325 
L 216.033987 25.91325 
L 218.586259 25.91325 
L 221.138532 25.91325 
L 223.690805 25.91325 
L 226.243077 25.91325 
L 228.79535 25.91325 
L 231.347623 25.91325 
L 233.899896 25.91325 
L 236.452168 25.91325 
L 239.004441 25.91325 
L 241.556714 25.91325 
L 244.108987 25.91325 
L 246.661259 25.91325 
L 249.213532 25.91325 
L 251.765805 25.91325 
L 254.318077 25.91325 
L 256.87035 25.91325 
L 259.422623 25.91325 
L 261.974896 25.91325 
L 264.527168 25.91325 
L 267.079441 25.91325 
L 269.631714 25.91325 
L 272.183987 25.91325 
L 274.736259 25.91325 
L 277.288532 25.91325 
L 279.840805 25.91325 
L 282.393077 25.91325 
L 284.94535 25.91325 
L 287.497623 25.91325 
L 290.049896 25.91325 
L 292.602168 25.91325 
L 295.154441 25.91325 
L 297.706714 25.91325 
L 300.258987 25.91325 
L 302.811259 25.91325 
L 305.363532 25.91325 
L 307.915805 25.91325 
L 310.468077 25.91325 
L 313.02035 25.91325 
L 315.572623 25.91325 
L 318.124896 25.91325 
" style="fill:none;stroke:#34ae91;stroke-linecap:round;stroke-width:1.5;"/>
   </g>
   <g id="line2d_6">
    <path clip-path="url(#p536c072f3b)" d="M 65.449896 236.278986 
L 68.002168 236.278986 
L 70.554441 236.278986 
L 73.106714 233.668406 
L 75.658987 232.903488 
L 78.211259 232.147742 
L 80.763532 231.999808 
L 83.315805 229.782049 
L 85.868077 229.331535 
L 88.42035 228.435151 
L 90.972623 227.752975 
L 93.524896 224.576639 
L 96.077168 222.749883 
L 98.629441 222.601447 
L 101.181714 222.298028 
L 103.733987 221.674718 
L 106.286259 219.124083 
L 108.838532 219.01247 
L 111.390805 218.067682 
L 113.943077 216.136794 
L 116.49535 215.367138 
L 119.047623 213.532121 
L 121.599896 213.446641 
L 124.152168 212.77402 
L 126.704441 212.385251 
L 129.256714 212.083063 
L 131.808987 208.903691 
L 134.361259 208.80727 
L 136.913532 208.463864 
L 139.465805 208.289222 
L 142.018077 207.928787 
L 144.57035 207.653844 
L 147.122623 207.396194 
L 149.674896 207.387947 
L 152.227168 205.745483 
L 154.779441 205.439119 
L 157.331714 205.355815 
L 159.883987 205.236435 
L 162.436259 205.034328 
L 164.988532 204.432761 
L 167.540805 204.129858 
L 170.093077 203.890509 
L 172.64535 203.886627 
L 175.197623 203.769124 
L 177.749896 203.111296 
L 180.302168 202.996764 
L 182.854441 201.853874 
L 185.406714 201.516914 
L 187.958987 201.356178 
L 190.511259 201.03914 
L 193.063532 200.910443 
L 195.615805 200.894584 
L 198.168077 200.689826 
L 200.72035 200.629161 
L 203.272623 200.60592 
L 205.824896 200.085842 
L 208.377168 199.477045 
L 210.929441 198.224603 
L 213.481714 198.198032 
L 216.033987 198.07098 
L 218.586259 197.895209 
L 221.138532 197.581768 
L 223.690805 197.224144 
L 226.243077 197.194681 
L 228.79535 196.533687 
L 231.347623 196.339005 
L 233.899896 195.832592 
L 236.452168 194.760491 
L 239.004441 194.058826 
L 241.556714 193.411248 
L 244.108987 193.290293 
L 246.661259 192.967516 
L 249.213532 192.791832 
L 251.765805 192.727369 
L 254.318077 192.686789 
L 256.87035 192.244492 
L 259.422623 192.238666 
L 261.974896 192.125667 
L 264.527168 191.940679 
L 267.079441 191.880102 
L 269.631714 191.580271 
L 272.183987 190.641988 
L 274.736259 190.32476 
L 277.288532 190.282041 
L 279.840805 188.686121 
L 282.393077 188.249033 
L 284.94535 188.138316 
L 287.497623 187.55397 
L 290.049896 187.285255 
L 292.602168 186.954757 
L 295.154441 185.899311 
L 297.706714 182.633385 
L 300.258987 176.485704 
L 302.811259 175.503563 
L 305.363532 166.038233 
L 307.915805 161.912116 
L 310.468077 151.830315 
L 313.02035 147.146945 
L 315.572623 129.435396 
L 318.124896 126.538442 
" style="fill:none;stroke:#37abb5;stroke-linecap:round;stroke-width:1.5;"/>
   </g>
   <g id="line2d_7">
    <path clip-path="url(#p536c072f3b)" d="M 65.449896 236.278986 
L 68.002168 236.278986 
L 70.554441 236.278986 
L 73.106714 236.278986 
L 75.658987 236.278986 
L 78.211259 236.278986 
L 80.763532 236.278986 
L 83.315805 236.278986 
L 85.868077 236.278986 
L 88.42035 236.278986 
L 90.972623 236.278986 
L 93.524896 236.278986 
L 96.077168 236.278986 
L 98.629441 236.278986 
L 101.181714 220.463183 
L 103.733987 215.812118 
L 106.286259 214.663507 
L 108.838532 213.52035 
L 111.390805 211.626933 
L 113.943077 205.294386 
L 116.49535 143.156246 
L 119.047623 142.832044 
L 121.599896 101.745211 
L 124.152168 99.491491 
L 126.704441 53.577742 
L 129.256714 25.91325 
L 131.808987 25.91325 
L 134.361259 25.91325 
L 136.913532 25.91325 
L 139.465805 25.91325 
L 142.018077 25.91325 
L 144.57035 25.91325 
L 147.122623 25.91325 
L 149.674896 25.91325 
L 152.227168 25.91325 
L 154.779441 25.91325 
L 157.331714 25.91325 
L 159.883987 25.91325 
L 162.436259 25.91325 
L 164.988532 25.91325 
L 167.540805 25.91325 
L 170.093077 25.91325 
L 172.64535 25.91325 
L 175.197623 25.91325 
L 177.749896 25.91325 
L 180.302168 25.91325 
L 182.854441 25.91325 
L 185.406714 25.91325 
L 187.958987 25.91325 
L 190.511259 25.91325 
L 193.063532 25.91325 
L 195.615805 25.91325 
L 198.168077 25.91325 
L 200.72035 25.91325 
L 203.272623 25.91325 
L 205.824896 25.91325 
L 208.377168 25.91325 
L 210.929441 25.91325 
L 213.481714 25.91325 
L 216.033987 25.91325 
L 218.586259 25.91325 
L 221.138532 25.91325 
L 223.690805 25.91325 
L 226.243077 25.91325 
L 228.79535 25.91325 
L 231.347623 25.91325 
L 233.899896 25.91325 
L 236.452168 25.91325 
L 239.004441 25.91325 
L 241.556714 25.91325 
L 244.108987 25.91325 
L 246.661259 25.91325 
L 249.213532 25.91325 
L 251.765805 25.91325 
L 254.318077 25.91325 
L 256.87035 25.91325 
L 259.422623 25.91325 
L 261.974896 25.91325 
L 264.527168 25.91325 
L 267.079441 25.91325 
L 269.631714 25.91325 
L 272.183987 25.91325 
L 274.736259 25.91325 
L 277.288532 25.91325 
L 279.840805 25.91325 
L 282.393077 25.91325 
L 284.94535 25.91325 
L 287.497623 25.91325 
L 290.049896 25.91325 
L 292.602168 25.91325 
L 295.154441 25.91325 
L 297.706714 25.91325 
L 300.258987 25.91325 
L 302.811259 25.91325 
L 305.363532 25.91325 
L 307.915805 25.91325 
L 310.468077 25.91325 
L 313.02035 25.91325 
L 315.572623 25.91325 
L 318.124896 25.91325 
" style="fill:none;stroke:#3ba3ec;stroke-linecap:round;stroke-width:1.5;"/>
   </g>
   <g id="line2d_8">
    <path clip-path="url(#p536c072f3b)" d="M 65.449896 236.278986 
L 68.002168 235.602143 
L 70.554441 229.557938 
L 73.106714 227.55301 
L 75.658987 225.645086 
L 78.211259 225.324856 
L 80.763532 224.262569 
L 83.315805 223.431195 
L 85.868077 223.412951 
L 88.42035 223.211186 
L 90.972623 222.474134 
L 93.524896 220.62956 
L 96.077168 220.33431 
L 98.629441 220.298674 
L 101.181714 218.55459 
L 103.733987 218.181944 
L 106.286259 215.774884 
L 108.838532 214.250907 
L 111.390805 213.98774 
L 113.943077 213.917163 
L 116.49535 210.876468 
L 119.047623 209.580349 
L 121.599896 209.253236 
L 124.152168 209.03359 
L 126.704441 208.329343 
L 129.256714 207.842718 
L 131.808987 207.22713 
L 134.361259 205.297325 
L 136.913532 204.714532 
L 139.465805 204.096202 
L 142.018077 202.524019 
L 144.57035 202.42273 
L 147.122623 202.06496 
L 149.674896 201.912584 
L 152.227168 200.762353 
L 154.779441 200.408536 
L 157.331714 199.764758 
L 159.883987 199.614834 
L 162.436259 198.631368 
L 164.988532 198.318169 
L 167.540805 197.187335 
L 170.093077 196.141908 
L 172.64535 194.935107 
L 175.197623 193.837214 
L 177.749896 193.629702 
L 180.302168 193.253471 
L 182.854441 191.314195 
L 185.406714 190.879064 
L 187.958987 190.656248 
L 190.511259 190.164255 
L 193.063532 189.864725 
L 195.615805 189.532153 
L 198.168077 189.160263 
L 200.72035 188.893728 
L 203.272623 188.687117 
L 205.824896 187.977551 
L 208.377168 187.882541 
L 210.929441 187.532296 
L 213.481714 187.51064 
L 216.033987 185.952906 
L 218.586259 185.860136 
L 221.138532 185.788064 
L 223.690805 185.525095 
L 226.243077 185.188591 
L 228.79535 184.527263 
L 231.347623 184.4777 
L 233.899896 182.692184 
L 236.452168 182.327295 
L 239.004441 181.292935 
L 241.556714 181.007935 
L 244.108987 180.68658 
L 246.661259 178.382034 
L 249.213532 177.859578 
L 251.765805 177.603523 
L 254.318077 177.113002 
L 256.87035 175.614753 
L 259.422623 174.559066 
L 261.974896 173.814223 
L 264.527168 173.782405 
L 267.079441 173.044341 
L 269.631714 172.836334 
L 272.183987 172.605501 
L 274.736259 171.377493 
L 277.288532 169.806504 
L 279.840805 168.431452 
L 282.393077 167.675051 
L 284.94535 167.359352 
L 287.497623 166.812675 
L 290.049896 163.740651 
L 292.602168 160.23115 
L 295.154441 160.029759 
L 297.706714 159.557834 
L 300.258987 158.50898 
L 302.811259 157.02005 
L 305.363532 155.983711 
L 307.915805 146.97008 
L 310.468077 145.567022 
L 313.02035 144.832692 
L 315.572623 129.549609 
L 318.124896 116.456975 
" style="fill:none;stroke:#bb83f4;stroke-linecap:round;stroke-width:1.5;"/>
   </g>
   <g id="line2d_9">
    <path clip-path="url(#p536c072f3b)" d="M 65.449896 236.278986 
L 68.002168 236.278986 
L 70.554441 236.278986 
L 73.106714 236.278986 
L 75.658987 236.278986 
L 78.211259 234.239489 
L 80.763532 233.802828 
L 83.315805 233.611167 
L 85.868077 233.462517 
L 88.42035 232.627598 
L 90.972623 232.550413 
L 93.524896 230.827199 
L 96.077168 229.7189 
L 98.629441 227.831439 
L 101.181714 225.948274 
L 103.733987 223.994795 
L 106.286259 221.199406 
L 108.838532 220.790204 
L 111.390805 220.347325 
L 113.943077 219.415511 
L 116.49535 212.108627 
L 119.047623 211.917842 
L 121.599896 210.041254 
L 124.152168 209.572317 
L 126.704441 207.464382 
L 129.256714 207.012991 
L 131.808987 203.884064 
L 134.361259 201.980206 
L 136.913532 201.772181 
L 139.465805 200.079956 
L 142.018077 200.073834 
L 144.57035 199.728834 
L 147.122623 199.511977 
L 149.674896 199.37502 
L 152.227168 196.693903 
L 154.779441 196.409382 
L 157.331714 193.193571 
L 159.883987 192.780844 
L 162.436259 192.366393 
L 164.988532 192.304195 
L 167.540805 190.293618 
L 170.093077 189.472518 
L 172.64535 189.204316 
L 175.197623 188.842006 
L 177.749896 188.784338 
L 180.302168 188.233514 
L 182.854441 188.206794 
L 185.406714 188.179986 
L 187.958987 187.897251 
L 190.511259 187.30601 
L 193.063532 187.18227 
L 195.615805 186.622642 
L 198.168077 185.982818 
L 200.72035 184.539184 
L 203.272623 184.058959 
L 205.824896 183.674552 
L 208.377168 183.659944 
L 210.929441 183.039666 
L 213.481714 181.816549 
L 216.033987 181.128122 
L 218.586259 180.00134 
L 221.138532 178.920336 
L 223.690805 178.843499 
L 226.243077 177.582058 
L 228.79535 176.835627 
L 231.347623 176.424784 
L 233.899896 176.229102 
L 236.452168 176.084717 
L 239.004441 175.974955 
L 241.556714 174.879838 
L 244.108987 174.289422 
L 246.661259 173.012764 
L 249.213532 172.753952 
L 251.765805 172.486001 
L 254.318077 172.404026 
L 256.87035 171.774032 
L 259.422623 171.108659 
L 261.974896 168.791904 
L 264.527168 168.393487 
L 267.079441 167.131864 
L 269.631714 166.141255 
L 272.183987 165.258922 
L 274.736259 157.567967 
L 277.288532 157.462136 
L 279.840805 155.294701 
L 282.393077 153.865767 
L 284.94535 153.769071 
L 287.497623 153.682823 
L 290.049896 152.677102 
L 292.602168 152.437561 
L 295.154441 145.19501 
L 297.706714 144.616476 
L 300.258987 139.254885 
L 302.811259 137.038741 
L 305.363532 134.680729 
L 307.915805 133.152586 
L 310.468077 132.492892 
L 313.02035 129.768472 
L 315.572623 125.820075 
L 318.124896 112.080824 
" style="fill:none;stroke:#f564d4;stroke-linecap:round;stroke-width:1.5;"/>
   </g>
   <g id="line2d_10">
    <path clip-path="url(#p536c072f3b)" d="M 65.449896 199.803919 
L 68.002168 190.400602 
L 70.554441 189.494475 
L 73.106714 186.548456 
L 75.658987 184.95571 
L 78.211259 184.766218 
L 80.763532 184.059087 
L 83.315805 183.008417 
L 85.868077 182.370481 
L 88.42035 178.35002 
L 90.972623 173.754555 
L 93.524896 173.709764 
L 96.077168 173.24428 
L 98.629441 171.815221 
L 101.181714 170.581319 
L 103.733987 170.341257 
L 106.286259 170.323792 
L 108.838532 170.312456 
L 111.390805 169.686672 
L 113.943077 167.321253 
L 116.49535 166.862185 
L 119.047623 166.729683 
L 121.599896 165.507156 
L 124.152168 165.38192 
L 126.704441 164.882533 
L 129.256714 164.689813 
L 131.808987 164.345074 
L 134.361259 164.324044 
L 136.913532 164.182877 
L 139.465805 164.038606 
L 142.018077 163.606984 
L 144.57035 162.833599 
L 147.122623 162.510904 
L 149.674896 162.417725 
L 152.227168 162.36892 
L 154.779441 162.154549 
L 157.331714 162.01181 
L 159.883987 161.594728 
L 162.436259 160.611268 
L 164.988532 158.939509 
L 167.540805 158.806631 
L 170.093077 158.423173 
L 172.64535 157.899945 
L 175.197623 157.70086 
L 177.749896 157.688132 
L 180.302168 157.120145 
L 182.854441 156.970058 
L 185.406714 156.85117 
L 187.958987 155.90291 
L 190.511259 155.049249 
L 193.063532 154.9707 
L 195.615805 154.778763 
L 198.168077 154.73503 
L 200.72035 154.732626 
L 203.272623 154.62192 
L 205.824896 154.527494 
L 208.377168 154.494343 
L 210.929441 154.269822 
L 213.481714 154.052707 
L 216.033987 154.029964 
L 218.586259 153.838506 
L 221.138532 153.624532 
L 223.690805 152.956795 
L 226.243077 152.81366 
L 228.79535 151.733955 
L 231.347623 150.367369 
L 233.899896 150.221393 
L 236.452168 150.210255 
L 239.004441 150.141244 
L 241.556714 149.626725 
L 244.108987 148.312928 
L 246.661259 147.637754 
L 249.213532 147.102796 
L 251.765805 145.87495 
L 254.318077 145.184292 
L 256.87035 144.614824 
L 259.422623 143.255635 
L 261.974896 143.022077 
L 264.527168 143.00732 
L 267.079441 142.462793 
L 269.631714 142.039149 
L 272.183987 141.774942 
L 274.736259 141.442184 
L 277.288532 138.803209 
L 279.840805 138.675314 
L 282.393077 138.307721 
L 284.94535 137.893475 
L 287.497623 136.492293 
L 290.049896 136.342482 
L 292.602168 135.164955 
L 295.154441 134.698346 
L 297.706714 133.113309 
L 300.258987 132.853493 
L 302.811259 132.423773 
L 305.363532 132.140953 
L 307.915805 128.738985 
L 310.468077 127.977304 
L 313.02035 126.38232 
L 315.572623 125.466143 
L 318.124896 122.912943 
" style="fill:none;stroke:#000000;stroke-linecap:round;stroke-width:6;"/>
   </g>
   <g id="patch_3">
    <path d="M 65.449896 278.58825 
L 65.449896 25.91325 
" style="fill:none;stroke:#262626;stroke-linecap:square;stroke-linejoin:miter;stroke-width:1.25;"/>
   </g>
   <g id="patch_4">
    <path d="M 65.449896 278.58825 
L 318.124896 278.58825 
" style="fill:none;stroke:#262626;stroke-linecap:square;stroke-linejoin:miter;stroke-width:1.25;"/>
   </g>
   <g id="legend_1">
    <g id="patch_5">
     <path d="M 73.149896 196.172625 
L 171.132396 196.172625 
Q 173.332396 196.172625 173.332396 193.972625 
L 173.332396 33.61325 
Q 173.332396 31.41325 171.132396 31.41325 
L 73.149896 31.41325 
Q 70.949896 31.41325 70.949896 33.61325 
L 70.949896 193.972625 
Q 70.949896 196.172625 73.149896 196.172625 
z
" style="fill:#ffffff;opacity:0.8;stroke:#cccccc;stroke-linejoin:miter;"/>
    </g>
    <g id="line2d_11">
     <path d="M 75.349896 40.321531 
L 97.349896 40.321531 
" style="fill:none;stroke:#f77189;stroke-linecap:round;stroke-width:1.5;"/>
    </g>
    <g id="line2d_12"/>
    <g id="text_15">
     <text style="fill:#262626;font-family:DejaVu Sans;font-size:11px;font-stretch:normal;font-style:normal;font-weight:normal;text-anchor:start;" transform="rotate(-0, 106.149896, 44.171531)" x="106.149896" y="44.171531">CT</text>
    </g>
    <g id="line2d_13">
     <path d="M 75.349896 56.467469 
L 97.349896 56.467469 
" style="fill:none;stroke:#d58c32;stroke-linecap:round;stroke-width:1.5;"/>
    </g>
    <g id="line2d_14"/>
    <g id="text_16">
     <text style="fill:#262626;font-family:DejaVu Sans;font-size:11px;font-stretch:normal;font-style:normal;font-weight:normal;text-anchor:start;" transform="rotate(-0, 106.149896, 60.317469)" x="106.149896" y="60.317469">ET</text>
    </g>
    <g id="line2d_15">
     <path d="M 75.349896 72.613406 
L 97.349896 72.613406 
" style="fill:none;stroke:#a4a031;stroke-linecap:round;stroke-width:1.5;"/>
    </g>
    <g id="line2d_16"/>
    <g id="text_17">
     <text style="fill:#262626;font-family:DejaVu Sans;font-size:11px;font-stretch:normal;font-style:normal;font-weight:normal;text-anchor:start;" transform="rotate(-0, 106.149896, 76.463406)" x="106.149896" y="76.463406">IT</text>
    </g>
    <g id="line2d_17">
     <path d="M 75.349896 88.759344 
L 97.349896 88.759344 
" style="fill:none;stroke:#50b131;stroke-linecap:round;stroke-width:1.5;"/>
    </g>
    <g id="line2d_18"/>
    <g id="text_18">
     <text style="fill:#262626;font-family:DejaVu Sans;font-size:11px;font-stretch:normal;font-style:normal;font-weight:normal;text-anchor:start;" transform="rotate(-0, 106.149896, 92.609344)" x="106.149896" y="92.609344">Lamp5</text>
    </g>
    <g id="line2d_19">
     <path d="M 75.349896 104.905281 
L 97.349896 104.905281 
" style="fill:none;stroke:#34ae91;stroke-linecap:round;stroke-width:1.5;"/>
    </g>
    <g id="line2d_20"/>
    <g id="text_19">
     <text style="fill:#262626;font-family:DejaVu Sans;font-size:11px;font-stretch:normal;font-style:normal;font-weight:normal;text-anchor:start;" transform="rotate(-0, 106.149896, 108.755281)" x="106.149896" y="108.755281">NP</text>
    </g>
    <g id="line2d_21">
     <path d="M 75.349896 121.051219 
L 97.349896 121.051219 
" style="fill:none;stroke:#37abb5;stroke-linecap:round;stroke-width:1.5;"/>
    </g>
    <g id="line2d_22"/>
    <g id="text_20">
     <text style="fill:#262626;font-family:DejaVu Sans;font-size:11px;font-stretch:normal;font-style:normal;font-weight:normal;text-anchor:start;" transform="rotate(-0, 106.149896, 124.901219)" x="106.149896" y="124.901219">Pvalb</text>
    </g>
    <g id="line2d_23">
     <path d="M 75.349896 137.197156 
L 97.349896 137.197156 
" style="fill:none;stroke:#3ba3ec;stroke-linecap:round;stroke-width:1.5;"/>
    </g>
    <g id="line2d_24"/>
    <g id="text_21">
     <text style="fill:#262626;font-family:DejaVu Sans;font-size:11px;font-stretch:normal;font-style:normal;font-weight:normal;text-anchor:start;" transform="rotate(-0, 106.149896, 141.047156)" x="106.149896" y="141.047156">Sncg</text>
    </g>
    <g id="line2d_25">
     <path d="M 75.349896 153.343094 
L 97.349896 153.343094 
" style="fill:none;stroke:#bb83f4;stroke-linecap:round;stroke-width:1.5;"/>
    </g>
    <g id="line2d_26"/>
    <g id="text_22">
     <text style="fill:#262626;font-family:DejaVu Sans;font-size:11px;font-stretch:normal;font-style:normal;font-weight:normal;text-anchor:start;" transform="rotate(-0, 106.149896, 157.193094)" x="106.149896" y="157.193094">Sst</text>
    </g>
    <g id="line2d_27">
     <path d="M 75.349896 169.489031 
L 97.349896 169.489031 
" style="fill:none;stroke:#f564d4;stroke-linecap:round;stroke-width:1.5;"/>
    </g>
    <g id="line2d_28"/>
    <g id="text_23">
     <text style="fill:#262626;font-family:DejaVu Sans;font-size:11px;font-stretch:normal;font-style:normal;font-weight:normal;text-anchor:start;" transform="rotate(-0, 106.149896, 173.339031)" x="106.149896" y="173.339031">Vip</text>
    </g>
    <g id="line2d_29">
     <path d="M 75.349896 185.634969 
L 97.349896 185.634969 
" style="fill:none;stroke:#000000;stroke-linecap:round;stroke-width:6;"/>
    </g>
    <g id="line2d_30"/>
    <g id="text_24">
     <text style="fill:#262626;font-family:DejaVu Sans;font-size:11px;font-stretch:normal;font-style:normal;font-weight:normal;text-anchor:start;" transform="rotate(-0, 106.149896, 189.484969)" x="106.149896" y="189.484969">Cumulative</text>
    </g>
   </g>
  </g>
 </g>
 <defs>
  <clipPath id="p536c072f3b">
   <rect height="252.675" width="252.675" x="65.449896" y="25.91325"/>
  </clipPath>
 </defs>
</svg>
