<?xml version="1.0" encoding="utf-8" standalone="no"?>
<!DOCTYPE svg PUBLIC "-//W3C//DTD SVG 1.1//EN"
  "http://www.w3.org/Graphics/SVG/1.1/DTD/svg11.dtd">
<svg xmlns:xlink="http://www.w3.org/1999/xlink" width="337.247468pt" height="321.687679pt" viewBox="0 0 337.247468 321.687679" xmlns="http://www.w3.org/2000/svg" version="1.1">
 <metadata>
  <rdf:RDF xmlns:dc="http://purl.org/dc/elements/1.1/" xmlns:cc="http://creativecommons.org/ns#" xmlns:rdf="http://www.w3.org/1999/02/22-rdf-syntax-ns#">
   <cc:Work>
    <dc:type rdf:resource="http://purl.org/dc/dcmitype/StillImage"/>
    <dc:date>2023-09-02T13:59:20.474653</dc:date>
    <dc:format>image/svg+xml</dc:format>
    <dc:creator>
     <cc:Agent>
      <dc:title>Matplotlib v3.7.2, https://matplotlib.org/</dc:title>
     </cc:Agent>
    </dc:creator>
   </cc:Work>
  </rdf:RDF>
 </metadata>
 <defs>
  <style type="text/css">*{stroke-linejoin: round; stroke-linecap: butt}</style>
 </defs>
 <g id="figure_1">
  <g id="patch_1">
   <path d="M 0 321.687679 
L 337.247468 321.687679 
L 337.247468 0 
L 0 0 
z
" style="fill: #ffffff"/>
  </g>
  <g id="axes_1">
   <g id="patch_2">
    <path d="M 65.449896 265.571549 
L 318.124896 265.571549 
L 318.124896 12.896549 
L 65.449896 12.896549 
z
" style="fill: #ffffff"/>
   </g>
   <g id="matplotlib.axis_1">
    <g id="xtick_1">
     <g id="text_1">
      <text style="fill: #262626; font: 14.994px 'Arial', 'DejaVu Sans', 'Liberation Sans', 'Bitstream Vera Sans', sans-serif; text-anchor: middle" x="65.449896" y="286.464646" transform="rotate(-0 65.449896 286.464646)">0.0</text>
     </g>
    </g>
    <g id="xtick_2">
     <g id="text_2">
      <text style="fill: #262626; font: 14.994px 'Arial', 'DejaVu Sans', 'Liberation Sans', 'Bitstream Vera Sans', sans-serif; text-anchor: middle" x="115.984896" y="286.464646" transform="rotate(-0 115.984896 286.464646)">0.2</text>
     </g>
    </g>
    <g id="xtick_3">
     <g id="text_3">
      <text style="fill: #262626; font: 14.994px 'Arial', 'DejaVu Sans', 'Liberation Sans', 'Bitstream Vera Sans', sans-serif; text-anchor: middle" x="166.519896" y="286.464646" transform="rotate(-0 166.519896 286.464646)">0.4</text>
     </g>
    </g>
    <g id="xtick_4">
     <g id="text_4">
      <text style="fill: #262626; font: 14.994px 'Arial', 'DejaVu Sans', 'Liberation Sans', 'Bitstream Vera Sans', sans-serif; text-anchor: middle" x="217.054896" y="286.464646" transform="rotate(-0 217.054896 286.464646)">0.6</text>
     </g>
    </g>
    <g id="xtick_5">
     <g id="text_5">
      <text style="fill: #262626; font: 14.994px 'Arial', 'DejaVu Sans', 'Liberation Sans', 'Bitstream Vera Sans', sans-serif; text-anchor: middle" x="267.589896" y="286.464646" transform="rotate(-0 267.589896 286.464646)">0.8</text>
     </g>
    </g>
    <g id="xtick_6">
     <g id="text_6">
      <text style="fill: #262626; font: 14.994px 'Arial', 'DejaVu Sans', 'Liberation Sans', 'Bitstream Vera Sans', sans-serif; text-anchor: middle" x="318.124896" y="286.464646" transform="rotate(-0 318.124896 286.464646)">1.0</text>
     </g>
    </g>
    <g id="text_7">
     <text style="fill: #262626; font: 21.6px 'Arial', 'DejaVu Sans', 'Liberation Sans', 'Bitstream Vera Sans', sans-serif; text-anchor: middle" x="191.787396" y="309.995554" transform="rotate(-0 191.787396 309.995554)">Percentile</text>
    </g>
   </g>
   <g id="matplotlib.axis_2">
    <g id="ytick_1">
     <g id="text_8">
      <text style="fill: #262626; font: 14.994px 'Arial', 'DejaVu Sans', 'Liberation Sans', 'Bitstream Vera Sans', sans-serif; text-anchor: end" x="55.949896" y="271.268097" transform="rotate(-0 55.949896 271.268097)">0.0</text>
     </g>
    </g>
    <g id="ytick_2">
     <g id="text_9">
      <text style="fill: #262626; font: 14.994px 'Arial', 'DejaVu Sans', 'Liberation Sans', 'Bitstream Vera Sans', sans-serif; text-anchor: end" x="55.949896" y="220.733097" transform="rotate(-0 55.949896 220.733097)">0.2</text>
     </g>
    </g>
    <g id="ytick_3">
     <g id="text_10">
      <text style="fill: #262626; font: 14.994px 'Arial', 'DejaVu Sans', 'Liberation Sans', 'Bitstream Vera Sans', sans-serif; text-anchor: end" x="55.949896" y="170.198097" transform="rotate(-0 55.949896 170.198097)">0.4</text>
     </g>
    </g>
    <g id="ytick_4">
     <g id="text_11">
      <text style="fill: #262626; font: 14.994px 'Arial', 'DejaVu Sans', 'Liberation Sans', 'Bitstream Vera Sans', sans-serif; text-anchor: end" x="55.949896" y="119.663097" transform="rotate(-0 55.949896 119.663097)">0.6</text>
     </g>
    </g>
    <g id="ytick_5">
     <g id="text_12">
      <text style="fill: #262626; font: 14.994px 'Arial', 'DejaVu Sans', 'Liberation Sans', 'Bitstream Vera Sans', sans-serif; text-anchor: end" x="55.949896" y="69.128097" transform="rotate(-0 55.949896 69.128097)">0.8</text>
     </g>
    </g>
    <g id="ytick_6">
     <g id="text_13">
      <text style="fill: #262626; font: 14.994px 'Arial', 'DejaVu Sans', 'Liberation Sans', 'Bitstream Vera Sans', sans-serif; text-anchor: end" x="55.949896" y="18.593097" transform="rotate(-0 55.949896 18.593097)">1.0</text>
     </g>
    </g>
    <g id="text_14">
     <text style="fill: #262626; font: 21.6px 'Arial', 'DejaVu Sans', 'Liberation Sans', 'Bitstream Vera Sans', sans-serif; text-anchor: middle" x="23.612625" y="139.234049" transform="rotate(-90 23.612625 139.234049)">Modality 2 Similarity</text>
    </g>
   </g>
   <g id="line2d_1">
    <path d="M 65.449896 182.566834 
L 68.002168 182.024345 
L 70.554441 180.5598 
L 73.106714 176.606266 
L 75.658987 172.916691 
L 78.211259 172.778092 
L 80.763532 171.266254 
L 83.315805 170.739203 
L 85.868077 169.30814 
L 88.42035 167.128709 
L 90.972623 166.478885 
L 93.524896 164.717141 
L 96.077168 163.14306 
L 98.629441 158.306195 
L 101.181714 158.175052 
L 103.733987 156.168388 
L 106.286259 155.296935 
L 108.838532 155.120237 
L 111.390805 151.776043 
L 113.943077 149.234898 
L 116.49535 148.684716 
L 119.047623 148.292214 
L 121.599896 142.587088 
L 124.152168 141.186818 
L 126.704441 139.603709 
L 129.256714 138.850285 
L 131.808987 138.010813 
L 134.361259 137.647729 
L 136.913532 136.587221 
L 139.465805 132.945343 
L 142.018077 131.762874 
L 144.57035 130.791458 
L 147.122623 128.224812 
L 149.674896 128.007333 
L 152.227168 122.701235 
L 154.779441 120.822193 
L 157.331714 120.147142 
L 159.883987 116.928475 
L 162.436259 116.085565 
L 164.988532 115.405888 
L 167.540805 115.306505 
L 170.093077 115.25264 
L 172.64535 114.805671 
L 175.197623 113.678716 
L 177.749896 113.442368 
L 180.302168 112.487076 
L 182.854441 111.984163 
L 185.406714 110.995206 
L 187.958987 110.543429 
L 190.511259 104.447301 
L 193.063532 99.076667 
L 195.615805 98.905289 
L 198.168077 94.129649 
L 200.72035 90.852817 
L 203.272623 90.484524 
L 205.824896 90.051444 
L 208.377168 89.759289 
L 210.929441 87.234201 
L 213.481714 87.234201 
L 216.033987 87.234201 
L 218.586259 87.234201 
L 221.138532 87.10435 
L 223.690805 87.103228 
L 226.243077 87.103228 
L 228.79535 85.511905 
L 231.347623 83.68032 
L 233.899896 79.95639 
L 236.452168 79.363506 
L 239.004441 79.351913 
L 241.556714 75.510682 
L 244.108987 66.164502 
L 246.661259 62.943085 
L 249.213532 56.600253 
L 251.765805 12.896549 
L 254.318077 12.896549 
L 256.87035 12.896549 
L 259.422623 12.896549 
L 261.974896 12.896549 
L 264.527168 12.896549 
L 267.079441 12.896549 
L 269.631714 12.896549 
L 272.183987 12.896549 
L 274.736259 12.896549 
L 277.288532 12.896549 
L 279.840805 12.896549 
L 282.393077 12.896549 
L 284.94535 12.896549 
L 287.497623 12.896549 
L 290.049896 12.896549 
L 292.602168 12.896549 
L 295.154441 12.896549 
L 297.706714 12.896549 
L 300.258987 12.896549 
L 302.811259 12.896549 
L 305.363532 12.896549 
L 307.915805 12.896549 
L 310.468077 12.896549 
L 313.02035 12.896549 
L 315.572623 12.896549 
L 318.124896 12.896549 
" clip-path="url(#p8a68e272ce)" style="fill: none; stroke: #f77189; stroke-width: 1.5; stroke-linecap: round"/>
   </g>
   <g id="line2d_2">
    <path d="M 65.449896 194.597781 
L 68.002168 183.338949 
L 70.554441 178.458115 
L 73.106714 175.190299 
L 75.658987 174.991224 
L 78.211259 173.832231 
L 80.763532 172.38357 
L 83.315805 166.515918 
L 85.868077 164.065735 
L 88.42035 159.807524 
L 90.972623 159.590399 
L 93.524896 158.018829 
L 96.077168 154.107075 
L 98.629441 153.150724 
L 101.181714 152.931848 
L 103.733987 152.711318 
L 106.286259 152.197274 
L 108.838532 151.218801 
L 111.390805 149.68745 
L 113.943077 148.322978 
L 116.49535 147.906321 
L 119.047623 147.473597 
L 121.599896 147.390089 
L 124.152168 147.000716 
L 126.704441 144.671548 
L 129.256714 144.105154 
L 131.808987 142.929926 
L 134.361259 142.586665 
L 136.913532 141.960019 
L 139.465805 140.809997 
L 142.018077 139.149692 
L 144.57035 138.761741 
L 147.122623 138.10253 
L 149.674896 137.771608 
L 152.227168 134.327634 
L 154.779441 133.425144 
L 157.331714 133.402058 
L 159.883987 133.108257 
L 162.436259 132.045139 
L 164.988532 131.972542 
L 167.540805 129.528508 
L 170.093077 127.375956 
L 172.64535 123.709531 
L 175.197623 123.680945 
L 177.749896 123.482904 
L 180.302168 120.761669 
L 182.854441 118.240047 
L 185.406714 116.178257 
L 187.958987 114.28596 
L 190.511259 113.007804 
L 193.063532 111.292017 
L 195.615805 110.635502 
L 198.168077 109.482749 
L 200.72035 109.229248 
L 203.272623 107.206761 
L 205.824896 106.616852 
L 208.377168 104.428401 
L 210.929441 102.925867 
L 213.481714 102.738334 
L 216.033987 97.576031 
L 218.586259 95.569791 
L 221.138532 95.569791 
L 223.690805 95.569791 
L 226.243077 95.569791 
L 228.79535 95.569791 
L 231.347623 95.569791 
L 233.899896 95.269103 
L 236.452168 87.125942 
L 239.004441 81.789238 
L 241.556714 78.78323 
L 244.108987 77.220954 
L 246.661259 71.250089 
L 249.213532 54.22048 
L 251.765805 12.896549 
L 254.318077 12.896549 
L 256.87035 12.896549 
L 259.422623 12.896549 
L 261.974896 12.896549 
L 264.527168 12.896549 
L 267.079441 12.896549 
L 269.631714 12.896549 
L 272.183987 12.896549 
L 274.736259 12.896549 
L 277.288532 12.896549 
L 279.840805 12.896549 
L 282.393077 12.896549 
L 284.94535 12.896549 
L 287.497623 12.896549 
L 290.049896 12.896549 
L 292.602168 12.896549 
L 295.154441 12.896549 
L 297.706714 12.896549 
L 300.258987 12.896549 
L 302.811259 12.896549 
L 305.363532 12.896549 
L 307.915805 12.896549 
L 310.468077 12.896549 
L 313.02035 12.896549 
L 315.572623 12.896549 
L 318.124896 12.896549 
" clip-path="url(#p8a68e272ce)" style="fill: none; stroke: #dc8932; stroke-width: 1.5; stroke-linecap: round"/>
   </g>
   <g id="line2d_3">
    <path d="M 65.449896 223.262285 
L 68.002168 223.262285 
L 70.554441 223.262285 
L 73.106714 223.262285 
L 75.658987 222.680396 
L 78.211259 213.903674 
L 80.763532 209.257993 
L 83.315805 207.192138 
L 85.868077 206.865353 
L 88.42035 204.735602 
L 90.972623 203.783155 
L 93.524896 203.235391 
L 96.077168 198.846 
L 98.629441 196.464048 
L 101.181714 196.297851 
L 103.733987 192.716762 
L 106.286259 192.231666 
L 108.838532 191.449812 
L 111.390805 184.786943 
L 113.943077 184.442189 
L 116.49535 181.184997 
L 119.047623 180.177508 
L 121.599896 179.92937 
L 124.152168 178.161614 
L 126.704441 166.768233 
L 129.256714 166.425183 
L 131.808987 165.66286 
L 134.361259 162.918479 
L 136.913532 162.499285 
L 139.465805 162.154142 
L 142.018077 161.277044 
L 144.57035 157.979862 
L 147.122623 154.885457 
L 149.674896 154.762608 
L 152.227168 154.475905 
L 154.779441 153.537528 
L 157.331714 149.805575 
L 159.883987 147.297011 
L 162.436259 145.163177 
L 164.988532 142.408182 
L 167.540805 136.889824 
L 170.093077 134.36807 
L 172.64535 133.088869 
L 175.197623 131.327857 
L 177.749896 131.327857 
L 180.302168 131.327857 
L 182.854441 131.327857 
L 185.406714 131.327857 
L 187.958987 122.644749 
L 190.511259 122.644749 
L 193.063532 122.644749 
L 195.615805 122.644749 
L 198.168077 122.509273 
L 200.72035 122.509273 
L 203.272623 122.494049 
L 205.824896 112.514067 
L 208.377168 108.944114 
L 210.929441 107.002261 
L 213.481714 105.720146 
L 216.033987 102.921358 
L 218.586259 102.921358 
L 221.138532 102.921358 
L 223.690805 102.921358 
L 226.243077 102.921358 
L 228.79535 102.921358 
L 231.347623 102.921358 
L 233.899896 96.773617 
L 236.452168 95.132736 
L 239.004441 95.132736 
L 241.556714 95.121985 
L 244.108987 41.985689 
L 246.661259 41.985689 
L 249.213532 41.958828 
L 251.765805 12.896549 
L 254.318077 12.896549 
L 256.87035 12.896549 
L 259.422623 12.896549 
L 261.974896 12.896549 
L 264.527168 12.896549 
L 267.079441 12.896549 
L 269.631714 12.896549 
L 272.183987 12.896549 
L 274.736259 12.896549 
L 277.288532 12.896549 
L 279.840805 12.896549 
L 282.393077 12.896549 
L 284.94535 12.896549 
L 287.497623 12.896549 
L 290.049896 12.896549 
L 292.602168 12.896549 
L 295.154441 12.896549 
L 297.706714 12.896549 
L 300.258987 12.896549 
L 302.811259 12.896549 
L 305.363532 12.896549 
L 307.915805 12.896549 
L 310.468077 12.896549 
L 313.02035 12.896549 
L 315.572623 12.896549 
L 318.124896 12.896549 
" clip-path="url(#p8a68e272ce)" style="fill: none; stroke: #ae9d31; stroke-width: 1.5; stroke-linecap: round"/>
   </g>
   <g id="line2d_4">
    <path d="M 65.449896 223.262285 
L 68.002168 208.279047 
L 70.554441 198.718488 
L 73.106714 197.129918 
L 75.658987 192.874488 
L 78.211259 186.926126 
L 80.763532 183.51288 
L 83.315805 176.10142 
L 85.868077 174.780814 
L 88.42035 169.150538 
L 90.972623 168.87401 
L 93.524896 168.563138 
L 96.077168 164.583206 
L 98.629441 164.162879 
L 101.181714 163.331024 
L 103.733987 159.281498 
L 106.286259 156.487126 
L 108.838532 156.381168 
L 111.390805 154.316937 
L 113.943077 146.172096 
L 116.49535 145.495312 
L 119.047623 145.301618 
L 121.599896 145.195015 
L 124.152168 144.641258 
L 126.704441 144.043763 
L 129.256714 143.232059 
L 131.808987 142.103085 
L 134.361259 141.892372 
L 136.913532 141.836527 
L 139.465805 141.434869 
L 142.018077 134.946546 
L 144.57035 133.179391 
L 147.122623 132.461557 
L 149.674896 132.357665 
L 152.227168 132.351597 
L 154.779441 131.455975 
L 157.331714 131.153393 
L 159.883987 130.835522 
L 162.436259 129.609251 
L 164.988532 128.772922 
L 167.540805 128.772922 
L 170.093077 128.772922 
L 172.64535 128.772922 
L 175.197623 128.625714 
L 177.749896 128.625714 
L 180.302168 127.538511 
L 182.854441 127.329237 
L 185.406714 124.88458 
L 187.958987 123.984353 
L 190.511259 123.468002 
L 193.063532 121.836651 
L 195.615805 118.543197 
L 198.168077 116.934224 
L 200.72035 116.553243 
L 203.272623 115.342868 
L 205.824896 115.326154 
L 208.377168 113.93324 
L 210.929441 111.135561 
L 213.481714 110.96647 
L 216.033987 108.950351 
L 218.586259 105.02595 
L 221.138532 102.718983 
L 223.690805 99.279118 
L 226.243077 98.485476 
L 228.79535 95.240613 
L 231.347623 92.990659 
L 233.899896 90.075213 
L 236.452168 90.075213 
L 239.004441 77.025994 
L 241.556714 61.160142 
L 244.108987 50.55082 
L 246.661259 50.55082 
L 249.213532 50.548709 
L 251.765805 12.896549 
L 254.318077 12.896549 
L 256.87035 12.896549 
L 259.422623 12.896549 
L 261.974896 12.896549 
L 264.527168 12.896549 
L 267.079441 12.896549 
L 269.631714 12.896549 
L 272.183987 12.896549 
L 274.736259 12.896549 
L 277.288532 12.896549 
L 279.840805 12.896549 
L 282.393077 12.896549 
L 284.94535 12.896549 
L 287.497623 12.896549 
L 290.049896 12.896549 
L 292.602168 12.896549 
L 295.154441 12.896549 
L 297.706714 12.896549 
L 300.258987 12.896549 
L 302.811259 12.896549 
L 305.363532 12.896549 
L 307.915805 12.896549 
L 310.468077 12.896549 
L 313.02035 12.896549 
L 315.572623 12.896549 
L 318.124896 12.896549 
" clip-path="url(#p8a68e272ce)" style="fill: none; stroke: #77ab31; stroke-width: 1.5; stroke-linecap: round"/>
   </g>
   <g id="line2d_5">
    <path d="M 65.449896 210.368384 
L 68.002168 198.876875 
L 70.554441 198.283878 
L 73.106714 193.697954 
L 75.658987 182.285399 
L 78.211259 174.95784 
L 80.763532 174.924571 
L 83.315805 174.387238 
L 85.868077 169.995804 
L 88.42035 169.32623 
L 90.972623 167.977175 
L 93.524896 165.500383 
L 96.077168 165.111075 
L 98.629441 160.333371 
L 101.181714 160.259233 
L 103.733987 160.143722 
L 106.286259 159.29169 
L 108.838532 158.619007 
L 111.390805 157.914189 
L 113.943077 157.663116 
L 116.49535 156.258027 
L 119.047623 154.618832 
L 121.599896 154.280747 
L 124.152168 149.143023 
L 126.704441 148.897679 
L 129.256714 145.341598 
L 131.808987 142.619076 
L 134.361259 142.442994 
L 136.913532 141.968575 
L 139.465805 140.838018 
L 142.018077 140.420594 
L 144.57035 140.100256 
L 147.122623 139.424727 
L 149.674896 138.621143 
L 152.227168 137.965295 
L 154.779441 137.902779 
L 157.331714 136.37705 
L 159.883987 135.00857 
L 162.436259 134.482451 
L 164.988532 131.916461 
L 167.540805 128.873884 
L 170.093077 128.839586 
L 172.64535 126.644576 
L 175.197623 126.644576 
L 177.749896 126.515612 
L 180.302168 123.91462 
L 182.854441 123.828284 
L 185.406714 123.507215 
L 187.958987 123.416967 
L 190.511259 122.818179 
L 193.063532 122.483877 
L 195.615805 122.483743 
L 198.168077 122.330826 
L 200.72035 121.829721 
L 203.272623 117.901257 
L 205.824896 116.303443 
L 208.377168 113.146872 
L 210.929441 109.740572 
L 213.481714 109.087591 
L 216.033987 109.012251 
L 218.586259 108.020399 
L 221.138532 106.620275 
L 223.690805 105.94195 
L 226.243077 105.078122 
L 228.79535 96.451689 
L 231.347623 95.936289 
L 233.899896 85.995186 
L 236.452168 85.995186 
L 239.004441 85.995186 
L 241.556714 85.835995 
L 244.108987 85.835995 
L 246.661259 85.805626 
L 249.213532 52.037408 
L 251.765805 12.896549 
L 254.318077 12.896549 
L 256.87035 12.896549 
L 259.422623 12.896549 
L 261.974896 12.896549 
L 264.527168 12.896549 
L 267.079441 12.896549 
L 269.631714 12.896549 
L 272.183987 12.896549 
L 274.736259 12.896549 
L 277.288532 12.896549 
L 279.840805 12.896549 
L 282.393077 12.896549 
L 284.94535 12.896549 
L 287.497623 12.896549 
L 290.049896 12.896549 
L 292.602168 12.896549 
L 295.154441 12.896549 
L 297.706714 12.896549 
L 300.258987 12.896549 
L 302.811259 12.896549 
L 305.363532 12.896549 
L 307.915805 12.896549 
L 310.468077 12.896549 
L 313.02035 12.896549 
L 315.572623 12.896549 
L 318.124896 12.896549 
" clip-path="url(#p8a68e272ce)" style="fill: none; stroke: #33b07a; stroke-width: 1.5; stroke-linecap: round"/>
   </g>
   <g id="line2d_6">
    <path d="M 65.449896 198.708306 
L 68.002168 197.947954 
L 70.554441 189.599501 
L 73.106714 181.096151 
L 75.658987 178.886632 
L 78.211259 175.628482 
L 80.763532 172.087875 
L 83.315805 171.50585 
L 85.868077 168.150699 
L 88.42035 167.15241 
L 90.972623 166.145619 
L 93.524896 164.046846 
L 96.077168 163.810669 
L 98.629441 162.69342 
L 101.181714 160.113644 
L 103.733987 159.216395 
L 106.286259 155.990641 
L 108.838532 155.550964 
L 111.390805 155.284029 
L 113.943077 152.026817 
L 116.49535 150.589432 
L 119.047623 148.477303 
L 121.599896 145.495312 
L 124.152168 143.867312 
L 126.704441 141.627154 
L 129.256714 140.675051 
L 131.808987 140.487684 
L 134.361259 139.356267 
L 136.913532 139.042781 
L 139.465805 137.38097 
L 142.018077 134.685671 
L 144.57035 133.616831 
L 147.122623 133.027905 
L 149.674896 129.125997 
L 152.227168 128.291384 
L 154.779441 127.818774 
L 157.331714 127.648073 
L 159.883987 127.10531 
L 162.436259 125.895072 
L 164.988532 123.103565 
L 167.540805 119.47502 
L 170.093077 118.763597 
L 172.64535 118.484162 
L 175.197623 116.832673 
L 177.749896 116.56576 
L 180.302168 114.254425 
L 182.854441 113.165734 
L 185.406714 113.165734 
L 187.958987 113.165734 
L 190.511259 113.165734 
L 193.063532 113.050149 
L 195.615805 113.050149 
L 198.168077 109.921443 
L 200.72035 109.801699 
L 203.272623 102.744823 
L 205.824896 100.785214 
L 208.377168 100.501007 
L 210.929441 98.511331 
L 213.481714 98.497438 
L 216.033987 92.990659 
L 218.586259 90.609998 
L 221.138532 90.075213 
L 223.690805 83.924882 
L 226.243077 83.924882 
L 228.79535 73.875624 
L 231.347623 61.160142 
L 233.899896 61.160142 
L 236.452168 53.051587 
L 239.004441 50.580059 
L 241.556714 50.580059 
L 244.108987 50.580059 
L 246.661259 50.55082 
L 249.213532 43.539151 
L 251.765805 12.896549 
L 254.318077 12.896549 
L 256.87035 12.896549 
L 259.422623 12.896549 
L 261.974896 12.896549 
L 264.527168 12.896549 
L 267.079441 12.896549 
L 269.631714 12.896549 
L 272.183987 12.896549 
L 274.736259 12.896549 
L 277.288532 12.896549 
L 279.840805 12.896549 
L 282.393077 12.896549 
L 284.94535 12.896549 
L 287.497623 12.896549 
L 290.049896 12.896549 
L 292.602168 12.896549 
L 295.154441 12.896549 
L 297.706714 12.896549 
L 300.258987 12.896549 
L 302.811259 12.896549 
L 305.363532 12.896549 
L 307.915805 12.896549 
L 310.468077 12.896549 
L 313.02035 12.896549 
L 315.572623 12.896549 
L 318.124896 12.896549 
" clip-path="url(#p8a68e272ce)" style="fill: none; stroke: #36ada4; stroke-width: 1.5; stroke-linecap: round"/>
   </g>
   <g id="line2d_7">
    <path d="M 65.449896 223.262285 
L 68.002168 196.463527 
L 70.554441 190.760818 
L 73.106714 186.923178 
L 75.658987 178.542506 
L 78.211259 177.421568 
L 80.763532 174.153965 
L 83.315805 172.047942 
L 85.868077 171.315237 
L 88.42035 167.348618 
L 90.972623 166.554554 
L 93.524896 165.26917 
L 96.077168 162.694123 
L 98.629441 162.537324 
L 101.181714 160.955949 
L 103.733987 159.949777 
L 106.286259 158.94055 
L 108.838532 158.474038 
L 111.390805 158.19161 
L 113.943077 154.931279 
L 116.49535 154.908987 
L 119.047623 152.800404 
L 121.599896 151.661289 
L 124.152168 149.59738 
L 126.704441 148.548337 
L 129.256714 147.424252 
L 131.808987 146.099243 
L 134.361259 145.699354 
L 136.913532 144.334045 
L 139.465805 144.332981 
L 142.018077 143.261623 
L 144.57035 141.596139 
L 147.122623 140.820743 
L 149.674896 140.740586 
L 152.227168 140.366548 
L 154.779441 139.786502 
L 157.331714 132.120527 
L 159.883987 131.710969 
L 162.436259 130.889966 
L 164.988532 130.877744 
L 167.540805 130.877508 
L 170.093077 130.877508 
L 172.64535 130.877508 
L 175.197623 130.877508 
L 177.749896 128.747183 
L 180.302168 126.296714 
L 182.854441 125.410199 
L 185.406714 125.061333 
L 187.958987 121.623692 
L 190.511259 121.019495 
L 193.063532 118.245816 
L 195.615805 113.799634 
L 198.168077 112.214606 
L 200.72035 103.062941 
L 203.272623 103.049159 
L 205.824896 99.784808 
L 208.377168 99.784808 
L 210.929441 99.784808 
L 213.481714 99.784808 
L 216.033987 99.034526 
L 218.586259 92.857323 
L 221.138532 92.632313 
L 223.690805 72.031548 
L 226.243077 70.858008 
L 228.79535 54.90486 
L 231.347623 54.90486 
L 233.899896 54.90486 
L 236.452168 54.87816 
L 239.004441 54.87816 
L 241.556714 54.876449 
L 244.108987 37.570274 
L 246.661259 37.570274 
L 249.213532 37.570274 
L 251.765805 12.896549 
L 254.318077 12.896549 
L 256.87035 12.896549 
L 259.422623 12.896549 
L 261.974896 12.896549 
L 264.527168 12.896549 
L 267.079441 12.896549 
L 269.631714 12.896549 
L 272.183987 12.896549 
L 274.736259 12.896549 
L 277.288532 12.896549 
L 279.840805 12.896549 
L 282.393077 12.896549 
L 284.94535 12.896549 
L 287.497623 12.896549 
L 290.049896 12.896549 
L 292.602168 12.896549 
L 295.154441 12.896549 
L 297.706714 12.896549 
L 300.258987 12.896549 
L 302.811259 12.896549 
L 305.363532 12.896549 
L 307.915805 12.896549 
L 310.468077 12.896549 
L 313.02035 12.896549 
L 315.572623 12.896549 
L 318.124896 12.896549 
" clip-path="url(#p8a68e272ce)" style="fill: none; stroke: #38a9c5; stroke-width: 1.5; stroke-linecap: round"/>
   </g>
   <g id="line2d_8">
    <path d="M 65.449896 188.71086 
L 68.002168 186.814804 
L 70.554441 177.618213 
L 73.106714 176.719338 
L 75.658987 170.997128 
L 78.211259 166.246387 
L 80.763532 160.778581 
L 83.315805 159.481954 
L 85.868077 157.026114 
L 88.42035 156.105429 
L 90.972623 154.501935 
L 93.524896 154.170558 
L 96.077168 152.088486 
L 98.629441 150.704714 
L 101.181714 150.633686 
L 103.733987 150.249664 
L 106.286259 149.040758 
L 108.838532 143.335854 
L 111.390805 141.888741 
L 113.943077 141.531461 
L 116.49535 141.26308 
L 119.047623 140.373558 
L 121.599896 138.28433 
L 124.152168 137.730432 
L 126.704441 130.308576 
L 129.256714 129.649271 
L 131.808987 126.68223 
L 134.361259 126.486472 
L 136.913532 124.024535 
L 139.465805 123.465364 
L 142.018077 122.995416 
L 144.57035 121.877862 
L 147.122623 119.673239 
L 149.674896 118.336671 
L 152.227168 116.794697 
L 154.779441 113.792777 
L 157.331714 107.239313 
L 159.883987 99.552276 
L 162.436259 97.296801 
L 164.988532 95.983315 
L 167.540805 95.983315 
L 170.093077 95.983315 
L 172.64535 95.983315 
L 175.197623 95.812024 
L 177.749896 95.812024 
L 180.302168 94.785867 
L 182.854441 90.078269 
L 185.406714 90.076773 
L 187.958987 89.28526 
L 190.511259 87.494359 
L 193.063532 85.956965 
L 195.615805 85.819523 
L 198.168077 85.80791 
L 200.72035 85.263598 
L 203.272623 84.082719 
L 205.824896 84.04826 
L 208.377168 75.15014 
L 210.929441 69.83612 
L 213.481714 69.8158 
L 216.033987 69.7949 
L 218.586259 58.744593 
L 221.138532 58.736792 
L 223.690805 58.736792 
L 226.243077 58.688206 
L 228.79535 55.958049 
L 231.347623 51.104496 
L 233.899896 51.104496 
L 236.452168 51.057593 
L 239.004441 39.608081 
L 241.556714 39.608081 
L 244.108987 39.58753 
L 246.661259 39.58753 
L 249.213532 30.78008 
L 251.765805 12.896549 
L 254.318077 12.896549 
L 256.87035 12.896549 
L 259.422623 12.896549 
L 261.974896 12.896549 
L 264.527168 12.896549 
L 267.079441 12.896549 
L 269.631714 12.896549 
L 272.183987 12.896549 
L 274.736259 12.896549 
L 277.288532 12.896549 
L 279.840805 12.896549 
L 282.393077 12.896549 
L 284.94535 12.896549 
L 287.497623 12.896549 
L 290.049896 12.896549 
L 292.602168 12.896549 
L 295.154441 12.896549 
L 297.706714 12.896549 
L 300.258987 12.896549 
L 302.811259 12.896549 
L 305.363532 12.896549 
L 307.915805 12.896549 
L 310.468077 12.896549 
L 313.02035 12.896549 
L 315.572623 12.896549 
L 318.124896 12.896549 
" clip-path="url(#p8a68e272ce)" style="fill: none; stroke: #6e9bf4; stroke-width: 1.5; stroke-linecap: round"/>
   </g>
   <g id="line2d_9">
    <path d="M 65.449896 223.262285 
L 68.002168 219.647436 
L 70.554441 219.367661 
L 73.106714 217.452949 
L 75.658987 216.706825 
L 78.211259 212.250447 
L 80.763532 209.072679 
L 83.315805 208.885935 
L 85.868077 206.737769 
L 88.42035 203.645851 
L 90.972623 203.307415 
L 93.524896 201.129898 
L 96.077168 199.299823 
L 98.629441 199.24403 
L 101.181714 197.775167 
L 103.733987 197.735168 
L 106.286259 197.495936 
L 108.838532 195.989337 
L 111.390805 195.478582 
L 113.943077 195.042016 
L 116.49535 194.717959 
L 119.047623 192.142489 
L 121.599896 191.03416 
L 124.152168 187.54372 
L 126.704441 185.594696 
L 129.256714 184.944542 
L 131.808987 183.557116 
L 134.361259 183.133839 
L 136.913532 182.701498 
L 139.465805 181.663031 
L 142.018077 180.834716 
L 144.57035 180.49697 
L 147.122623 174.77959 
L 149.674896 169.283192 
L 152.227168 156.951465 
L 154.779441 156.03281 
L 157.331714 155.857543 
L 159.883987 153.713467 
L 162.436259 151.663544 
L 164.988532 151.162501 
L 167.540805 149.135803 
L 170.093077 148.417951 
L 172.64535 146.302093 
L 175.197623 144.569439 
L 177.749896 143.789391 
L 180.302168 140.602498 
L 182.854441 140.074396 
L 185.406714 139.245108 
L 187.958987 132.698432 
L 190.511259 131.327205 
L 193.063532 130.290307 
L 195.615805 130.117907 
L 198.168077 126.432862 
L 200.72035 126.194974 
L 203.272623 118.023094 
L 205.824896 114.296058 
L 208.377168 111.675528 
L 210.929441 106.583811 
L 213.481714 102.92675 
L 216.033987 101.070856 
L 218.586259 99.66557 
L 221.138532 95.132736 
L 223.690805 95.132736 
L 226.243077 95.132736 
L 228.79535 95.121985 
L 231.347623 95.121985 
L 233.899896 95.121985 
L 236.452168 95.121985 
L 239.004441 95.121985 
L 241.556714 51.488917 
L 244.108987 49.03566 
L 246.661259 42.710249 
L 249.213532 41.985689 
L 251.765805 12.896549 
L 254.318077 12.896549 
L 256.87035 12.896549 
L 259.422623 12.896549 
L 261.974896 12.896549 
L 264.527168 12.896549 
L 267.079441 12.896549 
L 269.631714 12.896549 
L 272.183987 12.896549 
L 274.736259 12.896549 
L 277.288532 12.896549 
L 279.840805 12.896549 
L 282.393077 12.896549 
L 284.94535 12.896549 
L 287.497623 12.896549 
L 290.049896 12.896549 
L 292.602168 12.896549 
L 295.154441 12.896549 
L 297.706714 12.896549 
L 300.258987 12.896549 
L 302.811259 12.896549 
L 305.363532 12.896549 
L 307.915805 12.896549 
L 310.468077 12.896549 
L 313.02035 12.896549 
L 315.572623 12.896549 
L 318.124896 12.896549 
" clip-path="url(#p8a68e272ce)" style="fill: none; stroke: #cc7af4; stroke-width: 1.5; stroke-linecap: round"/>
   </g>
   <g id="line2d_10">
    <path d="M 65.449896 223.262285 
L 68.002168 217.250846 
L 70.554441 212.278826 
L 73.106714 211.372597 
L 75.658987 209.210452 
L 78.211259 208.166341 
L 80.763532 205.497973 
L 83.315805 203.430683 
L 85.868077 202.553029 
L 88.42035 202.457162 
L 90.972623 201.04068 
L 93.524896 200.488021 
L 96.077168 195.185992 
L 98.629441 192.110636 
L 101.181714 189.79879 
L 103.733987 186.836572 
L 106.286259 184.259143 
L 108.838532 181.393564 
L 111.390805 179.722809 
L 113.943077 178.067165 
L 116.49535 177.981857 
L 119.047623 174.690416 
L 121.599896 172.351218 
L 124.152168 170.330955 
L 126.704441 167.463187 
L 129.256714 166.626034 
L 131.808987 165.143776 
L 134.361259 164.67799 
L 136.913532 164.365219 
L 139.465805 164.178031 
L 142.018077 163.503717 
L 144.57035 161.512323 
L 147.122623 161.280737 
L 149.674896 157.553143 
L 152.227168 154.83238 
L 154.779441 153.312149 
L 157.331714 153.312149 
L 159.883987 153.312149 
L 162.436259 153.312149 
L 164.988532 153.160532 
L 167.540805 153.160532 
L 170.093077 147.132829 
L 172.64535 146.579237 
L 175.197623 145.662792 
L 177.749896 145.013489 
L 180.302168 144.025807 
L 182.854441 135.402738 
L 185.406714 133.563775 
L 187.958987 132.005914 
L 190.511259 131.327857 
L 193.063532 131.327857 
L 195.615805 131.327857 
L 198.168077 131.327857 
L 200.72035 122.207493 
L 203.272623 102.921358 
L 205.824896 102.921358 
L 208.377168 102.921358 
L 210.929441 102.921358 
L 213.481714 96.401046 
L 216.033987 95.132736 
L 218.586259 95.132736 
L 221.138532 95.132736 
L 223.690805 95.132736 
L 226.243077 89.489097 
L 228.79535 87.300176 
L 231.347623 71.652195 
L 233.899896 41.985689 
L 236.452168 41.985689 
L 239.004441 41.985689 
L 241.556714 41.985689 
L 244.108987 41.958828 
L 246.661259 41.958828 
L 249.213532 41.958828 
L 251.765805 12.896549 
L 254.318077 12.896549 
L 256.87035 12.896549 
L 259.422623 12.896549 
L 261.974896 12.896549 
L 264.527168 12.896549 
L 267.079441 12.896549 
L 269.631714 12.896549 
L 272.183987 12.896549 
L 274.736259 12.896549 
L 277.288532 12.896549 
L 279.840805 12.896549 
L 282.393077 12.896549 
L 284.94535 12.896549 
L 287.497623 12.896549 
L 290.049896 12.896549 
L 292.602168 12.896549 
L 295.154441 12.896549 
L 297.706714 12.896549 
L 300.258987 12.896549 
L 302.811259 12.896549 
L 305.363532 12.896549 
L 307.915805 12.896549 
L 310.468077 12.896549 
L 313.02035 12.896549 
L 315.572623 12.896549 
L 318.124896 12.896549 
" clip-path="url(#p8a68e272ce)" style="fill: none; stroke: #f565cc; stroke-width: 1.5; stroke-linecap: round"/>
   </g>
   <g id="line2d_11">
    <path d="M 65.449896 186.562866 
L 68.002168 168.465644 
L 70.554441 167.707925 
L 73.106714 165.027035 
L 75.658987 164.912646 
L 78.211259 164.839415 
L 80.763532 163.715636 
L 83.315805 161.16759 
L 85.868077 159.243217 
L 88.42035 157.811177 
L 90.972623 155.287404 
L 93.524896 154.901533 
L 96.077168 154.675779 
L 98.629441 153.861047 
L 101.181714 153.65467 
L 103.733987 153.609949 
L 106.286259 152.673098 
L 108.838532 146.942349 
L 111.390805 146.746077 
L 113.943077 144.611948 
L 116.49535 144.442237 
L 119.047623 142.390134 
L 121.599896 141.577889 
L 124.152168 140.982513 
L 126.704441 140.400958 
L 129.256714 140.320754 
L 131.808987 139.660187 
L 134.361259 139.570047 
L 136.913532 138.891096 
L 139.465805 138.394812 
L 142.018077 135.312591 
L 144.57035 134.960236 
L 147.122623 134.885869 
L 149.674896 134.815177 
L 152.227168 134.700035 
L 154.779441 133.405629 
L 157.331714 133.264627 
L 159.883987 132.688501 
L 162.436259 132.496142 
L 164.988532 132.168188 
L 167.540805 129.854035 
L 170.093077 129.653 
L 172.64535 129.365235 
L 175.197623 129.30729 
L 177.749896 128.634169 
L 180.302168 128.477548 
L 182.854441 126.894406 
L 185.406714 125.17505 
L 187.958987 124.834355 
L 190.511259 122.251352 
L 193.063532 122.197212 
L 195.615805 121.168857 
L 198.168077 120.203644 
L 200.72035 120.006173 
L 203.272623 117.814793 
L 205.824896 117.026327 
L 208.377168 116.613259 
L 210.929441 115.767049 
L 213.481714 110.957268 
L 216.033987 110.867754 
L 218.586259 110.867754 
L 221.138532 110.867754 
L 223.690805 110.848798 
L 226.243077 110.767719 
L 228.79535 110.31253 
L 231.347623 109.707443 
L 233.899896 108.61575 
L 236.452168 107.514685 
L 239.004441 104.685674 
L 241.556714 102.054383 
L 244.108987 100.344614 
L 246.661259 96.756098 
L 249.213532 90.716662 
L 251.765805 12.896549 
L 254.318077 12.896549 
L 256.87035 12.896549 
L 259.422623 12.896549 
L 261.974896 12.896549 
L 264.527168 12.896549 
L 267.079441 12.896549 
L 269.631714 12.896549 
L 272.183987 12.896549 
L 274.736259 12.896549 
L 277.288532 12.896549 
L 279.840805 12.896549 
L 282.393077 12.896549 
L 284.94535 12.896549 
L 287.497623 12.896549 
L 290.049896 12.896549 
L 292.602168 12.896549 
L 295.154441 12.896549 
L 297.706714 12.896549 
L 300.258987 12.896549 
L 302.811259 12.896549 
L 305.363532 12.896549 
L 307.915805 12.896549 
L 310.468077 12.896549 
L 313.02035 12.896549 
L 315.572623 12.896549 
L 318.124896 12.896549 
" clip-path="url(#p8a68e272ce)" style="fill: none; stroke: #000000; stroke-width: 6; stroke-linecap: round"/>
   </g>
   <g id="patch_3">
    <path d="M 65.449896 265.571549 
L 65.449896 12.896549 
" style="fill: none; stroke: #262626; stroke-width: 1.25; stroke-linejoin: miter; stroke-linecap: square"/>
   </g>
   <g id="patch_4">
    <path d="M 65.449896 265.571549 
L 318.124896 265.571549 
" style="fill: none; stroke: #262626; stroke-width: 1.25; stroke-linejoin: miter; stroke-linecap: square"/>
   </g>
   <g id="legend_1">
    <g id="patch_5">
     <path d="M 208.411927 260.071549 
L 310.424896 260.071549 
Q 312.624896 260.071549 312.624896 257.871549 
L 312.624896 81.366236 
Q 312.624896 79.166236 310.424896 79.166236 
L 208.411927 79.166236 
Q 206.211927 79.166236 206.211927 81.366236 
L 206.211927 257.871549 
Q 206.211927 260.071549 208.411927 260.071549 
z
" style="fill: #ffffff; opacity: 0.8; stroke: #cccccc; stroke-linejoin: miter"/>
    </g>
    <g id="line2d_12">
     <path d="M 210.611927 88.074517 
L 221.611927 88.074517 
L 232.611927 88.074517 
" style="fill: none; stroke: #f77189; stroke-width: 1.5; stroke-linecap: round"/>
    </g>
    <g id="text_15">
     <text style="fill: #262626; font: 11px 'Arial', 'DejaVu Sans', 'Liberation Sans', 'Bitstream Vera Sans', sans-serif; text-anchor: start" x="241.411927" y="91.924517" transform="rotate(-0 241.411927 91.924517)">Cell Type  1</text>
    </g>
    <g id="line2d_13">
     <path d="M 210.611927 104.220455 
L 221.611927 104.220455 
L 232.611927 104.220455 
" style="fill: none; stroke: #dc8932; stroke-width: 1.5; stroke-linecap: round"/>
    </g>
    <g id="text_16">
     <text style="fill: #262626; font: 11px 'Arial', 'DejaVu Sans', 'Liberation Sans', 'Bitstream Vera Sans', sans-serif; text-anchor: start" x="241.411927" y="108.070455" transform="rotate(-0 241.411927 108.070455)">Cell Type  2</text>
    </g>
    <g id="line2d_14">
     <path d="M 210.611927 120.366392 
L 221.611927 120.366392 
L 232.611927 120.366392 
" style="fill: none; stroke: #ae9d31; stroke-width: 1.5; stroke-linecap: round"/>
    </g>
    <g id="text_17">
     <text style="fill: #262626; font: 11px 'Arial', 'DejaVu Sans', 'Liberation Sans', 'Bitstream Vera Sans', sans-serif; text-anchor: start" x="241.411927" y="124.216392" transform="rotate(-0 241.411927 124.216392)">Cell Type  3</text>
    </g>
    <g id="line2d_15">
     <path d="M 210.611927 136.51233 
L 221.611927 136.51233 
L 232.611927 136.51233 
" style="fill: none; stroke: #77ab31; stroke-width: 1.5; stroke-linecap: round"/>
    </g>
    <g id="text_18">
     <text style="fill: #262626; font: 11px 'Arial', 'DejaVu Sans', 'Liberation Sans', 'Bitstream Vera Sans', sans-serif; text-anchor: start" x="241.411927" y="140.36233" transform="rotate(-0 241.411927 140.36233)">Cell Type  4</text>
    </g>
    <g id="line2d_16">
     <path d="M 210.611927 152.658267 
L 221.611927 152.658267 
L 232.611927 152.658267 
" style="fill: none; stroke: #33b07a; stroke-width: 1.5; stroke-linecap: round"/>
    </g>
    <g id="text_19">
     <text style="fill: #262626; font: 11px 'Arial', 'DejaVu Sans', 'Liberation Sans', 'Bitstream Vera Sans', sans-serif; text-anchor: start" x="241.411927" y="156.508267" transform="rotate(-0 241.411927 156.508267)">Cell Type  5</text>
    </g>
    <g id="line2d_17">
     <path d="M 210.611927 168.804205 
L 221.611927 168.804205 
L 232.611927 168.804205 
" style="fill: none; stroke: #36ada4; stroke-width: 1.5; stroke-linecap: round"/>
    </g>
    <g id="text_20">
     <text style="fill: #262626; font: 11px 'Arial', 'DejaVu Sans', 'Liberation Sans', 'Bitstream Vera Sans', sans-serif; text-anchor: start" x="241.411927" y="172.654205" transform="rotate(-0 241.411927 172.654205)">Cell Type  6</text>
    </g>
    <g id="line2d_18">
     <path d="M 210.611927 184.950142 
L 221.611927 184.950142 
L 232.611927 184.950142 
" style="fill: none; stroke: #38a9c5; stroke-width: 1.5; stroke-linecap: round"/>
    </g>
    <g id="text_21">
     <text style="fill: #262626; font: 11px 'Arial', 'DejaVu Sans', 'Liberation Sans', 'Bitstream Vera Sans', sans-serif; text-anchor: start" x="241.411927" y="188.800142" transform="rotate(-0 241.411927 188.800142)">Cell Type  7</text>
    </g>
    <g id="line2d_19">
     <path d="M 210.611927 201.09608 
L 221.611927 201.09608 
L 232.611927 201.09608 
" style="fill: none; stroke: #6e9bf4; stroke-width: 1.5; stroke-linecap: round"/>
    </g>
    <g id="text_22">
     <text style="fill: #262626; font: 11px 'Arial', 'DejaVu Sans', 'Liberation Sans', 'Bitstream Vera Sans', sans-serif; text-anchor: start" x="241.411927" y="204.94608" transform="rotate(-0 241.411927 204.94608)">Cell Type  8</text>
    </g>
    <g id="line2d_20">
     <path d="M 210.611927 217.242017 
L 221.611927 217.242017 
L 232.611927 217.242017 
" style="fill: none; stroke: #cc7af4; stroke-width: 1.5; stroke-linecap: round"/>
    </g>
    <g id="text_23">
     <text style="fill: #262626; font: 11px 'Arial', 'DejaVu Sans', 'Liberation Sans', 'Bitstream Vera Sans', sans-serif; text-anchor: start" x="241.411927" y="221.092017" transform="rotate(-0 241.411927 221.092017)">Cell Type  9</text>
    </g>
    <g id="line2d_21">
     <path d="M 210.611927 233.387955 
L 221.611927 233.387955 
L 232.611927 233.387955 
" style="fill: none; stroke: #f565cc; stroke-width: 1.5; stroke-linecap: round"/>
    </g>
    <g id="text_24">
     <text style="fill: #262626; font: 11px 'Arial', 'DejaVu Sans', 'Liberation Sans', 'Bitstream Vera Sans', sans-serif; text-anchor: start" x="241.411927" y="237.237955" transform="rotate(-0 241.411927 237.237955)">Cell Type 10</text>
    </g>
    <g id="line2d_22">
     <path d="M 210.611927 249.533892 
L 221.611927 249.533892 
L 232.611927 249.533892 
" style="fill: none; stroke: #000000; stroke-width: 6; stroke-linecap: round"/>
    </g>
    <g id="text_25">
     <text style="fill: #262626; font: 11px 'Arial', 'DejaVu Sans', 'Liberation Sans', 'Bitstream Vera Sans', sans-serif; text-anchor: start" x="241.411927" y="253.383892" transform="rotate(-0 241.411927 253.383892)">Cumulative</text>
    </g>
   </g>
  </g>
 </g>
 <defs>
  <clipPath id="p8a68e272ce">
   <rect x="65.449896" y="12.896549" width="252.675" height="252.675"/>
  </clipPath>
 </defs>
</svg>
