<?xml version="1.0" encoding="utf-8" standalone="no"?>
<!DOCTYPE svg PUBLIC "-//W3C//DTD SVG 1.1//EN"
  "http://www.w3.org/Graphics/SVG/1.1/DTD/svg11.dtd">
<svg height="321.687679pt" version="1.1" viewBox="0 0 337.247468 321.687679" width="337.247468pt" xmlns="http://www.w3.org/2000/svg" xmlns:xlink="http://www.w3.org/1999/xlink">
 <metadata>
  <rdf:RDF xmlns:cc="http://creativecommons.org/ns#" xmlns:dc="http://purl.org/dc/elements/1.1/" xmlns:rdf="http://www.w3.org/1999/02/22-rdf-syntax-ns#">
   <cc:Work>
    <dc:type rdf:resource="http://purl.org/dc/dcmitype/StillImage"/>
    <dc:date>2023-04-27T13:30:54.328911</dc:date>
    <dc:format>image/svg+xml</dc:format>
    <dc:creator>
     <cc:Agent>
      <dc:title>Matplotlib v3.4.3, https://matplotlib.org/</dc:title>
     </cc:Agent>
    </dc:creator>
   </cc:Work>
  </rdf:RDF>
 </metadata>
 <defs>
  <style type="text/css">*{stroke-linecap:butt;stroke-linejoin:round;}</style>
 </defs>
 <g id="figure_1">
  <g id="patch_1">
   <path d="M 0 321.687679 
L 337.247468 321.687679 
L 337.247468 0 
L 0 0 
z
" style="fill:#ffffff;"/>
  </g>
  <g id="axes_1">
   <g id="patch_2">
    <path d="M 65.449896 265.571549 
L 318.124896 265.571549 
L 318.124896 12.896549 
L 65.449896 12.896549 
z
" style="fill:#ffffff;"/>
   </g>
   <g id="matplotlib.axis_1">
    <g id="xtick_1">
     <g id="text_1">
      <text style="fill:#262626;font-family:DejaVu Sans;font-size:14.994px;font-stretch:normal;font-style:normal;font-weight:normal;text-anchor:middle;" transform="rotate(-0, 65.449896, 286.464646)" x="65.449896" y="286.464646">0.0</text>
     </g>
    </g>
    <g id="xtick_2">
     <g id="text_2">
      <text style="fill:#262626;font-family:DejaVu Sans;font-size:14.994px;font-stretch:normal;font-style:normal;font-weight:normal;text-anchor:middle;" transform="rotate(-0, 115.984896, 286.464646)" x="115.984896" y="286.464646">0.2</text>
     </g>
    </g>
    <g id="xtick_3">
     <g id="text_3">
      <text style="fill:#262626;font-family:DejaVu Sans;font-size:14.994px;font-stretch:normal;font-style:normal;font-weight:normal;text-anchor:middle;" transform="rotate(-0, 166.519896, 286.464646)" x="166.519896" y="286.464646">0.4</text>
     </g>
    </g>
    <g id="xtick_4">
     <g id="text_4">
      <text style="fill:#262626;font-family:DejaVu Sans;font-size:14.994px;font-stretch:normal;font-style:normal;font-weight:normal;text-anchor:middle;" transform="rotate(-0, 217.054896, 286.464646)" x="217.054896" y="286.464646">0.6</text>
     </g>
    </g>
    <g id="xtick_5">
     <g id="text_5">
      <text style="fill:#262626;font-family:DejaVu Sans;font-size:14.994px;font-stretch:normal;font-style:normal;font-weight:normal;text-anchor:middle;" transform="rotate(-0, 267.589896, 286.464646)" x="267.589896" y="286.464646">0.8</text>
     </g>
    </g>
    <g id="xtick_6">
     <g id="text_6">
      <text style="fill:#262626;font-family:DejaVu Sans;font-size:14.994px;font-stretch:normal;font-style:normal;font-weight:normal;text-anchor:middle;" transform="rotate(-0, 318.124896, 286.464646)" x="318.124896" y="286.464646">1.0</text>
     </g>
    </g>
    <g id="text_7">
     <text style="fill:#262626;font-family:DejaVu Sans;font-size:21.6px;font-stretch:normal;font-style:normal;font-weight:normal;text-anchor:middle;" transform="rotate(-0, 191.787396, 309.995554)" x="191.787396" y="309.995554">Percentile</text>
    </g>
   </g>
   <g id="matplotlib.axis_2">
    <g id="ytick_1">
     <g id="text_8">
      <text style="fill:#262626;font-family:DejaVu Sans;font-size:14.994px;font-stretch:normal;font-style:normal;font-weight:normal;text-anchor:end;" transform="rotate(-0, 55.949896, 271.268097)" x="55.949896" y="271.268097">0.0</text>
     </g>
    </g>
    <g id="ytick_2">
     <g id="text_9">
      <text style="fill:#262626;font-family:DejaVu Sans;font-size:14.994px;font-stretch:normal;font-style:normal;font-weight:normal;text-anchor:end;" transform="rotate(-0, 55.949896, 220.733097)" x="55.949896" y="220.733097">0.2</text>
     </g>
    </g>
    <g id="ytick_3">
     <g id="text_10">
      <text style="fill:#262626;font-family:DejaVu Sans;font-size:14.994px;font-stretch:normal;font-style:normal;font-weight:normal;text-anchor:end;" transform="rotate(-0, 55.949896, 170.198097)" x="55.949896" y="170.198097">0.4</text>
     </g>
    </g>
    <g id="ytick_4">
     <g id="text_11">
      <text style="fill:#262626;font-family:DejaVu Sans;font-size:14.994px;font-stretch:normal;font-style:normal;font-weight:normal;text-anchor:end;" transform="rotate(-0, 55.949896, 119.663097)" x="55.949896" y="119.663097">0.6</text>
     </g>
    </g>
    <g id="ytick_5">
     <g id="text_12">
      <text style="fill:#262626;font-family:DejaVu Sans;font-size:14.994px;font-stretch:normal;font-style:normal;font-weight:normal;text-anchor:end;" transform="rotate(-0, 55.949896, 69.128097)" x="55.949896" y="69.128097">0.8</text>
     </g>
    </g>
    <g id="ytick_6">
     <g id="text_13">
      <text style="fill:#262626;font-family:DejaVu Sans;font-size:14.994px;font-stretch:normal;font-style:normal;font-weight:normal;text-anchor:end;" transform="rotate(-0, 55.949896, 18.593097)" x="55.949896" y="18.593097">1.0</text>
     </g>
    </g>
    <g id="text_14">
     <text style="fill:#262626;font-family:DejaVu Sans;font-size:21.6px;font-stretch:normal;font-style:normal;font-weight:normal;text-anchor:middle;" transform="rotate(-90, 23.612625, 139.234049)" x="23.612625" y="139.234049">Modality 1 Similarity</text>
    </g>
   </g>
   <g id="line2d_1">
    <path clip-path="url(#pc38ef92fb4)" d="M 65.449896 214.943222 
L 68.002168 206.89136 
L 70.554441 195.611484 
L 73.106714 191.895149 
L 75.658987 186.853322 
L 78.211259 186.56654 
L 80.763532 186.109356 
L 83.315805 180.343593 
L 85.868077 178.72175 
L 88.42035 176.319164 
L 90.972623 175.824915 
L 93.524896 173.917167 
L 96.077168 173.320947 
L 98.629441 172.5632 
L 101.181714 172.349363 
L 103.733987 169.432834 
L 106.286259 168.983946 
L 108.838532 167.356061 
L 111.390805 167.061748 
L 113.943077 164.646301 
L 116.49535 164.53371 
L 119.047623 163.997549 
L 121.599896 163.763158 
L 124.152168 162.739968 
L 126.704441 162.397901 
L 129.256714 160.908322 
L 131.808987 160.697017 
L 134.361259 160.119283 
L 136.913532 159.8381 
L 139.465805 158.496154 
L 142.018077 154.851079 
L 144.57035 154.603898 
L 147.122623 154.361341 
L 149.674896 153.954265 
L 152.227168 153.395112 
L 154.779441 153.276345 
L 157.331714 152.53417 
L 159.883987 149.489537 
L 162.436259 149.084119 
L 164.988532 148.080982 
L 167.540805 147.491613 
L 170.093077 147.126894 
L 172.64535 147.021303 
L 175.197623 146.810861 
L 177.749896 145.984891 
L 180.302168 145.408243 
L 182.854441 145.123379 
L 185.406714 144.068096 
L 187.958987 143.88848 
L 190.511259 141.284092 
L 193.063532 141.258983 
L 195.615805 140.6908 
L 198.168077 140.389264 
L 200.72035 140.278134 
L 203.272623 140.135751 
L 205.824896 140.037337 
L 208.377168 138.66842 
L 210.929441 138.199198 
L 213.481714 137.829603 
L 216.033987 137.054564 
L 218.586259 136.572006 
L 221.138532 136.480202 
L 223.690805 136.398501 
L 226.243077 135.258096 
L 228.79535 135.218749 
L 231.347623 134.147275 
L 233.899896 133.883497 
L 236.452168 133.402532 
L 239.004441 133.114658 
L 241.556714 131.299169 
L 244.108987 130.515607 
L 246.661259 129.957224 
L 249.213532 128.117527 
L 251.765805 126.957026 
L 254.318077 126.324962 
L 256.87035 126.094433 
L 259.422623 124.261239 
L 261.974896 122.429537 
L 264.527168 120.859274 
L 267.079441 120.015917 
L 269.631714 119.138663 
L 272.183987 118.841297 
L 274.736259 117.625357 
L 277.288532 115.820056 
L 279.840805 115.147557 
L 282.393077 114.370651 
L 284.94535 113.64657 
L 287.497623 113.457849 
L 290.049896 113.125909 
L 292.602168 112.578389 
L 295.154441 112.334911 
L 297.706714 111.342949 
L 300.258987 108.670877 
L 302.811259 107.36634 
L 305.363532 106.925252 
L 307.915805 104.218761 
L 310.468077 103.808934 
L 313.02035 85.331258 
L 315.572623 78.10858 
L 318.124896 77.207468 
" style="fill:none;stroke:#f77189;stroke-linecap:round;stroke-width:1.5;"/>
   </g>
   <g id="line2d_2">
    <path clip-path="url(#pc38ef92fb4)" d="M 65.449896 214.305963 
L 68.002168 207.293655 
L 70.554441 190.834571 
L 73.106714 186.549862 
L 75.658987 185.424519 
L 78.211259 185.363442 
L 80.763532 180.555291 
L 83.315805 177.816781 
L 85.868077 177.429081 
L 88.42035 175.996367 
L 90.972623 173.833716 
L 93.524896 171.160659 
L 96.077168 170.033823 
L 98.629441 169.936519 
L 101.181714 167.125288 
L 103.733987 166.255159 
L 106.286259 165.52503 
L 108.838532 165.476605 
L 111.390805 164.363824 
L 113.943077 163.439167 
L 116.49535 162.73099 
L 119.047623 162.385775 
L 121.599896 161.850334 
L 124.152168 161.026291 
L 126.704441 160.157011 
L 129.256714 159.3152 
L 131.808987 158.463085 
L 134.361259 158.228493 
L 136.913532 157.954017 
L 139.465805 157.949521 
L 142.018077 157.182695 
L 144.57035 156.990456 
L 147.122623 156.744922 
L 149.674896 154.30199 
L 152.227168 154.145597 
L 154.779441 153.347796 
L 157.331714 152.548311 
L 159.883987 152.238472 
L 162.436259 150.659306 
L 164.988532 150.653168 
L 167.540805 149.973243 
L 170.093077 148.592735 
L 172.64535 148.273064 
L 175.197623 147.855678 
L 177.749896 147.530359 
L 180.302168 147.407896 
L 182.854441 147.096272 
L 185.406714 146.44133 
L 187.958987 146.309747 
L 190.511259 145.517099 
L 193.063532 144.605625 
L 195.615805 144.133539 
L 198.168077 144.074283 
L 200.72035 143.644094 
L 203.272623 143.004066 
L 205.824896 142.212109 
L 208.377168 141.604219 
L 210.929441 141.506662 
L 213.481714 141.469481 
L 216.033987 141.404541 
L 218.586259 140.900978 
L 221.138532 140.702867 
L 223.690805 140.552107 
L 226.243077 138.546306 
L 228.79535 136.814708 
L 231.347623 135.34327 
L 233.899896 134.520404 
L 236.452168 133.88247 
L 239.004441 133.805088 
L 241.556714 133.270672 
L 244.108987 132.840715 
L 246.661259 132.038158 
L 249.213532 131.665024 
L 251.765805 131.616115 
L 254.318077 131.459619 
L 256.87035 128.483334 
L 259.422623 127.899305 
L 261.974896 126.664239 
L 264.527168 125.951235 
L 267.079441 125.447937 
L 269.631714 124.641042 
L 272.183987 124.461743 
L 274.736259 119.948668 
L 277.288532 119.214366 
L 279.840805 118.287889 
L 282.393077 118.041724 
L 284.94535 116.568345 
L 287.497623 112.627385 
L 290.049896 112.041969 
L 292.602168 111.720381 
L 295.154441 109.588543 
L 297.706714 109.241371 
L 300.258987 108.419076 
L 302.811259 107.008723 
L 305.363532 105.393897 
L 307.915805 101.795942 
L 310.468077 98.884496 
L 313.02035 97.706816 
L 315.572623 93.302372 
L 318.124896 78.223102 
" style="fill:none;stroke:#dc8932;stroke-linecap:round;stroke-width:1.5;"/>
   </g>
   <g id="line2d_3">
    <path clip-path="url(#pc38ef92fb4)" d="M 65.449896 223.262285 
L 68.002168 223.262285 
L 70.554441 223.262285 
L 73.106714 223.262285 
L 75.658987 223.262285 
L 78.211259 223.262285 
L 80.763532 223.262285 
L 83.315805 222.121833 
L 85.868077 220.885499 
L 88.42035 217.670194 
L 90.972623 215.548147 
L 93.524896 214.793182 
L 96.077168 214.37163 
L 98.629441 213.750499 
L 101.181714 213.494811 
L 103.733987 213.325241 
L 106.286259 213.121149 
L 108.838532 209.016262 
L 111.390805 206.390338 
L 113.943077 206.333391 
L 116.49535 206.265435 
L 119.047623 206.080111 
L 121.599896 205.842894 
L 124.152168 203.171534 
L 126.704441 202.203531 
L 129.256714 201.52711 
L 131.808987 201.019654 
L 134.361259 200.966514 
L 136.913532 199.745399 
L 139.465805 199.726017 
L 142.018077 199.507858 
L 144.57035 198.780235 
L 147.122623 197.961203 
L 149.674896 196.920982 
L 152.227168 196.113494 
L 154.779441 195.349059 
L 157.331714 194.852306 
L 159.883987 194.07481 
L 162.436259 193.788062 
L 164.988532 192.460022 
L 167.540805 192.128292 
L 170.093077 191.979111 
L 172.64535 190.856276 
L 175.197623 189.818352 
L 177.749896 189.513192 
L 180.302168 189.203232 
L 182.854441 188.101358 
L 185.406714 187.599621 
L 187.958987 187.34327 
L 190.511259 187.005713 
L 193.063532 185.683589 
L 195.615805 185.376372 
L 198.168077 184.905756 
L 200.72035 184.624951 
L 203.272623 184.047604 
L 205.824896 181.729343 
L 208.377168 180.746111 
L 210.929441 179.51455 
L 213.481714 179.410788 
L 216.033987 178.824852 
L 218.586259 178.224901 
L 221.138532 177.668319 
L 223.690805 176.887717 
L 226.243077 175.585491 
L 228.79535 175.131103 
L 231.347623 175.087321 
L 233.899896 175.015212 
L 236.452168 173.294629 
L 239.004441 171.634143 
L 241.556714 168.597467 
L 244.108987 166.77935 
L 246.661259 165.367663 
L 249.213532 165.356394 
L 251.765805 163.659978 
L 254.318077 163.242497 
L 256.87035 162.104292 
L 259.422623 160.90192 
L 261.974896 160.538374 
L 264.527168 160.365609 
L 267.079441 159.473339 
L 269.631714 157.901252 
L 272.183987 156.706248 
L 274.736259 156.655211 
L 277.288532 154.267264 
L 279.840805 153.813905 
L 282.393077 152.728217 
L 284.94535 152.466825 
L 287.497623 148.199713 
L 290.049896 146.161396 
L 292.602168 145.449048 
L 295.154441 144.74037 
L 297.706714 134.261283 
L 300.258987 133.428364 
L 302.811259 130.595621 
L 305.363532 129.477763 
L 307.915805 128.698391 
L 310.468077 117.904257 
L 313.02035 112.036034 
L 315.572623 110.942093 
L 318.124896 102.92675 
" style="fill:none;stroke:#ae9d31;stroke-linecap:round;stroke-width:1.5;"/>
   </g>
   <g id="line2d_4">
    <path clip-path="url(#pc38ef92fb4)" d="M 65.449896 216.588432 
L 68.002168 216.502328 
L 70.554441 216.332545 
L 73.106714 213.222791 
L 75.658987 211.052657 
L 78.211259 207.862206 
L 80.763532 205.671275 
L 83.315805 204.346132 
L 85.868077 204.240975 
L 88.42035 202.768155 
L 90.972623 201.997637 
L 93.524896 200.454746 
L 96.077168 199.916674 
L 98.629441 198.709879 
L 101.181714 197.559966 
L 103.733987 197.361791 
L 106.286259 196.054114 
L 108.838532 194.577242 
L 111.390805 194.470869 
L 113.943077 191.487866 
L 116.49535 190.8664 
L 119.047623 190.438062 
L 121.599896 189.484875 
L 124.152168 188.941738 
L 126.704441 188.589628 
L 129.256714 187.687761 
L 131.808987 186.946473 
L 134.361259 186.734217 
L 136.913532 184.555563 
L 139.465805 184.358658 
L 142.018077 184.225834 
L 144.57035 184.172148 
L 147.122623 183.224244 
L 149.674896 180.340319 
L 152.227168 180.158026 
L 154.779441 179.881948 
L 157.331714 179.869251 
L 159.883987 179.861235 
L 162.436259 179.787176 
L 164.988532 179.083426 
L 167.540805 177.094649 
L 170.093077 176.356399 
L 172.64535 176.339749 
L 175.197623 176.271938 
L 177.749896 175.092009 
L 180.302168 175.06696 
L 182.854441 174.071015 
L 185.406714 173.807103 
L 187.958987 173.426687 
L 190.511259 173.408589 
L 193.063532 173.02997 
L 195.615805 172.185898 
L 198.168077 171.685807 
L 200.72035 171.35454 
L 203.272623 169.497822 
L 205.824896 168.558852 
L 208.377168 165.693541 
L 210.929441 164.469495 
L 213.481714 164.233008 
L 216.033987 164.061665 
L 218.586259 162.492609 
L 221.138532 161.166245 
L 223.690805 161.01614 
L 226.243077 160.190886 
L 228.79535 158.688965 
L 231.347623 158.173208 
L 233.899896 156.912842 
L 236.452168 156.077217 
L 239.004441 155.844025 
L 241.556714 155.695701 
L 244.108987 155.542328 
L 246.661259 154.468337 
L 249.213532 153.963754 
L 251.765805 153.793278 
L 254.318077 153.701813 
L 256.87035 153.543899 
L 259.422623 152.480552 
L 261.974896 152.465347 
L 264.527168 151.996776 
L 267.079441 151.69352 
L 269.631714 150.91533 
L 272.183987 149.148681 
L 274.736259 147.93203 
L 277.288532 147.367158 
L 279.840805 146.986736 
L 282.393077 144.434145 
L 284.94535 144.10931 
L 287.497623 143.632671 
L 290.049896 142.503284 
L 292.602168 140.55278 
L 295.154441 137.947031 
L 297.706714 128.935478 
L 300.258987 127.738707 
L 302.811259 126.500778 
L 305.363532 122.831536 
L 307.915805 120.331703 
L 310.468077 120.097519 
L 313.02035 108.887107 
L 315.572623 106.930445 
L 318.124896 73.681277 
" style="fill:none;stroke:#77ab31;stroke-linecap:round;stroke-width:1.5;"/>
   </g>
   <g id="line2d_5">
    <path clip-path="url(#pc38ef92fb4)" d="M 65.449896 223.262285 
L 68.002168 211.604223 
L 70.554441 204.178927 
L 73.106714 201.220278 
L 75.658987 197.115091 
L 78.211259 195.646486 
L 80.763532 191.727697 
L 83.315805 185.49511 
L 85.868077 178.466977 
L 88.42035 177.903318 
L 90.972623 177.703519 
L 93.524896 177.309512 
L 96.077168 175.926833 
L 98.629441 174.379997 
L 101.181714 173.360685 
L 103.733987 172.17259 
L 106.286259 171.946494 
L 108.838532 171.565513 
L 111.390805 171.155129 
L 113.943077 170.311088 
L 116.49535 168.75178 
L 119.047623 167.001504 
L 121.599896 166.69176 
L 124.152168 166.314278 
L 126.704441 165.996255 
L 129.256714 162.108542 
L 131.808987 161.845967 
L 134.361259 161.709724 
L 136.913532 161.42859 
L 139.465805 160.523388 
L 142.018077 158.026914 
L 144.57035 156.931822 
L 147.122623 156.316648 
L 149.674896 154.812023 
L 152.227168 154.809842 
L 154.779441 152.893968 
L 157.331714 152.802901 
L 159.883987 152.038883 
L 162.436259 151.998939 
L 164.988532 151.266013 
L 167.540805 150.34424 
L 170.093077 149.578599 
L 172.64535 149.127151 
L 175.197623 148.626867 
L 177.749896 148.413109 
L 180.302168 148.313768 
L 182.854441 147.778723 
L 185.406714 147.742978 
L 187.958987 146.309501 
L 190.511259 146.041618 
L 193.063532 146.000783 
L 195.615805 145.655466 
L 198.168077 144.432121 
L 200.72035 143.941093 
L 203.272623 143.939045 
L 205.824896 143.906762 
L 208.377168 143.730229 
L 210.929441 143.689063 
L 213.481714 142.777196 
L 216.033987 142.458237 
L 218.586259 142.182215 
L 221.138532 141.923881 
L 223.690805 141.807766 
L 226.243077 141.735871 
L 228.79535 141.684151 
L 231.347623 141.244625 
L 233.899896 140.7023 
L 236.452168 140.685863 
L 239.004441 140.664307 
L 241.556714 139.359686 
L 244.108987 138.66175 
L 246.661259 137.780092 
L 249.213532 137.042664 
L 251.765805 136.895982 
L 254.318077 135.916712 
L 256.87035 135.623205 
L 259.422623 135.265958 
L 261.974896 133.640732 
L 264.527168 132.835573 
L 267.079441 127.732796 
L 269.631714 126.486991 
L 272.183987 125.045471 
L 274.736259 123.616312 
L 277.288532 123.211527 
L 279.840805 122.736785 
L 282.393077 122.459808 
L 284.94535 121.576978 
L 287.497623 121.218745 
L 290.049896 119.753175 
L 292.602168 119.689874 
L 295.154441 119.444623 
L 297.706714 110.009868 
L 300.258987 106.769151 
L 302.811259 105.982155 
L 305.363532 102.14193 
L 307.915805 100.575306 
L 310.468077 100.368695 
L 313.02035 95.748971 
L 315.572623 91.23824 
L 318.124896 79.910237 
" style="fill:none;stroke:#33b07a;stroke-linecap:round;stroke-width:1.5;"/>
   </g>
   <g id="line2d_6">
    <path clip-path="url(#pc38ef92fb4)" d="M 65.449896 223.262285 
L 68.002168 223.262285 
L 70.554441 221.790912 
L 73.106714 210.44954 
L 75.658987 208.50624 
L 78.211259 207.709503 
L 80.763532 206.358857 
L 83.315805 206.090186 
L 85.868077 205.37452 
L 88.42035 204.385595 
L 90.972623 202.598585 
L 93.524896 198.226767 
L 96.077168 197.24996 
L 98.629441 195.002864 
L 101.181714 193.326354 
L 103.733987 192.749508 
L 106.286259 191.418819 
L 108.838532 189.929268 
L 111.390805 189.301296 
L 113.943077 187.469869 
L 116.49535 186.553492 
L 119.047623 186.209631 
L 121.599896 183.644806 
L 124.152168 182.93769 
L 126.704441 182.415954 
L 129.256714 182.096163 
L 131.808987 177.854347 
L 134.361259 177.353578 
L 136.913532 176.760788 
L 139.465805 175.239871 
L 142.018077 174.900321 
L 144.57035 174.657957 
L 147.122623 174.187686 
L 149.674896 172.052278 
L 152.227168 171.964937 
L 154.779441 170.957486 
L 157.331714 170.846507 
L 159.883987 170.470774 
L 162.436259 170.365054 
L 164.988532 169.895289 
L 167.540805 169.762496 
L 170.093077 169.420551 
L 172.64535 168.931265 
L 175.197623 167.365721 
L 177.749896 166.971038 
L 180.302168 166.742234 
L 182.854441 166.151174 
L 185.406714 165.58416 
L 187.958987 164.620462 
L 190.511259 163.779822 
L 193.063532 163.629853 
L 195.615805 161.650822 
L 198.168077 161.210219 
L 200.72035 160.7433 
L 203.272623 158.370496 
L 205.824896 157.164386 
L 208.377168 156.448211 
L 210.929441 156.025137 
L 213.481714 155.906451 
L 216.033987 155.639033 
L 218.586259 155.330155 
L 221.138532 154.682986 
L 223.690805 153.127691 
L 226.243077 152.784879 
L 228.79535 152.503356 
L 231.347623 151.424252 
L 233.899896 150.957602 
L 236.452168 150.937959 
L 239.004441 150.307248 
L 241.556714 149.463846 
L 244.108987 147.838384 
L 246.661259 147.580817 
L 249.213532 146.064309 
L 251.765805 145.70789 
L 254.318077 145.537383 
L 256.87035 145.338698 
L 259.422623 144.933352 
L 261.974896 144.52228 
L 264.527168 143.807869 
L 267.079441 143.674611 
L 269.631714 142.710823 
L 272.183987 141.577851 
L 274.736259 139.840913 
L 277.288532 139.621384 
L 279.840805 138.614833 
L 282.393077 138.610698 
L 284.94535 138.527267 
L 287.497623 137.753647 
L 290.049896 136.61185 
L 292.602168 132.679515 
L 295.154441 129.374707 
L 297.706714 128.943891 
L 300.258987 128.556058 
L 302.811259 127.734678 
L 305.363532 127.178538 
L 307.915805 125.622582 
L 310.468077 121.798518 
L 313.02035 107.06774 
L 315.572623 102.568812 
L 318.124896 85.512616 
" style="fill:none;stroke:#36ada4;stroke-linecap:round;stroke-width:1.5;"/>
   </g>
   <g id="line2d_7">
    <path clip-path="url(#pc38ef92fb4)" d="M 65.449896 223.262285 
L 68.002168 223.262285 
L 70.554441 223.262285 
L 73.106714 223.014582 
L 75.658987 220.580542 
L 78.211259 215.855231 
L 80.763532 213.9752 
L 83.315805 210.176507 
L 85.868077 209.725832 
L 88.42035 208.105675 
L 90.972623 203.412016 
L 93.524896 203.043588 
L 96.077168 202.52792 
L 98.629441 202.491619 
L 101.181714 202.385487 
L 103.733987 200.004463 
L 106.286259 198.215851 
L 108.838532 197.722172 
L 111.390805 197.675048 
L 113.943077 195.741151 
L 116.49535 195.002304 
L 119.047623 194.345741 
L 121.599896 192.6476 
L 124.152168 190.034171 
L 126.704441 188.548843 
L 129.256714 187.390988 
L 131.808987 186.885301 
L 134.361259 185.92714 
L 136.913532 185.10845 
L 139.465805 184.940161 
L 142.018077 184.169274 
L 144.57035 182.80669 
L 147.122623 181.756019 
L 149.674896 181.418271 
L 152.227168 180.407453 
L 154.779441 179.612607 
L 157.331714 178.536099 
L 159.883987 177.132621 
L 162.436259 176.447095 
L 164.988532 174.74742 
L 167.540805 174.149158 
L 170.093077 173.679578 
L 172.64535 173.57322 
L 175.197623 173.030677 
L 177.749896 172.86087 
L 180.302168 172.034313 
L 182.854441 171.709781 
L 185.406714 170.726523 
L 187.958987 170.613671 
L 190.511259 170.277037 
L 193.063532 170.048767 
L 195.615805 168.58074 
L 198.168077 167.936267 
L 200.72035 166.803997 
L 203.272623 166.676886 
L 205.824896 164.955833 
L 208.377168 164.276732 
L 210.929441 163.86554 
L 213.481714 163.57574 
L 216.033987 161.152585 
L 218.586259 161.061539 
L 221.138532 160.771233 
L 223.690805 158.971642 
L 226.243077 156.493277 
L 228.79535 155.078298 
L 231.347623 154.567193 
L 233.899896 154.255394 
L 236.452168 154.132225 
L 239.004441 151.860812 
L 241.556714 150.453855 
L 244.108987 149.549063 
L 246.661259 146.174886 
L 249.213532 142.519502 
L 251.765805 141.272975 
L 254.318077 141.207889 
L 256.87035 139.725386 
L 259.422623 139.700188 
L 261.974896 138.943723 
L 264.527168 138.18197 
L 267.079441 134.766494 
L 269.631714 134.733141 
L 272.183987 134.181024 
L 274.736259 133.93977 
L 277.288532 133.275925 
L 279.840805 132.864772 
L 282.393077 131.941179 
L 284.94535 131.781044 
L 287.497623 130.607755 
L 290.049896 129.382442 
L 292.602168 127.108726 
L 295.154441 124.16863 
L 297.706714 121.858473 
L 300.258987 121.626048 
L 302.811259 117.105866 
L 305.363532 116.502838 
L 307.915805 114.431614 
L 310.468077 111.857184 
L 313.02035 110.956626 
L 315.572623 99.316813 
L 318.124896 37.531366 
" style="fill:none;stroke:#38a9c5;stroke-linecap:round;stroke-width:1.5;"/>
   </g>
   <g id="line2d_8">
    <path clip-path="url(#pc38ef92fb4)" d="M 65.449896 223.262285 
L 68.002168 223.262285 
L 70.554441 218.430457 
L 73.106714 217.065166 
L 75.658987 215.340372 
L 78.211259 212.262055 
L 80.763532 212.133138 
L 83.315805 211.206977 
L 85.868077 210.612294 
L 88.42035 210.002143 
L 90.972623 209.693285 
L 93.524896 208.257067 
L 96.077168 205.422267 
L 98.629441 202.949275 
L 101.181714 199.008649 
L 103.733987 198.27049 
L 106.286259 197.7848 
L 108.838532 197.574142 
L 111.390805 197.006576 
L 113.943077 196.93544 
L 116.49535 195.137225 
L 119.047623 194.175593 
L 121.599896 192.799797 
L 124.152168 191.693467 
L 126.704441 191.377293 
L 129.256714 189.608306 
L 131.808987 189.112964 
L 134.361259 186.089793 
L 136.913532 185.815877 
L 139.465805 182.723126 
L 142.018077 181.634495 
L 144.57035 180.891465 
L 147.122623 180.682456 
L 149.674896 180.513764 
L 152.227168 178.081426 
L 154.779441 175.857969 
L 157.331714 172.113336 
L 159.883987 171.564782 
L 162.436259 169.745083 
L 164.988532 169.337991 
L 167.540805 168.861517 
L 170.093077 168.718849 
L 172.64535 167.129168 
L 175.197623 167.101492 
L 177.749896 166.937321 
L 180.302168 166.375708 
L 182.854441 165.933601 
L 185.406714 165.653075 
L 187.958987 165.593075 
L 190.511259 163.935992 
L 193.063532 163.213875 
L 195.615805 163.165826 
L 198.168077 162.241974 
L 200.72035 161.885 
L 203.272623 161.046513 
L 205.824896 159.92078 
L 208.377168 159.870651 
L 210.929441 158.649749 
L 213.481714 157.797911 
L 216.033987 157.578374 
L 218.586259 156.015158 
L 221.138532 155.734218 
L 223.690805 154.312318 
L 226.243077 154.247792 
L 228.79535 153.479234 
L 231.347623 153.222072 
L 233.899896 150.895596 
L 236.452168 149.49314 
L 239.004441 149.150164 
L 241.556714 148.123823 
L 244.108987 147.804922 
L 246.661259 145.854356 
L 249.213532 144.804479 
L 251.765805 144.1607 
L 254.318077 143.631527 
L 256.87035 142.676235 
L 259.422623 142.455367 
L 261.974896 142.07746 
L 264.527168 142.007733 
L 267.079441 141.738301 
L 269.631714 141.703635 
L 272.183987 141.262279 
L 274.736259 140.362886 
L 277.288532 139.989029 
L 279.840805 139.189862 
L 282.393077 136.501358 
L 284.94535 136.088838 
L 287.497623 133.778805 
L 290.049896 133.676087 
L 292.602168 132.436351 
L 295.154441 132.035459 
L 297.706714 131.394363 
L 300.258987 129.069671 
L 302.811259 126.126181 
L 305.363532 125.710251 
L 307.915805 114.587948 
L 310.468077 114.085633 
L 313.02035 104.616633 
L 315.572623 104.54454 
L 318.124896 89.450518 
" style="fill:none;stroke:#6e9bf4;stroke-linecap:round;stroke-width:1.5;"/>
   </g>
   <g id="line2d_9">
    <path clip-path="url(#pc38ef92fb4)" d="M 65.449896 223.262285 
L 68.002168 223.262285 
L 70.554441 223.262285 
L 73.106714 223.262285 
L 75.658987 223.262285 
L 78.211259 223.262285 
L 80.763532 223.262285 
L 83.315805 223.262285 
L 85.868077 223.262285 
L 88.42035 223.262285 
L 90.972623 223.262285 
L 93.524896 223.262285 
L 96.077168 223.262285 
L 98.629441 223.262285 
L 101.181714 223.262285 
L 103.733987 223.262285 
L 106.286259 223.262285 
L 108.838532 223.262285 
L 111.390805 223.262285 
L 113.943077 223.262285 
L 116.49535 223.262285 
L 119.047623 223.262285 
L 121.599896 223.262285 
L 124.152168 223.262285 
L 126.704441 223.262285 
L 129.256714 223.262285 
L 131.808987 223.262285 
L 134.361259 223.262285 
L 136.913532 223.262285 
L 139.465805 223.262285 
L 142.018077 223.262285 
L 144.57035 221.979777 
L 147.122623 220.495773 
L 149.674896 220.431834 
L 152.227168 219.643475 
L 154.779441 213.650566 
L 157.331714 212.262289 
L 159.883987 211.742875 
L 162.436259 211.445496 
L 164.988532 210.443386 
L 167.540805 209.271185 
L 170.093077 208.886187 
L 172.64535 206.248427 
L 175.197623 203.575936 
L 177.749896 202.226167 
L 180.302168 201.989077 
L 182.854441 201.550752 
L 185.406714 201.208272 
L 187.958987 201.040104 
L 190.511259 198.655511 
L 193.063532 197.56201 
L 195.615805 197.181627 
L 198.168077 196.658699 
L 200.72035 196.633375 
L 203.272623 195.936366 
L 205.824896 195.211766 
L 208.377168 193.928028 
L 210.929441 193.099776 
L 213.481714 192.895921 
L 216.033987 191.516499 
L 218.586259 191.186922 
L 221.138532 190.918309 
L 223.690805 190.493463 
L 226.243077 187.071882 
L 228.79535 185.448148 
L 231.347623 184.487299 
L 233.899896 184.109237 
L 236.452168 179.861227 
L 239.004441 179.033078 
L 241.556714 178.672493 
L 244.108987 178.282535 
L 246.661259 171.883449 
L 249.213532 170.221987 
L 251.765805 169.736023 
L 254.318077 169.538473 
L 256.87035 168.534637 
L 259.422623 166.815442 
L 261.974896 163.711568 
L 264.527168 163.668181 
L 267.079441 161.115202 
L 269.631714 160.542393 
L 272.183987 153.344379 
L 274.736259 151.846294 
L 277.288532 151.562007 
L 279.840805 149.985739 
L 282.393077 149.959054 
L 284.94535 149.574836 
L 287.497623 149.305905 
L 290.049896 141.405495 
L 292.602168 141.25058 
L 295.154441 141.179875 
L 297.706714 138.787281 
L 300.258987 137.834818 
L 302.811259 136.120069 
L 305.363532 135.52403 
L 307.915805 127.026403 
L 310.468077 122.129327 
L 313.02035 119.941158 
L 315.572623 97.990809 
L 318.124896 93.105872 
" style="fill:none;stroke:#cc7af4;stroke-linecap:round;stroke-width:1.5;"/>
   </g>
   <g id="line2d_10">
    <path clip-path="url(#pc38ef92fb4)" d="M 65.449896 223.262285 
L 68.002168 223.262285 
L 70.554441 223.262285 
L 73.106714 223.262285 
L 75.658987 223.262285 
L 78.211259 223.262285 
L 80.763532 223.262285 
L 83.315805 223.262285 
L 85.868077 223.262285 
L 88.42035 223.262285 
L 90.972623 223.262285 
L 93.524896 223.262285 
L 96.077168 223.262285 
L 98.629441 223.262285 
L 101.181714 223.262285 
L 103.733987 223.262285 
L 106.286259 223.262285 
L 108.838532 223.262285 
L 111.390805 223.262285 
L 113.943077 223.262285 
L 116.49535 223.262285 
L 119.047623 223.262285 
L 121.599896 223.262285 
L 124.152168 223.262285 
L 126.704441 223.262285 
L 129.256714 223.262285 
L 131.808987 223.262285 
L 134.361259 223.262285 
L 136.913532 223.262285 
L 139.465805 223.262285 
L 142.018077 223.262285 
L 144.57035 223.262285 
L 147.122623 223.262285 
L 149.674896 220.818458 
L 152.227168 220.231961 
L 154.779441 219.928443 
L 157.331714 219.8055 
L 159.883987 219.77788 
L 162.436259 219.620035 
L 164.988532 219.433039 
L 167.540805 218.728058 
L 170.093077 217.125314 
L 172.64535 216.903857 
L 175.197623 216.429892 
L 177.749896 216.048207 
L 180.302168 216.016413 
L 182.854441 214.28649 
L 185.406714 214.175405 
L 187.958987 214.032284 
L 190.511259 209.29683 
L 193.063532 206.324906 
L 195.615805 206.279102 
L 198.168077 205.967735 
L 200.72035 204.662343 
L 203.272623 204.16046 
L 205.824896 203.383338 
L 208.377168 202.201274 
L 210.929441 200.516785 
L 213.481714 196.923027 
L 216.033987 196.757086 
L 218.586259 196.586265 
L 221.138532 196.473091 
L 223.690805 196.412126 
L 226.243077 196.252029 
L 228.79535 195.492287 
L 231.347623 194.770104 
L 233.899896 193.730638 
L 236.452168 193.299246 
L 239.004441 193.164984 
L 241.556714 189.438337 
L 244.108987 187.646277 
L 246.661259 187.634381 
L 249.213532 187.354619 
L 251.765805 186.017309 
L 254.318077 185.996553 
L 256.87035 184.135375 
L 259.422623 182.862315 
L 261.974896 182.630678 
L 264.527168 182.310475 
L 267.079441 182.249972 
L 269.631714 172.547585 
L 272.183987 172.142702 
L 274.736259 171.917378 
L 277.288532 169.884727 
L 279.840805 169.495906 
L 282.393077 169.316025 
L 284.94535 168.931617 
L 287.497623 168.920822 
L 290.049896 166.635981 
L 292.602168 165.187159 
L 295.154441 164.808348 
L 297.706714 161.108449 
L 300.258987 160.115664 
L 302.811259 156.877919 
L 305.363532 152.347674 
L 307.915805 152.259487 
L 310.468077 149.808442 
L 313.02035 146.338143 
L 315.572623 133.786454 
L 318.124896 127.16623 
" style="fill:none;stroke:#f565cc;stroke-linecap:round;stroke-width:1.5;"/>
   </g>
   <g id="line2d_11">
    <path clip-path="url(#pc38ef92fb4)" d="M 65.449896 206.331203 
L 68.002168 187.522859 
L 70.554441 185.269046 
L 73.106714 185.161472 
L 75.658987 184.170812 
L 78.211259 182.843201 
L 80.763532 182.445127 
L 83.315805 181.309497 
L 85.868077 181.221171 
L 88.42035 179.004437 
L 90.972623 178.985919 
L 93.524896 178.350292 
L 96.077168 178.341926 
L 98.629441 177.685642 
L 101.181714 177.619996 
L 103.733987 177.307812 
L 106.286259 177.046436 
L 108.838532 176.937986 
L 111.390805 176.540947 
L 113.943077 176.312583 
L 116.49535 176.243905 
L 119.047623 176.200011 
L 121.599896 175.729463 
L 124.152168 175.21296 
L 126.704441 175.071257 
L 129.256714 174.018888 
L 131.808987 173.997513 
L 134.361259 173.961854 
L 136.913532 173.539073 
L 139.465805 173.456732 
L 142.018077 173.327621 
L 144.57035 172.980006 
L 147.122623 172.891276 
L 149.674896 172.505392 
L 152.227168 171.78879 
L 154.779441 171.718286 
L 157.331714 171.712879 
L 159.883987 171.672105 
L 162.436259 171.39894 
L 164.988532 171.132287 
L 167.540805 170.9581 
L 170.093077 170.827568 
L 172.64535 170.784056 
L 175.197623 170.552921 
L 177.749896 170.292662 
L 180.302168 170.207884 
L 182.854441 169.681895 
L 185.406714 169.646101 
L 187.958987 169.605873 
L 190.511259 169.32502 
L 193.063532 168.98224 
L 195.615805 168.59711 
L 198.168077 168.555265 
L 200.72035 168.554842 
L 203.272623 168.204364 
L 205.824896 168.123485 
L 208.377168 167.797619 
L 210.929441 167.493746 
L 213.481714 166.68334 
L 216.033987 166.198254 
L 218.586259 166.048041 
L 221.138532 165.597647 
L 223.690805 165.375908 
L 226.243077 165.225199 
L 228.79535 164.582446 
L 231.347623 164.45753 
L 233.899896 164.275552 
L 236.452168 164.054338 
L 239.004441 163.366143 
L 241.556714 162.964248 
L 244.108987 162.654256 
L 246.661259 162.604943 
L 249.213532 162.519523 
L 251.765805 162.502068 
L 254.318077 162.416679 
L 256.87035 161.906571 
L 259.422623 161.636739 
L 261.974896 161.49043 
L 264.527168 160.865236 
L 267.079441 160.419795 
L 269.631714 160.353975 
L 272.183987 159.839252 
L 274.736259 159.693066 
L 277.288532 159.362288 
L 279.840805 157.99399 
L 282.393077 157.764311 
L 284.94535 157.343867 
L 287.497623 156.996238 
L 290.049896 156.959835 
L 292.602168 156.736683 
L 295.154441 153.832343 
L 297.706714 153.10505 
L 300.258987 152.611928 
L 302.811259 151.956407 
L 305.363532 148.314982 
L 307.915805 146.228416 
L 310.468077 137.564277 
L 313.02035 135.453931 
L 315.572623 130.3218 
L 318.124896 119.229409 
" style="fill:none;stroke:#000000;stroke-linecap:round;stroke-width:6;"/>
   </g>
   <g id="patch_3">
    <path d="M 65.449896 265.571549 
L 65.449896 12.896549 
" style="fill:none;stroke:#262626;stroke-linecap:square;stroke-linejoin:miter;stroke-width:1.25;"/>
   </g>
   <g id="patch_4">
    <path d="M 65.449896 265.571549 
L 318.124896 265.571549 
" style="fill:none;stroke:#262626;stroke-linecap:square;stroke-linejoin:miter;stroke-width:1.25;"/>
   </g>
   <g id="legend_1">
    <g id="patch_5">
     <path d="M 73.149896 199.301861 
L 175.162864 199.301861 
Q 177.362864 199.301861 177.362864 197.101861 
L 177.362864 20.596549 
Q 177.362864 18.396549 175.162864 18.396549 
L 73.149896 18.396549 
Q 70.949896 18.396549 70.949896 20.596549 
L 70.949896 197.101861 
Q 70.949896 199.301861 73.149896 199.301861 
z
" style="fill:#ffffff;opacity:0.8;stroke:#cccccc;stroke-linejoin:miter;"/>
    </g>
    <g id="line2d_12">
     <path d="M 75.349896 27.30483 
L 97.349896 27.30483 
" style="fill:none;stroke:#f77189;stroke-linecap:round;stroke-width:1.5;"/>
    </g>
    <g id="line2d_13"/>
    <g id="text_15">
     <text style="fill:#262626;font-family:DejaVu Sans;font-size:11px;font-stretch:normal;font-style:normal;font-weight:normal;text-anchor:start;" transform="rotate(-0, 106.149896, 31.15483)" x="106.149896" y="31.15483">Cell Type  1</text>
    </g>
    <g id="line2d_14">
     <path d="M 75.349896 43.450767 
L 97.349896 43.450767 
" style="fill:none;stroke:#dc8932;stroke-linecap:round;stroke-width:1.5;"/>
    </g>
    <g id="line2d_15"/>
    <g id="text_16">
     <text style="fill:#262626;font-family:DejaVu Sans;font-size:11px;font-stretch:normal;font-style:normal;font-weight:normal;text-anchor:start;" transform="rotate(-0, 106.149896, 47.300767)" x="106.149896" y="47.300767">Cell Type  2</text>
    </g>
    <g id="line2d_16">
     <path d="M 75.349896 59.596705 
L 97.349896 59.596705 
" style="fill:none;stroke:#ae9d31;stroke-linecap:round;stroke-width:1.5;"/>
    </g>
    <g id="line2d_17"/>
    <g id="text_17">
     <text style="fill:#262626;font-family:DejaVu Sans;font-size:11px;font-stretch:normal;font-style:normal;font-weight:normal;text-anchor:start;" transform="rotate(-0, 106.149896, 63.446705)" x="106.149896" y="63.446705">Cell Type  3</text>
    </g>
    <g id="line2d_18">
     <path d="M 75.349896 75.742642 
L 97.349896 75.742642 
" style="fill:none;stroke:#77ab31;stroke-linecap:round;stroke-width:1.5;"/>
    </g>
    <g id="line2d_19"/>
    <g id="text_18">
     <text style="fill:#262626;font-family:DejaVu Sans;font-size:11px;font-stretch:normal;font-style:normal;font-weight:normal;text-anchor:start;" transform="rotate(-0, 106.149896, 79.592642)" x="106.149896" y="79.592642">Cell Type  4</text>
    </g>
    <g id="line2d_20">
     <path d="M 75.349896 91.88858 
L 97.349896 91.88858 
" style="fill:none;stroke:#33b07a;stroke-linecap:round;stroke-width:1.5;"/>
    </g>
    <g id="line2d_21"/>
    <g id="text_19">
     <text style="fill:#262626;font-family:DejaVu Sans;font-size:11px;font-stretch:normal;font-style:normal;font-weight:normal;text-anchor:start;" transform="rotate(-0, 106.149896, 95.73858)" x="106.149896" y="95.73858">Cell Type  5</text>
    </g>
    <g id="line2d_22">
     <path d="M 75.349896 108.034517 
L 97.349896 108.034517 
" style="fill:none;stroke:#36ada4;stroke-linecap:round;stroke-width:1.5;"/>
    </g>
    <g id="line2d_23"/>
    <g id="text_20">
     <text style="fill:#262626;font-family:DejaVu Sans;font-size:11px;font-stretch:normal;font-style:normal;font-weight:normal;text-anchor:start;" transform="rotate(-0, 106.149896, 111.884517)" x="106.149896" y="111.884517">Cell Type  6</text>
    </g>
    <g id="line2d_24">
     <path d="M 75.349896 124.180455 
L 97.349896 124.180455 
" style="fill:none;stroke:#38a9c5;stroke-linecap:round;stroke-width:1.5;"/>
    </g>
    <g id="line2d_25"/>
    <g id="text_21">
     <text style="fill:#262626;font-family:DejaVu Sans;font-size:11px;font-stretch:normal;font-style:normal;font-weight:normal;text-anchor:start;" transform="rotate(-0, 106.149896, 128.030455)" x="106.149896" y="128.030455">Cell Type  7</text>
    </g>
    <g id="line2d_26">
     <path d="M 75.349896 140.326392 
L 97.349896 140.326392 
" style="fill:none;stroke:#6e9bf4;stroke-linecap:round;stroke-width:1.5;"/>
    </g>
    <g id="line2d_27"/>
    <g id="text_22">
     <text style="fill:#262626;font-family:DejaVu Sans;font-size:11px;font-stretch:normal;font-style:normal;font-weight:normal;text-anchor:start;" transform="rotate(-0, 106.149896, 144.176392)" x="106.149896" y="144.176392">Cell Type  8</text>
    </g>
    <g id="line2d_28">
     <path d="M 75.349896 156.47233 
L 97.349896 156.47233 
" style="fill:none;stroke:#cc7af4;stroke-linecap:round;stroke-width:1.5;"/>
    </g>
    <g id="line2d_29"/>
    <g id="text_23">
     <text style="fill:#262626;font-family:DejaVu Sans;font-size:11px;font-stretch:normal;font-style:normal;font-weight:normal;text-anchor:start;" transform="rotate(-0, 106.149896, 160.32233)" x="106.149896" y="160.32233">Cell Type  9</text>
    </g>
    <g id="line2d_30">
     <path d="M 75.349896 172.618267 
L 97.349896 172.618267 
" style="fill:none;stroke:#f565cc;stroke-linecap:round;stroke-width:1.5;"/>
    </g>
    <g id="line2d_31"/>
    <g id="text_24">
     <text style="fill:#262626;font-family:DejaVu Sans;font-size:11px;font-stretch:normal;font-style:normal;font-weight:normal;text-anchor:start;" transform="rotate(-0, 106.149896, 176.468267)" x="106.149896" y="176.468267">Cell Type 10</text>
    </g>
    <g id="line2d_32">
     <path d="M 75.349896 188.764205 
L 97.349896 188.764205 
" style="fill:none;stroke:#000000;stroke-linecap:round;stroke-width:6;"/>
    </g>
    <g id="line2d_33"/>
    <g id="text_25">
     <text style="fill:#262626;font-family:DejaVu Sans;font-size:11px;font-stretch:normal;font-style:normal;font-weight:normal;text-anchor:start;" transform="rotate(-0, 106.149896, 192.614205)" x="106.149896" y="192.614205">Cumulative</text>
    </g>
   </g>
  </g>
 </g>
 <defs>
  <clipPath id="pc38ef92fb4">
   <rect height="252.675" width="252.675" x="65.449896" y="12.896549"/>
  </clipPath>
 </defs>
</svg>
