<?xml version="1.0" encoding="utf-8" standalone="no"?>
<!DOCTYPE svg PUBLIC "-//W3C//DTD SVG 1.1//EN"
  "http://www.w3.org/Graphics/SVG/1.1/DTD/svg11.dtd">
<svg xmlns:xlink="http://www.w3.org/1999/xlink" width="439.309828pt" height="335.124679pt" viewBox="0 0 439.309828 335.124679" xmlns="http://www.w3.org/2000/svg" version="1.1">
 <metadata>
  <rdf:RDF xmlns:dc="http://purl.org/dc/elements/1.1/" xmlns:cc="http://creativecommons.org/ns#" xmlns:rdf="http://www.w3.org/1999/02/22-rdf-syntax-ns#">
   <cc:Work>
    <dc:type rdf:resource="http://purl.org/dc/dcmitype/StillImage"/>
    <dc:date>2023-09-02T13:54:46.117959</dc:date>
    <dc:format>image/svg+xml</dc:format>
    <dc:creator>
     <cc:Agent>
      <dc:title>Matplotlib v3.7.2, https://matplotlib.org/</dc:title>
     </cc:Agent>
    </dc:creator>
   </cc:Work>
  </rdf:RDF>
 </metadata>
 <defs>
  <style type="text/css">*{stroke-linejoin: round; stroke-linecap: butt}</style>
 </defs>
 <g id="figure_1">
  <g id="patch_1">
   <path d="M 0 335.124679 
L 439.309828 335.124679 
L 439.309828 0 
L 0 0 
z
" style="fill: #ffffff"/>
  </g>
  <g id="axes_1">
   <g id="patch_2">
    <path d="M 74.989828 279.008549 
L 432.109828 279.008549 
L 432.109828 12.896549 
L 74.989828 12.896549 
z
" style="fill: #ffffff"/>
   </g>
   <g id="matplotlib.axis_1">
    <g id="xtick_1">
     <g id="line2d_1">
      <path d="M 110.762642 279.008549 
L 110.762642 12.896549 
" clip-path="url(#p8230bfe49b)" style="fill: none; stroke: #cccccc; stroke-linecap: round"/>
     </g>
     <g id="text_1">
      <text style="fill: #262626; font: 14.994px 'Arial', 'DejaVu Sans', 'Liberation Sans', 'Bitstream Vera Sans', sans-serif; text-anchor: middle" x="110.762642" y="299.901646" transform="rotate(-0 110.762642 299.901646)">1000</text>
     </g>
    </g>
    <g id="xtick_2">
     <g id="line2d_2">
      <path d="M 182.308269 279.008549 
L 182.308269 12.896549 
" clip-path="url(#p8230bfe49b)" style="fill: none; stroke: #cccccc; stroke-linecap: round"/>
     </g>
     <g id="text_2">
      <text style="fill: #262626; font: 14.994px 'Arial', 'DejaVu Sans', 'Liberation Sans', 'Bitstream Vera Sans', sans-serif; text-anchor: middle" x="182.308269" y="299.901646" transform="rotate(-0 182.308269 299.901646)">2000</text>
     </g>
    </g>
    <g id="xtick_3">
     <g id="line2d_3">
      <path d="M 253.853897 279.008549 
L 253.853897 12.896549 
" clip-path="url(#p8230bfe49b)" style="fill: none; stroke: #cccccc; stroke-linecap: round"/>
     </g>
     <g id="text_3">
      <text style="fill: #262626; font: 14.994px 'Arial', 'DejaVu Sans', 'Liberation Sans', 'Bitstream Vera Sans', sans-serif; text-anchor: middle" x="253.853897" y="299.901646" transform="rotate(-0 253.853897 299.901646)">3000</text>
     </g>
    </g>
    <g id="xtick_4">
     <g id="line2d_4">
      <path d="M 325.399525 279.008549 
L 325.399525 12.896549 
" clip-path="url(#p8230bfe49b)" style="fill: none; stroke: #cccccc; stroke-linecap: round"/>
     </g>
     <g id="text_4">
      <text style="fill: #262626; font: 14.994px 'Arial', 'DejaVu Sans', 'Liberation Sans', 'Bitstream Vera Sans', sans-serif; text-anchor: middle" x="325.399525" y="299.901646" transform="rotate(-0 325.399525 299.901646)">4000</text>
     </g>
    </g>
    <g id="xtick_5">
     <g id="line2d_5">
      <path d="M 396.945152 279.008549 
L 396.945152 12.896549 
" clip-path="url(#p8230bfe49b)" style="fill: none; stroke: #cccccc; stroke-linecap: round"/>
     </g>
     <g id="text_5">
      <text style="fill: #262626; font: 14.994px 'Arial', 'DejaVu Sans', 'Liberation Sans', 'Bitstream Vera Sans', sans-serif; text-anchor: middle" x="396.945152" y="299.901646" transform="rotate(-0 396.945152 299.901646)">5000</text>
     </g>
    </g>
    <g id="text_6">
     <text style="fill: #262626; font: 21.6px 'Arial', 'DejaVu Sans', 'Liberation Sans', 'Bitstream Vera Sans', sans-serif; text-anchor: middle" x="253.549828" y="323.432554" transform="rotate(-0 253.549828 323.432554)">Epoch</text>
    </g>
   </g>
   <g id="matplotlib.axis_2">
    <g id="ytick_1">
     <g id="line2d_6">
      <path d="M 74.989828 279.008549 
L 432.109828 279.008549 
" clip-path="url(#p8230bfe49b)" style="fill: none; stroke: #cccccc; stroke-linecap: round"/>
     </g>
     <g id="text_7">
      <text style="fill: #262626; font: 14.994px 'Arial', 'DejaVu Sans', 'Liberation Sans', 'Bitstream Vera Sans', sans-serif; text-anchor: end" x="65.489828" y="284.705097" transform="rotate(-0 65.489828 284.705097)">0.70</text>
     </g>
    </g>
    <g id="ytick_2">
     <g id="line2d_7">
      <path d="M 74.989828 234.656549 
L 432.109828 234.656549 
" clip-path="url(#p8230bfe49b)" style="fill: none; stroke: #cccccc; stroke-linecap: round"/>
     </g>
     <g id="text_8">
      <text style="fill: #262626; font: 14.994px 'Arial', 'DejaVu Sans', 'Liberation Sans', 'Bitstream Vera Sans', sans-serif; text-anchor: end" x="65.489828" y="240.353097" transform="rotate(-0 65.489828 240.353097)">0.75</text>
     </g>
    </g>
    <g id="ytick_3">
     <g id="line2d_8">
      <path d="M 74.989828 190.304549 
L 432.109828 190.304549 
" clip-path="url(#p8230bfe49b)" style="fill: none; stroke: #cccccc; stroke-linecap: round"/>
     </g>
     <g id="text_9">
      <text style="fill: #262626; font: 14.994px 'Arial', 'DejaVu Sans', 'Liberation Sans', 'Bitstream Vera Sans', sans-serif; text-anchor: end" x="65.489828" y="196.001097" transform="rotate(-0 65.489828 196.001097)">0.80</text>
     </g>
    </g>
    <g id="ytick_4">
     <g id="line2d_9">
      <path d="M 74.989828 145.952549 
L 432.109828 145.952549 
" clip-path="url(#p8230bfe49b)" style="fill: none; stroke: #cccccc; stroke-linecap: round"/>
     </g>
     <g id="text_10">
      <text style="fill: #262626; font: 14.994px 'Arial', 'DejaVu Sans', 'Liberation Sans', 'Bitstream Vera Sans', sans-serif; text-anchor: end" x="65.489828" y="151.649097" transform="rotate(-0 65.489828 151.649097)">0.85</text>
     </g>
    </g>
    <g id="ytick_5">
     <g id="line2d_10">
      <path d="M 74.989828 101.600549 
L 432.109828 101.600549 
" clip-path="url(#p8230bfe49b)" style="fill: none; stroke: #cccccc; stroke-linecap: round"/>
     </g>
     <g id="text_11">
      <text style="fill: #262626; font: 14.994px 'Arial', 'DejaVu Sans', 'Liberation Sans', 'Bitstream Vera Sans', sans-serif; text-anchor: end" x="65.489828" y="107.297097" transform="rotate(-0 65.489828 107.297097)">0.90</text>
     </g>
    </g>
    <g id="ytick_6">
     <g id="line2d_11">
      <path d="M 74.989828 57.248549 
L 432.109828 57.248549 
" clip-path="url(#p8230bfe49b)" style="fill: none; stroke: #cccccc; stroke-linecap: round"/>
     </g>
     <g id="text_12">
      <text style="fill: #262626; font: 14.994px 'Arial', 'DejaVu Sans', 'Liberation Sans', 'Bitstream Vera Sans', sans-serif; text-anchor: end" x="65.489828" y="62.945097" transform="rotate(-0 65.489828 62.945097)">0.95</text>
     </g>
    </g>
    <g id="ytick_7">
     <g id="line2d_12">
      <path d="M 74.989828 12.896549 
L 432.109828 12.896549 
" clip-path="url(#p8230bfe49b)" style="fill: none; stroke: #cccccc; stroke-linecap: round"/>
     </g>
     <g id="text_13">
      <text style="fill: #262626; font: 14.994px 'Arial', 'DejaVu Sans', 'Liberation Sans', 'Bitstream Vera Sans', sans-serif; text-anchor: end" x="65.489828" y="18.593097" transform="rotate(-0 65.489828 18.593097)">1.00</text>
     </g>
    </g>
    <g id="text_14">
     <text style="fill: #262626; font: 21.6px 'Arial', 'DejaVu Sans', 'Liberation Sans', 'Bitstream Vera Sans', sans-serif; text-anchor: middle" x="23.612625" y="145.952549" transform="rotate(-90 23.612625 145.952549)">Total Loss</text>
    </g>
   </g>
   <g id="line2d_13">
    <path d="M 74.918282 156.595966 
L 75.061374 164.020016 
L 75.132919 160.114751 
L 75.204465 163.740479 
L 75.276011 160.186004 
L 75.347556 164.841776 
L 75.419102 161.2092 
L 75.490648 163.823779 
L 75.633739 157.11328 
L 75.705284 164.730347 
L 75.77683 164.17337 
L 75.848376 162.161567 
L 75.919921 162.753431 
L 76.063013 171.172185 
L 76.206104 155.910353 
L 76.277649 168.466146 
L 76.349195 167.616657 
L 76.420741 169.486028 
L 76.492286 166.120593 
L 76.563832 167.118936 
L 76.635378 164.685694 
L 76.706923 165.941841 
L 76.778469 165.638734 
L 76.850014 168.208656 
L 76.92156 162.666693 
L 76.993106 162.780567 
L 77.064651 163.137762 
L 77.279288 171.696266 
L 77.350834 164.712964 
L 77.422379 166.370593 
L 77.493925 164.948009 
L 77.565471 175.650472 
L 77.637016 163.601275 
L 77.708562 171.932838 
L 77.780108 167.506915 
L 77.851653 174.069569 
L 77.923199 166.347138 
L 77.994744 173.119705 
L 78.06629 164.392776 
L 78.137836 168.725021 
L 78.209381 165.92104 
L 78.352473 170.254453 
L 78.424018 167.577086 
L 78.495564 171.733817 
L 78.56711 169.576923 
L 78.638655 171.827402 
L 78.710201 167.729943 
L 78.781746 177.658867 
L 78.853292 167.149881 
L 78.924838 168.966227 
L 78.996383 168.706361 
L 79.067929 163.24271 
L 79.21102 174.230609 
L 79.282566 176.605892 
L 79.497203 168.363934 
L 79.568748 176.027859 
L 79.640294 171.76086 
L 79.71184 172.396281 
L 79.783385 175.725323 
L 79.854931 167.889604 
L 79.926476 172.01934 
L 79.998022 177.031153 
L 80.141113 164.008627 
L 80.212659 172.900125 
L 80.284205 168.768011 
L 80.35575 174.294511 
L 80.427296 171.5099 
L 80.498841 174.828062 
L 80.570387 169.020762 
L 80.641933 176.993375 
L 80.713478 175.920846 
L 80.785024 171.68828 
L 80.85657 172.723254 
L 80.928115 174.219219 
L 80.999661 171.846014 
L 81.071206 176.775974 
L 81.142752 174.43199 
L 81.214298 173.22159 
L 81.285843 173.772523 
L 81.357389 168.512791 
L 81.572026 180.406729 
L 81.643571 179.649377 
L 81.715117 171.935516 
L 81.786663 173.157703 
L 81.858208 179.624773 
L 81.929754 169.02181 
L 82.0013 182.254223 
L 82.072845 180.697837 
L 82.215937 177.699998 
L 82.287482 177.285982 
L 82.359028 180.97628 
L 82.430573 174.243852 
L 82.573665 180.527585 
L 82.716756 172.220656 
L 82.788302 181.523101 
L 82.859847 179.383505 
L 83.074484 181.854834 
L 83.14603 177.266456 
L 83.217575 181.489923 
L 83.289121 176.539574 
L 83.360667 184.720125 
L 83.432212 181.458298 
L 83.503758 186.326745 
L 83.646849 170.660322 
L 83.78994 180.100818 
L 83.861486 173.226924 
L 83.933032 176.366594 
L 84.147668 187.874535 
L 84.29076 184.64635 
L 84.362305 184.652509 
L 84.433851 178.605365 
L 84.576942 183.576508 
L 84.648488 181.022748 
L 84.720033 183.716501 
L 84.791579 180.093073 
L 84.863125 183.595962 
L 85.006216 179.870746 
L 85.077762 189.906316 
L 85.292398 177.188192 
L 85.43549 184.783558 
L 85.507035 178.70925 
L 85.578581 178.830023 
L 85.793218 190.107215 
L 85.864764 178.550021 
L 85.936309 180.058563 
L 86.0794 189.983825 
L 86.150946 180.067142 
L 86.222492 180.431912 
L 86.437129 186.564614 
L 86.508674 183.047899 
L 86.58022 188.900318 
L 86.723311 181.683959 
L 86.794857 183.219423 
L 86.866402 183.463907 
L 87.081039 189.668245 
L 87.152585 188.553056 
L 87.22413 182.77101 
L 87.295676 186.926044 
L 87.367222 182.96628 
L 87.438767 185.723405 
L 87.581859 179.359075 
L 87.72495 185.42011 
L 87.796495 187.630229 
L 87.868041 187.282278 
L 87.939587 183.033618 
L 88.082678 189.570976 
L 88.154224 185.163553 
L 88.225769 189.531043 
L 88.297315 179.925305 
L 88.36886 182.417276 
L 88.440406 181.916764 
L 88.511952 189.482333 
L 88.583497 189.434614 
L 88.655043 187.011063 
L 88.726589 187.960241 
L 88.798134 176.818424 
L 88.941226 187.643797 
L 89.012771 185.773485 
L 89.084317 178.199003 
L 89.227408 189.225177 
L 89.298954 186.930533 
L 89.370499 191.46864 
L 89.442045 182.976066 
L 89.513591 192.491464 
L 89.585136 188.39883 
L 89.799773 187.591957 
L 89.871319 174.564117 
L 89.942864 192.927834 
L 90.01441 175.929693 
L 90.157501 191.876394 
L 90.229047 190.636954 
L 90.300592 195.551105 
L 90.515229 185.28204 
L 90.801412 197.679052 
L 91.016049 190.617426 
L 91.087594 194.919278 
L 91.15914 184.750986 
L 91.230686 190.918034 
L 91.302231 184.770197 
L 91.373777 193.866723 
L 91.445322 192.204598 
L 91.516868 193.043297 
L 91.588414 184.308455 
L 91.659959 187.055097 
L 91.731505 187.263558 
L 91.874596 194.009968 
L 92.089233 183.052565 
L 92.160779 191.736937 
L 92.232324 190.173236 
L 92.375416 194.364163 
L 92.446961 194.339072 
L 92.518507 184.615168 
L 92.590053 192.501032 
L 92.661598 191.786989 
L 92.733144 192.242746 
L 92.804689 185.596682 
L 92.876235 192.486208 
L 92.947781 185.434514 
L 93.019326 196.816601 
L 93.090872 184.673246 
L 93.162418 186.894807 
L 93.233963 184.577711 
L 93.4486 200.641418 
L 93.520146 184.89855 
L 93.591691 195.956809 
L 93.663237 187.892001 
L 93.734783 192.098895 
L 93.806328 189.717185 
L 93.877874 177.919103 
L 93.949419 191.342583 
L 94.020965 189.602536 
L 94.164056 180.230499 
L 94.307148 195.931746 
L 94.378693 195.355967 
L 94.450239 198.52509 
L 94.59333 188.468149 
L 94.664876 195.459436 
L 94.736421 187.826014 
L 94.807967 188.904491 
L 94.879513 189.629935 
L 94.951058 188.903677 
L 95.022604 193.115307 
L 95.094149 192.696117 
L 95.165695 185.410574 
L 95.237241 198.035914 
L 95.451878 176.613114 
L 95.594969 189.471933 
L 95.666514 183.32678 
L 95.73806 197.28223 
L 95.809606 192.67732 
L 95.881151 197.02431 
L 95.952697 195.262411 
L 96.024243 180.241437 
L 96.095788 198.325665 
L 96.167334 186.003693 
L 96.23888 189.452444 
L 96.310425 190.393479 
L 96.381971 183.888199 
L 96.453516 192.028095 
L 96.525062 186.404722 
L 96.668153 193.887563 
L 96.739699 193.516978 
L 96.811245 197.778561 
L 97.025881 183.352431 
L 97.097427 192.073567 
L 97.168973 187.542465 
L 97.240518 185.682989 
L 97.38361 203.538468 
L 97.455155 188.500328 
L 97.526701 196.154636 
L 97.598246 194.922809 
L 97.741338 178.888623 
L 97.812883 199.850131 
L 97.884429 192.668807 
L 98.02752 185.480792 
L 98.099066 194.043825 
L 98.170611 190.417791 
L 98.242157 195.943416 
L 98.456794 183.055212 
L 98.52834 186.712526 
L 98.599885 184.068919 
L 98.671431 192.614257 
L 98.742976 183.714884 
L 98.814522 185.31366 
L 98.886068 185.738397 
L 98.957613 193.196985 
L 99.029159 186.921922 
L 99.100705 189.122855 
L 99.17225 195.504472 
L 99.243796 181.872516 
L 99.315341 193.25454 
L 99.386887 189.024447 
L 99.458433 196.161512 
L 99.529978 194.548856 
L 99.601524 178.708889 
L 99.744615 193.105636 
L 99.959252 187.724552 
L 100.030798 200.013453 
L 100.102343 196.504279 
L 100.173889 200.317226 
L 100.245435 181.394449 
L 100.31698 185.912312 
L 100.460072 195.808481 
L 100.531617 191.215849 
L 100.603163 196.022907 
L 100.674708 173.831774 
L 100.8178 193.572602 
L 101.032437 184.391908 
L 101.103982 193.002345 
L 101.175528 181.409232 
L 101.247073 194.569684 
L 101.46171 179.449493 
L 101.604802 188.091545 
L 101.676347 190.846509 
L 101.747893 172.638389 
L 101.819438 194.282101 
L 101.890984 176.489669 
L 101.96253 184.481484 
L 102.034075 190.30459 
L 102.177167 183.324896 
L 102.248712 185.970302 
L 102.320258 183.732957 
L 102.391803 191.670237 
L 102.463349 184.654235 
L 102.534895 194.253303 
L 102.677986 186.7725 
L 102.749532 190.476138 
L 102.821077 185.507395 
L 102.892623 187.051152 
L 102.964169 194.649524 
L 103.035714 181.522394 
L 103.10726 190.261781 
L 103.178805 186.899267 
L 103.250351 185.784671 
L 103.321897 187.463649 
L 103.393442 181.519519 
L 103.536534 203.643147 
L 103.822716 179.69308 
L 103.894262 193.133144 
L 103.965807 183.511022 
L 104.037353 185.723385 
L 104.108899 180.914777 
L 104.180444 184.010334 
L 104.25199 172.537456 
L 104.395081 192.189641 
L 104.466627 186.876316 
L 104.538172 195.528609 
L 104.681264 179.981859 
L 104.752809 183.490876 
L 104.824355 191.766657 
L 104.8959 190.51784 
L 105.110537 176.959498 
L 105.253629 191.294378 
L 105.325174 185.299658 
L 105.39672 188.373337 
L 105.468265 193.564242 
L 105.539811 186.524113 
L 105.611357 199.308841 
L 105.682902 183.488308 
L 105.754448 184.335495 
L 105.969085 202.921671 
L 106.183722 173.557076 
L 106.255267 167.855024 
L 106.398359 189.249774 
L 106.469904 188.554506 
L 106.54145 180.089496 
L 106.684541 189.751263 
L 106.756087 183.165096 
L 106.827632 192.486853 
L 106.899178 178.58046 
L 106.970724 188.923938 
L 107.042269 183.226209 
L 107.113815 176.088442 
L 107.185361 176.220969 
L 107.256906 194.700882 
L 107.328452 178.293927 
L 107.471543 199.074301 
L 107.614634 180.72424 
L 107.68618 185.800938 
L 107.757726 182.170373 
L 107.829271 192.480099 
L 107.900817 192.315217 
L 108.043908 177.680856 
L 108.115454 182.446844 
L 108.186999 180.205854 
L 108.258545 194.222325 
L 108.330091 181.418289 
L 108.473182 201.655543 
L 108.544727 183.337169 
L 108.616273 186.860568 
L 108.687819 189.013305 
L 108.759364 179.128797 
L 108.83091 195.33301 
L 108.902456 190.740606 
L 109.045547 165.786505 
L 109.117092 190.535 
L 109.188638 180.751077 
L 109.260184 181.808906 
L 109.331729 189.059998 
L 109.403275 188.550169 
L 109.546366 195.667042 
L 109.617912 193.300656 
L 109.689457 177.381033 
L 109.761003 201.585982 
L 109.904094 174.71933 
L 110.047186 194.146386 
L 110.118731 185.762637 
L 110.190277 196.839872 
L 110.261823 192.085454 
L 110.333368 193.684219 
L 110.404914 182.480444 
L 110.476459 187.409653 
L 110.619551 194.316354 
L 110.691096 175.532958 
L 110.762642 186.962618 
L 110.834188 181.231641 
L 110.905733 180.982304 
L 110.977279 191.601345 
L 111.048824 166.814021 
L 111.191916 193.399053 
L 111.263461 175.47331 
L 111.335007 180.047187 
L 111.478098 195.177067 
L 111.621189 178.950463 
L 111.692735 196.610922 
L 111.764281 182.578457 
L 111.835826 185.447438 
L 111.978918 179.375759 
L 112.050463 181.17386 
L 112.193554 170.866974 
L 112.408191 188.294538 
L 112.479737 180.867607 
L 112.551283 187.998443 
L 112.694374 161.591572 
L 112.765919 171.192993 
L 112.909011 191.768641 
L 113.052102 181.442084 
L 113.123648 188.632869 
L 113.195193 186.991815 
L 113.338285 189.621234 
L 113.40983 167.747215 
L 113.481376 190.418812 
L 113.552921 174.513869 
L 113.624467 181.460082 
L 113.696013 176.350068 
L 113.767558 188.77187 
L 113.839104 172.852738 
L 113.91065 183.997459 
L 113.982195 180.837108 
L 114.053741 188.844577 
L 114.125286 160.884351 
L 114.196832 174.843488 
L 114.268378 190.960903 
L 114.339923 170.253878 
L 114.411469 172.18283 
L 114.483015 177.012229 
L 114.55456 174.859639 
L 114.626106 151.944621 
L 114.769197 197.115727 
L 114.912288 170.799029 
L 114.983834 176.910703 
L 115.05538 161.813681 
L 115.126925 177.014341 
L 115.198471 176.653316 
L 115.270016 165.091715 
L 115.341562 173.461158 
L 115.413108 172.783584 
L 115.484653 151.52524 
L 115.556199 197.595544 
L 115.627745 172.765631 
L 115.69929 167.387907 
L 115.842381 187.444861 
L 115.985473 144.090647 
L 116.20011 189.970233 
L 116.271655 160.694288 
L 116.343201 171.329687 
L 116.414746 166.592097 
L 116.700929 195.187439 
L 116.84402 159.456077 
L 116.915566 179.208565 
L 116.987112 162.281527 
L 117.058657 175.295882 
L 117.130203 172.756627 
L 117.201748 176.553348 
L 117.273294 159.387577 
L 117.34484 178.129779 
L 117.416385 175.246862 
L 117.487931 181.382322 
L 117.774113 148.079969 
L 117.845659 176.95394 
L 117.917205 162.356924 
L 117.98875 160.375364 
L 118.060296 171.173941 
L 118.131842 148.592899 
L 118.346478 190.412669 
L 118.418024 164.850035 
L 118.48957 171.461574 
L 118.561115 185.111617 
L 118.632661 171.812817 
L 118.704207 186.054198 
L 118.775752 171.34356 
L 118.847298 194.389961 
L 118.918843 173.99149 
L 118.990389 178.640801 
L 119.205026 152.259495 
L 119.276572 186.529085 
L 119.419663 151.631934 
L 119.491208 164.292794 
L 119.562754 163.102067 
L 119.6343 168.26168 
L 119.705845 160.443135 
L 119.848937 192.751498 
L 119.920482 189.307297 
L 120.063573 163.381899 
L 120.135119 167.843194 
L 120.206665 140.17878 
L 120.27821 175.512503 
L 120.349756 158.794994 
L 120.421302 171.843497 
L 120.492847 149.620247 
L 120.564393 171.180492 
L 120.635939 162.273922 
L 120.707484 154.800234 
L 120.77903 192.638815 
L 120.993667 138.33313 
L 121.136758 170.777904 
L 121.208304 159.778461 
L 121.279849 171.505161 
L 121.351395 169.401911 
L 121.42294 171.716758 
L 121.637577 150.722887 
L 121.709123 163.376114 
L 121.780669 149.249275 
L 121.852214 166.954066 
L 121.92376 149.667229 
L 122.066851 176.654012 
L 122.209942 142.055742 
L 122.424579 180.249668 
L 122.639216 159.561793 
L 122.710762 178.037902 
L 122.782307 162.184871 
L 122.853853 177.480175 
L 122.925399 158.772501 
L 122.996944 161.900216 
L 123.06849 156.907072 
L 123.140035 141.888336 
L 123.283127 164.455622 
L 123.354672 159.892978 
L 123.569309 178.089365 
L 123.783946 133.310461 
L 123.855492 163.441003 
L 123.927037 155.637395 
L 123.998583 167.433816 
L 124.070129 164.174857 
L 124.141674 162.146843 
L 124.284766 177.640338 
L 124.356311 149.860894 
L 124.427857 157.447172 
L 124.499402 157.457093 
L 124.570948 160.987976 
L 124.642494 149.708014 
L 124.714039 153.779967 
L 124.785585 164.183014 
L 124.857131 147.329405 
L 124.928676 148.987095 
L 125.000222 145.689235 
L 125.143313 154.62892 
L 125.214859 172.223145 
L 125.35795 124.256758 
L 125.429496 162.164988 
L 125.501041 161.378955 
L 125.572587 140.022639 
L 125.644132 143.676496 
L 125.715678 175.330902 
L 125.787224 162.747864 
L 125.858769 165.864894 
L 126.073406 131.892912 
L 126.144952 137.92386 
L 126.216497 156.773298 
L 126.288043 150.460427 
L 126.359589 152.69665 
L 126.431134 140.502317 
L 126.645771 168.124509 
L 126.788862 156.597786 
L 126.860408 167.455768 
L 126.931954 147.150253 
L 127.003499 155.527527 
L 127.075045 158.605022 
L 127.146591 156.318054 
L 127.218136 160.589689 
L 127.289682 151.196569 
L 127.361228 163.79439 
L 127.432773 151.046981 
L 127.575864 168.36374 
L 127.64741 165.300438 
L 127.718956 152.438895 
L 127.790501 155.484933 
L 127.862047 164.761199 
L 128.076684 136.385374 
L 128.219775 183.389901 
L 128.362866 144.405299 
L 128.434412 164.434001 
L 128.577503 129.686952 
L 128.720594 173.64818 
L 128.935231 146.63937 
L 129.006777 150.777253 
L 129.078323 146.690426 
L 129.149868 125.456958 
L 129.221414 170.412706 
L 129.292959 164.726683 
L 129.364505 163.03689 
L 129.507596 138.319383 
L 129.722233 164.884128 
L 129.865324 141.790743 
L 129.93687 148.824782 
L 130.008416 139.678369 
L 130.151507 163.803475 
L 130.223053 139.487822 
L 130.294598 141.037485 
L 130.366144 147.657335 
L 130.437689 137.586103 
L 130.509235 139.524142 
L 130.580781 138.828124 
L 130.652326 155.436026 
L 130.723872 149.282334 
L 130.795418 126.422241 
L 130.866963 172.542089 
L 130.938509 142.690955 
L 131.010055 152.265475 
L 131.0816 172.849933 
L 131.153146 165.542216 
L 131.224691 129.088863 
L 131.296237 139.846378 
L 131.367783 122.956918 
L 131.510874 164.060666 
L 131.725511 129.871865 
L 131.797056 169.251335 
L 131.868602 151.979715 
L 132.011693 158.50887 
L 132.22633 130.459962 
L 132.297876 88.884383 
L 132.440967 166.31474 
L 132.584058 142.961876 
L 132.655604 151.633136 
L 132.72715 121.946867 
L 132.798695 163.468402 
L 132.870241 146.15038 
L 132.941786 148.343814 
L 133.013332 167.426684 
L 133.084878 153.894139 
L 133.156423 169.779342 
L 133.299515 113.77933 
L 133.37106 167.267413 
L 133.442606 127.348724 
L 133.514151 154.553597 
L 133.657243 123.858245 
L 133.728788 167.337063 
L 133.800334 126.924859 
L 133.87188 145.7362 
L 133.943425 139.742709 
L 134.086516 150.630121 
L 134.158062 118.934188 
L 134.229608 147.026177 
L 134.301153 125.062007 
L 134.372699 150.38457 
L 134.444245 143.562045 
L 134.51579 137.340309 
L 134.587336 104.862387 
L 134.658882 135.599289 
L 134.730427 131.647238 
L 134.873518 122.165223 
L 134.945064 157.108436 
L 135.01661 140.401875 
L 135.088155 140.211655 
L 135.159701 121.711866 
L 135.231247 141.797228 
L 135.302792 102.515907 
L 135.445883 154.555249 
L 135.517429 126.346467 
L 135.588975 159.89555 
L 135.732066 115.847585 
L 135.803612 148.774557 
L 135.875157 144.712947 
L 135.946703 161.285785 
L 136.018248 156.677041 
L 136.089794 117.481858 
L 136.16134 129.73988 
L 136.232885 150.880882 
L 136.304431 139.695459 
L 136.375977 142.840034 
L 136.519068 156.436832 
L 136.590613 145.220821 
L 136.662159 146.49421 
L 136.733705 152.597881 
L 136.948342 121.713281 
L 137.019887 156.212622 
L 137.091433 133.184746 
L 137.162978 142.877898 
L 137.234524 123.325491 
L 137.30607 141.501957 
L 137.377615 133.234023 
L 137.449161 143.418935 
L 137.520707 134.832759 
L 137.592252 92.280475 
L 137.663798 165.80074 
L 137.735344 155.546944 
L 137.94998 120.808853 
L 138.021526 145.144534 
L 138.164617 114.313466 
L 138.236163 179.359821 
L 138.307709 125.016851 
L 138.379254 159.510445 
L 138.4508 145.9297 
L 138.522345 126.798395 
L 138.665437 150.930121 
L 138.736982 136.212286 
L 138.880074 149.305837 
L 139.023165 134.55808 
L 139.09471 157.869566 
L 139.166256 153.566225 
L 139.237802 156.397081 
L 139.452439 98.61992 
L 139.523984 134.707024 
L 139.59553 122.947019 
L 139.667075 138.987493 
L 139.738621 129.856553 
L 139.810167 152.557296 
L 139.953258 111.075434 
L 140.024804 150.576944 
L 140.096349 140.561882 
L 140.167895 142.274091 
L 140.23944 123.440012 
L 140.310986 138.010039 
L 140.454077 107.878113 
L 140.525623 141.060407 
L 140.597169 99.474666 
L 140.668714 119.447915 
L 140.811805 172.84745 
L 141.026442 99.938417 
L 141.169534 154.268617 
L 141.241079 148.681009 
L 141.312625 124.628627 
L 141.384171 124.644231 
L 141.455716 131.406612 
L 141.527262 120.745734 
L 141.598807 138.494879 
L 141.670353 128.577381 
L 141.741899 132.399381 
L 141.813444 143.375996 
L 141.88499 99.11738 
L 141.956536 151.514901 
L 142.028081 110.2356 
L 142.099627 132.917918 
L 142.242718 118.37991 
L 142.314264 145.838563 
L 142.385809 120.567524 
L 142.457355 150.058737 
L 142.528901 145.295749 
L 142.600446 119.095398 
L 142.671992 139.000258 
L 142.743537 131.032145 
L 142.815083 142.847517 
L 142.886629 95.984863 
L 142.958174 113.020243 
L 143.02972 80.523359 
L 143.101266 134.488632 
L 143.172811 133.445508 
L 143.244357 135.849858 
L 143.315902 100.939053 
L 143.387448 119.862867 
L 143.458994 145.798508 
L 143.530539 137.988203 
L 143.673631 84.613381 
L 143.816722 137.683263 
L 144.031359 82.926231 
L 144.17445 121.453408 
L 144.245996 119.096981 
L 144.389087 82.269729 
L 144.460632 139.096506 
L 144.532178 121.355293 
L 144.603724 128.114925 
L 144.675269 127.078996 
L 144.746815 97.551489 
L 144.961452 148.203941 
L 145.176089 107.563592 
L 145.247634 108.565365 
L 145.31918 140.096382 
L 145.390726 129.199955 
L 145.462271 107.227777 
L 145.533817 142.378062 
L 145.605363 99.798119 
L 145.676908 150.838383 
L 145.748454 121.208614 
L 145.819999 138.157021 
L 145.891545 131.513916 
L 146.034636 112.153118 
L 146.106182 142.759763 
L 146.177728 118.496641 
L 146.249273 147.103467 
L 146.392364 125.234654 
L 146.607001 133.1683 
L 146.750093 91.792336 
L 146.821638 134.340755 
L 146.893184 130.260541 
L 146.964729 103.654978 
L 147.107821 153.012781 
L 147.179366 124.637558 
L 147.322458 157.334781 
L 147.465549 99.041797 
L 147.537094 147.833787 
L 147.60864 131.545439 
L 147.680186 157.318634 
L 147.823277 95.695169 
L 147.894823 107.549558 
L 147.966368 139.929774 
L 148.037914 118.667819 
L 148.109459 131.396649 
L 148.181005 128.947424 
L 148.252551 97.464383 
L 148.467188 153.731303 
L 148.610279 126.977776 
L 148.681825 141.80761 
L 148.824916 96.289672 
L 148.896461 135.7634 
L 148.968007 107.131611 
L 149.111098 129.922012 
L 149.25419 92.713366 
L 149.397281 130.913476 
L 149.468826 120.160318 
L 149.540372 88.210062 
L 149.611918 131.793347 
L 149.683463 79.429194 
L 149.826555 146.769221 
L 149.969646 112.374293 
L 150.041191 134.600835 
L 150.184283 93.940711 
L 150.39892 127.017521 
L 150.470465 125.101164 
L 150.542011 125.116567 
L 150.613556 139.932069 
L 150.685102 139.669557 
L 150.899739 109.165824 
L 150.971285 116.414502 
L 151.04283 106.085408 
L 151.114376 137.409123 
L 151.185921 115.817451 
L 151.257467 124.078475 
L 151.329013 149.63968 
L 151.472104 69.783245 
L 151.54365 120.661793 
L 151.615195 115.473748 
L 151.686741 110.655295 
L 151.758287 112.911981 
L 151.829832 130.474839 
L 151.901378 81.45752 
L 152.044469 131.964644 
L 152.116015 87.383752 
L 152.18756 127.671555 
L 152.259106 105.840878 
L 152.473743 126.147364 
L 152.545288 97.653987 
L 152.68838 140.190644 
L 152.759925 115.67725 
L 152.831471 146.763893 
L 153.046108 98.030541 
L 153.189199 113.196771 
L 153.260745 112.142542 
L 153.33229 103.0932 
L 153.403836 130.185028 
L 153.475382 129.661839 
L 153.546927 139.164063 
L 153.618473 77.423201 
L 153.761564 140.119066 
L 153.83311 116.20587 
L 153.904655 148.415722 
L 154.119292 71.874702 
L 154.262383 150.450223 
L 154.333929 61.364164 
L 154.405475 135.008872 
L 154.47702 119.199633 
L 154.548566 117.432913 
L 154.691657 101.360861 
L 154.763203 104.579414 
L 154.834748 135.156513 
L 154.906294 125.843444 
L 154.97784 105.070714 
L 155.120931 136.58669 
L 155.192477 114.446394 
L 155.264022 132.810744 
L 155.335568 82.303692 
L 155.407114 147.371172 
L 155.478659 116.112059 
L 155.62175 151.968595 
L 155.693296 140.50743 
L 155.907933 18.58879 
L 155.979479 129.080201 
L 156.051024 128.697618 
L 156.12257 107.073558 
L 156.265661 135.201341 
L 156.408752 101.387897 
L 156.551844 132.360135 
L 156.623389 126.192379 
L 156.694935 140.163375 
L 156.76648 99.659184 
L 156.838026 108.712284 
L 156.909572 91.858929 
L 156.981117 152.621572 
L 157.052663 127.232113 
L 157.124209 118.789109 
L 157.410391 141.164409 
L 157.481937 108.116155 
L 157.553482 122.527854 
L 157.625028 133.656864 
L 157.696574 128.176374 
L 157.839665 67.963324 
L 158.054302 125.73638 
L 158.125847 111.550688 
L 158.197393 134.467081 
L 158.340484 101.460815 
L 158.41203 140.723437 
L 158.483575 102.916026 
L 158.555121 135.900048 
L 158.626667 128.026335 
L 158.698212 131.003481 
L 158.769758 107.765056 
L 158.841304 133.493261 
L 158.912849 118.629194 
L 158.984395 132.651045 
L 159.055941 104.72661 
L 159.127486 113.186423 
L 159.270577 130.602567 
L 159.413669 102.069011 
L 159.485214 121.545531 
L 159.55676 89.743494 
L 159.699851 115.845318 
L 159.771397 93.483939 
L 159.842942 131.749989 
L 159.914488 123.392584 
L 159.986034 133.387718 
L 160.057579 104.719869 
L 160.129125 112.289563 
L 160.200671 119.710855 
L 160.272216 111.58958 
L 160.343762 128.341845 
L 160.558399 105.441927 
L 160.629944 118.910397 
L 160.844581 69.364927 
L 160.987672 146.364726 
L 161.059218 129.225936 
L 161.202309 85.451235 
L 161.345401 136.27239 
L 161.416946 107.746164 
L 161.488492 118.904654 
L 161.560037 119.678389 
L 161.631583 112.562964 
L 161.84622 133.096224 
L 161.917766 67.159645 
L 161.989311 86.331973 
L 162.203948 133.503128 
L 162.347039 69.29549 
L 162.418585 120.595195 
L 162.490131 100.76688 
L 162.561676 95.832748 
L 162.633222 122.588543 
L 162.704768 102.08826 
L 162.776313 145.869234 
L 162.847859 82.220319 
L 162.919404 91.898235 
L 162.99095 99.189414 
L 163.062496 141.757131 
L 163.134041 124.591392 
L 163.277133 88.561937 
L 163.420224 139.925287 
L 163.491769 99.740071 
L 163.563315 147.211505 
L 163.634861 123.350403 
L 163.706406 106.820895 
L 163.777952 57.984588 
L 163.992589 113.162449 
L 164.064134 101.675383 
L 164.13568 144.352338 
L 164.207226 134.285869 
L 164.421863 100.690778 
L 164.493408 145.048202 
L 164.636499 98.132799 
L 164.779591 136.906654 
L 164.851136 153.84839 
L 164.994228 107.090692 
L 165.065773 123.837591 
L 165.137319 75.747016 
L 165.208864 88.742485 
L 165.28041 74.395461 
L 165.351956 123.489691 
L 165.423501 111.393428 
L 165.495047 109.287888 
L 165.566593 136.082153 
L 165.638138 78.367826 
L 165.78123 130.190223 
L 165.852775 112.332628 
L 165.924321 120.054174 
L 165.995866 109.194727 
L 166.067412 117.931785 
L 166.138958 99.865752 
L 166.210503 139.486699 
L 166.282049 126.17485 
L 166.353595 120.280821 
L 166.42514 140.098299 
L 166.496686 109.561888 
L 166.568231 113.82074 
L 166.854414 94.386958 
L 166.92596 110.984083 
L 166.997505 105.995239 
L 167.069051 90.115607 
L 167.140596 131.306319 
L 167.212142 125.802021 
L 167.283688 123.514977 
L 167.355233 82.724129 
L 167.426779 126.152112 
L 167.56987 96.816699 
L 167.641416 113.828413 
L 167.784507 100.825894 
L 167.856053 139.847618 
L 167.927598 134.07721 
L 167.999144 115.253643 
L 168.142235 150.179719 
L 168.213781 97.7656 
L 168.285326 119.734707 
L 168.499963 83.517674 
L 168.571509 127.657888 
L 168.643055 122.22297 
L 168.786146 95.379298 
L 168.857691 145.490586 
L 168.929237 131.175868 
L 169.000783 121.419685 
L 169.143874 68.787876 
L 169.21542 116.442784 
L 169.358511 71.9801 
L 169.430057 116.132163 
L 169.501602 99.325607 
L 169.573148 106.274189 
L 169.644693 137.148356 
L 169.716239 113.912079 
L 169.787785 130.42495 
L 169.85933 48.205643 
L 169.930876 131.7713 
L 170.002422 118.357548 
L 170.073967 97.032561 
L 170.217058 132.037689 
L 170.36015 69.301095 
L 170.503241 118.841102 
L 170.646332 76.63 
L 170.717878 86.868203 
L 170.860969 127.462868 
L 170.932515 122.433426 
L 171.00406 131.364232 
L 171.075606 113.705246 
L 171.147152 117.821073 
L 171.218697 137.36994 
L 171.361788 108.588011 
L 171.433334 135.986542 
L 171.50488 125.899376 
L 171.576425 69.275957 
L 171.647971 96.815338 
L 171.719517 102.542651 
L 171.791062 96.840699 
L 171.934153 114.711616 
L 172.005699 114.826083 
L 172.077245 103.977915 
L 172.14879 56.231851 
L 172.220336 158.076157 
L 172.291882 114.063075 
L 172.434973 126.74647 
L 172.506518 109.300153 
L 172.578064 144.260595 
L 172.792701 72.328984 
L 172.864247 41.183592 
L 172.935792 142.81723 
L 173.007338 89.74083 
L 173.150429 129.597793 
L 173.221975 123.344263 
L 173.29352 79.544266 
L 173.436612 120.363728 
L 173.508157 117.28324 
L 173.579703 135.390866 
L 173.651249 109.33703 
L 173.79434 130.161793 
L 173.865885 128.458063 
L 174.008977 91.685337 
L 174.080522 122.303005 
L 174.152068 113.111112 
L 174.223614 125.675592 
L 174.43825 94.407684 
L 174.581342 135.952841 
L 174.652887 132.799317 
L 174.724433 119.589643 
L 174.795979 81.24231 
L 174.867524 117.750349 
L 174.93907 110.388217 
L 175.010615 126.350665 
L 175.082161 105.930001 
L 175.153707 127.130577 
L 175.225252 116.174115 
L 175.296798 114.63322 
L 175.368344 109.546723 
L 175.439889 140.553351 
L 175.511435 98.968308 
L 175.58298 137.822301 
L 175.654526 134.507716 
L 175.726072 106.946455 
L 175.797617 115.390024 
L 175.869163 100.362578 
L 175.940709 114.612475 
L 176.012254 88.833107 
L 176.0838 109.708319 
L 176.155346 95.805946 
L 176.226891 137.140904 
L 176.298437 98.2358 
L 176.369982 140.392861 
L 176.441528 110.276745 
L 176.513074 132.277171 
L 176.656165 47.749787 
L 176.727711 134.026619 
L 176.799256 125.530845 
L 177.085439 77.609498 
L 177.22853 126.846022 
L 177.300076 111.332269 
L 177.371621 133.17971 
L 177.443167 119.386817 
L 177.514712 141.83695 
L 177.586258 46.893233 
L 177.729349 145.258785 
L 177.943986 78.85857 
L 178.087077 111.216902 
L 178.301714 105.779461 
L 178.37326 128.462745 
L 178.444806 119.832908 
L 178.587897 112.659468 
L 178.659442 119.587454 
L 178.730988 117.20779 
L 178.802534 113.795227 
L 178.874079 114.921796 
L 178.945625 133.728613 
L 179.160262 93.051375 
L 179.231807 133.471445 
L 179.303353 96.949842 
L 179.374899 105.5458 
L 179.446444 121.931866 
L 179.51799 103.60727 
L 179.589536 104.769995 
L 179.661081 108.879022 
L 179.804173 144.665306 
L 180.018809 101.768667 
L 180.090355 136.44186 
L 180.161901 133.385482 
L 180.304992 110.250017 
L 180.376538 142.825143 
L 180.448083 137.245253 
L 180.519629 137.983823 
L 180.591174 110.247758 
L 180.66272 124.178813 
L 180.734266 122.48771 
L 180.805811 102.904239 
L 180.877357 111.156528 
L 180.948903 108.670208 
L 181.020448 135.567622 
L 181.091994 125.423666 
L 181.163539 120.963612 
L 181.235085 91.240481 
L 181.449722 139.786924 
L 181.521268 104.401152 
L 181.592813 130.408292 
L 181.664359 110.752153 
L 181.735904 140.008294 
L 181.80745 85.014503 
L 181.878996 134.092353 
L 181.950541 111.961677 
L 182.165178 167.476291 
L 182.236724 101.39241 
L 182.308269 101.708984 
L 182.522906 145.379957 
L 182.665998 96.525196 
L 182.737543 95.880035 
L 182.880634 126.183351 
L 182.95218 100.054867 
L 183.023726 119.515413 
L 183.095271 119.143123 
L 183.166817 80.802486 
L 183.309908 127.112675 
L 183.453 106.042823 
L 183.524545 113.27795 
L 183.596091 152.067757 
L 183.667636 92.916845 
L 183.739182 122.132974 
L 183.810728 148.363762 
L 184.025365 87.788222 
L 184.240001 142.807516 
L 184.526184 79.924674 
L 184.59773 90.77515 
L 184.669275 135.230988 
L 184.740821 97.364441 
L 184.812366 156.214182 
L 184.883912 97.5504 
L 184.955458 132.790693 
L 185.027003 129.735274 
L 185.24164 106.640984 
L 185.313186 128.979129 
L 185.527823 71.868469 
L 185.670914 126.882605 
L 185.74246 100.898258 
L 185.814005 105.16642 
L 185.957096 148.734093 
L 186.243279 37.822731 
L 186.314825 131.960866 
L 186.38637 111.09908 
L 186.457916 127.615387 
L 186.529462 101.850674 
L 186.601007 121.442882 
L 186.672553 116.520909 
L 186.744098 109.896839 
L 186.88719 135.893141 
L 186.958735 75.164937 
L 187.030281 111.934436 
L 187.101827 35.906241 
L 187.173372 115.075359 
L 187.244918 108.415873 
L 187.316463 105.697854 
L 187.388009 152.715264 
L 187.5311 89.711959 
L 187.602646 87.679223 
L 187.745737 109.164775 
L 187.817283 88.556503 
L 187.888828 115.100684 
L 187.960374 109.739819 
L 188.03192 108.776867 
L 188.103465 109.944141 
L 188.175011 104.481605 
L 188.246557 89.082201 
L 188.389648 124.326406 
L 188.461193 98.772545 
L 188.532739 101.044054 
L 188.604285 125.191243 
L 188.67583 122.986036 
L 188.747376 106.401909 
L 188.818922 109.518728 
L 188.890467 112.909382 
L 188.962013 159.955751 
L 189.17665 103.391612 
L 189.248195 134.577518 
L 189.391287 79.017794 
L 189.534378 127.30358 
L 189.605923 88.712533 
L 189.677469 145.473915 
L 189.749015 82.08394 
L 189.82056 142.147177 
L 189.892106 108.852243 
L 189.963652 130.336686 
L 190.035197 122.723574 
L 190.106743 130.673504 
L 190.249834 107.784982 
L 190.32138 149.047789 
L 190.392925 124.384466 
L 190.464471 140.31722 
L 190.536017 59.145517 
L 190.607562 93.065795 
L 190.750654 84.283729 
L 190.96529 151.730548 
L 191.036836 140.417548 
L 191.108382 97.063638 
L 191.179927 99.06011 
L 191.251473 101.58016 
L 191.323019 154.242569 
L 191.394564 126.3255 
L 191.46611 99.614978 
L 191.537655 110.933048 
L 191.609201 112.288165 
L 191.680747 96.041528 
L 191.752292 139.351188 
L 191.823838 128.847985 
L 191.895384 120.454056 
L 191.966929 90.254073 
L 192.038475 130.527662 
L 192.11002 116.832211 
L 192.181566 120.312081 
L 192.253112 161.930896 
L 192.324657 97.920467 
L 192.396203 118.18071 
L 192.467749 106.881291 
L 192.61084 120.955466 
L 192.682385 109.227625 
L 192.753931 141.392842 
L 192.897022 95.935795 
L 192.968568 122.830917 
L 193.040114 121.297135 
L 193.111659 87.482481 
L 193.183205 121.208786 
L 193.25475 106.963072 
L 193.397842 120.942409 
L 193.540933 93.113758 
L 193.684024 156.260238 
L 193.75557 95.191914 
L 193.827116 150.155231 
L 193.898661 122.244072 
L 193.970207 75.995663 
L 194.184844 149.990762 
L 194.399481 96.954395 
L 194.542572 138.798107 
L 194.614117 134.282285 
L 194.685663 151.269159 
L 194.757209 113.072257 
L 194.828754 152.31834 
L 195.043391 104.037 
L 195.114937 137.55023 
L 195.186482 136.507483 
L 195.258028 72.284693 
L 195.329574 102.191723 
L 195.401119 102.643784 
L 195.472665 120.38464 
L 195.615756 108.111469 
L 195.687302 113.964785 
L 195.758847 104.328576 
L 195.973484 145.44586 
L 196.04503 141.954848 
L 196.188121 111.145041 
L 196.402758 161.615256 
L 196.474304 117.289547 
L 196.545849 124.531787 
L 196.617395 126.809663 
L 196.688941 116.101305 
L 196.760486 122.359629 
L 196.832032 144.850966 
L 196.975123 82.778571 
L 197.046669 135.759696 
L 197.118214 91.683682 
L 197.18976 159.156202 
L 197.261306 145.035174 
L 197.404397 125.530852 
L 197.547488 141.37563 
L 197.619034 128.073412 
L 197.690579 129.090919 
L 197.762125 139.013808 
L 197.833671 138.4802 
L 198.048308 143.509551 
L 198.119853 173.95431 
L 198.191399 162.883294 
L 198.262944 99.264539 
L 198.33449 113.571406 
L 198.406036 127.316022 
L 198.477581 119.442694 
L 198.549127 91.140142 
L 198.620673 137.711296 
L 198.692218 134.228686 
L 198.763764 127.854659 
L 198.835309 130.889485 
L 198.978401 130.099849 
L 199.049946 145.386132 
L 199.121492 95.675971 
L 199.336129 137.663239 
L 199.47922 108.915904 
L 199.622311 147.477974 
L 199.693857 87.805282 
L 199.765403 146.591284 
L 199.836948 121.378595 
L 199.908494 78.37134 
L 200.051585 126.828054 
L 200.123131 98.056736 
L 200.194676 111.752601 
L 200.266222 115.131585 
L 200.337768 126.201769 
L 200.552405 87.130769 
L 200.62395 152.642107 
L 200.695496 113.674411 
L 200.767041 139.548935 
L 200.838587 119.707338 
L 200.910133 123.724764 
L 200.981678 133.163472 
L 201.12477 113.836461 
L 201.196315 125.921326 
L 201.267861 99.864768 
L 201.482498 149.749747 
L 201.554043 98.753378 
L 201.625589 125.400419 
L 201.697135 128.098703 
L 201.76868 135.371402 
L 201.840226 107.097555 
L 201.983317 131.405475 
L 202.054863 132.758773 
L 202.197954 158.878109 
L 202.341045 121.285935 
L 202.412591 141.485286 
L 202.627228 70.43148 
L 202.770319 158.380368 
L 202.841865 128.398833 
L 202.91341 130.089805 
L 203.056501 114.367319 
L 203.128047 71.532502 
L 203.199593 123.678296 
L 203.271138 109.437184 
L 203.41423 139.424751 
L 203.485775 83.762917 
L 203.557321 134.002436 
L 203.628866 124.726768 
L 203.700412 92.487502 
L 203.843503 121.41419 
L 203.915049 90.711783 
L 203.986595 164.065904 
L 204.05814 126.882 
L 204.129686 148.102021 
L 204.201232 148.036973 
L 204.344323 117.754428 
L 204.415868 152.047644 
L 204.487414 139.334009 
L 204.630505 100.145126 
L 204.773597 142.269606 
L 204.916688 101.293253 
L 204.988233 118.405273 
L 205.20287 155.621772 
L 205.345962 97.815163 
L 205.560598 146.861575 
L 205.632144 127.926928 
L 205.70369 111.558315 
L 205.775235 136.077799 
L 205.846781 117.615646 
L 205.918327 137.366672 
L 205.989872 91.951016 
L 206.061418 123.18786 
L 206.132963 119.144918 
L 206.204509 123.465374 
L 206.276055 144.196668 
L 206.3476 142.99905 
L 206.490692 70.639361 
L 206.633783 140.360264 
L 206.776874 125.366841 
L 206.84842 123.361029 
L 206.991511 144.042824 
L 207.063057 121.286006 
L 207.134602 130.294073 
L 207.420785 75.450229 
L 207.563876 132.662293 
L 207.635422 123.50574 
L 207.706967 138.474468 
L 207.778513 107.922776 
L 207.850059 111.256771 
L 207.921604 150.244312 
L 207.99315 119.881484 
L 208.064695 143.95562 
L 208.136241 86.158927 
L 208.207787 128.889446 
L 208.279332 114.469007 
L 208.350878 135.472449 
L 208.422424 109.699077 
L 208.63706 169.428371 
L 208.851697 94.324721 
L 208.923243 95.859862 
L 208.994789 145.952002 
L 209.066334 122.97231 
L 209.13788 131.363392 
L 209.280971 93.193353 
L 209.352517 79.743493 
L 209.424062 151.283764 
L 209.495608 126.993698 
L 209.567154 142.432163 
L 209.638699 97.019621 
L 209.710245 97.039498 
L 209.78179 135.68896 
L 209.853336 106.634464 
L 209.924882 127.256884 
L 209.996427 104.007935 
L 210.067973 139.238286 
L 210.139519 119.834852 
L 210.211064 98.409126 
L 210.28261 136.243583 
L 210.354155 101.351126 
L 210.425701 108.563704 
L 210.497247 149.104228 
L 210.568792 131.597284 
L 210.640338 119.725685 
L 210.711884 146.445695 
L 210.783429 114.674956 
L 210.854975 147.539909 
L 210.998066 115.21558 
L 211.141157 150.566836 
L 211.284249 126.73294 
L 211.355794 147.347313 
L 211.42734 106.171983 
L 211.498886 151.944992 
L 211.570431 137.767528 
L 211.641977 151.208305 
L 211.713522 122.876504 
L 211.785068 135.058337 
L 211.856614 154.514877 
L 212.071251 97.009112 
L 212.214342 170.69103 
L 212.285887 113.948011 
L 212.357433 136.575153 
L 212.428979 120.172414 
L 212.57207 152.807847 
L 212.643616 105.455186 
L 212.715161 139.545755 
L 212.786707 135.062651 
L 212.858252 142.757691 
L 212.929798 105.199638 
L 213.001344 144.163783 
L 213.072889 131.613668 
L 213.144435 135.204373 
L 213.215981 120.373204 
L 213.430617 145.051594 
L 213.645254 92.098637 
L 213.7168 146.14881 
L 213.788346 136.596979 
L 213.931437 108.450877 
L 214.002982 113.329884 
L 214.074528 132.764358 
L 214.146074 96.027403 
L 214.217619 145.454438 
L 214.289165 130.90849 
L 214.432256 165.093153 
L 214.503802 101.075395 
L 214.575348 132.270789 
L 214.646893 103.158682 
L 214.718439 160.801251 
L 214.789984 118.778671 
L 214.86153 133.570056 
L 214.933076 137.954471 
L 215.004621 122.164233 
L 215.076167 77.833873 
L 215.219258 144.196155 
L 215.362349 104.785243 
L 215.433895 159.586584 
L 215.505441 129.756528 
L 215.576986 158.910169 
L 215.720078 116.873494 
L 215.791623 134.587632 
L 215.863169 113.687841 
L 215.934714 165.205228 
L 216.00626 161.206219 
L 216.077806 131.840378 
L 216.149351 165.280122 
L 216.363988 114.462377 
L 216.435534 142.755713 
L 216.507079 113.436213 
L 216.578625 165.01209 
L 216.721716 119.128832 
L 216.864808 141.739803 
L 216.936353 91.063285 
L 217.007899 120.044267 
L 217.079444 85.425367 
L 217.15099 148.25101 
L 217.222536 122.557205 
L 217.294081 145.798356 
L 217.365627 117.040334 
L 217.508718 144.271018 
L 217.580264 111.782475 
L 217.651809 121.869 
L 217.723355 106.023739 
L 217.866446 152.837575 
L 217.937992 130.091246 
L 218.009538 132.056595 
L 218.081083 135.481645 
L 218.224175 172.584621 
L 218.29572 124.139409 
L 218.367266 168.39647 
L 218.438811 146.116922 
L 218.653448 93.565526 
L 218.79654 143.574374 
L 219.011176 91.963971 
L 219.154268 126.110691 
L 219.225813 121.888191 
L 219.297359 102.183562 
L 219.511996 160.771551 
L 219.726633 99.176467 
L 219.94127 134.011426 
L 220.084361 105.414984 
L 220.155906 177.112037 
L 220.227452 145.196139 
L 220.298998 116.652245 
L 220.370543 120.84916 
L 220.442089 104.461199 
L 220.656726 148.360874 
L 220.728271 153.355606 
L 220.942908 122.516253 
L 221.014454 157.780851 
L 221.157545 109.823237 
L 221.300636 136.562152 
L 221.372182 131.09808 
L 221.443728 117.054424 
L 221.515273 124.468778 
L 221.586819 119.231777 
L 221.658365 138.134517 
L 221.873002 90.729035 
L 222.159184 158.522354 
L 222.23073 114.161503 
L 222.302275 118.395657 
L 222.516912 142.555356 
L 222.588458 115.801643 
L 222.731549 152.775423 
L 222.803095 135.314177 
L 222.87464 151.931973 
L 222.946186 150.655274 
L 223.017732 122.763707 
L 223.089277 131.194545 
L 223.232368 159.042611 
L 223.37546 142.864588 
L 223.447005 148.069155 
L 223.518551 111.358469 
L 223.590097 144.757658 
L 223.661642 121.838286 
L 223.733188 162.521864 
L 223.804733 148.570491 
L 223.876279 118.181787 
L 223.947825 130.433636 
L 224.01937 108.965741 
L 224.162462 142.976885 
L 224.234007 120.874681 
L 224.305553 156.9025 
L 224.448644 128.384139 
L 224.591735 149.755324 
L 224.663281 142.107701 
L 224.806372 154.104842 
L 224.949464 113.708717 
L 225.1641 176.58546 
L 225.378737 124.061947 
L 225.450283 143.774356 
L 225.521829 107.10253 
L 225.593374 155.400021 
L 225.66492 130.884341 
L 225.736465 173.285269 
L 225.808011 130.830026 
L 225.879557 144.610242 
L 225.951102 164.429445 
L 226.094194 114.490379 
L 226.165739 171.078136 
L 226.237285 134.582689 
L 226.30883 157.430601 
L 226.380376 146.157602 
L 226.451922 126.741408 
L 226.595013 154.105595 
L 226.666559 102.623867 
L 226.738104 129.475457 
L 226.80965 160.552151 
L 226.881195 145.155674 
L 226.952741 145.75854 
L 227.024287 166.174609 
L 227.167378 112.522057 
L 227.310469 141.393104 
L 227.382015 140.366905 
L 227.45356 136.420622 
L 227.525106 139.290069 
L 227.596652 147.663692 
L 227.668197 117.771493 
L 227.811289 148.175373 
L 227.882834 127.959372 
L 227.95438 151.727192 
L 228.025925 146.873781 
L 228.097471 131.271158 
L 228.169017 142.228182 
L 228.240562 130.795701 
L 228.312108 98.874187 
L 228.383654 142.730333 
L 228.455199 89.483797 
L 228.598291 152.111043 
L 228.669836 89.437556 
L 228.741382 123.854032 
L 228.812927 117.202618 
L 228.884473 140.563907 
L 228.956019 41.674303 
L 229.09911 153.260388 
L 229.385292 111.805246 
L 229.528384 171.52396 
L 229.671475 122.365187 
L 229.743021 146.947563 
L 229.814566 103.663382 
L 230.029203 151.218818 
L 230.100749 78.26656 
L 230.24384 140.809142 
L 230.315386 164.306122 
L 230.386931 125.382222 
L 230.458477 157.621771 
L 230.530022 154.767259 
L 230.601568 153.469032 
L 230.673114 128.687991 
L 230.744659 131.608441 
L 230.887751 161.05013 
L 231.030842 115.670235 
L 231.102387 165.671374 
L 231.173933 146.504434 
L 231.245479 159.898668 
L 231.317024 137.852227 
L 231.38857 153.146273 
L 231.460116 150.716456 
L 231.531661 133.664893 
L 231.603207 136.76444 
L 231.674752 127.045907 
L 231.746298 143.388086 
L 231.817844 101.900936 
L 231.960935 160.659668 
L 232.032481 149.31526 
L 232.104026 142.517349 
L 232.247118 115.575004 
L 232.461754 175.566788 
L 232.604846 141.069106 
L 232.676391 165.015402 
L 232.819483 120.76641 
L 232.891028 178.254985 
L 232.962574 146.656553 
L 233.105665 161.868235 
L 233.248756 144.319214 
L 233.320302 150.999265 
L 233.534939 135.147116 
L 233.606484 161.614436 
L 233.821121 106.266881 
L 233.892667 139.524463 
L 233.964213 136.91538 
L 234.107304 131.633953 
L 234.250395 153.34382 
L 234.321941 123.145911 
L 234.393486 165.073526 
L 234.608123 121.938065 
L 234.679669 120.799902 
L 234.751214 116.871764 
L 234.82276 137.843742 
L 234.894306 131.682115 
L 234.965851 135.327401 
L 235.037397 125.671134 
L 235.180488 150.043384 
L 235.252034 152.8005 
L 235.32358 143.664511 
L 235.395125 154.979757 
L 235.538216 136.313771 
L 235.609762 144.890235 
L 235.681308 130.942743 
L 235.752853 161.155113 
L 235.824399 133.163431 
L 235.895945 170.914871 
L 235.96749 127.883378 
L 236.039036 172.884364 
L 236.110581 170.677731 
L 236.182127 138.716478 
L 236.253673 153.800609 
L 236.396764 107.575975 
L 236.46831 177.145985 
L 236.539855 166.505875 
L 236.611401 91.048806 
L 236.754492 151.154467 
L 236.826038 166.321754 
L 236.897583 160.512673 
L 236.969129 170.772048 
L 237.11222 140.134238 
L 237.183766 141.19771 
L 237.326857 122.266012 
L 237.398403 157.560593 
L 237.469948 144.496176 
L 237.541494 115.42947 
L 237.684585 167.646107 
L 237.756131 149.184465 
L 237.827676 116.575851 
L 237.970768 165.074305 
L 238.042313 158.027632 
L 238.185405 107.451965 
L 238.328496 168.790807 
L 238.400041 153.016621 
L 238.471587 125.4845 
L 238.75777 175.386962 
L 238.829315 145.713878 
L 238.900861 192.408346 
L 239.043952 106.96908 
L 239.115498 166.109757 
L 239.187043 160.569628 
L 239.330135 148.506255 
L 239.40168 159.912386 
L 239.473226 132.838118 
L 239.544772 153.939423 
L 239.616317 122.556524 
L 239.687863 154.22843 
L 239.759408 150.179047 
L 239.9025 116.389223 
L 239.974045 154.878932 
L 240.188682 98.670903 
L 240.331773 144.784303 
L 240.403319 125.555921 
L 240.54641 158.233026 
L 240.617956 127.120393 
L 240.689502 175.866004 
L 240.761047 154.406779 
L 240.832593 75.516505 
L 240.904138 141.636593 
L 240.975684 137.652577 
L 241.04723 121.599214 
L 241.261867 162.976531 
L 241.476503 122.272549 
L 241.619595 148.083308 
L 241.69114 148.303722 
L 241.905777 88.474343 
L 242.048868 146.263257 
L 242.19196 151.267478 
L 242.263505 177.714058 
L 242.406597 140.928674 
L 242.478142 155.854871 
L 242.549688 132.840497 
L 242.621234 134.629984 
L 242.764325 161.339508 
L 242.83587 157.687859 
L 242.978962 169.219245 
L 243.050507 127.670829 
L 243.122053 137.818846 
L 243.193599 115.193869 
L 243.33669 169.508638 
L 243.408235 120.653049 
L 243.479781 141.79094 
L 243.551327 143.143237 
L 243.622872 136.41193 
L 243.694418 146.031198 
L 243.765964 96.538582 
L 243.837509 103.63842 
L 243.9806 166.397196 
L 244.052146 111.577065 
L 244.123692 156.781009 
L 244.195237 120.520703 
L 244.266783 138.872986 
L 244.338329 129.738124 
L 244.409874 145.890111 
L 244.48142 114.979003 
L 244.624511 164.759209 
L 244.696057 132.688342 
L 244.767602 147.434242 
L 244.839148 139.626976 
L 244.910694 102.897845 
L 244.982239 119.077299 
L 245.12533 171.088012 
L 245.339967 117.904085 
L 245.411513 120.739959 
L 245.62615 153.319786 
L 245.697695 114.017254 
L 245.840787 166.521288 
L 245.912332 143.956576 
L 245.983878 150.764034 
L 246.055424 159.388663 
L 246.198515 125.428828 
L 246.270061 128.498918 
L 246.341606 155.99748 
L 246.413152 128.478392 
L 246.484697 129.790925 
L 246.556243 117.755552 
L 246.627789 167.935068 
L 246.699334 136.033557 
L 246.77088 140.411571 
L 246.842426 158.260392 
L 246.913971 149.439214 
L 246.985517 125.621475 
L 247.057062 138.250563 
L 247.271699 151.633054 
L 247.343245 135.953313 
L 247.414791 153.554053 
L 247.486336 131.076411 
L 247.557882 139.755472 
L 247.629427 155.482756 
L 247.700973 133.855626 
L 247.772519 145.31241 
L 247.987156 125.025344 
L 248.058701 128.526913 
L 248.201792 165.458445 
L 248.344884 120.920747 
L 248.416429 128.473983 
L 248.487975 118.390818 
L 248.559521 161.224747 
L 248.631066 135.023277 
L 248.702612 179.582236 
L 248.845703 137.379878 
L 248.917249 172.623199 
L 249.06034 128.031797 
L 249.274977 145.162584 
L 249.346523 96.109462 
L 249.418068 143.447299 
L 249.489614 140.011781 
L 249.561159 164.347197 
L 249.632705 137.214862 
L 249.704251 161.127305 
L 249.775796 131.966621 
L 249.847342 161.093899 
L 249.918888 142.305164 
L 249.990433 175.248199 
L 250.061979 130.218086 
L 250.133524 197.992905 
L 250.20507 113.14827 
L 250.276616 174.441419 
L 250.348161 155.676227 
L 250.562798 127.575024 
L 250.634344 153.2221 
L 250.705889 150.810135 
L 250.777435 127.408672 
L 250.920526 173.92197 
L 250.992072 152.684751 
L 251.063618 173.840455 
L 251.206709 130.175815 
L 251.278254 156.811419 
L 251.3498 142.363601 
L 251.492891 189.328864 
L 251.564437 171.093026 
L 251.635983 144.203087 
L 251.707528 159.808882 
L 251.779074 149.982071 
L 251.850619 157.908643 
L 251.922165 155.727612 
L 251.993711 139.584721 
L 252.065256 159.889253 
L 252.136802 142.743341 
L 252.208348 176.335303 
L 252.279893 132.395142 
L 252.351439 150.067832 
L 252.422984 170.512691 
L 252.566076 148.569783 
L 252.637621 160.413295 
L 252.709167 114.068682 
L 252.852258 158.028755 
L 252.923804 120.986205 
L 253.066895 159.061099 
L 253.138441 147.424542 
L 253.209986 167.991632 
L 253.353078 139.359247 
L 253.496169 158.103538 
L 253.567715 165.498291 
L 253.63926 107.431614 
L 253.710806 118.708462 
L 253.782351 152.621415 
L 253.853897 129.113391 
L 253.996988 164.937899 
L 254.14008 99.891558 
L 254.211625 160.43395 
L 254.283171 141.457979 
L 254.354716 146.546967 
L 254.497808 173.5467 
L 254.640899 144.179495 
L 254.712445 158.471457 
L 254.78399 161.530698 
L 254.855536 144.526422 
L 254.927081 150.972428 
L 254.998627 164.646647 
L 255.070173 142.553499 
L 255.141718 158.207515 
L 255.213264 136.589841 
L 255.28481 141.278383 
L 255.356355 138.761048 
L 255.427901 112.703184 
L 255.642538 168.744288 
L 255.714083 133.530537 
L 255.785629 144.604147 
L 255.92872 129.142803 
L 256.214903 168.62931 
L 256.42954 131.186278 
L 256.572631 166.820746 
L 256.644177 117.193689 
L 256.715722 145.841482 
L 256.787268 109.152632 
L 256.858813 169.801476 
L 256.930359 151.887857 
L 257.001905 142.158979 
L 257.07345 170.73913 
L 257.288087 132.853566 
L 257.502724 178.676644 
L 257.57427 144.489368 
L 257.645815 145.466621 
L 257.717361 157.517843 
L 257.860452 114.740315 
L 258.075089 158.318573 
L 258.146635 169.264221 
L 258.21818 157.865944 
L 258.289726 102.159737 
L 258.504363 172.151641 
L 258.647454 127.234541 
L 258.790545 162.016537 
L 258.862091 111.271846 
L 259.005182 171.993105 
L 259.076728 164.707832 
L 259.148273 178.454244 
L 259.219819 142.6401 
L 259.291365 191.833735 
L 259.434456 133.807907 
L 259.506002 163.759295 
L 259.577547 140.794944 
L 259.720639 186.73155 
L 259.792184 145.865144 
L 259.86373 150.800821 
L 259.935275 143.541663 
L 260.006821 150.644955 
L 260.078367 129.316843 
L 260.221458 184.579009 
L 260.364549 145.731496 
L 260.436095 136.199092 
L 260.50764 160.175105 
L 260.579186 121.91464 
L 260.650732 153.861362 
L 260.722277 137.760988 
L 260.793823 167.883849 
L 260.865369 121.953669 
L 260.936914 157.38541 
L 261.00846 139.704062 
L 261.223097 164.433533 
L 261.294642 127.974704 
L 261.366188 173.264601 
L 261.437734 137.666201 
L 261.509279 146.591076 
L 261.580825 127.618549 
L 261.723916 167.485369 
L 261.795462 137.278905 
L 261.867007 166.6441 
L 261.938553 164.231257 
L 262.010099 156.169468 
L 262.081644 158.121223 
L 262.15319 118.090191 
L 262.224735 154.254193 
L 262.296281 149.274942 
L 262.439372 147.883345 
L 262.510918 131.273736 
L 262.582464 168.064671 
L 262.725555 115.593572 
L 262.868646 169.176029 
L 262.940192 130.117437 
L 263.011737 134.106056 
L 263.083283 166.522749 
L 263.154829 149.308879 
L 263.226374 133.424882 
L 263.29792 156.623334 
L 263.369466 141.535727 
L 263.512557 174.850238 
L 263.584102 144.981949 
L 263.655648 149.819114 
L 263.870285 173.191369 
L 264.084922 131.546912 
L 264.228013 156.802713 
L 264.371104 138.586368 
L 264.44265 140.520492 
L 264.514196 155.811694 
L 264.585741 129.482652 
L 264.657287 174.403966 
L 264.728832 158.245363 
L 264.800378 157.881709 
L 264.871924 184.174301 
L 265.086561 142.695645 
L 265.229652 174.247475 
L 265.301197 148.88588 
L 265.372743 167.244545 
L 265.444289 164.261539 
L 265.515834 168.696324 
L 265.58738 163.432568 
L 265.658926 176.55185 
L 265.873562 152.314243 
L 265.945108 152.450673 
L 266.016654 152.144292 
L 266.088199 157.742851 
L 266.159745 143.891159 
L 266.231291 164.2676 
L 266.302836 130.385956 
L 266.374382 155.25049 
L 266.445927 145.932429 
L 266.517473 164.841376 
L 266.589019 136.51126 
L 266.660564 137.671214 
L 266.73211 171.065443 
L 266.803656 137.932303 
L 266.875201 188.515161 
L 266.946747 123.614171 
L 267.018293 156.300549 
L 267.089838 166.340001 
L 267.161384 162.526358 
L 267.232929 141.888626 
L 267.304475 172.715579 
L 267.376021 165.2247 
L 267.447566 159.663867 
L 267.519112 188.974735 
L 267.590658 151.95288 
L 267.662203 170.476561 
L 267.733749 165.930821 
L 267.805294 185.377203 
L 267.87684 178.005344 
L 268.019931 162.519155 
L 268.091477 163.351156 
L 268.163023 183.999566 
L 268.234568 142.098451 
L 268.306114 160.139035 
L 268.377659 199.633972 
L 268.449205 152.589279 
L 268.520751 171.18808 
L 268.592296 160.303193 
L 268.735388 169.597422 
L 268.806933 146.394469 
L 268.950024 192.377578 
L 269.02157 176.538965 
L 269.093116 144.140188 
L 269.164661 171.872308 
L 269.307753 139.219775 
L 269.450844 169.972671 
L 269.522389 136.821624 
L 269.593935 147.085513 
L 269.665481 161.218111 
L 269.808572 125.768765 
L 269.880118 166.006798 
L 269.951663 161.241531 
L 270.023209 159.870876 
L 270.094754 145.645913 
L 270.1663 164.374621 
L 270.237846 142.292107 
L 270.309391 146.85107 
L 270.452483 129.661327 
L 270.524028 193.228956 
L 270.595574 145.196023 
L 270.66712 190.618221 
L 270.738665 124.592612 
L 270.881756 171.05673 
L 270.953302 145.197354 
L 271.024848 157.970349 
L 271.096393 142.358316 
L 271.239485 170.760653 
L 271.31103 164.493909 
L 271.382576 180.200957 
L 271.597213 128.14487 
L 271.81185 175.587602 
L 271.883395 175.434287 
L 271.954941 161.275372 
L 272.098032 188.070131 
L 272.241123 152.787868 
L 272.312669 156.433964 
L 272.384215 148.427519 
L 272.45576 175.385185 
L 272.527306 166.887421 
L 272.598851 169.361068 
L 272.670397 124.44257 
L 272.813488 169.370361 
L 272.885034 153.393855 
L 272.95658 173.420215 
L 273.028125 163.225728 
L 273.099671 164.903309 
L 273.171216 136.808805 
L 273.242762 180.615334 
L 273.314308 173.088763 
L 273.385853 141.238028 
L 273.528945 192.728021 
L 273.672036 128.258744 
L 273.815127 175.175188 
L 273.886673 163.872842 
L 273.958218 169.161241 
L 274.029764 138.190198 
L 274.10131 171.35225 
L 274.172855 169.94947 
L 274.244401 174.97645 
L 274.315947 120.916714 
L 274.387492 146.902201 
L 274.459038 174.516517 
L 274.530583 131.772593 
L 274.602129 145.757238 
L 274.673675 152.172499 
L 274.74522 193.217486 
L 274.816766 162.527808 
L 274.888312 171.791317 
L 275.031403 151.273721 
L 275.24604 179.521621 
L 275.389131 136.368527 
L 275.460677 148.062797 
L 275.532222 147.930894 
L 275.603768 170.523719 
L 275.675313 147.974415 
L 275.746859 166.355816 
L 275.818405 140.298596 
L 275.88995 152.070866 
L 276.033042 182.077472 
L 276.104587 145.040978 
L 276.247678 190.974341 
L 276.39077 144.131676 
L 276.462315 168.926894 
L 276.533861 167.769901 
L 276.605407 166.592642 
L 276.748498 161.267975 
L 276.820043 147.174195 
L 276.891589 151.255661 
L 276.963135 161.928767 
L 277.03468 132.504287 
L 277.177772 179.153979 
L 277.249317 153.251844 
L 277.320863 162.010723 
L 277.5355 131.015561 
L 277.678591 183.364198 
L 277.750137 146.260801 
L 277.893228 178.147794 
L 277.964774 104.967548 
L 278.036319 172.458964 
L 278.107865 133.089846 
L 278.17941 182.074468 
L 278.250956 161.914895 
L 278.394047 184.391084 
L 278.608684 148.982165 
L 278.68023 151.215902 
L 278.751775 137.112167 
L 278.823321 172.98262 
L 278.894867 151.093658 
L 278.966412 172.669771 
L 279.037958 165.066189 
L 279.252595 141.475793 
L 279.32414 182.8626 
L 279.395686 144.557839 
L 279.467232 171.177362 
L 279.538777 133.724159 
L 279.610323 163.602498 
L 279.681869 160.835011 
L 279.753414 163.801372 
L 279.82496 182.818364 
L 280.039597 148.966486 
L 280.111142 176.849186 
L 280.182688 151.663904 
L 280.254234 158.940395 
L 280.325779 162.818527 
L 280.397325 149.150558 
L 280.46887 192.066161 
L 280.540416 142.479752 
L 280.611962 168.901308 
L 280.683507 159.359565 
L 280.755053 184.429392 
L 280.826599 179.307279 
L 280.96969 163.157083 
L 281.041236 171.211143 
L 281.184327 143.01812 
L 281.255872 163.521512 
L 281.398964 142.748115 
L 281.470509 150.815892 
L 281.542055 174.12166 
L 281.613601 173.565872 
L 281.685146 133.62187 
L 281.756692 134.403017 
L 281.971329 164.844154 
L 282.042874 151.335496 
L 282.11442 154.528862 
L 282.185966 153.024384 
L 282.257511 144.078139 
L 282.329057 152.565416 
L 282.400602 179.279285 
L 282.472148 171.508043 
L 282.615239 162.825729 
L 282.686785 127.159172 
L 282.829876 172.380511 
L 282.901422 141.997037 
L 282.972967 166.767909 
L 283.187604 144.08464 
L 283.330696 184.532223 
L 283.402241 147.957722 
L 283.545332 174.722253 
L 283.616878 163.937685 
L 283.688424 165.865851 
L 283.759969 174.790174 
L 283.903061 143.309173 
L 283.974606 154.356968 
L 284.046152 109.006328 
L 284.117698 156.335079 
L 284.189243 145.656461 
L 284.260789 166.708063 
L 284.332334 161.149307 
L 284.475426 146.294034 
L 284.546971 173.552049 
L 284.690063 138.389867 
L 284.761608 142.631627 
L 284.833154 133.143161 
L 284.904699 165.701682 
L 284.976245 145.687532 
L 285.047791 184.89907 
L 285.119336 156.551743 
L 285.190882 168.292573 
L 285.333973 161.351502 
L 285.405519 163.46911 
L 285.477064 171.102529 
L 285.691701 132.713451 
L 285.834793 179.378996 
L 285.906338 160.432249 
L 286.049429 182.817016 
L 286.120975 159.030146 
L 286.192521 180.659536 
L 286.264066 147.048735 
L 286.478703 201.167392 
L 286.550249 190.605858 
L 286.621794 155.516098 
L 286.764886 176.430967 
L 286.836431 143.353023 
L 286.907977 155.920801 
L 286.979523 152.82611 
L 287.051068 184.99838 
L 287.122614 169.713305 
L 287.194159 190.488756 
L 287.265705 128.379348 
L 287.337251 162.507202 
L 287.408796 162.966597 
L 287.480342 150.639029 
L 287.551888 168.526376 
L 287.623433 153.155118 
L 287.694979 188.929549 
L 287.766525 169.757203 
L 287.83807 164.230465 
L 287.909616 144.011971 
L 287.981161 189.31407 
L 288.052707 144.293385 
L 288.124253 156.333849 
L 288.195798 171.400117 
L 288.267344 168.084757 
L 288.33889 156.466769 
L 288.410435 172.006291 
L 288.553526 130.037633 
L 288.625072 138.981665 
L 288.696618 135.15203 
L 288.768163 196.939573 
L 288.839709 164.133024 
L 288.911255 163.163479 
L 288.9828 186.516548 
L 289.054346 183.708496 
L 289.268983 141.469047 
L 289.412074 180.211832 
L 289.555165 159.951688 
L 289.626711 179.486269 
L 289.698256 178.066188 
L 289.841348 150.781 
L 289.984439 190.549414 
L 290.055985 179.522658 
L 290.12753 183.37877 
L 290.199076 178.251359 
L 290.270621 160.96513 
L 290.342167 169.873981 
L 290.413713 182.266975 
L 290.556804 169.745554 
L 290.62835 166.815011 
L 290.699895 170.070205 
L 290.842986 160.805432 
L 290.914532 137.290637 
L 290.986078 190.239522 
L 291.057623 170.031712 
L 291.129169 185.324009 
L 291.200715 153.3074 
L 291.27226 190.95019 
L 291.343806 184.204541 
L 291.486897 163.623859 
L 291.558443 173.945183 
L 291.629988 151.934303 
L 291.701534 155.556858 
L 291.77308 162.262366 
L 291.916171 145.761482 
L 291.987717 175.855646 
L 292.059262 162.701378 
L 292.130808 160.766379 
L 292.202353 152.930938 
L 292.273899 179.078078 
L 292.345445 177.010371 
L 292.41699 171.518345 
L 292.488536 181.292352 
L 292.560082 176.944414 
L 292.631627 148.110017 
L 292.846264 192.265334 
L 292.989355 133.096193 
L 293.132447 180.650668 
L 293.275538 150.727533 
L 293.347083 152.165695 
L 293.418629 178.253905 
L 293.490175 168.432416 
L 293.56172 177.730655 
L 293.633266 162.196123 
L 293.704812 182.196631 
L 293.776357 161.243641 
L 293.847903 183.748638 
L 293.990994 154.401792 
L 294.134085 186.446256 
L 294.205631 143.706786 
L 294.277177 172.594332 
L 294.348722 169.464899 
L 294.420268 184.645108 
L 294.563359 173.084705 
L 294.634905 171.618135 
L 294.70645 171.899977 
L 294.849542 152.157762 
L 294.921087 158.929092 
L 294.992633 157.422358 
L 295.064179 159.547785 
L 295.135724 185.327956 
L 295.20727 139.004067 
L 295.278815 147.684182 
L 295.350361 150.847099 
L 295.421907 170.431566 
L 295.493452 159.761428 
L 295.564998 164.050249 
L 295.636544 149.186075 
L 295.779635 176.576004 
L 295.922726 159.981156 
L 295.994272 173.303591 
L 296.065817 170.830658 
L 296.208909 180.025072 
L 296.280454 178.104289 
L 296.352 151.443523 
L 296.423545 153.385628 
L 296.495091 149.256944 
L 296.638182 175.457758 
L 296.709728 156.686306 
L 296.852819 179.120224 
L 296.924365 173.223838 
L 296.99591 155.533136 
L 297.067456 163.030515 
L 297.139002 206.492136 
L 297.282093 173.791281 
L 297.353639 176.529305 
L 297.425184 163.12832 
L 297.49673 57.527734 
L 297.639821 195.48362 
L 297.711367 181.06589 
L 297.782912 142.388363 
L 297.926004 197.420041 
L 298.069095 158.573193 
L 298.140641 185.277994 
L 298.355277 137.031857 
L 298.498369 164.319652 
L 298.569914 162.939325 
L 298.64146 140.359198 
L 298.713006 185.375309 
L 298.784551 147.597502 
L 298.856097 157.226833 
L 298.927642 173.857622 
L 298.999188 162.492563 
L 299.070734 200.153878 
L 299.142279 192.727866 
L 299.213825 122.512794 
L 299.285371 190.186404 
L 299.356916 162.082535 
L 299.428462 118.756082 
L 299.571553 165.347839 
L 299.643099 137.376822 
L 299.78619 184.456902 
L 299.929281 140.30262 
L 300.072372 185.318582 
L 300.143918 155.047294 
L 300.215464 174.898013 
L 300.287009 146.589384 
L 300.430101 198.768812 
L 300.501646 166.228772 
L 300.573192 181.930231 
L 300.716283 173.319777 
L 300.787829 178.711521 
L 300.93092 144.786392 
L 301.074011 185.276926 
L 301.145557 139.24564 
L 301.217102 162.998521 
L 301.288648 181.839786 
L 301.360194 170.421192 
L 301.431739 171.155744 
L 301.503285 172.863188 
L 301.574831 189.926538 
L 301.646376 152.907552 
L 301.717922 164.387273 
L 301.789468 160.608587 
L 301.861013 180.331081 
L 301.932559 155.327467 
L 302.004104 168.381829 
L 302.07565 179.279776 
L 302.147196 168.077955 
L 302.218741 170.644262 
L 302.290287 179.98496 
L 302.361833 148.174639 
L 302.504924 177.046632 
L 302.576469 177.007496 
L 302.648015 177.697385 
L 302.719561 164.455451 
L 302.791106 186.829376 
L 302.934198 143.642689 
L 303.005743 192.137168 
L 303.077289 176.264094 
L 303.148834 173.28637 
L 303.22038 151.992491 
L 303.291926 154.39336 
L 303.435017 180.490145 
L 303.506563 155.703606 
L 303.649654 191.319305 
L 303.935836 154.022871 
L 304.007382 186.270939 
L 304.078928 174.443807 
L 304.222019 198.948832 
L 304.293564 155.600214 
L 304.36511 167.523094 
L 304.436656 155.768009 
L 304.508201 201.887902 
L 304.579747 174.867756 
L 304.651293 174.8966 
L 304.722838 171.335 
L 304.794384 177.986202 
L 304.865929 139.696885 
L 304.937475 144.059356 
L 305.009021 166.535077 
L 305.080566 135.98803 
L 305.223658 171.237254 
L 305.295203 121.122915 
L 305.366749 186.783631 
L 305.438295 156.299896 
L 305.50984 154.582696 
L 305.652931 175.461739 
L 305.724477 182.178511 
L 305.867568 168.859298 
L 305.939114 170.01214 
L 306.01066 145.047407 
L 306.225296 196.155113 
L 306.296842 150.459126 
L 306.368388 183.813483 
L 306.439933 170.428504 
L 306.511479 157.360535 
L 306.583025 203.809866 
L 306.65457 165.661052 
L 306.726116 193.145601 
L 306.869207 161.477594 
L 306.940753 170.147192 
L 307.012298 180.217692 
L 307.226935 152.78696 
L 307.441572 183.184597 
L 307.584663 119.837264 
L 307.656209 151.208391 
L 307.727755 123.350648 
L 307.942391 178.733312 
L 308.013937 167.937074 
L 308.085483 179.527215 
L 308.157028 176.688253 
L 308.228574 151.1746 
L 308.30012 178.687592 
L 308.371665 132.047013 
L 308.443211 166.888664 
L 308.514757 164.265304 
L 308.586302 177.349182 
L 308.657848 214.537321 
L 308.729393 197.697707 
L 309.015576 136.48277 
L 309.087122 188.516315 
L 309.158667 162.017244 
L 309.230213 188.265588 
L 309.301758 179.14835 
L 309.373304 176.299532 
L 309.44485 150.319931 
L 309.587941 200.370429 
L 309.659487 131.519864 
L 309.731032 169.224582 
L 309.874123 189.12281 
L 309.945669 152.797076 
L 310.017215 164.780524 
L 310.08876 167.797493 
L 310.160306 198.637372 
L 310.231852 181.500249 
L 310.303397 188.720022 
L 310.446488 163.615864 
L 310.518034 179.442522 
L 310.58958 163.413959 
L 310.661125 185.8487 
L 310.804217 162.462918 
L 310.875762 181.479 
L 310.947308 170.815623 
L 311.018853 187.998753 
L 311.090399 164.575477 
L 311.23349 188.083511 
L 311.448127 165.060604 
L 311.519673 171.947057 
L 311.591218 156.852969 
L 311.662764 157.930259 
L 311.73431 198.278211 
L 311.805855 156.10751 
L 311.877401 165.325876 
L 311.948947 159.069404 
L 312.092038 188.367931 
L 312.163584 177.915275 
L 312.235129 201.343259 
L 312.449766 158.915732 
L 312.521312 207.318598 
L 312.592857 186.746168 
L 312.664403 154.120886 
L 312.735949 155.595594 
L 312.87904 192.575564 
L 313.093677 149.236702 
L 313.165222 156.39942 
L 313.236768 182.561211 
L 313.308314 171.233246 
L 313.379859 187.668548 
L 313.52295 162.401761 
L 313.666042 212.391719 
L 313.809133 138.454902 
L 313.880679 178.144886 
L 313.952224 161.569272 
L 314.166861 182.984869 
L 314.238407 178.245383 
L 314.309952 164.618437 
L 314.381498 174.666807 
L 314.596135 154.061451 
L 314.66768 201.674851 
L 314.810772 161.04046 
L 314.882317 181.462544 
L 314.953863 176.094341 
L 315.025409 169.818682 
L 315.096954 183.59798 
L 315.1685 175.432556 
L 315.240045 152.274736 
L 315.311591 173.035723 
L 315.383137 171.900441 
L 315.526228 160.720524 
L 315.669319 190.300306 
L 315.740865 178.034332 
L 315.812411 165.848717 
L 315.955502 191.940364 
L 316.027047 174.017311 
L 316.098593 195.524185 
L 316.170139 167.664191 
L 316.241684 207.174176 
L 316.31323 165.887031 
L 316.384776 188.205977 
L 316.456321 178.156257 
L 316.527867 150.910266 
L 316.599412 160.572522 
L 316.670958 187.161559 
L 316.742504 181.860496 
L 316.814049 169.761532 
L 316.885595 173.954136 
L 316.957141 186.08159 
L 317.028686 168.633468 
L 317.100232 183.583618 
L 317.171777 103.968749 
L 317.243323 174.770981 
L 317.314869 144.98287 
L 317.529506 187.15462 
L 317.601051 202.572526 
L 317.672597 181.397408 
L 317.815688 209.406924 
L 317.958779 173.016149 
L 318.030325 168.946169 
L 318.101871 171.751636 
L 318.316507 208.452117 
L 318.388053 154.103046 
L 318.459599 194.42738 
L 318.531144 175.920915 
L 318.60269 159.46334 
L 318.674236 164.938642 
L 318.745781 178.144897 
L 318.888873 156.630031 
L 319.031964 179.376372 
L 319.103509 117.310477 
L 319.175055 171.671458 
L 319.246601 143.512569 
L 319.389692 180.472657 
L 319.461238 164.342445 
L 319.532783 188.229277 
L 319.604329 185.523412 
L 319.74742 152.091721 
L 319.818966 194.771708 
L 319.890511 177.991667 
L 320.033603 163.651397 
L 320.176694 191.438731 
L 320.248239 180.548019 
L 320.319785 190.448757 
L 320.391331 151.899707 
L 320.462876 167.419776 
L 320.534422 175.808921 
L 320.605968 171.717927 
L 320.677513 148.929498 
L 320.749059 195.477128 
L 320.820604 164.565057 
L 320.89215 200.438475 
L 321.035241 163.409633 
L 321.106787 190.783678 
L 321.178333 182.933492 
L 321.249878 184.097349 
L 321.321424 173.321708 
L 321.392969 181.631092 
L 321.464515 124.319745 
L 321.607606 187.543182 
L 321.679152 183.450655 
L 321.750698 159.289428 
L 321.822243 182.828615 
L 321.893789 178.633445 
L 322.03688 201.984655 
L 322.108426 168.972546 
L 322.179971 172.592809 
L 322.323063 187.29472 
L 322.394608 169.106574 
L 322.466154 188.107215 
L 322.5377 182.493092 
L 322.680791 171.461916 
L 322.752336 78.736844 
L 322.895428 192.57081 
L 322.966973 202.062301 
L 323.038519 162.527114 
L 323.110065 212.886285 
L 323.18161 162.524523 
L 323.253156 185.268091 
L 323.396247 160.611684 
L 323.467793 192.285499 
L 323.610884 150.972113 
L 323.753975 204.723013 
L 323.897066 154.766948 
L 324.111703 197.362047 
L 324.183249 172.783648 
L 324.254795 191.623811 
L 324.32634 156.757989 
L 324.397886 164.269613 
L 324.540977 197.575538 
L 324.898705 153.135752 
L 325.041796 191.375359 
L 325.113342 182.215253 
L 325.184888 184.382674 
L 325.256433 172.275592 
L 325.327979 189.90503 
L 325.399525 176.394026 
L 325.47107 197.666344 
L 325.542616 169.803422 
L 325.685707 197.452211 
L 325.828798 177.713231 
L 325.97189 197.919952 
L 326.114981 166.739472 
L 326.186527 198.603864 
L 326.329618 178.36572 
L 326.401163 176.552177 
L 326.472709 169.872062 
L 326.6158 195.075899 
L 326.758892 152.434685 
L 326.901983 191.284273 
L 326.973528 186.305064 
L 327.045074 185.101189 
L 327.11662 186.317629 
L 327.331257 121.368997 
L 327.474348 175.080056 
L 327.617439 159.216748 
L 327.688985 193.935863 
L 327.76053 178.807809 
L 327.832076 185.713404 
L 327.903622 176.790684 
L 328.046713 201.21861 
L 328.118258 198.149979 
L 328.189804 153.56656 
L 328.26135 162.261968 
L 328.475987 194.842252 
L 328.547532 185.459528 
L 328.619078 195.039066 
L 328.690623 183.472729 
L 328.762169 197.311817 
L 328.833715 169.935511 
L 328.90526 179.941648 
L 329.048352 166.240714 
L 329.119897 187.511915 
L 329.191443 177.450803 
L 329.262988 187.418566 
L 329.334534 174.899127 
L 329.40608 187.781279 
L 329.477625 166.717867 
L 329.549171 206.544233 
L 329.620717 189.899121 
L 329.692262 161.498603 
L 329.763808 202.361517 
L 329.835354 169.55461 
L 329.906899 197.26974 
L 329.978445 193.519166 
L 330.04999 174.371414 
L 330.121536 197.031085 
L 330.193082 178.994526 
L 330.264627 182.103108 
L 330.336173 190.105563 
L 330.407719 182.670883 
L 330.55081 128.814103 
L 330.693901 178.42353 
L 330.765447 171.419826 
L 330.836992 177.567749 
L 330.908538 167.549951 
L 330.980084 206.919001 
L 331.051629 197.682912 
L 331.19472 153.178694 
L 331.266266 179.017113 
L 331.480903 160.069013 
L 331.552449 187.832564 
L 331.623994 180.818527 
L 331.767085 161.525869 
L 331.910177 191.870215 
L 332.053268 161.887903 
L 332.124814 205.932084 
L 332.196359 191.164213 
L 332.410996 177.068666 
L 332.554087 195.164391 
L 332.697179 158.787654 
L 332.84027 190.633049 
L 332.911816 167.740438 
L 332.983361 168.875187 
L 333.197998 200.435973 
L 333.341089 178.509018 
L 333.484181 183.384283 
L 333.555726 194.673585 
L 333.627272 177.897174 
L 333.698817 192.141328 
L 333.770363 185.477669 
L 333.841909 189.201009 
L 333.913454 187.097283 
L 333.985 174.291763 
L 334.056546 175.328972 
L 334.128091 183.329264 
L 334.199637 165.638651 
L 334.271182 209.739377 
L 334.342728 178.422445 
L 334.414274 192.385016 
L 334.557365 157.269197 
L 334.628911 198.593668 
L 334.772002 166.345404 
L 334.915093 211.431601 
L 334.986639 158.517601 
L 335.058184 174.516938 
L 335.12973 175.317154 
L 335.201276 195.331236 
L 335.272821 152.124718 
L 335.344367 181.95836 
L 335.415912 174.803237 
L 335.487458 193.583584 
L 335.559004 148.993862 
L 335.702095 187.71419 
L 335.916732 154.900566 
L 336.059823 186.696501 
L 336.131369 181.675284 
L 336.202914 149.594235 
L 336.417551 206.419403 
L 336.489097 204.563125 
L 336.560643 170.183736 
L 336.632188 179.368435 
L 336.703734 155.278296 
L 336.846825 208.317263 
L 336.918371 173.464103 
L 336.989916 198.147382 
L 337.061462 166.594951 
L 337.133008 183.77666 
L 337.204553 190.856721 
L 337.276099 150.648655 
L 337.347644 193.944661 
L 337.41919 159.600176 
L 337.562281 197.010309 
L 337.633827 193.40947 
L 337.776918 153.013983 
L 337.848464 160.856663 
L 337.920009 158.184359 
L 337.991555 107.105294 
L 338.063101 174.737603 
L 338.134646 143.551797 
L 338.349283 212.623097 
L 338.492374 173.505734 
L 338.56392 177.930412 
L 338.635466 177.298749 
L 338.707011 195.11951 
L 338.850103 162.670229 
L 338.921648 181.268082 
L 338.993194 172.19323 
L 339.064739 179.954938 
L 339.207831 168.594189 
L 339.279376 190.432325 
L 339.350922 163.981826 
L 339.494013 210.480963 
L 339.565559 175.526606 
L 339.637104 213.719757 
L 339.70865 163.554566 
L 339.780196 170.533796 
L 339.851741 192.410114 
L 339.923287 185.944377 
L 339.994833 182.19131 
L 340.066378 185.344122 
L 340.137924 196.277915 
L 340.20947 143.716604 
L 340.281015 168.855474 
L 340.352561 196.522216 
L 340.495652 165.770016 
L 340.638743 194.729852 
L 340.781835 168.414044 
L 340.85338 178.648474 
L 340.924926 170.857286 
L 340.996471 184.135773 
L 341.068017 165.611289 
L 341.139563 209.043171 
L 341.211108 178.907021 
L 341.282654 198.964257 
L 341.3542 197.045359 
L 341.425745 200.472979 
L 341.568836 181.371943 
L 341.640382 200.949309 
L 341.711928 199.211929 
L 341.783473 202.459907 
L 341.855019 159.730883 
L 341.926565 168.314781 
L 342.069656 205.18851 
L 342.141201 152.094876 
L 342.212747 196.305875 
L 342.284293 172.476481 
L 342.355838 192.259145 
L 342.427384 179.037655 
L 342.49893 201.554177 
L 342.570475 156.839961 
L 342.642021 182.064965 
L 342.713566 172.143127 
L 342.785112 165.513464 
L 342.856658 191.614559 
L 343.071295 162.075972 
L 343.14284 180.278197 
L 343.214386 175.92768 
L 343.357477 176.305693 
L 343.429023 175.793441 
L 343.500568 178.51549 
L 343.572114 189.54559 
L 343.64366 180.24598 
L 343.715205 192.640313 
L 343.858297 164.271686 
L 344.001388 188.165704 
L 344.072933 164.833807 
L 344.144479 219.313267 
L 344.28757 179.199212 
L 344.359116 196.414691 
L 344.430662 180.408281 
L 344.573753 196.858317 
L 344.645298 173.949165 
L 344.78839 191.831452 
L 344.859935 186.826871 
L 344.931481 209.88967 
L 345.074572 182.136539 
L 345.146118 191.239345 
L 345.217663 167.013687 
L 345.289209 193.071206 
L 345.360755 179.353331 
L 345.4323 166.97857 
L 345.646937 183.499964 
L 345.718483 183.070028 
L 345.790028 198.99108 
L 345.861574 188.028052 
L 345.93312 201.750257 
L 346.004665 192.189254 
L 346.076211 201.917524 
L 346.219302 177.804638 
L 346.290848 167.951956 
L 346.362393 209.58112 
L 346.433939 196.326153 
L 346.505485 193.361255 
L 346.57703 173.637427 
L 346.720122 202.406014 
L 346.791667 144.023425 
L 346.863213 187.215389 
L 346.934759 179.621173 
L 347.006304 204.936212 
L 347.07785 155.755232 
L 347.149395 181.696683 
L 347.220941 168.503498 
L 347.292487 176.759455 
L 347.435578 161.095211 
L 347.578669 212.66336 
L 347.72176 174.679822 
L 347.793306 208.567078 
L 347.864852 163.799377 
L 348.007943 197.779028 
L 348.079489 168.898191 
L 348.151034 202.282519 
L 348.22258 170.553106 
L 348.294125 191.716143 
L 348.365671 166.604598 
L 348.437217 185.299619 
L 348.580308 157.385148 
L 348.723399 183.569906 
L 348.794945 224.690117 
L 348.86649 213.486271 
L 349.009582 174.596834 
L 349.152673 198.681935 
L 349.224219 196.38443 
L 349.295764 176.520664 
L 349.36731 194.673538 
L 349.438855 162.412741 
L 349.510401 196.680187 
L 349.653492 137.034338 
L 349.725038 181.372332 
L 349.796584 178.660704 
L 349.939675 186.061712 
L 350.01122 160.480417 
L 350.082766 196.084528 
L 350.154312 185.184538 
L 350.225857 189.249707 
L 350.297403 188.788754 
L 350.440494 172.326009 
L 350.51204 182.290097 
L 350.583586 163.720052 
L 350.655131 165.749856 
L 350.726677 178.669652 
L 350.798222 175.058863 
L 350.869768 163.626296 
L 350.941314 169.455028 
L 351.012859 159.390658 
L 351.155951 202.88451 
L 351.299042 167.225209 
L 351.370587 187.805784 
L 351.585224 131.81162 
L 351.728316 190.760443 
L 351.799861 152.787734 
L 351.871407 200.866961 
L 351.942952 185.424178 
L 352.014498 158.103106 
L 352.086044 166.867108 
L 352.157589 173.238812 
L 352.372226 208.261925 
L 352.443772 173.725785 
L 352.515317 175.270055 
L 352.586863 180.24923 
L 352.658409 178.162421 
L 352.729954 175.925014 
L 352.8015 165.365785 
L 352.944591 191.002548 
L 353.016137 176.363948 
L 353.159228 206.190146 
L 353.230774 164.041404 
L 353.302319 195.214141 
L 353.445411 158.930096 
L 353.516956 172.699535 
L 353.588502 164.420988 
L 353.660047 191.992425 
L 353.731593 165.29106 
L 353.803139 180.596783 
L 353.874684 167.174301 
L 354.017776 202.857835 
L 354.089321 181.511032 
L 354.232413 218.338955 
L 354.447049 180.871484 
L 354.518595 174.47635 
L 354.590141 197.790931 
L 354.661686 153.826629 
L 354.733232 204.376549 
L 354.804778 176.905877 
L 354.876323 194.083917 
L 355.019414 173.16233 
L 355.09096 176.110393 
L 355.162506 201.717387 
L 355.234051 194.696932 
L 355.377143 177.102482 
L 355.448688 194.270577 
L 355.520234 148.182047 
L 355.591779 183.488573 
L 355.663325 179.779989 
L 355.806416 201.046209 
L 356.021053 157.462941 
L 356.092599 174.559809 
L 356.164144 237.365655 
L 356.307236 183.324698 
L 356.450327 201.866792 
L 356.521873 198.794464 
L 356.593418 173.204765 
L 356.664964 174.795984 
L 356.736509 189.606594 
L 356.808055 175.11023 
L 356.951146 200.123586 
L 357.022692 189.559683 
L 357.094238 207.056596 
L 357.308875 170.503958 
L 357.38042 199.489591 
L 357.451966 190.186649 
L 357.523511 195.377211 
L 357.595057 161.625744 
L 357.738148 204.03021 
L 357.809694 200.121564 
L 357.952785 154.824982 
L 358.024331 193.309795 
L 358.095876 192.836616 
L 358.167422 181.069456 
L 358.310513 194.638266 
L 358.382059 192.368273 
L 358.453605 182.532797 
L 358.52515 154.272684 
L 358.596696 157.637471 
L 358.668241 154.412781 
L 358.739787 216.19298 
L 358.811333 195.718068 
L 358.882878 182.544441 
L 358.954424 192.590105 
L 359.097515 162.322356 
L 359.169061 184.375313 
L 359.240606 183.538799 
L 359.312152 174.750551 
L 359.383698 199.90127 
L 359.455243 189.511119 
L 359.526789 196.60617 
L 359.598335 219.811841 
L 359.741426 171.276246 
L 359.812971 183.385878 
L 359.884517 181.479392 
L 359.956063 187.829821 
L 360.099154 172.644758 
L 360.1707 160.125632 
L 360.242245 186.687084 
L 360.313791 183.600568 
L 360.385336 186.094002 
L 360.528428 204.337285 
L 360.599973 153.867975 
L 360.671519 180.161533 
L 360.743065 202.753602 
L 360.81461 199.163193 
L 360.957702 193.732602 
L 361.029247 175.775686 
L 361.100793 189.642397 
L 361.172338 186.78037 
L 361.243884 186.007543 
L 361.31543 180.41002 
L 361.386975 206.630996 
L 361.458521 205.323555 
L 361.530067 210.641714 
L 361.601612 171.238175 
L 361.673158 179.699349 
L 361.744703 179.12533 
L 361.887795 223.938641 
L 361.95934 176.980497 
L 362.030886 191.258697 
L 362.173977 174.725391 
L 362.317068 198.980218 
L 362.388614 181.193541 
L 362.46016 204.638135 
L 362.603251 185.200679 
L 362.674797 194.248322 
L 362.746342 173.082271 
L 362.889433 213.844351 
L 363.032525 171.546181 
L 363.318707 194.861269 
L 363.390253 163.934402 
L 363.533344 210.39894 
L 363.60489 156.499521 
L 363.676435 169.572887 
L 363.747981 156.410272 
L 363.819527 167.207924 
L 363.891072 196.651672 
L 363.962618 189.929188 
L 364.034163 159.420696 
L 364.105709 186.439881 
L 364.177255 174.512606 
L 364.320346 189.856067 
L 364.391892 208.946975 
L 364.463437 176.266783 
L 364.606529 212.322414 
L 364.678074 184.572272 
L 364.74962 189.432504 
L 364.821165 189.690275 
L 364.892711 217.276602 
L 365.035802 176.34286 
L 365.107348 180.368428 
L 365.250439 199.697295 
L 365.39353 167.05594 
L 365.465076 201.873836 
L 365.536622 193.986873 
L 365.608167 176.175366 
L 365.679713 190.267943 
L 365.751259 187.105381 
L 365.822804 167.504338 
L 365.89435 187.27448 
L 365.965895 173.177383 
L 366.037441 178.924355 
L 366.108987 180.938928 
L 366.180532 170.192831 
L 366.252078 192.977105 
L 366.323624 186.959978 
L 366.395169 186.182736 
L 366.466715 186.973215 
L 366.609806 183.68674 
L 366.681352 188.271397 
L 366.752897 178.248199 
L 366.824443 189.941285 
L 366.895989 180.902524 
L 366.967534 217.814907 
L 367.03908 190.627511 
L 367.110625 211.027647 
L 367.182171 146.347745 
L 367.253717 202.916464 
L 367.325262 195.328899 
L 367.396808 158.841921 
L 367.468354 205.368898 
L 367.539899 199.098477 
L 367.611445 202.585759 
L 367.682991 198.515023 
L 367.826082 172.642548 
L 367.897627 178.18077 
L 367.969173 138.97314 
L 368.040719 201.437338 
L 368.112264 182.029161 
L 368.18381 181.861395 
L 368.326901 167.211801 
L 368.398447 175.286802 
L 368.541538 205.102222 
L 368.613084 203.706938 
L 368.684629 204.025921 
L 368.756175 214.265737 
L 368.827721 180.670648 
L 368.899266 192.73344 
L 368.970812 197.790259 
L 369.042357 182.986789 
L 369.113903 184.086834 
L 369.185449 190.877252 
L 369.32854 173.371516 
L 369.400086 216.161283 
L 369.471631 191.244524 
L 369.543177 198.00053 
L 369.614722 217.397893 
L 369.686268 164.08016 
L 369.757814 183.498748 
L 369.900905 187.206604 
L 369.972451 173.815599 
L 370.043996 187.26771 
L 370.115542 171.181645 
L 370.258633 208.841957 
L 370.330179 169.765944 
L 370.401724 187.684596 
L 370.47327 185.55416 
L 370.544816 155.97633 
L 370.616361 163.143104 
L 370.759452 179.967907 
L 370.830998 196.969651 
L 370.902544 180.669615 
L 371.117181 207.081046 
L 371.188726 189.125045 
L 371.260272 206.799864 
L 371.331818 175.526909 
L 371.403363 181.00931 
L 371.474909 195.471714 
L 371.546454 195.470575 
L 371.618 194.100529 
L 371.761091 225.102242 
L 371.904183 194.18228 
L 371.975728 224.614006 
L 372.047274 202.56434 
L 372.118819 213.150158 
L 372.261911 193.717067 
L 372.405002 216.681002 
L 372.476548 159.619874 
L 372.548093 171.165338 
L 372.619639 201.854639 
L 372.76273 155.702004 
L 372.834276 220.487878 
L 372.905821 201.514583 
L 372.977367 221.682089 
L 373.120458 169.606239 
L 373.192004 210.317647 
L 373.263549 202.422904 
L 373.406641 160.523325 
L 373.478186 205.021343 
L 373.549732 182.976247 
L 373.621278 206.606338 
L 373.835914 165.331201 
L 373.979006 190.376683 
L 374.050551 192.56634 
L 374.122097 198.992922 
L 374.193643 171.327107 
L 374.265188 181.162526 
L 374.336734 164.966779 
L 374.408279 205.907072 
L 374.479825 187.807092 
L 374.551371 214.95229 
L 374.694462 179.897254 
L 374.766008 194.394965 
L 374.837553 167.215683 
L 374.909099 209.120842 
L 374.980645 191.123597 
L 375.05219 191.791102 
L 375.123736 190.897102 
L 375.266827 183.880668 
L 375.338373 189.722067 
L 375.409918 180.529694 
L 375.481464 182.048606 
L 375.55301 201.637928 
L 375.624555 183.32895 
L 375.696101 209.849589 
L 375.910738 187.451796 
L 375.982283 178.135361 
L 376.19692 205.64591 
L 376.268466 200.170467 
L 376.411557 222.126897 
L 376.554648 185.48314 
L 376.626194 187.176081 
L 376.769285 174.365849 
L 376.912376 196.329735 
L 377.055468 168.049335 
L 377.198559 198.512072 
L 377.270105 195.832539 
L 377.34165 203.422847 
L 377.413196 197.325648 
L 377.484741 174.789693 
L 377.627833 239.638087 
L 377.699378 210.236561 
L 377.770924 199.912666 
L 377.84247 168.960699 
L 377.914015 215.488254 
L 377.985561 171.493727 
L 378.057106 193.416146 
L 378.128652 184.900752 
L 378.200198 209.020072 
L 378.271743 184.513048 
L 378.343289 190.677668 
L 378.414835 201.084273 
L 378.48638 198.923482 
L 378.557926 183.776512 
L 378.701017 197.088604 
L 378.772563 181.574865 
L 378.844108 205.910629 
L 378.915654 192.954783 
L 378.9872 182.394786 
L 379.130291 211.965908 
L 379.201837 187.202361 
L 379.273382 205.976899 
L 379.344928 196.519009 
L 379.416473 196.671858 
L 379.488019 202.42743 
L 379.559565 198.419235 
L 379.63111 175.540364 
L 379.702656 215.695251 
L 379.774202 212.860844 
L 379.917293 182.803636 
L 379.988838 198.464527 
L 380.13193 183.937928 
L 380.275021 205.049291 
L 380.418112 194.198488 
L 380.489658 213.701434 
L 380.632749 175.498539 
L 380.77584 219.847495 
L 380.847386 176.685198 
L 380.918932 178.26018 
L 380.990477 213.228025 
L 381.133568 177.131919 
L 381.205114 193.649033 
L 381.27666 158.841606 
L 381.419751 197.301384 
L 381.491297 151.914891 
L 381.705934 213.500723 
L 381.92057 173.88854 
L 381.992116 202.997106 
L 382.063662 179.969918 
L 382.206753 213.471618 
L 382.42139 184.474311 
L 382.564481 200.020444 
L 382.636027 183.402408 
L 382.707572 211.29763 
L 382.779118 188.92375 
L 382.850664 207.548052 
L 382.922209 206.285593 
L 382.993755 207.078091 
L 383.0653 215.930233 
L 383.279937 187.872215 
L 383.423029 202.17592 
L 383.494574 196.615052 
L 383.56612 182.114535 
L 383.637665 199.180424 
L 383.709211 193.820841 
L 383.780757 173.063482 
L 383.852302 206.437477 
L 383.923848 200.733162 
L 383.995394 193.976517 
L 384.138485 229.156953 
L 384.21003 204.902614 
L 384.281576 207.088785 
L 384.424667 192.535219 
L 384.496213 228.823471 
L 384.71085 182.449098 
L 384.782395 194.282612 
L 384.853941 193.571236 
L 384.925487 191.189348 
L 384.997032 171.760438 
L 385.068578 213.957132 
L 385.140124 198.726168 
L 385.211669 195.708326 
L 385.283215 201.538429 
L 385.354761 192.637122 
L 385.426306 203.399855 
L 385.569397 153.535891 
L 385.640943 194.626216 
L 385.712489 162.851486 
L 385.85558 204.533065 
L 385.927126 206.691569 
L 385.998671 191.775431 
L 386.070217 195.074584 
L 386.141762 191.848173 
L 386.284854 202.385664 
L 386.356399 182.567057 
L 386.427945 188.083702 
L 386.499491 185.33788 
L 386.571036 219.884446 
L 386.714127 166.268492 
L 386.785673 203.559212 
L 386.857219 197.037393 
L 387.00031 204.582554 
L 387.143401 183.007485 
L 387.214947 207.194565 
L 387.286492 202.837247 
L 387.358038 187.52751 
L 387.429584 220.15709 
L 387.501129 184.829995 
L 387.572675 201.995502 
L 387.644221 190.664266 
L 387.715766 203.469818 
L 387.787312 172.480416 
L 387.858857 173.059503 
L 387.930403 201.932464 
L 388.001949 170.185251 
L 388.14504 202.142474 
L 388.288131 158.79036 
L 388.359677 204.350539 
L 388.431222 179.210226 
L 388.574314 212.029828 
L 388.645859 177.48203 
L 388.717405 218.143502 
L 388.788951 165.276269 
L 388.860496 183.338995 
L 389.075133 201.428025 
L 389.218224 173.453046 
L 389.28977 188.251474 
L 389.361316 205.121416 
L 389.432861 197.239125 
L 389.504407 209.922731 
L 389.575953 189.790011 
L 389.647498 211.334631 
L 389.790589 177.955608 
L 389.862135 191.572274 
L 389.933681 187.327635 
L 390.005226 165.611164 
L 390.219863 194.823485 
L 390.362954 175.847015 
L 390.4345 238.736784 
L 390.506046 175.060727 
L 390.577591 191.476063 
L 390.649137 199.731338 
L 390.720683 182.114151 
L 390.863774 198.851151 
L 390.935319 185.824809 
L 391.006865 211.309524 
L 391.078411 211.129703 
L 391.221502 184.158335 
L 391.293048 209.888729 
L 391.364593 207.47308 
L 391.436139 207.693639 
L 391.650776 201.424569 
L 391.722321 202.119392 
L 391.793867 188.694795 
L 391.865413 217.769345 
L 391.936958 200.840745 
L 392.008504 215.706125 
L 392.08005 187.374902 
L 392.151595 187.523818 
L 392.223141 197.975519 
L 392.366232 189.917917 
L 392.437778 191.594342 
L 392.509323 183.465448 
L 392.580869 203.461972 
L 392.72396 190.556258 
L 392.795506 213.864495 
L 392.867051 187.177722 
L 393.010143 228.405112 
L 393.081688 199.341568 
L 393.153234 212.269836 
L 393.22478 196.159683 
L 393.296325 213.03673 
L 393.510962 139.002435 
L 393.582508 191.646251 
L 393.654053 184.98593 
L 393.725599 212.774276 
L 393.86869 193.812344 
L 394.011781 209.17354 
L 394.083327 206.653407 
L 394.154873 181.027053 
L 394.36951 216.28627 
L 394.441055 199.609084 
L 394.512601 237.394706 
L 394.584146 158.039456 
L 394.655692 180.189834 
L 394.727238 232.354464 
L 394.798783 195.273391 
L 394.870329 204.743361 
L 394.941875 205.406584 
L 395.01342 195.411266 
L 395.084966 202.806423 
L 395.156511 199.07906 
L 395.299603 192.10232 
L 395.371148 167.538209 
L 395.51424 191.546469 
L 395.585785 187.138801 
L 395.657331 214.627116 
L 395.728877 197.351855 
L 395.800422 211.746222 
L 395.871968 208.102212 
L 395.943513 209.70425 
L 396.015059 200.328477 
L 396.086605 161.316143 
L 396.229696 190.456032 
L 396.301242 183.514472 
L 396.444333 211.11999 
L 396.515878 191.78032 
L 396.587424 218.235246 
L 396.65897 181.029859 
L 396.730515 201.362381 
L 396.873607 209.616514 
L 396.945152 220.319579 
L 397.016698 204.331853 
L 397.088243 205.111773 
L 397.159789 201.894903 
L 397.231335 212.481644 
L 397.374426 199.845259 
L 397.445972 203.165766 
L 397.517517 189.941667 
L 397.589063 210.937773 
L 397.732154 197.339192 
L 397.8037 198.864726 
L 397.875245 192.508218 
L 397.946791 208.164177 
L 398.018337 170.022102 
L 398.089882 194.37321 
L 398.161428 179.868578 
L 398.232973 191.29223 
L 398.304519 226.930264 
L 398.376065 217.426615 
L 398.590702 187.023797 
L 398.805338 199.167361 
L 398.876884 188.367201 
L 399.091521 223.995096 
L 399.306158 171.149005 
L 399.377704 179.446023 
L 399.449249 217.495939 
L 399.520795 202.418987 
L 399.59234 222.082045 
L 399.663886 159.855255 
L 399.735432 191.271274 
L 399.806977 184.092871 
L 399.950069 216.442843 
L 400.09316 195.160033 
L 400.236251 209.494002 
L 400.307797 188.120058 
L 400.379342 201.658207 
L 400.450888 187.072328 
L 400.522434 208.526962 
L 400.593979 206.972413 
L 400.665525 215.042401 
L 400.808616 182.879897 
L 400.880162 184.523731 
L 400.951707 209.705637 
L 401.023253 188.580941 
L 401.094799 196.315077 
L 401.166344 183.898681 
L 401.23789 186.530346 
L 401.309435 184.095577 
L 401.380981 186.932559 
L 401.595618 215.485777 
L 401.810255 196.729004 
L 401.8818 200.342379 
L 401.953346 168.587173 
L 402.024892 180.43562 
L 402.096437 209.940326 
L 402.167983 209.654293 
L 402.311074 194.847859 
L 402.38262 219.854591 
L 402.454165 178.902855 
L 402.525711 190.416896 
L 402.597257 205.700328 
L 402.668802 204.865893 
L 402.740348 198.13086 
L 402.811894 203.709049 
L 402.883439 195.785111 
L 402.954985 220.514198 
L 403.026531 207.830348 
L 403.098076 188.664689 
L 403.241167 224.981705 
L 403.312713 176.719062 
L 403.384259 183.307814 
L 403.455804 225.910376 
L 403.52735 208.317914 
L 403.598896 174.481506 
L 403.670441 203.056737 
L 403.741987 198.280352 
L 403.813532 187.346678 
L 403.885078 196.965611 
L 403.956624 192.464301 
L 404.028169 235.489132 
L 404.099715 184.430155 
L 404.171261 207.11934 
L 404.457443 165.202057 
L 404.528989 201.70022 
L 404.600534 199.792098 
L 404.67208 189.088355 
L 404.743626 191.472923 
L 404.815171 204.310179 
L 404.886717 184.579928 
L 404.958262 204.933187 
L 405.029808 186.653048 
L 405.101354 194.958413 
L 405.172899 192.774661 
L 405.244445 214.628182 
L 405.315991 161.740131 
L 405.387536 188.561836 
L 405.459082 211.050785 
L 405.530627 203.231735 
L 405.602173 187.077405 
L 405.673719 203.243042 
L 405.745264 182.651874 
L 405.81681 204.047813 
L 405.888356 197.465773 
L 405.959901 212.577014 
L 406.031447 116.270468 
L 406.174538 201.826666 
L 406.246084 173.653805 
L 406.317629 215.254855 
L 406.389175 211.773227 
L 406.460721 221.427869 
L 406.675358 210.698424 
L 406.746903 208.96216 
L 406.818449 202.455867 
L 406.889994 212.980897 
L 406.96154 188.712744 
L 407.033086 202.498764 
L 407.104631 193.408616 
L 407.176177 205.883786 
L 407.247723 181.149467 
L 407.319268 184.159287 
L 407.462359 203.409005 
L 407.533905 210.443403 
L 407.605451 194.815166 
L 407.676996 197.233046 
L 407.748542 193.485018 
L 407.820088 210.20163 
L 408.034724 175.386972 
L 408.10627 201.400213 
L 408.177816 190.779601 
L 408.320907 189.781565 
L 408.463998 207.98456 
L 408.535544 185.998141 
L 408.607089 74.937121 
L 408.750181 216.272571 
L 408.893272 182.823256 
L 408.964818 185.098496 
L 409.179454 211.960693 
L 409.251 213.769415 
L 409.322546 224.784845 
L 409.537183 149.45546 
L 409.823365 213.417938 
L 409.894911 200.315735 
L 409.966456 219.068661 
L 410.038002 205.516594 
L 410.109548 225.528661 
L 410.252639 185.170463 
L 410.324185 207.398083 
L 410.39573 203.23727 
L 410.467276 196.08737 
L 410.538821 219.357116 
L 410.681913 186.110406 
L 410.753458 226.965575 
L 410.825004 193.163947 
L 410.89655 204.764796 
L 410.968095 215.623515 
L 411.039641 197.340515 
L 411.111186 219.553163 
L 411.182732 193.24772 
L 411.325823 219.021466 
L 411.468915 193.370377 
L 411.54046 205.204888 
L 411.612006 202.87542 
L 411.683551 208.827045 
L 411.755097 203.673925 
L 411.826643 179.854119 
L 411.898188 184.747776 
L 412.04128 205.275512 
L 412.112825 182.842719 
L 412.255916 216.384235 
L 412.327462 216.01446 
L 412.399008 194.6248 
L 412.470553 214.397344 
L 412.542099 206.676842 
L 412.613645 215.355237 
L 412.68519 213.748012 
L 412.756736 186.820128 
L 412.828281 197.782359 
L 412.899827 181.689722 
L 413.042918 210.080377 
L 413.114464 197.921263 
L 413.18601 202.388565 
L 413.257555 201.438796 
L 413.329101 209.578931 
L 413.400647 204.374708 
L 413.400647 204.374708 
" clip-path="url(#p8230bfe49b)" style="fill: none; stroke: #000000; stroke-width: 2; stroke-linecap: round"/>
   </g>
   <g id="line2d_14">
    <path d="M 218.081083 279.008549 
L 218.081083 12.896549 
" clip-path="url(#p8230bfe49b)" style="fill: none; stroke-dasharray: 5.55,2.4; stroke-dashoffset: 0; stroke: #000000; stroke-width: 1.5"/>
   </g>
   <g id="patch_3">
    <path d="M 74.989828 279.008549 
L 74.989828 12.896549 
" style="fill: none; stroke: #262626; stroke-width: 1.25; stroke-linejoin: miter; stroke-linecap: square"/>
   </g>
   <g id="patch_4">
    <path d="M 432.109828 279.008549 
L 432.109828 12.896549 
" style="fill: none; stroke: #262626; stroke-width: 1.25; stroke-linejoin: miter; stroke-linecap: square"/>
   </g>
   <g id="patch_5">
    <path d="M 74.989828 279.008549 
L 432.109828 279.008549 
" style="fill: none; stroke: #262626; stroke-width: 1.25; stroke-linejoin: miter; stroke-linecap: square"/>
   </g>
   <g id="patch_6">
    <path d="M 74.989828 12.896549 
L 432.109828 12.896549 
" style="fill: none; stroke: #262626; stroke-width: 1.25; stroke-linejoin: miter; stroke-linecap: square"/>
   </g>
  </g>
 </g>
 <defs>
  <clipPath id="p8230bfe49b">
   <rect x="74.989828" y="12.896549" width="357.12" height="266.112"/>
  </clipPath>
 </defs>
</svg>
