<?xml version="1.0" encoding="utf-8" standalone="no"?>
<!DOCTYPE svg PUBLIC "-//W3C//DTD SVG 1.1//EN"
  "http://www.w3.org/Graphics/SVG/1.1/DTD/svg11.dtd">
<svg height="321.687679pt" version="1.1" viewBox="0 0 337.247468 321.687679" width="337.247468pt" xmlns="http://www.w3.org/2000/svg" xmlns:xlink="http://www.w3.org/1999/xlink">
 <metadata>
  <rdf:RDF xmlns:cc="http://creativecommons.org/ns#" xmlns:dc="http://purl.org/dc/elements/1.1/" xmlns:rdf="http://www.w3.org/1999/02/22-rdf-syntax-ns#">
   <cc:Work>
    <dc:type rdf:resource="http://purl.org/dc/dcmitype/StillImage"/>
    <dc:date>2023-04-27T13:32:15.277761</dc:date>
    <dc:format>image/svg+xml</dc:format>
    <dc:creator>
     <cc:Agent>
      <dc:title>Matplotlib v3.4.3, https://matplotlib.org/</dc:title>
     </cc:Agent>
    </dc:creator>
   </cc:Work>
  </rdf:RDF>
 </metadata>
 <defs>
  <style type="text/css">*{stroke-linecap:butt;stroke-linejoin:round;}</style>
 </defs>
 <g id="figure_1">
  <g id="patch_1">
   <path d="M 0 321.687679 
L 337.247468 321.687679 
L 337.247468 0 
L 0 0 
z
" style="fill:#ffffff;"/>
  </g>
  <g id="axes_1">
   <g id="patch_2">
    <path d="M 65.449896 265.571549 
L 318.124896 265.571549 
L 318.124896 12.896549 
L 65.449896 12.896549 
z
" style="fill:#ffffff;"/>
   </g>
   <g id="matplotlib.axis_1">
    <g id="xtick_1">
     <g id="text_1">
      <text style="fill:#262626;font-family:DejaVu Sans;font-size:14.994px;font-stretch:normal;font-style:normal;font-weight:normal;text-anchor:middle;" transform="rotate(-0, 65.449896, 286.464646)" x="65.449896" y="286.464646">0.0</text>
     </g>
    </g>
    <g id="xtick_2">
     <g id="text_2">
      <text style="fill:#262626;font-family:DejaVu Sans;font-size:14.994px;font-stretch:normal;font-style:normal;font-weight:normal;text-anchor:middle;" transform="rotate(-0, 115.984896, 286.464646)" x="115.984896" y="286.464646">0.2</text>
     </g>
    </g>
    <g id="xtick_3">
     <g id="text_3">
      <text style="fill:#262626;font-family:DejaVu Sans;font-size:14.994px;font-stretch:normal;font-style:normal;font-weight:normal;text-anchor:middle;" transform="rotate(-0, 166.519896, 286.464646)" x="166.519896" y="286.464646">0.4</text>
     </g>
    </g>
    <g id="xtick_4">
     <g id="text_4">
      <text style="fill:#262626;font-family:DejaVu Sans;font-size:14.994px;font-stretch:normal;font-style:normal;font-weight:normal;text-anchor:middle;" transform="rotate(-0, 217.054896, 286.464646)" x="217.054896" y="286.464646">0.6</text>
     </g>
    </g>
    <g id="xtick_5">
     <g id="text_5">
      <text style="fill:#262626;font-family:DejaVu Sans;font-size:14.994px;font-stretch:normal;font-style:normal;font-weight:normal;text-anchor:middle;" transform="rotate(-0, 267.589896, 286.464646)" x="267.589896" y="286.464646">0.8</text>
     </g>
    </g>
    <g id="xtick_6">
     <g id="text_6">
      <text style="fill:#262626;font-family:DejaVu Sans;font-size:14.994px;font-stretch:normal;font-style:normal;font-weight:normal;text-anchor:middle;" transform="rotate(-0, 318.124896, 286.464646)" x="318.124896" y="286.464646">1.0</text>
     </g>
    </g>
    <g id="text_7">
     <text style="fill:#262626;font-family:DejaVu Sans;font-size:21.6px;font-stretch:normal;font-style:normal;font-weight:normal;text-anchor:middle;" transform="rotate(-0, 191.787396, 309.995554)" x="191.787396" y="309.995554">Percentile</text>
    </g>
   </g>
   <g id="matplotlib.axis_2">
    <g id="ytick_1">
     <g id="text_8">
      <text style="fill:#262626;font-family:DejaVu Sans;font-size:14.994px;font-stretch:normal;font-style:normal;font-weight:normal;text-anchor:end;" transform="rotate(-0, 55.949896, 271.268097)" x="55.949896" y="271.268097">0.0</text>
     </g>
    </g>
    <g id="ytick_2">
     <g id="text_9">
      <text style="fill:#262626;font-family:DejaVu Sans;font-size:14.994px;font-stretch:normal;font-style:normal;font-weight:normal;text-anchor:end;" transform="rotate(-0, 55.949896, 220.733097)" x="55.949896" y="220.733097">0.2</text>
     </g>
    </g>
    <g id="ytick_3">
     <g id="text_10">
      <text style="fill:#262626;font-family:DejaVu Sans;font-size:14.994px;font-stretch:normal;font-style:normal;font-weight:normal;text-anchor:end;" transform="rotate(-0, 55.949896, 170.198097)" x="55.949896" y="170.198097">0.4</text>
     </g>
    </g>
    <g id="ytick_4">
     <g id="text_11">
      <text style="fill:#262626;font-family:DejaVu Sans;font-size:14.994px;font-stretch:normal;font-style:normal;font-weight:normal;text-anchor:end;" transform="rotate(-0, 55.949896, 119.663097)" x="55.949896" y="119.663097">0.6</text>
     </g>
    </g>
    <g id="ytick_5">
     <g id="text_12">
      <text style="fill:#262626;font-family:DejaVu Sans;font-size:14.994px;font-stretch:normal;font-style:normal;font-weight:normal;text-anchor:end;" transform="rotate(-0, 55.949896, 69.128097)" x="55.949896" y="69.128097">0.8</text>
     </g>
    </g>
    <g id="ytick_6">
     <g id="text_13">
      <text style="fill:#262626;font-family:DejaVu Sans;font-size:14.994px;font-stretch:normal;font-style:normal;font-weight:normal;text-anchor:end;" transform="rotate(-0, 55.949896, 18.593097)" x="55.949896" y="18.593097">1.0</text>
     </g>
    </g>
    <g id="text_14">
     <text style="fill:#262626;font-family:DejaVu Sans;font-size:21.6px;font-stretch:normal;font-style:normal;font-weight:normal;text-anchor:middle;" transform="rotate(-90, 23.612625, 139.234049)" x="23.612625" y="139.234049">Modality 2 Similarity</text>
    </g>
   </g>
   <g id="line2d_1">
    <path clip-path="url(#p649f1ab9af)" d="M 65.449896 182.387375 
L 68.002168 172.640773 
L 70.554441 162.599635 
L 73.106714 159.610381 
L 75.658987 153.973307 
L 78.211259 152.962616 
L 80.763532 148.96364 
L 83.315805 148.40175 
L 85.868077 145.462599 
L 88.42035 142.693994 
L 90.972623 141.939742 
L 93.524896 139.588624 
L 96.077168 139.440244 
L 98.629441 138.69613 
L 101.181714 137.309804 
L 103.733987 137.2234 
L 106.286259 133.362348 
L 108.838532 130.795692 
L 111.390805 130.052287 
L 113.943077 128.409387 
L 116.49535 127.373601 
L 119.047623 126.407282 
L 121.599896 124.503632 
L 124.152168 123.328391 
L 126.704441 121.746855 
L 129.256714 121.383244 
L 131.808987 120.675134 
L 134.361259 120.3494 
L 136.913532 117.221251 
L 139.465805 112.584423 
L 142.018077 110.154109 
L 144.57035 109.522088 
L 147.122623 109.431564 
L 149.674896 108.802068 
L 152.227168 107.803367 
L 154.779441 107.431625 
L 157.331714 99.313521 
L 159.883987 94.248615 
L 162.436259 94.101748 
L 164.988532 90.478481 
L 167.540805 90.279245 
L 170.093077 89.709984 
L 172.64535 89.449317 
L 175.197623 88.097204 
L 177.749896 85.86835 
L 180.302168 83.137631 
L 182.854441 79.958536 
L 185.406714 78.186887 
L 187.958987 77.446325 
L 190.511259 75.548231 
L 193.063532 66.030823 
L 195.615805 66.030823 
L 198.168077 66.030823 
L 200.72035 65.934539 
L 203.272623 60.366493 
L 205.824896 56.591629 
L 208.377168 49.266988 
L 210.929441 45.877024 
L 213.481714 41.327258 
L 216.033987 35.143065 
L 218.586259 35.100587 
L 221.138532 12.896549 
L 223.690805 12.896549 
L 226.243077 12.896549 
L 228.79535 12.896549 
L 231.347623 12.896549 
L 233.899896 12.896549 
L 236.452168 12.896549 
L 239.004441 12.896549 
L 241.556714 12.896549 
L 244.108987 12.896549 
L 246.661259 12.896549 
L 249.213532 12.896549 
L 251.765805 12.896549 
L 254.318077 12.896549 
L 256.87035 12.896549 
L 259.422623 12.896549 
L 261.974896 12.896549 
L 264.527168 12.896549 
L 267.079441 12.896549 
L 269.631714 12.896549 
L 272.183987 12.896549 
L 274.736259 12.896549 
L 277.288532 12.896549 
L 279.840805 12.896549 
L 282.393077 12.896549 
L 284.94535 12.896549 
L 287.497623 12.896549 
L 290.049896 12.896549 
L 292.602168 12.896549 
L 295.154441 12.896549 
L 297.706714 12.896549 
L 300.258987 12.896549 
L 302.811259 12.896549 
L 305.363532 12.896549 
L 307.915805 12.896549 
L 310.468077 12.896549 
L 313.02035 12.896549 
L 315.572623 12.896549 
L 318.124896 12.896549 
" style="fill:none;stroke:#f77189;stroke-linecap:round;stroke-width:1.5;"/>
   </g>
   <g id="line2d_2">
    <path clip-path="url(#p649f1ab9af)" d="M 65.449896 197.543802 
L 68.002168 197.075634 
L 70.554441 185.249092 
L 73.106714 180.117625 
L 75.658987 178.600881 
L 78.211259 177.283482 
L 80.763532 168.940114 
L 83.315805 166.017084 
L 85.868077 165.881225 
L 88.42035 162.863295 
L 90.972623 160.624814 
L 93.524896 159.368509 
L 96.077168 158.700977 
L 98.629441 154.646416 
L 101.181714 154.315156 
L 103.733987 153.818513 
L 106.286259 153.557145 
L 108.838532 153.374134 
L 111.390805 152.362397 
L 113.943077 151.76001 
L 116.49535 149.339154 
L 119.047623 146.475066 
L 121.599896 145.850622 
L 124.152168 144.735221 
L 126.704441 143.591913 
L 129.256714 139.385607 
L 131.808987 131.645539 
L 134.361259 131.319014 
L 136.913532 129.322817 
L 139.465805 128.721915 
L 142.018077 126.688235 
L 144.57035 126.585964 
L 147.122623 126.009997 
L 149.674896 125.434852 
L 152.227168 125.425404 
L 154.779441 125.344295 
L 157.331714 124.581807 
L 159.883987 124.129789 
L 162.436259 123.98899 
L 164.988532 120.289905 
L 167.540805 118.184385 
L 170.093077 116.732079 
L 172.64535 115.548641 
L 175.197623 115.380904 
L 177.749896 114.00751 
L 180.302168 111.265311 
L 182.854441 110.793596 
L 185.406714 107.708018 
L 187.958987 96.706624 
L 190.511259 92.810486 
L 193.063532 91.167954 
L 195.615805 89.997243 
L 198.168077 85.476311 
L 200.72035 81.286288 
L 203.272623 66.12036 
L 205.824896 65.639973 
L 208.377168 65.4311 
L 210.929441 65.4311 
L 213.481714 65.4311 
L 216.033987 54.129022 
L 218.586259 46.551794 
L 221.138532 12.896549 
L 223.690805 12.896549 
L 226.243077 12.896549 
L 228.79535 12.896549 
L 231.347623 12.896549 
L 233.899896 12.896549 
L 236.452168 12.896549 
L 239.004441 12.896549 
L 241.556714 12.896549 
L 244.108987 12.896549 
L 246.661259 12.896549 
L 249.213532 12.896549 
L 251.765805 12.896549 
L 254.318077 12.896549 
L 256.87035 12.896549 
L 259.422623 12.896549 
L 261.974896 12.896549 
L 264.527168 12.896549 
L 267.079441 12.896549 
L 269.631714 12.896549 
L 272.183987 12.896549 
L 274.736259 12.896549 
L 277.288532 12.896549 
L 279.840805 12.896549 
L 282.393077 12.896549 
L 284.94535 12.896549 
L 287.497623 12.896549 
L 290.049896 12.896549 
L 292.602168 12.896549 
L 295.154441 12.896549 
L 297.706714 12.896549 
L 300.258987 12.896549 
L 302.811259 12.896549 
L 305.363532 12.896549 
L 307.915805 12.896549 
L 310.468077 12.896549 
L 313.02035 12.896549 
L 315.572623 12.896549 
L 318.124896 12.896549 
" style="fill:none;stroke:#dc8932;stroke-linecap:round;stroke-width:1.5;"/>
   </g>
   <g id="line2d_3">
    <path clip-path="url(#p649f1ab9af)" d="M 65.449896 223.262285 
L 68.002168 223.262285 
L 70.554441 223.262285 
L 73.106714 223.262285 
L 75.658987 217.949029 
L 78.211259 205.943108 
L 80.763532 201.221728 
L 83.315805 200.680721 
L 85.868077 200.50653 
L 88.42035 199.477726 
L 90.972623 196.493275 
L 93.524896 192.772686 
L 96.077168 189.019229 
L 98.629441 185.000004 
L 101.181714 182.294251 
L 103.733987 177.821493 
L 106.286259 177.811933 
L 108.838532 177.628043 
L 111.390805 175.908317 
L 113.943077 168.204699 
L 116.49535 163.965771 
L 119.047623 159.382944 
L 121.599896 158.656965 
L 124.152168 153.707635 
L 126.704441 152.3305 
L 129.256714 151.956897 
L 131.808987 151.28034 
L 134.361259 149.234637 
L 136.913532 149.084773 
L 139.465805 149.084773 
L 142.018077 149.084773 
L 144.57035 144.730003 
L 147.122623 138.645542 
L 149.674896 138.415683 
L 152.227168 132.698432 
L 154.779441 131.997081 
L 157.331714 131.327857 
L 159.883987 131.327857 
L 162.436259 131.327857 
L 164.988532 131.327857 
L 167.540805 131.327857 
L 170.093077 131.327857 
L 172.64535 130.836123 
L 175.197623 129.824857 
L 177.749896 129.191041 
L 180.302168 123.441262 
L 182.854441 118.023094 
L 185.406714 116.598075 
L 187.958987 105.324035 
L 190.511259 102.92675 
L 193.063532 102.921358 
L 195.615805 102.921358 
L 198.168077 102.921358 
L 200.72035 102.921358 
L 203.272623 102.921358 
L 205.824896 102.921358 
L 208.377168 102.921358 
L 210.929441 95.132736 
L 213.481714 95.121985 
L 216.033987 74.614054 
L 218.586259 41.958828 
L 221.138532 12.896549 
L 223.690805 12.896549 
L 226.243077 12.896549 
L 228.79535 12.896549 
L 231.347623 12.896549 
L 233.899896 12.896549 
L 236.452168 12.896549 
L 239.004441 12.896549 
L 241.556714 12.896549 
L 244.108987 12.896549 
L 246.661259 12.896549 
L 249.213532 12.896549 
L 251.765805 12.896549 
L 254.318077 12.896549 
L 256.87035 12.896549 
L 259.422623 12.896549 
L 261.974896 12.896549 
L 264.527168 12.896549 
L 267.079441 12.896549 
L 269.631714 12.896549 
L 272.183987 12.896549 
L 274.736259 12.896549 
L 277.288532 12.896549 
L 279.840805 12.896549 
L 282.393077 12.896549 
L 284.94535 12.896549 
L 287.497623 12.896549 
L 290.049896 12.896549 
L 292.602168 12.896549 
L 295.154441 12.896549 
L 297.706714 12.896549 
L 300.258987 12.896549 
L 302.811259 12.896549 
L 305.363532 12.896549 
L 307.915805 12.896549 
L 310.468077 12.896549 
L 313.02035 12.896549 
L 315.572623 12.896549 
L 318.124896 12.896549 
" style="fill:none;stroke:#ae9d31;stroke-linecap:round;stroke-width:1.5;"/>
   </g>
   <g id="line2d_4">
    <path clip-path="url(#p649f1ab9af)" d="M 65.449896 220.729476 
L 68.002168 204.935317 
L 70.554441 204.736468 
L 73.106714 201.687868 
L 75.658987 200.392195 
L 78.211259 197.773364 
L 80.763532 193.914093 
L 83.315805 189.562566 
L 85.868077 182.269764 
L 88.42035 179.525579 
L 90.972623 176.807098 
L 93.524896 168.125662 
L 96.077168 165.541788 
L 98.629441 164.163227 
L 101.181714 161.071098 
L 103.733987 160.198047 
L 106.286259 154.268784 
L 108.838532 147.214875 
L 111.390805 143.832794 
L 113.943077 137.632515 
L 116.49535 134.107326 
L 119.047623 132.703468 
L 121.599896 130.961151 
L 124.152168 127.165926 
L 126.704441 123.976819 
L 129.256714 123.252954 
L 131.808987 123.028854 
L 134.361259 121.8414 
L 136.913532 121.70301 
L 139.465805 116.442262 
L 142.018077 115.342868 
L 144.57035 112.157916 
L 147.122623 102.712565 
L 149.674896 98.511331 
L 152.227168 98.497438 
L 154.779441 97.920572 
L 157.331714 93.354758 
L 159.883987 93.184594 
L 162.436259 93.009082 
L 164.988532 90.077928 
L 167.540805 90.051078 
L 170.093077 90.051078 
L 172.64535 85.089133 
L 175.197623 83.924882 
L 177.749896 83.920156 
L 180.302168 77.99155 
L 182.854441 77.936617 
L 185.406714 77.743874 
L 187.958987 77.743874 
L 190.511259 77.743874 
L 193.063532 65.720107 
L 195.615805 65.720107 
L 198.168077 61.167011 
L 200.72035 61.160142 
L 203.272623 50.580059 
L 205.824896 50.580059 
L 208.377168 50.580059 
L 210.929441 50.580059 
L 213.481714 50.548709 
L 216.033987 50.548709 
L 218.586259 50.548709 
L 221.138532 12.896549 
L 223.690805 12.896549 
L 226.243077 12.896549 
L 228.79535 12.896549 
L 231.347623 12.896549 
L 233.899896 12.896549 
L 236.452168 12.896549 
L 239.004441 12.896549 
L 241.556714 12.896549 
L 244.108987 12.896549 
L 246.661259 12.896549 
L 249.213532 12.896549 
L 251.765805 12.896549 
L 254.318077 12.896549 
L 256.87035 12.896549 
L 259.422623 12.896549 
L 261.974896 12.896549 
L 264.527168 12.896549 
L 267.079441 12.896549 
L 269.631714 12.896549 
L 272.183987 12.896549 
L 274.736259 12.896549 
L 277.288532 12.896549 
L 279.840805 12.896549 
L 282.393077 12.896549 
L 284.94535 12.896549 
L 287.497623 12.896549 
L 290.049896 12.896549 
L 292.602168 12.896549 
L 295.154441 12.896549 
L 297.706714 12.896549 
L 300.258987 12.896549 
L 302.811259 12.896549 
L 305.363532 12.896549 
L 307.915805 12.896549 
L 310.468077 12.896549 
L 313.02035 12.896549 
L 315.572623 12.896549 
L 318.124896 12.896549 
" style="fill:none;stroke:#77ab31;stroke-linecap:round;stroke-width:1.5;"/>
   </g>
   <g id="line2d_5">
    <path clip-path="url(#p649f1ab9af)" d="M 65.449896 187.355083 
L 68.002168 186.899528 
L 70.554441 181.773831 
L 73.106714 180.474182 
L 75.658987 174.43261 
L 78.211259 173.083846 
L 80.763532 171.738899 
L 83.315805 170.216684 
L 85.868077 168.083669 
L 88.42035 167.338168 
L 90.972623 165.409651 
L 93.524896 163.528061 
L 96.077168 163.161986 
L 98.629441 161.465239 
L 101.181714 154.238864 
L 103.733987 154.03874 
L 106.286259 148.686214 
L 108.838532 145.685943 
L 111.390805 144.013433 
L 113.943077 143.148216 
L 116.49535 141.216001 
L 119.047623 140.894474 
L 121.599896 138.823758 
L 124.152168 137.316455 
L 126.704441 136.857993 
L 129.256714 133.68095 
L 131.808987 131.238852 
L 134.361259 130.848497 
L 136.913532 130.773534 
L 139.465805 129.543111 
L 142.018077 129.419476 
L 144.57035 129.197916 
L 147.122623 128.826631 
L 149.674896 127.821012 
L 152.227168 127.266878 
L 154.779441 126.663902 
L 157.331714 126.10414 
L 159.883987 123.092779 
L 162.436259 122.483743 
L 164.988532 121.975502 
L 167.540805 114.426014 
L 170.093077 114.275852 
L 172.64535 110.529669 
L 175.197623 109.039552 
L 177.749896 107.849507 
L 180.302168 107.694673 
L 182.854441 107.694673 
L 185.406714 107.694673 
L 187.958987 105.362372 
L 190.511259 104.875594 
L 193.063532 99.458185 
L 195.615805 94.382628 
L 198.168077 93.069209 
L 200.72035 90.209545 
L 203.272623 89.554163 
L 205.824896 84.857905 
L 208.377168 77.489666 
L 210.929441 67.503568 
L 213.481714 61.002975 
L 216.033987 52.090607 
L 218.586259 52.08899 
L 221.138532 12.896549 
L 223.690805 12.896549 
L 226.243077 12.896549 
L 228.79535 12.896549 
L 231.347623 12.896549 
L 233.899896 12.896549 
L 236.452168 12.896549 
L 239.004441 12.896549 
L 241.556714 12.896549 
L 244.108987 12.896549 
L 246.661259 12.896549 
L 249.213532 12.896549 
L 251.765805 12.896549 
L 254.318077 12.896549 
L 256.87035 12.896549 
L 259.422623 12.896549 
L 261.974896 12.896549 
L 264.527168 12.896549 
L 267.079441 12.896549 
L 269.631714 12.896549 
L 272.183987 12.896549 
L 274.736259 12.896549 
L 277.288532 12.896549 
L 279.840805 12.896549 
L 282.393077 12.896549 
L 284.94535 12.896549 
L 287.497623 12.896549 
L 290.049896 12.896549 
L 292.602168 12.896549 
L 295.154441 12.896549 
L 297.706714 12.896549 
L 300.258987 12.896549 
L 302.811259 12.896549 
L 305.363532 12.896549 
L 307.915805 12.896549 
L 310.468077 12.896549 
L 313.02035 12.896549 
L 315.572623 12.896549 
L 318.124896 12.896549 
" style="fill:none;stroke:#33b07a;stroke-linecap:round;stroke-width:1.5;"/>
   </g>
   <g id="line2d_6">
    <path clip-path="url(#p649f1ab9af)" d="M 65.449896 218.474992 
L 68.002168 207.702996 
L 70.554441 206.692606 
L 73.106714 198.380288 
L 75.658987 183.179001 
L 78.211259 177.736793 
L 80.763532 171.557022 
L 83.315805 171.019303 
L 85.868077 170.608394 
L 88.42035 170.214867 
L 90.972623 163.930017 
L 93.524896 163.672958 
L 96.077168 160.353389 
L 98.629441 159.147199 
L 101.181714 155.671506 
L 103.733987 154.805219 
L 106.286259 151.346124 
L 108.838532 149.152962 
L 111.390805 144.56342 
L 113.943077 140.998643 
L 116.49535 137.686365 
L 119.047623 134.412062 
L 121.599896 132.024232 
L 124.152168 130.676117 
L 126.704441 129.243133 
L 129.256714 128.938751 
L 131.808987 126.625991 
L 134.361259 120.826035 
L 136.913532 119.819953 
L 139.465805 119.699507 
L 142.018077 117.56238 
L 144.57035 115.59246 
L 147.122623 112.506353 
L 149.674896 112.506353 
L 152.227168 112.506353 
L 154.779441 112.467107 
L 157.331714 109.942342 
L 159.883987 102.744823 
L 162.436259 102.744823 
L 164.988532 98.485476 
L 167.540805 98.485476 
L 170.093077 95.318915 
L 172.64535 93.009082 
L 175.197623 92.982598 
L 177.749896 92.982598 
L 180.302168 92.982598 
L 182.854441 90.609998 
L 185.406714 90.075213 
L 187.958987 87.57161 
L 190.511259 83.924882 
L 193.063532 83.924882 
L 195.615805 83.160666 
L 198.168077 65.745775 
L 200.72035 65.720107 
L 203.272623 65.720107 
L 205.824896 50.580059 
L 208.377168 50.55082 
L 210.929441 50.548709 
L 213.481714 50.548709 
L 216.033987 35.437748 
L 218.586259 35.437748 
L 221.138532 12.896549 
L 223.690805 12.896549 
L 226.243077 12.896549 
L 228.79535 12.896549 
L 231.347623 12.896549 
L 233.899896 12.896549 
L 236.452168 12.896549 
L 239.004441 12.896549 
L 241.556714 12.896549 
L 244.108987 12.896549 
L 246.661259 12.896549 
L 249.213532 12.896549 
L 251.765805 12.896549 
L 254.318077 12.896549 
L 256.87035 12.896549 
L 259.422623 12.896549 
L 261.974896 12.896549 
L 264.527168 12.896549 
L 267.079441 12.896549 
L 269.631714 12.896549 
L 272.183987 12.896549 
L 274.736259 12.896549 
L 277.288532 12.896549 
L 279.840805 12.896549 
L 282.393077 12.896549 
L 284.94535 12.896549 
L 287.497623 12.896549 
L 290.049896 12.896549 
L 292.602168 12.896549 
L 295.154441 12.896549 
L 297.706714 12.896549 
L 300.258987 12.896549 
L 302.811259 12.896549 
L 305.363532 12.896549 
L 307.915805 12.896549 
L 310.468077 12.896549 
L 313.02035 12.896549 
L 315.572623 12.896549 
L 318.124896 12.896549 
" style="fill:none;stroke:#36ada4;stroke-linecap:round;stroke-width:1.5;"/>
   </g>
   <g id="line2d_7">
    <path clip-path="url(#p649f1ab9af)" d="M 65.449896 223.262285 
L 68.002168 203.731248 
L 70.554441 194.369355 
L 73.106714 193.857635 
L 75.658987 186.155656 
L 78.211259 180.487632 
L 80.763532 178.055357 
L 83.315805 171.34626 
L 85.868077 168.558873 
L 88.42035 165.111005 
L 90.972623 164.245668 
L 93.524896 163.977647 
L 96.077168 162.612081 
L 98.629441 162.253741 
L 101.181714 162.185767 
L 103.733987 160.427501 
L 106.286259 156.864022 
L 108.838532 154.214822 
L 111.390805 153.842253 
L 113.943077 153.128532 
L 116.49535 150.85701 
L 119.047623 150.624488 
L 121.599896 150.505304 
L 124.152168 149.610903 
L 126.704441 147.712416 
L 129.256714 146.907942 
L 131.808987 144.47477 
L 134.361259 142.846047 
L 136.913532 135.774275 
L 139.465805 132.60858 
L 142.018077 130.016277 
L 144.57035 129.448981 
L 147.122623 129.052313 
L 149.674896 125.2115 
L 152.227168 125.141011 
L 154.779441 121.320764 
L 157.331714 115.653986 
L 159.883987 114.935839 
L 162.436259 113.998099 
L 164.988532 113.993732 
L 167.540805 112.199946 
L 170.093077 109.896788 
L 172.64535 103.062941 
L 175.197623 103.049159 
L 177.749896 101.69231 
L 180.302168 99.784808 
L 182.854441 99.784808 
L 185.406714 92.857323 
L 187.958987 92.854912 
L 190.511259 92.854912 
L 193.063532 92.854912 
L 195.615805 92.854912 
L 198.168077 92.854912 
L 200.72035 92.616917 
L 203.272623 72.031548 
L 205.824896 54.90486 
L 208.377168 54.90486 
L 210.929441 54.90486 
L 213.481714 54.87816 
L 216.033987 54.87816 
L 218.586259 54.87816 
L 221.138532 12.896549 
L 223.690805 12.896549 
L 226.243077 12.896549 
L 228.79535 12.896549 
L 231.347623 12.896549 
L 233.899896 12.896549 
L 236.452168 12.896549 
L 239.004441 12.896549 
L 241.556714 12.896549 
L 244.108987 12.896549 
L 246.661259 12.896549 
L 249.213532 12.896549 
L 251.765805 12.896549 
L 254.318077 12.896549 
L 256.87035 12.896549 
L 259.422623 12.896549 
L 261.974896 12.896549 
L 264.527168 12.896549 
L 267.079441 12.896549 
L 269.631714 12.896549 
L 272.183987 12.896549 
L 274.736259 12.896549 
L 277.288532 12.896549 
L 279.840805 12.896549 
L 282.393077 12.896549 
L 284.94535 12.896549 
L 287.497623 12.896549 
L 290.049896 12.896549 
L 292.602168 12.896549 
L 295.154441 12.896549 
L 297.706714 12.896549 
L 300.258987 12.896549 
L 302.811259 12.896549 
L 305.363532 12.896549 
L 307.915805 12.896549 
L 310.468077 12.896549 
L 313.02035 12.896549 
L 315.572623 12.896549 
L 318.124896 12.896549 
" style="fill:none;stroke:#38a9c5;stroke-linecap:round;stroke-width:1.5;"/>
   </g>
   <g id="line2d_8">
    <path clip-path="url(#p649f1ab9af)" d="M 65.449896 203.294079 
L 68.002168 179.412223 
L 70.554441 178.158882 
L 73.106714 176.289777 
L 75.658987 173.196122 
L 78.211259 172.494764 
L 80.763532 166.829339 
L 83.315805 166.224019 
L 85.868077 165.509264 
L 88.42035 164.806706 
L 90.972623 163.440556 
L 93.524896 162.634714 
L 96.077168 156.424405 
L 98.629441 153.014364 
L 101.181714 151.579869 
L 103.733987 151.153263 
L 106.286259 145.803845 
L 108.838532 145.550772 
L 111.390805 144.075409 
L 113.943077 139.993571 
L 116.49535 139.284676 
L 119.047623 137.976249 
L 121.599896 136.706758 
L 124.152168 133.839704 
L 126.704441 131.235109 
L 129.256714 129.324879 
L 131.808987 128.761077 
L 134.361259 127.278837 
L 136.913532 126.902298 
L 139.465805 125.413656 
L 142.018077 125.120793 
L 144.57035 122.870285 
L 147.122623 119.78261 
L 149.674896 115.07847 
L 152.227168 113.882567 
L 154.779441 112.393683 
L 157.331714 111.552778 
L 159.883987 110.454877 
L 162.436259 106.068845 
L 164.988532 104.500152 
L 167.540805 103.648148 
L 170.093077 98.728266 
L 172.64535 98.575138 
L 175.197623 98.575138 
L 177.749896 98.575138 
L 180.302168 97.278169 
L 182.854441 95.983315 
L 185.406714 94.785875 
L 187.958987 91.178706 
L 190.511259 90.224229 
L 193.063532 90.076773 
L 195.615805 82.455005 
L 198.168077 73.399545 
L 200.72035 73.391145 
L 203.272623 72.449539 
L 205.824896 69.7949 
L 208.377168 58.744593 
L 210.929441 58.688206 
L 213.481714 55.950889 
L 216.033987 51.104496 
L 218.586259 39.608081 
L 221.138532 12.896549 
L 223.690805 12.896549 
L 226.243077 12.896549 
L 228.79535 12.896549 
L 231.347623 12.896549 
L 233.899896 12.896549 
L 236.452168 12.896549 
L 239.004441 12.896549 
L 241.556714 12.896549 
L 244.108987 12.896549 
L 246.661259 12.896549 
L 249.213532 12.896549 
L 251.765805 12.896549 
L 254.318077 12.896549 
L 256.87035 12.896549 
L 259.422623 12.896549 
L 261.974896 12.896549 
L 264.527168 12.896549 
L 267.079441 12.896549 
L 269.631714 12.896549 
L 272.183987 12.896549 
L 274.736259 12.896549 
L 277.288532 12.896549 
L 279.840805 12.896549 
L 282.393077 12.896549 
L 284.94535 12.896549 
L 287.497623 12.896549 
L 290.049896 12.896549 
L 292.602168 12.896549 
L 295.154441 12.896549 
L 297.706714 12.896549 
L 300.258987 12.896549 
L 302.811259 12.896549 
L 305.363532 12.896549 
L 307.915805 12.896549 
L 310.468077 12.896549 
L 313.02035 12.896549 
L 315.572623 12.896549 
L 318.124896 12.896549 
" style="fill:none;stroke:#6e9bf4;stroke-linecap:round;stroke-width:1.5;"/>
   </g>
   <g id="line2d_9">
    <path clip-path="url(#p649f1ab9af)" d="M 65.449896 223.262285 
L 68.002168 223.262285 
L 70.554441 215.338955 
L 73.106714 214.315714 
L 75.658987 207.687374 
L 78.211259 205.385596 
L 80.763532 204.493196 
L 83.315805 204.249079 
L 85.868077 202.339951 
L 88.42035 198.053698 
L 90.972623 195.741399 
L 93.524896 192.518301 
L 96.077168 191.81634 
L 98.629441 189.986203 
L 101.181714 188.590128 
L 103.733987 181.416796 
L 106.286259 179.050573 
L 108.838532 178.207476 
L 111.390805 175.785347 
L 113.943077 175.591678 
L 116.49535 175.160117 
L 119.047623 174.991936 
L 121.599896 174.991936 
L 124.152168 174.991936 
L 126.704441 174.320996 
L 129.256714 172.3814 
L 131.808987 171.448763 
L 134.361259 170.092296 
L 136.913532 168.988227 
L 139.465805 165.758622 
L 142.018077 158.22063 
L 144.57035 153.813343 
L 147.122623 152.241122 
L 149.674896 146.12594 
L 152.227168 143.636015 
L 154.779441 142.137344 
L 157.331714 140.520894 
L 159.883987 139.57831 
L 162.436259 134.048769 
L 164.988532 131.327205 
L 167.540805 129.231383 
L 170.093077 120.149661 
L 172.64535 108.390883 
L 175.197623 102.92675 
L 177.749896 102.92675 
L 180.302168 102.92675 
L 182.854441 102.92675 
L 185.406714 95.132736 
L 187.958987 95.132736 
L 190.511259 95.132736 
L 193.063532 95.121985 
L 195.615805 90.59011 
L 198.168077 87.300176 
L 200.72035 87.300176 
L 203.272623 41.985689 
L 205.824896 41.985689 
L 208.377168 41.985689 
L 210.929441 41.985689 
L 213.481714 41.958828 
L 216.033987 41.958828 
L 218.586259 41.610175 
L 221.138532 12.896549 
L 223.690805 12.896549 
L 226.243077 12.896549 
L 228.79535 12.896549 
L 231.347623 12.896549 
L 233.899896 12.896549 
L 236.452168 12.896549 
L 239.004441 12.896549 
L 241.556714 12.896549 
L 244.108987 12.896549 
L 246.661259 12.896549 
L 249.213532 12.896549 
L 251.765805 12.896549 
L 254.318077 12.896549 
L 256.87035 12.896549 
L 259.422623 12.896549 
L 261.974896 12.896549 
L 264.527168 12.896549 
L 267.079441 12.896549 
L 269.631714 12.896549 
L 272.183987 12.896549 
L 274.736259 12.896549 
L 277.288532 12.896549 
L 279.840805 12.896549 
L 282.393077 12.896549 
L 284.94535 12.896549 
L 287.497623 12.896549 
L 290.049896 12.896549 
L 292.602168 12.896549 
L 295.154441 12.896549 
L 297.706714 12.896549 
L 300.258987 12.896549 
L 302.811259 12.896549 
L 305.363532 12.896549 
L 307.915805 12.896549 
L 310.468077 12.896549 
L 313.02035 12.896549 
L 315.572623 12.896549 
L 318.124896 12.896549 
" style="fill:none;stroke:#cc7af4;stroke-linecap:round;stroke-width:1.5;"/>
   </g>
   <g id="line2d_10">
    <path clip-path="url(#p649f1ab9af)" d="M 65.449896 223.262285 
L 68.002168 223.262285 
L 70.554441 220.919983 
L 73.106714 215.859291 
L 75.658987 213.902922 
L 78.211259 210.756746 
L 80.763532 205.914764 
L 83.315805 204.440794 
L 85.868077 200.668294 
L 88.42035 198.549163 
L 90.972623 197.936347 
L 93.524896 195.127397 
L 96.077168 184.017778 
L 98.629441 181.611563 
L 101.181714 181.195198 
L 103.733987 173.760578 
L 106.286259 169.772066 
L 108.838532 168.262275 
L 111.390805 168.054055 
L 113.943077 164.365219 
L 116.49535 161.74961 
L 119.047623 160.850182 
L 121.599896 158.82846 
L 124.152168 156.74118 
L 126.704441 152.425674 
L 129.256714 146.845167 
L 131.808987 146.302093 
L 134.361259 145.671662 
L 136.913532 142.771477 
L 139.465805 142.771477 
L 142.018077 142.771477 
L 144.57035 142.771477 
L 147.122623 142.763222 
L 149.674896 139.898155 
L 152.227168 136.701722 
L 154.779441 136.425908 
L 157.331714 133.368286 
L 159.883987 131.327857 
L 162.436259 130.769417 
L 164.988532 123.441262 
L 167.540805 123.441262 
L 170.093077 118.023094 
L 172.64535 112.709435 
L 175.197623 102.921358 
L 177.749896 102.921358 
L 180.302168 102.921358 
L 182.854441 102.921358 
L 185.406714 102.921358 
L 187.958987 102.921358 
L 190.511259 102.921358 
L 193.063532 102.921358 
L 195.615805 102.921358 
L 198.168077 102.921358 
L 200.72035 102.921358 
L 203.272623 102.921358 
L 205.824896 102.921358 
L 208.377168 102.921358 
L 210.929441 102.921358 
L 213.481714 102.921358 
L 216.033987 87.300176 
L 218.586259 41.985689 
L 221.138532 12.896549 
L 223.690805 12.896549 
L 226.243077 12.896549 
L 228.79535 12.896549 
L 231.347623 12.896549 
L 233.899896 12.896549 
L 236.452168 12.896549 
L 239.004441 12.896549 
L 241.556714 12.896549 
L 244.108987 12.896549 
L 246.661259 12.896549 
L 249.213532 12.896549 
L 251.765805 12.896549 
L 254.318077 12.896549 
L 256.87035 12.896549 
L 259.422623 12.896549 
L 261.974896 12.896549 
L 264.527168 12.896549 
L 267.079441 12.896549 
L 269.631714 12.896549 
L 272.183987 12.896549 
L 274.736259 12.896549 
L 277.288532 12.896549 
L 279.840805 12.896549 
L 282.393077 12.896549 
L 284.94535 12.896549 
L 287.497623 12.896549 
L 290.049896 12.896549 
L 292.602168 12.896549 
L 295.154441 12.896549 
L 297.706714 12.896549 
L 300.258987 12.896549 
L 302.811259 12.896549 
L 305.363532 12.896549 
L 307.915805 12.896549 
L 310.468077 12.896549 
L 313.02035 12.896549 
L 315.572623 12.896549 
L 318.124896 12.896549 
" style="fill:none;stroke:#f565cc;stroke-linecap:round;stroke-width:1.5;"/>
   </g>
   <g id="line2d_11">
    <path clip-path="url(#p649f1ab9af)" d="M 65.449896 175.653299 
L 68.002168 173.255198 
L 70.554441 172.628065 
L 73.106714 169.422089 
L 75.658987 164.844802 
L 78.211259 160.966385 
L 80.763532 160.391056 
L 83.315805 158.169505 
L 85.868077 157.469149 
L 88.42035 154.535861 
L 90.972623 154.010894 
L 93.524896 152.10918 
L 96.077168 151.77951 
L 98.629441 151.140054 
L 101.181714 150.817256 
L 103.733987 150.386357 
L 106.286259 149.025499 
L 108.838532 147.927455 
L 111.390805 142.076489 
L 113.943077 138.703612 
L 116.49535 138.076447 
L 119.047623 137.978098 
L 121.599896 137.184415 
L 124.152168 136.157567 
L 126.704441 136.10797 
L 129.256714 135.627493 
L 131.808987 135.522086 
L 134.361259 133.957645 
L 136.913532 130.13348 
L 139.465805 129.526908 
L 142.018077 129.327191 
L 144.57035 126.03704 
L 147.122623 123.046881 
L 149.674896 122.820234 
L 152.227168 120.619277 
L 154.779441 118.423913 
L 157.331714 118.199694 
L 159.883987 117.501216 
L 162.436259 116.30438 
L 164.988532 114.748503 
L 167.540805 114.672247 
L 170.093077 113.667348 
L 172.64535 112.660766 
L 175.197623 112.46723 
L 177.749896 111.090831 
L 180.302168 110.211932 
L 182.854441 109.933288 
L 185.406714 108.857131 
L 187.958987 108.810618 
L 190.511259 108.768506 
L 193.063532 108.768506 
L 195.615805 108.768506 
L 198.168077 105.521558 
L 200.72035 101.459351 
L 203.272623 100.596349 
L 205.824896 100.128759 
L 208.377168 98.789488 
L 210.929441 97.832343 
L 213.481714 95.835389 
L 216.033987 92.822122 
L 218.586259 89.507156 
L 221.138532 12.896549 
L 223.690805 12.896549 
L 226.243077 12.896549 
L 228.79535 12.896549 
L 231.347623 12.896549 
L 233.899896 12.896549 
L 236.452168 12.896549 
L 239.004441 12.896549 
L 241.556714 12.896549 
L 244.108987 12.896549 
L 246.661259 12.896549 
L 249.213532 12.896549 
L 251.765805 12.896549 
L 254.318077 12.896549 
L 256.87035 12.896549 
L 259.422623 12.896549 
L 261.974896 12.896549 
L 264.527168 12.896549 
L 267.079441 12.896549 
L 269.631714 12.896549 
L 272.183987 12.896549 
L 274.736259 12.896549 
L 277.288532 12.896549 
L 279.840805 12.896549 
L 282.393077 12.896549 
L 284.94535 12.896549 
L 287.497623 12.896549 
L 290.049896 12.896549 
L 292.602168 12.896549 
L 295.154441 12.896549 
L 297.706714 12.896549 
L 300.258987 12.896549 
L 302.811259 12.896549 
L 305.363532 12.896549 
L 307.915805 12.896549 
L 310.468077 12.896549 
L 313.02035 12.896549 
L 315.572623 12.896549 
L 318.124896 12.896549 
" style="fill:none;stroke:#000000;stroke-linecap:round;stroke-width:6;"/>
   </g>
   <g id="patch_3">
    <path d="M 65.449896 265.571549 
L 65.449896 12.896549 
" style="fill:none;stroke:#262626;stroke-linecap:square;stroke-linejoin:miter;stroke-width:1.25;"/>
   </g>
   <g id="patch_4">
    <path d="M 65.449896 265.571549 
L 318.124896 265.571549 
" style="fill:none;stroke:#262626;stroke-linecap:square;stroke-linejoin:miter;stroke-width:1.25;"/>
   </g>
   <g id="legend_1">
    <g id="patch_5">
     <path d="M 208.411927 260.071549 
L 310.424896 260.071549 
Q 312.624896 260.071549 312.624896 257.871549 
L 312.624896 81.366236 
Q 312.624896 79.166236 310.424896 79.166236 
L 208.411927 79.166236 
Q 206.211927 79.166236 206.211927 81.366236 
L 206.211927 257.871549 
Q 206.211927 260.071549 208.411927 260.071549 
z
" style="fill:#ffffff;opacity:0.8;stroke:#cccccc;stroke-linejoin:miter;"/>
    </g>
    <g id="line2d_12">
     <path d="M 210.611927 88.074517 
L 232.611927 88.074517 
" style="fill:none;stroke:#f77189;stroke-linecap:round;stroke-width:1.5;"/>
    </g>
    <g id="line2d_13"/>
    <g id="text_15">
     <text style="fill:#262626;font-family:DejaVu Sans;font-size:11px;font-stretch:normal;font-style:normal;font-weight:normal;text-anchor:start;" transform="rotate(-0, 241.411927, 91.924517)" x="241.411927" y="91.924517">Cell Type  1</text>
    </g>
    <g id="line2d_14">
     <path d="M 210.611927 104.220455 
L 232.611927 104.220455 
" style="fill:none;stroke:#dc8932;stroke-linecap:round;stroke-width:1.5;"/>
    </g>
    <g id="line2d_15"/>
    <g id="text_16">
     <text style="fill:#262626;font-family:DejaVu Sans;font-size:11px;font-stretch:normal;font-style:normal;font-weight:normal;text-anchor:start;" transform="rotate(-0, 241.411927, 108.070455)" x="241.411927" y="108.070455">Cell Type  2</text>
    </g>
    <g id="line2d_16">
     <path d="M 210.611927 120.366392 
L 232.611927 120.366392 
" style="fill:none;stroke:#ae9d31;stroke-linecap:round;stroke-width:1.5;"/>
    </g>
    <g id="line2d_17"/>
    <g id="text_17">
     <text style="fill:#262626;font-family:DejaVu Sans;font-size:11px;font-stretch:normal;font-style:normal;font-weight:normal;text-anchor:start;" transform="rotate(-0, 241.411927, 124.216392)" x="241.411927" y="124.216392">Cell Type  3</text>
    </g>
    <g id="line2d_18">
     <path d="M 210.611927 136.51233 
L 232.611927 136.51233 
" style="fill:none;stroke:#77ab31;stroke-linecap:round;stroke-width:1.5;"/>
    </g>
    <g id="line2d_19"/>
    <g id="text_18">
     <text style="fill:#262626;font-family:DejaVu Sans;font-size:11px;font-stretch:normal;font-style:normal;font-weight:normal;text-anchor:start;" transform="rotate(-0, 241.411927, 140.36233)" x="241.411927" y="140.36233">Cell Type  4</text>
    </g>
    <g id="line2d_20">
     <path d="M 210.611927 152.658267 
L 232.611927 152.658267 
" style="fill:none;stroke:#33b07a;stroke-linecap:round;stroke-width:1.5;"/>
    </g>
    <g id="line2d_21"/>
    <g id="text_19">
     <text style="fill:#262626;font-family:DejaVu Sans;font-size:11px;font-stretch:normal;font-style:normal;font-weight:normal;text-anchor:start;" transform="rotate(-0, 241.411927, 156.508267)" x="241.411927" y="156.508267">Cell Type  5</text>
    </g>
    <g id="line2d_22">
     <path d="M 210.611927 168.804205 
L 232.611927 168.804205 
" style="fill:none;stroke:#36ada4;stroke-linecap:round;stroke-width:1.5;"/>
    </g>
    <g id="line2d_23"/>
    <g id="text_20">
     <text style="fill:#262626;font-family:DejaVu Sans;font-size:11px;font-stretch:normal;font-style:normal;font-weight:normal;text-anchor:start;" transform="rotate(-0, 241.411927, 172.654205)" x="241.411927" y="172.654205">Cell Type  6</text>
    </g>
    <g id="line2d_24">
     <path d="M 210.611927 184.950142 
L 232.611927 184.950142 
" style="fill:none;stroke:#38a9c5;stroke-linecap:round;stroke-width:1.5;"/>
    </g>
    <g id="line2d_25"/>
    <g id="text_21">
     <text style="fill:#262626;font-family:DejaVu Sans;font-size:11px;font-stretch:normal;font-style:normal;font-weight:normal;text-anchor:start;" transform="rotate(-0, 241.411927, 188.800142)" x="241.411927" y="188.800142">Cell Type  7</text>
    </g>
    <g id="line2d_26">
     <path d="M 210.611927 201.09608 
L 232.611927 201.09608 
" style="fill:none;stroke:#6e9bf4;stroke-linecap:round;stroke-width:1.5;"/>
    </g>
    <g id="line2d_27"/>
    <g id="text_22">
     <text style="fill:#262626;font-family:DejaVu Sans;font-size:11px;font-stretch:normal;font-style:normal;font-weight:normal;text-anchor:start;" transform="rotate(-0, 241.411927, 204.94608)" x="241.411927" y="204.94608">Cell Type  8</text>
    </g>
    <g id="line2d_28">
     <path d="M 210.611927 217.242017 
L 232.611927 217.242017 
" style="fill:none;stroke:#cc7af4;stroke-linecap:round;stroke-width:1.5;"/>
    </g>
    <g id="line2d_29"/>
    <g id="text_23">
     <text style="fill:#262626;font-family:DejaVu Sans;font-size:11px;font-stretch:normal;font-style:normal;font-weight:normal;text-anchor:start;" transform="rotate(-0, 241.411927, 221.092017)" x="241.411927" y="221.092017">Cell Type  9</text>
    </g>
    <g id="line2d_30">
     <path d="M 210.611927 233.387955 
L 232.611927 233.387955 
" style="fill:none;stroke:#f565cc;stroke-linecap:round;stroke-width:1.5;"/>
    </g>
    <g id="line2d_31"/>
    <g id="text_24">
     <text style="fill:#262626;font-family:DejaVu Sans;font-size:11px;font-stretch:normal;font-style:normal;font-weight:normal;text-anchor:start;" transform="rotate(-0, 241.411927, 237.237955)" x="241.411927" y="237.237955">Cell Type 10</text>
    </g>
    <g id="line2d_32">
     <path d="M 210.611927 249.533892 
L 232.611927 249.533892 
" style="fill:none;stroke:#000000;stroke-linecap:round;stroke-width:6;"/>
    </g>
    <g id="line2d_33"/>
    <g id="text_25">
     <text style="fill:#262626;font-family:DejaVu Sans;font-size:11px;font-stretch:normal;font-style:normal;font-weight:normal;text-anchor:start;" transform="rotate(-0, 241.411927, 253.383892)" x="241.411927" y="253.383892">Cumulative</text>
    </g>
   </g>
  </g>
 </g>
 <defs>
  <clipPath id="p649f1ab9af">
   <rect height="252.675" width="252.675" x="65.449896" y="12.896549"/>
  </clipPath>
 </defs>
</svg>
