<?xml version="1.0" encoding="utf-8" standalone="no"?>
<!DOCTYPE svg PUBLIC "-//W3C//DTD SVG 1.1//EN"
  "http://www.w3.org/Graphics/SVG/1.1/DTD/svg11.dtd">
<svg xmlns:xlink="http://www.w3.org/1999/xlink" width="337.247468pt" height="321.687679pt" viewBox="0 0 337.247468 321.687679" xmlns="http://www.w3.org/2000/svg" version="1.1">
 <metadata>
  <rdf:RDF xmlns:dc="http://purl.org/dc/elements/1.1/" xmlns:cc="http://creativecommons.org/ns#" xmlns:rdf="http://www.w3.org/1999/02/22-rdf-syntax-ns#">
   <cc:Work>
    <dc:type rdf:resource="http://purl.org/dc/dcmitype/StillImage"/>
    <dc:date>2023-09-02T13:57:50.126862</dc:date>
    <dc:format>image/svg+xml</dc:format>
    <dc:creator>
     <cc:Agent>
      <dc:title>Matplotlib v3.7.2, https://matplotlib.org/</dc:title>
     </cc:Agent>
    </dc:creator>
   </cc:Work>
  </rdf:RDF>
 </metadata>
 <defs>
  <style type="text/css">*{stroke-linejoin: round; stroke-linecap: butt}</style>
 </defs>
 <g id="figure_1">
  <g id="patch_1">
   <path d="M 0 321.687679 
L 337.247468 321.687679 
L 337.247468 0 
L 0 0 
z
" style="fill: #ffffff"/>
  </g>
  <g id="axes_1">
   <g id="patch_2">
    <path d="M 65.449896 265.571549 
L 318.124896 265.571549 
L 318.124896 12.896549 
L 65.449896 12.896549 
z
" style="fill: #ffffff"/>
   </g>
   <g id="matplotlib.axis_1">
    <g id="xtick_1">
     <g id="text_1">
      <text style="fill: #262626; font: 14.994px 'Arial', 'DejaVu Sans', 'Liberation Sans', 'Bitstream Vera Sans', sans-serif; text-anchor: middle" x="65.449896" y="286.464646" transform="rotate(-0 65.449896 286.464646)">0.0</text>
     </g>
    </g>
    <g id="xtick_2">
     <g id="text_2">
      <text style="fill: #262626; font: 14.994px 'Arial', 'DejaVu Sans', 'Liberation Sans', 'Bitstream Vera Sans', sans-serif; text-anchor: middle" x="115.984896" y="286.464646" transform="rotate(-0 115.984896 286.464646)">0.2</text>
     </g>
    </g>
    <g id="xtick_3">
     <g id="text_3">
      <text style="fill: #262626; font: 14.994px 'Arial', 'DejaVu Sans', 'Liberation Sans', 'Bitstream Vera Sans', sans-serif; text-anchor: middle" x="166.519896" y="286.464646" transform="rotate(-0 166.519896 286.464646)">0.4</text>
     </g>
    </g>
    <g id="xtick_4">
     <g id="text_4">
      <text style="fill: #262626; font: 14.994px 'Arial', 'DejaVu Sans', 'Liberation Sans', 'Bitstream Vera Sans', sans-serif; text-anchor: middle" x="217.054896" y="286.464646" transform="rotate(-0 217.054896 286.464646)">0.6</text>
     </g>
    </g>
    <g id="xtick_5">
     <g id="text_5">
      <text style="fill: #262626; font: 14.994px 'Arial', 'DejaVu Sans', 'Liberation Sans', 'Bitstream Vera Sans', sans-serif; text-anchor: middle" x="267.589896" y="286.464646" transform="rotate(-0 267.589896 286.464646)">0.8</text>
     </g>
    </g>
    <g id="xtick_6">
     <g id="text_6">
      <text style="fill: #262626; font: 14.994px 'Arial', 'DejaVu Sans', 'Liberation Sans', 'Bitstream Vera Sans', sans-serif; text-anchor: middle" x="318.124896" y="286.464646" transform="rotate(-0 318.124896 286.464646)">1.0</text>
     </g>
    </g>
    <g id="text_7">
     <text style="fill: #262626; font: 21.6px 'Arial', 'DejaVu Sans', 'Liberation Sans', 'Bitstream Vera Sans', sans-serif; text-anchor: middle" x="191.787396" y="309.995554" transform="rotate(-0 191.787396 309.995554)">Percentile</text>
    </g>
   </g>
   <g id="matplotlib.axis_2">
    <g id="ytick_1">
     <g id="text_8">
      <text style="fill: #262626; font: 14.994px 'Arial', 'DejaVu Sans', 'Liberation Sans', 'Bitstream Vera Sans', sans-serif; text-anchor: end" x="55.949896" y="271.268097" transform="rotate(-0 55.949896 271.268097)">0.0</text>
     </g>
    </g>
    <g id="ytick_2">
     <g id="text_9">
      <text style="fill: #262626; font: 14.994px 'Arial', 'DejaVu Sans', 'Liberation Sans', 'Bitstream Vera Sans', sans-serif; text-anchor: end" x="55.949896" y="220.733097" transform="rotate(-0 55.949896 220.733097)">0.2</text>
     </g>
    </g>
    <g id="ytick_3">
     <g id="text_10">
      <text style="fill: #262626; font: 14.994px 'Arial', 'DejaVu Sans', 'Liberation Sans', 'Bitstream Vera Sans', sans-serif; text-anchor: end" x="55.949896" y="170.198097" transform="rotate(-0 55.949896 170.198097)">0.4</text>
     </g>
    </g>
    <g id="ytick_4">
     <g id="text_11">
      <text style="fill: #262626; font: 14.994px 'Arial', 'DejaVu Sans', 'Liberation Sans', 'Bitstream Vera Sans', sans-serif; text-anchor: end" x="55.949896" y="119.663097" transform="rotate(-0 55.949896 119.663097)">0.6</text>
     </g>
    </g>
    <g id="ytick_5">
     <g id="text_12">
      <text style="fill: #262626; font: 14.994px 'Arial', 'DejaVu Sans', 'Liberation Sans', 'Bitstream Vera Sans', sans-serif; text-anchor: end" x="55.949896" y="69.128097" transform="rotate(-0 55.949896 69.128097)">0.8</text>
     </g>
    </g>
    <g id="ytick_6">
     <g id="text_13">
      <text style="fill: #262626; font: 14.994px 'Arial', 'DejaVu Sans', 'Liberation Sans', 'Bitstream Vera Sans', sans-serif; text-anchor: end" x="55.949896" y="18.593097" transform="rotate(-0 55.949896 18.593097)">1.0</text>
     </g>
    </g>
    <g id="text_14">
     <text style="fill: #262626; font: 21.6px 'Arial', 'DejaVu Sans', 'Liberation Sans', 'Bitstream Vera Sans', sans-serif; text-anchor: middle" x="23.612625" y="139.234049" transform="rotate(-90 23.612625 139.234049)">Modality 1 Similarity</text>
    </g>
   </g>
   <g id="line2d_1">
    <path d="M 65.449896 196.218263 
L 68.002168 188.050186 
L 70.554441 188.003832 
L 73.106714 185.520397 
L 75.658987 182.638578 
L 78.211259 180.738322 
L 80.763532 179.509588 
L 83.315805 177.330819 
L 85.868077 173.473927 
L 88.42035 169.069603 
L 90.972623 168.856445 
L 93.524896 168.282594 
L 96.077168 167.696975 
L 98.629441 166.977376 
L 101.181714 166.84608 
L 103.733987 166.008443 
L 106.286259 165.847836 
L 108.838532 165.805281 
L 111.390805 164.577102 
L 113.943077 164.354695 
L 116.49535 164.016419 
L 119.047623 163.625437 
L 121.599896 161.479455 
L 124.152168 160.930742 
L 126.704441 158.511725 
L 129.256714 158.359417 
L 131.808987 157.934704 
L 134.361259 157.260904 
L 136.913532 155.389401 
L 139.465805 152.438931 
L 142.018077 151.824904 
L 144.57035 151.481721 
L 147.122623 151.42303 
L 149.674896 150.976624 
L 152.227168 150.665196 
L 154.779441 149.143232 
L 157.331714 147.563643 
L 159.883987 147.555069 
L 162.436259 146.924848 
L 164.988532 145.862989 
L 167.540805 145.238215 
L 170.093077 145.04566 
L 172.64535 144.630186 
L 175.197623 144.08226 
L 177.749896 143.322986 
L 180.302168 143.161482 
L 182.854441 142.932384 
L 185.406714 142.305855 
L 187.958987 140.879873 
L 190.511259 140.541348 
L 193.063532 140.405053 
L 195.615805 140.017647 
L 198.168077 139.422602 
L 200.72035 137.842646 
L 203.272623 137.273175 
L 205.824896 137.164635 
L 208.377168 136.882842 
L 210.929441 136.877047 
L 213.481714 134.366449 
L 216.033987 133.93071 
L 218.586259 133.598242 
L 221.138532 133.063461 
L 223.690805 132.905916 
L 226.243077 131.166624 
L 228.79535 129.985377 
L 231.347623 128.783037 
L 233.899896 128.546839 
L 236.452168 127.566162 
L 239.004441 124.781688 
L 241.556714 124.073687 
L 244.108987 122.507584 
L 246.661259 121.126775 
L 249.213532 120.726387 
L 251.765805 120.560273 
L 254.318077 120.555698 
L 256.87035 119.672292 
L 259.422623 118.950267 
L 261.974896 118.758666 
L 264.527168 118.472934 
L 267.079441 117.397962 
L 269.631714 117.331373 
L 272.183987 116.17888 
L 274.736259 115.657702 
L 277.288532 115.548688 
L 279.840805 115.146426 
L 282.393077 114.834817 
L 284.94535 114.833835 
L 287.497623 113.51414 
L 290.049896 112.990252 
L 292.602168 111.2767 
L 295.154441 110.331874 
L 297.706714 109.295538 
L 300.258987 108.581252 
L 302.811259 108.534071 
L 305.363532 108.048208 
L 307.915805 107.765818 
L 310.468077 107.454542 
L 313.02035 107.449206 
L 315.572623 101.366407 
L 318.124896 95.962152 
" clip-path="url(#p1b3e6e4594)" style="fill: none; stroke: #f77189; stroke-width: 1.5; stroke-linecap: round"/>
   </g>
   <g id="line2d_2">
    <path d="M 65.449896 205.859176 
L 68.002168 201.301815 
L 70.554441 195.483049 
L 73.106714 194.130166 
L 75.658987 179.753637 
L 78.211259 178.001918 
L 80.763532 173.944147 
L 83.315805 173.869932 
L 85.868077 173.223884 
L 88.42035 170.501461 
L 90.972623 170.211628 
L 93.524896 169.555397 
L 96.077168 169.517589 
L 98.629441 167.954471 
L 101.181714 167.065718 
L 103.733987 166.482198 
L 106.286259 165.886772 
L 108.838532 165.307846 
L 111.390805 162.547355 
L 113.943077 161.291756 
L 116.49535 160.569965 
L 119.047623 159.934487 
L 121.599896 156.536831 
L 124.152168 155.544579 
L 126.704441 155.130608 
L 129.256714 154.581448 
L 131.808987 152.378224 
L 134.361259 151.866076 
L 136.913532 151.011093 
L 139.465805 150.461644 
L 142.018077 149.957446 
L 144.57035 148.871322 
L 147.122623 148.634946 
L 149.674896 148.563495 
L 152.227168 148.417154 
L 154.779441 148.237444 
L 157.331714 147.836514 
L 159.883987 146.210714 
L 162.436259 145.76588 
L 164.988532 145.657595 
L 167.540805 144.478124 
L 170.093077 142.472678 
L 172.64535 142.383804 
L 175.197623 141.994591 
L 177.749896 141.712444 
L 180.302168 141.314328 
L 182.854441 140.337738 
L 185.406714 140.209034 
L 187.958987 139.457021 
L 190.511259 139.387161 
L 193.063532 139.351754 
L 195.615805 138.763319 
L 198.168077 137.920631 
L 200.72035 137.798623 
L 203.272623 137.25177 
L 205.824896 136.774257 
L 208.377168 135.694345 
L 210.929441 134.852645 
L 213.481714 134.796675 
L 216.033987 134.498267 
L 218.586259 131.185556 
L 221.138532 130.972178 
L 223.690805 130.839133 
L 226.243077 130.167297 
L 228.79535 129.708973 
L 231.347623 128.408028 
L 233.899896 127.342064 
L 236.452168 124.73239 
L 239.004441 122.80831 
L 241.556714 122.457136 
L 244.108987 122.269455 
L 246.661259 121.586061 
L 249.213532 119.911057 
L 251.765805 119.787556 
L 254.318077 119.715932 
L 256.87035 119.69695 
L 259.422623 119.657393 
L 261.974896 119.408663 
L 264.527168 119.261045 
L 267.079441 119.10147 
L 269.631714 117.778924 
L 272.183987 117.357794 
L 274.736259 117.263544 
L 277.288532 113.469538 
L 279.840805 113.103004 
L 282.393077 112.23193 
L 284.94535 110.167242 
L 287.497623 110.008985 
L 290.049896 109.902417 
L 292.602168 109.203393 
L 295.154441 109.173967 
L 297.706714 106.878057 
L 300.258987 105.850327 
L 302.811259 104.445091 
L 305.363532 102.051137 
L 307.915805 100.551087 
L 310.468077 96.0676 
L 313.02035 95.515029 
L 315.572623 89.476674 
L 318.124896 84.324637 
" clip-path="url(#p1b3e6e4594)" style="fill: none; stroke: #dc8932; stroke-width: 1.5; stroke-linecap: round"/>
   </g>
   <g id="line2d_3">
    <path d="M 65.449896 223.262285 
L 68.002168 223.262285 
L 70.554441 223.262285 
L 73.106714 223.262285 
L 75.658987 223.262285 
L 78.211259 223.262285 
L 80.763532 223.262285 
L 83.315805 223.262285 
L 85.868077 223.262285 
L 88.42035 223.262285 
L 90.972623 223.262285 
L 93.524896 223.262285 
L 96.077168 223.262285 
L 98.629441 222.700384 
L 101.181714 220.081821 
L 103.733987 218.121815 
L 106.286259 217.296054 
L 108.838532 215.863017 
L 111.390805 213.587176 
L 113.943077 213.144273 
L 116.49535 212.238089 
L 119.047623 211.43362 
L 121.599896 210.522562 
L 124.152168 209.091962 
L 126.704441 208.906776 
L 129.256714 207.327878 
L 131.808987 205.868959 
L 134.361259 205.464513 
L 136.913532 204.14085 
L 139.465805 203.494723 
L 142.018077 201.220922 
L 144.57035 201.198847 
L 147.122623 201.172452 
L 149.674896 200.767291 
L 152.227168 200.517833 
L 154.779441 200.516664 
L 157.331714 200.440751 
L 159.883987 199.215615 
L 162.436259 198.62041 
L 164.988532 198.429522 
L 167.540805 197.854749 
L 170.093077 197.256061 
L 172.64535 196.332255 
L 175.197623 196.047009 
L 177.749896 195.39511 
L 180.302168 194.337485 
L 182.854441 194.264936 
L 185.406714 194.264936 
L 187.958987 193.180932 
L 190.511259 192.292086 
L 193.063532 190.935529 
L 195.615805 190.870462 
L 198.168077 190.858403 
L 200.72035 189.054893 
L 203.272623 187.084268 
L 205.824896 185.91528 
L 208.377168 185.239928 
L 210.929441 184.780022 
L 213.481714 183.68315 
L 216.033987 182.680042 
L 218.586259 180.282194 
L 221.138532 180.064206 
L 223.690805 179.928077 
L 226.243077 178.536827 
L 228.79535 177.446712 
L 231.347623 176.564331 
L 233.899896 175.474325 
L 236.452168 174.512701 
L 239.004441 174.497186 
L 241.556714 174.097003 
L 244.108987 173.018734 
L 246.661259 172.140205 
L 249.213532 169.888147 
L 251.765805 169.176909 
L 254.318077 168.152041 
L 256.87035 167.836413 
L 259.422623 166.869818 
L 261.974896 166.727324 
L 264.527168 166.621645 
L 267.079441 163.626641 
L 269.631714 163.414277 
L 272.183987 162.298878 
L 274.736259 161.710606 
L 277.288532 159.958503 
L 279.840805 157.547069 
L 282.393077 156.707068 
L 284.94535 155.970813 
L 287.497623 154.404498 
L 290.049896 148.06261 
L 292.602168 147.106163 
L 295.154441 146.99869 
L 297.706714 145.760348 
L 300.258987 137.232745 
L 302.811259 136.440904 
L 305.363532 127.273506 
L 307.915805 122.261045 
L 310.468077 116.725402 
L 313.02035 110.284561 
L 315.572623 106.935438 
L 318.124896 99.746472 
" clip-path="url(#p1b3e6e4594)" style="fill: none; stroke: #ae9d31; stroke-width: 1.5; stroke-linecap: round"/>
   </g>
   <g id="line2d_4">
    <path d="M 65.449896 223.262285 
L 68.002168 219.271261 
L 70.554441 216.675548 
L 73.106714 212.585252 
L 75.658987 209.842876 
L 78.211259 207.010446 
L 80.763532 206.962275 
L 83.315805 206.531396 
L 85.868077 203.820441 
L 88.42035 197.351072 
L 90.972623 197.299867 
L 93.524896 196.55983 
L 96.077168 193.898347 
L 98.629441 192.931526 
L 101.181714 192.677448 
L 103.733987 191.980473 
L 106.286259 191.939519 
L 108.838532 191.244236 
L 111.390805 191.002421 
L 113.943077 190.050575 
L 116.49535 188.927237 
L 119.047623 188.395896 
L 121.599896 187.367263 
L 124.152168 187.223627 
L 126.704441 186.724081 
L 129.256714 185.934428 
L 131.808987 184.832899 
L 134.361259 184.793981 
L 136.913532 184.614801 
L 139.465805 183.960233 
L 142.018077 182.742524 
L 144.57035 182.274889 
L 147.122623 182.108076 
L 149.674896 181.587275 
L 152.227168 181.472809 
L 154.779441 181.250475 
L 157.331714 180.507344 
L 159.883987 180.037244 
L 162.436259 179.779426 
L 164.988532 179.169672 
L 167.540805 178.994903 
L 170.093077 178.964242 
L 172.64535 175.774571 
L 175.197623 175.678032 
L 177.749896 173.220271 
L 180.302168 172.515002 
L 182.854441 171.342816 
L 185.406714 171.321291 
L 187.958987 171.15073 
L 190.511259 170.383269 
L 193.063532 170.315177 
L 195.615805 170.12547 
L 198.168077 170.025926 
L 200.72035 170.003157 
L 203.272623 169.870074 
L 205.824896 169.839019 
L 208.377168 169.478578 
L 210.929441 168.854199 
L 213.481714 168.463338 
L 216.033987 167.803784 
L 218.586259 167.634212 
L 221.138532 167.016609 
L 223.690805 166.803305 
L 226.243077 166.600912 
L 228.79535 165.455831 
L 231.347623 165.279424 
L 233.899896 164.10487 
L 236.452168 161.399082 
L 239.004441 160.115493 
L 241.556714 158.885308 
L 244.108987 157.106846 
L 246.661259 156.955312 
L 249.213532 156.383194 
L 251.765805 156.106008 
L 254.318077 153.682443 
L 256.87035 153.587712 
L 259.422623 152.821405 
L 261.974896 152.756522 
L 264.527168 152.057457 
L 267.079441 150.655536 
L 269.631714 149.404157 
L 272.183987 147.400738 
L 274.736259 146.435371 
L 277.288532 145.203072 
L 279.840805 145.05643 
L 282.393077 144.244319 
L 284.94535 142.068763 
L 287.497623 141.576895 
L 290.049896 141.208233 
L 292.602168 138.650454 
L 295.154441 137.169938 
L 297.706714 136.713541 
L 300.258987 136.240979 
L 302.811259 135.276952 
L 305.363532 126.125113 
L 307.915805 118.346279 
L 310.468077 117.206794 
L 313.02035 113.797353 
L 315.572623 96.7516 
L 318.124896 92.450045 
" clip-path="url(#p1b3e6e4594)" style="fill: none; stroke: #77ab31; stroke-width: 1.5; stroke-linecap: round"/>
   </g>
   <g id="line2d_5">
    <path d="M 65.449896 213.411534 
L 68.002168 201.49262 
L 70.554441 200.445153 
L 73.106714 200.277835 
L 75.658987 196.550545 
L 78.211259 194.886085 
L 80.763532 191.881733 
L 83.315805 189.279354 
L 85.868077 187.028791 
L 88.42035 184.015258 
L 90.972623 180.762846 
L 93.524896 179.71341 
L 96.077168 179.524417 
L 98.629441 179.296691 
L 101.181714 178.401902 
L 103.733987 175.44717 
L 106.286259 174.45178 
L 108.838532 171.696344 
L 111.390805 171.214753 
L 113.943077 171.016255 
L 116.49535 170.165952 
L 119.047623 169.298261 
L 121.599896 169.282132 
L 124.152168 168.524358 
L 126.704441 168.505299 
L 129.256714 167.283272 
L 131.808987 165.720253 
L 134.361259 165.153872 
L 136.913532 165.032759 
L 139.465805 164.914288 
L 142.018077 163.626145 
L 144.57035 163.213194 
L 147.122623 163.113333 
L 149.674896 162.833025 
L 152.227168 162.003398 
L 154.779441 160.760321 
L 157.331714 160.621287 
L 159.883987 160.511409 
L 162.436259 160.245307 
L 164.988532 158.979674 
L 167.540805 157.856989 
L 170.093077 157.784494 
L 172.64535 157.255589 
L 175.197623 156.990784 
L 177.749896 155.980867 
L 180.302168 155.926652 
L 182.854441 155.306876 
L 185.406714 154.463207 
L 187.958987 153.264041 
L 190.511259 152.922512 
L 193.063532 152.772647 
L 195.615805 152.242668 
L 198.168077 151.992021 
L 200.72035 151.780273 
L 203.272623 151.623078 
L 205.824896 151.062083 
L 208.377168 148.82025 
L 210.929441 148.779446 
L 213.481714 147.557127 
L 216.033987 147.321761 
L 218.586259 147.29249 
L 221.138532 144.898498 
L 223.690805 143.235895 
L 226.243077 142.702853 
L 228.79535 142.046059 
L 231.347623 141.991707 
L 233.899896 141.819169 
L 236.452168 141.665281 
L 239.004441 140.149927 
L 241.556714 139.094595 
L 244.108987 138.773013 
L 246.661259 138.140893 
L 249.213532 137.840258 
L 251.765805 137.4178 
L 254.318077 136.167034 
L 256.87035 136.013984 
L 259.422623 135.468046 
L 261.974896 133.944752 
L 264.527168 133.636 
L 267.079441 131.634161 
L 269.631714 131.085611 
L 272.183987 127.981317 
L 274.736259 126.683233 
L 277.288532 123.925566 
L 279.840805 123.772648 
L 282.393077 123.598748 
L 284.94535 123.201698 
L 287.497623 119.71745 
L 290.049896 119.465501 
L 292.602168 119.299911 
L 295.154441 114.3448 
L 297.706714 113.419374 
L 300.258987 110.774244 
L 302.811259 110.137568 
L 305.363532 109.513571 
L 307.915805 108.164663 
L 310.468077 107.243782 
L 313.02035 92.98313 
L 315.572623 89.794156 
L 318.124896 83.779926 
" clip-path="url(#p1b3e6e4594)" style="fill: none; stroke: #33b07a; stroke-width: 1.5; stroke-linecap: round"/>
   </g>
   <g id="line2d_6">
    <path d="M 65.449896 223.262285 
L 68.002168 223.262285 
L 70.554441 218.822836 
L 73.106714 218.666876 
L 75.658987 217.592767 
L 78.211259 217.580722 
L 80.763532 213.124505 
L 83.315805 212.982643 
L 85.868077 212.065503 
L 88.42035 208.947677 
L 90.972623 208.868412 
L 93.524896 207.555657 
L 96.077168 206.693247 
L 98.629441 199.787422 
L 101.181714 199.480212 
L 103.733987 199.25005 
L 106.286259 197.201461 
L 108.838532 196.997786 
L 111.390805 190.984208 
L 113.943077 188.903346 
L 116.49535 186.865793 
L 119.047623 186.688098 
L 121.599896 185.990233 
L 124.152168 185.273295 
L 126.704441 184.831268 
L 129.256714 183.111174 
L 131.808987 181.845079 
L 134.361259 180.935616 
L 136.913532 180.629916 
L 139.465805 180.415058 
L 142.018077 179.649968 
L 144.57035 179.162934 
L 147.122623 179.108895 
L 149.674896 178.719744 
L 152.227168 178.106821 
L 154.779441 177.233575 
L 157.331714 177.17063 
L 159.883987 176.403844 
L 162.436259 175.970344 
L 164.988532 175.868323 
L 167.540805 174.459863 
L 170.093077 174.301366 
L 172.64535 174.219481 
L 175.197623 173.425748 
L 177.749896 173.181148 
L 180.302168 172.569574 
L 182.854441 172.530528 
L 185.406714 170.698293 
L 187.958987 166.897711 
L 190.511259 165.863485 
L 193.063532 165.6775 
L 195.615805 165.614338 
L 198.168077 164.330024 
L 200.72035 163.999393 
L 203.272623 162.195529 
L 205.824896 160.743042 
L 208.377168 160.613402 
L 210.929441 160.432314 
L 213.481714 160.353373 
L 216.033987 157.370029 
L 218.586259 157.338024 
L 221.138532 157.186781 
L 223.690805 154.42883 
L 226.243077 153.981265 
L 228.79535 153.772448 
L 231.347623 152.370879 
L 233.899896 151.624366 
L 236.452168 151.123379 
L 239.004441 150.793309 
L 241.556714 147.333541 
L 244.108987 146.75282 
L 246.661259 146.228577 
L 249.213532 145.114174 
L 251.765805 142.291477 
L 254.318077 142.257594 
L 256.87035 139.912302 
L 259.422623 139.748482 
L 261.974896 139.48803 
L 264.527168 138.765463 
L 267.079441 137.665513 
L 269.631714 136.911717 
L 272.183987 136.694735 
L 274.736259 136.608952 
L 277.288532 136.159952 
L 279.840805 135.024987 
L 282.393077 134.84488 
L 284.94535 134.543369 
L 287.497623 132.669462 
L 290.049896 128.989284 
L 292.602168 127.921944 
L 295.154441 125.935147 
L 297.706714 123.158692 
L 300.258987 122.343877 
L 302.811259 122.142417 
L 305.363532 120.136203 
L 307.915805 116.863305 
L 310.468077 115.970818 
L 313.02035 109.811679 
L 315.572623 106.728844 
L 318.124896 98.527323 
" clip-path="url(#p1b3e6e4594)" style="fill: none; stroke: #36ada4; stroke-width: 1.5; stroke-linecap: round"/>
   </g>
   <g id="line2d_7">
    <path d="M 65.449896 223.262285 
L 68.002168 223.262285 
L 70.554441 223.262285 
L 73.106714 223.262285 
L 75.658987 215.128414 
L 78.211259 213.032876 
L 80.763532 211.413848 
L 83.315805 207.640939 
L 85.868077 200.739391 
L 88.42035 199.559322 
L 90.972623 198.768091 
L 93.524896 198.10156 
L 96.077168 197.346197 
L 98.629441 192.650828 
L 101.181714 188.995886 
L 103.733987 188.354994 
L 106.286259 187.684269 
L 108.838532 187.440278 
L 111.390805 187.023334 
L 113.943077 185.981339 
L 116.49535 185.209554 
L 119.047623 184.358801 
L 121.599896 184.00787 
L 124.152168 183.443654 
L 126.704441 183.226312 
L 129.256714 183.20079 
L 131.808987 182.371206 
L 134.361259 181.772226 
L 136.913532 181.601266 
L 139.465805 181.126195 
L 142.018077 179.476142 
L 144.57035 178.77845 
L 147.122623 177.595132 
L 149.674896 176.3807 
L 152.227168 176.031498 
L 154.779441 173.810396 
L 157.331714 173.60695 
L 159.883987 171.754489 
L 162.436259 170.012264 
L 164.988532 169.648874 
L 167.540805 169.210553 
L 170.093077 169.172343 
L 172.64535 168.873161 
L 175.197623 167.677836 
L 177.749896 166.108562 
L 180.302168 166.038621 
L 182.854441 165.637888 
L 185.406714 165.262312 
L 187.958987 164.827694 
L 190.511259 163.681138 
L 193.063532 163.17843 
L 195.615805 163.100366 
L 198.168077 162.914496 
L 200.72035 161.876668 
L 203.272623 161.825685 
L 205.824896 160.293977 
L 208.377168 160.042006 
L 210.929441 159.947107 
L 213.481714 159.349759 
L 216.033987 158.606518 
L 218.586259 158.334409 
L 221.138532 156.235299 
L 223.690805 156.094643 
L 226.243077 155.83383 
L 228.79535 155.526293 
L 231.347623 154.458192 
L 233.899896 154.411097 
L 236.452168 153.799854 
L 239.004441 153.486244 
L 241.556714 153.047609 
L 244.108987 152.96564 
L 246.661259 152.421171 
L 249.213532 151.52501 
L 251.765805 149.182386 
L 254.318077 148.831178 
L 256.87035 147.618711 
L 259.422623 147.296858 
L 261.974896 147.010352 
L 264.527168 146.284137 
L 267.079441 144.68688 
L 269.631714 143.021629 
L 272.183987 142.768825 
L 274.736259 136.746488 
L 277.288532 136.70191 
L 279.840805 136.279603 
L 282.393077 135.387454 
L 284.94535 134.710525 
L 287.497623 133.275826 
L 290.049896 130.612159 
L 292.602168 129.901203 
L 295.154441 129.537195 
L 297.706714 128.453011 
L 300.258987 127.747394 
L 302.811259 127.623982 
L 305.363532 125.959106 
L 307.915805 125.88234 
L 310.468077 123.161526 
L 313.02035 117.894661 
L 315.572623 109.510279 
L 318.124896 96.383325 
" clip-path="url(#p1b3e6e4594)" style="fill: none; stroke: #38a9c5; stroke-width: 1.5; stroke-linecap: round"/>
   </g>
   <g id="line2d_8">
    <path d="M 65.449896 223.262285 
L 68.002168 223.262285 
L 70.554441 220.587306 
L 73.106714 212.835967 
L 75.658987 212.227721 
L 78.211259 210.023556 
L 80.763532 209.076547 
L 83.315805 205.689646 
L 85.868077 205.53074 
L 88.42035 203.649423 
L 90.972623 201.635086 
L 93.524896 201.319405 
L 96.077168 200.598009 
L 98.629441 199.480873 
L 101.181714 198.423319 
L 103.733987 197.767094 
L 106.286259 197.187847 
L 108.838532 196.897637 
L 111.390805 195.561733 
L 113.943077 192.283579 
L 116.49535 191.019499 
L 119.047623 190.216939 
L 121.599896 188.265829 
L 124.152168 187.513899 
L 126.704441 187.470946 
L 129.256714 186.991835 
L 131.808987 185.404955 
L 134.361259 183.077484 
L 136.913532 182.6065 
L 139.465805 182.371095 
L 142.018077 181.844868 
L 144.57035 181.202546 
L 147.122623 180.64575 
L 149.674896 179.972147 
L 152.227168 178.388587 
L 154.779441 175.675073 
L 157.331714 175.322793 
L 159.883987 175.133659 
L 162.436259 171.384169 
L 164.988532 170.444529 
L 167.540805 169.694637 
L 170.093077 169.529656 
L 172.64535 167.868509 
L 175.197623 167.757707 
L 177.749896 165.779739 
L 180.302168 165.635217 
L 182.854441 164.973364 
L 185.406714 164.347378 
L 187.958987 164.195587 
L 190.511259 159.712199 
L 193.063532 158.875083 
L 195.615805 158.665185 
L 198.168077 158.367474 
L 200.72035 158.103641 
L 203.272623 157.941693 
L 205.824896 157.438588 
L 208.377168 154.948421 
L 210.929441 154.110856 
L 213.481714 153.414966 
L 216.033987 152.577295 
L 218.586259 150.871551 
L 221.138532 150.183272 
L 223.690805 147.830901 
L 226.243077 147.634386 
L 228.79535 146.946553 
L 231.347623 145.073084 
L 233.899896 144.50228 
L 236.452168 144.210926 
L 239.004441 142.605957 
L 241.556714 142.360612 
L 244.108987 137.899034 
L 246.661259 136.872384 
L 249.213532 135.497688 
L 251.765805 135.46899 
L 254.318077 134.705649 
L 256.87035 134.231353 
L 259.422623 132.991127 
L 261.974896 131.75408 
L 264.527168 131.568771 
L 267.079441 127.934606 
L 269.631714 124.776131 
L 272.183987 124.16615 
L 274.736259 124.075583 
L 277.288532 122.988308 
L 279.840805 122.172894 
L 282.393077 121.887599 
L 284.94535 121.159023 
L 287.497623 117.572265 
L 290.049896 117.531736 
L 292.602168 115.735467 
L 295.154441 114.448062 
L 297.706714 112.179877 
L 300.258987 109.272678 
L 302.811259 105.257349 
L 305.363532 104.912192 
L 307.915805 100.76449 
L 310.468077 95.459181 
L 313.02035 94.786553 
L 315.572623 91.72086 
L 318.124896 59.73198 
" clip-path="url(#p1b3e6e4594)" style="fill: none; stroke: #6e9bf4; stroke-width: 1.5; stroke-linecap: round"/>
   </g>
   <g id="line2d_9">
    <path d="M 65.449896 223.262285 
L 68.002168 223.262285 
L 70.554441 223.262285 
L 73.106714 223.262285 
L 75.658987 223.262285 
L 78.211259 223.262285 
L 80.763532 223.262285 
L 83.315805 223.262285 
L 85.868077 223.262285 
L 88.42035 223.262285 
L 90.972623 223.262285 
L 93.524896 223.262285 
L 96.077168 223.262285 
L 98.629441 223.262285 
L 101.181714 223.262285 
L 103.733987 223.262285 
L 106.286259 223.262285 
L 108.838532 223.262285 
L 111.390805 223.262285 
L 113.943077 222.39865 
L 116.49535 222.036208 
L 119.047623 221.75271 
L 121.599896 219.003795 
L 124.152168 217.78318 
L 126.704441 213.940647 
L 129.256714 212.281832 
L 131.808987 209.506641 
L 134.361259 207.495684 
L 136.913532 206.795578 
L 139.465805 204.743362 
L 142.018077 203.98039 
L 144.57035 203.779346 
L 147.122623 203.154792 
L 149.674896 202.376229 
L 152.227168 201.800203 
L 154.779441 201.74995 
L 157.331714 201.417934 
L 159.883987 200.764549 
L 162.436259 200.476171 
L 164.988532 200.097505 
L 167.540805 198.335827 
L 170.093077 197.368629 
L 172.64535 197.229361 
L 175.197623 195.69919 
L 177.749896 193.858748 
L 180.302168 192.49881 
L 182.854441 191.233613 
L 185.406714 190.238015 
L 187.958987 189.321985 
L 190.511259 189.195851 
L 193.063532 189.081146 
L 195.615805 189.075633 
L 198.168077 188.912045 
L 200.72035 188.327915 
L 203.272623 188.109757 
L 205.824896 187.224173 
L 208.377168 187.086192 
L 210.929441 186.224932 
L 213.481714 185.673863 
L 216.033987 185.575563 
L 218.586259 185.486468 
L 221.138532 184.813185 
L 223.690805 183.21234 
L 226.243077 182.574491 
L 228.79535 182.274404 
L 231.347623 181.57284 
L 233.899896 181.389269 
L 236.452168 181.061487 
L 239.004441 179.284505 
L 241.556714 178.968714 
L 244.108987 178.731332 
L 246.661259 178.563789 
L 249.213532 178.162474 
L 251.765805 176.948483 
L 254.318077 175.120096 
L 256.87035 174.067821 
L 259.422623 173.733218 
L 261.974896 172.101852 
L 264.527168 171.290766 
L 267.079441 170.019249 
L 269.631714 165.578555 
L 272.183987 165.329191 
L 274.736259 164.527437 
L 277.288532 163.288762 
L 279.840805 160.856637 
L 282.393077 155.76298 
L 284.94535 152.122909 
L 287.497623 150.321418 
L 290.049896 149.248275 
L 292.602168 145.523553 
L 295.154441 143.682697 
L 297.706714 143.456696 
L 300.258987 139.179475 
L 302.811259 136.961912 
L 305.363532 132.680863 
L 307.915805 132.584868 
L 310.468077 131.705395 
L 313.02035 128.899595 
L 315.572623 128.105713 
L 318.124896 117.937842 
" clip-path="url(#p1b3e6e4594)" style="fill: none; stroke: #cc7af4; stroke-width: 1.5; stroke-linecap: round"/>
   </g>
   <g id="line2d_10">
    <path d="M 65.449896 223.262285 
L 68.002168 223.262285 
L 70.554441 223.262285 
L 73.106714 223.262285 
L 75.658987 223.262285 
L 78.211259 223.262285 
L 80.763532 223.262285 
L 83.315805 223.262285 
L 85.868077 223.262285 
L 88.42035 223.262285 
L 90.972623 223.262285 
L 93.524896 223.262285 
L 96.077168 223.262285 
L 98.629441 223.262285 
L 101.181714 223.262285 
L 103.733987 223.262285 
L 106.286259 223.262285 
L 108.838532 223.262285 
L 111.390805 223.262285 
L 113.943077 223.262285 
L 116.49535 223.262285 
L 119.047623 223.262285 
L 121.599896 223.262285 
L 124.152168 223.262285 
L 126.704441 223.262285 
L 129.256714 223.262285 
L 131.808987 223.262285 
L 134.361259 222.781531 
L 136.913532 222.546077 
L 139.465805 218.98176 
L 142.018077 217.857898 
L 144.57035 216.667157 
L 147.122623 216.559186 
L 149.674896 216.482926 
L 152.227168 216.303596 
L 154.779441 215.781489 
L 157.331714 215.43791 
L 159.883987 214.058668 
L 162.436259 213.804682 
L 164.988532 213.779002 
L 167.540805 213.03362 
L 170.093077 212.626344 
L 172.64535 212.387603 
L 175.197623 211.906961 
L 177.749896 211.282851 
L 180.302168 210.912539 
L 182.854441 210.027027 
L 185.406714 209.534011 
L 187.958987 209.23574 
L 190.511259 208.774979 
L 193.063532 208.148373 
L 195.615805 207.793829 
L 198.168077 207.467196 
L 200.72035 207.395003 
L 203.272623 206.203405 
L 205.824896 205.343894 
L 208.377168 205.206974 
L 210.929441 205.101401 
L 213.481714 205.032374 
L 216.033987 204.986438 
L 218.586259 204.652479 
L 221.138532 204.494392 
L 223.690805 204.020726 
L 226.243077 203.771884 
L 228.79535 202.792612 
L 231.347623 201.407845 
L 233.899896 201.241272 
L 236.452168 201.085984 
L 239.004441 200.133895 
L 241.556714 198.018251 
L 244.108987 195.930375 
L 246.661259 195.559618 
L 249.213532 194.925901 
L 251.765805 194.803688 
L 254.318077 193.15451 
L 256.87035 191.85858 
L 259.422623 191.674685 
L 261.974896 190.282686 
L 264.527168 187.753919 
L 267.079441 187.083418 
L 269.631714 186.936081 
L 272.183987 186.431556 
L 274.736259 184.204462 
L 277.288532 183.671955 
L 279.840805 180.454838 
L 282.393077 175.924516 
L 284.94535 169.416736 
L 287.497623 166.291725 
L 290.049896 165.978922 
L 292.602168 163.56727 
L 295.154441 162.376698 
L 297.706714 159.715743 
L 300.258987 159.507471 
L 302.811259 152.904444 
L 305.363532 151.745702 
L 307.915805 147.86053 
L 310.468077 143.506964 
L 313.02035 139.86346 
L 315.572623 135.537963 
L 318.124896 113.71408 
" clip-path="url(#p1b3e6e4594)" style="fill: none; stroke: #f565cc; stroke-width: 1.5; stroke-linecap: round"/>
   </g>
   <g id="line2d_11">
    <path d="M 65.449896 205.357351 
L 68.002168 200.61937 
L 70.554441 197.045484 
L 73.106714 186.644205 
L 75.658987 182.326246 
L 78.211259 181.896052 
L 80.763532 181.434209 
L 83.315805 180.858061 
L 85.868077 179.959031 
L 88.42035 179.949763 
L 90.972623 179.384713 
L 93.524896 179.171254 
L 96.077168 179.13296 
L 98.629441 177.457098 
L 101.181714 177.291919 
L 103.733987 176.072001 
L 106.286259 175.887539 
L 108.838532 175.622601 
L 111.390805 174.146799 
L 113.943077 173.676111 
L 116.49535 172.857568 
L 119.047623 172.64571 
L 121.599896 172.23132 
L 124.152168 171.568499 
L 126.704441 171.464703 
L 129.256714 171.342303 
L 131.808987 171.308703 
L 134.361259 170.711959 
L 136.913532 170.407449 
L 139.465805 170.292745 
L 142.018077 170.108375 
L 144.57035 170.079276 
L 147.122623 169.779206 
L 149.674896 169.773091 
L 152.227168 168.935372 
L 154.779441 168.489854 
L 157.331714 167.553329 
L 159.883987 167.471245 
L 162.436259 167.171761 
L 164.988532 166.890678 
L 167.540805 166.764732 
L 170.093077 166.31884 
L 172.64535 165.906156 
L 175.197623 165.791651 
L 177.749896 165.518941 
L 180.302168 165.304213 
L 182.854441 165.292053 
L 185.406714 165.223629 
L 187.958987 164.915383 
L 190.511259 164.672598 
L 193.063532 164.609125 
L 195.615805 164.588543 
L 198.168077 164.571795 
L 200.72035 164.470807 
L 203.272623 164.447757 
L 205.824896 164.252341 
L 208.377168 164.190905 
L 210.929441 164.128345 
L 213.481714 163.900264 
L 216.033987 163.715952 
L 218.586259 163.528351 
L 221.138532 163.40208 
L 223.690805 163.341758 
L 226.243077 162.994618 
L 228.79535 162.971386 
L 231.347623 162.950272 
L 233.899896 162.908207 
L 236.452168 162.623153 
L 239.004441 162.566258 
L 241.556714 162.458664 
L 244.108987 161.849898 
L 246.661259 161.409594 
L 249.213532 161.315564 
L 251.765805 161.214847 
L 254.318077 160.979781 
L 256.87035 160.861342 
L 259.422623 160.740682 
L 261.974896 160.565339 
L 264.527168 160.502616 
L 267.079441 160.170683 
L 269.631714 159.755555 
L 272.183987 159.730462 
L 274.736259 159.716642 
L 277.288532 159.562082 
L 279.840805 159.486567 
L 282.393077 159.380947 
L 284.94535 159.314554 
L 287.497623 159.227454 
L 290.049896 158.705595 
L 292.602168 158.214714 
L 295.154441 156.721185 
L 297.706714 156.618222 
L 300.258987 155.144836 
L 302.811259 154.986223 
L 305.363532 154.957956 
L 307.915805 154.824781 
L 310.468077 154.324246 
L 313.02035 152.805603 
L 315.572623 149.944494 
L 318.124896 120.600281 
" clip-path="url(#p1b3e6e4594)" style="fill: none; stroke: #000000; stroke-width: 6; stroke-linecap: round"/>
   </g>
   <g id="patch_3">
    <path d="M 65.449896 265.571549 
L 65.449896 12.896549 
" style="fill: none; stroke: #262626; stroke-width: 1.25; stroke-linejoin: miter; stroke-linecap: square"/>
   </g>
   <g id="patch_4">
    <path d="M 65.449896 265.571549 
L 318.124896 265.571549 
" style="fill: none; stroke: #262626; stroke-width: 1.25; stroke-linejoin: miter; stroke-linecap: square"/>
   </g>
   <g id="legend_1">
    <g id="patch_5">
     <path d="M 73.149896 199.301861 
L 175.162864 199.301861 
Q 177.362864 199.301861 177.362864 197.101861 
L 177.362864 20.596549 
Q 177.362864 18.396549 175.162864 18.396549 
L 73.149896 18.396549 
Q 70.949896 18.396549 70.949896 20.596549 
L 70.949896 197.101861 
Q 70.949896 199.301861 73.149896 199.301861 
z
" style="fill: #ffffff; opacity: 0.8; stroke: #cccccc; stroke-linejoin: miter"/>
    </g>
    <g id="line2d_12">
     <path d="M 75.349896 27.30483 
L 86.349896 27.30483 
L 97.349896 27.30483 
" style="fill: none; stroke: #f77189; stroke-width: 1.5; stroke-linecap: round"/>
    </g>
    <g id="text_15">
     <text style="fill: #262626; font: 11px 'Arial', 'DejaVu Sans', 'Liberation Sans', 'Bitstream Vera Sans', sans-serif; text-anchor: start" x="106.149896" y="31.15483" transform="rotate(-0 106.149896 31.15483)">Cell Type  1</text>
    </g>
    <g id="line2d_13">
     <path d="M 75.349896 43.450767 
L 86.349896 43.450767 
L 97.349896 43.450767 
" style="fill: none; stroke: #dc8932; stroke-width: 1.5; stroke-linecap: round"/>
    </g>
    <g id="text_16">
     <text style="fill: #262626; font: 11px 'Arial', 'DejaVu Sans', 'Liberation Sans', 'Bitstream Vera Sans', sans-serif; text-anchor: start" x="106.149896" y="47.300767" transform="rotate(-0 106.149896 47.300767)">Cell Type  2</text>
    </g>
    <g id="line2d_14">
     <path d="M 75.349896 59.596705 
L 86.349896 59.596705 
L 97.349896 59.596705 
" style="fill: none; stroke: #ae9d31; stroke-width: 1.5; stroke-linecap: round"/>
    </g>
    <g id="text_17">
     <text style="fill: #262626; font: 11px 'Arial', 'DejaVu Sans', 'Liberation Sans', 'Bitstream Vera Sans', sans-serif; text-anchor: start" x="106.149896" y="63.446705" transform="rotate(-0 106.149896 63.446705)">Cell Type  3</text>
    </g>
    <g id="line2d_15">
     <path d="M 75.349896 75.742642 
L 86.349896 75.742642 
L 97.349896 75.742642 
" style="fill: none; stroke: #77ab31; stroke-width: 1.5; stroke-linecap: round"/>
    </g>
    <g id="text_18">
     <text style="fill: #262626; font: 11px 'Arial', 'DejaVu Sans', 'Liberation Sans', 'Bitstream Vera Sans', sans-serif; text-anchor: start" x="106.149896" y="79.592642" transform="rotate(-0 106.149896 79.592642)">Cell Type  4</text>
    </g>
    <g id="line2d_16">
     <path d="M 75.349896 91.88858 
L 86.349896 91.88858 
L 97.349896 91.88858 
" style="fill: none; stroke: #33b07a; stroke-width: 1.5; stroke-linecap: round"/>
    </g>
    <g id="text_19">
     <text style="fill: #262626; font: 11px 'Arial', 'DejaVu Sans', 'Liberation Sans', 'Bitstream Vera Sans', sans-serif; text-anchor: start" x="106.149896" y="95.73858" transform="rotate(-0 106.149896 95.73858)">Cell Type  5</text>
    </g>
    <g id="line2d_17">
     <path d="M 75.349896 108.034517 
L 86.349896 108.034517 
L 97.349896 108.034517 
" style="fill: none; stroke: #36ada4; stroke-width: 1.5; stroke-linecap: round"/>
    </g>
    <g id="text_20">
     <text style="fill: #262626; font: 11px 'Arial', 'DejaVu Sans', 'Liberation Sans', 'Bitstream Vera Sans', sans-serif; text-anchor: start" x="106.149896" y="111.884517" transform="rotate(-0 106.149896 111.884517)">Cell Type  6</text>
    </g>
    <g id="line2d_18">
     <path d="M 75.349896 124.180455 
L 86.349896 124.180455 
L 97.349896 124.180455 
" style="fill: none; stroke: #38a9c5; stroke-width: 1.5; stroke-linecap: round"/>
    </g>
    <g id="text_21">
     <text style="fill: #262626; font: 11px 'Arial', 'DejaVu Sans', 'Liberation Sans', 'Bitstream Vera Sans', sans-serif; text-anchor: start" x="106.149896" y="128.030455" transform="rotate(-0 106.149896 128.030455)">Cell Type  7</text>
    </g>
    <g id="line2d_19">
     <path d="M 75.349896 140.326392 
L 86.349896 140.326392 
L 97.349896 140.326392 
" style="fill: none; stroke: #6e9bf4; stroke-width: 1.5; stroke-linecap: round"/>
    </g>
    <g id="text_22">
     <text style="fill: #262626; font: 11px 'Arial', 'DejaVu Sans', 'Liberation Sans', 'Bitstream Vera Sans', sans-serif; text-anchor: start" x="106.149896" y="144.176392" transform="rotate(-0 106.149896 144.176392)">Cell Type  8</text>
    </g>
    <g id="line2d_20">
     <path d="M 75.349896 156.47233 
L 86.349896 156.47233 
L 97.349896 156.47233 
" style="fill: none; stroke: #cc7af4; stroke-width: 1.5; stroke-linecap: round"/>
    </g>
    <g id="text_23">
     <text style="fill: #262626; font: 11px 'Arial', 'DejaVu Sans', 'Liberation Sans', 'Bitstream Vera Sans', sans-serif; text-anchor: start" x="106.149896" y="160.32233" transform="rotate(-0 106.149896 160.32233)">Cell Type  9</text>
    </g>
    <g id="line2d_21">
     <path d="M 75.349896 172.618267 
L 86.349896 172.618267 
L 97.349896 172.618267 
" style="fill: none; stroke: #f565cc; stroke-width: 1.5; stroke-linecap: round"/>
    </g>
    <g id="text_24">
     <text style="fill: #262626; font: 11px 'Arial', 'DejaVu Sans', 'Liberation Sans', 'Bitstream Vera Sans', sans-serif; text-anchor: start" x="106.149896" y="176.468267" transform="rotate(-0 106.149896 176.468267)">Cell Type 10</text>
    </g>
    <g id="line2d_22">
     <path d="M 75.349896 188.764205 
L 86.349896 188.764205 
L 97.349896 188.764205 
" style="fill: none; stroke: #000000; stroke-width: 6; stroke-linecap: round"/>
    </g>
    <g id="text_25">
     <text style="fill: #262626; font: 11px 'Arial', 'DejaVu Sans', 'Liberation Sans', 'Bitstream Vera Sans', sans-serif; text-anchor: start" x="106.149896" y="192.614205" transform="rotate(-0 106.149896 192.614205)">Cumulative</text>
    </g>
   </g>
  </g>
 </g>
 <defs>
  <clipPath id="p1b3e6e4594">
   <rect x="65.449896" y="12.896549" width="252.675" height="252.675"/>
  </clipPath>
 </defs>
</svg>
