<?xml version="1.0" encoding="utf-8" standalone="no"?>
<!DOCTYPE svg PUBLIC "-//W3C//DTD SVG 1.1//EN"
  "http://www.w3.org/Graphics/SVG/1.1/DTD/svg11.dtd">
<svg height="339.780381pt" version="1.1" viewBox="0 0 337.247468 339.780381" width="337.247468pt" xmlns="http://www.w3.org/2000/svg" xmlns:xlink="http://www.w3.org/1999/xlink">
 <metadata>
  <rdf:RDF xmlns:cc="http://creativecommons.org/ns#" xmlns:dc="http://purl.org/dc/elements/1.1/" xmlns:rdf="http://www.w3.org/1999/02/22-rdf-syntax-ns#">
   <cc:Work>
    <dc:type rdf:resource="http://purl.org/dc/dcmitype/StillImage"/>
    <dc:date>2023-04-27T13:19:34.826203</dc:date>
    <dc:format>image/svg+xml</dc:format>
    <dc:creator>
     <cc:Agent>
      <dc:title>Matplotlib v3.4.3, https://matplotlib.org/</dc:title>
     </cc:Agent>
    </dc:creator>
   </cc:Work>
  </rdf:RDF>
 </metadata>
 <defs>
  <style type="text/css">*{stroke-linecap:butt;stroke-linejoin:round;}</style>
 </defs>
 <g id="figure_1">
  <g id="patch_1">
   <path d="M 0 339.780381 
L 337.247468 339.780381 
L 337.247468 0 
L 0 0 
z
" style="fill:#ffffff;"/>
  </g>
  <g id="axes_1">
   <g id="patch_2">
    <path d="M 65.449896 283.66425 
L 318.124896 283.66425 
L 318.124896 30.98925 
L 65.449896 30.98925 
z
" style="fill:#ffffff;"/>
   </g>
   <g id="matplotlib.axis_1">
    <g id="xtick_1">
     <g id="text_1">
      <text style="fill:#262626;font-family:DejaVu Sans;font-size:14.994px;font-stretch:normal;font-style:normal;font-weight:normal;text-anchor:middle;" transform="rotate(-0, 65.449896, 304.557347)" x="65.449896" y="304.557347">0.0</text>
     </g>
    </g>
    <g id="xtick_2">
     <g id="text_2">
      <text style="fill:#262626;font-family:DejaVu Sans;font-size:14.994px;font-stretch:normal;font-style:normal;font-weight:normal;text-anchor:middle;" transform="rotate(-0, 115.984896, 304.557347)" x="115.984896" y="304.557347">0.2</text>
     </g>
    </g>
    <g id="xtick_3">
     <g id="text_3">
      <text style="fill:#262626;font-family:DejaVu Sans;font-size:14.994px;font-stretch:normal;font-style:normal;font-weight:normal;text-anchor:middle;" transform="rotate(-0, 166.519896, 304.557347)" x="166.519896" y="304.557347">0.4</text>
     </g>
    </g>
    <g id="xtick_4">
     <g id="text_4">
      <text style="fill:#262626;font-family:DejaVu Sans;font-size:14.994px;font-stretch:normal;font-style:normal;font-weight:normal;text-anchor:middle;" transform="rotate(-0, 217.054896, 304.557347)" x="217.054896" y="304.557347">0.6</text>
     </g>
    </g>
    <g id="xtick_5">
     <g id="text_5">
      <text style="fill:#262626;font-family:DejaVu Sans;font-size:14.994px;font-stretch:normal;font-style:normal;font-weight:normal;text-anchor:middle;" transform="rotate(-0, 267.589896, 304.557347)" x="267.589896" y="304.557347">0.8</text>
     </g>
    </g>
    <g id="xtick_6">
     <g id="text_6">
      <text style="fill:#262626;font-family:DejaVu Sans;font-size:14.994px;font-stretch:normal;font-style:normal;font-weight:normal;text-anchor:middle;" transform="rotate(-0, 318.124896, 304.557347)" x="318.124896" y="304.557347">1.0</text>
     </g>
    </g>
    <g id="text_7">
     <text style="fill:#262626;font-family:DejaVu Sans;font-size:21.6px;font-stretch:normal;font-style:normal;font-weight:normal;text-anchor:middle;" transform="rotate(-0, 191.787396, 328.088256)" x="191.787396" y="328.088256">Percentile</text>
    </g>
   </g>
   <g id="matplotlib.axis_2">
    <g id="ytick_1">
     <g id="text_8">
      <text style="fill:#262626;font-family:DejaVu Sans;font-size:14.994px;font-stretch:normal;font-style:normal;font-weight:normal;text-anchor:end;" transform="rotate(-0, 55.949896, 289.360799)" x="55.949896" y="289.360799">0.0</text>
     </g>
    </g>
    <g id="ytick_2">
     <g id="text_9">
      <text style="fill:#262626;font-family:DejaVu Sans;font-size:14.994px;font-stretch:normal;font-style:normal;font-weight:normal;text-anchor:end;" transform="rotate(-0, 55.949896, 238.825799)" x="55.949896" y="238.825799">0.2</text>
     </g>
    </g>
    <g id="ytick_3">
     <g id="text_10">
      <text style="fill:#262626;font-family:DejaVu Sans;font-size:14.994px;font-stretch:normal;font-style:normal;font-weight:normal;text-anchor:end;" transform="rotate(-0, 55.949896, 188.290799)" x="55.949896" y="188.290799">0.4</text>
     </g>
    </g>
    <g id="ytick_4">
     <g id="text_11">
      <text style="fill:#262626;font-family:DejaVu Sans;font-size:14.994px;font-stretch:normal;font-style:normal;font-weight:normal;text-anchor:end;" transform="rotate(-0, 55.949896, 137.755799)" x="55.949896" y="137.755799">0.6</text>
     </g>
    </g>
    <g id="ytick_5">
     <g id="text_12">
      <text style="fill:#262626;font-family:DejaVu Sans;font-size:14.994px;font-stretch:normal;font-style:normal;font-weight:normal;text-anchor:end;" transform="rotate(-0, 55.949896, 87.220799)" x="55.949896" y="87.220799">0.8</text>
     </g>
    </g>
    <g id="ytick_6">
     <g id="text_13">
      <text style="fill:#262626;font-family:DejaVu Sans;font-size:14.994px;font-stretch:normal;font-style:normal;font-weight:normal;text-anchor:end;" transform="rotate(-0, 55.949896, 36.685799)" x="55.949896" y="36.685799">1.0</text>
     </g>
    </g>
    <g id="text_14">
     <text style="fill:#262626;font-family:DejaVu Sans;font-size:21.6px;font-stretch:normal;font-style:normal;font-weight:normal;text-anchor:middle;" transform="rotate(-90, 23.612625, 157.32675)" x="23.612625" y="157.32675">Electrophysiology Similarity</text>
    </g>
   </g>
   <g id="line2d_1">
    <path clip-path="url(#pdc204e913d)" d="M 65.449896 207.756883 
L 72.099238 200.856082 
L 78.74858 198.942743 
L 85.397922 189.183311 
L 92.047264 185.835894 
L 98.696606 183.987217 
L 105.345948 180.711054 
L 111.99529 174.576755 
L 118.644632 172.916386 
L 125.293975 168.725151 
L 131.943317 168.323891 
L 138.592659 168.304924 
L 145.242001 166.655782 
L 151.891343 164.097288 
L 158.540685 156.034671 
L 165.190027 155.294055 
L 171.839369 154.167802 
L 178.488711 152.921967 
L 185.138054 151.738048 
L 191.787396 150.00949 
L 198.436738 146.326843 
L 205.08608 145.736651 
L 211.735422 144.855937 
L 218.384764 144.150295 
L 225.034106 142.619383 
L 231.683448 142.557304 
L 238.33279 140.907936 
L 244.982132 138.669804 
L 251.631475 136.038324 
L 258.280817 134.837424 
L 264.930159 132.693417 
L 271.579501 132.693417 
L 278.228843 132.688625 
L 284.878185 132.583542 
L 291.527527 132.113169 
L 298.176869 132.014752 
L 304.826211 131.745894 
L 311.475554 130.542716 
L 318.124896 117.636178 
" style="fill:none;stroke:#0d0887;stroke-linecap:round;stroke-width:1.5;"/>
   </g>
   <g id="line2d_2">
    <path clip-path="url(#pdc204e913d)" d="M 65.449896 194.455455 
L 72.099238 183.004658 
L 78.74858 181.676853 
L 85.397922 170.962404 
L 92.047264 165.014063 
L 98.696606 163.788178 
L 105.345948 160.901344 
L 111.99529 157.716059 
L 118.644632 153.44966 
L 125.293975 151.438615 
L 131.943317 149.121104 
L 138.592659 147.331847 
L 145.242001 146.565549 
L 151.891343 146.359374 
L 158.540685 146.087936 
L 165.190027 146.066527 
L 171.839369 142.800875 
L 178.488711 142.377981 
L 185.138054 137.984615 
L 191.787396 137.318595 
L 198.436738 136.044299 
L 205.08608 135.512823 
L 211.735422 134.339977 
L 218.384764 133.017789 
L 225.034106 132.5384 
L 231.683448 132.270688 
L 238.33279 131.429422 
L 244.982132 130.79103 
L 251.631475 130.342276 
L 258.280817 129.189574 
L 264.930159 129.077953 
L 271.579501 128.177967 
L 278.228843 124.615726 
L 284.878185 124.43613 
L 291.527527 124.028572 
L 298.176869 121.20103 
L 304.826211 121.20103 
L 311.475554 120.887655 
L 318.124896 120.044605 
" style="fill:none;stroke:#5c01a6;stroke-linecap:round;stroke-width:1.5;"/>
   </g>
   <g id="line2d_3">
    <path clip-path="url(#pdc204e913d)" d="M 65.449896 209.310706 
L 72.099238 184.025898 
L 78.74858 176.100264 
L 85.397922 170.305141 
L 92.047264 170.207331 
L 98.696606 167.568091 
L 105.345948 163.350277 
L 111.99529 161.482916 
L 118.644632 161.460995 
L 125.293975 160.375343 
L 131.943317 160.297454 
L 138.592659 159.112857 
L 145.242001 157.061873 
L 151.891343 156.18619 
L 158.540685 154.021418 
L 165.190027 153.993331 
L 171.839369 150.58288 
L 178.488711 150.509941 
L 185.138054 149.247793 
L 191.787396 146.197055 
L 198.436738 145.959704 
L 205.08608 141.538736 
L 211.735422 140.184179 
L 218.384764 139.967303 
L 225.034106 138.498409 
L 231.683448 138.053735 
L 238.33279 137.840554 
L 244.982132 137.840554 
L 251.631475 137.683928 
L 258.280817 137.612262 
L 264.930159 136.721144 
L 271.579501 136.024579 
L 278.228843 135.868017 
L 284.878185 134.661739 
L 291.527527 129.576088 
L 298.176869 126.259537 
L 304.826211 125.522187 
L 311.475554 117.562494 
L 318.124896 116.871731 
" style="fill:none;stroke:#9c179e;stroke-linecap:round;stroke-width:1.5;"/>
   </g>
   <g id="line2d_4">
    <path clip-path="url(#pdc204e913d)" d="M 65.449896 204.758194 
L 72.099238 194.638055 
L 78.74858 179.639771 
L 85.397922 164.43702 
L 92.047264 161.075618 
L 98.696606 158.863412 
L 105.345948 157.567524 
L 111.99529 157.375986 
L 118.644632 157.196584 
L 125.293975 151.960184 
L 131.943317 149.549924 
L 138.592659 149.425464 
L 145.242001 149.366006 
L 151.891343 149.116001 
L 158.540685 146.868303 
L 165.190027 146.136431 
L 171.839369 145.91542 
L 178.488711 140.839989 
L 185.138054 139.452585 
L 191.787396 139.142197 
L 198.436738 139.094455 
L 205.08608 138.863326 
L 211.735422 137.943009 
L 218.384764 137.373505 
L 225.034106 130.717441 
L 231.683448 130.243948 
L 238.33279 129.393663 
L 244.982132 129.365367 
L 251.631475 126.740444 
L 258.280817 124.808601 
L 264.930159 124.56485 
L 271.579501 124.343269 
L 278.228843 123.840302 
L 284.878185 123.832152 
L 291.527527 123.768754 
L 298.176869 123.561031 
L 304.826211 123.069593 
L 311.475554 121.977733 
L 318.124896 111.735702 
" style="fill:none;stroke:#cc4778;stroke-linecap:round;stroke-width:1.5;"/>
   </g>
   <g id="line2d_5">
    <path clip-path="url(#pdc204e913d)" d="M 65.449896 203.742421 
L 72.099238 190.680552 
L 78.74858 175.310838 
L 85.397922 173.103665 
L 92.047264 171.971424 
L 98.696606 162.444487 
L 105.345948 156.856953 
L 111.99529 156.631848 
L 118.644632 151.952012 
L 125.293975 151.835128 
L 131.943317 151.703498 
L 138.592659 151.495924 
L 145.242001 151.254806 
L 151.891343 149.193353 
L 158.540685 148.930778 
L 165.190027 148.112539 
L 171.839369 146.768611 
L 178.488711 143.867986 
L 185.138054 143.208538 
L 191.787396 143.103087 
L 198.436738 142.99347 
L 205.08608 141.992109 
L 211.735422 141.574266 
L 218.384764 140.268307 
L 225.034106 137.802532 
L 231.683448 136.228157 
L 238.33279 134.488241 
L 244.982132 130.834688 
L 251.631475 128.018391 
L 258.280817 119.39652 
L 264.930159 116.818081 
L 271.579501 115.563969 
L 278.228843 113.94773 
L 284.878185 105.593498 
L 291.527527 105.556167 
L 298.176869 105.556167 
L 304.826211 105.340407 
L 311.475554 104.455548 
L 318.124896 91.919427 
" style="fill:none;stroke:#ed7953;stroke-linecap:round;stroke-width:1.5;"/>
   </g>
   <g id="line2d_6">
    <path clip-path="url(#pdc204e913d)" d="M 65.449896 241.354986 
L 72.099238 241.354986 
L 78.74858 133.204908 
L 85.397922 120.7425 
L 92.047264 111.586783 
L 98.696606 101.111162 
L 105.345948 99.936508 
L 111.99529 63.97723 
L 118.644632 30.98925 
L 125.293975 30.98925 
L 131.943317 30.98925 
L 138.592659 30.98925 
L 145.242001 30.98925 
L 151.891343 30.98925 
L 158.540685 30.98925 
L 165.190027 30.98925 
L 171.839369 30.98925 
L 178.488711 30.98925 
L 185.138054 30.98925 
L 191.787396 30.98925 
L 198.436738 30.98925 
L 205.08608 30.98925 
L 211.735422 30.98925 
L 218.384764 30.98925 
L 225.034106 30.98925 
L 231.683448 30.98925 
L 238.33279 30.98925 
L 244.982132 30.98925 
L 251.631475 30.98925 
L 258.280817 30.98925 
L 264.930159 30.98925 
L 271.579501 30.98925 
L 278.228843 30.98925 
L 284.878185 30.98925 
L 291.527527 30.98925 
L 298.176869 30.98925 
L 304.826211 30.98925 
L 311.475554 30.98925 
L 318.124896 30.98925 
" style="fill:none;stroke:#fdb42f;stroke-linecap:round;stroke-width:1.5;"/>
   </g>
   <g id="line2d_7">
    <path clip-path="url(#pdc204e913d)" d="M 65.449896 30.98925 
L 72.099238 30.98925 
L 78.74858 30.98925 
L 85.397922 30.98925 
L 92.047264 30.98925 
L 98.696606 30.98925 
L 105.345948 30.98925 
L 111.99529 30.98925 
L 118.644632 30.98925 
L 125.293975 30.98925 
L 131.943317 30.98925 
L 138.592659 30.98925 
L 145.242001 30.98925 
L 151.891343 30.98925 
L 158.540685 30.98925 
L 165.190027 30.98925 
L 171.839369 30.98925 
L 178.488711 30.98925 
L 185.138054 30.98925 
L 191.787396 30.98925 
L 198.436738 30.98925 
L 205.08608 30.98925 
L 211.735422 30.98925 
L 218.384764 30.98925 
L 225.034106 30.98925 
L 231.683448 30.98925 
L 238.33279 30.98925 
L 244.982132 30.98925 
L 251.631475 30.98925 
L 258.280817 30.98925 
L 264.930159 30.98925 
L 271.579501 30.98925 
L 278.228843 30.98925 
L 284.878185 30.98925 
L 291.527527 30.98925 
L 298.176869 30.98925 
L 304.826211 30.98925 
L 311.475554 30.98925 
L 318.124896 30.98925 
" style="fill:none;stroke:#f0f921;stroke-linecap:round;stroke-width:1.5;"/>
   </g>
   <g id="line2d_8">
    <path clip-path="url(#pdc204e913d)" d="M 65.449896 183.638156 
L 72.099238 154.872644 
L 78.74858 152.393955 
L 85.397922 140.511617 
L 92.047264 135.009812 
L 98.696606 133.592484 
L 105.345948 131.918214 
L 111.99529 129.132499 
L 118.644632 124.51612 
L 125.293975 124.172036 
L 131.943317 123.272789 
L 138.592659 122.359129 
L 145.242001 120.015488 
L 151.891343 119.718037 
L 158.540685 119.673844 
L 165.190027 118.37533 
L 171.839369 117.171568 
L 178.488711 114.019777 
L 185.138054 113.80016 
L 191.787396 111.175133 
L 198.436738 111.14597 
L 205.08608 109.259871 
L 211.735422 108.523595 
L 218.384764 106.958278 
L 225.034106 106.582406 
L 231.683448 106.551933 
L 238.33279 104.840039 
L 244.982132 104.631856 
L 251.631475 103.753389 
L 258.280817 102.663201 
L 264.930159 101.687232 
L 271.579501 101.511539 
L 278.228843 97.999731 
L 284.878185 97.587139 
L 291.527527 97.576918 
L 298.176869 97.469736 
L 304.826211 97.113037 
L 311.475554 96.207794 
L 318.124896 96.205943 
" style="fill:none;stroke:#000000;stroke-linecap:round;stroke-width:6;"/>
   </g>
   <g id="patch_3">
    <path d="M 65.449896 283.66425 
L 65.449896 30.98925 
" style="fill:none;stroke:#262626;stroke-linecap:square;stroke-linejoin:miter;stroke-width:1.25;"/>
   </g>
   <g id="patch_4">
    <path d="M 65.449896 283.66425 
L 318.124896 283.66425 
" style="fill:none;stroke:#262626;stroke-linecap:square;stroke-linejoin:miter;stroke-width:1.25;"/>
   </g>
   <g id="legend_1">
    <g id="patch_5">
     <path d="M 212.442396 278.16425 
L 310.424896 278.16425 
Q 312.624896 278.16425 312.624896 275.96425 
L 312.624896 147.89675 
Q 312.624896 145.69675 310.424896 145.69675 
L 212.442396 145.69675 
Q 210.242396 145.69675 210.242396 147.89675 
L 210.242396 275.96425 
Q 210.242396 278.16425 212.442396 278.16425 
z
" style="fill:#ffffff;opacity:0.8;stroke:#cccccc;stroke-linejoin:miter;"/>
    </g>
    <g id="line2d_9">
     <path d="M 214.642396 154.605031 
L 236.642396 154.605031 
" style="fill:none;stroke:#0d0887;stroke-linecap:round;stroke-width:1.5;"/>
    </g>
    <g id="line2d_10"/>
    <g id="text_15">
     <text style="fill:#262626;font-family:DejaVu Sans;font-size:11px;font-stretch:normal;font-style:normal;font-weight:normal;text-anchor:start;" transform="rotate(-0, 245.442396, 158.455031)" x="245.442396" y="158.455031">1</text>
    </g>
    <g id="line2d_11">
     <path d="M 214.642396 170.750969 
L 236.642396 170.750969 
" style="fill:none;stroke:#5c01a6;stroke-linecap:round;stroke-width:1.5;"/>
    </g>
    <g id="line2d_12"/>
    <g id="text_16">
     <text style="fill:#262626;font-family:DejaVu Sans;font-size:11px;font-stretch:normal;font-style:normal;font-weight:normal;text-anchor:start;" transform="rotate(-0, 245.442396, 174.600969)" x="245.442396" y="174.600969">2/3</text>
    </g>
    <g id="line2d_13">
     <path d="M 214.642396 186.896906 
L 236.642396 186.896906 
" style="fill:none;stroke:#9c179e;stroke-linecap:round;stroke-width:1.5;"/>
    </g>
    <g id="line2d_14"/>
    <g id="text_17">
     <text style="fill:#262626;font-family:DejaVu Sans;font-size:11px;font-stretch:normal;font-style:normal;font-weight:normal;text-anchor:start;" transform="rotate(-0, 245.442396, 190.746906)" x="245.442396" y="190.746906">4</text>
    </g>
    <g id="line2d_15">
     <path d="M 214.642396 203.042844 
L 236.642396 203.042844 
" style="fill:none;stroke:#cc4778;stroke-linecap:round;stroke-width:1.5;"/>
    </g>
    <g id="line2d_16"/>
    <g id="text_18">
     <text style="fill:#262626;font-family:DejaVu Sans;font-size:11px;font-stretch:normal;font-style:normal;font-weight:normal;text-anchor:start;" transform="rotate(-0, 245.442396, 206.892844)" x="245.442396" y="206.892844">5</text>
    </g>
    <g id="line2d_17">
     <path d="M 214.642396 219.188781 
L 236.642396 219.188781 
" style="fill:none;stroke:#ed7953;stroke-linecap:round;stroke-width:1.5;"/>
    </g>
    <g id="line2d_18"/>
    <g id="text_19">
     <text style="fill:#262626;font-family:DejaVu Sans;font-size:11px;font-stretch:normal;font-style:normal;font-weight:normal;text-anchor:start;" transform="rotate(-0, 245.442396, 223.038781)" x="245.442396" y="223.038781">6a</text>
    </g>
    <g id="line2d_19">
     <path d="M 214.642396 235.334719 
L 236.642396 235.334719 
" style="fill:none;stroke:#fdb42f;stroke-linecap:round;stroke-width:1.5;"/>
    </g>
    <g id="line2d_20"/>
    <g id="text_20">
     <text style="fill:#262626;font-family:DejaVu Sans;font-size:11px;font-stretch:normal;font-style:normal;font-weight:normal;text-anchor:start;" transform="rotate(-0, 245.442396, 239.184719)" x="245.442396" y="239.184719">6b</text>
    </g>
    <g id="line2d_21">
     <path d="M 214.642396 251.480656 
L 236.642396 251.480656 
" style="fill:none;stroke:#f0f921;stroke-linecap:round;stroke-width:1.5;"/>
    </g>
    <g id="line2d_22"/>
    <g id="text_21">
     <text style="fill:#262626;font-family:DejaVu Sans;font-size:11px;font-stretch:normal;font-style:normal;font-weight:normal;text-anchor:start;" transform="rotate(-0, 245.442396, 255.330656)" x="245.442396" y="255.330656">NA</text>
    </g>
    <g id="line2d_23">
     <path d="M 214.642396 267.626594 
L 236.642396 267.626594 
" style="fill:none;stroke:#000000;stroke-linecap:round;stroke-width:6;"/>
    </g>
    <g id="line2d_24"/>
    <g id="text_22">
     <text style="fill:#262626;font-family:DejaVu Sans;font-size:11px;font-stretch:normal;font-style:normal;font-weight:normal;text-anchor:start;" transform="rotate(-0, 245.442396, 271.476594)" x="245.442396" y="271.476594">Cumulative</text>
    </g>
   </g>
  </g>
 </g>
 <defs>
  <clipPath id="pdc204e913d">
   <rect height="252.675" width="252.675" x="65.449896" y="30.98925"/>
  </clipPath>
 </defs>
</svg>
