<?xml version="1.0" encoding="utf-8" standalone="no"?>
<!DOCTYPE svg PUBLIC "-//W3C//DTD SVG 1.1//EN"
  "http://www.w3.org/Graphics/SVG/1.1/DTD/svg11.dtd">
<svg xmlns:xlink="http://www.w3.org/1999/xlink" width="252.27pt" height="35.9pt" viewBox="0 0 252.27 35.9" xmlns="http://www.w3.org/2000/svg" version="1.1">
 <metadata>
  <rdf:RDF xmlns:dc="http://purl.org/dc/elements/1.1/" xmlns:cc="http://creativecommons.org/ns#" xmlns:rdf="http://www.w3.org/1999/02/22-rdf-syntax-ns#">
   <cc:Work>
    <dc:type rdf:resource="http://purl.org/dc/dcmitype/StillImage"/>
    <dc:date>2023-09-02T13:05:57.253588</dc:date>
    <dc:format>image/svg+xml</dc:format>
    <dc:creator>
     <cc:Agent>
      <dc:title>Matplotlib v3.7.2, https://matplotlib.org/</dc:title>
     </cc:Agent>
    </dc:creator>
   </cc:Work>
  </rdf:RDF>
 </metadata>
 <defs>
  <style type="text/css">*{stroke-linejoin: round; stroke-linecap: butt}</style>
 </defs>
 <g id="figure_1">
  <g id="patch_1">
   <path d="M 0 35.9 
L 252.27 35.9 
L 252.27 0 
L 0 0 
z
" style="fill: #ffffff"/>
  </g>
  <g id="axes_1">
   <g id="legend_1">
    <g id="line2d_1">
     <path d="M 4.316016 9.062344 
L 15.316016 9.062344 
L 26.316016 9.062344 
" style="fill: none; stroke: #ffffff; stroke-width: 1.5; stroke-linecap: round"/>
     <defs>
      <path id="mba09afd721" d="M 0 5 
C 1.326016 5 2.597899 4.473168 3.535534 3.535534 
C 4.473168 2.597899 5 1.326016 5 0 
C 5 -1.326016 4.473168 -2.597899 3.535534 -3.535534 
C 2.597899 -4.473168 1.326016 -5 0 -5 
C -1.326016 -5 -2.597899 -4.473168 -3.535534 -3.535534 
C -4.473168 -2.597899 -5 -1.326016 -5 0 
C -5 1.326016 -4.473168 2.597899 -3.535534 3.535534 
C -2.597899 4.473168 -1.326016 5 0 5 
z
" style="stroke: #ffffff"/>
     </defs>
     <g>
      <use xlink:href="#mba09afd721" x="15.316016" y="9.062344" style="fill: #0d0887; stroke: #ffffff"/>
     </g>
    </g>
    <g id="text_1">
     <text style="fill: #262626; font: 11px 'Arial', 'DejaVu Sans', 'Liberation Sans', 'Bitstream Vera Sans', sans-serif; text-anchor: start" x="35.116016" y="12.912344" transform="rotate(-0 35.116016 12.912344)">1</text>
    </g>
    <g id="line2d_2">
     <path d="M 4.316016 25.208281 
L 15.316016 25.208281 
L 26.316016 25.208281 
" style="fill: none; stroke: #ffffff; stroke-width: 1.5; stroke-linecap: round"/>
     <defs>
      <path id="mb8ba1292a4" d="M 0 5 
C 1.326016 5 2.597899 4.473168 3.535534 3.535534 
C 4.473168 2.597899 5 1.326016 5 0 
C 5 -1.326016 4.473168 -2.597899 3.535534 -3.535534 
C 2.597899 -4.473168 1.326016 -5 0 -5 
C -1.326016 -5 -2.597899 -4.473168 -3.535534 -3.535534 
C -4.473168 -2.597899 -5 -1.326016 -5 0 
C -5 1.326016 -4.473168 2.597899 -3.535534 3.535534 
C -2.597899 4.473168 -1.326016 5 0 5 
z
" style="stroke: #ffffff"/>
     </defs>
     <g>
      <use xlink:href="#mb8ba1292a4" x="15.316016" y="25.208281" style="fill: #5c01a6; stroke: #ffffff"/>
     </g>
    </g>
    <g id="text_2">
     <text style="fill: #262626; font: 11px 'Arial', 'DejaVu Sans', 'Liberation Sans', 'Bitstream Vera Sans', sans-serif; text-anchor: start" x="35.116016" y="29.058281" transform="rotate(-0 35.116016 29.058281)">2/3</text>
    </g>
    <g id="line2d_3">
     <path d="M 74.819141 9.062344 
L 85.819141 9.062344 
L 96.819141 9.062344 
" style="fill: none; stroke: #ffffff; stroke-width: 1.5; stroke-linecap: round"/>
     <defs>
      <path id="mc6814f429d" d="M 0 5 
C 1.326016 5 2.597899 4.473168 3.535534 3.535534 
C 4.473168 2.597899 5 1.326016 5 0 
C 5 -1.326016 4.473168 -2.597899 3.535534 -3.535534 
C 2.597899 -4.473168 1.326016 -5 0 -5 
C -1.326016 -5 -2.597899 -4.473168 -3.535534 -3.535534 
C -4.473168 -2.597899 -5 -1.326016 -5 0 
C -5 1.326016 -4.473168 2.597899 -3.535534 3.535534 
C -2.597899 4.473168 -1.326016 5 0 5 
z
" style="stroke: #ffffff"/>
     </defs>
     <g>
      <use xlink:href="#mc6814f429d" x="85.819141" y="9.062344" style="fill: #9c179e; stroke: #ffffff"/>
     </g>
    </g>
    <g id="text_3">
     <text style="fill: #262626; font: 11px 'Arial', 'DejaVu Sans', 'Liberation Sans', 'Bitstream Vera Sans', sans-serif; text-anchor: start" x="105.619141" y="12.912344" transform="rotate(-0 105.619141 12.912344)">4</text>
    </g>
    <g id="line2d_4">
     <path d="M 74.819141 25.208281 
L 85.819141 25.208281 
L 96.819141 25.208281 
" style="fill: none; stroke: #ffffff; stroke-width: 1.5; stroke-linecap: round"/>
     <defs>
      <path id="m9bab4fc477" d="M 0 5 
C 1.326016 5 2.597899 4.473168 3.535534 3.535534 
C 4.473168 2.597899 5 1.326016 5 0 
C 5 -1.326016 4.473168 -2.597899 3.535534 -3.535534 
C 2.597899 -4.473168 1.326016 -5 0 -5 
C -1.326016 -5 -2.597899 -4.473168 -3.535534 -3.535534 
C -4.473168 -2.597899 -5 -1.326016 -5 0 
C -5 1.326016 -4.473168 2.597899 -3.535534 3.535534 
C -2.597899 4.473168 -1.326016 5 0 5 
z
" style="stroke: #ffffff"/>
     </defs>
     <g>
      <use xlink:href="#m9bab4fc477" x="85.819141" y="25.208281" style="fill: #cc4778; stroke: #ffffff"/>
     </g>
    </g>
    <g id="text_4">
     <text style="fill: #262626; font: 11px 'Arial', 'DejaVu Sans', 'Liberation Sans', 'Bitstream Vera Sans', sans-serif; text-anchor: start" x="105.619141" y="29.058281" transform="rotate(-0 105.619141 29.058281)">5</text>
    </g>
    <g id="line2d_5">
     <path d="M 134.617891 9.062344 
L 145.617891 9.062344 
L 156.617891 9.062344 
" style="fill: none; stroke: #ffffff; stroke-width: 1.5; stroke-linecap: round"/>
     <defs>
      <path id="m4d998975dc" d="M 0 5 
C 1.326016 5 2.597899 4.473168 3.535534 3.535534 
C 4.473168 2.597899 5 1.326016 5 0 
C 5 -1.326016 4.473168 -2.597899 3.535534 -3.535534 
C 2.597899 -4.473168 1.326016 -5 0 -5 
C -1.326016 -5 -2.597899 -4.473168 -3.535534 -3.535534 
C -4.473168 -2.597899 -5 -1.326016 -5 0 
C -5 1.326016 -4.473168 2.597899 -3.535534 3.535534 
C -2.597899 4.473168 -1.326016 5 0 5 
z
" style="stroke: #ffffff"/>
     </defs>
     <g>
      <use xlink:href="#m4d998975dc" x="145.617891" y="9.062344" style="fill: #ed7953; stroke: #ffffff"/>
     </g>
    </g>
    <g id="text_5">
     <text style="fill: #262626; font: 11px 'Arial', 'DejaVu Sans', 'Liberation Sans', 'Bitstream Vera Sans', sans-serif; text-anchor: start" x="165.417891" y="12.912344" transform="rotate(-0 165.417891 12.912344)">6a</text>
    </g>
    <g id="line2d_6">
     <path d="M 134.617891 25.208281 
L 145.617891 25.208281 
L 156.617891 25.208281 
" style="fill: none; stroke: #ffffff; stroke-width: 1.5; stroke-linecap: round"/>
     <defs>
      <path id="mb23d8d4774" d="M 0 5 
C 1.326016 5 2.597899 4.473168 3.535534 3.535534 
C 4.473168 2.597899 5 1.326016 5 0 
C 5 -1.326016 4.473168 -2.597899 3.535534 -3.535534 
C 2.597899 -4.473168 1.326016 -5 0 -5 
C -1.326016 -5 -2.597899 -4.473168 -3.535534 -3.535534 
C -4.473168 -2.597899 -5 -1.326016 -5 0 
C -5 1.326016 -4.473168 2.597899 -3.535534 3.535534 
C -2.597899 4.473168 -1.326016 5 0 5 
z
" style="stroke: #ffffff"/>
     </defs>
     <g>
      <use xlink:href="#mb23d8d4774" x="145.617891" y="25.208281" style="fill: #fdb42f; stroke: #ffffff"/>
     </g>
    </g>
    <g id="text_6">
     <text style="fill: #262626; font: 11px 'Arial', 'DejaVu Sans', 'Liberation Sans', 'Bitstream Vera Sans', sans-serif; text-anchor: start" x="165.417891" y="29.058281" transform="rotate(-0 165.417891 29.058281)">6b</text>
    </g>
    <g id="line2d_7">
     <path d="M 201.399922 9.062344 
L 212.399922 9.062344 
L 223.399922 9.062344 
" style="fill: none; stroke: #ffffff; stroke-width: 1.5; stroke-linecap: round"/>
     <defs>
      <path id="m1dde6e9b8c" d="M 0 5 
C 1.326016 5 2.597899 4.473168 3.535534 3.535534 
C 4.473168 2.597899 5 1.326016 5 0 
C 5 -1.326016 4.473168 -2.597899 3.535534 -3.535534 
C 2.597899 -4.473168 1.326016 -5 0 -5 
C -1.326016 -5 -2.597899 -4.473168 -3.535534 -3.535534 
C -4.473168 -2.597899 -5 -1.326016 -5 0 
C -5 1.326016 -4.473168 2.597899 -3.535534 3.535534 
C -2.597899 4.473168 -1.326016 5 0 5 
z
" style="stroke: #ffffff"/>
     </defs>
     <g>
      <use xlink:href="#m1dde6e9b8c" x="212.399922" y="9.062344" style="fill: #f0f921; stroke: #ffffff"/>
     </g>
    </g>
    <g id="text_7">
     <text style="fill: #262626; font: 11px 'Arial', 'DejaVu Sans', 'Liberation Sans', 'Bitstream Vera Sans', sans-serif; text-anchor: start" x="232.199922" y="12.912344" transform="rotate(-0 232.199922 12.912344)">NA</text>
    </g>
   </g>
  </g>
 </g>
</svg>
