<?xml version="1.0" encoding="utf-8" standalone="no"?>
<!DOCTYPE svg PUBLIC "-//W3C//DTD SVG 1.1//EN"
  "http://www.w3.org/Graphics/SVG/1.1/DTD/svg11.dtd">
<svg height="334.704381pt" version="1.1" viewBox="0 0 337.247468 334.704381" width="337.247468pt" xmlns="http://www.w3.org/2000/svg" xmlns:xlink="http://www.w3.org/1999/xlink">
 <metadata>
  <rdf:RDF xmlns:cc="http://creativecommons.org/ns#" xmlns:dc="http://purl.org/dc/elements/1.1/" xmlns:rdf="http://www.w3.org/1999/02/22-rdf-syntax-ns#">
   <cc:Work>
    <dc:type rdf:resource="http://purl.org/dc/dcmitype/StillImage"/>
    <dc:date>2023-04-27T13:19:16.823938</dc:date>
    <dc:format>image/svg+xml</dc:format>
    <dc:creator>
     <cc:Agent>
      <dc:title>Matplotlib v3.4.3, https://matplotlib.org/</dc:title>
     </cc:Agent>
    </dc:creator>
   </cc:Work>
  </rdf:RDF>
 </metadata>
 <defs>
  <style type="text/css">*{stroke-linecap:butt;stroke-linejoin:round;}</style>
 </defs>
 <g id="figure_1">
  <g id="patch_1">
   <path d="M 0 334.704381 
L 337.247468 334.704381 
L 337.247468 0 
L 0 0 
z
" style="fill:#ffffff;"/>
  </g>
  <g id="axes_1">
   <g id="patch_2">
    <path d="M 65.449896 278.58825 
L 318.124896 278.58825 
L 318.124896 25.91325 
L 65.449896 25.91325 
z
" style="fill:#ffffff;"/>
   </g>
   <g id="matplotlib.axis_1">
    <g id="xtick_1">
     <g id="text_1">
      <text style="fill:#262626;font-family:DejaVu Sans;font-size:14.994px;font-stretch:normal;font-style:normal;font-weight:normal;text-anchor:middle;" transform="rotate(-0, 65.449896, 299.481347)" x="65.449896" y="299.481347">0.0</text>
     </g>
    </g>
    <g id="xtick_2">
     <g id="text_2">
      <text style="fill:#262626;font-family:DejaVu Sans;font-size:14.994px;font-stretch:normal;font-style:normal;font-weight:normal;text-anchor:middle;" transform="rotate(-0, 115.984896, 299.481347)" x="115.984896" y="299.481347">0.2</text>
     </g>
    </g>
    <g id="xtick_3">
     <g id="text_3">
      <text style="fill:#262626;font-family:DejaVu Sans;font-size:14.994px;font-stretch:normal;font-style:normal;font-weight:normal;text-anchor:middle;" transform="rotate(-0, 166.519896, 299.481347)" x="166.519896" y="299.481347">0.4</text>
     </g>
    </g>
    <g id="xtick_4">
     <g id="text_4">
      <text style="fill:#262626;font-family:DejaVu Sans;font-size:14.994px;font-stretch:normal;font-style:normal;font-weight:normal;text-anchor:middle;" transform="rotate(-0, 217.054896, 299.481347)" x="217.054896" y="299.481347">0.6</text>
     </g>
    </g>
    <g id="xtick_5">
     <g id="text_5">
      <text style="fill:#262626;font-family:DejaVu Sans;font-size:14.994px;font-stretch:normal;font-style:normal;font-weight:normal;text-anchor:middle;" transform="rotate(-0, 267.589896, 299.481347)" x="267.589896" y="299.481347">0.8</text>
     </g>
    </g>
    <g id="xtick_6">
     <g id="text_6">
      <text style="fill:#262626;font-family:DejaVu Sans;font-size:14.994px;font-stretch:normal;font-style:normal;font-weight:normal;text-anchor:middle;" transform="rotate(-0, 318.124896, 299.481347)" x="318.124896" y="299.481347">1.0</text>
     </g>
    </g>
    <g id="text_7">
     <text style="fill:#262626;font-family:DejaVu Sans;font-size:21.6px;font-stretch:normal;font-style:normal;font-weight:normal;text-anchor:middle;" transform="rotate(-0, 191.787396, 323.012256)" x="191.787396" y="323.012256">Percentile</text>
    </g>
   </g>
   <g id="matplotlib.axis_2">
    <g id="ytick_1">
     <g id="text_8">
      <text style="fill:#262626;font-family:DejaVu Sans;font-size:14.994px;font-stretch:normal;font-style:normal;font-weight:normal;text-anchor:end;" transform="rotate(-0, 55.949896, 284.284799)" x="55.949896" y="284.284799">0.0</text>
     </g>
    </g>
    <g id="ytick_2">
     <g id="text_9">
      <text style="fill:#262626;font-family:DejaVu Sans;font-size:14.994px;font-stretch:normal;font-style:normal;font-weight:normal;text-anchor:end;" transform="rotate(-0, 55.949896, 233.749799)" x="55.949896" y="233.749799">0.2</text>
     </g>
    </g>
    <g id="ytick_3">
     <g id="text_10">
      <text style="fill:#262626;font-family:DejaVu Sans;font-size:14.994px;font-stretch:normal;font-style:normal;font-weight:normal;text-anchor:end;" transform="rotate(-0, 55.949896, 183.214799)" x="55.949896" y="183.214799">0.4</text>
     </g>
    </g>
    <g id="ytick_4">
     <g id="text_11">
      <text style="fill:#262626;font-family:DejaVu Sans;font-size:14.994px;font-stretch:normal;font-style:normal;font-weight:normal;text-anchor:end;" transform="rotate(-0, 55.949896, 132.679799)" x="55.949896" y="132.679799">0.6</text>
     </g>
    </g>
    <g id="ytick_5">
     <g id="text_12">
      <text style="fill:#262626;font-family:DejaVu Sans;font-size:14.994px;font-stretch:normal;font-style:normal;font-weight:normal;text-anchor:end;" transform="rotate(-0, 55.949896, 82.144799)" x="55.949896" y="82.144799">0.8</text>
     </g>
    </g>
    <g id="ytick_6">
     <g id="text_13">
      <text style="fill:#262626;font-family:DejaVu Sans;font-size:14.994px;font-stretch:normal;font-style:normal;font-weight:normal;text-anchor:end;" transform="rotate(-0, 55.949896, 31.609799)" x="55.949896" y="31.609799">1.0</text>
     </g>
    </g>
    <g id="text_14">
     <text style="fill:#262626;font-family:DejaVu Sans;font-size:21.6px;font-stretch:normal;font-style:normal;font-weight:normal;text-anchor:middle;" transform="rotate(-90, 23.612625, 152.25075)" x="23.612625" y="152.25075">Gene Expression Similarity</text>
    </g>
   </g>
   <g id="line2d_1">
    <path clip-path="url(#p70b5d6488a)" d="M 65.449896 225.944452 
L 68.002168 216.514398 
L 70.554441 212.8295 
L 73.106714 211.868389 
L 75.658987 210.921057 
L 78.211259 209.511914 
L 80.763532 208.840531 
L 83.315805 199.295147 
L 85.868077 198.901619 
L 88.42035 197.484535 
L 90.972623 197.278442 
L 93.524896 197.199642 
L 96.077168 196.064613 
L 98.629441 193.646796 
L 101.181714 193.448292 
L 103.733987 191.883703 
L 106.286259 191.81783 
L 108.838532 190.241674 
L 111.390805 189.434287 
L 113.943077 189.31509 
L 116.49535 187.894488 
L 119.047623 186.707002 
L 121.599896 186.285727 
L 124.152168 184.042843 
L 126.704441 182.932243 
L 129.256714 181.952123 
L 131.808987 181.748104 
L 134.361259 181.148375 
L 136.913532 180.863848 
L 139.465805 180.339031 
L 142.018077 180.0686 
L 144.57035 179.319348 
L 147.122623 179.006901 
L 149.674896 178.59256 
L 152.227168 178.558524 
L 154.779441 177.736833 
L 157.331714 175.589817 
L 159.883987 173.748724 
L 162.436259 173.061525 
L 164.988532 172.818653 
L 167.540805 172.134666 
L 170.093077 171.990758 
L 172.64535 171.317443 
L 175.197623 171.131786 
L 177.749896 170.926973 
L 180.302168 169.600113 
L 182.854441 169.418422 
L 185.406714 169.078838 
L 187.958987 168.24172 
L 190.511259 167.39162 
L 193.063532 166.899882 
L 195.615805 165.78256 
L 198.168077 165.286833 
L 200.72035 165.168204 
L 203.272623 161.772977 
L 205.824896 161.61138 
L 208.377168 161.555649 
L 210.929441 159.304471 
L 213.481714 158.848485 
L 216.033987 158.627898 
L 218.586259 158.180308 
L 221.138532 157.542325 
L 223.690805 155.812868 
L 226.243077 155.322218 
L 228.79535 154.809698 
L 231.347623 154.682255 
L 233.899896 154.38277 
L 236.452168 153.794745 
L 239.004441 152.070202 
L 241.556714 152.002551 
L 244.108987 151.727743 
L 246.661259 151.444106 
L 249.213532 149.920003 
L 251.765805 146.790277 
L 254.318077 144.375155 
L 256.87035 144.361999 
L 259.422623 144.213809 
L 261.974896 143.848533 
L 264.527168 143.218612 
L 267.079441 142.358907 
L 269.631714 141.486521 
L 272.183987 141.173016 
L 274.736259 140.798261 
L 277.288532 138.456702 
L 279.840805 138.38463 
L 282.393077 136.077111 
L 284.94535 135.310224 
L 287.497623 134.998583 
L 290.049896 132.739272 
L 292.602168 131.495728 
L 295.154441 131.363691 
L 297.706714 130.825849 
L 300.258987 130.29455 
L 302.811259 122.348641 
L 305.363532 121.373707 
L 307.915805 119.170604 
L 310.468077 116.73909 
L 313.02035 116.365933 
L 315.572623 114.783545 
L 318.124896 111.181788 
" style="fill:none;stroke:#0d0887;stroke-linecap:round;stroke-width:1.5;"/>
   </g>
   <g id="line2d_2">
    <path clip-path="url(#p70b5d6488a)" d="M 65.449896 214.306472 
L 68.002168 213.956139 
L 70.554441 201.890593 
L 73.106714 197.432563 
L 75.658987 197.312333 
L 78.211259 196.845086 
L 80.763532 196.432749 
L 83.315805 195.535402 
L 85.868077 194.445178 
L 88.42035 194.332069 
L 90.972623 189.006026 
L 93.524896 186.002943 
L 96.077168 185.869302 
L 98.629441 185.562492 
L 101.181714 184.064605 
L 103.733987 183.548731 
L 106.286259 182.523462 
L 108.838532 182.402167 
L 111.390805 182.307613 
L 113.943077 181.824038 
L 116.49535 180.808616 
L 119.047623 179.218535 
L 121.599896 177.732042 
L 124.152168 176.522323 
L 126.704441 176.436925 
L 129.256714 176.309849 
L 131.808987 175.364445 
L 134.361259 174.058558 
L 136.913532 171.337087 
L 139.465805 170.833421 
L 142.018077 170.696998 
L 144.57035 170.307683 
L 147.122623 169.484644 
L 149.674896 169.295165 
L 152.227168 168.623624 
L 154.779441 168.318667 
L 157.331714 168.224703 
L 159.883987 167.284163 
L 162.436259 167.053215 
L 164.988532 166.780129 
L 167.540805 166.71053 
L 170.093077 166.251724 
L 172.64535 164.576262 
L 175.197623 163.357119 
L 177.749896 161.222959 
L 180.302168 159.76244 
L 182.854441 159.580287 
L 185.406714 159.108001 
L 187.958987 159.093446 
L 190.511259 158.129761 
L 193.063532 157.555377 
L 195.615805 157.260492 
L 198.168077 157.216496 
L 200.72035 156.817374 
L 203.272623 156.590479 
L 205.824896 156.552783 
L 208.377168 154.48296 
L 210.929441 154.085283 
L 213.481714 151.907229 
L 216.033987 151.767343 
L 218.586259 151.037473 
L 221.138532 150.107017 
L 223.690805 149.809416 
L 226.243077 148.145518 
L 228.79535 146.897319 
L 231.347623 146.427494 
L 233.899896 145.909402 
L 236.452168 144.403409 
L 239.004441 144.360514 
L 241.556714 144.150792 
L 244.108987 143.477189 
L 246.661259 143.399588 
L 249.213532 142.978462 
L 251.765805 142.294182 
L 254.318077 140.412906 
L 256.87035 138.636133 
L 259.422623 137.918981 
L 261.974896 136.674321 
L 264.527168 133.377865 
L 267.079441 132.850136 
L 269.631714 132.693208 
L 272.183987 132.157836 
L 274.736259 131.597473 
L 277.288532 129.87184 
L 279.840805 129.836632 
L 282.393077 129.126003 
L 284.94535 128.81652 
L 287.497623 126.916769 
L 290.049896 126.221384 
L 292.602168 125.23407 
L 295.154441 124.66754 
L 297.706714 122.534822 
L 300.258987 122.08845 
L 302.811259 122.059642 
L 305.363532 117.925756 
L 307.915805 117.147759 
L 310.468077 115.794486 
L 313.02035 106.107095 
L 315.572623 104.083767 
L 318.124896 97.260552 
" style="fill:none;stroke:#5c01a6;stroke-linecap:round;stroke-width:1.5;"/>
   </g>
   <g id="line2d_3">
    <path clip-path="url(#p70b5d6488a)" d="M 65.449896 204.366125 
L 68.002168 203.65829 
L 70.554441 201.036039 
L 73.106714 200.494155 
L 75.658987 194.659624 
L 78.211259 193.994152 
L 80.763532 192.827656 
L 83.315805 190.908895 
L 85.868077 189.56013 
L 88.42035 189.113675 
L 90.972623 189.090455 
L 93.524896 188.710279 
L 96.077168 187.655863 
L 98.629441 186.958926 
L 101.181714 186.254265 
L 103.733987 183.132938 
L 106.286259 183.125691 
L 108.838532 182.70184 
L 111.390805 180.734188 
L 113.943077 179.503866 
L 116.49535 179.470182 
L 119.047623 177.606344 
L 121.599896 177.195151 
L 124.152168 176.616886 
L 126.704441 176.57372 
L 129.256714 176.336912 
L 131.808987 176.210786 
L 134.361259 174.868936 
L 136.913532 174.86308 
L 139.465805 172.328641 
L 142.018077 171.771622 
L 144.57035 171.468498 
L 147.122623 169.555662 
L 149.674896 169.265384 
L 152.227168 168.68156 
L 154.779441 168.406081 
L 157.331714 167.692937 
L 159.883987 166.800061 
L 162.436259 166.033149 
L 164.988532 165.909205 
L 167.540805 164.88741 
L 170.093077 164.67519 
L 172.64535 163.896305 
L 175.197623 162.381278 
L 177.749896 161.645943 
L 180.302168 161.61732 
L 182.854441 160.601492 
L 185.406714 159.48208 
L 187.958987 158.780541 
L 190.511259 158.265382 
L 193.063532 157.300181 
L 195.615805 156.836264 
L 198.168077 156.333826 
L 200.72035 155.393986 
L 203.272623 155.27627 
L 205.824896 154.900218 
L 208.377168 154.871234 
L 210.929441 154.642227 
L 213.481714 154.610453 
L 216.033987 153.231366 
L 218.586259 153.04892 
L 221.138532 150.38038 
L 223.690805 150.184985 
L 226.243077 150.158367 
L 228.79535 149.642118 
L 231.347623 148.355062 
L 233.899896 146.997922 
L 236.452168 146.422171 
L 239.004441 145.857754 
L 241.556714 144.806134 
L 244.108987 144.471821 
L 246.661259 143.336161 
L 249.213532 143.098238 
L 251.765805 142.635036 
L 254.318077 141.252496 
L 256.87035 140.208314 
L 259.422623 139.50311 
L 261.974896 139.325132 
L 264.527168 138.580329 
L 267.079441 138.499384 
L 269.631714 138.372074 
L 272.183987 136.000109 
L 274.736259 135.575145 
L 277.288532 133.783763 
L 279.840805 133.218686 
L 282.393077 133.124314 
L 284.94535 132.806573 
L 287.497623 132.639035 
L 290.049896 131.76741 
L 292.602168 131.398951 
L 295.154441 129.910702 
L 297.706714 129.708663 
L 300.258987 129.692693 
L 302.811259 128.314509 
L 305.363532 127.164948 
L 307.915805 126.773305 
L 310.468077 124.994054 
L 313.02035 123.585998 
L 315.572623 115.772787 
L 318.124896 109.431789 
" style="fill:none;stroke:#9c179e;stroke-linecap:round;stroke-width:1.5;"/>
   </g>
   <g id="line2d_4">
    <path clip-path="url(#p70b5d6488a)" d="M 65.449896 224.210525 
L 68.002168 210.95027 
L 70.554441 204.119718 
L 73.106714 198.021185 
L 75.658987 195.999321 
L 78.211259 195.332256 
L 80.763532 192.583167 
L 83.315805 190.432961 
L 85.868077 188.884866 
L 88.42035 188.811488 
L 90.972623 188.738253 
L 93.524896 186.965727 
L 96.077168 186.127757 
L 98.629441 185.853457 
L 101.181714 185.412216 
L 103.733987 185.351133 
L 106.286259 185.069447 
L 108.838532 184.702111 
L 111.390805 183.086244 
L 113.943077 182.861536 
L 116.49535 182.604673 
L 119.047623 180.159178 
L 121.599896 179.688334 
L 124.152168 179.624193 
L 126.704441 179.615377 
L 129.256714 177.838206 
L 131.808987 177.592095 
L 134.361259 176.92032 
L 136.913532 175.657665 
L 139.465805 174.891425 
L 142.018077 172.047744 
L 144.57035 170.40672 
L 147.122623 170.213085 
L 149.674896 169.495826 
L 152.227168 169.074347 
L 154.779441 168.681512 
L 157.331714 168.678709 
L 159.883987 168.38835 
L 162.436259 168.386181 
L 164.988532 167.463353 
L 167.540805 167.237638 
L 170.093077 167.121261 
L 172.64535 165.537752 
L 175.197623 165.236374 
L 177.749896 164.815286 
L 180.302168 163.586916 
L 182.854441 163.545776 
L 185.406714 163.38179 
L 187.958987 163.162481 
L 190.511259 161.738375 
L 193.063532 161.479541 
L 195.615805 160.630209 
L 198.168077 160.550187 
L 200.72035 160.160502 
L 203.272623 159.570755 
L 205.824896 157.581987 
L 208.377168 157.565065 
L 210.929441 156.95348 
L 213.481714 156.943226 
L 216.033987 155.819333 
L 218.586259 153.679097 
L 221.138532 153.269487 
L 223.690805 153.134366 
L 226.243077 153.011101 
L 228.79535 152.945734 
L 231.347623 152.558837 
L 233.899896 152.490264 
L 236.452168 152.289089 
L 239.004441 151.392739 
L 241.556714 150.860134 
L 244.108987 150.755273 
L 246.661259 149.048375 
L 249.213532 148.807969 
L 251.765805 148.107099 
L 254.318077 146.77726 
L 256.87035 146.276703 
L 259.422623 145.851164 
L 261.974896 145.295165 
L 264.527168 143.798447 
L 267.079441 143.511496 
L 269.631714 143.117637 
L 272.183987 142.274872 
L 274.736259 140.234432 
L 277.288532 138.240231 
L 279.840805 137.646824 
L 282.393077 137.60306 
L 284.94535 136.454351 
L 287.497623 136.317764 
L 290.049896 136.211073 
L 292.602168 136.058185 
L 295.154441 133.614878 
L 297.706714 132.488099 
L 300.258987 131.460109 
L 302.811259 130.021515 
L 305.363532 127.738975 
L 307.915805 125.120755 
L 310.468077 124.506666 
L 313.02035 120.149107 
L 315.572623 118.612422 
L 318.124896 116.1882 
" style="fill:none;stroke:#cc4778;stroke-linecap:round;stroke-width:1.5;"/>
   </g>
   <g id="line2d_5">
    <path clip-path="url(#p70b5d6488a)" d="M 65.449896 206.828316 
L 68.002168 203.889932 
L 70.554441 202.45561 
L 73.106714 200.802419 
L 75.658987 200.237662 
L 78.211259 197.044716 
L 80.763532 194.655012 
L 83.315805 192.737593 
L 85.868077 191.286698 
L 88.42035 189.461353 
L 90.972623 189.103024 
L 93.524896 188.755551 
L 96.077168 186.680777 
L 98.629441 186.537854 
L 101.181714 186.537051 
L 103.733987 186.184794 
L 106.286259 185.800236 
L 108.838532 184.580945 
L 111.390805 184.443286 
L 113.943077 184.131179 
L 116.49535 183.354415 
L 119.047623 183.289654 
L 121.599896 182.027076 
L 124.152168 180.809527 
L 126.704441 178.626237 
L 129.256714 178.28247 
L 131.808987 178.099718 
L 134.361259 176.486318 
L 136.913532 176.464378 
L 139.465805 176.005186 
L 142.018077 175.264932 
L 144.57035 174.969747 
L 147.122623 174.802191 
L 149.674896 173.809614 
L 152.227168 172.588318 
L 154.779441 172.359706 
L 157.331714 171.587244 
L 159.883987 169.06487 
L 162.436259 168.052787 
L 164.988532 167.339143 
L 167.540805 167.116971 
L 170.093077 166.92553 
L 172.64535 166.90159 
L 175.197623 166.238033 
L 177.749896 165.93855 
L 180.302168 165.690618 
L 182.854441 165.286926 
L 185.406714 164.89691 
L 187.958987 164.889917 
L 190.511259 164.393621 
L 193.063532 164.203215 
L 195.615805 162.323191 
L 198.168077 162.017474 
L 200.72035 160.869612 
L 203.272623 160.611266 
L 205.824896 160.425731 
L 208.377168 159.988568 
L 210.929441 159.787467 
L 213.481714 159.340571 
L 216.033987 159.277342 
L 218.586259 158.818502 
L 221.138532 158.472562 
L 223.690805 157.240533 
L 226.243077 157.088587 
L 228.79535 156.839155 
L 231.347623 156.782346 
L 233.899896 156.687004 
L 236.452168 155.629542 
L 239.004441 154.012541 
L 241.556714 151.502975 
L 244.108987 151.371072 
L 246.661259 151.173507 
L 249.213532 149.892037 
L 251.765805 149.523549 
L 254.318077 148.894363 
L 256.87035 148.399313 
L 259.422623 148.187787 
L 261.974896 147.078609 
L 264.527168 147.039061 
L 267.079441 145.988813 
L 269.631714 144.762169 
L 272.183987 143.979107 
L 274.736259 142.339609 
L 277.288532 140.756964 
L 279.840805 140.660686 
L 282.393077 139.267363 
L 284.94535 138.452629 
L 287.497623 138.285308 
L 290.049896 137.026132 
L 292.602168 136.249941 
L 295.154441 135.332078 
L 297.706714 134.724517 
L 300.258987 134.135157 
L 302.811259 131.667808 
L 305.363532 129.293264 
L 307.915805 127.322564 
L 310.468077 120.273436 
L 313.02035 117.473134 
L 315.572623 105.010194 
L 318.124896 99.325976 
" style="fill:none;stroke:#ed7953;stroke-linecap:round;stroke-width:1.5;"/>
   </g>
   <g id="line2d_6">
    <path clip-path="url(#p70b5d6488a)" d="M 65.449896 236.278986 
L 68.002168 236.278986 
L 70.554441 236.278986 
L 73.106714 236.278986 
L 75.658987 236.278986 
L 78.211259 236.278986 
L 80.763532 236.278986 
L 83.315805 236.278986 
L 85.868077 236.278986 
L 88.42035 236.278986 
L 90.972623 236.278986 
L 93.524896 236.278986 
L 96.077168 234.602739 
L 98.629441 232.112916 
L 101.181714 220.463183 
L 103.733987 215.812118 
L 106.286259 190.954372 
L 108.838532 183.003418 
L 111.390805 177.911777 
L 113.943077 175.893195 
L 116.49535 175.893195 
L 119.047623 175.222456 
L 121.599896 174.552739 
L 124.152168 167.246904 
L 126.704441 160.031885 
L 129.256714 131.753107 
L 131.808987 130.438308 
L 134.361259 119.765788 
L 136.913532 118.747039 
L 139.465805 109.729821 
L 142.018077 90.8513 
L 144.57035 25.91325 
L 147.122623 25.91325 
L 149.674896 25.91325 
L 152.227168 25.91325 
L 154.779441 25.91325 
L 157.331714 25.91325 
L 159.883987 25.91325 
L 162.436259 25.91325 
L 164.988532 25.91325 
L 167.540805 25.91325 
L 170.093077 25.91325 
L 172.64535 25.91325 
L 175.197623 25.91325 
L 177.749896 25.91325 
L 180.302168 25.91325 
L 182.854441 25.91325 
L 185.406714 25.91325 
L 187.958987 25.91325 
L 190.511259 25.91325 
L 193.063532 25.91325 
L 195.615805 25.91325 
L 198.168077 25.91325 
L 200.72035 25.91325 
L 203.272623 25.91325 
L 205.824896 25.91325 
L 208.377168 25.91325 
L 210.929441 25.91325 
L 213.481714 25.91325 
L 216.033987 25.91325 
L 218.586259 25.91325 
L 221.138532 25.91325 
L 223.690805 25.91325 
L 226.243077 25.91325 
L 228.79535 25.91325 
L 231.347623 25.91325 
L 233.899896 25.91325 
L 236.452168 25.91325 
L 239.004441 25.91325 
L 241.556714 25.91325 
L 244.108987 25.91325 
L 246.661259 25.91325 
L 249.213532 25.91325 
L 251.765805 25.91325 
L 254.318077 25.91325 
L 256.87035 25.91325 
L 259.422623 25.91325 
L 261.974896 25.91325 
L 264.527168 25.91325 
L 267.079441 25.91325 
L 269.631714 25.91325 
L 272.183987 25.91325 
L 274.736259 25.91325 
L 277.288532 25.91325 
L 279.840805 25.91325 
L 282.393077 25.91325 
L 284.94535 25.91325 
L 287.497623 25.91325 
L 290.049896 25.91325 
L 292.602168 25.91325 
L 295.154441 25.91325 
L 297.706714 25.91325 
L 300.258987 25.91325 
L 302.811259 25.91325 
L 305.363532 25.91325 
L 307.915805 25.91325 
L 310.468077 25.91325 
L 313.02035 25.91325 
L 315.572623 25.91325 
L 318.124896 25.91325 
" style="fill:none;stroke:#fdb42f;stroke-linecap:round;stroke-width:1.5;"/>
   </g>
   <g id="line2d_7">
    <path clip-path="url(#p70b5d6488a)" d="M 65.449896 25.91325 
L 68.002168 25.91325 
L 70.554441 25.91325 
L 73.106714 25.91325 
L 75.658987 25.91325 
L 78.211259 25.91325 
L 80.763532 25.91325 
L 83.315805 25.91325 
L 85.868077 25.91325 
L 88.42035 25.91325 
L 90.972623 25.91325 
L 93.524896 25.91325 
L 96.077168 25.91325 
L 98.629441 25.91325 
L 101.181714 25.91325 
L 103.733987 25.91325 
L 106.286259 25.91325 
L 108.838532 25.91325 
L 111.390805 25.91325 
L 113.943077 25.91325 
L 116.49535 25.91325 
L 119.047623 25.91325 
L 121.599896 25.91325 
L 124.152168 25.91325 
L 126.704441 25.91325 
L 129.256714 25.91325 
L 131.808987 25.91325 
L 134.361259 25.91325 
L 136.913532 25.91325 
L 139.465805 25.91325 
L 142.018077 25.91325 
L 144.57035 25.91325 
L 147.122623 25.91325 
L 149.674896 25.91325 
L 152.227168 25.91325 
L 154.779441 25.91325 
L 157.331714 25.91325 
L 159.883987 25.91325 
L 162.436259 25.91325 
L 164.988532 25.91325 
L 167.540805 25.91325 
L 170.093077 25.91325 
L 172.64535 25.91325 
L 175.197623 25.91325 
L 177.749896 25.91325 
L 180.302168 25.91325 
L 182.854441 25.91325 
L 185.406714 25.91325 
L 187.958987 25.91325 
L 190.511259 25.91325 
L 193.063532 25.91325 
L 195.615805 25.91325 
L 198.168077 25.91325 
L 200.72035 25.91325 
L 203.272623 25.91325 
L 205.824896 25.91325 
L 208.377168 25.91325 
L 210.929441 25.91325 
L 213.481714 25.91325 
L 216.033987 25.91325 
L 218.586259 25.91325 
L 221.138532 25.91325 
L 223.690805 25.91325 
L 226.243077 25.91325 
L 228.79535 25.91325 
L 231.347623 25.91325 
L 233.899896 25.91325 
L 236.452168 25.91325 
L 239.004441 25.91325 
L 241.556714 25.91325 
L 244.108987 25.91325 
L 246.661259 25.91325 
L 249.213532 25.91325 
L 251.765805 25.91325 
L 254.318077 25.91325 
L 256.87035 25.91325 
L 259.422623 25.91325 
L 261.974896 25.91325 
L 264.527168 25.91325 
L 267.079441 25.91325 
L 269.631714 25.91325 
L 272.183987 25.91325 
L 274.736259 25.91325 
L 277.288532 25.91325 
L 279.840805 25.91325 
L 282.393077 25.91325 
L 284.94535 25.91325 
L 287.497623 25.91325 
L 290.049896 25.91325 
L 292.602168 25.91325 
L 295.154441 25.91325 
L 297.706714 25.91325 
L 300.258987 25.91325 
L 302.811259 25.91325 
L 305.363532 25.91325 
L 307.915805 25.91325 
L 310.468077 25.91325 
L 313.02035 25.91325 
L 315.572623 25.91325 
L 318.124896 25.91325 
" style="fill:none;stroke:#f0f921;stroke-linecap:round;stroke-width:1.5;"/>
   </g>
   <g id="line2d_8">
    <path clip-path="url(#p70b5d6488a)" d="M 65.449896 174.816917 
L 68.002168 174.017 
L 70.554441 171.148698 
L 73.106714 166.813076 
L 75.658987 162.131691 
L 78.211259 161.953654 
L 80.763532 159.175179 
L 83.315805 156.811371 
L 85.868077 153.061295 
L 88.42035 151.640532 
L 90.972623 151.15466 
L 93.524896 151.030551 
L 96.077168 150.007795 
L 98.629441 149.986165 
L 101.181714 149.516604 
L 103.733987 147.958061 
L 106.286259 147.835426 
L 108.838532 146.912468 
L 111.390805 146.672273 
L 113.943077 146.529151 
L 116.49535 146.46653 
L 119.047623 145.645187 
L 121.599896 144.457289 
L 124.152168 140.889596 
L 126.704441 140.789107 
L 129.256714 140.417431 
L 131.808987 139.825764 
L 134.361259 139.303434 
L 136.913532 139.235602 
L 139.465805 138.948289 
L 142.018077 138.569119 
L 144.57035 138.315789 
L 147.122623 138.240214 
L 149.674896 137.992543 
L 152.227168 137.548713 
L 154.779441 137.15854 
L 157.331714 136.93692 
L 159.883987 135.85035 
L 162.436259 135.578765 
L 164.988532 135.480083 
L 167.540805 135.297289 
L 170.093077 134.123105 
L 172.64535 133.539706 
L 175.197623 132.57367 
L 177.749896 132.231063 
L 180.302168 132.220115 
L 182.854441 132.143515 
L 185.406714 131.783117 
L 187.958987 131.384408 
L 190.511259 130.95518 
L 193.063532 130.4807 
L 195.615805 128.517185 
L 198.168077 127.456213 
L 200.72035 127.421648 
L 203.272623 126.198499 
L 205.824896 125.650402 
L 208.377168 124.839253 
L 210.929441 124.817227 
L 213.481714 124.80419 
L 216.033987 123.457678 
L 218.586259 123.122713 
L 221.138532 123.035396 
L 223.690805 122.894715 
L 226.243077 122.770143 
L 228.79535 122.634047 
L 231.347623 121.921581 
L 233.899896 121.322295 
L 236.452168 120.863727 
L 239.004441 119.925942 
L 241.556714 119.856698 
L 244.108987 119.211132 
L 246.661259 118.313099 
L 249.213532 117.939081 
L 251.765805 117.738584 
L 254.318077 117.624397 
L 256.87035 116.212813 
L 259.422623 115.667111 
L 261.974896 115.638721 
L 264.527168 114.583831 
L 267.079441 114.444687 
L 269.631714 114.056673 
L 272.183987 113.800898 
L 274.736259 113.387966 
L 277.288532 113.243602 
L 279.840805 111.838291 
L 282.393077 110.705426 
L 284.94535 110.498923 
L 287.497623 110.246039 
L 290.049896 110.199604 
L 292.602168 109.473591 
L 295.154441 108.879027 
L 297.706714 107.548378 
L 300.258987 105.908325 
L 302.811259 102.058696 
L 305.363532 101.062883 
L 307.915805 101.013292 
L 310.468077 100.48845 
L 313.02035 98.654514 
L 315.572623 96.088319 
L 318.124896 95.859697 
" style="fill:none;stroke:#000000;stroke-linecap:round;stroke-width:6;"/>
   </g>
   <g id="patch_3">
    <path d="M 65.449896 278.58825 
L 65.449896 25.91325 
" style="fill:none;stroke:#262626;stroke-linecap:square;stroke-linejoin:miter;stroke-width:1.25;"/>
   </g>
   <g id="patch_4">
    <path d="M 65.449896 278.58825 
L 318.124896 278.58825 
" style="fill:none;stroke:#262626;stroke-linecap:square;stroke-linejoin:miter;stroke-width:1.25;"/>
   </g>
   <g id="legend_1">
    <g id="patch_5">
     <path d="M 73.149896 163.88075 
L 171.132396 163.88075 
Q 173.332396 163.88075 173.332396 161.68075 
L 173.332396 33.61325 
Q 173.332396 31.41325 171.132396 31.41325 
L 73.149896 31.41325 
Q 70.949896 31.41325 70.949896 33.61325 
L 70.949896 161.68075 
Q 70.949896 163.88075 73.149896 163.88075 
z
" style="fill:#ffffff;opacity:0.8;stroke:#cccccc;stroke-linejoin:miter;"/>
    </g>
    <g id="line2d_9">
     <path d="M 75.349896 40.321531 
L 97.349896 40.321531 
" style="fill:none;stroke:#0d0887;stroke-linecap:round;stroke-width:1.5;"/>
    </g>
    <g id="line2d_10"/>
    <g id="text_15">
     <text style="fill:#262626;font-family:DejaVu Sans;font-size:11px;font-stretch:normal;font-style:normal;font-weight:normal;text-anchor:start;" transform="rotate(-0, 106.149896, 44.171531)" x="106.149896" y="44.171531">1</text>
    </g>
    <g id="line2d_11">
     <path d="M 75.349896 56.467469 
L 97.349896 56.467469 
" style="fill:none;stroke:#5c01a6;stroke-linecap:round;stroke-width:1.5;"/>
    </g>
    <g id="line2d_12"/>
    <g id="text_16">
     <text style="fill:#262626;font-family:DejaVu Sans;font-size:11px;font-stretch:normal;font-style:normal;font-weight:normal;text-anchor:start;" transform="rotate(-0, 106.149896, 60.317469)" x="106.149896" y="60.317469">2/3</text>
    </g>
    <g id="line2d_13">
     <path d="M 75.349896 72.613406 
L 97.349896 72.613406 
" style="fill:none;stroke:#9c179e;stroke-linecap:round;stroke-width:1.5;"/>
    </g>
    <g id="line2d_14"/>
    <g id="text_17">
     <text style="fill:#262626;font-family:DejaVu Sans;font-size:11px;font-stretch:normal;font-style:normal;font-weight:normal;text-anchor:start;" transform="rotate(-0, 106.149896, 76.463406)" x="106.149896" y="76.463406">4</text>
    </g>
    <g id="line2d_15">
     <path d="M 75.349896 88.759344 
L 97.349896 88.759344 
" style="fill:none;stroke:#cc4778;stroke-linecap:round;stroke-width:1.5;"/>
    </g>
    <g id="line2d_16"/>
    <g id="text_18">
     <text style="fill:#262626;font-family:DejaVu Sans;font-size:11px;font-stretch:normal;font-style:normal;font-weight:normal;text-anchor:start;" transform="rotate(-0, 106.149896, 92.609344)" x="106.149896" y="92.609344">5</text>
    </g>
    <g id="line2d_17">
     <path d="M 75.349896 104.905281 
L 97.349896 104.905281 
" style="fill:none;stroke:#ed7953;stroke-linecap:round;stroke-width:1.5;"/>
    </g>
    <g id="line2d_18"/>
    <g id="text_19">
     <text style="fill:#262626;font-family:DejaVu Sans;font-size:11px;font-stretch:normal;font-style:normal;font-weight:normal;text-anchor:start;" transform="rotate(-0, 106.149896, 108.755281)" x="106.149896" y="108.755281">6a</text>
    </g>
    <g id="line2d_19">
     <path d="M 75.349896 121.051219 
L 97.349896 121.051219 
" style="fill:none;stroke:#fdb42f;stroke-linecap:round;stroke-width:1.5;"/>
    </g>
    <g id="line2d_20"/>
    <g id="text_20">
     <text style="fill:#262626;font-family:DejaVu Sans;font-size:11px;font-stretch:normal;font-style:normal;font-weight:normal;text-anchor:start;" transform="rotate(-0, 106.149896, 124.901219)" x="106.149896" y="124.901219">6b</text>
    </g>
    <g id="line2d_21">
     <path d="M 75.349896 137.197156 
L 97.349896 137.197156 
" style="fill:none;stroke:#f0f921;stroke-linecap:round;stroke-width:1.5;"/>
    </g>
    <g id="line2d_22"/>
    <g id="text_21">
     <text style="fill:#262626;font-family:DejaVu Sans;font-size:11px;font-stretch:normal;font-style:normal;font-weight:normal;text-anchor:start;" transform="rotate(-0, 106.149896, 141.047156)" x="106.149896" y="141.047156">NA</text>
    </g>
    <g id="line2d_23">
     <path d="M 75.349896 153.343094 
L 97.349896 153.343094 
" style="fill:none;stroke:#000000;stroke-linecap:round;stroke-width:6;"/>
    </g>
    <g id="line2d_24"/>
    <g id="text_22">
     <text style="fill:#262626;font-family:DejaVu Sans;font-size:11px;font-stretch:normal;font-style:normal;font-weight:normal;text-anchor:start;" transform="rotate(-0, 106.149896, 157.193094)" x="106.149896" y="157.193094">Cumulative</text>
    </g>
   </g>
  </g>
 </g>
 <defs>
  <clipPath id="p70b5d6488a">
   <rect height="252.675" width="252.675" x="65.449896" y="25.91325"/>
  </clipPath>
 </defs>
</svg>
