<?xml version="1.0" encoding="utf-8" standalone="no"?>
<!DOCTYPE svg PUBLIC "-//W3C//DTD SVG 1.1//EN"
  "http://www.w3.org/Graphics/SVG/1.1/DTD/svg11.dtd">
<svg xmlns:xlink="http://www.w3.org/1999/xlink" width="337.247468pt" height="321.687679pt" viewBox="0 0 337.247468 321.687679" xmlns="http://www.w3.org/2000/svg" version="1.1">
 <metadata>
  <rdf:RDF xmlns:dc="http://purl.org/dc/elements/1.1/" xmlns:cc="http://creativecommons.org/ns#" xmlns:rdf="http://www.w3.org/1999/02/22-rdf-syntax-ns#">
   <cc:Work>
    <dc:type rdf:resource="http://purl.org/dc/dcmitype/StillImage"/>
    <dc:date>2023-09-02T13:13:59.574003</dc:date>
    <dc:format>image/svg+xml</dc:format>
    <dc:creator>
     <cc:Agent>
      <dc:title>Matplotlib v3.7.2, https://matplotlib.org/</dc:title>
     </cc:Agent>
    </dc:creator>
   </cc:Work>
  </rdf:RDF>
 </metadata>
 <defs>
  <style type="text/css">*{stroke-linejoin: round; stroke-linecap: butt}</style>
 </defs>
 <g id="figure_1">
  <g id="patch_1">
   <path d="M 0 321.687679 
L 337.247468 321.687679 
L 337.247468 0 
L 0 0 
z
" style="fill: #ffffff"/>
  </g>
  <g id="axes_1">
   <g id="patch_2">
    <path d="M 65.449896 265.571549 
L 318.124896 265.571549 
L 318.124896 12.896549 
L 65.449896 12.896549 
z
" style="fill: #ffffff"/>
   </g>
   <g id="matplotlib.axis_1">
    <g id="xtick_1">
     <g id="text_1">
      <text style="fill: #262626; font: 14.994px 'Arial', 'DejaVu Sans', 'Liberation Sans', 'Bitstream Vera Sans', sans-serif; text-anchor: middle" x="65.449896" y="286.464646" transform="rotate(-0 65.449896 286.464646)">0.0</text>
     </g>
    </g>
    <g id="xtick_2">
     <g id="text_2">
      <text style="fill: #262626; font: 14.994px 'Arial', 'DejaVu Sans', 'Liberation Sans', 'Bitstream Vera Sans', sans-serif; text-anchor: middle" x="115.984896" y="286.464646" transform="rotate(-0 115.984896 286.464646)">0.2</text>
     </g>
    </g>
    <g id="xtick_3">
     <g id="text_3">
      <text style="fill: #262626; font: 14.994px 'Arial', 'DejaVu Sans', 'Liberation Sans', 'Bitstream Vera Sans', sans-serif; text-anchor: middle" x="166.519896" y="286.464646" transform="rotate(-0 166.519896 286.464646)">0.4</text>
     </g>
    </g>
    <g id="xtick_4">
     <g id="text_4">
      <text style="fill: #262626; font: 14.994px 'Arial', 'DejaVu Sans', 'Liberation Sans', 'Bitstream Vera Sans', sans-serif; text-anchor: middle" x="217.054896" y="286.464646" transform="rotate(-0 217.054896 286.464646)">0.6</text>
     </g>
    </g>
    <g id="xtick_5">
     <g id="text_5">
      <text style="fill: #262626; font: 14.994px 'Arial', 'DejaVu Sans', 'Liberation Sans', 'Bitstream Vera Sans', sans-serif; text-anchor: middle" x="267.589896" y="286.464646" transform="rotate(-0 267.589896 286.464646)">0.8</text>
     </g>
    </g>
    <g id="xtick_6">
     <g id="text_6">
      <text style="fill: #262626; font: 14.994px 'Arial', 'DejaVu Sans', 'Liberation Sans', 'Bitstream Vera Sans', sans-serif; text-anchor: middle" x="318.124896" y="286.464646" transform="rotate(-0 318.124896 286.464646)">1.0</text>
     </g>
    </g>
    <g id="text_7">
     <text style="fill: #262626; font: 21.6px 'Arial', 'DejaVu Sans', 'Liberation Sans', 'Bitstream Vera Sans', sans-serif; text-anchor: middle" x="191.787396" y="309.995554" transform="rotate(-0 191.787396 309.995554)">Percentile</text>
    </g>
   </g>
   <g id="matplotlib.axis_2">
    <g id="ytick_1">
     <g id="text_8">
      <text style="fill: #262626; font: 14.994px 'Arial', 'DejaVu Sans', 'Liberation Sans', 'Bitstream Vera Sans', sans-serif; text-anchor: end" x="55.949896" y="271.268097" transform="rotate(-0 55.949896 271.268097)">0.0</text>
     </g>
    </g>
    <g id="ytick_2">
     <g id="text_9">
      <text style="fill: #262626; font: 14.994px 'Arial', 'DejaVu Sans', 'Liberation Sans', 'Bitstream Vera Sans', sans-serif; text-anchor: end" x="55.949896" y="220.733097" transform="rotate(-0 55.949896 220.733097)">0.2</text>
     </g>
    </g>
    <g id="ytick_3">
     <g id="text_10">
      <text style="fill: #262626; font: 14.994px 'Arial', 'DejaVu Sans', 'Liberation Sans', 'Bitstream Vera Sans', sans-serif; text-anchor: end" x="55.949896" y="170.198097" transform="rotate(-0 55.949896 170.198097)">0.4</text>
     </g>
    </g>
    <g id="ytick_4">
     <g id="text_11">
      <text style="fill: #262626; font: 14.994px 'Arial', 'DejaVu Sans', 'Liberation Sans', 'Bitstream Vera Sans', sans-serif; text-anchor: end" x="55.949896" y="119.663097" transform="rotate(-0 55.949896 119.663097)">0.6</text>
     </g>
    </g>
    <g id="ytick_5">
     <g id="text_12">
      <text style="fill: #262626; font: 14.994px 'Arial', 'DejaVu Sans', 'Liberation Sans', 'Bitstream Vera Sans', sans-serif; text-anchor: end" x="55.949896" y="69.128097" transform="rotate(-0 55.949896 69.128097)">0.8</text>
     </g>
    </g>
    <g id="ytick_6">
     <g id="text_13">
      <text style="fill: #262626; font: 14.994px 'Arial', 'DejaVu Sans', 'Liberation Sans', 'Bitstream Vera Sans', sans-serif; text-anchor: end" x="55.949896" y="18.593097" transform="rotate(-0 55.949896 18.593097)">1.0</text>
     </g>
    </g>
    <g id="text_14">
     <text style="fill: #262626; font: 21.6px 'Arial', 'DejaVu Sans', 'Liberation Sans', 'Bitstream Vera Sans', sans-serif; text-anchor: middle" x="23.612625" y="139.234049" transform="rotate(-90 23.612625 139.234049)">Electrophysiology Similarity</text>
    </g>
   </g>
   <g id="line2d_1">
    <path d="M 65.449896 202.033096 
L 72.099238 187.41845 
L 78.74858 186.296601 
L 85.397922 177.565574 
L 92.047264 167.056939 
L 98.696606 166.471537 
L 105.345948 162.805962 
L 111.99529 156.10614 
L 118.644632 150.917215 
L 125.293975 150.675673 
L 131.943317 150.227903 
L 138.592659 150.22234 
L 145.242001 149.259234 
L 151.891343 142.714557 
L 158.540685 136.716811 
L 165.190027 136.37049 
L 171.839369 135.615656 
L 178.488711 133.118139 
L 185.138054 132.620547 
L 191.787396 130.230953 
L 198.436738 129.270787 
L 205.08608 129.23771 
L 211.735422 129.059835 
L 218.384764 127.147204 
L 225.034106 126.77751 
L 231.683448 126.38659 
L 238.33279 125.310834 
L 244.982132 124.164736 
L 251.631475 122.975729 
L 258.280817 120.428913 
L 264.930159 119.539179 
L 271.579501 118.154263 
L 278.228843 116.897535 
L 284.878185 114.157477 
L 291.527527 113.723387 
L 298.176869 113.451038 
L 304.826211 111.762724 
L 311.475554 110.446439 
L 318.124896 100.989088 
" clip-path="url(#p10d68356b1)" style="fill: none; stroke: #0d0887; stroke-width: 1.5; stroke-linecap: round"/>
   </g>
   <g id="line2d_2">
    <path d="M 65.449896 175.099398 
L 72.099238 164.544022 
L 78.74858 161.555282 
L 85.397922 156.206 
L 92.047264 146.816736 
L 98.696606 145.340942 
L 105.345948 142.48322 
L 111.99529 134.525052 
L 118.644632 130.541262 
L 125.293975 129.626309 
L 131.943317 129.426797 
L 138.592659 129.424597 
L 145.242001 129.390095 
L 151.891343 127.299142 
L 158.540685 126.334917 
L 165.190027 124.894091 
L 171.839369 123.887624 
L 178.488711 118.830629 
L 185.138054 117.469406 
L 191.787396 116.034386 
L 198.436738 115.121304 
L 205.08608 112.184382 
L 211.735422 112.107984 
L 218.384764 111.384508 
L 225.034106 109.498655 
L 231.683448 109.036218 
L 238.33279 108.374438 
L 244.982132 107.606174 
L 251.631475 107.182784 
L 258.280817 103.224321 
L 264.930159 103.053055 
L 271.579501 102.638865 
L 278.228843 101.755124 
L 284.878185 101.47781 
L 291.527527 100.030857 
L 298.176869 98.195266 
L 304.826211 97.630428 
L 311.475554 97.630428 
L 318.124896 96.459582 
" clip-path="url(#p10d68356b1)" style="fill: none; stroke: #5c01a6; stroke-width: 1.5; stroke-linecap: round"/>
   </g>
   <g id="line2d_3">
    <path d="M 65.449896 192.390271 
L 72.099238 162.565374 
L 78.74858 161.595833 
L 85.397922 152.685261 
L 92.047264 149.170607 
L 98.696606 146.491691 
L 105.345948 140.688953 
L 111.99529 139.796688 
L 118.644632 138.758128 
L 125.293975 138.10892 
L 131.943317 137.260978 
L 138.592659 137.201252 
L 145.242001 137.201252 
L 151.891343 137.170887 
L 158.540685 134.799174 
L 165.190027 130.630579 
L 171.839369 129.792346 
L 178.488711 128.835343 
L 185.138054 128.074186 
L 191.787396 123.794907 
L 198.436738 122.844979 
L 205.08608 122.696791 
L 211.735422 122.670972 
L 218.384764 121.333514 
L 225.034106 121.333514 
L 231.683448 121.056482 
L 238.33279 120.261372 
L 244.982132 119.849558 
L 251.631475 118.844237 
L 258.280817 118.542175 
L 264.930159 116.349727 
L 271.579501 114.744173 
L 278.228843 113.685296 
L 284.878185 112.286062 
L 291.527527 110.911016 
L 298.176869 106.602339 
L 304.826211 103.424901 
L 311.475554 102.648278 
L 318.124896 83.039915 
" clip-path="url(#p10d68356b1)" style="fill: none; stroke: #9c179e; stroke-width: 1.5; stroke-linecap: round"/>
   </g>
   <g id="line2d_4">
    <path d="M 65.449896 187.463737 
L 72.099238 178.024918 
L 78.74858 161.895117 
L 85.397922 156.4217 
L 92.047264 145.455568 
L 98.696606 137.50181 
L 105.345948 136.737726 
L 111.99529 135.217001 
L 118.644632 134.360728 
L 125.293975 134.189303 
L 131.943317 130.407508 
L 138.592659 129.381498 
L 145.242001 128.217902 
L 151.891343 127.441521 
L 158.540685 127.440036 
L 165.190027 126.827658 
L 171.839369 125.243888 
L 178.488711 123.032533 
L 185.138054 115.327152 
L 191.787396 115.213251 
L 198.436738 114.588914 
L 205.08608 110.907755 
L 211.735422 109.731834 
L 218.384764 109.623827 
L 225.034106 106.804363 
L 231.683448 105.360293 
L 238.33279 104.685663 
L 244.982132 104.197315 
L 251.631475 102.516968 
L 258.280817 100.034773 
L 264.930159 98.262714 
L 271.579501 97.605475 
L 278.228843 97.036021 
L 284.878185 97.013265 
L 291.527527 96.857273 
L 298.176869 96.347052 
L 304.826211 95.951448 
L 311.475554 93.156201 
L 318.124896 79.56813 
" clip-path="url(#p10d68356b1)" style="fill: none; stroke: #cc4778; stroke-width: 1.5; stroke-linecap: round"/>
   </g>
   <g id="line2d_5">
    <path d="M 65.449896 191.212445 
L 72.099238 162.425769 
L 78.74858 157.230068 
L 85.397922 152.25755 
L 92.047264 151.478152 
L 98.696606 144.421771 
L 105.345948 142.120352 
L 111.99529 137.709222 
L 118.644632 137.079774 
L 125.293975 131.13653 
L 131.943317 129.144392 
L 138.592659 129.124226 
L 145.242001 128.967266 
L 151.891343 128.889055 
L 158.540685 128.771901 
L 165.190027 127.160972 
L 171.839369 125.850669 
L 178.488711 123.43208 
L 185.138054 122.907228 
L 191.787396 121.756034 
L 198.436738 121.050223 
L 205.08608 120.246936 
L 211.735422 119.874896 
L 218.384764 119.546119 
L 225.034106 119.179449 
L 231.683448 116.259895 
L 238.33279 115.375789 
L 244.982132 109.537409 
L 251.631475 107.901119 
L 258.280817 95.518437 
L 264.930159 92.377514 
L 271.579501 92.27813 
L 278.228843 92.27813 
L 284.878185 92.081279 
L 291.527527 92.037407 
L 298.176869 90.906204 
L 304.826211 88.870549 
L 311.475554 87.574325 
L 318.124896 71.375759 
" clip-path="url(#p10d68356b1)" style="fill: none; stroke: #ed7953; stroke-width: 1.5; stroke-linecap: round"/>
   </g>
   <g id="line2d_6">
    <path d="M 65.449896 223.262285 
L 72.099238 223.262285 
L 78.74858 119.720434 
L 85.397922 109.448178 
L 92.047264 49.251569 
L 98.696606 12.896549 
L 105.345948 12.896549 
L 111.99529 12.896549 
L 118.644632 12.896549 
L 125.293975 12.896549 
L 131.943317 12.896549 
L 138.592659 12.896549 
L 145.242001 12.896549 
L 151.891343 12.896549 
L 158.540685 12.896549 
L 165.190027 12.896549 
L 171.839369 12.896549 
L 178.488711 12.896549 
L 185.138054 12.896549 
L 191.787396 12.896549 
L 198.436738 12.896549 
L 205.08608 12.896549 
L 211.735422 12.896549 
L 218.384764 12.896549 
L 225.034106 12.896549 
L 231.683448 12.896549 
L 238.33279 12.896549 
L 244.982132 12.896549 
L 251.631475 12.896549 
L 258.280817 12.896549 
L 264.930159 12.896549 
L 271.579501 12.896549 
L 278.228843 12.896549 
L 284.878185 12.896549 
L 291.527527 12.896549 
L 298.176869 12.896549 
L 304.826211 12.896549 
L 311.475554 12.896549 
L 318.124896 12.896549 
" clip-path="url(#p10d68356b1)" style="fill: none; stroke: #fdb42f; stroke-width: 1.5; stroke-linecap: round"/>
   </g>
   <g id="line2d_7">
    <path d="M 65.449896 12.896549 
L 72.099238 12.896549 
L 78.74858 12.896549 
L 85.397922 12.896549 
L 92.047264 12.896549 
L 98.696606 12.896549 
L 105.345948 12.896549 
L 111.99529 12.896549 
L 118.644632 12.896549 
L 125.293975 12.896549 
L 131.943317 12.896549 
L 138.592659 12.896549 
L 145.242001 12.896549 
L 151.891343 12.896549 
L 158.540685 12.896549 
L 165.190027 12.896549 
L 171.839369 12.896549 
L 178.488711 12.896549 
L 185.138054 12.896549 
L 191.787396 12.896549 
L 198.436738 12.896549 
L 205.08608 12.896549 
L 211.735422 12.896549 
L 218.384764 12.896549 
L 225.034106 12.896549 
L 231.683448 12.896549 
L 238.33279 12.896549 
L 244.982132 12.896549 
L 251.631475 12.896549 
L 258.280817 12.896549 
L 264.930159 12.896549 
L 271.579501 12.896549 
L 278.228843 12.896549 
L 284.878185 12.896549 
L 291.527527 12.896549 
L 298.176869 12.896549 
L 304.826211 12.896549 
L 311.475554 12.896549 
L 318.124896 12.896549 
" clip-path="url(#p10d68356b1)" style="fill: none; stroke: #f0f921; stroke-width: 1.5; stroke-linecap: round"/>
   </g>
   <g id="line2d_8">
    <path d="M 65.449896 166.945898 
L 72.099238 139.67752 
L 78.74858 124.633335 
L 85.397922 122.043897 
L 92.047264 117.947195 
L 98.696606 110.21109 
L 105.345948 106.739403 
L 111.99529 106.421375 
L 118.644632 104.254699 
L 125.293975 101.396909 
L 131.943317 101.149289 
L 138.592659 99.985376 
L 145.242001 99.887301 
L 151.891343 99.836701 
L 158.540685 97.990159 
L 165.190027 97.243909 
L 171.839369 96.08423 
L 178.488711 92.664625 
L 185.138054 92.344296 
L 191.787396 91.68283 
L 198.436738 91.031698 
L 205.08608 88.041724 
L 211.735422 87.63858 
L 218.384764 85.222979 
L 225.034106 84.999685 
L 231.683448 84.815854 
L 238.33279 84.694175 
L 244.982132 83.920875 
L 251.631475 83.456457 
L 258.280817 82.815274 
L 264.930159 81.537911 
L 271.579501 80.556557 
L 278.228843 80.479426 
L 284.878185 80.474175 
L 291.527527 80.421754 
L 298.176869 79.712888 
L 304.826211 79.699053 
L 311.475554 76.790583 
L 318.124896 75.774954 
" clip-path="url(#p10d68356b1)" style="fill: none; stroke: #000000; stroke-width: 6; stroke-linecap: round"/>
   </g>
   <g id="patch_3">
    <path d="M 65.449896 265.571549 
L 65.449896 12.896549 
" style="fill: none; stroke: #262626; stroke-width: 1.25; stroke-linejoin: miter; stroke-linecap: square"/>
   </g>
   <g id="patch_4">
    <path d="M 65.449896 265.571549 
L 318.124896 265.571549 
" style="fill: none; stroke: #262626; stroke-width: 1.25; stroke-linejoin: miter; stroke-linecap: square"/>
   </g>
   <g id="legend_1">
    <g id="patch_5">
     <path d="M 212.442396 260.071549 
L 310.424896 260.071549 
Q 312.624896 260.071549 312.624896 257.871549 
L 312.624896 129.804049 
Q 312.624896 127.604049 310.424896 127.604049 
L 212.442396 127.604049 
Q 210.242396 127.604049 210.242396 129.804049 
L 210.242396 257.871549 
Q 210.242396 260.071549 212.442396 260.071549 
z
" style="fill: #ffffff; opacity: 0.8; stroke: #cccccc; stroke-linejoin: miter"/>
    </g>
    <g id="line2d_9">
     <path d="M 214.642396 136.51233 
L 225.642396 136.51233 
L 236.642396 136.51233 
" style="fill: none; stroke: #0d0887; stroke-width: 1.5; stroke-linecap: round"/>
    </g>
    <g id="text_15">
     <text style="fill: #262626; font: 11px 'Arial', 'DejaVu Sans', 'Liberation Sans', 'Bitstream Vera Sans', sans-serif; text-anchor: start" x="245.442396" y="140.36233" transform="rotate(-0 245.442396 140.36233)">1</text>
    </g>
    <g id="line2d_10">
     <path d="M 214.642396 152.658267 
L 225.642396 152.658267 
L 236.642396 152.658267 
" style="fill: none; stroke: #5c01a6; stroke-width: 1.5; stroke-linecap: round"/>
    </g>
    <g id="text_16">
     <text style="fill: #262626; font: 11px 'Arial', 'DejaVu Sans', 'Liberation Sans', 'Bitstream Vera Sans', sans-serif; text-anchor: start" x="245.442396" y="156.508267" transform="rotate(-0 245.442396 156.508267)">2/3</text>
    </g>
    <g id="line2d_11">
     <path d="M 214.642396 168.804205 
L 225.642396 168.804205 
L 236.642396 168.804205 
" style="fill: none; stroke: #9c179e; stroke-width: 1.5; stroke-linecap: round"/>
    </g>
    <g id="text_17">
     <text style="fill: #262626; font: 11px 'Arial', 'DejaVu Sans', 'Liberation Sans', 'Bitstream Vera Sans', sans-serif; text-anchor: start" x="245.442396" y="172.654205" transform="rotate(-0 245.442396 172.654205)">4</text>
    </g>
    <g id="line2d_12">
     <path d="M 214.642396 184.950142 
L 225.642396 184.950142 
L 236.642396 184.950142 
" style="fill: none; stroke: #cc4778; stroke-width: 1.5; stroke-linecap: round"/>
    </g>
    <g id="text_18">
     <text style="fill: #262626; font: 11px 'Arial', 'DejaVu Sans', 'Liberation Sans', 'Bitstream Vera Sans', sans-serif; text-anchor: start" x="245.442396" y="188.800142" transform="rotate(-0 245.442396 188.800142)">5</text>
    </g>
    <g id="line2d_13">
     <path d="M 214.642396 201.09608 
L 225.642396 201.09608 
L 236.642396 201.09608 
" style="fill: none; stroke: #ed7953; stroke-width: 1.5; stroke-linecap: round"/>
    </g>
    <g id="text_19">
     <text style="fill: #262626; font: 11px 'Arial', 'DejaVu Sans', 'Liberation Sans', 'Bitstream Vera Sans', sans-serif; text-anchor: start" x="245.442396" y="204.94608" transform="rotate(-0 245.442396 204.94608)">6a</text>
    </g>
    <g id="line2d_14">
     <path d="M 214.642396 217.242017 
L 225.642396 217.242017 
L 236.642396 217.242017 
" style="fill: none; stroke: #fdb42f; stroke-width: 1.5; stroke-linecap: round"/>
    </g>
    <g id="text_20">
     <text style="fill: #262626; font: 11px 'Arial', 'DejaVu Sans', 'Liberation Sans', 'Bitstream Vera Sans', sans-serif; text-anchor: start" x="245.442396" y="221.092017" transform="rotate(-0 245.442396 221.092017)">6b</text>
    </g>
    <g id="line2d_15">
     <path d="M 214.642396 233.387955 
L 225.642396 233.387955 
L 236.642396 233.387955 
" style="fill: none; stroke: #f0f921; stroke-width: 1.5; stroke-linecap: round"/>
    </g>
    <g id="text_21">
     <text style="fill: #262626; font: 11px 'Arial', 'DejaVu Sans', 'Liberation Sans', 'Bitstream Vera Sans', sans-serif; text-anchor: start" x="245.442396" y="237.237955" transform="rotate(-0 245.442396 237.237955)">NA</text>
    </g>
    <g id="line2d_16">
     <path d="M 214.642396 249.533892 
L 225.642396 249.533892 
L 236.642396 249.533892 
" style="fill: none; stroke: #000000; stroke-width: 6; stroke-linecap: round"/>
    </g>
    <g id="text_22">
     <text style="fill: #262626; font: 11px 'Arial', 'DejaVu Sans', 'Liberation Sans', 'Bitstream Vera Sans', sans-serif; text-anchor: start" x="245.442396" y="253.383892" transform="rotate(-0 245.442396 253.383892)">Cumulative</text>
    </g>
   </g>
  </g>
 </g>
 <defs>
  <clipPath id="p10d68356b1">
   <rect x="65.449896" y="12.896549" width="252.675" height="252.675"/>
  </clipPath>
 </defs>
</svg>
