<?xml version="1.0" encoding="utf-8" standalone="no"?>
<!DOCTYPE svg PUBLIC "-//W3C//DTD SVG 1.1//EN"
  "http://www.w3.org/Graphics/SVG/1.1/DTD/svg11.dtd">
<svg xmlns:xlink="http://www.w3.org/1999/xlink" width="337.247468pt" height="321.687679pt" viewBox="0 0 337.247468 321.687679" xmlns="http://www.w3.org/2000/svg" version="1.1">
 <metadata>
  <rdf:RDF xmlns:dc="http://purl.org/dc/elements/1.1/" xmlns:cc="http://creativecommons.org/ns#" xmlns:rdf="http://www.w3.org/1999/02/22-rdf-syntax-ns#">
   <cc:Work>
    <dc:type rdf:resource="http://purl.org/dc/dcmitype/StillImage"/>
    <dc:date>2023-09-02T13:13:40.850553</dc:date>
    <dc:format>image/svg+xml</dc:format>
    <dc:creator>
     <cc:Agent>
      <dc:title>Matplotlib v3.7.2, https://matplotlib.org/</dc:title>
     </cc:Agent>
    </dc:creator>
   </cc:Work>
  </rdf:RDF>
 </metadata>
 <defs>
  <style type="text/css">*{stroke-linejoin: round; stroke-linecap: butt}</style>
 </defs>
 <g id="figure_1">
  <g id="patch_1">
   <path d="M 0 321.687679 
L 337.247468 321.687679 
L 337.247468 0 
L 0 0 
z
" style="fill: #ffffff"/>
  </g>
  <g id="axes_1">
   <g id="patch_2">
    <path d="M 65.449896 265.571549 
L 318.124896 265.571549 
L 318.124896 12.896549 
L 65.449896 12.896549 
z
" style="fill: #ffffff"/>
   </g>
   <g id="matplotlib.axis_1">
    <g id="xtick_1">
     <g id="text_1">
      <text style="fill: #262626; font: 14.994px 'Arial', 'DejaVu Sans', 'Liberation Sans', 'Bitstream Vera Sans', sans-serif; text-anchor: middle" x="65.449896" y="286.464646" transform="rotate(-0 65.449896 286.464646)">0.0</text>
     </g>
    </g>
    <g id="xtick_2">
     <g id="text_2">
      <text style="fill: #262626; font: 14.994px 'Arial', 'DejaVu Sans', 'Liberation Sans', 'Bitstream Vera Sans', sans-serif; text-anchor: middle" x="115.984896" y="286.464646" transform="rotate(-0 115.984896 286.464646)">0.2</text>
     </g>
    </g>
    <g id="xtick_3">
     <g id="text_3">
      <text style="fill: #262626; font: 14.994px 'Arial', 'DejaVu Sans', 'Liberation Sans', 'Bitstream Vera Sans', sans-serif; text-anchor: middle" x="166.519896" y="286.464646" transform="rotate(-0 166.519896 286.464646)">0.4</text>
     </g>
    </g>
    <g id="xtick_4">
     <g id="text_4">
      <text style="fill: #262626; font: 14.994px 'Arial', 'DejaVu Sans', 'Liberation Sans', 'Bitstream Vera Sans', sans-serif; text-anchor: middle" x="217.054896" y="286.464646" transform="rotate(-0 217.054896 286.464646)">0.6</text>
     </g>
    </g>
    <g id="xtick_5">
     <g id="text_5">
      <text style="fill: #262626; font: 14.994px 'Arial', 'DejaVu Sans', 'Liberation Sans', 'Bitstream Vera Sans', sans-serif; text-anchor: middle" x="267.589896" y="286.464646" transform="rotate(-0 267.589896 286.464646)">0.8</text>
     </g>
    </g>
    <g id="xtick_6">
     <g id="text_6">
      <text style="fill: #262626; font: 14.994px 'Arial', 'DejaVu Sans', 'Liberation Sans', 'Bitstream Vera Sans', sans-serif; text-anchor: middle" x="318.124896" y="286.464646" transform="rotate(-0 318.124896 286.464646)">1.0</text>
     </g>
    </g>
    <g id="text_7">
     <text style="fill: #262626; font: 21.6px 'Arial', 'DejaVu Sans', 'Liberation Sans', 'Bitstream Vera Sans', sans-serif; text-anchor: middle" x="191.787396" y="309.995554" transform="rotate(-0 191.787396 309.995554)">Percentile</text>
    </g>
   </g>
   <g id="matplotlib.axis_2">
    <g id="ytick_1">
     <g id="text_8">
      <text style="fill: #262626; font: 14.994px 'Arial', 'DejaVu Sans', 'Liberation Sans', 'Bitstream Vera Sans', sans-serif; text-anchor: end" x="55.949896" y="271.268097" transform="rotate(-0 55.949896 271.268097)">0.0</text>
     </g>
    </g>
    <g id="ytick_2">
     <g id="text_9">
      <text style="fill: #262626; font: 14.994px 'Arial', 'DejaVu Sans', 'Liberation Sans', 'Bitstream Vera Sans', sans-serif; text-anchor: end" x="55.949896" y="220.733097" transform="rotate(-0 55.949896 220.733097)">0.2</text>
     </g>
    </g>
    <g id="ytick_3">
     <g id="text_10">
      <text style="fill: #262626; font: 14.994px 'Arial', 'DejaVu Sans', 'Liberation Sans', 'Bitstream Vera Sans', sans-serif; text-anchor: end" x="55.949896" y="170.198097" transform="rotate(-0 55.949896 170.198097)">0.4</text>
     </g>
    </g>
    <g id="ytick_4">
     <g id="text_11">
      <text style="fill: #262626; font: 14.994px 'Arial', 'DejaVu Sans', 'Liberation Sans', 'Bitstream Vera Sans', sans-serif; text-anchor: end" x="55.949896" y="119.663097" transform="rotate(-0 55.949896 119.663097)">0.6</text>
     </g>
    </g>
    <g id="ytick_5">
     <g id="text_12">
      <text style="fill: #262626; font: 14.994px 'Arial', 'DejaVu Sans', 'Liberation Sans', 'Bitstream Vera Sans', sans-serif; text-anchor: end" x="55.949896" y="69.128097" transform="rotate(-0 55.949896 69.128097)">0.8</text>
     </g>
    </g>
    <g id="ytick_6">
     <g id="text_13">
      <text style="fill: #262626; font: 14.994px 'Arial', 'DejaVu Sans', 'Liberation Sans', 'Bitstream Vera Sans', sans-serif; text-anchor: end" x="55.949896" y="18.593097" transform="rotate(-0 55.949896 18.593097)">1.0</text>
     </g>
    </g>
    <g id="text_14">
     <text style="fill: #262626; font: 21.6px 'Arial', 'DejaVu Sans', 'Liberation Sans', 'Bitstream Vera Sans', sans-serif; text-anchor: middle" x="23.612625" y="139.234049" transform="rotate(-90 23.612625 139.234049)">Gene Expression Similarity</text>
    </g>
   </g>
   <g id="line2d_1">
    <path d="M 65.449896 214.756429 
L 68.002168 209.254738 
L 70.554441 200.260907 
L 73.106714 195.35113 
L 75.658987 194.613015 
L 78.211259 193.531354 
L 80.763532 193.324946 
L 83.315805 192.200587 
L 85.868077 191.155577 
L 88.42035 190.752147 
L 90.972623 189.544582 
L 93.524896 188.991372 
L 96.077168 185.501274 
L 98.629441 182.898782 
L 101.181714 180.905872 
L 103.733987 180.676505 
L 106.286259 177.909113 
L 108.838532 177.706438 
L 111.390805 177.523608 
L 113.943077 175.691715 
L 116.49535 175.690385 
L 119.047623 171.738013 
L 121.599896 171.193375 
L 124.152168 169.699623 
L 126.704441 169.548344 
L 129.256714 169.236455 
L 131.808987 168.882987 
L 134.361259 168.850564 
L 136.913532 168.846973 
L 139.465805 168.527721 
L 142.018077 168.242174 
L 144.57035 167.627616 
L 147.122623 167.557125 
L 149.674896 167.461565 
L 152.227168 166.34272 
L 154.779441 164.666593 
L 157.331714 164.326874 
L 159.883987 162.696351 
L 162.436259 162.060765 
L 164.988532 161.791431 
L 167.540805 161.261965 
L 170.093077 160.580934 
L 172.64535 160.569549 
L 175.197623 159.302772 
L 177.749896 158.82147 
L 180.302168 157.771337 
L 182.854441 157.224074 
L 185.406714 156.964551 
L 187.958987 155.984568 
L 190.511259 154.659311 
L 193.063532 154.569333 
L 195.615805 153.127681 
L 198.168077 153.114718 
L 200.72035 153.012053 
L 203.272623 152.463095 
L 205.824896 152.237597 
L 208.377168 151.494539 
L 210.929441 151.466357 
L 213.481714 151.11377 
L 216.033987 150.608719 
L 218.586259 150.453072 
L 221.138532 148.451953 
L 223.690805 146.388205 
L 226.243077 145.04251 
L 228.79535 144.832881 
L 231.347623 144.44559 
L 233.899896 143.712583 
L 236.452168 143.04826 
L 239.004441 142.204465 
L 241.556714 141.115024 
L 244.108987 139.613532 
L 246.661259 139.290632 
L 249.213532 138.777964 
L 251.765805 137.589851 
L 254.318077 135.111062 
L 256.87035 132.371326 
L 259.422623 132.084397 
L 261.974896 132.03304 
L 264.527168 128.208726 
L 267.079441 127.328589 
L 269.631714 127.210603 
L 272.183987 126.488147 
L 274.736259 124.245056 
L 277.288532 123.634244 
L 279.840805 120.178976 
L 282.393077 119.944802 
L 284.94535 119.814486 
L 287.497623 118.833962 
L 290.049896 116.812884 
L 292.602168 116.401343 
L 295.154441 114.625745 
L 297.706714 114.275437 
L 300.258987 110.675795 
L 302.811259 110.558586 
L 305.363532 108.663389 
L 307.915805 106.5655 
L 310.468077 103.174883 
L 313.02035 102.99962 
L 315.572623 99.138531 
L 318.124896 91.543404 
" clip-path="url(#p17a84077ef)" style="fill: none; stroke: #0d0887; stroke-width: 1.5; stroke-linecap: round"/>
   </g>
   <g id="line2d_2">
    <path d="M 65.449896 204.387392 
L 68.002168 200.782309 
L 70.554441 196.971958 
L 73.106714 193.088087 
L 75.658987 189.670877 
L 78.211259 188.813715 
L 80.763532 188.373382 
L 83.315805 186.678644 
L 85.868077 185.676792 
L 88.42035 184.549047 
L 90.972623 179.073867 
L 93.524896 177.412572 
L 96.077168 176.751497 
L 98.629441 175.995581 
L 101.181714 175.40623 
L 103.733987 175.340104 
L 106.286259 174.806787 
L 108.838532 173.840392 
L 111.390805 173.54328 
L 113.943077 173.350988 
L 116.49535 173.030627 
L 119.047623 170.16018 
L 121.599896 169.919698 
L 124.152168 169.689927 
L 126.704441 167.657329 
L 129.256714 165.814966 
L 131.808987 165.808771 
L 134.361259 165.078719 
L 136.913532 164.339393 
L 139.465805 164.273406 
L 142.018077 163.783244 
L 144.57035 163.415549 
L 147.122623 162.423041 
L 149.674896 162.056772 
L 152.227168 160.849813 
L 154.779441 157.825174 
L 157.331714 156.086033 
L 159.883987 155.216563 
L 162.436259 154.607446 
L 164.988532 153.657558 
L 167.540805 153.577058 
L 170.093077 153.498856 
L 172.64535 152.589541 
L 175.197623 151.530939 
L 177.749896 151.124444 
L 180.302168 151.058306 
L 182.854441 150.526263 
L 185.406714 150.087025 
L 187.958987 149.32611 
L 190.511259 149.256419 
L 193.063532 148.078498 
L 195.615805 147.741395 
L 198.168077 147.577125 
L 200.72035 143.870026 
L 203.272623 143.323592 
L 205.824896 142.744603 
L 208.377168 141.719015 
L 210.929441 141.579134 
L 213.481714 141.37582 
L 216.033987 141.302854 
L 218.586259 140.994059 
L 221.138532 140.491793 
L 223.690805 140.360204 
L 226.243077 140.184076 
L 228.79535 139.659706 
L 231.347623 138.630988 
L 233.899896 138.330732 
L 236.452168 138.177913 
L 239.004441 138.070167 
L 241.556714 137.84297 
L 244.108987 137.165945 
L 246.661259 136.896951 
L 249.213532 136.357027 
L 251.765805 136.308363 
L 254.318077 134.288582 
L 256.87035 132.929785 
L 259.422623 132.704196 
L 261.974896 127.561062 
L 264.527168 126.642281 
L 267.079441 126.425925 
L 269.631714 125.499079 
L 272.183987 123.743884 
L 274.736259 121.852822 
L 277.288532 120.28513 
L 279.840805 119.077295 
L 282.393077 118.629753 
L 284.94535 118.493752 
L 287.497623 116.735574 
L 290.049896 114.606136 
L 292.602168 111.834674 
L 295.154441 110.200617 
L 297.706714 110.013329 
L 300.258987 109.810624 
L 302.811259 104.493293 
L 305.363532 104.415931 
L 307.915805 103.789805 
L 310.468077 100.982685 
L 313.02035 100.139877 
L 315.572623 91.327269 
L 318.124896 89.027443 
" clip-path="url(#p17a84077ef)" style="fill: none; stroke: #5c01a6; stroke-width: 1.5; stroke-linecap: round"/>
   </g>
   <g id="line2d_3">
    <path d="M 65.449896 197.045534 
L 68.002168 191.255663 
L 70.554441 189.339652 
L 73.106714 186.939542 
L 75.658987 186.539282 
L 78.211259 186.226533 
L 80.763532 186.069839 
L 83.315805 185.320749 
L 85.868077 184.24045 
L 88.42035 183.066944 
L 90.972623 177.864797 
L 93.524896 176.213415 
L 96.077168 175.623679 
L 98.629441 174.757723 
L 101.181714 172.471816 
L 103.733987 170.638052 
L 106.286259 170.387903 
L 108.838532 170.180122 
L 111.390805 168.515463 
L 113.943077 168.369233 
L 116.49535 167.994439 
L 119.047623 167.700321 
L 121.599896 166.94429 
L 124.152168 166.731493 
L 126.704441 165.514808 
L 129.256714 164.927021 
L 131.808987 164.709082 
L 134.361259 164.308166 
L 136.913532 164.237938 
L 139.465805 163.375939 
L 142.018077 162.262428 
L 144.57035 160.373826 
L 147.122623 158.201527 
L 149.674896 157.914907 
L 152.227168 156.193737 
L 154.779441 155.577308 
L 157.331714 155.049466 
L 159.883987 155.036942 
L 162.436259 154.490517 
L 164.988532 154.136179 
L 167.540805 152.988854 
L 170.093077 151.84475 
L 172.64535 151.567651 
L 175.197623 150.914824 
L 177.749896 150.908818 
L 180.302168 150.804799 
L 182.854441 150.661573 
L 185.406714 150.343913 
L 187.958987 149.451678 
L 190.511259 148.81421 
L 193.063532 148.223212 
L 195.615805 147.422703 
L 198.168077 147.072509 
L 200.72035 146.680014 
L 203.272623 145.583428 
L 205.824896 144.468897 
L 208.377168 143.252261 
L 210.929441 142.346403 
L 213.481714 142.108571 
L 216.033987 140.486865 
L 218.586259 139.831572 
L 221.138532 139.65245 
L 223.690805 139.4597 
L 226.243077 138.184502 
L 228.79535 138.063445 
L 231.347623 137.052505 
L 233.899896 136.787978 
L 236.452168 136.721322 
L 239.004441 136.424377 
L 241.556714 135.603225 
L 244.108987 135.054437 
L 246.661259 135.010435 
L 249.213532 134.664979 
L 251.765805 134.548761 
L 254.318077 134.436928 
L 256.87035 133.875966 
L 259.422623 133.48037 
L 261.974896 132.563456 
L 264.527168 131.910317 
L 267.079441 131.370665 
L 269.631714 130.540626 
L 272.183987 130.301299 
L 274.736259 129.648518 
L 277.288532 128.931449 
L 279.840805 127.204601 
L 282.393077 126.308979 
L 284.94535 126.125053 
L 287.497623 123.917672 
L 290.049896 122.179298 
L 292.602168 120.422137 
L 295.154441 120.405369 
L 297.706714 119.950902 
L 300.258987 118.406597 
L 302.811259 118.075259 
L 305.363532 115.197508 
L 307.915805 114.479269 
L 310.468077 114.378097 
L 313.02035 113.698961 
L 315.572623 107.631795 
L 318.124896 96.310571 
" clip-path="url(#p17a84077ef)" style="fill: none; stroke: #9c179e; stroke-width: 1.5; stroke-linecap: round"/>
   </g>
   <g id="line2d_4">
    <path d="M 65.449896 212.794472 
L 68.002168 200.155789 
L 70.554441 195.287427 
L 73.106714 194.987332 
L 75.658987 190.251662 
L 78.211259 189.846802 
L 80.763532 189.158115 
L 83.315805 187.863005 
L 85.868077 187.582204 
L 88.42035 186.228107 
L 90.972623 182.262455 
L 93.524896 181.200106 
L 96.077168 179.072194 
L 98.629441 176.271418 
L 101.181714 175.681983 
L 103.733987 175.224093 
L 106.286259 173.302023 
L 108.838532 172.9386 
L 111.390805 172.598156 
L 113.943077 172.192852 
L 116.49535 171.877019 
L 119.047623 171.423169 
L 121.599896 170.814988 
L 124.152168 169.882809 
L 126.704441 169.882736 
L 129.256714 169.823796 
L 131.808987 169.183501 
L 134.361259 167.87246 
L 136.913532 165.670887 
L 139.465805 164.175581 
L 142.018077 163.783474 
L 144.57035 163.429789 
L 147.122623 161.943058 
L 149.674896 161.630451 
L 152.227168 161.013746 
L 154.779441 159.810033 
L 157.331714 158.757721 
L 159.883987 158.712623 
L 162.436259 158.549725 
L 164.988532 158.096555 
L 167.540805 157.347161 
L 170.093077 157.115312 
L 172.64535 156.400069 
L 175.197623 156.370834 
L 177.749896 156.361803 
L 180.302168 155.639599 
L 182.854441 154.407567 
L 185.406714 154.329907 
L 187.958987 154.024551 
L 190.511259 153.039533 
L 193.063532 152.929114 
L 195.615805 152.575512 
L 198.168077 152.068547 
L 200.72035 151.46451 
L 203.272623 150.991692 
L 205.824896 150.68401 
L 208.377168 150.62186 
L 210.929441 149.966246 
L 213.481714 149.228441 
L 216.033987 147.862504 
L 218.586259 147.368758 
L 221.138532 146.993999 
L 223.690805 146.675296 
L 226.243077 144.806007 
L 228.79535 144.479346 
L 231.347623 144.350239 
L 233.899896 143.657547 
L 236.452168 142.651606 
L 239.004441 142.455865 
L 241.556714 141.556267 
L 244.108987 141.188455 
L 246.661259 140.146435 
L 249.213532 140.099905 
L 251.765805 139.825952 
L 254.318077 139.193696 
L 256.87035 138.660013 
L 259.422623 137.496856 
L 261.974896 137.01453 
L 264.527168 136.961961 
L 267.079441 136.772978 
L 269.631714 136.435671 
L 272.183987 135.694536 
L 274.736259 135.217344 
L 277.288532 134.296282 
L 279.840805 133.691639 
L 282.393077 132.295161 
L 284.94535 132.110738 
L 287.497623 132.084745 
L 290.049896 131.098555 
L 292.602168 130.22483 
L 295.154441 129.914373 
L 297.706714 129.514637 
L 300.258987 127.059426 
L 302.811259 124.568858 
L 305.363532 117.128523 
L 307.915805 116.814351 
L 310.468077 113.169161 
L 313.02035 112.524772 
L 315.572623 111.32244 
L 318.124896 110.820469 
" clip-path="url(#p17a84077ef)" style="fill: none; stroke: #cc4778; stroke-width: 1.5; stroke-linecap: round"/>
   </g>
   <g id="line2d_5">
    <path d="M 65.449896 202.553277 
L 68.002168 193.980813 
L 70.554441 193.318847 
L 73.106714 193.022826 
L 75.658987 191.923825 
L 78.211259 190.397046 
L 80.763532 189.405268 
L 83.315805 188.169457 
L 85.868077 186.797684 
L 88.42035 185.620928 
L 90.972623 183.426301 
L 93.524896 183.245314 
L 96.077168 182.745425 
L 98.629441 179.556363 
L 101.181714 177.230649 
L 103.733987 176.781358 
L 106.286259 175.346769 
L 108.838532 175.294858 
L 111.390805 174.314566 
L 113.943077 173.958548 
L 116.49535 171.316837 
L 119.047623 171.106816 
L 121.599896 170.050869 
L 124.152168 169.955989 
L 126.704441 169.444119 
L 129.256714 168.785492 
L 131.808987 168.772396 
L 134.361259 168.720297 
L 136.913532 167.289063 
L 139.465805 167.17217 
L 142.018077 166.433412 
L 144.57035 165.97483 
L 147.122623 165.663052 
L 149.674896 165.562327 
L 152.227168 164.694518 
L 154.779441 164.652092 
L 157.331714 164.565858 
L 159.883987 164.534417 
L 162.436259 163.682549 
L 164.988532 162.851364 
L 167.540805 162.335834 
L 170.093077 161.122912 
L 172.64535 160.994079 
L 175.197623 159.680245 
L 177.749896 159.540955 
L 180.302168 159.353001 
L 182.854441 158.389463 
L 185.406714 158.193365 
L 187.958987 156.477669 
L 190.511259 156.233914 
L 193.063532 155.501603 
L 195.615805 155.157823 
L 198.168077 154.892951 
L 200.72035 153.34876 
L 203.272623 152.791476 
L 205.824896 152.680677 
L 208.377168 151.883857 
L 210.929441 151.681796 
L 213.481714 151.625294 
L 216.033987 151.437259 
L 218.586259 151.430562 
L 221.138532 150.07249 
L 223.690805 148.986827 
L 226.243077 148.400478 
L 228.79535 147.386067 
L 231.347623 147.223281 
L 233.899896 147.125156 
L 236.452168 145.70761 
L 239.004441 145.374397 
L 241.556714 145.275994 
L 244.108987 145.255849 
L 246.661259 144.502944 
L 249.213532 143.49621 
L 251.765805 141.479693 
L 254.318077 140.562719 
L 256.87035 140.499456 
L 259.422623 140.467884 
L 261.974896 139.626512 
L 264.527168 139.0446 
L 267.079441 138.826323 
L 269.631714 138.406537 
L 272.183987 137.687776 
L 274.736259 136.018814 
L 277.288532 135.586149 
L 279.840805 135.116118 
L 282.393077 134.154516 
L 284.94535 132.988154 
L 287.497623 132.583593 
L 290.049896 132.334219 
L 292.602168 132.013924 
L 295.154441 130.920759 
L 297.706714 127.281161 
L 300.258987 125.599335 
L 302.811259 125.264662 
L 305.363532 119.551249 
L 307.915805 114.203531 
L 310.468077 113.702407 
L 313.02035 112.309126 
L 315.572623 111.03069 
L 318.124896 110.903107 
" clip-path="url(#p17a84077ef)" style="fill: none; stroke: #ed7953; stroke-width: 1.5; stroke-linecap: round"/>
   </g>
   <g id="line2d_6">
    <path d="M 65.449896 223.262285 
L 68.002168 223.262285 
L 70.554441 223.262285 
L 73.106714 223.262285 
L 75.658987 223.262285 
L 78.211259 223.262285 
L 80.763532 223.262285 
L 83.315805 223.262285 
L 85.868077 223.262285 
L 88.42035 223.262285 
L 90.972623 223.262285 
L 93.524896 223.262285 
L 96.077168 202.411934 
L 98.629441 192.645891 
L 101.181714 190.809988 
L 103.733987 183.587934 
L 106.286259 178.638257 
L 108.838532 175.497709 
L 111.390805 160.867322 
L 113.943077 159.866073 
L 116.49535 139.859979 
L 119.047623 139.211358 
L 121.599896 138.562937 
L 124.152168 133.37961 
L 126.704441 133.055709 
L 129.256714 128.1935 
L 131.808987 119.720434 
L 134.361259 119.064604 
L 136.913532 109.783894 
L 139.465805 87.981416 
L 142.018077 69.269605 
L 144.57035 55.837275 
L 147.122623 12.896549 
L 149.674896 12.896549 
L 152.227168 12.896549 
L 154.779441 12.896549 
L 157.331714 12.896549 
L 159.883987 12.896549 
L 162.436259 12.896549 
L 164.988532 12.896549 
L 167.540805 12.896549 
L 170.093077 12.896549 
L 172.64535 12.896549 
L 175.197623 12.896549 
L 177.749896 12.896549 
L 180.302168 12.896549 
L 182.854441 12.896549 
L 185.406714 12.896549 
L 187.958987 12.896549 
L 190.511259 12.896549 
L 193.063532 12.896549 
L 195.615805 12.896549 
L 198.168077 12.896549 
L 200.72035 12.896549 
L 203.272623 12.896549 
L 205.824896 12.896549 
L 208.377168 12.896549 
L 210.929441 12.896549 
L 213.481714 12.896549 
L 216.033987 12.896549 
L 218.586259 12.896549 
L 221.138532 12.896549 
L 223.690805 12.896549 
L 226.243077 12.896549 
L 228.79535 12.896549 
L 231.347623 12.896549 
L 233.899896 12.896549 
L 236.452168 12.896549 
L 239.004441 12.896549 
L 241.556714 12.896549 
L 244.108987 12.896549 
L 246.661259 12.896549 
L 249.213532 12.896549 
L 251.765805 12.896549 
L 254.318077 12.896549 
L 256.87035 12.896549 
L 259.422623 12.896549 
L 261.974896 12.896549 
L 264.527168 12.896549 
L 267.079441 12.896549 
L 269.631714 12.896549 
L 272.183987 12.896549 
L 274.736259 12.896549 
L 277.288532 12.896549 
L 279.840805 12.896549 
L 282.393077 12.896549 
L 284.94535 12.896549 
L 287.497623 12.896549 
L 290.049896 12.896549 
L 292.602168 12.896549 
L 295.154441 12.896549 
L 297.706714 12.896549 
L 300.258987 12.896549 
L 302.811259 12.896549 
L 305.363532 12.896549 
L 307.915805 12.896549 
L 310.468077 12.896549 
L 313.02035 12.896549 
L 315.572623 12.896549 
L 318.124896 12.896549 
" clip-path="url(#p17a84077ef)" style="fill: none; stroke: #fdb42f; stroke-width: 1.5; stroke-linecap: round"/>
   </g>
   <g id="line2d_7">
    <path d="M 65.449896 12.896549 
L 68.002168 12.896549 
L 70.554441 12.896549 
L 73.106714 12.896549 
L 75.658987 12.896549 
L 78.211259 12.896549 
L 80.763532 12.896549 
L 83.315805 12.896549 
L 85.868077 12.896549 
L 88.42035 12.896549 
L 90.972623 12.896549 
L 93.524896 12.896549 
L 96.077168 12.896549 
L 98.629441 12.896549 
L 101.181714 12.896549 
L 103.733987 12.896549 
L 106.286259 12.896549 
L 108.838532 12.896549 
L 111.390805 12.896549 
L 113.943077 12.896549 
L 116.49535 12.896549 
L 119.047623 12.896549 
L 121.599896 12.896549 
L 124.152168 12.896549 
L 126.704441 12.896549 
L 129.256714 12.896549 
L 131.808987 12.896549 
L 134.361259 12.896549 
L 136.913532 12.896549 
L 139.465805 12.896549 
L 142.018077 12.896549 
L 144.57035 12.896549 
L 147.122623 12.896549 
L 149.674896 12.896549 
L 152.227168 12.896549 
L 154.779441 12.896549 
L 157.331714 12.896549 
L 159.883987 12.896549 
L 162.436259 12.896549 
L 164.988532 12.896549 
L 167.540805 12.896549 
L 170.093077 12.896549 
L 172.64535 12.896549 
L 175.197623 12.896549 
L 177.749896 12.896549 
L 180.302168 12.896549 
L 182.854441 12.896549 
L 185.406714 12.896549 
L 187.958987 12.896549 
L 190.511259 12.896549 
L 193.063532 12.896549 
L 195.615805 12.896549 
L 198.168077 12.896549 
L 200.72035 12.896549 
L 203.272623 12.896549 
L 205.824896 12.896549 
L 208.377168 12.896549 
L 210.929441 12.896549 
L 213.481714 12.896549 
L 216.033987 12.896549 
L 218.586259 12.896549 
L 221.138532 12.896549 
L 223.690805 12.896549 
L 226.243077 12.896549 
L 228.79535 12.896549 
L 231.347623 12.896549 
L 233.899896 12.896549 
L 236.452168 12.896549 
L 239.004441 12.896549 
L 241.556714 12.896549 
L 244.108987 12.896549 
L 246.661259 12.896549 
L 249.213532 12.896549 
L 251.765805 12.896549 
L 254.318077 12.896549 
L 256.87035 12.896549 
L 259.422623 12.896549 
L 261.974896 12.896549 
L 264.527168 12.896549 
L 267.079441 12.896549 
L 269.631714 12.896549 
L 272.183987 12.896549 
L 274.736259 12.896549 
L 277.288532 12.896549 
L 279.840805 12.896549 
L 282.393077 12.896549 
L 284.94535 12.896549 
L 287.497623 12.896549 
L 290.049896 12.896549 
L 292.602168 12.896549 
L 295.154441 12.896549 
L 297.706714 12.896549 
L 300.258987 12.896549 
L 302.811259 12.896549 
L 305.363532 12.896549 
L 307.915805 12.896549 
L 310.468077 12.896549 
L 313.02035 12.896549 
L 315.572623 12.896549 
L 318.124896 12.896549 
" clip-path="url(#p17a84077ef)" style="fill: none; stroke: #f0f921; stroke-width: 1.5; stroke-linecap: round"/>
   </g>
   <g id="line2d_8">
    <path d="M 65.449896 165.254881 
L 68.002168 155.936439 
L 70.554441 155.597702 
L 73.106714 155.139463 
L 75.658987 153.66425 
L 78.211259 150.937589 
L 80.763532 147.617703 
L 83.315805 143.555606 
L 85.868077 143.341678 
L 88.42035 142.336021 
L 90.972623 141.29339 
L 93.524896 141.070716 
L 96.077168 140.339407 
L 98.629441 139.821788 
L 101.181714 138.507382 
L 103.733987 138.052635 
L 106.286259 136.898535 
L 108.838532 136.38431 
L 111.390805 135.877119 
L 113.943077 135.530525 
L 116.49535 134.214945 
L 119.047623 133.170931 
L 121.599896 132.489738 
L 124.152168 132.240343 
L 126.704441 132.128449 
L 129.256714 131.511153 
L 131.808987 131.22457 
L 134.361259 131.187095 
L 136.913532 130.965767 
L 139.465805 130.481436 
L 142.018077 130.186083 
L 144.57035 128.007786 
L 147.122623 127.396874 
L 149.674896 126.086592 
L 152.227168 126.061268 
L 154.779441 125.793158 
L 157.331714 125.263421 
L 159.883987 124.980498 
L 162.436259 124.569283 
L 164.988532 124.364283 
L 167.540805 124.277695 
L 170.093077 124.176293 
L 172.64535 123.705237 
L 175.197623 122.989552 
L 177.749896 122.748888 
L 180.302168 122.106811 
L 182.854441 121.916129 
L 185.406714 121.787814 
L 187.958987 121.039976 
L 190.511259 118.504167 
L 193.063532 117.028094 
L 195.615805 116.898805 
L 198.168077 116.582803 
L 200.72035 116.403714 
L 203.272623 115.467533 
L 205.824896 115.409142 
L 208.377168 115.322652 
L 210.929441 114.667352 
L 213.481714 114.648962 
L 216.033987 114.308636 
L 218.586259 114.10587 
L 221.138532 113.899799 
L 223.690805 112.938129 
L 226.243077 111.467176 
L 228.79535 110.411592 
L 231.347623 110.093349 
L 233.899896 109.935263 
L 236.452168 109.340259 
L 239.004441 109.092438 
L 241.556714 108.814664 
L 244.108987 108.501707 
L 246.661259 108.459644 
L 249.213532 108.312227 
L 251.765805 108.233825 
L 254.318077 107.293371 
L 256.87035 106.541918 
L 259.422623 106.333689 
L 261.974896 104.228697 
L 264.527168 104.170992 
L 267.079441 103.02445 
L 269.631714 102.900416 
L 272.183987 102.178111 
L 274.736259 101.646024 
L 277.288532 101.19858 
L 279.840805 101.079812 
L 282.393077 100.634 
L 284.94535 100.393221 
L 287.497623 99.537154 
L 290.049896 99.126615 
L 292.602168 98.964803 
L 295.154441 96.298788 
L 297.706714 96.024521 
L 300.258987 95.336473 
L 302.811259 95.278704 
L 305.363532 93.133676 
L 307.915805 92.980386 
L 310.468077 92.560546 
L 313.02035 88.070198 
L 315.572623 85.281355 
L 318.124896 82.337199 
" clip-path="url(#p17a84077ef)" style="fill: none; stroke: #000000; stroke-width: 6; stroke-linecap: round"/>
   </g>
   <g id="patch_3">
    <path d="M 65.449896 265.571549 
L 65.449896 12.896549 
" style="fill: none; stroke: #262626; stroke-width: 1.25; stroke-linejoin: miter; stroke-linecap: square"/>
   </g>
   <g id="patch_4">
    <path d="M 65.449896 265.571549 
L 318.124896 265.571549 
" style="fill: none; stroke: #262626; stroke-width: 1.25; stroke-linejoin: miter; stroke-linecap: square"/>
   </g>
   <g id="legend_1">
    <g id="patch_5">
     <path d="M 73.149896 150.864049 
L 171.132396 150.864049 
Q 173.332396 150.864049 173.332396 148.664049 
L 173.332396 20.596549 
Q 173.332396 18.396549 171.132396 18.396549 
L 73.149896 18.396549 
Q 70.949896 18.396549 70.949896 20.596549 
L 70.949896 148.664049 
Q 70.949896 150.864049 73.149896 150.864049 
z
" style="fill: #ffffff; opacity: 0.8; stroke: #cccccc; stroke-linejoin: miter"/>
    </g>
    <g id="line2d_9">
     <path d="M 75.349896 27.30483 
L 86.349896 27.30483 
L 97.349896 27.30483 
" style="fill: none; stroke: #0d0887; stroke-width: 1.5; stroke-linecap: round"/>
    </g>
    <g id="text_15">
     <text style="fill: #262626; font: 11px 'Arial', 'DejaVu Sans', 'Liberation Sans', 'Bitstream Vera Sans', sans-serif; text-anchor: start" x="106.149896" y="31.15483" transform="rotate(-0 106.149896 31.15483)">1</text>
    </g>
    <g id="line2d_10">
     <path d="M 75.349896 43.450767 
L 86.349896 43.450767 
L 97.349896 43.450767 
" style="fill: none; stroke: #5c01a6; stroke-width: 1.5; stroke-linecap: round"/>
    </g>
    <g id="text_16">
     <text style="fill: #262626; font: 11px 'Arial', 'DejaVu Sans', 'Liberation Sans', 'Bitstream Vera Sans', sans-serif; text-anchor: start" x="106.149896" y="47.300767" transform="rotate(-0 106.149896 47.300767)">2/3</text>
    </g>
    <g id="line2d_11">
     <path d="M 75.349896 59.596705 
L 86.349896 59.596705 
L 97.349896 59.596705 
" style="fill: none; stroke: #9c179e; stroke-width: 1.5; stroke-linecap: round"/>
    </g>
    <g id="text_17">
     <text style="fill: #262626; font: 11px 'Arial', 'DejaVu Sans', 'Liberation Sans', 'Bitstream Vera Sans', sans-serif; text-anchor: start" x="106.149896" y="63.446705" transform="rotate(-0 106.149896 63.446705)">4</text>
    </g>
    <g id="line2d_12">
     <path d="M 75.349896 75.742642 
L 86.349896 75.742642 
L 97.349896 75.742642 
" style="fill: none; stroke: #cc4778; stroke-width: 1.5; stroke-linecap: round"/>
    </g>
    <g id="text_18">
     <text style="fill: #262626; font: 11px 'Arial', 'DejaVu Sans', 'Liberation Sans', 'Bitstream Vera Sans', sans-serif; text-anchor: start" x="106.149896" y="79.592642" transform="rotate(-0 106.149896 79.592642)">5</text>
    </g>
    <g id="line2d_13">
     <path d="M 75.349896 91.88858 
L 86.349896 91.88858 
L 97.349896 91.88858 
" style="fill: none; stroke: #ed7953; stroke-width: 1.5; stroke-linecap: round"/>
    </g>
    <g id="text_19">
     <text style="fill: #262626; font: 11px 'Arial', 'DejaVu Sans', 'Liberation Sans', 'Bitstream Vera Sans', sans-serif; text-anchor: start" x="106.149896" y="95.73858" transform="rotate(-0 106.149896 95.73858)">6a</text>
    </g>
    <g id="line2d_14">
     <path d="M 75.349896 108.034517 
L 86.349896 108.034517 
L 97.349896 108.034517 
" style="fill: none; stroke: #fdb42f; stroke-width: 1.5; stroke-linecap: round"/>
    </g>
    <g id="text_20">
     <text style="fill: #262626; font: 11px 'Arial', 'DejaVu Sans', 'Liberation Sans', 'Bitstream Vera Sans', sans-serif; text-anchor: start" x="106.149896" y="111.884517" transform="rotate(-0 106.149896 111.884517)">6b</text>
    </g>
    <g id="line2d_15">
     <path d="M 75.349896 124.180455 
L 86.349896 124.180455 
L 97.349896 124.180455 
" style="fill: none; stroke: #f0f921; stroke-width: 1.5; stroke-linecap: round"/>
    </g>
    <g id="text_21">
     <text style="fill: #262626; font: 11px 'Arial', 'DejaVu Sans', 'Liberation Sans', 'Bitstream Vera Sans', sans-serif; text-anchor: start" x="106.149896" y="128.030455" transform="rotate(-0 106.149896 128.030455)">NA</text>
    </g>
    <g id="line2d_16">
     <path d="M 75.349896 140.326392 
L 86.349896 140.326392 
L 97.349896 140.326392 
" style="fill: none; stroke: #000000; stroke-width: 6; stroke-linecap: round"/>
    </g>
    <g id="text_22">
     <text style="fill: #262626; font: 11px 'Arial', 'DejaVu Sans', 'Liberation Sans', 'Bitstream Vera Sans', sans-serif; text-anchor: start" x="106.149896" y="144.176392" transform="rotate(-0 106.149896 144.176392)">Cumulative</text>
    </g>
   </g>
  </g>
 </g>
 <defs>
  <clipPath id="p17a84077ef">
   <rect x="65.449896" y="12.896549" width="252.675" height="252.675"/>
  </clipPath>
 </defs>
</svg>
